<svg xmlns="http://www.w3.org/2000/svg" xmlns:xlink="http://www.w3.org/1999/xlink" viewBox="0 0 128 128"><style>.B{stroke-linecap:round}.C{fill:#bec5c7}.D{stroke-miterlimit:10}.E{stroke:#e5c2ba}.F{stroke:#d1a9a3}.G{stroke:#edccc3}.H{stroke-linejoin:round}</style><path fill="#b8cad1" d="M83.86 45.98H32.24a49.199 49.199 0 0 0 0 21.06l3.5-1.52 1.74 8.92 4.42-2 11.14.96h10.14l11.16-.96 4.42 2 1.72-8.92 3.44 1.54a48.66 48.66 0 0 0-.06-21.08z"/><path d="M36.18 47.18a26.559 26.559 0 0 0 3.18-2.46 38.678 38.678 0 0 0 2.98-2.74 28.683 28.683 0 0 0 4.76-6.9 32.235 32.235 0 0 1-1.52 4 30.147 30.147 0 0 1-2 3.82 19.021 19.021 0 0 1-2.82 3.38 15.097 15.097 0 0 1-3.64 2.6.9.9 0 0 1-1.22-.32.88.88 0 0 1 .275-1.214q.022-.014.045-.026z" class="C"/><path fill="#333" d="M33.9 46.46a36.72 36.72 0 0 0-1.32 10 66.395 66.395 0 0 0 .78 10.36l-1.66-.84 3.46-1.48a1.12 1.12 0 0 1 1.46.6.579.579 0 0 1 0 .26l1.44 8.96-1.18-.6 4.44-2a.5.5 0 0 1 .34 0l11.08 1.74-11.04-.24h.4l-4.4 2a.84.84 0 0 1-1.119-.398l-.001-.002v-.16l-2-8.88 1.58.82-3.38 1.52a1.14 1.14 0 0 1-1.528-.515l-.012-.025v-.28a68.008 68.008 0 0 1-1.48-10.82 39.122 39.122 0 0 1 .9-11 1.72 1.72 0 0 1 3.34.82zm51.62-.92a39.122 39.122 0 0 1 .9 11 64.441 64.441 0 0 1-1.38 10.72 1.14 1.14 0 0 1-1.318.928l-.042-.008h-.32l-3.42-1.58 1.58-.82-2 8.88a.84.84 0 0 1-1 .64h-.18l-4.4-2h.4l-11.22.16 11.08-1.74h.36l4.44 2-1.18.6 1.54-8.96a1.1 1.1 0 0 1 1.254-.921l.006.001h.26l3.5 1.54-1.64.88a66.39 66.39 0 0 0 .82-10.36 37.498 37.498 0 0 0-1.3-10 1.72 1.72 0 0 1 1.1-2.14 1.74 1.74 0 0 1 2.14 1.16z"/><path fill="#414242" d="M103.5 96.74a7.74 7.74 0 0 0-5.76-6.46c-3-.86-26.54-7.1-26.54-7.1v-8.74H44.88v8.74l-26.56 7.1a7.74 7.74 0 0 0-5.76 6.46l-1.2 7.1a106.421 106.421 0 0 0 46.7 10.14 106.419 106.419 0 0 0 46.62-10.14z"/><path fill="#3a3a3a" d="M83.36 92.12l4.56-4.54-16.76-4.46v-8.68H44.88v2.14L60.5 92.12a16.18 16.18 0 0 0 22.86 0z"/><use fill="#edccc3" xlink:href="#B"/><path fill="#e5c2ba" d="M32.4 51.98c0-7.4 5.64-5.64 5.64-5.64 1.5.78 1.5 2.1 1.5 3.72s-.18 11.56-.18 11.82c-5.3-.32-6.96-6.2-6.96-9.9z"/><path fill="none" d="M51.1 68.66l-.68 1.36" class="B D F"/><g fill="#e5c2ba"><path d="M79.02 43.74l.48.68v-3.48c0-12.16-6.88-21.86-21.5-21.86s-21.52 9.7-21.52 21.86v5.18c-3.88 0-4.8 3.48-4 7.68 2.84-.54 12.82-3 18.3-10.96 4.96-6.9 10.76-11.7 20.78-11.14l.42.68a13.215 13.215 0 0 0 1.52 2.12c2.34 2.66 3.24 5.8 5.52 9.24z"/><path d="M79.06 46.5v-5.04c0-11.74-8-24-21.08-24a19.499 19.499 0 0 0-5.86.92V43.4c0 4-4 2.56-4 3.26 6.88.42 6.36 2.52 9 2.52a.88.88 0 0 1 .919.839.93.93 0 0 1 .001.041v.92c0 6.52 3.78 10.78-.28 10.78-1.48 0-1.1-.66-3.04-1-1.2-.22-.9 1.14-.9 1.14 2.46.5 1.72 1.18 4.22 1.2v10.88c3.6.54 4 1.26 4 3.2s-1.32 2.12-4 2.12c-4.14 0-5.12.64-5.52 1.38a16.601 16.601 0 0 0 5.4.96 15.2 15.2 0 0 0 6.3-1.36c6.3-3.32 11.24-9.46 12-13.8.22-1.1.68-4.84.68-4.84 3 0 4.82-4.36 5.54-7.72.92-4.2.4-7.42-3.38-7.42z"/></g><g fill="none" class="B"><g class="D"><path d="M54.22 62l-4.46 4.84" class="E"/><path d="M62.02 62l4.46 4.84" class="G"/><path d="M58.12 63.3v1.96" class="F"/></g><path d="M58.12,79.74V77.52s-.12,2.22,1.46,2.22" class="E H"/></g><path fill="#ddbbb6" d="M83.08 51.98c0-7.4-5.64-5.64-5.64-5.64-1.5.78-1.5 2.1-1.5 3.72v11.3c5.42-.34 7.14-5.68 7.14-9.38zm-4.02-8.2v-2.32a26 26 0 0 0-8-18.78A22.68 22.68 0 0 0 58 19.08a29.037 29.037 0 0 0-5.88.6V40.8a1.341 1.341 0 0 1 0 .4c4.6-6 10.32-10 19.5-9.46l.42.68a13.215 13.215 0 0 0 1.52 2.12c2.34 2.62 3.24 5.76 5.52 9.2z"/><g fill="none"><g class="B D"><path d="M45.18 43.38l.84-.52a9.82 9.82 0 0 1 8.54-.74 9.66 9.66 0 0 0 6.8 0 9.58 9.58 0 0 1 8.58.88l.72.44m-22.92-5.32a9.76 9.76 0 0 1 6.82 0 9.44 9.44 0 0 0 6.8 0 9.66 9.66 0 0 1 6.94 0" class="G"/><path d="M45.18 44.38l.84-.52a9.82 9.82 0 0 1 8.54-.8 9.66 9.66 0 0 0 6.86 0 9.58 9.58 0 0 1 8.58.88l.72.44m-22.98-5.24a9.76 9.76 0 0 1 6.82 0 9.44 9.44 0 0 0 6.86 0 9.66 9.66 0 0 1 6.94 0" class="E"/><path d="M54.1 35.06a15.62 15.62 0 0 0 7.8 0" class="G"/><path d="M64.86 68.66l.68 1.36" class="F"/><path stroke="#af8582" stroke-width="1.5" d="M53.9,61.98c2,.6,2.28,1.4,4,1.4s2-.82,4-1.4"/></g><use stroke="#333" stroke-width="3" class="H" xlink:href="#B"/></g><path fill="#333" d="M86.34,46.64l-3.12-.66-3.86.78-1.72,4.2a.68.68,0,0,1-.86.42.66.66,0,0,1-.46-.68V40.12a15.18,15.18,0,0,0-.82-4.9l7.36,2.74Z"/><path fill="#ebf1f2" d="M86.98,40.9S84.1,23.46,74.42,21.18a4.42,4.42,0,0,0-.68-1.54c-3.5-4.58-15.34-8-29.46-3.3-12.78,4.3-16.56,24.42-16.8,26.94v.6l-1,4.1,12.66-2.66-3.28,2.92c5-1.16,8.98-2.12,12-6.3l2.1-2.44s8.12-11.58,18.12-11.24H70.7l4.66,7.72,2.86,4.4,3.64,3.74,4.48,2.46V45.2l-.86-3.5Z"/><path d="M69.74 27.16l3.14-2.38-.6 3.9a1.605 1.605 0 0 1-3.16-.56 1.54 1.54 0 0 1 .62-.96z" class="C"/><path fill="#f7dad4" d="M70.74 47.18h-4.52a6.12 6.12 0 0 0-3.5 1.16 4.52 4.52 0 0 0-1.76 4.48 7.6 7.6 0 0 0 7.82 6.66c4.9 0 6.68-4.66 6.68-7.8v-.36a4.64 4.64 0 0 0-4.72-4.14z"/><path fill="#fce0da" d="M50.04 46.68h-4.48a4.66 4.66 0 0 0-4.7 4.2v.38c0 3.2 1.76 8 6.64 8a7.66 7.66 0 0 0 7.8-6.8 4.7 4.7 0 0 0-1.76-4.58 6 6 0 0 0-3.5-1.2z"/><g fill="#333"><path d="M54.92 49.84l-.72-1.86a11.34 11.34 0 0 1 7.54 0l-.72 1.9a9.24 9.24 0 0 0-6.1-.04z"/><path d="M53.9 47.4a6.58 6.58 0 0 0-4-1.36H37.36l.3 2a2 2 0 0 1 1.78 1.6l.68 4.4a7.38 7.38 0 0 0 7.24 6.18 8.5 8.5 0 0 0 8.6-7.46 5.6 5.6 0 0 0-2.06-5.36zm.24 5.1a6.56 6.56 0 0 1-6.76 6c-4.12 0-5.62-4.14-5.62-6.94v-.3a3.68 3.68 0 0 1 3.7-3.28h4.42a4.68 4.68 0 0 1 2.88.98 3.68 3.68 0 0 1 1.38 3.54zm5.98.34a8.5 8.5 0 0 0 8.6 7.46 7.34 7.34 0 0 0 7.16-6.32l.7-4.42a2 2 0 0 1 1.76-1.6l.34-2H66.2a6.58 6.58 0 0 0-4 1.36 5.6 5.6 0 0 0-2.08 5.52zm3.22-4a4.66 4.66 0 0 1 2.88-.86h4.42a3.66 3.66 0 0 1 3.7 3.3v.3c0 2.8-1.5 6.94-5.62 6.94a6.58 6.58 0 0 1-6.76-6 3.7 3.7 0 0 1 1.4-3.64z"/></g><path fill="#e0e9eb" d="M86.34 45.26l-2-3.22 3.22-.56C86.04 36.16 81 27.48 74.4 26c-1.72-5.7-15.8-10.82-30.2-4.84C31.74 26.3 28.74 39.8 26.84 47.98l13.04-3.12-4.14 3.52s7.84.5 14.26-8.84c4.82-7.02 10.72-11.72 20.74-11.16 0 .16 7.4 12 7.46 12 3.3 5.08 8.56 5.74 8.14 4.88z"/><path d="M87.58 42.4S84.1 23.46 74.42 21.18c-4.68-7.5-13.76-6.78-18.34-6.32 6.5 1.64 10.64 3.1 12.86 6.56-4.34-2-14.54-2.14-22.24 3.08a34.92 34.92 0 0 1 19.26-1.24 35.419 35.419 0 0 0-9.6 1.44 14.32 14.32 0 0 0-8.8 8.12 45.259 45.259 0 0 1 10.76-4.84 23.14 23.14 0 0 1 12.46.56c5.2 11.26 8.28 15.14 15.56 18l-2-4.6z" class="C"/><g fill="none" stroke="#333" stroke-width="3" class="H"><path d="M71.18 83.18l26.56 7.1a7.78 7.78 0 0 1 5.78 6.46l1.18 7.1a106.44 106.44 0 0 1-46.64 10.14 106.44 106.44 0 0 1-46.7-10.14l1.2-7.1a7.74 7.74 0 0 1 5.76-6.46c3.02-.86 26.56-7.1 26.56-7.1"/><path d="M44.9 76.48v11.14m26.32-11.14v11.14" class="B"/></g><g class="C"><path d="M69.74 27.4a1.58 1.58 0 0 1 .86 0l.42.14a3.276 3.276 0 0 1 .58.32 6.145 6.145 0 0 1 .76.68 12.751 12.751 0 0 1 .98 1.34 19.993 19.993 0 0 1 1.34 2.7c.78 1.78 1.36 3.66 2 5.32a18.118 18.118 0 0 0 2.54 4.8 12.221 12.221 0 0 0 4 3.7 12.881 12.881 0 0 1-4.82-3.06 19.859 19.859 0 0 1-3.54-4.62c-1.02-1.74-1.62-3.46-2.48-5.06a19.665 19.665 0 0 0-1.36-2.24 5.198 5.198 0 0 0-.76-.86l-.3-.24h.52a1.5 1.5 0 0 1-1.758-1.188l-.002-.012a1.52 1.52 0 0 1 .96-1.68z"/><path d="M69.36 30.46a11.42 11.42 0 0 0-4.36 0A16.322 16.322 0 0 0 60.62 32a29.421 29.421 0 0 0-7.7 5.86c-2.4 2.36-4.62 4.94-7.4 7.2a15.199 15.199 0 0 1-4.72 2.54c-1.68.56-3.36.94-5.02 1.32a.544.544 0 0 1-.38-1.02 28 28 0 0 0 6.3-4.62 26.42 26.42 0 0 0 4.78-6.24 26.62 26.62 0 0 1-4.38 6.62 27.682 27.682 0 0 1-6 5.22l-.4-1.02a20.799 20.799 0 0 0 8.78-4.26c2.34-2.26 4.4-5 6.7-7.56a27.759 27.759 0 0 1 8.18-6.66 18.441 18.441 0 0 1 5.22-1.74 12.001 12.001 0 0 1 5.76.34 1.32 1.32 0 0 1 .705 1.729l-.005.01a1.3 1.3 0 0 1-1.42.78z"/></g><path fill="#717171" d="M48.6 49.26a1.72 1.72 0 1 0 1.72 1.72 1.74 1.74 0 0 0-1.72-1.72m18.64 0a1.72 1.72 0 1 0 1.72 1.72 1.7 1.7 0 0 0-1.68-1.72"/><circle cx="48.16" cy="53.68" r="2.7" fill="#fde6e1"/><path fill="#8d8d8d" d="M48.16 50.98a2.66 2.66 0 0 0-1.24.32 1.74 1.74 0 0 0 1.68 1.4 1.7 1.7 0 0 0 1.5-.9 2.7 2.7 0 0 0-1.94-.82z"/><circle cx="67.94" cy="53.68" r="2.7" fill="#f9e1dd"/><path fill="#8d8d8d" d="M65.86 51.98a1.7 1.7 0 0 0 2.36.42 1.82 1.82 0 0 0 .72-1.22 2.64 2.64 0 0 0-3.08.8z"/><path fill="#ddbab6" d="M60.72 66.88a5.26 5.26 0 0 0-2.36.26 1.5 1.5 0 0 1-.84 0 5.559 5.559 0 0 0-2.36-.26c-1.34.18-1.48 1.04-4.18 2.5l2.38 1.46a4.28 4.28 0 0 0 2.54.82h4.12a4.28 4.28 0 0 0 2.54-.82l2.46-1.4c-2.7-1.46-2.96-2.38-4.3-2.56z"/><g fill="none" class="B D"><path stroke="#af8582" stroke-width="1.2" d="M65.02 69.44c-2 0-2.5-.78-4.48-.78a13.821 13.821 0 0 0-2.56.34 13.999 13.999 0 0 0-2.62-.34c-1.9 0-2.3.72-4.42.72"/><path d="M64 75a14 14 0 0 0-6-1.1 13.879 13.879 0 0 0-5.9 1.1" class="E"/></g><path fill="#333" d="M70.64 30.94a19.36 19.36 0 0 1 4 4.28l3.38 4.54a16.682 16.682 0 0 0 3.84 3.56 12.7 12.7 0 0 0 4.74 1.82l-1.68 2.12-2-4.58-1.18-2.56 2.72.28 3.24.34-1.78 1.9a51.267 51.267 0 0 0-1.68-6 43.024 43.024 0 0 0-2.42-5.78 23.303 23.303 0 0 0-3.36-5 9.18 9.18 0 0 0-4.52-2.9l-1.02-.24-.3-1a5.68 5.68 0 0 0-2-2.44 15.298 15.298 0 0 0-3.26-1.8 23.56 23.56 0 0 0-8-1.54 30.26 30.26 0 0 0-15.66 4A24.46 24.46 0 0 0 32.98 31.8a28.376 28.376 0 0 0-1.32 4l-1.1 4.14-2.28 8.42-1.66-2a86.666 86.666 0 0 0 9.08-1.46 19.999 19.999 0 0 0 4.36-1.48 15.999 15.999 0 0 0 4-2.6 22.18 22.18 0 0 1-7.52 6.22 18.921 18.921 0 0 1-4.7 1.6c-1.62.34-3.24.52-4.8.72l-2.24.3.58-2.2 3.24-12.62a30.728 30.728 0 0 1 1.4-4.36 28 28 0 0 1 12-13.64 33.6 33.6 0 0 1 17.58-4.72 26.66 26.66 0 0 1 9.08 1.86 17.779 17.779 0 0 1 4.2 2.38 8.8 8.8 0 0 1 3.28 4.28l-1.32-1.24a12.84 12.84 0 0 1 6.34 4A25.262 25.262 0 0 1 85 29.26a47.457 47.457 0 0 1 2.5 6.3 52.21 52.21 0 0 1 1.66 6.56l.42 2.16-2.22-.3-3.2-.4 1.62-2.2 2 4.6 1.1 2.66-2.82-.52a14.98 14.98 0 0 1-5.88-2.38 15.739 15.739 0 0 1-4.26-4.5 39.056 39.056 0 0 1-2.74-5.12 48.12 48.12 0 0 0-2.54-5.18z"/><defs><path id="B" d="M58 81.56a14.561 14.561 0 0 0 7.5-1.58c6.58-4 8.26-5.5 9.6-10.54.84-3.1 1.48-7.54 1.48-7.54 2 0 6-4.34 6.84-7.82.9-4.28 0-7.82-4-7.82v-5.32c0-12.16-6.88-21.86-21.5-21.86s-21.44 9.7-21.44 21.86v5.18c-4 0-4.82 3.54-4 7.82.74 3.48 4.88 7.82 6.84 7.82 0 0 .66 4.44 1.48 7.54 1.34 5.04 3.02 6.52 9.6 10.54a14.56 14.56 0 0 0 7.6 1.72z"/></defs></svg>