<svg xmlns="http://www.w3.org/2000/svg" viewBox="0 0 128 128"><path d="M115.92 100.9a12.72 12.72 0 0 0-9.38-9.86L76.96 83.6v-9.46l-27.22.32v9.12L20.1 91.04a12.72 12.72 0 0 0-9.38 9.86l-.62 4.2.22.12a131.001 131.001 0 0 0 53.04 11.14 130.961 130.961 0 0 0 53.02-11.12z" fill="#a98265"/><path d="M115.92 100.9a12.72 12.72 0 0 0-9.38-9.86l-9.8-2.44A135.84 135.84 0 0 0 75 85a29.459 29.459 0 0 1-9.56 6.54h-4.4a32.541 32.541 0 0 1-9.52-6.52 135.63 135.63 0 0 0-21.54 3.58l-9.88 2.44a12.72 12.72 0 0 0-9.38 9.86l-.62 4.2.22.12a131.001 131.001 0 0 0 53.04 11.14 130.961 130.961 0 0 0 53.02-11.12z" fill="#485668"/><path d="M106.54 96.78l-9.8-2.44a137.458 137.458 0 0 0-28.8-4l-2.5 1.22h-4.38l-2.38-1.22a137.639 137.639 0 0 0-28.7 4l-9.88 2.44a12.72 12.72 0 0 0-9.1 8.78 131.22 131.22 0 0 0 52.28 10.8 131.221 131.221 0 0 0 52.28-10.8 12.72 12.72 0 0 0-9.02-8.78z" fill="#3b485b"/><path d="M63.36 116.36q4.88 0 9.66-.36l-5.6-17.04 3.12-4.14a2.44 2.44 0 0 0 0-2.88 2.58 2.58 0 0 0-2.14-1.04h-6.48a2.44 2.44 0 0 0-2.28 1.56 2.6 2.6 0 0 0 .4 2.46l3 4-6 17.28 6.32.16z" fill="#d1d0bd"/><path d="M75 85a29.459 29.459 0 0 1-9.56 6.54h-4.4a33.04 33.04 0 0 1-9.5-6.5l-6.66.72c.38 13.42 2.16 22 5.84 30 4 .38 8.44.6 12.62.6 4 0 8.24-.2 12.48-.6 3.68-7.88 5.46-16.56 5.86-30-2.42-.36-4.66-.6-6.68-.76z" fill="#eee"/><path d="M48.24 74.486l3-.013.04 9.12-3 .013zm27.22-.326h3v9.44h-3z" fill="#333"/><path d="M74.96 103.1l1.28 1.7a1.12 1.12 0 0 0 .4.28 1 1 0 0 0 1.3-.54L82.34 87zM61.04 91.54l-9.06 11.72.8 1.44c.68 1.26 1.46.34 1.48.32 1.12-1.48 9.02-12.62 9.02-12.62z" fill="#d1d0bd"/><path d="M57.02 94.88l4.56 6a2 2 0 0 0 2.779.525q.073-.05.14-.105a2 2 0 0 0 .4-.42l4.66-6a2 2 0 0 0-.295-2.813q-.07-.057-.145-.107a2 2 0 0 0-1.22-.4h-9.16a2 2 0 0 0-1.72 3.32z" fill="#2f62ab"/><path d="M63.237 103.25a3.497 3.497 0 0 1-2.895-1.525l-4.484-5.896a3.5 3.5 0 0 1 2.958-5.77H67.9a3.493 3.493 0 0 1 2.12.7c.016.008.097.068.176.13a3.5 3.5 0 0 1 .529 4.934l-4.64 5.975a3.325 3.325 0 0 1-.659.681l-.217.16a3.488 3.488 0 0 1-1.972.609zM58.5 93.046a.5.5 0 0 0-.372.834l.076.093 4.56 6a.526.526 0 0 0 .74.193.695.695 0 0 0 .16-.152l4.7-6.054a.527.527 0 0 0 .128-.392.497.497 0 0 0-.183-.336l-.1-.072a.586.586 0 0 0-.307-.101l-9.345-.01a.569.569 0 0 0-.058-.003z" fill="#333"/><path d="M56.22,116.14q3.54.18,7.14.18t7.08-.18l-6-15.26H62.1Z" fill="#2f62ab"/><path d="M63.36 117.82c-2.42 0-4.848-.06-7.216-.182l-2.068-.105L61.07 99.38h4.39l7.136 18.15-2.08.107-7.157.183zm-4.99-3.088l9.904.001-4.857-12.353h-.29z" fill="#333"/><path d="M47.08 79.24l-2.84 7.8 7.5 16.52 9.32-12a29.999 29.999 0 0 1-13.98-12.32z" fill="#eee"/><g fill="#333"><path d="M51.74 105.06a1.327 1.327 0 0 1-.175-.011 1.498 1.498 0 0 1-1.19-.869l-7.5-16.52a1.498 1.498 0 0 1-.044-1.133l2.84-7.8a1.5 1.5 0 0 1 2.702-.249 28.317 28.317 0 0 0 13.281 11.704 1.5 1.5 0 0 1 .591 2.298l-9.32 12a1.501 1.501 0 0 1-1.184.58zm-5.88-18.082l6.22 13.7 6.644-8.554a31.205 31.205 0 0 1-11.256-9.562z"/><path d="M51.7 105.06a1.327 1.327 0 0 1-.175-.011 1.498 1.498 0 0 1-1.19-.869l-7.5-16.52a1.498 1.498 0 0 1-.044-1.133l2.84-7.8a1.5 1.5 0 0 1 2.704-.245 28.27 28.27 0 0 0 13.29 11.679 1.501 1.501 0 0 1 .528 2.388l-9.268 11.932a1.501 1.501 0 0 1-1.185.58zm-5.88-18.082l6.22 13.7 6.655-8.57a31.366 31.366 0 0 1-11.268-9.545z"/></g><path d="M79.5,79.24,82.34,87l-7.58,16.54-9.32-12A30,30,0,0,0,79.5,79.24Z" fill="#eee"/><g fill="#333"><path d="M74.76 105.04a1.501 1.501 0 0 1-1.185-.58l-9.32-12a1.5 1.5 0 0 1 .597-2.3A28.316 28.316 0 0 0 78.21 78.474a1.5 1.5 0 0 1 2.699.25l2.84 7.76a1.501 1.501 0 0 1-.045 1.141l-7.58 16.54a1.502 1.502 0 0 1-1.191.865 1.448 1.448 0 0 1-.172.009zM67.782 92.1l6.645 8.556 6.292-13.73-1.606-4.39a31.203 31.203 0 0 1-11.331 9.564z"/><path d="M74.7 105.06a1.501 1.501 0 0 1-1.185-.58l-9.32-12a1.499 1.499 0 0 1 .265-2.104 1.478 1.478 0 0 1 .579-.276 28.304 28.304 0 0 0 13.109-11.622 1.5 1.5 0 0 1 2.701.247l2.84 7.76a1.499 1.499 0 0 1-.045 1.14l-7.58 16.56a1.5 1.5 0 0 1-1.191.866 1.478 1.478 0 0 1-.172.009zm-6.965-12.913l6.63 8.538 6.293-13.748-1.603-4.38a31.193 31.193 0 0 1-11.321 9.591z"/></g><path d="M87.22 114.14a43.401 43.401 0 0 0 8-19.76L90 88.96l2.9-3.04-11.08-3.56c-.18 15.4-2 24.84-6 33.36 4.04-.36 7.86-.92 11.4-1.58z" fill="#3b485b"/><path d="M75.82 117.22a1.501 1.501 0 0 1-1.357-2.138c3.988-8.495 5.686-17.98 5.858-32.74a1.5 1.5 0 0 1 1.959-1.41l11.08 3.56a1.5 1.5 0 0 1 .627 2.463l-1.908 2L96.3 93.34a1.502 1.502 0 0 1 .405 1.245 45.033 45.033 0 0 1-8.277 20.442 1.502 1.502 0 0 1-.935.588c-3.888.725-7.77 1.264-11.54 1.6-.045.004-.1.005-.134.005zm11.4-3.08zm-3.934-29.733c-.28 12.776-1.79 21.667-5.054 29.563a121.14 121.14 0 0 0 8.125-1.195 42.047 42.047 0 0 0 7.272-17.883l-4.7-4.9a1.501 1.501 0 0 1-.005-2.076l1.248-1.31z" fill="#333"/><path d="M39.48 114.14a43.159 43.159 0 0 1-8-19.76l5.22-5.42-2.84-3.02 11.08-3.56c.18 15.4 2 24.84 6 33.36-4.08-.38-7.9-.94-11.46-1.6z" fill="#3b485b"/><g fill="#333"><path d="M50.94 117.24a1.338 1.338 0 0 1-.14-.007 129.55 129.55 0 0 1-11.594-1.618 1.497 1.497 0 0 1-.935-.586 44.8 44.8 0 0 1-8.278-20.446 1.502 1.502 0 0 1 .406-1.243l4.23-4.392-1.862-1.98a1.5 1.5 0 0 1 .634-2.455l11.08-3.56a1.5 1.5 0 0 1 1.959 1.41c.172 14.76 1.87 24.245 5.858 32.74a1.5 1.5 0 0 1-1.357 2.138zm-10.6-4.467a127.99 127.99 0 0 0 8.183 1.208c-3.26-7.893-4.77-16.782-5.05-29.554l-6.895 2.215 1.214 1.29a1.5 1.5 0 0 1-.012 2.068l-4.71 4.89a41.807 41.807 0 0 0 7.272 17.881z"/><path d="M63.813 117.86h-.895a130.239 130.239 0 0 1-53.43-11.391 1.502 1.502 0 0 1-.868-1.617l.7-4.2a14.222 14.222 0 0 1 10.499-11.068l15.265-3.535.59 2.94c-.05.01-5.173 1.045-15.135 3.506a11.197 11.197 0 0 0-8.267 8.692l-.502 3a127.238 127.238 0 0 0 51.157 10.663h.876a127.114 127.114 0 0 0 51.043-10.621l-.414-3.144a11.22 11.22 0 0 0-8.256-8.6L91.114 88.86l.692-2.92 15.1 3.645a14.256 14.256 0 0 1 10.486 11.023l.576 4.356a1.501 1.501 0 0 1-.877 1.565 130.113 130.113 0 0 1-53.277 11.331z"/></g><g fill="#5c8fcc"><circle cx="65.44" cy="113.52" r="1.06"/><circle cx="61.18" cy="111.22" r="1.04"/><circle cx="63.76" cy="106.56" r="1.04"/><circle cx="63.36" cy="96.22" r="1.06"/></g><path d="M84.2 96.34h6.3v4.2h-6.3z" fill="#fff"/><path d="M84.2 96.34h6.3v.84h-6.3zm0 1.68h6.3v.84h-6.3z" fill="#ba362a"/><path d="M84.2 96.34h2.52v2.52H84.2z" fill="#2f62ab"/><path d="M84.2 99.7h6.3v.84h-6.3z" fill="#ba362a"/><path d="M89.44 43.7a5.06 5.06 0 0 0-5.34-.9v-8.18c0-10.92-4.74-20.22-20.74-20.22s-20.64 9.3-20.64 20.12v8.18a5.06 5.06 0 0 0-5.26.9c-2.38 1.9-2 5.44-1.3 9.34.82 4.9 3.82 9.1 8.26 7.02a.1.1 0 0 1 .16 0 32.312 32.312 0 0 0 0 4.82c.4 6 3.62 8 9.16 13.8 2.46 2.68 6 2.86 9.6 2.86s7.22-.18 9.68-2.8c5.54-5.78 8.76-7.82 9.14-13.8a32.327 32.327 0 0 0-.06-4.7.12.12 0 0 1 .12-.12c4.44 2 7.44-2.12 8.26-7.02.82-3.96 1.24-7.5-1.04-9.3z" fill="#ad8165"/><path d="M84.1 42.8v-8.18c0-10.92-4.74-20.22-20.74-20.22a32.598 32.598 0 0 0-6 .54v26a4.3 4.3 0 0 1-4 4 9.16 9.16 0 0 1 5.42 1.86 4 4 0 0 0 2.68 1.12h.64a1.36 1.36 0 0 1 1.36 1.36v4.82a2.9 2.9 0 0 0 1.18 2.34 2 2 0 0 1-1.18 3.62c-1.48 0-2-1-4-1-1.18 0-1 1.54-1.04 1.5a4.361 4.361 0 0 1 2 .52 6.36 6.36 0 0 0 3 .76v9.46a3.7 3.7 0 0 1 4 3.78c0 2.94-9 2.62-9.9 6a13.52 13.52 0 0 0 5.84.58c3.6 0 7.22-.18 9.68-2.8 5.54-5.78 8.76-7.82 9.14-13.8a32.326 32.326 0 0 0-.08-4.92.12.12 0 0 1 .12-.12c4.44 2 7.44-2.12 8.26-7.02.68-4 1.1-7.5-1.18-9.3a5.06 5.06 0 0 0-5.2-.9z" fill="#a0775c"/><path d="M61.543 83.1a12.262 12.262 0 0 1-8.89-3.816l-3.088-3.088c-3.69-3.596-6.126-5.97-6.48-11.307a33.61 33.61 0 0 1-.091-2.932 5.678 5.678 0 0 1-3.488-.604c-2.375-1.246-4.178-4.296-4.824-8.157-.736-4.1-1.204-8.326 1.843-10.76a6.408 6.408 0 0 1 4.696-1.594V34.52c0-14.144 7.656-21.62 22.14-21.62 14.55 0 22.24 7.51 22.24 21.72v6.305a6.577 6.577 0 0 1 4.807 1.627c2.98 2.394 2.398 6.623 1.542 10.753-.637 3.812-2.378 6.763-4.77 8.04a5.797 5.797 0 0 1-3.474.647 33.78 33.78 0 0 1-.049 2.938c-.34 5.336-2.783 7.723-6.483 11.335l-3.07 3.073a13.067 13.067 0 0 1-10.742 3.617 12.393 12.393 0 0 1-1.817.135zM44.497 58.42a1.611 1.611 0 0 1 .967.322l.17.128.485.64-.042.56a30.961 30.961 0 0 0 0 4.595c.28 4.2 2.053 5.93 5.584 9.37l3.164 3.163a9.268 9.268 0 0 0 8.268 2.759l.228-.038.23.032a10.086 10.086 0 0 0 8.432-2.735c1.108-1.158 2.165-2.2 3.098-3.1 3.542-3.458 5.32-5.193 5.585-9.373a30.89 30.89 0 0 0-.058-4.478l-.006-.128a1.622 1.622 0 0 1 1.62-1.62h.322l.294.133a3.164 3.164 0 0 0 2.929.047c1.518-.812 2.757-3.1 3.235-5.946.804-3.887 1.023-6.682-.5-7.877l-.072-.06a3.576 3.576 0 0 0-3.757-.633l-2.08.873V34.62c0-12.597-6.293-18.72-19.24-18.72-12.88 0-19.14 6.09-19.14 18.62v10.407l-2.064-.838a3.54 3.54 0 0 0-3.701.634c-1.652 1.32-1.544 3.9-.818 7.952.488 2.914 1.737 5.212 3.263 6.014a2.958 2.958 0 0 0 2.555.055l.132-.178.685-.13a1.606 1.606 0 0 1 .226-.016z" fill="#343433"/><g fill="#333"><circle cx="53.86" cy="50.86" r="1.5"/><circle cx="72.04" cy="50.86" r="1.5"/><path d="M49.3 46.44a3.819 3.819 0 0 1 2.3-1.4 7.461 7.461 0 0 1 2.66-.12 8.26 8.26 0 0 1 4.62 2.2 19.499 19.499 0 0 1-4.9-.22l-2.26-.32a17.993 17.993 0 0 0-2.42-.14zm28.02 0a17.993 17.993 0 0 0-2.42.14l-2.26.32a19.56 19.56 0 0 1-4.9.22 8.119 8.119 0 0 1 4.62-2.2 7.059 7.059 0 0 1 2.66.12 3.86 3.86 0 0 1 2.3 1.4z"/></g><path d="M53.44 70.62a1 1 0 0 1-1-1v-3.3a4.001 4.001 0 0 1 1.576-3.177l3.74-2.84a1 1 0 0 1 1.21 1.594l-3.74 2.84a1.988 1.988 0 0 0-.785 1.581v3.303a1 1 0 0 1-1 1z" fill="#a0775c"/><path d="M73.28 70.64a1 1 0 0 1-1-1v-3.3a2.036 2.036 0 0 0-.79-1.607L67.827 61.9a1 1 0 1 1 1.226-1.58l3.66 2.84a4.044 4.044 0 0 1 1.567 3.192v3.298a1 1 0 0 1-1 1z" fill="#ad8165"/><path d="M63.4 64.83a.75.75 0 0 1-.75-.75v-1.62a.75.75 0 1 1 1.5 0v1.62a.75.75 0 0 1-.75.75z" fill="#936b55"/><path d="M63.4 62.96a5.905 5.905 0 0 1-2.865-.745 4.539 4.539 0 0 0-2.139-.546.75.75 0 1 1 .005-1.5 6.037 6.037 0 0 1 2.855.73 4.392 4.392 0 0 0 4.279.003 6.043 6.043 0 0 1 2.861-.733h.003a.75.75 0 0 1 .002 1.5 4.546 4.546 0 0 0-2.144.549 5.892 5.892 0 0 1-2.857.743z" fill="#674848"/><g fill="#333"><path d="M63.44 10.14c-21.84 0-26 20.92-22 30.92 2 0 4 1.5 4 7.42v-7.2c0-2-.78-4.48 0-6.3a11.52 11.52 0 0 0 1.34-5c.14-2.1.18-5.16 2.26-6.6 4.12-2.9 6.64-.26 14.4-.26s10.28-2.64 14.4.26c2 1.44 2.1 4.5 2.26 6.6a11.52 11.52 0 0 0 1.34 5c.78 1.82 0 4.3 0 6.3v7.2c0-6 2-7.42 4-7.42 4-10-.16-30.92-22-30.92z"/><path d="M81.44 49.457a.977.977 0 0 1-.977-.978v-7.2a19.097 19.097 0 0 1 .176-2.197 7.884 7.884 0 0 0-.097-3.718 12.43 12.43 0 0 1-1.419-5.351l-.027-.355c-.142-1.96-.32-4.4-1.827-5.485-2.22-1.562-3.82-1.285-6.727-.78a38.77 38.77 0 0 1-7.102.706 38.768 38.768 0 0 1-7.101-.706c-2.907-.505-4.506-.78-6.736.788-1.552 1.074-1.7 3.48-1.818 5.412l-.028.452a12.53 12.53 0 0 1-1.453 5.395 8.053 8.053 0 0 0-.062 3.644 19.097 19.097 0 0 1 .176 2.197v7.2a.978.978 0 1 1-1.955 0c0-2.94-.524-6.442-3.023-6.442a.977.977 0 0 1-.908-.614c-2.295-5.737-2.057-15.33 2.84-22.56 2.996-4.426 8.9-9.7 20.07-9.7s17.073 5.275 20.07 9.7c4.895 7.23 5.133 16.822 2.838 22.56a.978.978 0 0 1-.908.614c-2.005 0-3.022 2.168-3.022 6.442a.977.977 0 0 1-.978.978zM73.78 21.04a7.598 7.598 0 0 1 4.624 1.541c2.258 1.626 2.48 4.695 2.644 6.937l.028.39a10.657 10.657 0 0 0 1.228 4.615 9.151 9.151 0 0 1 .277 4.792 17.42 17.42 0 0 0-.163 1.967v.032a3.943 3.943 0 0 1 2.327-1.182 24.051 24.051 0 0 0-2.855-20.171c-2.73-4.033-8.148-8.842-18.45-8.842S47.72 15.926 45 19.96a24.052 24.052 0 0 0-2.855 20.171 3.943 3.943 0 0 1 2.328 1.182v-.032a17.394 17.394 0 0 0-.162-1.967 9.194 9.194 0 0 1 .241-4.718 10.738 10.738 0 0 0 1.262-4.649l.03-.473c.137-2.23.324-5.286 2.65-6.896 2.884-2.03 5.108-1.645 8.188-1.11a37.062 37.062 0 0 0 6.768.678 37.064 37.064 0 0 0 6.769-.678 21.391 21.391 0 0 1 3.57-.426z"/></g><path d="M63.64,77.65h-.5a.75.75,0,0,1,0-1.5h.5a.75.75,0,1,1,0,1.5Z" fill="#7f5e47"/><path d="M65.86 66.54a1.76 1.76 0 0 0-1.06.14l-.84.38a1.74 1.74 0 0 1-.96 0l-.62-.14a3.2 3.2 0 0 0-2 .2L56.22 69c2.2.36 3.56 2.66 5.66 2.64a30.149 30.149 0 0 0 3.74 0c2.16-.22 3.18-1.78 5.34-4.64a18 18 0 0 1-5.1-.46z" fill="#916953"/><path d="M55.48 70.6a.489.489 0 0 1-.184-.035.499.499 0 0 1-.281-.648l.72-1.82a.5.5 0 1 1 .93.367l-.72 1.82a.5.5 0 0 1-.465.316zm15.8-2.22a.5.5 0 0 1-.458-.297l-.72-1.62a.5.5 0 0 1 .914-.406l.72 1.62a.5.5 0 0 1-.457.703z" fill="#936b55"/><path d="M56.2 68.76l7.58-.38a10 10 0 0 0 3.48-.4c1.1-.38 2.3-1 3.46-1.42a.34.34 0 0 1 .32.6 33.875 33.875 0 0 1-3.32 2 8.28 8.28 0 0 1-4 .74 73.754 73.754 0 0 1-7.58-.44.32.32 0 0 1-.305-.334.324.324 0 0 1 .005-.046.32.32 0 0 1 .36-.32z" fill="#674848"/></svg>