<svg xmlns="http://www.w3.org/2000/svg" xmlns:xlink="http://www.w3.org/1999/xlink" viewBox="0 0 128 128"><use xlink:href="#B" fill="#eed1c9"/><use xlink:href="#B" fill="#e5c2ba"/><path d="M29.98 92.98a3.999 3.999 0 0 0 1.24-.54 55.06 55.06 0 0 1 15.26-7.1 7.22 7.22 0 0 0 5.38-6.94v-.16a51.519 51.519 0 0 0-20.64 8.22 4.577 4.577 0 0 1-1.24.54c-13.16 3.16-14.18 5.12-16.84 16.18l1.44.58c2.04-6.44 4.78-8.22 15.4-10.78z" fill="#eed1c9"/><path d="M67.14 114.64a134.361 134.361 0 0 0 53.62-11.46c-2.6-10.88-3.6-13-16.84-16.2a4.14 4.14 0 0 1-1.28-.58 51.3 51.3 0 0 0-20.6-8.22V67.82H51.88v3.82l11.7 14.18a15.12 15.12 0 0 1 3.38 9.52v19.3a.42.42 0 0 0 .18 0z" fill="#d8b3ad"/><path d="M82.06 78.38a7.22 7.22 0 0 0 5.3 6.94 55.999 55.999 0 0 1 15.22 7.1 4.358 4.358 0 0 0 1.28.58c10.74 2.58 13.5 4.46 15.5 10.82l1.4-.64c-2.6-10.88-3.6-13-16.84-16.2a4.14 4.14 0 0 1-1.28-.58 51.3 51.3 0 0 0-20.6-8.22v.18z" fill="#eed1c9"/><g fill="#333"><path d="M80.56 67.84h3v13.22h-3zm-30.2 0h3v13.22h-3z"/><path d="M66.76 116.14a134.249 134.249 0 0 1-54.228-11.589 1.499 1.499 0 0 1-.851-1.722c2.813-11.692 4.398-14.034 17.97-17.288a3.043 3.043 0 0 0 .794-.352 59.072 59.072 0 0 1 9.305-4.836 47.756 47.756 0 0 1 11.914-3.18l.393 2.975a44.751 44.751 0 0 0-11.165 2.98 56.193 56.193 0 0 0-8.843 4.597 6.092 6.092 0 0 1-1.659.726C18.005 91.42 17.15 93 14.893 102.3a131.239 131.239 0 0 0 51.873 10.83h.374a131.659 131.659 0 0 0 51.886-10.83c-2.34-9.558-3.55-11.034-15.44-13.91a5.664 5.664 0 0 1-1.769-.796 56.083 56.083 0 0 0-8.809-4.576 44.657 44.657 0 0 0-11.124-2.959l.39-2.975a47.655 47.655 0 0 1 11.874 3.159 59.125 59.125 0 0 1 9.318 4.845 2.727 2.727 0 0 0 .852.392c13.528 3.273 15.112 5.62 17.92 17.34a1.5 1.5 0 0 1-.852 1.722 134.675 134.675 0 0 1-54.241 11.588z"/></g><path d="M86.8 42.86v-4c0-10.84-3.8-22-20-22s-20 11.16-20 22v4c-.16 0-4 0-2 10 .62 3 .98 5.36 4 6 0 7.1 2 8 8.76 14.96 2.6 3.36 5.8 3.04 9.24 3.04s6.56.32 9.24-3.04c6.76-6.96 8.76-7.86 8.76-14.96 3-.64 3.36-3 4-6 2-10-1.84-10.06-2-10z" fill="#eed1c9"/><g fill="#e5c2ba"><path d="M67.12 60.48a3.3 3.3 0 0 1-2-.68l-4.16-3.04H48.8a1.5 1.5 0 0 1 0-3h13.12l5.02 3.64a.24.24 0 0 0 .3 0l5.06-3.66h12.5a1.5 1.5 0 0 1 0 3H73.36l-4.22 3.06a3.1 3.1 0 0 1-2.02.68z"/><path d="M56.23 61.2a3.745 3.745 0 0 1 1.477-3.028l3.74-2.84.907 1.195-3.74 2.84a2.238 2.238 0 0 0-.883 1.811zM44.8 52.86c.62 3 .98 5.36 4 6 0 6 1.44 7.58 6 12.16v-6.16a9.62 9.62 0 0 0-3.24-8 6.64 6.64 0 0 1-2.76-6v-6a6.78 6.78 0 0 0-2-4v2c-.16 0-4 0-2 10z"/><path d="M86.8 42.86v-4c0-10.84-3.8-22-20-22a31.719 31.719 0 0 0-6 .52v19.48a4.34 4.34 0 0 1-4 4s6 0 8 4h2v6a2.82 2.82 0 0 0 1.18 2.32 2.003 2.003 0 0 1-1.18 3.62c-1.48 0-2-1-4-1-1.18 0-1 1.54-1.04 1.5a4.2 4.2 0 0 1 2 .52 6.2 6.2 0 0 0 3 .78v9.06s4-.84 4 3.14c0 5.5-10-.54-10 5.44a17.739 17.739 0 0 0 5.9.56c3.46 0 6.64.28 9.24-3.04 6.8-6.92 8.8-7.82 8.8-14.92 3-.64 3.36-3 4-6 2.1-9.98-1.74-10.04-1.9-9.98z"/></g><path d="M77.65 61.16h-1.5a2.285 2.285 0 0 0-.887-1.805l-3.736-2.837.907-1.195 3.74 2.84a3.798 3.798 0 0 1 1.476 2.999z" fill="#eed1c9"/><g fill="#d8b3ad"><path d="M84.8,53.76H72.3l-5.06,3.66a.24.24,0,0,1-.3,0l-.18-.24v3.16h.36a3.1,3.1,0,0,0,2-.66l4.24-2.92H84.9a1.5,1.5,0,0,0,0-3Z"/><path d="M84.8 58.86c3-.64 3.36-3 4-6 2-10-1.84-10-2-10v-2a6.68 6.68 0 0 0-2 4v6a6.72 6.72 0 0 1-2.76 6 9.5 9.5 0 0 0-3.24 8v6.16c4.56-4.58 6-6.16 6-12.16z"/></g><path d="M66.94 61.85a.75.75 0 0 1-.75-.75v-2a.75.75 0 0 1 1.5 0v2a.75.75 0 0 1-.75.75z" fill="#ddb7b1"/><path d="M67 73.4h-.5a.75.75 0 0 1 0-1.5h.5a.75.75 0 0 1 0 1.5z" fill="#ba8d86"/><path d="M69.66 62.8a5.779 5.779 0 0 0-2.3.38 1.5 1.5 0 0 1-.84 0 5.62 5.62 0 0 0-2.36-.28c-1.34.2-1.48 1.06-4.18 2.52l2.38 1.46a4.421 4.421 0 0 0 2.54.82h4.06a4.421 4.421 0 0 0 2.54-.82l2.46-1.4c-2.6-1.58-2.98-2.48-4.3-2.68z" fill="#d6b3b0"/><path d="M73.96 65.98a7.33 7.33 0 0 1-2.443-.42 6.1 6.1 0 0 0-2.037-.36 15.526 15.526 0 0 0-2.459.309l-.123.025-.123-.026a14.861 14.861 0 0 0-2.48-.308 5.724 5.724 0 0 0-1.858.318 7.894 7.894 0 0 1-2.538.402.6.6 0 1 1 0-1.199 6.693 6.693 0 0 0 2.194-.353A6.92 6.92 0 0 1 64.32 64a16.124 16.124 0 0 1 2.581.308A16.814 16.814 0 0 1 69.454 64h.004a7.248 7.248 0 0 1 2.416.414 6.233 6.233 0 0 0 2.086.366.6.6 0 1 1 0 1.199z" fill="#af8582"/><g fill="#333"><path d="M52.06 42.28a12 12 0 0 1 2.9-1.1 11.162 11.162 0 0 1 3.16-.18 19.439 19.439 0 0 1 5.64 2 .46.46 0 0 1 .24.6.48.48 0 0 1-.46.28 24.547 24.547 0 0 1-2.96-.52l-2.74-.42a14.599 14.599 0 0 0-5.5.12.48.48 0 0 1-.54-.36.5.5 0 0 1 .26-.42zm29.88.9a14.58 14.58 0 0 0-5.5-.12l-2.74.42a24.547 24.547 0 0 1-2.96.52.44.44 0 0 1-.478-.398l-.002-.042a.46.46 0 0 1 .28-.46 19.439 19.439 0 0 1 5.64-2 12.86 12.86 0 0 1 3.18.08 10.361 10.361 0 0 1 2.9 1.1.462.462 0 0 1-.34.86z"/><circle cx="57.98" cy="47.38" r="1.3"/><circle cx="75.9" cy="47.38" r="1.3"/></g><path d="M126.4 98.14a15.28 15.28 0 0 0-10.6-12l-31.24-6.96H49.82l-31.24 6.98a15.28 15.28 0 0 0-10.6 12l-.62 3.76a148.279 148.279 0 0 0 59.78 12.72h.1a148.279 148.279 0 0 0 59.78-12.72z" fill="#656e70"/><path d="M126.4,98.14a15.32,15.32,0,0,0-10.6-12L84.56,79.18H63.18L96.4,111.7a150.857,150.857,0,0,0,30.62-9.78Z" fill="#5e6668"/><path d="M18.58,86.16a15.26,15.26,0,0,0-10,9.6,6,6,0,0,0,6.62-1.74,7.08,7.08,0,0,1,3.34-2l27.12-7.34a5.56,5.56,0,0,0,4.12-5.38Z" fill="#787f80"/><g fill="#333"><path d="M67.243 116.08h-.103a148.85 148.85 0 0 1-60.386-12.788 1.5 1.5 0 0 1-.874-1.612l.62-3.82a16.705 16.705 0 0 1 11.643-13.195l33.297-10.22.88 2.867-33.3 10.22a13.716 13.716 0 0 0-9.562 10.823l-.43 2.655a145.822 145.822 0 0 0 58.115 12.068h.098a145.878 145.878 0 0 0 58.111-12.125l-.43-2.61a13.71 13.71 0 0 0-9.558-10.809L81.598 76.606l.924-2.853 33.74 10.92a16.689 16.689 0 0 1 11.616 13.17l.622 3.773a1.499 1.499 0 0 1-.872 1.615 148.882 148.882 0 0 1-60.385 12.849z"/><path d="M95.36,73.72a6.34,6.34,0,0,1-3.02-5.4V36.78c0-10.84-.86-15.4-3.28-36.34a1.38,1.38,0,0,0-2.62-.46L82.62,8.9A30,30,0,0,0,67.1,5.02,29.84,29.84,0,0,0,51.6,8.9L47.8-.02A1.4,1.4,0,0,0,45.96-.7,1.38,1.38,0,0,0,45.18.36C42.76,21.42,41.9,25.98,41.9,36.78V68.32a6.34,6.34,0,0,1-3.02,5.4L18.54,86.22l5.78-.6A31.76,31.76,0,0,1,42.86,89.3c22.82,12.36,25.66,12.34,48.66,0a31.88,31.88,0,0,1,18.42-3.64l5.82.6ZM84.84,58.86c0,7.1-2,8-8.76,14.96-2.72,3.36-5.82,3.04-9.28,3.04s-6.64.32-9.24-3.04c-6.76-6.96-8.76-7.86-8.76-14.96V55.98H61.36l4.62,3.36a1.72,1.72,0,0,0,2,0l4.62-3.36h12Z"/></g><path d="M92.3 71.86V36.78c0-10.92-.92-15.86-3.28-36.34a1.36 1.36 0 0 0-.8-1.1 1.34 1.34 0 0 0-1.799.596l-.02.044-3.78 8.92a30.001 30.001 0 0 0-14.84-3.88 171.5 171.5 0 0 0-6.9 29.78c-.26 1.7-.84 4.3-3.24 5.04a.36.36 0 0 0-.23.454l.01.026 4.22 1.7a2.42 2.42 0 0 1 1.72 2.38c0 1.78-2.22 1.66-2.48 1.66h-2.46a30.241 30.241 0 0 0-2.32 10h5.26l4.92-12.42a1.42 1.42 0 0 1 .58 1.12v15h.16c1.1 0 2-1.22 5.68-3.72h12c-.54 3.6 1.88 7-4.9 14-6.4 6.52-6 6.98-12.8 6.96-6.26-.14-2.6 0-6.16-.22l7 6.98a15.38 15.38 0 0 0 19.28 2l13.18-8.88zm-6.94-31.14l-2 4.22a2 2 0 0 1-1.88 1.18h-8.4c-.26 0-2.46.12-2.46-1.66a2.4 2.4 0 0 1 1.6-2.38c1.14-.44 10.46-4.24 10.46-4.24a2.046 2.046 0 0 1 2.68 2.88z" fill="#222"/><path d="M49.36 40.42a2.2 2.2 0 0 1 1.74 0l10.46 4.24a2.42 2.42 0 0 1 1.62 2.4c0 1.78-2.22 1.64-2.48 1.64h-8.4a2 2 0 0 1-1.88-1.18l-2-4.22a2 2 0 0 1 .94-2.88zm36 2.76l-2 4.22a2 2 0 0 1-1.88 1.18h-8.4c-.26 0-2.46.14-2.46-1.64a2.42 2.42 0 0 1 1.6-2.4c1.14-.44 10.46-4.24 10.46-4.24a2.2 2.2 0 0 1 1.74 0 2 2 0 0 1 .94 2.88z" fill="#777"/><defs ><path id="B" d="M103.92 87.02a4.14 4.14 0 0 1-1.28-.58 51.3 51.3 0 0 0-20.6-8.22V67.84H51.86v10.38a51.52 51.52 0 0 0-20.64 8.22 4.577 4.577 0 0 1-1.24.54c-13.16 3.18-14.18 5.14-16.84 16.2 15.32 6.34 31.7 11.66 54 11.42a134.359 134.359 0 0 0 53.62-11.42c-2.6-10.84-3.6-12.96-16.84-16.16z"/></defs></svg>