<svg xmlns="http://www.w3.org/2000/svg" xmlns:xlink="http://www.w3.org/1999/xlink" viewBox="0 0 128 128"><style><![CDATA[.B{stroke-miterlimit:10}.C{stroke-width:3}.D{fill:none}.E{stroke:#333}.F{stroke-linejoin:round}.G{stroke-linecap:round}.H{stroke-width:1.5}]]></style><path d="M112.16 105.22c-2.12-4.8-3.46-5.02-8.4-6.3a149.46 149.46 0 0 0-44-6.4 151.839 151.839 0 0 0-44 6.3c-4.94 1.28-6.28 1.5-8.4 6.3-3.04 6.82-4.2 10.44-4.2 10.44a159.64 159.64 0 0 0 56.6 10.46 159.66 159.66 0 0 0 56.6-10.46 109.04 109.04 0 0 0-4.2-10.34z" fill="#827a6a"/><path d="M104.2 107.22a157.5 157.5 0 0 0-44.54-6.3 160.661 160.661 0 0 0-44.56 6.3 14.86 14.86 0 0 0-9.68 9.36 164.341 164.341 0 0 0 54.24 9.44 168.638 168.638 0 0 0 54.22-9.52 14.84 14.84 0 0 0-9.68-9.28z" fill="#726854"/><path d="M44.96 79.92h29.4v18.9h-29.4z" fill="#edccc3" class="B C E"/><use xlink:href="#B" fill="#dddbdb"/><path d="M82.76 50.52v-6.2c0-12.46-8-18.94-23.1-18.94a41.862 41.862 0 0 0-6.36.46v21.58a4.58 4.58 0 0 1-1.78 3.3.7.7 0 0 0 .32 1.24 8 8 0 0 1 5.64 3.82 2 2 0 0 1 2 2v4.32a2.98 2.98 0 0 0 1.24 2.44 2 2 0 0 1 1.008 2.643l-.008.017a2 2 0 0 1-2.24 1.12c-1.54 0-2-1.06-4.18-1.06-1.24 0-1.06 1.6-1.08 1.58a4.58 4.58 0 0 1 2.12.54 6.18 6.18 0 0 0 3.14.8v7.32a2.18 2.18 0 0 0 1.74 2.16 2.92 2.92 0 0 1 2.5 3.28c0 5.74-10.36-.56-10.36 5.68a5.314 5.314 0 0 0 0 .6l.46.28a12 12 0 0 0 5.8.92 12 12 0 0 0 5.8-.92c4.86-2.56 15.2-12.14 15.2-22.22 2 0 4.52-4.62 5.28-8.22 1.06-4.4.9-8.54-3.14-8.54z" fill="#ccc"/><path d="M62.06 74.32a3.561 3.561 0 0 0-2 .3.86.86 0 0 1-.7 0 3.52 3.52 0 0 0-2-.3c-1.14.2-1.26 1.22-3.56 2.94l2 1.72a3.18 3.18 0 0 0 2.16.96h3.44a3.18 3.18 0 0 0 2.16-.96l2-1.66c-2.14-1.72-2.38-2.8-3.5-3z" fill="#aaa9a9"/><g class="B D G"><path d="M65.7 77.32c-1.68 0-2.12-.92-3.8-.92a9.285 9.285 0 0 0-2.18.4 9.098 9.098 0 0 0-2.18-.4c-1.6 0-2 .86-3.76.86" stroke="#666" class="H"/><path d="M59.66 73.1v.06" stroke="#ae887b" stroke-width="1.05" opacity=".12"/></g><g fill="#333"><circle cx="49.58" cy="59.18" r="1.58"/><circle cx="69.74" cy="59.18" r="1.58"/><path d="M60.38 70.96h-1.42c-2.4 0-4.34 1.08-4.34 3.04v.32a.4.4 0 0 0 .436.36H64.3a.4.4 0 0 0 .44-.356v-.344c-.02-1.94-1.96-3.02-4.36-3.02z" stroke-width="2.1" class="B E"/></g><path d="M58.6 82.04h2.1" stroke="#666" class="B D G H"/><g class="C E F"><path d="M80.66 44.58v12.28c0-1.68 0-5.64 3.2-5.64 0-4.4 2.56-2.24 2.56-6.34 0-3.04-1.84-9.06-8-9.06a18.88 18.88 0 0 1 2.24 8.76zm-42 0v12.28c0-1.68 0-5.64-3.2-5.64 0-4.4-2.56-2.24-2.56-6.34 0-3.04 1.84-9.06 8-9.06a18.88 18.88 0 0 0-2.24 8.76z" fill="#333"/><use xlink:href="#B" class="D"/></g><use xlink:href="#C" fill="#444"/><path d="M82.76 22.8c0-9-6-14.92-14.28-17.3h-2.3c-12.52 0-23.12 6.7-23.12 18.92v14.62a24.678 24.678 0 0 0 7.18 2.58 87.158 87.158 0 0 0 9.42.5c16.78 0 23.1-4.2 23.1-4.2z" fill="#333"/><g class="C E"><g class="F"><use xlink:href="#C" class="D"/><path d="M59.66,48.42c-21,0-35.7-6.3-35.7-12.6l12.6,2.1h46.2l12.6-2.1c0,6.3-12.6,12.6-35.7,12.6" fill="#333"/><path d="M59.66 33.7c-16.78 0-23.1-4.2-23.1-4.2v8.42s6.4 4.2 23.1 4.2 23.1-4.2 23.1-4.2V29.5s-6.32 4.2-23.1 4.2z" fill="#444"/><path d="M44.28 98.8c2.62 8.42 8.1 14.88 15.38 25.66 5.54-9.88 12-16 15.18-25.68z" fill="#d1d8db"/></g><path d="M59.66 126.1l8.22-.22-7.08-21.28h-2.46l-7.08 21.26q4.12.24 8.4.24z" fill="#383a39" class="B"/><g fill="#d1d8db" class="F"><path d="M43.92 85.22v9.34s5.74 9.54 15.74 9.54v-4a7.18 7.18 0 0 0-4.3-6c-10.4-5.78-11.44-8.88-11.44-8.88z"/><path d="M75.42 85.22v9.34s-5.76 9.54-15.76 9.54v-4a7.18 7.18 0 0 1 4.3-6c10.4-5.78 11.46-8.88 11.46-8.88z"/></g><g fill="#383a39" class="B"><path d="M45.1 100.32a26.36 26.36 0 0 0 14.56 4v-3.38c-5.78-2.3-11.64-4-16.58-8.62a36 36 0 0 0 2.02 8z"/><path d="M76.28 92.32c-4.94 4.58-10.82 6.36-16.62 8.66v3.48a26.28 26.28 0 0 0 14.68-4.14 35.56 35.56 0 0 0 1.94-8z"/><path d="M54.62 100.72l3.04 4.5h4.2l2.94-4.4a1.22 1.22 0 0 0-1.02-2h-8.12a1.2 1.2 0 0 0-1.239 1.159l-.001.04a1.1 1.1 0 0 0 .2.7z"/></g></g><g class="D B C"><path d="M14.96 98.8a69.698 69.698 0 0 1 4.2 23.12" stroke="#827a6a"/><path d="M13.46 98.8a69.698 69.698 0 0 1 4.2 23.12" stroke="#726854"/><path d="M105.86,98.8a69.7,69.7,0,0,0-4.2,23.12" stroke="#827a6a"/><path d="M104.28,98.8a69.7,69.7,0,0,0-4.2,23.12" stroke="#726854"/></g><g fill="#726854" class="E F C"><path d="M59.66,126.1h4.3l24.36-22-5.24-5.78,8-3.8L76.46,81.78c0,19.06-6,23.76-18.84,44.2Z"/><path d="M30.96 104.2l26.54 21.88h4.4c-17.66-22.66-18.94-31.36-18.94-44.2L28.24 94.62l8 3.8z"/></g><path d="M29.94,95.48c-4.84.98-9.5,2.16-14.38,3.42s-6.28,1.52-8.4,6.32c-3.04,6.84-4.2,10.46-4.2,10.46a160.14,160.14,0,0,0,56.7,10.42,160.16,160.16,0,0,0,56.7-10.44s-1.16-3.62-4.2-10.46c-2.12-4.78-3.46-5.02-8.4-6.3s-9.5-2.42-14.32-3.4" class="C D E F"/><path d="M42.84 57.22a9.202 9.202 0 0 1 1.5-3.08 8.779 8.779 0 0 1 2.62-2.4 6.3 6.3 0 0 1 3.56-.72 8.24 8.24 0 0 1 3.34.92.56.56 0 0 1 .267.746l-.007.014a.54.54 0 0 1-.54.32 11.582 11.582 0 0 0-2.9 0 8 8 0 0 0-2.5.88 11.421 11.421 0 0 0-4.26 3.68.6.6 0 0 1-.82.1.58.58 0 0 1-.26-.46zm22.68-4.62a8.82 8.82 0 0 1 3.16-.84 8.939 8.939 0 0 1 3.32.36 7.099 7.099 0 0 1 2.82 1.8 8.94 8.94 0 0 1 2 2.6.58.58 0 0 1-.24.78.62.62 0 0 1-.64 0 18.423 18.423 0 0 0-2.26-1.64 15.998 15.998 0 0 0-2.4-1.06 8.882 8.882 0 0 0-2.52-.7 12.581 12.581 0 0 0-2.74-.12.54.54 0 0 1-.578-.498l-.002-.04a.54.54 0 0 1 .08-.64z" fill="#333"/><path d="M46.1 58.88A5.76 5.76 0 0 1 52 58m20.96.88a5.76 5.76 0 0 0-6-.88" class="B D E G"/><path d="M54.96 68.84a4.78 4.78 0 0 1 2.44.74 4.46 4.46 0 0 0 4.9 0 4.861 4.861 0 0 1 2.46-.74" stroke="#666" class="B D G H"/><defs ><path id="B" d="M82.76 50.52v-6.2c0-12.46-8-18.94-23.1-18.94s-23.1 6.42-23.1 18.94v6.2c-4 0-4.12 4.14-3.18 8.54.76 3.6 3.26 8.26 5.28 8.26 0 10 10.36 19.64 15.2 22.18a12 12 0 0 0 5.8.92 12 12 0 0 0 5.8-.92c4.86-2.56 15.2-12.14 15.2-22.22 2 0 4.52-4.62 5.28-8.22 1.02-4.4.86-8.54-3.18-8.54z"/><path id="C" d="M82.76 37.92V22.8c0-12-10.5-18.5-23.1-18.48s-23.1 6.78-23.1 19v14.6s6.4 4.2 23.1 4.2 23.1-4.2 23.1-4.2z"/></defs></svg>