<svg id="Layer_1" data-name="Layer 1" xmlns="http://www.w3.org/2000/svg" viewBox="0 0 128 128"><defs><style>.cls-1,.cls-16{fill:#af844b;}.cls-1,.cls-11,.cls-18,.cls-19,.cls-20,.cls-21,.cls-6,.cls-7{stroke:#333;}.cls-1,.cls-20{stroke-miterlimit:10;}.cls-1,.cls-18,.cls-19,.cls-21,.cls-6,.cls-7{stroke-width:4px;}.cls-2{fill:#44566b;}.cls-21,.cls-3{fill:#3b485b;}.cls-4{fill:#d1d8db;}.cls-5{fill:#ddb8af;}.cls-23,.cls-6{fill:#ba362a;}.cls-11,.cls-18,.cls-19,.cls-21,.cls-6,.cls-7{stroke-linejoin:round;}.cls-7{fill:#ebf0f2;}.cls-8{fill:#edccc3;}.cls-9{fill:#e5c2ba;}.cls-10{fill:#dbb8b2;}.cls-11,.cls-18,.cls-19,.cls-20{fill:none;}.cls-11,.cls-18,.cls-20{stroke-linecap:round;}.cls-11{stroke-width:3px;}.cls-12{fill:#e2b886;}.cls-13{fill:#d8a766;}.cls-14{fill:#d3a879;}.cls-15{fill:#c9985d;}.cls-17{fill:#333;}.cls-20{stroke-width:2px;}.cls-22{fill:#fff;}.cls-24{fill:#2f62ab;}</style></defs><title>donald-trump</title><path class="cls-1" d="M38,59V69q0,6,6,6H84q6,0,6-6V59Z"/><path class="cls-2" d="M120,103c-.63-3.74-3-14.22-12-18C93,78.63,83.77,75,64,75S35,78.63,20,85C11,88.8,8.63,99.28,8,103c1.68,1,25.69,12,56,12C90.71,115,115.47,105.79,120,103Z"/><path class="cls-3" d="M108.85,93.7c-15-6.38-25.08-10-44.85-10s-29.83,3.64-44.85,10C14,95.9,11.49,100.12,10.2,104c5.85,2.68,27.11,11,53.8,11,24.54,0,46.83-7.55,53.81-10.92C116.53,100.15,114.06,95.91,108.85,93.7Z"/><path class="cls-4" d="M37.17,78.46a266.27,266.27,0,0,0,9.91,35.41A133.62,133.62,0,0,0,64,115a134.92,134.92,0,0,0,19.19-1.45,358.69,358.69,0,0,0,7.17-35.2C83,76.16,75.18,75,64,75,52.58,75,44.69,76.21,37.17,78.46Z"/><path id="_Path_" data-name="&lt;Path&gt;" class="cls-5" d="M84,73c-3.24,5.35-11.61,17-18,20H62c-6.39-3-14.76-14.65-18-20V69H84Z"/><path class="cls-6" d="M56.76,114.75c2.37.14,4.78.22,7.24.22s4.85-.08,7.24-.22L66,101H62Z"/><polygon class="cls-6" points="65.99 101.02 70 93.03 58 93.03 62.01 101.02 65.99 101.02"/><path id="_Path_2" data-name="&lt;Path&gt;" class="cls-7" d="M44,73l-4,8,14,24,8-12C55.61,90,47.24,78.37,44,73Z"/><path id="_Path_3" data-name="&lt;Path&gt;" class="cls-7" d="M84,73l4,8L74,105,66,93C72.39,90,80.76,78.37,84,73Z"/><path class="cls-8" d="M64,83c2.87,0,10,0,14-4s8-12,8-18c4.09-.2,6-4.06,6.53-7.83C94.17,42.07,89.27,42.48,88,43c0,0,0-5,0-8,.09-9.43-5.45-19.81-24-19.81S39.91,25.59,40,35c0,3,0,8,0,8-1.29-.53-6.16-1.14-4.47,10.33.56,3.77,2.41,7.47,6.5,7.67,0,6,4,14,8,18S61.13,83.05,64,83Z"/><path class="cls-9" d="M86,61c4.09-.2,6-4.06,6.53-7.83C94.17,42.07,89.27,42.48,88,43c0,0,0-5,0-8,.09-9.43-5.45-19.81-24-19.81-.66,0-1.27,0-1.91.07C57.69,31.43,54.69,49,54.92,62.64c0,4.74.52,12.17,1.23,19.59A31.26,31.26,0,0,0,64,83c2.87,0,10,0,14-4S86,67,86,61Z"/><path class="cls-9" d="M88.43,42s.24-4.35.24-7.3c.09-9.44-6.12-19.45-24.71-19.45s-24.8,10-24.71,19.45c0,3,.24,7.3.24,7.3-1.42-.59-1.72-.59-3.49,1.06,4.56,3.45,6,6.87,6,10a2.65,2.65,0,0,0,2.88-2.34l.91-6.33,2.15-2.29v-1.7a25,25,0,0,0,2.77.84C61.27,43.64,75.68,39.44,82,37v4l2,2V53h2.33A1.81,1.81,0,0,0,88,51.82c.81-2.21,2.41-4.73,4.83-5.73a5,5,0,0,0-1.52-3C89.57,41.49,89.85,41.37,88.43,42Z"/><path class="cls-10" d="M56.48,41.9C66,42.23,76.78,39,82,37v4l2,2V53h2.33A1.81,1.81,0,0,0,88,51.82a9.91,9.91,0,0,1,4.52-5.57C91.66,42.34,88.9,42.64,88,43c0,0,0-5,0-8,.09-9.43-5.45-19.81-24-19.81-.66,0-1.27,0-1.91.07A232.17,232.17,0,0,0,56.48,41.9Z"/><path class="cls-11" d="M39.49,40.25l-.06.06c0,.92.06,1.54.06,1.62"/><path class="cls-11" d="M88.52,41.93l-.09,0s0-.66.06-1.65l-.06-.06"/><path class="cls-12" d="M92,29c-1.76-5.65-13.46-16-28-16C42.76,13,36.42,29.92,36,31l2,2c-1.4,6.43-2,10-2,10,3.81,3.82,6,5.09,6,10h2V43l2-2V37c4.72,1.1,16.13,5.45,36-4v8l2,2V53h2c0-4.93,5.8-10.16,6-10a16.7,16.7,0,0,0-2.07-11.93A3.88,3.88,0,0,0,92,29Z"/><path class="cls-13" d="M42,53h2V43l2-2V37c4.72,1.1,16.13,5.45,36-4v8l2,2V53h2c0-1,.41-4.45,4-8.07C89.81,44.24,90,37,86,31l6-2h0c-2-6.36-17.69-16.8-32.76-12.75C52.92,18,42.94,22.88,40,31l2,2.33A75.71,75.71,0,0,0,38,45C39.66,46.68,42,48.27,42,53Z"/><polygon class="cls-14" points="81.54 33.44 89.77 30.99 90.77 34.64 81.59 37.45 81.54 33.44"/><path class="cls-15" d="M88.19,35.39a20.84,20.84,0,0,0-1.85-3.81L82,33v4.32Z"/><path class="cls-16" d="M83.43,33l-.53,8-.26-.63,1.85,2.15.06.08a.56.56,0,0,1,.14.41L84,53l-.69-10,.2.48-2.15-1.85a.75.75,0,0,1-.26-.51V41l-.53-8a1.43,1.43,0,0,1,2.86-.18Z"/><path class="cls-16" d="M47.43,35,47,41v.17a.78.78,0,0,1-.29.57l-2.19,1.8.22-.53L44,53l-.76-10a.61.61,0,0,1,.13-.44l.09-.1,1.81-2.2L45,41l-.4-6a1.43,1.43,0,1,1,2.86-.18Z"/><path class="cls-13" d="M40,31c6,6,14,14,44,0C84,31,54,17,40,31Z"/><path class="cls-16" d="M84.78,32.48a84.46,84.46,0,0,1-10.7,4.11A66,66,0,0,1,63,39.05a33.72,33.72,0,0,1-11.38-.32A16.78,16.78,0,0,1,42,33a16.35,16.35,0,0,0,9.73,4.9,32.58,32.58,0,0,0,11-.5,64.05,64.05,0,0,0,10.58-3.17,81.6,81.6,0,0,0,10-4.68Z"/><path class="cls-12" d="M76,31c-1.32.65-2.68,1.19-4,1.71s-2.79.9-4.22,1.21a39.7,39.7,0,0,1-4.33.79c-.73.09-1.46.19-2.2.24L59,35.09a38.37,38.37,0,0,1-8.81-.77A22.49,22.49,0,0,1,42,31a59.76,59.76,0,0,0,8.49,1.08c2.81.18,5.62.19,8.43.13s5.62-.28,8.46-.48c1.42-.11,2.84-.28,4.27-.38S74.52,31.06,76,31Z"/><path class="cls-12" d="M74,31a36.39,36.39,0,0,1-3.54,1c-1.2.21-2.41.42-3.62.54a36.75,36.75,0,0,1-7.34,0,29.35,29.35,0,0,1-7.2-1.63c-.58-.22-1.15-.46-1.72-.71s-1.12-.54-1.65-.86A11.83,11.83,0,0,1,46,27a30,30,0,0,0,3.46,1c1.13.29,2.29.49,3.43.71,2.29.42,4.6.69,6.92,1s4.65.41,7,.65c1.18.07,2.36.17,3.56.29S72.78,30.81,74,31Z"/><path class="cls-12" d="M87,27.85c-1.46.26-3,.43-4.43.55a44.43,44.43,0,0,1-4.47,0A41.77,41.77,0,0,1,69.24,27a37.51,37.51,0,0,1-8.32-3.43A23.17,23.17,0,0,1,54,17.85a64.42,64.42,0,0,0,7.89,3.67c2.66,1.05,5.38,1.9,8.12,2.69,1.38.36,2.75.76,4.16,1.06.69.16,1.38.36,2.09.48s1.41.28,2.12.44,1.41.27,2.13.41l2.14.41C84.09,27.28,85.54,27.48,87,27.85Z"/><path class="cls-17" d="M42,53a9.89,9.89,0,0,0-2.45-5.25,15.57,15.57,0,0,0-2.07-2c-.38-.29-.76-.58-1.16-.84l-.6-.4-.31-.19-.17-.11-.11-.08s0,0-.11-.09L34.91,44l0-.06a1.29,1.29,0,0,1-.2-.39,1.39,1.39,0,0,1,.05-1.09,1.42,1.42,0,0,1,.83-.74A1.23,1.23,0,0,1,36,41.6a1.43,1.43,0,1,1,0,2.85,1.39,1.39,0,0,0,.46-.07,1.42,1.42,0,0,0,.83-.74,1.39,1.39,0,0,0,.05-1.09,1.11,1.11,0,0,0-.2-.37l0,0L37,42.05c-.08-.07,0,0,0,0l0,0,.13.12.27.29.55.58c.36.4.71.81,1,1.23A16.21,16.21,0,0,1,40.74,47,10.52,10.52,0,0,1,42,53Z"/><path class="cls-17" d="M86,53a10.52,10.52,0,0,1,1.26-6A16.21,16.21,0,0,1,89,44.29c.33-.42.68-.83,1-1.23l.55-.58.27-.29.13-.12,0,0s0,0,0,0l-.07.08,0,0a1.11,1.11,0,0,0-.2.37,1.39,1.39,0,0,0,0,1.09,1.42,1.42,0,0,0,.83.74,1.39,1.39,0,0,0,.46.07,1.43,1.43,0,1,1,0-2.85,1.23,1.23,0,0,1,.46.08,1.42,1.42,0,0,1,.83.74,1.39,1.39,0,0,1,0,1.09,1.29,1.29,0,0,1-.2.39l0,.06-.11.11c-.1.1-.08.07-.11.09l-.11.08-.17.11-.31.19-.6.4c-.4.26-.78.55-1.16.84a15.57,15.57,0,0,0-2.07,2A9.89,9.89,0,0,0,86,53Z"/><path class="cls-16" d="M92,30.66c-1,.39-1.79.66-2.68.93s-1.76.48-2.65.68-1.78.34-2.67.52-1.79.23-2.68.34a38.68,38.68,0,0,1-10.75-.45,39.88,39.88,0,0,1-5.19-1.33,34.53,34.53,0,0,1-4.85-2.15l-1.17-.63a7.21,7.21,0,0,1-1.13-.68L56,26.4a18.15,18.15,0,0,1-2-1.65L52,23l2.12,1.53A17.18,17.18,0,0,0,56.28,26l2.27,1.26a6.89,6.89,0,0,0,1.16.56l1.19.49a33.38,33.38,0,0,0,4.86,1.62,35.77,35.77,0,0,0,5,.78,36,36,0,0,0,10-.53l2.46-.55c.8-.25,1.61-.44,2.4-.71s1.58-.54,2.34-.85a23.33,23.33,0,0,0,2.17-1Z"/><path class="cls-18" d="M92,43a14.41,14.41,0,0,0-2.07-11.93L92,29c-1.77-5.67-13.35-16-28-16C41.13,13,36.2,30.5,36,31l1.19,1.19C35.69,40.39,36,43,36,43"/><path class="cls-19" d="M36,79a142.68,142.68,0,0,0-16,6C11,88.8,8.63,99.28,8,103c1.68,1,25.69,12,56,12,26.71,0,51.47-9.18,56-12-.63-3.74-3-14.22-12-18a151.55,151.55,0,0,0-16-6"/><ellipse class="cls-17" cx="55.02" cy="51.59" rx="1.75" ry="1.25"/><ellipse class="cls-17" cx="73.05" cy="51.59" rx="1.75" ry="1.25"/><line class="cls-20" x1="60.04" y1="68.58" x2="68.04" y2="68.58"/><path class="cls-20" d="M60,60.58l2.2.6a5.55,5.55,0,0,0,3.6,0l2.2-.6"/><line class="cls-20" x1="63.04" y1="72.58" x2="65.04" y2="72.56"/><path class="cls-21" d="M38.57,112.52c3.88.73,8,1.35,12.37,1.79C47.39,104.17,44.25,84.31,44,75L34,79,32,89l6,6-6,6Z"/><path class="cls-21" d="M89.46,112.47,96,101l-6-6,6-6L94,79,84,75c-.25,9.28-3.38,29.11-6.93,39.25C81.37,113.83,85.53,113.21,89.46,112.47Z"/><rect class="cls-22" x="84" y="99.02" width="6" height="4"/><rect class="cls-23" x="84" y="99.02" width="6" height="0.8"/><rect class="cls-23" x="84" y="100.62" width="6" height="0.8"/><rect class="cls-23" x="84" y="102.22" width="6" height="0.8"/><rect class="cls-24" x="84" y="99.02" width="2.4" height="2.4"/><path class="cls-17" d="M37.18,43.82a5.74,5.74,0,0,0-1.1,4.31,43.48,43.48,0,0,0,.74,5.17,9.87,9.87,0,0,0,1.83,4.29,4.38,4.38,0,0,0,3.43,1.71,1.69,1.69,0,0,1,1.62,1.46v.08a47.62,47.62,0,0,0,1.34,7.07,17.32,17.32,0,0,0,3.18,5.91c.72.93,1.53,1.84,2.32,2.78l.61.69.3.35a2.08,2.08,0,0,0,.21.21,6.48,6.48,0,0,0,1.15.85,18.15,18.15,0,0,0,6.37,2h.05a2.11,2.11,0,0,1,.36.09,13.88,13.88,0,0,0,3.86,1,7.69,7.69,0,0,0,1.85-.07c.64-.1,1.31-.26,2-.45h0a1.33,1.33,0,0,1,.34,0,16.06,16.06,0,0,0,6.81-1.61,10,10,0,0,0,1.38-.91,11.34,11.34,0,0,0,1.23-1.2c.88-1,1.73-1.91,2.54-2.88a17.66,17.66,0,0,0,3.55-6.28,44,44,0,0,0,1.41-7.46v-.06a1.34,1.34,0,0,1,1.27-1.15,4.52,4.52,0,0,0,3.63-1.9,10.48,10.48,0,0,0,1.77-4.45,38.28,38.28,0,0,0,.65-5.2,5.59,5.59,0,0,0-1.24-4.29h0A.91.91,0,0,1,92,42.46a5.77,5.77,0,0,1,1.69,2.72,10.8,10.8,0,0,1,.41,2.94,38.75,38.75,0,0,1-.44,5.56,12.66,12.66,0,0,1-2,5.58,7.48,7.48,0,0,1-2.38,2.19,7.31,7.31,0,0,1-3.15.93l1.28-1.21a46.51,46.51,0,0,1-1.25,8,20.62,20.62,0,0,1-3.91,7.43c-.84,1.07-1.71,2.1-2.58,3.09a13.31,13.31,0,0,1-1.54,1.58,13,13,0,0,1-1.86,1.31,19,19,0,0,1-8.29,2.24l.37-.06a23.06,23.06,0,0,1-2.38.58,11.41,11.41,0,0,1-2.68.17,17.46,17.46,0,0,1-5-1.08l.4.1a21.73,21.73,0,0,1-7.86-2.39,10.35,10.35,0,0,1-1.88-1.36c-.15-.13-.33-.33-.45-.46L48.15,80l-.64-.7c-.85-1-1.69-1.92-2.49-3a19.74,19.74,0,0,1-3.61-7.35,48.57,48.57,0,0,1-1.12-7.72l1.63,1.54a7.69,7.69,0,0,1-3.31-1,7.91,7.91,0,0,1-2.47-2.3,12.8,12.8,0,0,1-2.06-5.73,35.61,35.61,0,0,1-.34-5.61,10.86,10.86,0,0,1,.47-3A5.76,5.76,0,0,1,36,42.46a.91.91,0,0,1,1.24,1.34Z"/><path class="cls-17" d="M53,75.48a12.2,12.2,0,0,0,4.87,4.75A13.34,13.34,0,0,0,64,81.48a13.33,13.33,0,0,0,6.11-1.27A12.35,12.35,0,0,0,75,75.48a8.71,8.71,0,0,1-3.11,7.31A12,12,0,0,1,64,85.48a12,12,0,0,1-7.91-2.68A8.63,8.63,0,0,1,53,75.48Z"/></svg>