<svg xmlns="http://www.w3.org/2000/svg" viewBox="0 0 128 128"><style><![CDATA[.Y{stroke:#333}.Z{stroke-linejoin:round}.a{fill:#af844b}.b{stroke-width:4}.c{stroke-linecap:round}.d{stroke-miterlimit:10}]]></style><path d="M38,59V69q0,6,6,6H84q6,0,6-6V59Z" class="Y a b d"/><path d="M120 103c-.63-3.74-3-14.22-12-18-15-6.37-24.23-10-44-10s-29 3.63-44 10c-9 3.8-11.37 14.28-12 18 1.68 1 25.7 12 56 12 26.7 0 51.47-9.2 56-12z" fill="#44566b"/><path d="M108.85 93.7c-15-6.38-25.08-10-44.85-10s-29.83 3.64-44.85 10C14 95.9 11.5 100.12 10.2 104c5.85 2.68 27.1 11 53.8 11 24.54 0 46.83-7.55 53.8-10.92-1.28-3.93-3.75-8.17-8.96-10.38z" fill="#3b485b"/><path d="M37.17 78.46a266.27 266.27 0 0 0 9.91 35.41A133.62 133.62 0 0 0 64 115a134.92 134.92 0 0 0 19.19-1.45 358.69 358.69 0 0 0 7.17-35.2C83 76.16 75.18 75 64 75c-11.42 0-19.3 1.2-26.83 3.46z" fill="#d1d8db"/><path d="M84 73c-3.24 5.35-11.6 17-18 20h-4c-6.4-3-14.76-14.65-18-20v-4h40z" fill="#ddb8af"/><g class="Y b Z"><g fill="#ba362a"><path d="M56.76 114.75l7.24.22 7.24-.22L66 101h-4z"/><path d="M66 101.02l4-8H58l4 8H66z"/></g><path d="M44 73l-4 8 14 24 8-12c-6.4-3-14.76-14.63-18-20zm40 0l4 8-14 24-8-12c6.4-3 14.76-14.63 18-20z" fill="#ebf0f2"/></g><path d="M64 83c2.87 0 10 0 14-4s8-12 8-18c4.1-.2 6-4.06 6.53-7.83C94.17 42.07 89.27 42.48 88 43v-8c.1-9.43-5.45-19.8-24-19.8S39.9 25.6 40 35v8c-1.3-.53-6.16-1.14-4.47 10.33.56 3.77 2.4 7.47 6.5 7.67 0 6 4 14 8 18s11.1 4.05 13.97 4z" fill="#edccc3"/><g fill="#e5c2ba"><path d="M86 61c4.1-.2 6-4.06 6.53-7.83C94.17 42.07 89.27 42.48 88 43v-8c.1-9.43-5.45-19.8-24-19.8-.66 0-1.27 0-1.9.07-4.4 16.17-7.4 33.74-7.17 47.38 0 4.74.52 12.17 1.23 19.6A31.26 31.26 0 0 0 64 83c2.87 0 10 0 14-4s8-12 8-18z"/><path d="M88.43 42l.24-7.3c.1-9.44-6.12-19.45-24.7-19.45s-24.8 10-24.7 19.45c0 3 .24 7.3.24 7.3-1.42-.6-1.72-.6-3.5 1.06 4.56 3.45 6 6.87 6 10a2.65 2.65 0 0 0 2.88-2.34l.9-6.33 2.15-2.3v-1.7a25 25 0 0 0 2.77.84c10.56 2.4 24.97-1.8 31.3-4.24v4l2 2v10h2.33A1.81 1.81 0 0 0 88 51.82c.8-2.2 2.4-4.73 4.83-5.73a5 5 0 0 0-1.52-3c-1.74-1.6-1.46-1.72-2.88-1.1z"/></g><path d="M56.48 41.9C66 42.23 76.78 39 82 37v4l2 2v10h2.33A1.81 1.81 0 0 0 88 51.82a9.91 9.91 0 0 1 4.52-5.57c-.86-3.9-3.62-3.6-4.52-3.25v-8c.1-9.43-5.45-19.8-24-19.8-.66 0-1.27 0-1.9.07a232.17 232.17 0 0 0-5.61 26.64z" fill="#dbb8b2"/><path d="M39.5 40.25l-.06.06.06 1.62m49.02 0h-.1l.06-1.65-.06-.06" fill="none" stroke-width="3" class="Y Z c"/><path d="M92 29c-1.76-5.65-13.46-16-28-16-21.24 0-27.58 16.92-28 18l2 2c-1.4 6.43-2 10-2 10 3.8 3.82 6 5.1 6 10h2V43l2-2v-4c4.72 1.1 16.13 5.45 36-4v8l2 2v10h2c0-4.93 5.8-10.16 6-10a16.7 16.7 0 0 0-2.07-11.93A3.88 3.88 0 0 0 92 29z" fill="#e2b886"/><path d="M42 53h2V43l2-2v-4c4.72 1.1 16.13 5.45 36-4v8l2 2v10h2c0-1 .4-4.45 4-8.07-.2-.7 0-7.93-4-13.93l6-2c-2-6.36-17.7-16.8-32.76-12.75C52.92 18 42.94 22.88 40 31l2 2.33A75.71 75.71 0 0 0 38 45c1.66 1.68 4 3.27 4 8z" fill="#d8a766"/><path d="M81.54 33.44L89.77 31l1 3.65-9.18 2.8-.05-4z" fill="#d3a879"/><path d="M88.2 35.4a20.84 20.84 0 0 0-1.85-3.81L82 33v4.32z" fill="#c9985d"/><path d="M83.43 33l-.53 8-.26-.63 1.85 2.15.06.08a.56.56 0 0 1 .14.41L84 53l-.7-10 .2.48-2.15-1.85a.75.75 0 0 1-.26-.51V41l-.53-8a1.433 1.433 0 0 1 2.86-.18zm-36 2L47 41v.17a.78.78 0 0 1-.29.57l-2.2 1.8.22-.53L44 53l-.76-10a.61.61 0 0 1 .13-.44l.1-.1 1.8-2.2L45 41l-.4-6a1.433 1.433 0 1 1 2.86-.18z" class="a"/><path d="M40 31c6 6 14 14 44 0 0 0-30-14-44 0z" fill="#d8a766"/><path d="M84.78,32.48a84.46,84.46,0,0,1-10.7,4.11A66,66,0,0,1,63,39.05a33.72,33.72,0,0,1-11.38-.32A16.78,16.78,0,0,1,42,33a16.35,16.35,0,0,0,9.73,4.9,32.58,32.58,0,0,0,11-.5,64.05,64.05,0,0,0,10.58-3.17,81.6,81.6,0,0,0,10-4.68Z" class="a"/><g fill="#e2b886"><path d="M76 31c-1.32.65-2.68 1.2-4 1.7s-2.8.9-4.22 1.2a39.7 39.7 0 0 1-4.33.79l-2.2.24-2.25.14a38.37 38.37 0 0 1-8.81-.77A22.49 22.49 0 0 1 42 31a59.76 59.76 0 0 0 8.49 1.08l8.43.13 8.46-.48 4.27-.38L76 31z"/><path d="M74 31a36.39 36.39 0 0 1-3.54 1l-3.62.54a36.75 36.75 0 0 1-7.34 0 29.35 29.35 0 0 1-7.2-1.63l-1.72-.7a14.34 14.34 0 0 1-1.65-.86A11.83 11.83 0 0 1 46 27a30 30 0 0 0 3.46 1l3.43.7 6.92 1 7 .65 3.56.3L74 31zm13-3.15c-1.46.26-3 .43-4.43.55a44.43 44.43 0 0 1-4.47 0 41.77 41.77 0 0 1-8.86-1.4 37.51 37.51 0 0 1-8.32-3.43A23.17 23.17 0 0 1 54 17.85a64.42 64.42 0 0 0 7.89 3.67c2.66 1.05 5.38 1.9 8.12 2.7l4.16 1.06 2.1.48 2.12.44 8.6 1.65z"/></g><path d="M42 53a9.89 9.89 0 0 0-2.45-5.25 15.57 15.57 0 0 0-2.07-2l-1.16-.84-.9-.6-.17-.1-.1-.08-.1-.1-.1-.04v-.06a1.29 1.29 0 0 1-.2-.39 1.39 1.39 0 0 1 .05-1.09 1.42 1.42 0 0 1 .83-.74 1.23 1.23 0 0 1 .41-.12 1.43 1.43 0 1 1 0 2.85 1.39 1.39 0 0 0 .46-.07 1.42 1.42 0 0 0 .83-.74 1.39 1.39 0 0 0 .05-1.09 1.11 1.11 0 0 0-.2-.37l-.14-.13c-.08-.07 0 0 0 0l.13.12.27.3.55.58c.36.4.7.8 1 1.23A16.21 16.21 0 0 1 40.74 47 10.52 10.52 0 0 1 42 53zm44 0a10.52 10.52 0 0 1 1.26-6A16.21 16.21 0 0 1 89 44.29l1-1.23.55-.58.27-.3.13-.12-.07.08a1.11 1.11 0 0 0-.2.37 1.39 1.39 0 0 0 0 1.09 1.42 1.42 0 0 0 .83.74 1.39 1.39 0 0 0 .46.07 1.43 1.43 0 1 1 0-2.85 1.23 1.23 0 0 1 .46.08 1.42 1.42 0 0 1 .83.74 1.39 1.39 0 0 1 0 1.09 1.29 1.29 0 0 1-.2.39v.06l-.1.1c-.1.1-.08.07-.1.1l-.1.08-.17.1-.9.6-1.16.84a15.57 15.57 0 0 0-2.07 2A9.89 9.89 0 0 0 86 53z" fill="#333"/><path d="M92 30.66l-2.68.93-2.65.68-2.67.52c-.9.18-1.8.23-2.68.34a38.68 38.68 0 0 1-10.75-.45 39.88 39.88 0 0 1-5.19-1.33 34.53 34.53 0 0 1-4.85-2.15l-1.17-.63a7.21 7.21 0 0 1-1.13-.68L56 26.4a18.15 18.15 0 0 1-2-1.65L52 23l2.12 1.53A17.18 17.18 0 0 0 56.28 26l2.27 1.26a6.89 6.89 0 0 0 1.16.56l1.2.5a33.38 33.38 0 0 0 4.86 1.62 35.77 35.77 0 0 0 5 .78 36 36 0 0 0 10-.53l2.46-.55 2.4-.7 2.34-.85a23.33 23.33 0 0 0 2.17-1z" class="a"/><g fill="none" class="Y Z b"><path d="M92 43a14.41 14.41 0 0 0-2.07-11.93L92 29c-1.77-5.67-13.35-16-28-16-22.87 0-27.8 17.5-28 18l1.2 1.2C35.7 40.4 36 43 36 43" class="c"/><path d="M36 79a142.68 142.68 0 0 0-16 6c-9 3.8-11.37 14.28-12 18 1.68 1 25.7 12 56 12 26.7 0 51.47-9.18 56-12-.63-3.74-3-14.22-12-18a151.55 151.55 0 0 0-16-6"/></g><g fill="#333"><ellipse cx="55.02" cy="51.59" rx="1.75" ry="1.25"/><ellipse cx="73.05" cy="51.59" rx="1.75" ry="1.25"/></g><g class="Y"><path d="M60.04 68.58h8m-8.04-8l2.2.6a5.55 5.55 0 0 0 3.6 0l2.2-.6m-4.96 12l2-.02" fill="none" stroke-width="2" class="c d"/><path d="M38.57 112.52c3.88.73 8 1.35 12.37 1.8-3.55-10.14-6.7-30-6.94-39.3l-10 4-2 10 6 6-6 6zm50.9-.05L96 101l-6-6 6-6-2-10-10-4c-.25 9.28-3.38 29.1-6.93 39.25 4.3-.42 8.46-1.04 12.4-1.78z" fill="#3b485b" class="Z b"/></g><path d="M84 99.02h6v4h-6z" fill="#fff"/><path d="M84 99.02h6v.8h-6zm0 1.6h6v.8h-6zm0 1.6h6v.8h-6z" fill="#ba362a"/><path d="M84 99.02h2.4v2.4H84z" fill="#2f62ab"/><g fill="#333"><path d="M37.18 43.82a5.74 5.74 0 0 0-1.1 4.31 43.48 43.48 0 0 0 .74 5.17 9.87 9.87 0 0 0 1.83 4.29 4.38 4.38 0 0 0 3.43 1.71 1.69 1.69 0 0 1 1.62 1.46v.08a47.62 47.62 0 0 0 1.34 7.07 17.32 17.32 0 0 0 3.18 5.91l2.32 2.78.6.7.3.35a2.08 2.08 0 0 0 .21.21 6.48 6.48 0 0 0 1.15.85 18.15 18.15 0 0 0 6.37 2h.05a2.11 2.11 0 0 1 .36.09 13.88 13.88 0 0 0 3.86 1 7.69 7.69 0 0 0 1.85-.07c.64-.1 1.3-.26 2-.45a1.33 1.33 0 0 1 .34 0 16.06 16.06 0 0 0 6.81-1.61 10 10 0 0 0 1.38-.91 11.34 11.34 0 0 0 1.23-1.2l2.54-2.88a17.66 17.66 0 0 0 3.55-6.28 44 44 0 0 0 1.41-7.46v-.06a1.34 1.34 0 0 1 1.27-1.15 4.52 4.52 0 0 0 3.63-1.9 10.48 10.48 0 0 0 1.77-4.45 38.28 38.28 0 0 0 .65-5.2 5.59 5.59 0 0 0-1.24-4.29.91.91 0 0 1 1.36-1.42 5.77 5.77 0 0 1 1.69 2.72 10.8 10.8 0 0 1 .41 2.94 38.75 38.75 0 0 1-.44 5.56 12.66 12.66 0 0 1-2 5.58 7.48 7.48 0 0 1-2.38 2.19 7.31 7.31 0 0 1-3.15.93l1.28-1.2a46.51 46.51 0 0 1-1.25 8 20.62 20.62 0 0 1-3.91 7.43l-2.58 3.1a13.31 13.31 0 0 1-1.54 1.58 13 13 0 0 1-1.86 1.31 19 19 0 0 1-8.29 2.24l.37-.06a23.06 23.06 0 0 1-2.38.58 11.41 11.41 0 0 1-2.68.17 17.46 17.46 0 0 1-5-1.08l.4.1a21.73 21.73 0 0 1-7.86-2.39 10.35 10.35 0 0 1-1.88-1.36c-.15-.13-.33-.33-.45-.46l-.35-.32-.64-.7-2.5-3a19.74 19.74 0 0 1-3.61-7.35 48.57 48.57 0 0 1-1.12-7.72l1.63 1.54a7.69 7.69 0 0 1-3.31-1 7.91 7.91 0 0 1-2.47-2.3 12.8 12.8 0 0 1-2.06-5.73 35.61 35.61 0 0 1-.34-5.61 10.86 10.86 0 0 1 .47-3A5.76 5.76 0 0 1 36 42.46a.91.91 0 0 1 1.24 1.34z"/><path d="M53,75.48a12.2,12.2,0,0,0,4.87,4.75A13.34,13.34,0,0,0,64,81.48a13.33,13.33,0,0,0,6.11-1.27A12.35,12.35,0,0,0,75,75.48a8.71,8.71,0,0,1-3.11,7.31A12,12,0,0,1,64,85.48a12,12,0,0,1-7.91-2.68A8.63,8.63,0,0,1,53,75.48Z"/></g></svg>