<svg xmlns="http://www.w3.org/2000/svg" viewBox="0 0 128 128"><style><![CDATA[.B{fill:none}.C{stroke-miterlimit:10}.D{stroke-width:3}.E{fill:#333}.F{stroke-linejoin:round}.G{stroke:#343433}.H{stroke-linecap:round}.I{stroke-width:1.5}.J{stroke:#333}.K{fill:#874f2e}]]></style><g stroke="#874f2e" class="B C"><path d="M70 79.207a18.14 18.14 0 0 1-13.88 0 3.5 3.5 0 0 1-2-3.22v-7.26a4.28 4.28 0 0 1 4.28-4.28h9.46a4.28 4.28 0 0 1 4.14 4.28v7.26a3.58 3.58 0 0 1-2 3.22z" stroke-width="3.5"/><path d="M54.02 74.467l3 2h11l4-2" stroke-width="5"/></g><path d="M68.74 62.447H57.28a6.3 6.3 0 0 0-6.28 6.28v7.26a5.48 5.48 0 0 0 3.26 5.02 22.94 22.94 0 0 0 8.74 1.56 22.94 22.94 0 0 0 8.74-1.56 5.48 5.48 0 0 0 3.26-5.06v-7.22a6.26 6.26 0 0 0-6.24-6.28zm-11.46 4h11.46a2.28 2.28 0 0 1 2.26 2.26v4l-2.58 1.3H57.6l-2.58-1.3v-4a2.28 2.28 0 0 1 2.26-2.24z" class="K"/><path d="M115.02 100.467a11.28 11.28 0 0 0-9-9l-17-4a117.141 117.141 0 0 0-52 0l-17.04 4a11.28 11.28 0 0 0-9 9l-.98 5a130.499 130.499 0 0 0 53.06 11 130.658 130.658 0 0 0 52.94-11z" fill="#444"/><path d="M75.58,115.8466c3.68-7.88,5.46-16.56,5.86-30a141.9981,141.9981,0,0,0-18.46-1.24,134.29,134.29,0,0,0-18.38,1.26c.4,13.42,2.16,22,5.86,30h0c4,.38,8.46.6,12.62.6h0c4,0,8.24-.2,12.48-.6Z" fill="#fff"/><path d="M77.02 73.467h-28v8c6 8 8 8 14 12 6-4 8-4 14-12z" fill="#a0765f"/><path d="M49.02 83.467v-10m28 10v-10" class="B C D G"/><path d="M63.08 14.507c16 0 20 7.16 20 18v10c3.28-1.56 6.74 2.3 5.34 8-2 8-5.34 10-7.34 10v4c0 6-2.42 6.22-8 12-3.66 3.82-6 4-10 4s-6.36-.16-10-4c-5.56-5.78-8-6-8-12v-4c-2 0-5.34-2-7.34-10-1.4-5.62 2-9.46 5.34-8v-10c0-10.84 3.98-18 20-18z" fill="#ad8165"/><path d="M83.08 42.447v-10c0-10.78-4-18-20-18a40.944 40.944 0 0 0-6 .42v23.52a7.8 7.8 0 0 1-2.54 5.76.9.9 0 0 0 .4 1.54c3 .86 4.6 1.42 6.46.94.62-.16 1.72.54 1.72 1.18v6.16a3.38 3.38 0 0 0 1.28 2.8 2.2 2.2 0 0 1-1.28 4c-1.62 0-2.2-1.1-4.4-1.1-1.3 0-1.1 1.7-1.14 1.64a4.761 4.761 0 0 1 2.2.58 6.759 6.759 0 0 0 3.3.86v6.62a3.82 3.82 0 0 0 2.5 3.52 3.1 3.1 0 0 1 1.88 3.26c0 4.96-7.32 1.38-10 3.58a14.138 14.138 0 0 0 5.52.7c4 0 6.36-.16 10-4 5.56-5.78 8-6 8-12v-4c2 0 5.34-2 7.34-10 1.5-5.7-1.96-9.54-5.24-7.98z" fill="#a37c62"/><path d="M65.68 67.127a5.662 5.662 0 0 0-2.36.26 1.219 1.219 0 0 1-.84 0 5.741 5.741 0 0 0-2.36-.26c-1.34.2-1.48 1.04-4.18 2.5l2.38 1.46a4.58 4.58 0 0 0 2.54.82H65a4.42 4.42 0 0 0 2.54-.9l2.46-1.4c-2.72-1.38-3-2.3-4.32-2.48z" fill="#957058"/><path d="M70 69.687c-2 0-2.52-.78-4.48-.78a13.464 13.464 0 0 0-2.58.34 15.045 15.045 0 0 0-2.6-.24c-1.88 0-2.3.72-4.42.72" stroke="#674848" class="B C H I"/><path d="M30 94.447a2.186 2.186 0 0 1 0-.36l-10 2.36c-4.76 1.2-9.04 4.18-10 9a117.216 117.216 0 0 0 27.8 8.58 46.319 46.319 0 0 1-7.8-19.58zm66.12 0a46.26 46.26 0 0 1-8 19.6 116.34 116.34 0 0 0 27.88-8.58c-.96-4.82-5.24-7.8-10-9l-10-2.38a2.185 2.185 0 0 1 .12.36z" class="E"/><path d="M72 106.167a1.3 1.3 0 0 0 2.2-.26l1.08-2.9-9.62-10.74a32.924 32.924 0 0 1-3.02 1.64l-2.5-1.38-9.16 11.22.64 1.86a1.3 1.3 0 0 0 2.2.26l8.4-10.54 8.14 20.94 3.12-.22-5.48-14.68z" fill="#ccc"/><path d="M50.44 115.827c-4-8.52-5.74-18-6-33.36" class="E"/><path d="M48.62 85.367q-2 .2-4 .48c.4 13.42 2.16 22 5.86 30l4 .32a88.199 88.199 0 0 1-5.86-30.8z" fill="#ccc"/><g fill="#444" class="C D J"><path d="M61.02 99.467l-2-4 2-4h4l2 4-2 4h-4z"/><path d="M65.86 103.647l-.84-4.18h-4l-.84 4.18-2.18 12.7 5.12.12 4.98-.12z"/></g><path d="M46.82 79.327L44 87.147l7.5 16.52 9.32-12a29.82 29.82 0 0 1-14-12.34z" fill="#fff"/><path d="M60.78 91.647a29.5 29.5 0 0 1-14-12.32L44 87.147l7.5 16.52 9.3-12" class="B D F H J"/><path d="M79.24 79.327l2.76 7.68-7.58 16.54-9.32-12a30 30 0 0 0 14.14-12.22z" fill="#fff"/><path d="M65.16 91.647a29.999 29.999 0 0 0 14-12.3l2.84 7.76-7.58 16.54-9.32-12m-27.26-4.32L20 91.447a11.28 11.28 0 0 0-9 9l-1 5a130.499 130.499 0 0 0 53.06 11 130.658 130.658 0 0 0 52.94-11l-1-5a11.28 11.28 0 0 0-9-9c-2.66-.66-10.26-2.42-17.82-4.12" class="B D F H J"/><path d="M42.64 114.847l7.82 1c-4-8.52-5.74-18-6-33.36l-8 3.58 3.06 2.94-5.22 5.42a43.099 43.099 0 0 0 8.34 20.42zm40.76 0l-7.82 1c4-8.52 5.74-18 6-33.36l8 3.58-3.06 2.94 5.22 5.42a43.3 43.3 0 0 1-8.34 20.42z" class="E D F J"/><path d="M63.1 14.587c11.88 0 20 7.18 20 18v10.68c3.16-.76 5.4 1.64 4 7.28-2 8-4 10.14-6 10.14v4c0 6-2.42 6.24-8 12-3.68 3.82-6 3.74-10 3.72s-6.36.1-10-3.72c-5.58-5.8-8-6-8-12v-4c-2 0-4.1-2.12-6.1-10.14-1.4-5.64 1.5-8 4-7.28v-10.68c.04-10.82 8.22-18 20.1-18z" class="B D F G"/><path d="M63.04 14.507c-19.1 0-24 12.82-22.14 28.9.24.24.4 1.34.54 1.44a4.4 4.4 0 0 1 3.56 3.56v-7.8c.78-1.5 2-4 2-4v-3.12a7.88 7.88 0 0 1 2-6.38c2.46-2 6.28-1.72 14-1.72s11.52-.38 14 1.72a8 8 0 0 1 2 6.38v3.12l2 4v7.8a4.4 4.4 0 0 1 3.56-3.56c.14 0 .32-1.2.54-1.44 1.9-16.08-2.96-28.9-22.06-28.9z" class="K"/><path d="M84.5 44.327a47.076 47.076 0 0 0-.26-10.62 24 24 0 0 0-3.38-9.7 16.601 16.601 0 0 0-7.64-6.26 27.699 27.699 0 0 0-10-1.74 29.082 29.082 0 0 0-10 1.68 16.48 16.48 0 0 0-7.76 6 22.9 22.9 0 0 0-3.46 9.72 48.001 48.001 0 0 0-.2 10.6.66.66 0 0 1-.574.736l-.046.004a.68.68 0 0 1-.74-.58 43.999 43.999 0 0 1-.44-11.02 24.901 24.901 0 0 1 3.36-10.74 18.68 18.68 0 0 1 8.64-7.4 28.702 28.702 0 0 1 11.16-2 28.281 28.281 0 0 1 11.12 2.2 18.78 18.78 0 0 1 8.62 7.52 26.3 26.3 0 0 1 3.28 10.74 47.995 47.995 0 0 1-.36 11 .68.68 0 0 1-1.34-.14z" class="E"/><path d="M44.96 40.587l1.76-4v.16a33.619 33.619 0 0 1-.1-6.2 5.952 5.952 0 0 1 3.94-5.14 19.602 19.602 0 0 1 6.32-.88h12.24a20.623 20.623 0 0 1 6.32.84 6.201 6.201 0 0 1 2.78 2 6.98 6.98 0 0 1 1.24 3.12 28 28 0 0 1 0 6.22v-.14l1.72 4.16-2.3-3.86v-.14a47.192 47.192 0 0 0-.52-6 4.8 4.8 0 0 0-3.38-3.8 19.225 19.225 0 0 0-5.76-.52h-12.2a18.383 18.383 0 0 0-5.74.56 4.74 4.74 0 0 0-3.32 3.84 56.868 56.868 0 0 0-.5 6v.14a37.818 37.818 0 0 0-2.5 3.64z" fill="#753f25"/><path d="M60.18 48.507a16.241 16.241 0 0 0-7.1-1.88 30.785 30.785 0 0 0-6.54.44c-.22 1.64-.8 7.48 2.4 9.26a8.7 8.7 0 0 0 8.76-.14c2.9-2.42 2.48-7.68 2.48-7.68zm5.68 0a16.241 16.241 0 0 1 7.1-1.88 30.785 30.785 0 0 1 6.54.44c.22 1.64.8 7.48-2.4 9.26a8.7 8.7 0 0 1-8.76-.14c-2.92-2.42-2.48-7.68-2.48-7.68z" fill="#b7b1ad"/><g class="B"><path d="M79.44 46.387s1.4 7.62-2.34 9.7a8.7 8.7 0 0 1-8.76-.14c-2.92-2.44-2.48-7.68-2.48-7.68" stroke="#ccc" class="C I"/><path d="M72.96 46.387a28.741 28.741 0 0 1 8 .74v.8a19.462 19.462 0 0 0-8-1.04 21.344 21.344 0 0 0-7.16 1.38 16.24 16.24 0 0 1 7.16-1.88z" stroke-width="2" class="F G"/><path d="M46.6 46.387s-1.4 7.62 2.34 9.7a8.7 8.7 0 0 0 8.76-.14c2.9-2.44 2.48-7.7 2.48-7.7" stroke="#ccc" class="C I"/><g stroke-width="2" class="F G"><path d="M53.06 46.387a28.741 28.741 0 0 0-8 .74v.8a19.462 19.462 0 0 1 8-1.04 21.344 21.344 0 0 1 7.16 1.38 16.24 16.24 0 0 0-7.16-1.88z"/><path d="M65.7 48.267a5.16 5.16 0 0 0-5.52 0"/></g></g><g class="E"><circle cx="72.7" cy="51.027" r="1.24"/><circle cx="53.38" cy="51.027" r="1.24"/></g><path d="M67.74 62.707h-9.46a6 6 0 0 0-6 6v7.26a5.2 5.2 0 0 0 3.12 4.82 19.999 19.999 0 0 0 15.28 0 5.2 5.2 0 0 0 3.12-4.82v-7.24a6 6 0 0 0-5.98-6.02q-.04 0-.08 0zm-9.46 3.5h9.46a2.52 2.52 0 0 1 2.52 2.52v3.8l-2.84 1.42h-9.66l-2-1.34v-3.9a2.54 2.54 0 0 1 2.52-2.5z" class="K"/><path d="M73.76 75.987l-.24-5.36a19.007 19.007 0 0 0-.12-2.64 6.001 6.001 0 0 0-.92-2.32 5.82 5.82 0 0 0-4.14-2.48H57.7a5.78 5.78 0 0 0-4.14 2.48 5.34 5.34 0 0 0-.92 2.32c-.12.82 0 1.76-.12 2.64l-.24 5.36-.24-5.36a24.673 24.673 0 0 1 0-2.72 6.56 6.56 0 0 1 .9-2.66 6.36 6.36 0 0 1 4.7-2.96h10.8a6.4 6.4 0 0 1 4.7 2.96 6.28 6.28 0 0 1 .86 2.66 24.582 24.582 0 0 1 0 2.72zm-18-7.26a2.58 2.58 0 0 1 .72-2 3 3 0 0 1 2.18-.8l4.34-.12a26.236 26.236 0 0 1 4.34.12 3.081 3.081 0 0 1 2.18.8 2.56 2.56 0 0 1 .72 2 2.5 2.5 0 0 0-2.803-2.155l-.097.015-4.34.12c-1.44.02-2.9 0-4.34-.12a2.5 2.5 0 0 0-2.885 2.043q-.008.048-.015.097z" fill="#753f25"/><path d="M52.26 75.007a5.799 5.799 0 0 0 1.68 2.8 4.276 4.276 0 0 0 1.22.8 4.37 4.37 0 0 0 .66.24l.78.22a26.48 26.48 0 0 0 12.84 0l.78-.22.66-.24a4.276 4.276 0 0 0 1.22-.8 5.799 5.799 0 0 0 1.68-2.8 4.92 4.92 0 0 1-.5 3.68 6 6 0 0 1-1.32 1.56 4.455 4.455 0 0 1-.88.58l-.82.42a17.1 17.1 0 0 1-14.44 0l-.82-.42a5.995 5.995 0 0 1-.88-.58 5.78 5.78 0 0 1-1.32-1.56 4.78 4.78 0 0 1-.54-3.68z" class="E"/><path d="M57.5 61.667a5.34 5.34 0 0 1 2.62.68 5.5 5.5 0 0 0 5.22 0 5.5 5.5 0 0 1 2.66-.68" stroke="#674848" class="B C H I"/></svg>