<svg xmlns="http://www.w3.org/2000/svg" viewBox="0 0 128 128"><style>.B{stroke-linecap:round}.C{stroke:#333}.D{stroke-width:3}.E{stroke-miterlimit:10}.F{stroke-linejoin:round}</style><path fill="#8c2943" d="M93.5 53.94l-3.38-8.76a76.859 76.859 0 0 1-3.4-13.88c-2.12-12.64-11.16-19.76-25.6-19.76S37.64 18.66 35.6 31.3a75.318 75.318 0 0 1-3.48 13.88l-3.48 8.76a17.52 17.52 0 0 0 .88 16.34l3.06 5.1a17.6 17.6 0 0 1 2.5 9.06v15.1h52v-15.1a17.6 17.6 0 0 1 2.5-9.06l3.06-5.1a17.46 17.46 0 0 0 .86-16.34z"/><g fill="#a3455d"><path d="M43.18 37.52h4v4h-4z"/><path d="M39.18 41.52h4v4h-4zm8 0h4v4h-4zm8 0h4v4h-4zm8 0h4v4h-4zm8 0h4v4h-4zm8 0h4v4h-4z"/><path d="M83.18 45.52h4v4h-4zm-8 0h4v4h-4zm-8 0h4v4h-4zm-8 0h4v4h-4zm-8 0h4v4h-4zm-8 0h4v4h-4zm-8 0h4v4h-4z"/><path d="M31.18 49.52h4v4h-4zm8 0h4v4h-4zm8 0h4v4h-4zm8 0h4v4h-4zm8 0h4v4h-4zm8 0h4v4h-4zm8 0h4v4h-4zm8 0h4v4h-4z"/><path d="M91.18 53.52h4v4h-4zm-8 0h4v4h-4zm-8 0h4v4h-4zm-8 0h4v4h-4zm-8 0h4v4h-4zm-8 0h4v4h-4zm-8 0h4v4h-4zm-8 0h4v4h-4zm-8 0h4v4h-4z"/><path d="M31.18 57.52h4v4h-4z"/><path d="M27.18 61.52h4v4h-4zm8 0h4v4h-4zm8 0h4v4h-4zm8 0h4v4h-4zm8 0h4v4h-4zm8 0h4v4h-4zm8 0h4v4h-4zm8 0h4v4h-4zm8 0h4v4h-4z"/><path d="M87.18 65.52h4v4h-4zm-8 0h4v4h-4zm-8 0h4v4h-4zm-8 0h4v4h-4zm-8 0h4v4h-4zm-8 0h4v4h-4zm-8 0h4v4h-4zm-8 0h4v4h-4z"/><path d="M35.18 69.52h4v4h-4zm8 0h4v4h-4zm8 0h4v4h-4zm8 0h4v4h-4zm8 0h4v4h-4zm8 0h4v4h-4zm8 0h4v4h-4zm4 4.02v4h1.24a21.441 21.441 0 0 1 1.08-2.14l1.12-1.86z"/><path d="M79.18 73.52h4v4h-4zm-8 0h4v4h-4zm-8 0h4v4h-4zm-8 0h4v4h-4zm-8 0h4v4h-4zm-8 0h4v4h-4zm-4 .02h-3.7l1.12 1.86a14.296 14.296 0 0 1 1.08 2.14h1.5z"/><path d="M35.18 77.52h4v4h-4zm8 0h4v4h-4zm8 0h4v4h-4zm8 0h4v4h-4zm8 0h4v4h-4zm8 0h4v4h-4zm8 0h4v4h-4z"/><path d="M79.18 81.52h4v4h-4zm-8 0h4v4h-4zm-8 0h4v4h-4zm-8 0h4v4h-4zm-8 0h4v4h-4zm-8 0h4v4h-4z"/><path d="M35.18 85.52h4v4h-4zm8 0h4v4h-4zm8 0h4v4h-4zm8 0h4v4h-4zm8 0h4v4h-4zm8 0h4v4h-4zm8 0h4v4h-4z"/><path d="M79.18 89.52h4v4h-4zm-8 0h4v4h-4zm-8 0h4v4h-4zm-8 0h4v4h-4zm-8 0h4v4h-4zm-8 0h4v4h-4z"/><path d="M35.18 93.52h4v4h-4zm8 0h4v4h-4zm8 0h4v4h-4zm8 0h4v4h-4zm8 0h4v4h-4zm8 0h4v4h-4zm8 0h4v4h-4z"/><path d="M79.18 97.52h4v4h-4zm-8 0h4v4h-4zm-8 0h4v4h-4zm-8 0h4v4h-4zm-8 0h4v4h-4zm-8 0h4v4h-4zm0-40h4v4h-4zm8 0h4v4h-4zm8 0h4v4h-4zm8 0h4v4h-4zm8 0h4v4h-4zm8 0h4v4h-4zm8 0h4v4h-4zm-36-20h4v4h-4z"/><path d="M55.18 33.52h4v4h-4zm8 0h4v4h-4z"/><path d="M59.18 37.52h4v4h-4zm8 0h4v4h-4zm8 0h4v4h-4z"/></g><path fill="#dcb091" d="M113.12,95.72a11.3,11.3,0,0,0-9-9l-29-5.18v-10h-28v10l-29,5.18a11.3,11.3,0,0,0-9,9l-1,5a133.24,133.24,0,0,0,106,0Z"/><path fill="#d2a385" d="M47.12 77.56l20 12h8v-18h-28v6z"/><path fill="#d5e7e5" d="M113.12,95.72a11.3,11.3,0,0,0-9-9l-29-5.18a19.38,19.38,0,0,1-27.4.6l-.6-.6-29,5.18a11.3,11.3,0,0,0-9,9l-1,5a133.24,133.24,0,0,0,106,0Z"/><path fill="#e6edec" d="M113.12,95.72a11.3,11.3,0,0,0-9-9l-29-5.18a8.66,8.66,0,0,0,7,8.52l22,4.18a11.28,11.28,0,0,1,8.5,7.3l1.5-.72Z"/><path fill="#edf7f6" d="M18.12,86.72a11.3,11.3,0,0,0-9,9l-1,5,1.5.7a11.1,11.1,0,0,1,8.5-7.18l22-4.22a8.64,8.64,0,0,0,7-8.48Z"/><g fill="none" class="C D F"><path d="M47.12,81.54c-7.3,1.7-26,4.42-29,5.16a11.3,11.3,0,0,0-9,9l-1,5a133.24,133.24,0,0,0,106,0l-1-5a11.3,11.3,0,0,0-9-9c-2.66-.66-21.42-3.46-29-5.16" class="B"/><path d="M47.12 73.56v8m28-8v8"/></g><path fill="#dcb091" d="M83.14 42.04v-5c0-12.7-6.58-21.5-22-21.5s-22 8.8-22 21.5v5c-3.84 0-4.58 3.74-3.68 8 .76 3.5 2.66 8.5 5.68 8.5v5c0 4.6 6.36 11.52 12.98 15a17.379 17.379 0 0 0 7 1.04 15.021 15.021 0 0 0 6.5-1.04c6.64-3.48 13.52-10.4 13.52-15v-5c3 0 5.22-4.94 6-8.48.98-4.28-.18-7.92-4-8.02z"/><path fill="#cba082" d="M83.14 42.04v-5c0-12.7-6.58-21.5-22-21.5a34.265 34.265 0 0 0-6 .52v20.72c0 4-4 4.46-4 6.46a11.781 11.781 0 0 1 6 1.76h2.98a1 1 0 0 1 1 1v4.96a2.9 2.9 0 0 0 1.18 2.34 2 2 0 0 1-1.18 3.62c-1.48 0-2-1-4-1a2 2 0 0 0-1.7.9.461.461 0 0 0 .38.68c3.28.12 2.72 1.22 5.36 1.24v8.8a1 1 0 0 0 1 1 3 3 0 0 1 0 6h-3a4 4 0 0 0-4 3.42 3.758 3.758 0 0 0 .12.98 17.621 17.621 0 0 0 5.78.66 15.021 15.021 0 0 0 6.5-1.04c6.64-3.48 13.52-10.4 13.52-15v-5c3 0 5.22-4.94 6-8.48 1.04-4.3-.12-7.94-3.94-8.04z"/><path fill="#c4987a" d="M79.4 46.04l-.5 4.5a3.84 3.84 0 0 1-1.24 2.82l-2.62 2.48a7.82 7.82 0 0 0-2.48 5.7v13.8c4.72-3.62 8.58-8.36 8.58-11.82v-5c3 0 5.22-4.94 6-8.48.98-4.28-.18-8-4-8v-.94a6.7 6.7 0 0 0-3.74 4.94z"/><path fill="#cba082" d="M44.68,53.36a3.86,3.86,0,0,1-1.24-2.82l-.5-4.5a6.7,6.7,0,0,0-3.8-4.98v.98c-3.84,0-4.58,3.74-3.68,8,.76,3.5,2.66,8.5,5.68,8.5v5c0,3.56,3.84,8.54,8.64,12.2V61.54a7.82,7.82,0,0,0-2.48-5.66Z"/><g fill="none" class="C D F"><path d="M83.14 42.04v-5c0-12.7-6.58-21.5-22-21.5s-22 8.8-22 21.5v5c-3.84 0-4.94 3.26-4 7.54.76 3.54 3.04 8.96 6 8.96v5c0 4.6 6.36 11.52 12.98 15a17.379 17.379 0 0 0 7 1.04 15.021 15.021 0 0 0 6.5-1.04c6.64-3.48 13.52-10.4 13.52-15v-5c3 0 5.3-5.42 6-8.96.98-4.28-.18-7.44-4-7.54zm-8.02 39.5a19.38 19.38 0 0 1-27.4.6l-.6-.6"/><path d="M61.12 93.54v1m0 7v1m0 7.02v1" class="B"/></g><path fill="#333" d="M77.12 17.54c-1.72-3.86-4-4-16-4-18 0-24 10-24 20s4 10 4 14v16c0 4.6 6.36 11.52 12.98 15a17.379 17.379 0 0 0 7 1.04 15.021 15.021 0 0 0 6.5-1.04c6.54-3.42 13.28-10.18 13.5-14.78V47.54c0-4 3.8-4 3.8-14s-3.86-16-7.78-16zm-8 50.9a2 2 0 0 1-2 2h-1.18a2 2 0 0 1-1.4-.58l-.84-.82a2 2 0 0 0-1.4-.6h-2.36a2 2 0 0 0-1.4.6l-.84.82a2 2 0 0 1-1.4.58h-1.18a2 2 0 0 1-2-2v-3.56a2 2 0 0 1 1.54-2 29.322 29.322 0 0 1 6.38-1.06 28.778 28.778 0 0 1 6.6 1.08 2 2 0 0 1 1.5 2zm6.42-6.9a6 6 0 0 1-2.42 3.1 6 6 0 0 0-4.42-5.58 32.781 32.781 0 0 0-7.66-1.22 33.198 33.198 0 0 0-7.44 1.2 6 6 0 0 0-4.48 5.64 6 6 0 0 1-2.42-3.14c-1.24-3.58-3.58-10.8-3.58-14.36v-6.04a1.68 1.68 0 0 1 1.6-1.66c14.5-1.06 16-9.74 24.4-9.74a11.1 11.1 0 0 1 6 2v2.16a10.359 10.359 0 0 0 1.18 4.84l2 2a2.52 2.52 0 0 1 .74 1.78v4.46c.08 3.64-2.28 10.98-3.5 14.56z"/><path fill="#d05a6b" d="M31.18 49.54l10-12a4.82 4.82 0 0 1 4-2h4a4.3 4.3 0 0 0 4-2c2-3.78 2.9-4 4-4h8c.9 0 2.28.2 4 4a4.16 4.16 0 0 0 4 2h4a4.82 4.82 0 0 1 4 2l10 12c.48.58 1.36 2 1.38 2l-2.44-6.36a76.859 76.859 0 0 1-3.4-13.88c-2.12-12.64-11.16-19.76-25.6-19.76S37.64 18.66 35.6 31.3a75.318 75.318 0 0 1-3.48 13.88l-2.18 5.44a11.865 11.865 0 0 0 1.24-1.08z"/><g fill="#e39ca6"><path d="M35.18 43.54h.98l3.02-3.62v-.38h-4v4zm48-4v.38l3 3.62h1v-4h-4z"/><path d="M39.18 39.54h.32l1.68-2a5.801 5.801 0 0 1 2-1.58v-.42h-4zm44-4h-4v.4a5.38 5.38 0 0 1 2 1.58l1.68 2h.32z"/><path d="M83.18 31.54h4v4h-4zm-8 0h4v4h-4zm-4 0h-4v.86a10.18 10.18 0 0 1 2 3.14h2zm-16 0h-4v4h2a13.519 13.519 0 0 1 2-3.1zm-12 0h4v4h-4zm-8 0h4v4h-4z"/><path d="M39.18 27.54h4v4h-4z"/><path d="M39.18 27.54v-4h-1.06a22.856 22.856 0 0 0-1.6 4zm8 0h4v4h-4zm12 0h-4v2.88a2.38 2.38 0 0 1 2-.9h2zm4 2h2a2.64 2.64 0 0 1 2 .86v-2.86h-4zm8-2h4v4h-4zm8 0h4v4h-4z"/><path d="M84.12 23.54h-1v4h2.62a24.584 24.584 0 0 0-1.62-4zm-8.94 0h4v4h-4zm-8 0h4v4h-4zm-8 0h4v4h-4zm-8 0h4v4h-4zm-8 0h4v4h-4z"/><path d="M47.18 19.54h4v4h-4zm8 0h4v4h-4zm8 0h4v4h-4zm8 0h4v4h-4z"/><path d="M67.18 15.54h4v4h-4zm8 0h4v4h-4zm-16 0h4v4h-4zm-8 0h4v4h-4zm-8 0h4v4h-4z"/><path d="M51.18 12.9a24.53 24.53 0 0 0-4 1.6v1.04h4zm4-1.36h4v4h-4zm8 0h4v4h-4zm12 3.02a24.588 24.588 0 0 0-4-1.62v2.6h4z"/></g><g fill="none" class="C D E"><path d="M93.68 53.9l-3.56-8.72a76.859 76.859 0 0 1-3.4-13.88c-2.08-12.64-11.14-19.76-25.6-19.76S37.6 18.66 35.56 31.3a75.319 75.319 0 0 1-3.44 13.88l-3.6 8.74"/><path d="M37.18 19.52h48m-50 4h52" class="B"/></g><path fill="#916953" d="M64.12 62.98a5.66 5.66 0 0 0-2.36.26 1.22 1.22 0 0 1-.84 0 5.739 5.739 0 0 0-2.36-.26c-1.34.2-1.48 1.04-4.18 2.5l2.38 1.46a4.58 4.58 0 0 0 2.54.82h4.14a4.42 4.42 0 0 0 2.54-.82l2.46-1.4c-2.8-1.46-3.08-2.36-4.32-2.56z"/><path fill="none" stroke="#674848" stroke-width="1.5" d="M68.34 65.54c-2 0-2.52-.78-4.48-.78a13.456 13.456 0 0 0-2.58.34 15.039 15.039 0 0 0-2.58-.34c-1.88 0-2.3.72-4.42.72" class="B E"/><g fill="#333"><path d="M46.12 43.86a12 12 0 0 1 2.9-1.1 11.157 11.157 0 0 1 3.1-.18 19.44 19.44 0 0 1 5.64 2 .46.46 0 0 1 .24.6.48.48 0 0 1-.46.28 24.547 24.547 0 0 1-2.96-.52l-2.74-.42a14.599 14.599 0 0 0-5.5.12.48.48 0 0 1-.54-.36.44.44 0 0 1 .32-.42zm29.8.84a14.58 14.58 0 0 0-5.5-.12l-2.74.42a24.538 24.538 0 0 1-2.96.54.44.44 0 0 1-.478-.398.416.416 0 0 1-.002-.042.46.46 0 0 1 .28-.46 19.439 19.439 0 0 1 5.64-2 12.862 12.862 0 0 1 3.16.18 10.361 10.361 0 0 1 2.9 1.1.462.462 0 1 1-.34.86z"/><circle cx="52.18" cy="48.02" r="1.42"/><circle cx="70.1" cy="48.02" r="1.42"/></g><g fill="none" class="E"><path stroke="#674848" stroke-width="1.5" d="M56.5 57.36A5.281 5.281 0 0 1 59 58a5.16 5.16 0 0 0 5 0 5.281 5.281 0 0 1 2.5-.64" class="B"/><path d="M87.02,84.44c0-6.92,3.66-10.48,5.54-14.2a18.38,18.38,0,0,0-1.38-20.7c-6.7-9-10.9-14-14-14-2.6-.2-6.74.78-8-2-1.72-3.8-3.1-4-4-4H56.92c-.9,0-2.28.2-4,4-1.24,2.78-5.48,1.8-8,2-3.1,0-7.3,5-14,14a18.36,18.36,0,0,0-1.38,20.72c1.7,3.38,5.54,7.22,5.54,14.2" class="C D"/></g></svg>