<svg xmlns="http://www.w3.org/2000/svg" viewBox="0 0 128 128"><style>.B{fill:#333}.C{fill:#444649}.D{fill:#ddb9b3}.E{fill:#d1d8db}.F{fill:#e5c2ba}.G{fill:#383838}.H{fill:#343433}.I{fill:#6e4847}</style><path fill="#d1afaa" d="M122.674 91.79a12.7 12.7 0 0 0-9.38-9.84c-4.78-1.2-29.12-5.82-29.12-5.82V64.97h-29.86v11.16l-29.2 5.82a12.7 12.7 0 0 0-9.38 9.84l-.62 4.22.22.12a135.221 135.221 0 0 0 54 11.14 135.201 135.201 0 0 0 54-11.14l.22-.12z"/><path d="M86.034 76.35l27.08 5.6a12.7 12.7 0 0 1 9.38 9.84l.62 4.22c-2.26 1.38-22.96 10.36-49.18 11.16 10.72-10.8 11.96-27.12 12.1-30.82z" class="C"/><path d="M85.474 82.05a137.982 137.982 0 0 1 17.78 3.2l9.86 2.44a12.7 12.7 0 0 1 9.1 8.78 131.26 131.26 0 0 1-48.26 10.64c7.7-7.7 10.5-18.34 11.52-25.06z" class="G"/><path d="M52.454 76.35l-27.02 5.6a12.7 12.7 0 0 0-9.38 9.84l-.7 4.22c2.26 1.38 22.96 10.36 49.18 11.16-10.7-10.8-11.94-27.12-12.08-30.82z" class="C"/><path d="M53.114 82.05a137.982 137.982 0 0 0-17.78 3.2l-9.8 2.44a12.7 12.7 0 0 0-9.1 8.78 131.261 131.261 0 0 0 48.1 10.64c-7.7-7.7-10.5-18.34-11.42-25.06z" class="G"/><path d="M28.004 81.2h2.1v19.92h-2.1z" class="C"/><path d="M30.084 80.77h2.1v20.96h-2.1zm78.32.43h2.1v19.92h-2.1z" class="G"/><path d="M106.304 80.77h2.1v20.96h-2.1z" class="C"/><path d="M50.334 44.69a41.171 41.171 0 0 1 0-4.16 9.385 9.385 0 0 1 .16-2.1 18.628 18.628 0 0 1 .38-2.14l.1.98a17 17 0 0 1-2.86-7.3 14.719 14.719 0 0 1 1.2-8l3.38 1.72a11.32 11.32 0 0 0-1.54 6 14.379 14.379 0 0 0 1.8 6.34v.12a1.02 1.02 0 0 1 .16.96 17.408 17.408 0 0 0-.56 1.8q-.24.96-.42 2a36.915 36.915 0 0 0-.5 4z" class="H"/><path fill="#edccc3" d="M90.314 35.55v-6.24c0-12.46-6-21.04-21.1-21.04s-21.1 8.58-21.1 21.04v6.24c-7.12 0-2.5 19 2.1 19.7v2a8.52 8.52 0 0 0 2.1 5.7l8.54 9.86a8.54 8.54 0 0 0 6.5 2.98h3.76a8.56 8.56 0 0 0 6.5-2.98l8.54-9.86a8.62 8.62 0 0 0 2.08-5.84v-2c5.4-1.3 8.88-19.56 2.08-19.56z"/><g class="F"><path d="M53.974 48.59c-3.86-3.52-3.68-5.02-3.68-6.6v-1.42l2.66-2.66a3.28 3.28 0 0 0 .98-2.36V13.23c-4 3.72-5.82 9.32-5.82 16v6.24c-7.12 0-2.5 19 2.1 19.7v2a8.52 8.52 0 0 0 2.1 5.7l4 4.56V52.97a4.94 4.94 0 0 0-2.34-4.38z"/><path d="M90.234 21.11c-1.56-2.14-3.8 0-4 0-.64.42-2.96-1.24-6.56-2.14a17.999 17.999 0 0 0-10.36.46 16.976 16.976 0 0 0-4.68-1.02c-5.48-.56-9.48 2.26-12 3.34-1.88-2-4-1.46-4.6 0a14 14 0 0 0 1.44 14.2l.84 7.36a2.26 2.26 0 0 0 2-1.6 23.358 23.358 0 0 1 1.34-6 1.48 1.48 0 0 0 0-1.26c-.78-1.74-2.74-3.76-1.86-7.86 2.76.74 5.12-1.04 8.28-1.82a12 12 0 0 1 7.68.52 3.64 3.64 0 0 0 2.68.22 13.38 13.38 0 0 1 7.86-1.04c3.18.6 6.24 2 9.14 1.44 1.14 4-.32 6.52-1.46 9.08a1.28 1.28 0 0 0 0 1.36 19.781 19.781 0 0 1 1.14 5.76 1.36 1.36 0 0 0 1.32 1.18l.68-7.48c4-5.76 2.94-12.24 1.12-14.7zm-37.54.76s.06.04 0-.04z"/><path d="M90.314 35.55v-6.24c0-12.46-6-21.04-21.1-21.04a31.202 31.202 0 0 0-6.2.6l.18 24.48c0 4-4 4.18-4 6.18h7.72a2.42 2.42 0 0 1 3.26-.12v13.3a2 2 0 0 1-1.06.4c-1.48 0-2-1.16-4-1.16-1.68 0-2.16 1.9-1.84 1.9 2.14-1.32 3.22 1.18 5.86 1.22v8.56a1.02 1.02 0 0 0 1 1 3 3 0 0 1 0 6h-3.02a4 4 0 0 0-4 3.42v.58a8.621 8.621 0 0 0 4.22 1.16h3.78a8.56 8.56 0 0 0 6.5-2.98l8.54-9.86a8.62 8.62 0 0 0 2.08-5.84v-2c5.4-1.3 8.88-19.56 2.08-19.56z"/></g><path d="M91.114 30.05a24.12 24.12 0 0 0-1.9-10 4.54 4.54 0 0 0-2.32.92c-.64.42-2.96-1.24-6.56-2.14a17.999 17.999 0 0 0-10.36.46 16.976 16.976 0 0 0-4.68-1.02h-2.14v6a17.08 17.08 0 0 1 4.9.9 3.3 3.3 0 0 0 2.42 0 13.379 13.379 0 0 1 7.86-1.08c3.18.6 5.38 2.42 9.3 1.72 1.16 4-.32 6.52-1.46 9.08a1.34 1.34 0 0 0 0 1.36 19.261 19.261 0 0 1 1.34 5.76 1.36 1.36 0 0 0 1.32 1.18l.92-7.44a16.728 16.728 0 0 0 1.36-2.18z" class="D"/><path fill="#e9c7be" d="M54.854 49.51a6 6 0 0 0 6.1 1.2.56.56 0 0 1 .56.94 15.86 15.86 0 0 0-5.34 10.8z"/><path fill="#e1bdb6" d="M83.634 49.51a6 6 0 0 1-6 1.2.56.56 0 0 0-.56.94 15.86 15.86 0 0 1 5.34 10.8z"/><path d="M82.194 52.95v14.44l4-4.56a8.52 8.52 0 0 0 2.04-5.72v-1.9c4.62-.7 9.22-19.7 2.1-19.7v-6.22c0-6.76-1.78-12.36-5.8-16v22.24a3.28 3.28 0 0 0 .98 2.36l2.66 2.66v1.42c0 1.58.16 3.08-3.68 6.6a4.94 4.94 0 0 0-2.3 4.38z" class="D"/><path fill="#d1afaa" d="M90.254 35.55c7.12 0 2.52 19-3.64 21.76l.5-11.8c1.84-2.26.52-8.4 3.14-9.96z"/><path d="M70.094 61.11h-7.6l1.52 3.48a2.16 2.16 0 0 0 2.38 1.3 20.299 20.299 0 0 1 7.4 0 2.16 2.16 0 0 0 2.38-1.3l1.52-3.48z" class="F"/><path fill="#d8b3ad" d="M71.274 57.65c-.68 0-1.3.42-2 .44s-.5-.22-1.72-.44c-2.18-.4-4.44 2.2-6 2.62l2.3 2a5.88 5.88 0 0 0 3.76 1.5h2.56a8.16 8.16 0 0 0 4.62-1.5l2.18-2c-3.16-1.16-3.16-2.98-5.7-2.62z"/><path fill="#af8582" d="M76.274 61.39a7.12 7.12 0 0 1-1.84-.12 14.306 14.306 0 0 0-1.68-.38 13.355 13.355 0 0 0-3.28.34h-.24a8.481 8.481 0 0 1-1.72-.24 4.658 4.658 0 0 0-1.66 0 14.323 14.323 0 0 1-3.64.4.24.24 0 0 1-.223-.256l.003-.024a.24.24 0 0 1 .24-.24 19.231 19.231 0 0 0 3.46-.82 4.818 4.818 0 0 1 2-.12 14.637 14.637 0 0 1 1.88.24h-.24c.6 0 1.22-.14 1.82-.2a5.321 5.321 0 0 1 1.86 0 20.006 20.006 0 0 0 3.36.88.26.26 0 0 1 .261.259l-.001.02a.28.28 0 0 1-.288.272.286.286 0 0 1-.072-.012z"/><path d="M48.114 35.55c-7.12 0-2.5 19 3.66 21.76l-.56-11.8c-1.78-2.26-.48-8.4-3.1-9.96z" class="D"/><path d="M71.124 77.3h-3.742a10.048 10.048 0 0 1-7.625-3.501l-8.536-9.857a10.002 10.002 0 0 1-2.466-6.7v-.958c-3.72-2.133-6.144-10.67-5.748-15.937.31-4.106 2.13-5.562 3.647-6.053V29.31c0-14.535 8.026-22.54 22.6-22.54 14.56 0 22.58 8.005 22.58 22.54v4.974c1.517.5 3.34 1.946 3.644 6.058.4 5.273-2.07 13.816-5.825 15.938v.97a9.984 9.984 0 0 1-2.353 6.666l-8.554 9.877a10.047 10.047 0 0 1-7.623 3.497zm-3.732-3h3.73a7.054 7.054 0 0 0 5.355-2.457l8.543-9.865a7.004 7.004 0 0 0 1.634-4.681V55.25a1.5 1.5 0 0 1 1.279-1.483c1.808-.27 4.966-7.628 4.554-13.203-.172-2.33-.897-3.513-2.153-3.513a1.5 1.5 0 0 1-1.5-1.5v-6.24c0-12.966-6.588-19.54-19.58-19.54-13.006 0-19.6 6.574-19.6 19.54v6.24a1.5 1.5 0 0 1-1.5 1.5c-1.255 0-1.98 1.182-2.156 3.512-.42 5.573 2.692 12.934 4.48 13.204a1.5 1.5 0 0 1 1.276 1.483v2a7.02 7.02 0 0 0 1.73 4.714l8.543 9.864a7.054 7.054 0 0 0 5.356 2.462z" class="B"/><g class="H"><path d="M88.174 11.65c-4.56-4.84-12.3-8.84-18.94-5.02-6.66-3.82-14.4.18-18.96 5.02-10.14 10.78-2 15.42-2 24 2 1.82 2 4.84 2 7.62a27.398 27.398 0 0 1 1-8c-3.64-6-2.24-9.72-.98-12.36 3.14 5.58 7.28-5.12 18.94 0 10.98-4.82 15.84 4.16 19.04-.14 1.32 2.34 2.66 6.34-1.16 12.34a20.481 20.481 0 0 1 1.1 8c0-5.06 0-5.76 2.1-7.62.06-8.38 8-13.06-2.14-23.84z"/><path d="M90.494 20.4a14.94 14.94 0 0 1 1.22 8 16.84 16.84 0 0 1-2.88 7.3v-1.1a10.526 10.526 0 0 1 .52 2.24l.2 2.12a36.038 36.038 0 0 1 0 4.16h-1.22a36.945 36.945 0 0 0-.48-4l-.44-1.9a7.843 7.843 0 0 0-.62-1.66 1 1 0 0 1 0-.98v-.14a14 14 0 0 0 1.8-6.32 11.441 11.441 0 0 0-1.52-6zm-21.24 39.42a8.761 8.761 0 0 1-3.78.9h-4a1.06 1.06 0 0 0-1.02.74l-.5 1.52h-.52v-2.86a3 3 0 0 1 1.88-2.72l3.58-1.46a11.48 11.48 0 0 1 8.62 0l3.58 1.46a3 3 0 0 1 2.02 2.72V63h-.52l-.5-1.52a1.06 1.06 0 0 0-1.02-.74h-3.96a8.601 8.601 0 0 1-3.86-.9z"/><path d="M87.414 43.11v-4.24a5.999 5.999 0 0 1 .68-2.42 8.557 8.557 0 0 1 1.56-1.84l-.4.88c-.16-4.34 2-8.16 2.52-11.6a11.52 11.52 0 0 0-3.3-9.52 21.8 21.8 0 0 0-8.58-6.48 10.94 10.94 0 0 0-9.68.34 1.86 1.86 0 0 1-1.88 0 10.98 10.98 0 0 0-9.64-.26 21.499 21.499 0 0 0-8.58 6.44 11.3 11.3 0 0 0-3.28 9.48c.58 3.44 2.72 7.26 2.58 11.6l-.4-.88a6.881 6.881 0 0 1 2 4.24 23.62 23.62 0 0 1 .1 4.26.88.88 0 0 1-1.74 0 21.593 21.593 0 0 0-.4-3.88 4.88 4.88 0 0 0-1.6-2.84 1.14 1.14 0 0 1-.42-.82 16.922 16.922 0 0 0-1.14-5.32 45.988 45.988 0 0 1-1.88-5.74 12.3 12.3 0 0 1 .34-6.58 19.118 19.118 0 0 1 3.12-5.56 25.499 25.499 0 0 1 9.78-7.78 16.158 16.158 0 0 1 6.44-1.36 12.919 12.919 0 0 1 6.52 1.76h-2a12.92 12.92 0 0 1 6.54-1.7 16.479 16.479 0 0 1 6.4 1.38 25.3 25.3 0 0 1 9.76 7.74 18.319 18.319 0 0 1 3.16 5.52 12.361 12.361 0 0 1 .4 6.54 44.348 44.348 0 0 1-1.84 5.76 17.758 17.758 0 0 0-1.14 5.34 1.14 1.14 0 0 1-.4.8 6.537 6.537 0 0 0-1.24 1.22 3.779 3.779 0 0 0-.52 1.5c-.18 1.24-.2 2.66-.26 4a.84.84 0 0 1-.859.821l-.02-.001a.88.88 0 0 1-.7-.8z"/></g><path fill="#b58985" d="M69.254 55.66a5.09 5.09 0 0 1-2.764-.903c-.818-.485-1.27-.754-2.262-.29a.791.791 0 1 1-.669-1.434 3.513 3.513 0 0 1 3.74.365 3.565 3.565 0 0 0 1.955.681 3.49 3.49 0 0 0 1.938-.68 3.5 3.5 0 0 1 3.734-.367.791.791 0 1 1-.664 1.436 1.963 1.963 0 0 0-2.255.288 5.02 5.02 0 0 1-2.753.905z"/><g fill="#444"><path d="M70.254 21.11V8.15a.84.84 0 0 1 .3-.68 6.779 6.779 0 0 1 4-1.84 19.998 19.998 0 0 0-2 3.32.94.94 0 0 0 .49 1.236l.01.004a.642.642 0 0 0 .28 0 7.118 7.118 0 0 1 2.36.62 8.519 8.519 0 0 0-3.22 3.14.44.44 0 0 0-.018.622l.018.018a.341.341 0 0 0 .24 0 5.16 5.16 0 0 1 2.54.92 4.78 4.78 0 0 0-2.98 2.58 5.4 5.4 0 0 1 3.88 2.3 18.195 18.195 0 0 0-4.7 1.28.86.86 0 0 1-1.125-.462l-.015-.038a.809.809 0 0 1-.06-.06z"/><path fill-rule="evenodd" d="M53.574 13.23a22.54 22.54 0 0 1 11.26-6c-5.52-1.56-9.44 1.64-12.2 4.8-3.34 3.78-7.66 9.18-4.12 13.46-.52-4.2.84-7.76 5.06-12.26z"/></g><path d="M69.474 107.27h4.46c12.16-12.22 12.12-31.58 12.12-31.58l-16.8 14.28-16.82-14.28s0 19.34 12.1 31.56c1.62-.02 3.28.02 4.94.02z" class="E"/><path d="M73.934 108.77h-4.46c-.675 0-1.35-.007-2.022-.013l-2.9-.008a1.451 1.451 0 0 1-1.084-.444C51.076 95.79 50.934 76.505 50.934 75.7a1.5 1.5 0 0 1 2.471-1.144l15.85 13.456 15.83-13.455a1.5 1.5 0 0 1 2.472 1.14c.001.815-.102 20.125-12.557 32.64a1.501 1.501 0 0 1-1.064.442zm-8.444-3.025l3.984.025H73.3c8.215-8.592 10.433-20.773 11.032-26.648l-14.107 11.99a1.498 1.498 0 0 1-1.942.001l-14.123-12c.608 5.872 2.837 18.033 11.003 26.62z" class="B"/><path d="M69.114 107.27l5-.12-3.54-8.9h-3.08l-3.02 8.86 4.64.16z" class="I"/><path d="M69.114 108.414c-1.858 0-3.317-.05-4.73-.163a1.144 1.144 0 0 1-.991-1.51l3.02-8.86a1.144 1.144 0 0 1 1.083-.775h3.08a1.143 1.143 0 0 1 1.063.721l3.54 8.9a1.144 1.144 0 0 1-.98 1.564l-5.083.123zm-3.075-2.35l3.075.063 3.348-.036-2.663-6.697h-1.486zM90.514 18.8a19.084 19.084 0 0 1-.84 3.12 5.361 5.361 0 0 1-2.4 3.02 3.88 3.88 0 0 1-2.18.32 8.663 8.663 0 0 1-1.78-.4l-2.92-.98a13.378 13.378 0 0 0-5.4-.78 15.398 15.398 0 0 0-5.22 1.42 2 2 0 0 1-1.48 0 17.278 17.278 0 0 0-5.02-1.32 12 12 0 0 0-5.1.8c-.86.3-1.72.7-2.66 1.1a7.341 7.341 0 0 1-3.52.86 3.36 3.36 0 0 1-2-1 5.341 5.341 0 0 1-1.02-1.56 18.718 18.718 0 0 1-.92-3.04.9.9 0 0 1 .66-1.04.86.86 0 0 1 1 .54 15.242 15.242 0 0 0 1.18 2.5 3.121 3.121 0 0 0 .72.84.82.82 0 0 0 .58.2 6.682 6.682 0 0 0 2.1-.9l2.7-1.44a14.72 14.72 0 0 1 6.42-1.52 15.499 15.499 0 0 1 6.44 1.46h-1.52a16.88 16.88 0 0 1 6.62-1.42 16.438 16.438 0 0 1 6.6 1.38l2.8 1.24a3 3 0 0 0 2 .4c.44 0 1.02-.76 1.44-1.58a25.091 25.091 0 0 0 1.14-2.68.864.864 0 1 1 1.66.48z" class="B"/><path d="M90.154 20.6a14.5 14.5 0 0 1 1.2 7.82 16.681 16.681 0 0 1-2.78 7.16v-.82a11.166 11.166 0 0 1 .54 2.18c.12.7.18 1.38.24 2a35.827 35.827 0 0 1 0 4.14.5.5 0 0 1-.98 0 37.256 37.256 0 0 0-.38-4l-.4-2a10.361 10.361 0 0 0-.6-1.74l-.1-.24.22-.44a14.282 14.282 0 0 0 2-6.46 11.7 11.7 0 0 0-1.54-6.26 1.51 1.51 0 1 1 2.62-1.5v.12zm-39.7 22.5a35.438 35.438 0 0 1 0-4.12 12.543 12.543 0 0 1 .2-2l.4-2.1v.72a16.779 16.779 0 0 1-2.76-7 14.34 14.34 0 0 1 1.04-7.68 1.52 1.52 0 0 1 2-.78 1.5 1.5 0 0 1 .795 1.967l-.015.033v.12a11.839 11.839 0 0 0-1.4 6.16 14.46 14.46 0 0 0 1.88 6.32l.2.38-.12.34a16.438 16.438 0 0 0-.52 1.84 19.702 19.702 0 0 0-.38 2 32.357 32.357 0 0 0-.4 4 .5.5 0 0 1-.98 0z" class="H"/><path d="M69.36 108.77a137.132 137.132 0 0 1-54.602-11.384 1.5 1.5 0 0 1-.883-1.621l.7-4.22a13.858 13.858 0 0 1 10.522-11.057l18.333-3.807.6 2.938-18.3 3.8a10.84 10.84 0 0 0-8.209 8.639l-.503 3.038a134.098 134.098 0 0 0 52.331 10.675 134.094 134.094 0 0 0 52.084-10.675l-.508-3.06a10.852 10.852 0 0 0-8.168-8.626l-18.257-3.8.6-2.937 18.3 3.8a13.872 13.872 0 0 1 10.471 11.043l.704 4.24a1.5 1.5 0 0 1-.883 1.621 137.095 137.095 0 0 1-54.351 11.384z" class="B"/><path d="M60.994 77.27a31.639 31.639 0 0 1-8-9.02.22.22 0 0 0-.42 0v7.78s2.54 10.28 16.68 12.84z" class="E"/><path d="M69.254 90.37a1.463 1.463 0 0 1-.268-.024C54.062 87.645 51.23 76.85 51.118 76.4a1.483 1.483 0 0 1-.044-.359v-7.78a1.515 1.515 0 0 1 .069-.45 1.721 1.721 0 0 1 3.188-.235 29.983 29.983 0 0 0 7.575 8.515 1.509 1.509 0 0 1 .309.321l8.26 11.6a1.5 1.5 0 0 1-1.221 2.37zm-15.18-14.545c.337 1.12 2.642 7.585 11.59 10.59L59.9 78.322a32.96 32.96 0 0 1-5.827-5.82z" class="B"/><path d="M77.494 77.27a31.642 31.642 0 0 0 8-9.02.22.22 0 0 1 .42 0v7.78s-2.52 10.18-16.66 12.74z" class="E"/><path d="M69.253 90.27a1.5 1.5 0 0 1-1.219-2.374l8.24-11.5a1.53 1.53 0 0 1 .307-.317 29.983 29.983 0 0 0 7.575-8.515 1.721 1.721 0 0 1 3.189.235 1.515 1.515 0 0 1 .069.45v7.78a1.497 1.497 0 0 1-.044.36c-.112.454-2.925 11.154-17.85 13.856a1.463 1.463 0 0 1-.268.025zm9.33-11.947l-5.72 7.983c8.882-2.995 11.217-9.417 11.55-10.484v-3.32a32.952 32.952 0 0 1-5.829 5.821z" class="B"/><path d="M52.494 75.57a74.677 74.677 0 0 0 .92 8.38l15.84 8.76 15.86-8.42a68.001 68.001 0 0 0 .96-8.24l-16.74 13.82z" class="I"/><path d="M69.254 93.904a1.188 1.188 0 0 1-.577-.149l-15.84-8.76a1.192 1.192 0 0 1-.6-.847 76.444 76.444 0 0 1-.935-8.514 1.193 1.193 0 0 1 1.963-.973l16.08 13.653 15.97-13.184a1.193 1.193 0 0 1 1.95.985 69.385 69.385 0 0 1-.977 8.384 1.194 1.194 0 0 1-.615.844l-15.86 8.42a1.195 1.195 0 0 1-.559.14zM54.498 83.187l14.768 8.168L84.04 83.5l.633-4.755L70.093 90.8a1.187 1.187 0 0 1-1.531-.011L53.89 78.32l.61 4.867z" class="B"/><path d="M63.614 88.87l3.48 10.24h4.34l3.44-10.24h-11.26z" class="I"/><path d="M71.434 100.254h-4.34a1.144 1.144 0 0 1-1.083-.775l-3.48-10.24a1.144 1.144 0 0 1 1.083-1.512h11.26a1.144 1.144 0 0 1 1.084 1.508l-3.44 10.24a1.144 1.144 0 0 1-1.084.779zm-3.52-2.287h2.698l2.67-7.953H65.2z" class="B"/><path d="M60.994 77.27l-.08 11.6h8.32l-8.24-11.6z" class="E"/><path d="M69.234 90.397h-8.32a1.527 1.527 0 0 1-1.526-1.537l.08-11.6a1.526 1.526 0 0 1 2.771-.873l8.24 11.6a1.526 1.526 0 0 1-1.245 2.41zm-6.783-3.053h3.826l-3.8-5.335z" class="B"/><path d="M77.494 77.27l.08 11.6h-8.34l8.26-11.6z" class="E"/><path d="M77.574 90.397h-8.34a1.527 1.527 0 0 1-1.244-2.412l8.26-11.6a1.527 1.527 0 0 1 2.77.875l.08 11.6a1.527 1.527 0 0 1-1.526 1.537zm-5.38-3.053h3.842L76 82zM53.634 41.1l1.9-1.48a9.356 9.356 0 0 1 1.04-.76 3.04 3.04 0 0 1 1.38-.38h6.88a1 1 0 0 1 1 1 1.02 1.02 0 0 1-1.02 1h-.12l-6.82-.94a1.998 1.998 0 0 0-.94.16 7.647 7.647 0 0 0-.96.58l-2 1.28a.3.3 0 0 1-.419-.067.296.296 0 0 1-.021-.033.32.32 0 0 1 .1-.36zm30.86.52l-2-1.28a7.654 7.654 0 0 0-.96-.58 1.999 1.999 0 0 0-.94-.16l-6.82.94a1.02 1.02 0 0 1-1.12-.86 1 1 0 0 1 .841-1.137l.02-.003h7a3.04 3.04 0 0 1 1.38.38 9.356 9.356 0 0 1 1.04.76l1.9 1.48a.32.32 0 0 1 0 .44.3.3 0 0 1-.34.02zm-24.32.04a1.5 1.5 0 1 0 1.5 1.5 1.52 1.52 0 0 0-1.5-1.5" class="B"/><path d="M54.794 43.11a4.44 4.44 0 0 0 2.5-1.28 5.099 5.099 0 0 1 2.94-.94 5.8 5.8 0 0 1 3 .9 9.659 9.659 0 0 1 2.32 2.1.5.5 0 0 1 0 .7.48.48 0 0 1-.678.022l-.02-.022a6.28 6.28 0 0 0-4.5-2.9 4.459 4.459 0 0 0-2.66.68 4.74 4.74 0 0 1-2.78 1.18.16.16 0 0 1-.16-.16c-.1-.28-.04-.28.04-.28z" class="F"/><path d="M54.794 42.75c1.08.1 2.28-.7 3.6-.94a9.22 9.22 0 0 1 4 .2 8.579 8.579 0 0 0-3.78.3 10.131 10.131 0 0 0-1.72.78 4.741 4.741 0 0 1-2 .66.5.5 0 0 1-.52-.46.52.52 0 0 1 .46-.54z" class="B"/><path d="M61.794 45.43h-3.24a.5.5 0 1 1 0-1h3.24a.5.5 0 1 1 0 1z" class="F"/><path d="M78.314 41.67a1.5 1.5 0 1 1-1.5 1.5 1.52 1.52 0 0 1 1.5-1.5" class="B"/><path d="M83.694 43.41a4.74 4.74 0 0 1-2.78-1.18 4.459 4.459 0 0 0-2.66-.68 6.28 6.28 0 0 0-4.5 2.9.502.502 0 1 1-.82-.58 9.655 9.655 0 0 1 2.32-2.1 5.799 5.799 0 0 1 3-.9 5.1 5.1 0 0 1 2.94.94 4.44 4.44 0 0 0 2.5 1.28.18.18 0 0 1 .16.16.16.16 0 0 1-.16.16z" class="D"/><path d="M83.694 43.75a4.74 4.74 0 0 1-2-.66 10.135 10.135 0 0 0-1.72-.78 8.579 8.579 0 0 0-3.78-.3 9.22 9.22 0 0 1 4-.2c1.32.24 2.52 1.04 3.6.94a.5.5 0 0 1 0 1h-.1z" class="B"/><path d="M79.934 45.43h-3.24a.5.5 0 0 1 0-1h3.24a.5.5 0 0 1 0 1z" class="D"/><path d="M42.134 83.99c.86 6.76 7.6 16.9 13.72 22.54 4.78.5 8.26.62 8.68.62-12-13.38-12.14-34.6-12.16-35.52l-10.86 4.88 4.52 3.34z" class="C"/><path d="M64.534 108.65c-.44 0-3.937-.116-8.836-.628a1.507 1.507 0 0 1-.86-.389c-6.24-5.752-13.256-16.096-14.192-23.453a1.498 1.498 0 0 1 .396-1.218l2.74-2.91-3.16-2.336a1.5 1.5 0 0 1 .277-2.574l10.86-4.88a1.499 1.499 0 0 1 2.114 1.336c.064 3.712.924 22.45 11.777 34.55a1.5 1.5 0 0 1-1.117 2.502zM56.5 105.1a139.46 139.46 0 0 0 4.732.397C53.03 94.44 51.315 79.95 50.96 73.9l-6.494 2.918 2.458 1.816a1.499 1.499 0 0 1 .2 2.234l-3.397 3.607c1.148 6.25 7.325 15.428 12.782 20.605z" class="B"/><path d="M96.354 83.99c-.86 6.76-7.62 16.92-13.74 22.56-2.8.3-5.7.5-8.68.62 12-13.38 12.14-34.62 12.16-35.54l10.86 4.88-4.52 3.34z" class="C"/><g class="B"><path d="M73.933 108.67a1.5 1.5 0 0 1-1.116-2.502c10.853-12.1 11.713-30.854 11.776-34.5a1.565 1.565 0 0 1 .696-1.278 1.506 1.506 0 0 1 1.419-.138l10.86 4.88a1.5 1.5 0 0 1 .277 2.574l-3.157 2.334 2.755 2.9a1.497 1.497 0 0 1 .399 1.221c-.924 7.26-8.096 17.838-14.212 23.473a1.496 1.496 0 0 1-.857.389c-2.718.3-5.672.502-8.78.628-.02.001-.04.001-.06.001zm13.57-34.762c-.36 6.108-2.085 20.567-10.273 31.6a119.96 119.96 0 0 0 4.726-.388c5.465-5.184 11.652-14.37 12.802-20.624l-3.414-3.605a1.5 1.5 0 0 1 .197-2.237L94 76.828zm-34.69-8.938h3v5.34h-3z"/><path d="M82.674 64.97h3v5.34h-3z"/></g></svg>