<svg xmlns="http://www.w3.org/2000/svg" xmlns:xlink="http://www.w3.org/1999/xlink" width="600" height="600" viewBox="0 0 200 200" overflow="hidden!important"><style><![CDATA[.B{fill:#d9b8af}.C{fill:#ab6957}.D{fill:#ddbc9b}.E{stroke:#ab6957}.F{stroke-width:1.5}]]></style><defs><radialGradient id="A" cx="100" cy="114" r="41" xlink:href="#N"><stop stop-opacity=".5" stop-color="#e8d7d3" offset="0"/><stop stop-opacity="0" stop-color="#d9b8af" offset=".9"/></radialGradient><radialGradient id="B" cx="100" cy="54" r="37" xlink:href="#N"><stop stop-opacity=".5" stop-color="#e8d7d3" offset="0"/><stop stop-opacity="0" stop-color="#d9b8af" offset=".9"/></radialGradient><radialGradient id="C" cx="73.488" cy="85.375" r="10.708" xlink:href="#N"><stop stop-color="#fff" offset="0"/><stop stop-color="#fdfefe" offset=".544"/><stop stop-color="#f6f8f9" offset=".74"/><stop stop-color="#eaeff2" offset=".879"/><stop stop-color="#d9e3e8" offset=".992"/><stop stop-color="#d8e2e7" offset="1"/></radialGradient><radialGradient id="D" cx="73.888" cy="85.375" r="10.708" gradientTransform="matrix(-1 0 0 1 200 0)" xlink:href="#N"><stop stop-color="#fff" offset="0"/><stop stop-color="#fdfefe" offset=".544"/><stop stop-color="#f6f8f9" offset=".74"/><stop stop-color="#eaeff2" offset=".879"/><stop stop-color="#d9e3e8" offset=".992"/><stop stop-color="#d8e2e7" offset="1"/></radialGradient><radialGradient id="E" cx="123.727" cy="82.803" fx="133.913" fy="79.051" r="17.225" gradientTransform="matrix(0.9998 0.0208 0.0166 -0.7998 -48.8047 146.4561)" xlink:href="#N"><stop stop-color="#ca9b8e" offset="0"/><stop stop-opacity=".3" stop-color="#ca9b8e" offset=".7"/><stop stop-opacity="0" stop-color="#d9b8af" offset="1"/></radialGradient><radialGradient id="F" cx="71.717" cy="117.05" r="39.091" gradientTransform="matrix(0.0542 -0.9985 0.7911 0.043 -24.769 183.6334)" xlink:href="#N"><stop stop-opacity="0" offset=".95"/><stop stop-opacity=".2" offset="1"/></radialGradient><radialGradient id="G" cx="123.328" cy="82.803" fx="133.514" fy="79.051" r="17.225" gradientTransform="matrix(-0.9998 0.0208 -0.0166 -0.7998 248.0079 146.4644)" xlink:href="#N"><stop stop-color="#ca9b8e" offset="0"/><stop stop-opacity=".3" stop-color="#ca9b8e" offset=".7"/><stop stop-opacity="0" stop-color="#d9b8af" offset="1"/></radialGradient><radialGradient id="H" cx="72.116" cy="117.05" r="39.092" gradientTransform="matrix(-0.0542 -0.9985 -0.7911 0.043 224.3918 184.0318)" xlink:href="#N"><stop stop-opacity="0" offset=".95"/><stop stop-opacity=".2" offset="1"/></radialGradient><linearGradient id="I" x1="130" y1="77" x2="130" y2="98" xlink:href="#N"><stop stop-color="#26120b" offset="0"/><stop stop-opacity=".5" stop-color="#26120b" offset="1"/></linearGradient><linearGradient id="J" x1="70" y1="77" x2="70" y2="98" xlink:href="#N"><stop stop-color="#26120b" offset="0"/><stop stop-opacity=".5" stop-color="#26120b" offset="1"/></linearGradient><linearGradient id="K" x1="100" y1="171" x2="100" y2="128" xlink:href="#N"><stop stop-opacity=".8" stop-color="#ca9b8e" offset="0"/><stop stop-color="#ab6957" offset=".7"/></linearGradient><path id="L" d="M195.417 199.778c-2.196-4.746-8.195-11.78-14.86-13.722-8.24-2.403-26.837-5.308-33.733-6.923-5.528-1.296-16.662-11.294-20.564-14.65-.7-.6-1.273-1.84-1.287-2.76-.14-10.864 4.195-39.724 4.195-39.724H70.833s4.334 28.86 4.193 39.724c-.01.92-.587 2.16-1.285 2.76-3.902 3.356-15.036 13.354-20.564 14.65-6.897 1.615-25.495 4.62-33.733 7.022-6.667 1.942-12.664 8.876-14.86 13.622-3.708 8.008-4.584 22.5-4.584 35h200c0-12.5-.877-26.99-4.583-35z"/><path id="M" d="M144.004 126.306c-6.87 10.846-23.072 30.33-34.468 34.563-4.474 1.663-14.594 1.663-19.067 0-11.396-4.235-27.596-23.72-34.467-34.563C49.25 115.65 41.15 78.02 41.14 77.965c-1.3-4.96-1.996-10.168-2.004-15.538C39.082 28.614 66.29 1.17 99.907 1.116s60.913 27.306 60.963 61.12a61.64 61.64 0 0 1-1.952 15.544c-.017.053-8.138 37.827-14.914 48.527z"/><linearGradient id="N" gradientUnits="userSpaceOnUse"/></defs><path d="M100.5 100.5h-1v-1h1v1z" class="D"/><use xlink:href="#L" class="B"/><path d="M159.156 184.058c24.342 3.542 34.586 8.708 37.794 50.72H200c0-12.5-.877-26.992-4.583-35-2.196-4.746-8.195-11.78-14.86-13.722-8.24-2.403-26.837-5.308-33.733-6.923-5.528-1.296-18.242-12.07-21.643-16.35 3.36 4.704 12.79 15.605 21.054 18.46 3.953 1.366 7.245 1.988 12.92 2.814zm-105.4-2.814c8.263-2.854 17.693-13.756 21.054-18.46-3.4 4.28-16.114 15.054-21.643 16.35-6.896 1.615-25.494 4.62-33.733 7.022-6.665 1.942-12.664 8.876-14.86 13.622-3.706 8.008-4.583 22.5-4.583 35h3.05c3.188-41.744 13.475-47.183 37.794-50.72 5.675-.825 8.968-1.447 12.92-2.813z" fill="#e8d7d3"/><path d="M95.646 197.62l-7.083-2.38c-10.45-4.01-44.395-6.607-44.395-6.607s35.754 1.42 43.644 2.78c-.458-4.767-3.017-20.004-3.017-20.004l6.41 21.057c.674 2.268 4.442 5.154 4.442 5.154zm10.8-1.342c-.09.073-.19.168-.302.268a2.27 2.27 0 0 0 .302-.268zm-10.8 1.342s2.893 2.992 4.347 3.03c1.9.05 4.828-2.9 6.15-4.104-1.265.957-4.16 1.39-5.3 1.436-1.33.05-5.188-.362-5.188-.362zm21.018-7.52c-1.545.248-4.386.79-4.386.79l2.287-14.9c-.646 3.07-4.474 16.21-8.12 20.278 1.9-1.616 6.158-2.39 8.324-2.704 10.236-1.484 10.232-1.483 41.062-4.94 0 0-29.07-.155-39.167 1.467z" fill="#ca9b8e"/><use xlink:href="#L" fill="none" class="E F"/><path d="M109.536 170.86c4.446-1.662 9.623-5.664 14.692-10.57.134-7.874 1.927-22.14 3.13-30.907-15.727-1.816-38.988-1.8-54.712.013 1.2 8.766 2.992 23.017 3.125 30.887 5.07 4.91 10.25 8.915 14.7 10.578 4.473 1.672 14.594 1.672 19.067-.001z" fill="url(#K)"/><path d="M-4.807 234.6c1.472-10.806-.208-11.777 4.116-33.015 1.228-7.384 2.66-13.32 8.14-10.607 4.045-6.008 15.513-6.566 57.34-20.658v-.258c.278-1 2.706-4.267 3.1-9.897.383-5.45 2.718-9.56 5.614-11.604-6.746 23.685 23.144 14.953 24.208 31.108.084 1.273-.974 10.15-.813 10.97 3.355-.68 6.72-.684 10.36-.645-3.928-15.24-.545-16.872 7.344-19.838 9.564-3.59 12.873-7.17 12-20.697 4.57 4.11 1.516 9.7 7.174 17.534 36.25 13.16 50.02 16.863 56.963 21.507 5.98-4.517 9.697 2.65 17.292 46.103-71.82.6-153.77.518-212.846-.002z" fill="#638e2f"/><path d="M92.12 197.235c.304-.03 3.375-5.505 3.375-5.505 5.764-2.145 18.375 2.005 34.02-10.176-11.52 18.056-32.37 5.183-37.394 15.68zm-22.004-17.857c8.754 10.018 23.63 13.732 26.773 10.686-.003.07-17.27-.668-26.773-10.686z" fill="#537f1d"/><path d="M73.607 149.423s.705 6.944.82 11.74c-2.1-4.68-2.53-5.93-.82-11.74z" fill="#446f0f"/><path d="M4.78 194.15c-4.78 13.752-5.18 28.594-8.08 40.462-.693-.006-.823.293-1.51.287 1.472-10.806-.208-12.355 4.116-33.593 1.228-7.384 2.66-13.32 8.14-10.607 4.045-6.008 15.513-6.566 57.34-20.658v-.258c.278-1 2.706-4.267 3.1-9.897.345-4.904 2.622-9.43 5.25-11.325-5.936 6.453-1.918 18.345-8.092 22.976-11.943 7.43-46.458 16.31-60.265 22.613zm185.966-5.65c-6.943-4.644-20.714-8.348-56.963-21.507-5.658-7.834-2.604-13.425-7.174-17.534.063 1-.018.613 0 1.5 2.16-.43 2.695 15.82 7.443 18.193 19 9 45.26 17.317 59.52 22.632 6.636 10.02 8.157 26.964 13.4 42.817h1.063c-7.594-43.452-11.31-50.62-17.29-46.102zm-64.755-26.034c-7.33 12.798-21.646 4.662-20.242 19.8 2.738-14.64 15.42-6.354 20.242-19.8zm-28.62 21.83C100 167.804 81.855 170.5 73.74 161c5.073 10.4 21.814 7.228 23.633 23.296z" fill="#759d44"/><path d="M196.14 187.915c-1.58-1.61-3.78-1.26-5.41-.03-7.133-4.756-26.235-9.496-56.63-21.61 0 0-2.29-2.963-3.47-8.017-.783-3.353-.308-7.087-4.192-9.838-.75 9.286-.41 16.736-9.5 20.304-8.96 3.582-14.7 3.744-10.32 20.76-2.3-.026-6.457-.018-9.318.563-.058-.295 1.027-8.77.918-10.412-1.014-15.376-28.515-9.625-24.93-27.55.33-1.65.454-2.542.187-3.8-3.67 1.92-5.337 6.074-5.847 9.5-.556 3.89.32 4.852-3.32 12.13 0 .01-.01.02-.01.03-.17.05-.35.1-.53.17-41.434 13.79-52.827 14.785-56.48 20.22-5.93-2.94-7.458 5.12-8.46 11.15-4.398 21.597-2.602 22.344-4.2 33.6h214.02c-.32-1.346-6.418-41.243-12.5-47.18zm-78.62-17.76c9.877-4.015 9.506-9.654 9.367-19.766 3.437 1.52.914 8.914 6.792 16.516 0 4.854-1.267 9.955-4.23 13.46-5.5 6.1-14.72 9.317-22.23 9.13-2.535-16.158.694-15.404 10.3-19.34zm-49.17-11.15c.062-2.714 2.16-8.263 4.9-10.1-8.723 23.076 22.427 15.49 23.73 31.92.027.457-.38 8.333-.4 8.84-16.104-1.896-23.674-5.555-31.64-19.19l.06-.12c2.538-5.057 3.008-6.205 3.34-11.35zm-72.94 75.45c1.436-5.18 1.375-14.908 4.04-28.63 1.58-7.847 1.63-17.345 7.48-15.03.02 0 .03.01.04.01 3.516 8.5 11.016 31.5 11.33 32.5.155.456 2.074 8.248 2.56 9.9-2.124-17-11.493-39.73-13-42.14 4.05-4.15 3.094-2.325 35.92-12.7 7.1-2.245 19.41-7.106 20.27-7.6 9.185 19.855 28.548 19.105 32.33 19.52-11.02 3.397-4.73 31.25-3.77 40.96-.163-7.896-3.465-29.3 1.25-36.84 0 0 .648-1.3 3.14-2.38 6.946-2.627 15.325 2.95 29.95-7.34 4.758-4.518 7.13-7.4 7.13-17.53 24.03 11.337 46.962 16.747 56.1 21.7-.013.08-.05.414-.05.42-1.544 13.248 1.243-1.17-4.4 28.69-1.47 8.54-.406 5.667-1.13 13.28 1.48-7.85-.067-3.756 2.12-13.12 4.586-19.338 3.858-22.946 4.16-29.4 3.326-2.396 5.107.213 6.4 3.96 4.836 14.695 7.982 34.133 10.1 41.76-65.83-.602-146.146-.57-211.98.01zm112.438-31.774c-3.24 1.26-7.306.944-10.905.433 6.225-.876 10.266-.47 10.905-.433z" fill="#366003"/><path d="M46.778 83.613c-2.623-1.48-8.575-8.52-11.138-7.517-1.655.646-2.377 5.504-2.638 7.47-.333 2.525-.93 7.71-.328 10.185.725 2.985 3.63 8.507 5.37 11.027 1.468 2.122 5.21 5.797 6.407 8.088.76 1.454 1.493 5.373 4.083 5.12 1.674-.164 5.537-3.072 5.744-4.452 1.128-7.477-2.335-27.006-7.5-29.92z" class="B E F"/><path d="M43.313 99.76c-.125-.556.006-1.49.133-2.395.115-.824.224-1.6.158-2.15-.25-2.06-1.66-5.975-2.578-8.097-1.06-2.44-2.77-5.515-4.92-6.307a1.52 1.52 0 0 0-1.813.461c-.248.292-.305.636-.223.676s.266-.244.535-.512c.22-.22.542-.407.983-.368-.178 1.026-1.09 6.582-.696 10.37.31 2.978 1.49 5.202 1.673 5.536A8.93 8.93 0 0 0 36.705 98c.87 4.347 4.648 9.3 5.963 10.908.243.298.496.476.56.404s-.087-.368-.33-.668c-1.298-1.61-5.042-6.533-5.88-10.728-.9-4.45 2.167-11.048 2.85-12.443.348.655.643 1.285.87 1.81.18.412.378.894.58 1.414-.402.73-3.21 6.042-2.187 10.295.38 1.568 2.088 3.59 3.223 4.143.624.306.86.76 1.13 1.288.314.613.673 1.307 1.708 1.8.21.1.402.144.57.144.293 0 .515-.126.68-.28.017.268.016.61.007.928-.01.41.04.747.13.756s.182-.318.192-.726c.016-.503.013-1.125-.067-1.422-.232-.877-.942-1.867-1.694-2.915-.74-1.03-1.506-2.098-1.697-2.956zm-6.775-3.855c-2.035-6.825 0-13.093.458-14.03.795.785 2.108 2.213 2.68 3.24-.417.823-3.052 6.2-3.137 10.8zm8.78 9.986c-.938-.456-1.253-1.067-1.557-1.657-.275-.535-.56-1.087-1.28-1.44a3.11 3.11 0 0 1-.505-.328c-2.324-5.988.254-8.606.9-9.142.2.73.346 1.403.41 1.94.06.495-.05 1.28-.156 2.04-.132.942-.268 1.916-.127 2.546.21.94 1 2.038 1.76 3.1.677.943 1.373 1.915 1.61 2.708-.1.158-.422.535-1.053.23z" class="C"/><path d="M152.96 83.613c2.623-1.48 8.574-8.52 11.137-7.517 1.656.646 2.38 5.504 2.64 7.47.334 2.525.928 7.71.328 10.185-.725 2.985-3.63 8.507-5.37 11.027-1.467 2.122-5.21 5.797-6.406 8.088-.76 1.454-1.492 5.373-4.084 5.12-1.674-.164-5.535-3.072-5.744-4.452-1.128-7.477 2.335-27.006 7.5-29.92z" class="B E F"/><path d="M154.73 102.716c-.752 1.047-1.463 2.038-1.695 2.915-.078.297-.082.92-.066 1.422.012.407.105.733.193.726s.14-.345.13-.756l.006-.928a.97.97 0 0 0 .68.281c.168 0 .36-.043.57-.144 1.035-.503 1.395-1.196 1.71-1.8.27-.527.506-.982 1.13-1.288 1.133-.554 2.842-2.575 3.223-4.143 1.023-4.253-1.785-9.566-2.188-10.295a39.18 39.18 0 0 1 .582-1.414c.225-.524.52-1.154.87-1.81.682 1.395 3.738 7.993 2.848 12.443-.838 4.195-4.582 9.118-5.88 10.728-.242.3-.393.594-.33.668s.318-.106.56-.404c1.314-1.618 5.094-6.56 5.963-10.908a8.96 8.96 0 0 0 .139-1.028c.184-.334 1.363-2.558 1.674-5.536.395-3.788-.518-9.343-.695-10.37.44-.04.764.15.982.368.268.268.453.552.535.512s.023-.384-.223-.676c-.342-.397-.926-.79-1.813-.46-2.148.792-3.86 3.867-4.92 6.307-.92 2.123-2.326 6.037-2.578 8.097-.066.55.043 1.328.158 2.15.127.904.256 1.84.133 2.395-.193.858-.958 1.925-1.698 2.956zm5.335-17.6c.57-1.026 1.883-2.455 2.678-3.24.457.936 2.494 7.204.46 14.03-.086-4.6-2.72-9.967-3.137-10.8zm-6.697 20.545c.236-.793.932-1.765 1.61-2.708.762-1.063 1.55-2.16 1.76-3.1.14-.63.006-1.604-.127-2.546-.105-.76-.217-1.546-.156-2.04.066-.54.213-1.2.412-1.94.645.536 3.223 3.154.898 9.142a3.34 3.34 0 0 1-.504.328c-.723.353-1.008.905-1.28 1.44-.305.6-.62 1.2-1.56 1.657-.63.304-.952-.073-1.052-.23z" class="C"/><use xlink:href="#M" class="B"/><path d="M110.152 1.978c26.994 6.303 47.097 30.644 47.052 59.708-.01 5.37-.704 10.577-2.004 15.537-.012.054-7.377 37.684-14.13 48.34-6.872 10.844-22.34 29.588-33.734 33.823-1.476.55-5.027 1.103-7.334 1.103s-5.857-.554-7.333-1.103c-11.396-4.235-26.863-22.98-33.734-33.823-6.753-10.657-14.12-48.287-14.13-48.34-1.3-4.96-1.996-10.168-2.004-15.537C42.756 32.622 62.857 8.28 89.853 1.978 61.03 6.845 39.087 32.06 39.134 62.427c.008 5.37.704 10.576 2.004 15.538.012.054 8.1 37.684 14.863 48.34 6.87 10.845 23.072 30.328 34.467 34.563 2.24.833 5.89 1.247 9.537 1.244s7.292-.41 9.53-1.244c11.396-4.235 27.596-23.72 34.468-34.563 6.753-10.657 14.852-48.287 14.862-48.34 1.3-4.96 1.996-10.168 2.004-15.538.05-30.366-21.894-55.582-50.717-60.45z" fill="#d1a99e"/><use xlink:href="#M" fill="none" class="E F"/><path d="M100.34 141.925c-1.526 0-2.998-.193-3.9-.547a.5.5 0 1 1 .365-.931c1.664.653 5.855.676 7.704-.193a.5.5 0 0 1 .665.239.5.5 0 0 1-.239.665c-1.12.526-2.89.767-4.595.767zm14.685-8.48c.398-.17.584-.632.413-1.03s-.635-.583-1.03-.413c-11.666 4.992-28.742.338-28.912.292-.417-.116-.852.127-.968.546s.128.85.546.968c.463.128 7.692 2.1 16.034 2.1 4.62-.001 9.578-.605 13.918-2.462z" class="C"/><path d="M59.782 80.154c0 3.552 5.88 11.295 15.32 11.458 7.043.123 12.184-3.747 12.184-7.3s-1.83-5.008-12.283-4.747c-7.04.178-16.333-1.407-15.22.6z" fill="url(#C)"/><path d="M81.735 86.646c-1.087 5.32-5.202 8.456-9.2 6.994s-6.356-6.964-5.27-12.286 5.21-8.458 9.207-6.996 6.35 6.964 5.263 12.288z" fill="#4e60a3" stroke="#152975" stroke-width=".5"/><path d="M80.568 86.77c-1.06 4.085-4.26 6.47-7.374 5.332-2.875-1.053-4.69-4.732-4.454-8.62a20.33 20.33 0 0 1 3.444-.066c-.012.056-.033.104-.045.16-.38 1.875.51 3.84 1.99 4.384 1.487.542 3-.545 3.385-2.42a4.71 4.71 0 0 0 .081-.732c1.016.493 2.013 1.13 2.972 1.96z" fill="#6777b2"/><path d="M75.515 81.018c-1.5-.574-3.035.57-3.422 2.564-.39 1.986.515 4.063 2.017 4.638s3.04-.57 3.426-2.555c.39-1.996-.516-4.074-2.02-4.647zm.33 7.053c-.625.258-1.27-.085-1.443-.77-.166-.685.205-1.444.833-1.698.63-.26 1.273.086 1.447.767s-.203 1.443-.837 1.702z" opacity=".9"/><g fill="#fff"><path d="M70.514 89.265c-.463.37-1.152.04-1.548-.744-.396-.777-.335-1.708.13-2.08.458-.364 1.156-.034 1.55.744.388.778.333 1.7-.13 2.08z" opacity=".6"/><path d="M80.388 83.568c-1.058.843-2.647.083-3.547-1.7s-.764-3.92.293-4.762c1.056-.85 2.646-.087 3.542 1.7s.77 3.917-.288 4.764z" opacity=".9"/></g><path d="M73.8 63.098c-10.217 0-20.628 5.505-20.07 22 .106 3.15 9.854 22.004 20.07 22.004S93.3 101.8 93.3 85.1c0-17.79-9.283-22-19.5-22zm1.303 28.514c-9.44-.163-15.32-7.906-15.32-11.458-1.112-1.997 8.18-.412 15.22-.59 10.453-.26 12.283 1.195 12.283 4.747s-5.14 7.423-12.184 7.3z" class="B"/><path d="M58.8 83.338c1.352 7.412 8.545 13.677 17.936 13.64 9.39-.043 16.986-6.18 16.96-13.713S86.05 69.66 76.658 69.7 57.445 75.9 58.8 83.338zm16.203-3.774c10.453-.26 12.283 1.195 12.283 4.747s-5.14 7.423-12.184 7.3c-9.44-.163-15.32-7.906-15.32-11.458-1.112-1.997 8.18-.412 15.22-.6z" fill="url(#E)"/><path d="M88.286 84.312c0-3.552-2.83-5.008-13.283-4.747-2.826.07-6.013-.14-8.746-.292l-3.88-.136c-1.918.014-5.022.252-4.596 1.018 0 3.552 7.88 11.295 17.32 11.458 7.044.122 13.184-3.748 13.184-7.3z" fill="url(#F)"/><path d="M85.282 77.73l-2.203-1.308-14.833-.24c4.185.378 7.805.588 14.763.648l2.273.9z" class="C"/><path d="M84.116 80.285c-8.54.143-14.196.14-24.105-.622.348 1.872.926 3.215 1.795 5.207-1.956-2.832-3.342-4.56-4.507-7.138 10.536.78 17.356 1.315 27.31 1.342l3.69 3.372-4.183-2.16zm1.438 8.152c-8.885 3.274-13.098 4.615-21.36-.982 4.636 5.893 15.908 5.4 21.36.982z" fill="#302040"/><path d="M139.818 80.154c0 3.552-5.88 11.295-15.32 11.458-7.043.123-12.184-3.747-12.184-7.3s1.83-5.008 12.283-4.747c7.042.178 16.334-1.407 15.22.6z" fill="url(#D)"/><path d="M132.734 86.646c-1.088 5.32-5.203 8.456-9.202 6.992-3.994-1.458-6.356-6.963-5.267-12.284s5.2-8.458 9.204-6.994c3.997 1.458 6.355 6.963 5.265 12.286z" fill="#4e60a3" stroke="#152975" stroke-width=".5"/><path d="M131.57 86.77c-1.062 4.085-4.26 6.468-7.375 5.33-2.875-1.052-4.7-4.73-4.454-8.618a20.45 20.45 0 0 1 3.445-.066c-.01.055-.035.103-.046.16-.38 1.875.508 3.84 2 4.383 1.49.542 3-.547 3.385-2.42.05-.244.073-.5.083-.732 1.013.496 2.01 1.134 2.972 1.962z" fill="#6777b2"/><path d="M126.517 81.018c-1.504-.573-3.036.57-3.425 2.564-.387 1.987.515 4.063 2.02 4.637s3.035-.57 3.426-2.555c.39-1.995-.518-4.073-2.02-4.646zm.326 7.053c-.623.258-1.27-.085-1.44-.77s.204-1.445.833-1.697c.63-.26 1.272.085 1.445.766s-.203 1.442-.838 1.702z" opacity=".9"/><g fill="#fff"><path d="M121.514 89.265c-.46.368-1.15.04-1.547-.745-.396-.776-.335-1.706.128-2.08.46-.364 1.155-.033 1.547.746s.337 1.708-.128 2.078z" opacity=".6"/><path d="M131.388 83.568c-1.06.844-2.646.083-3.548-1.7s-.766-3.92.293-4.76c1.056-.85 2.646-.088 3.54 1.698.9 1.787.772 3.918-.285 4.764z" opacity=".9"/></g><path d="M106.3 85.1c0 16.71 9.283 22.003 19.5 22.003s19.964-18.854 20.07-22.004c.558-16.495-9.854-22-20.07-22s-19.5 4.212-19.5 22zm6.013-.787c0-3.552 1.83-5.008 12.283-4.747 7.04.178 16.333-1.408 15.22.59 0 3.552-5.88 11.295-15.32 11.458-7.043.123-12.184-3.747-12.184-7.3z" class="B"/><path d="M122.943 69.7c-9.393-.04-17.016 6.033-17.04 13.566s7.572 13.67 16.96 13.713c9.39.037 16.584-6.228 17.936-13.64 1.354-7.428-8.465-13.595-17.858-13.64zm16.875 10.455c0 3.552-5.88 11.295-15.32 11.458-7.043.123-12.184-3.747-12.184-7.3s1.83-5.008 12.283-4.747c7.042.178 16.334-1.407 15.22.6z" fill="url(#G)"/><path d="M111.314 84.312c0-3.552 2.83-5.008 13.283-4.747 2.826.07 6.013-.14 8.746-.292l3.88-.136c1.918.014 5.022.252 4.596 1.018 0 3.552-7.88 11.295-17.32 11.458-7.043.122-13.184-3.748-13.184-7.3z" fill="url(#H)"/><path d="M114.318 77.73l2.203-1.308 14.833-.24c-4.185.378-7.805.588-14.763.648l-2.273.9z" class="C"/><path d="M111.302 82.446l3.69-3.372c9.952-.027 16.772-.56 27.31-1.342-1.165 2.578-2.55 4.307-4.507 7.138.87-1.992 1.447-3.335 1.795-5.207-9.91.762-15.565.765-24.105.622l-4.183 2.16zm24.106 5.01c-8.264 5.598-12.477 4.257-21.36.982 5.453 4.42 16.724 4.91 21.36-.982z" fill="#302040"/><path d="M141 113.974c.035 22.622-18.292 40.994-40.938 41.025-22.642.037-41.028-18.273-41.063-40.9C58.964 91.48 77.29 73.035 99.936 73s41.03 18.35 41.064 40.975z" fill="url(#A)"/><path d="M137.5 54c0 20.71-16.79 37.5-37.5 37.5S62.5 74.7 62.5 54 79.3 16.5 100 16.5s37.5 16.79 37.5 37.5z" fill="url(#B)"/><path d="M55.992 72.44c14.723-3.028 32.888 2.77 33.336-.65.164-1.252-.892-1.73-1.755-1.795-14.88-1.264-27.073-1.442-31.58 2.444zm88.016 0c-14.724-3.028-32.888 2.77-33.336-.65-.164-1.252.892-1.73 1.755-1.795 14.88-1.264 27.073-1.442 31.58 2.444z" class="D"/><path d="M105.07 117.886c1.053 0 1.338.28 1.338.625s-.328.88-1.338.624c-1.11-.276-3.046-.148-3.046-.148s1.994-1.1 3.046-1.1zm-10.053 0c-1.054.001-1.337.282-1.337.628s.317.842 1.337.624c1.125-.24 3.046-.15 3.046-.15s-1.992-1.1-3.046-1.103zm13.592-3.738s1.458 1.654 1.154 3.403c-.294 1.7-3.238 2.447-3.238 2.447s2.044-1.297 2.292-2.873c.116-.735-.208-2.977-.208-2.977zm-17.992-1.702s-1.063 2.316-.755 3.727c.558 2.547 3.625 3.565 3.625 3.565s-1.914-1.747-2.594-3.29c-.744-1.684-.276-4-.276-4z" class="C"/><path d="M105.02 115.38c1.02-.76 1.124-1.195.912-1.48s-.823-.464-1.678.453c-.942 1.012-2.99 1.758-2.99 1.758s2.735.03 3.757-.732z" fill="#e8d7d3"/><path d="M100 18.13z" fill="#2a232b"/><path d="M123.28 136.02c-4-.95-13-5.9-17.78-5.9-1.46 0-3.16.28-5.5.9-7-1.53-4.96-1.42-13.25 1.06-3.17.95-4.9 2.5-9.78 3.8.85-1.83.7-5.82 5.76-13.44.03-.05.06-.1.1-.17 5.35 5.23 10.14-1.65 12.58-3.25 1.05.78 3.15 3.73 5.08 3.4 2 0 3.58-1.77 4.72-3.4 1.35.83 3.82 5.57 6.6 5.57 1.75 0 3.42-1.4 4.82-2.72 1.72 1.83 5.62 8.84 6.67 14.15z" class="D"/><path d="M116.6 121.74l-.6.56c-1.9 1.55-2.92 2.42-4.87 2.16-2.4-.66-4.84-5-5.97-5.56-.9 1.3-2.55 3.43-4.7 3.43-1.9.33-4.06-2.72-5.06-3.4-.9.52-5 5.12-8.08 5.2-1.24.04-3.05-.5-4.53-2v.01l-.15.27c-5.27 7.94-4.9 11.9-5.87 13.65 5.06-1.34 6.8-2.9 10-3.87 8.58-2.56 6.12-2.52 13.25-1.06 6.94-1.82 7.83-.54 13.24 1.06 2.8.84 6.16 3.06 10.16 3.97-1.06-5.58-5.18-12.78-6.8-14.4zm-3.04 9.4c-7.1-2.1-6.73-2.83-13.57-.22-6.77-2.63-6.5-1.87-13.55.22-3.2.94-5.9 2.82-8.82 4.02 2.18-4.04.9-5.13 5.3-12.38.01.02.03.03.04.05 5.17 4.48 8.6-.28 11.4-2.7.2-.17.87-.84.96-.95 2.5 2.82 4.16 4.7 7.16 3.12 1.23-.74 2.2-1.73 2.8-3 1.88 2.16 3.34 5.74 6.5 5.9 1.33-.18 2.42-.22 4.83-3.1 2.2 3.83 5.2 9.23 6.34 13.37-5.9-2.6-7.1-3.66-9.37-4.33z" fill="#cea57c"/><path d="M47.026 91.5C36.463 75.132 33.77 45.712 41.42 29.37c3.677-8.152 11.5-16.87 19.933-22.212C64.65 5.403 76.268-.36 86.56-.36c2.4 0 4.566.328 6.41.976l.128.045.117-.068c3-1.725 6.747-2.046 14.58-2.148l.25-.003c1.87 0 3.99.52 6.68 1.175 2.018.493 4.305 1.052 7.044 1.532 14.452 2.09 25.214 9.782 31.994 22.86 11.354 21.9 7.755 51.17 2.55 61.403-1.005 1.7-2.747 3.986-3.457 4.895-2.57-6.597-2.11-9.274-1.58-12.363.486-2.823 1.035-6.024-.416-12.708-1.813-9.123-1.767-9.825-1.657-11.52.07-1.12.17-2.653-.163-7.04-1.297-8.593-4.05-18.792-13.937-21.607l-.787-.224.465.674c1.44 2.1 2.693 3.223 4.146 4.534 1.005.907 2.043 1.844 3.29 3.227-.877.208-1.73.307-2.646.307-.667 0-1.372-.052-2.153-.158l-.747-.102.482.582c.824.995 2.164 2.12 3.24 3.022l.706.597c-1.888.188-5.86.565-8.83.565-.9 0-1.652-.035-2.233-.102-12.426-.972-21.94-4-33.822-16.606l-.22-.233-.213.238c-2.14 2.382-3.45 3.556-5.765 5.442-10.797 8.53-29.024 15.677-38.67 17.81 2.717-3.577 3.516-6.073 3.868-7.173l.08-.245-.5-.286c-1.06 1.21-1.746 1.854-2.594 2.512l.03-.147c.235-1.12.63-2.99 1.007-6.87l.11-1.112-.642.915c-4.648 6.618-4.203 16.015-3.81 24.306.21 4.4.407 8.576-.19 11.822l-.523 2.786c-.193 1.004-.272 1.42-.372 2.184-.42 2.467-.084 4.29.27 6.218.545 2.96 1.11 6.022-1.054 11.946z" class="D"/><path d="M156.313 85.4c-1.005 1.7-2.747 3.986-3.457 4.895-4.85-12.454 1.084-10.88-1.996-25.07-1.813-9.123-1.767-9.825-1.657-11.52.07-1.12.17-2.653-.163-7.04-2.384-15.797-7.97-19.74-14.626-21.635 3.238 4.7 4.34 4.4 7.802 8.238-2.017.48-3.552.32-5.546.047 1.524 1.84 1.92 2.045 4.43 4.2-20.885 2.083-32.607-3.115-45.104-16.376-11.698 13.035-35.333 21.434-44.65 23.495 2.298-3.023 3.205-5.132 3.947-7.418l-.5-.286c-1.06 1.21-1.746 1.854-2.594 2.512.636-3.03.833-4.916 1.146-8.13-4.916 6.998-4.992 13.84-4.453 25.22.436 9.196.166 10.015-.714 14.607-1.88 9.786 2.647 9.943-1.153 20.35C36.463 75.132 33.77 45.712 41.42 29.37c1.542-3.42 3.82-6.936 6.562-10.265-9.116 17.32-6.863 36.097-3.914 54.26C47.25 58.4 39.083 36.376 56.74 24.604c-.25 4.01.04 4.3-1.274 8.526 2-1.542 4.53-3.1 7.1-5.442 0 4.905-2.44 7.648-5.505 12.554C65.275 36.808 89.064 27 95.08 11.563c8.83 11.772 22.562 20.6 38.257 22.563-3.924-1.962-4.904-5.886-6.866-8.83 1.33 1.994 3.557 2.636 5.77 3.148-3.475-3.993-2.63-5.865-3.475-10.928 8.32 5.933 13.512 6.156 18.417 13.022 8.09 14.41 9.96 31.208 8.187 48.006 3.777-22.27 4.3-50.502-11.04-67.1C165.663 31.03 163.3 71.67 156.313 85.4zm-62.67-74.76c-7.696 9.673-18.75 16.57-29.838 23.46 19.848-9.402 26.137-17.65 29.838-23.46zM65.194 20.46C70.966 13.814 81.8 9.92 90.7 9.017c-8.13 1.672-19.453 5.96-25.505 11.444zM44.92 35.176c3.365-11.42 12.87-21.716 27.794-26.16-13.722 5.644-23.47 15.898-27.794 26.16zm80.685-6.215c-11.956-3.48-22.122-11.056-27.06-17.983 6.255 6.93 18.558 14.18 27.06 17.983zm3.074-13.77c-14.388-6.02-18.7-7.194-28.497-7.81 11.195-.52 17.256 1.502 28.497 7.81zm24.148 19.005c-3.864-10.752-15.955-22.3-29.43-25.505 14.775 1.867 26.695 13.416 29.43 25.505z" fill="#cea57c"/><path d="M94.097 3.715c14.096-8.107 44.343 1.048 57.75 17.07-5.56-9.8-19.544-18.116-30.08-19.64-6.662-1.167-10.443-2.744-13.973-2.704-8.222.108-11.664.463-14.698 2.217-9.233-3.216-23.166 1.93-31.744 6.5-2.624 1.662-7.658 6.118-10.056 8.315 17.167-11.7 33.353-17.658 42.8-11.758z" fill="#e5c8ac"/><path d="M121.818.856c-6.584-1.154-10.664-2.793-14.027-2.708-7.737.1-11.61.39-14.724 2.187-8.972-3.15-22.903 1.795-31.873 6.574-8.02 5.08-16.17 13.75-20.04 22.337-8.027 17.15-4.684 49.433 5.944 62.9 3.936-10.303-.077-12.436 1-18.776.16-1.218.262-1.515.893-4.954 1.73-9.384-3.103-25.966 3.954-36.012-.5 5.102-1.016 6.692-1.178 7.74 1.253-.918 1.984-1.57 3.247-3.012-.327.98-1.062 3.78-4.395 7.966 9.303-1.88 28.306-9.127 39.583-18.04 2.392-1.95 3.708-3.148 5.797-5.474 11.396 12.09 20.64 15.65 34 16.696 3.146.37 9.898-.34 11.8-.53-1.06-.97-3.264-2.633-4.424-4.032 1.894.257 3.62.234 5.356-.285h.01c-.083-.123-.218-.244-.274-.313-3.1-3.438-5.032-4.266-7.446-7.77 9.22 2.625 12.3 11.91 13.724 21.346.852 11.268-1.146 3.633 1.825 18.6 3.108 14.31-3.034 12.512 2.198 25.593 0 0 2.492-3.11 3.806-5.346 8.587-16.88 10.834-78.1-34.756-84.688zm38.073 63.008c-1.55 19.57-3.24 21.057-6.994 26.37-.645-1.984-1.137-3.356-1.334-4.17-1.516-5.478 2.872-9.442.353-21.042-2.856-14.166-1.015-7.29-1.814-18.49-1.686-10.32-5.623-19.876-16.03-21.61 1.05 2.778 6.656 7.095 8.124 8.407-2.44.315-4.725.001-5.76-.05.79 1.27 3.118 3.265 4.325 4.2-21.423.4-32.106-4.996-44.506-16.177-.02-.01-.03-.03-.05-.04-.137-.127-.274-.246-.4-.373-6.678 7.605-28.276 18.658-44.487 23.857 2.4-2.865 3.952-5.566 4.493-9.22-.858.98-1.332 1.814-3.453 3.777.713-2.228 1.16-6.304 1.236-8.662-10.057 11.7-4.527 26.92-5.915 35.58-.38 3.88-1.742 6.67-.98 11.83.654 3.077 2.125 6.25.235 13.165-10.358-16.3-11.652-45.732-4.355-61.32C46.868 20.4 57.772 8.73 69.87 4.075 76.998 1.57 86.016-1.657 93.03.68c4.046-2.016 7.167-1.61 12.45-1.716 6.18-.163 8.392 1.685 16.106 3.168 9.354 1.753 17.338 6.065 21.366 9.78 13.246 11.5 17.902 34.375 16.94 51.95z" fill="#af7b46"/><path d="M124.34 100a29.78 29.78 0 0 1-2.49-.1c-3.5-.26-15-2.23-16.05-16.5-.26-3.57 7.6-6.1 23.34-7.5l2.46-.23c3.85-.36 8.2-.77 11.65-.77 4.5 0 6.58.68 6.73 2.22.36 3.45-1.67 10.82-8.72 17-4.3 3.8-10.3 5.87-16.92 5.87z" fill="url(#I)"/><path d="M75.66 100l2.5-.1c3.5-.26 15-2.23 16.05-16.5.26-3.57-7.6-6.1-23.34-7.5l-2.46-.23c-3.85-.36-8.2-.77-11.65-.77-4.5 0-6.58.68-6.73 2.22-.36 3.45 1.67 10.82 8.72 17 4.3 3.8 10.3 5.87 16.92 5.87z" fill="url(#J)"/><path d="M148 73.03c-5.98.68-19.67 1.5-27.04 2.16-4.68.4-12.8 2.65-20.95 2.65S83.73 75.6 79.05 75.2L52 73.03c-2.7-.3-6.42.95-5.97 3.5.34 1.9 3.15 10.2 11.86 18.2 5.94 5.45 15.9 8.17 26.2 5.12C93.78 97 95.8 88.73 96.76 86.63c.85-1.85 1.76-2.67 3.24-2.67s2.4.82 3.24 2.67c.96 2.1 2.98 10.36 12.66 13.23 10.3 3.05 20.26.33 26.2-5.12 8.7-8 11.52-16.3 11.86-18.2.45-2.56-3.27-3.82-5.97-3.5zM78.1 99.4c-7.54.57-14.3-1.48-19.05-5.64-6.87-6.03-8.9-13.22-8.56-16.58.3-2.93 12.22-1.5 20.3-.78s23.2 2.55 22.9 6.96c-.86 11.98-9.24 15.56-15.58 16.04zm62.83-5.64c-4.74 4.16-11.5 6.2-19.05 5.64-6.34-.48-14.72-4.05-15.6-16.04-.32-4.4 14.8-6.24 22.9-6.96s20-2.15 20.3.78c.35 3.35-1.68 10.55-8.55 16.58z" fill="#da6972"/><path d="M73.6 99.42c-16.3-.67-21.96-14.1-23.63-18-1.6-3.73-.3-5.07 1.95-5.88-.9.62-1.62 1.23-1.64 2.6-.2 6.06 7.92 20.42 23.32 21.27zm19.97-12.2c.94-2.3 1.76-3.96 1.3-5.25-.74-2.1-5.84-2.97-7.7-3.36 6.45 1.87 8.26 2.45 6.4 8.6zM82.14 77.14c-4.22-1.3-16.7-2.7-20.76-2.42 4.32.4 16.18 1.3 20.76 2.42zm44.25 22.28c16.3-.67 21.96-14.1 23.63-18 1.6-3.73.3-5.07-1.94-5.88.9.62 1.62 1.23 1.64 2.6.18 6.06-7.93 20.42-23.33 21.27zM112.83 78.6c-1.87.4-6.97 1.26-7.7 3.36-.45 1.3.37 2.96 1.3 5.25-1.85-6.15-.04-6.73 6.4-8.6zm25.8-3.87c-4.07-.27-16.54 1.1-20.76 2.42 4.58-1.14 16.44-2.02 20.76-2.42z" fill="#e9888f"/></svg>