<svg xmlns="http://www.w3.org/2000/svg" viewBox="0 0 128 128"><style><![CDATA[.B{fill:#333}.C{fill:#61a6c9}.D{fill:#6ad3b8}.E{fill:#708eba}.F{fill:#7cbdd6}]]></style><path d="M108,98.5H28v-10a16,16,0,0,1,16-16H92a16,16,0,0,1,16,16Z" class="E"/><path d="M96,76.5H44a12,12,0,0,0-12,12v10h76v-10a15.74,15.74,0,0,0-2.88-9.12A15.74,15.74,0,0,0,96,76.5Z" fill="#4a6199"/><path d="M108 100H28a1.5 1.5 0 0 1-1.5-1.5v-10A17.52 17.52 0 0 1 44 71h48a17.52 17.52 0 0 1 17.5 17.5v10a1.5 1.5 0 0 1-1.5 1.5zm-78.5-3h77v-8.5A14.517 14.517 0 0 0 92 74H44a14.517 14.517 0 0 0-14.5 14.5z" class="B"/><path d="M119.22 101.98a12.4 12.4 0 0 0-9.12-9.6 244.557 244.557 0 0 0-42-3.9 239.136 239.136 0 0 0-42 4 11.68 11.68 0 0 0-9.12 9.6L16 106.5l.2.12C32 113.6 49.64 116.5 68 116.5a128.461 128.461 0 0 0 52-10z" class="F"/><path d="M110 97.98l-9.54-2.38a134.002 134.002 0 0 0-32.38-4H68a133.781 133.781 0 0 0-32.38 4L26 97.98a13.26 13.26 0 0 0-9.1 8.96C32.54 113.7 50 116.5 68 116.5a128.58 128.58 0 0 0 51.18-9.6 13.16 13.16 0 0 0-9.18-8.92z" class="C"/><path d="M67.347 118.502a138.227 138.227 0 0 1-52.097-10.147 1.999 1.999 0 0 1-1.202-2.287l.968-4.362a13.757 13.757 0 0 1 10.67-11.181A237.17 237.17 0 0 1 68.09 86.48a243.278 243.278 0 0 1 42.368 3.932 13.65 13.65 0 0 1 10.734 11.24l.778 4.508a2.001 2.001 0 0 1-1.224 2.196A140.171 140.171 0 0 1 67.994 118.5l-.647.001zM18.32 105.27a134.318 134.318 0 0 0 49.67 9.23l.395.001a135.503 135.503 0 0 0 49.366-9.262l-.508-2.94a9.658 9.658 0 0 0-7.563-7.962A239.127 239.127 0 0 0 68.09 90.48a233.003 233.003 0 0 0-41.622 3.966 9.721 9.721 0 0 0-7.512 7.947l-.023.12z" class="B"/><path d="M54 68.5v14.12a14 14 0 0 0 14 13.86 14 14 0 0 0 14-13.86V68.5z" class="D"/><path d="M54,72.7,75.72,94.18A13.82,13.82,0,0,0,82,82.62V68.5H54Z" fill="#65bca6"/><path d="M68 85c-10.15 0-14.247-5.97-14.416-6.223l.83-.556C54.454 78.28 58.4 84 68 84c9.62 0 13.546-5.72 13.584-5.777l.832.555C82.247 79.03 78.15 85 68 85zm0 4c-10.15 0-14.247-5.97-14.416-6.223l.83-.556C54.454 82.28 58.4 88 68 88c9.62 0 13.546-5.72 13.584-5.777l.832.555C82.247 83.03 78.15 89 68 89zm0 4c-10.15 0-14.247-5.97-14.416-6.223l.83-.556C54.454 86.28 58.4 92 68 92c9.62 0 13.546-5.72 13.584-5.777l.832.555C82.247 87.03 78.15 93 68 93z" fill="#51a58d"/><path d="M68 79.1c-5.05 0-11.187-.74-13.264-2.816l.707-.707C56.943 77.096 61.99 78.1 68 78.1s11.047-1.014 12.557-2.523l.707.707C79.177 78.37 73.04 79.1 68 79.1z" fill="#5d6268"/><path d="M68 98.48H68a16.052 16.052 0 0 1-16-15.84V68.5a2 2 0 0 1 2-2h28a2 2 0 0 1 2 2v14.12a16.056 16.056 0 0 1-15.999 15.86zM56 70.5v12.12a12.001 12.001 0 0 0 24-.02V70.5z" class="B"/><circle cx="68" cy="106.5" r="10" class="C"/><path d="M60.72 108.6A10.68 10.68 0 0 1 71.4 97.92a10.82 10.82 0 0 1 4.76 1.12 10.68 10.68 0 1 0-12.92 16.46 10.6 10.6 0 0 1-2.52-6.9z" class="F"/><circle cx="68" cy="106.5" r="4" fill="#81e2c7"/><path d="M66 108.5a3.999 3.999 0 0 0 .36 1.64 3.985 3.985 0 0 0 5.28-5.28A3.985 3.985 0 0 0 66 108.5z" class="D"/><path d="M68 111.5a5 5 0 1 1 5-5 5.006 5.006 0 0 1-5 5zm0-8a3 3 0 1 0 3 3 3.003 3.003 0 0 0-3-3zm0 15a12 12 0 1 1 12-12 12.013 12.013 0 0 1-12 12zm0-20a8 8 0 1 0 8 8 8.009 8.009 0 0 0-8-8z" class="B"/><path d="M68 16.36c-16.96 0-22.7 9.02-22.58 20.74a42.308 42.308 0 0 0 .22 4.54l2.1 15.64c.2 11.72 7.64 16 9.46 18.56A12.3 12.3 0 0 0 68 80.4a12.3 12.3 0 0 0 10.8-4.56c1.82-2.46 9.26-6.84 9.46-18.56l2-15.64a42.308 42.308 0 0 0 .22-4.54C90.7 25.38 84.96 16.36 68 16.36z" class="C"/><path d="M52.18 60.52L50 44.88a42.308 42.308 0 0 1-.22-4.54c-.14-14.22 5.64-20.74 22.58-20.74a31.021 31.021 0 0 1 13.84 3.36c-3.5-3.82-9.32-6.6-18.28-6.6-16.96 0-22.7 9.02-22.58 20.74a42.282 42.282 0 0 0 .22 4.54l2.1 15.64c.2 11.72 7.64 16 9.46 18.56a8.44 8.44 0 0 0 4.4 3.18c-1.8-2.46-9.14-6.86-9.34-18.5z" class="F"/><path d="M48 54.42v5.66c1.22 9.62 7.58 13.5 9.24 15.76.26.34.54.62.8.92V64.5a9.8 9.8 0 0 0-9.513-10.079q-.263-.008-.527-.001z" class="E"/><path d="M48.2 59.94c1.22 9.56 7.58 13.56 9.24 15.76.18.24.36.46.56.68v-6.4a10 10 0 0 0-9.8-10.04z" class="C"/><path d="M66.79 82.46a14.246 14.246 0 0 1-11.151-5.37l-.067-.1a15.382 15.382 0 0 0-1.501-1.584c-2.84-2.777-8.114-7.937-8.326-17.982l-2.086-15.526a44.86 44.86 0 0 1-.237-4.816c-.07-6.98 1.838-12.503 5.676-16.38 4.17-4.213 10.53-6.35 18.904-6.35 8.4 0 14.77 2.148 18.927 6.384 3.816 3.888 5.685 9.404 5.554 16.394a44.06 44.06 0 0 1-.231 4.707l-1.99 15.58c-.213 10.16-5.557 15.34-8.433 18.13a15.831 15.831 0 0 0-1.418 1.474A14.283 14.283 0 0 1 68 82.408a14.61 14.61 0 0 1-1.211.051zM68 78.4a1.97 1.97 0 0 1 .194.009 10.258 10.258 0 0 0 9.043-3.818 17.476 17.476 0 0 1 1.805-1.908c2.815-2.73 7.07-6.855 7.218-15.437a2.056 2.056 0 0 1 .017-.22l2-15.64a40.388 40.388 0 0 0 .204-4.276c.1-5.924-1.373-10.47-4.408-13.565-3.378-3.44-8.785-5.185-16.072-5.185-7.267 0-12.67 1.737-16.062 5.163-3.058 3.1-4.58 7.65-4.518 13.557a40.933 40.933 0 0 0 .209 4.357l2.094 15.577a2.297 2.297 0 0 1 .017.232c.145 8.48 4.346 12.6 7.126 15.31a17.85 17.85 0 0 1 1.927 2.074 10.265 10.265 0 0 0 9.013 3.781c.064-.007.13-.01.194-.01z" class="B"/><path d="M78,46.5a3,3,0,1,0,3,3,3.08,3.08,0,0,0-3-3" class="D"/><path d="M78 54a4.5 4.5 0 0 1 0-9h.038a4.577 4.577 0 0 1 4.461 4.461A4.512 4.512 0 0 1 78 54zm-.02-6a1.5 1.5 0 1 0 1.519 1.5 1.571 1.571 0 0 0-1.519-1.5z" class="B"/><path d="M58,46.5a3,3,0,1,0,3,3,3.08,3.08,0,0,0-3-3" class="D"/><path d="M58 54a4.5 4.5 0 0 1 0-9h.038a4.577 4.577 0 0 1 4.461 4.461A4.512 4.512 0 0 1 58 54zm-.02-6a1.5 1.5 0 1 0 1.52 1.5 1.571 1.571 0 0 0-1.52-1.5z" class="B"/><path d="M68 12.48a29.879 29.879 0 0 0-10 2v12a10 10 0 0 0 20 0v-12a29.399 29.399 0 0 0-10-2z" class="C"/><path d="M58 14.5v12a10 10 0 0 0 10 10 3.7 3.7 0 0 0-2.48-3.44A6.9 6.9 0 0 1 61 26.5v-9.84a23.04 23.04 0 0 1 7-1.16 27.18 27.18 0 0 1 9.04 1.86L78 14.5a29.399 29.399 0 0 0-10-2 29.399 29.399 0 0 0-10 2z" fill="#86c7e0"/><g class="B"><path d="M68 37.98a11.513 11.513 0 0 1-11.5-11.5v-12a1.499 1.499 0 0 1 .959-1.399 31.299 31.299 0 0 1 10.502-2.101h.073a30.814 30.814 0 0 1 10.511 2.102 1.5 1.5 0 0 1 .955 1.398v12A11.513 11.513 0 0 1 68 37.98zm-8.5-22.452V26.48a8.5 8.5 0 0 0 17 0V15.525a27.801 27.801 0 0 0-8.498-1.544 28.294 28.294 0 0 0-8.502 1.547z"/><path d="M68 55.48a1 1 0 0 1-1-1V37.22a1 1 0 0 1 2 0v17.26a1 1 0 0 1-1 1zM58 77.8a1 1 0 0 1-.756-.345l-.253-.283-.586-.685a16.175 16.175 0 0 0-1.515-1.585c-2.536-2.46-6.78-6.58-7.88-14.26A.972.972 0 0 1 47 60.5v-6a1 1 0 0 1 1-1 11.013 11.013 0 0 1 11 11v12.3a1 1 0 0 1-1 1zm-9-17.372c1.018 6.96 4.787 10.615 7.284 13.038l.716.702V64.5a9.013 9.013 0 0 0-8-8.945z"/></g><path d="M88 54.42v5.66c-1.22 9.62-7.58 13.5-9.24 15.76-.26.34-.54.62-.8.92V64.5a9.8 9.8 0 0 1 9.513-10.079q.263-.008.527-.001z" class="E"/><path d="M87.8 59.94c-1.22 9.56-7.58 13.56-9.24 15.76-.18.24-.36.46-.56.68v-6.4a10 10 0 0 1 9.8-10.04z" class="C"/><path d="M78 77.8a1 1 0 0 1-1-1V64.5a11.013 11.013 0 0 1 11-11 1 1 0 0 1 1 1v6a.972.972 0 0 1-.01.142c-1.1 7.68-5.345 11.8-7.88 14.26a16.235 16.235 0 0 0-1.509 1.578 10.2 10.2 0 0 1-.592.693l-.253.283A1 1 0 0 1 78 77.8zm9-22.245a9.013 9.013 0 0 0-8 8.945v9.668l.716-.702c2.497-2.423 6.267-6.08 7.284-13.038z" class="B"/><path d="M45.14 37.22L38 44.5v11.84l9.56 4.3s.76-16.68-2.42-23.42z" class="E"/><path d="M42 40.02l-4 4.48.02 11.84L42 58.12v-18.1z" fill="#89a5c6"/><g class="B"><path d="M47.56 62.64a1.991 1.991 0 0 1-.82-.176l-9.56-4.3A2 2 0 0 1 36 56.34V44.5a1.998 1.998 0 0 1 .572-1.4l7.14-7.28a2 2 0 0 1 3.236.547c3.354 7.107 2.64 23.663 2.61 24.365a2 2 0 0 1-1.998 1.909zM40 55.046l5.638 2.536c.046-4.644-.176-11.825-1.348-16.64L40 45.317z"/><path d="M42 49.5h4v2h-4z"/></g><path d="M90.86 37.22L98 44.5v11.84l-9.56 4.3s-.76-16.68 2.42-23.42z" class="E"/><path d="M94 40.02l4 4.48-.02 11.84L94 58.12v-18.1z" fill="#89a5c6"/><g class="B"><path d="M88.44 62.64a2 2 0 0 1-1.998-1.909c-.032-.702-.745-17.258 2.61-24.365a2 2 0 0 1 3.236-.547l7.14 7.28a1.998 1.998 0 0 1 .572 1.4v11.84a2 2 0 0 1-1.18 1.824l-9.56 4.3a1.991 1.991 0 0 1-.82.176zm3.27-21.698c-1.173 4.816-1.394 11.998-1.347 16.64L96 55.046v-9.73z"/><path d="M98 49h6v3h-6z"/></g><circle cx="107" cy="50.5" r="3" class="D"/><path d="M107 55a4.5 4.5 0 1 1 4.5-4.5A4.505 4.505 0 0 1 107 55zm0-6a1.5 1.5 0 1 0 1.5 1.5A1.502 1.502 0 0 0 107 49zm-75 0h6v3h-6z" class="B"/><circle cx="29" cy="50.5" r="3" class="D"/><path d="M29 55a4.5 4.5 0 1 1 4.5-4.5A4.505 4.505 0 0 1 29 55zm0-6a1.5 1.5 0 1 0 1.5 1.5A1.502 1.502 0 0 0 29 49zm61 .5h4v2h-4zm-29 15h2v4h-2zm4 0h2v4h-2zm4 0h2v4h-2zm4 0h2v4h-2z" class="B"/><path d="M68 30.5a4 4 0 0 1-4-4v-15a4 4 0 1 1 8 0v15a4 4 0 0 1-4 4z" class="C"/><path d="M69 10.5a2 2 0 0 1 2 2v14a4 4 0 0 1-4 4v-18a2 2 0 0 1 2-2" fill="#6d9dc9"/><path d="M68 32a5.507 5.507 0 0 1-5.5-5.5v-15a5.5 5.5 0 0 1 11 0v15A5.507 5.507 0 0 1 68 32zm0-23a2.503 2.503 0 0 0-2.5 2.5v15a2.5 2.5 0 0 0 5 0v-15A2.503 2.503 0 0 0 68 9z" class="B"/><path d="M54,94.5H40v-6a6,6,0,0,1,6-6h8Z" class="C"/><path d="M46,82.5a6,6,0,0,0-6,6v3.86a6.2,6.2,0,0,1,6-5.86h8v-4Z" class="F"/><path d="M56 94.5h-4v-10h-6a4.004 4.004 0 0 0-4 4v6h-4v-6a8.009 8.009 0 0 1 8-8h8a2 2 0 0 1 2 2zM44 88h6v1h-6zm0 2h6v1h-6zm0 2h6v1h-6z" class="B"/><path d="M82,94.5H96v-6a6,6,0,0,0-6-6H82Z" class="C"/><path d="M90,82.5a6,6,0,0,1,6,6v3.86a6.2,6.2,0,0,0-6-5.86H82v-4Z" class="F"/><path d="M98 94.5h-4v-6a4.004 4.004 0 0 0-4-4h-6v10h-4v-12a2 2 0 0 1 2-2h8a8.009 8.009 0 0 1 8 8zM86 88h6v1h-6zm0 2h6v1h-6zm0 2h6v1h-6zm-26 25.5a1 1 0 0 1-.842-.459l-3.3-5.12a9.297 9.297 0 0 0-5.84-3.861l-2.223-.46a15.353 15.353 0 0 1-10.693-8.195l-4.008-8.477a1 1 0 0 1 1.809-.854l4 8.46a13.335 13.335 0 0 0 9.291 7.106l2.228.462a11.3 11.3 0 0 1 7.102 4.714l3.315 5.144a1 1 0 0 1-.84 1.542zm16 0a1 1 0 0 1-.84-1.541l3.3-5.12a11.319 11.319 0 0 1 7.121-4.739l2.217-.46a13.347 13.347 0 0 0 9.307-7.125l3.992-8.443a1 1 0 0 1 1.809.854l-4 8.46a15.366 15.366 0 0 1-10.709 8.214l-2.212.458a9.315 9.315 0 0 0-5.858 3.886l-3.284 5.097a1 1 0 0 1-.842.459z" class="B"/></svg>