<svg xmlns="http://www.w3.org/2000/svg" viewBox="0 0 128 128"><path d="M86.5 84.14c-2.56 6-12 10-22 10s-19.42-4-22-10a202.201 202.201 0 0 0-22 4c-9.78 2.46-9.74 14.5-10 16a145.642 145.642 0 0 0 54 10 147.162 147.162 0 0 0 54-10c-.14-1.12 0-13.5-10-16a203.525 203.525 0 0 0-22-4z" fill="#87b5d8"/><g fill="#6d9dc9"><path d="M108.28 94.6l-10-2.48a139.666 139.666 0 0 0-33.68-4.14h-.1a139.541 139.541 0 0 0-33.7 4.16l-10 2.48a12.88 12.88 0 0 0-9.22 8.88 132.603 132.603 0 0 0 52.92 10.92 132.54 132.54 0 0 0 53-10.94 12.88 12.88 0 0 0-9.22-8.88z"/><path d="M64.5 94.14a32.982 32.982 0 0 0 16-3.84V70.14h-32v20.14a32.98 32.98 0 0 0 16 3.86z"/></g><path d="M48.5 86.14h32v4h-32zm0-8h32v4h-32z" fill="#3c6782"/><path d="M78.5 70.14h4v20h-4zm-32 0h4v20h-4zm-12 25h10v2h-10zm0 4h10v2h-10zm50-4h10v2h-10zm0 4h10v2h-10z" fill="#333"/><circle cx="64.5" cy="104.14" r="4" fill="#fcaa06"/><path d="M64.5 109.64a5.5 5.5 0 1 1 5.5-5.5 5.507 5.507 0 0 1-5.5 5.5zm0-8a2.5 2.5 0 1 0 2.5 2.5 2.503 2.503 0 0 0-2.5-2.5zm-.992 14.504a146.962 146.962 0 0 1-53.736-10.141 2.001 2.001 0 0 1-1.242-2.204c.02-.126.036-.337.06-.616.846-9.575 4.688-15.3 11.422-16.982a204.864 204.864 0 0 1 22.24-4.045 2.002 2.002 0 0 1 2.085 1.194c2.155 5 10.823 8.8 20.163 8.8 9.356 0 18.024-3.777 20.16-8.785a1.996 1.996 0 0 1 2.089-1.2 206.357 206.357 0 0 1 22.216 4.039c4.867 1.217 10.794 5.2 11.498 17.355l.023.354a2.04 2.04 0 0 1-1.262 2.101 148.543 148.543 0 0 1-54.04 10.137c-.233 0-.462-.001-.693-.001l-.983.004zM12.64 102.82a143.35 143.35 0 0 0 51.847 9.319 144.652 144.652 0 0 0 51.912-9.337c-.628-7.2-3.446-11.488-8.385-12.723a202.202 202.202 0 0 0-20.381-3.777C84.12 92.16 74.92 96.14 64.5 96.14c-10.403 0-19.602-3.98-23.13-9.838a200.962 200.962 0 0 0-20.403 3.783c-6.832 1.72-8 9.35-8.325 12.736z" fill="#333"/><path d="M64.5 16.14c-17.64 0-23.6 9.38-23.48 21.58a46.569 46.569 0 0 0 .22 4.74l2.18 16.26c.2 12.2 8 16.74 9.84 19.3a12.8 12.8 0 0 0 11.24 4.74 12.8 12.8 0 0 0 11.24-4.74c2-2.56 9.64-7.1 9.84-19.3l2.18-16.26a45.999 45.999 0 0 0 .22-4.74c.12-12.2-5.84-21.58-23.48-21.58z" fill="#87b5d8"/><path d="M64.5 16.14c-17.64 0-23.6 9.38-23.48 21.58a46.569 46.569 0 0 0 .22 4.74l2.18 16.26a27.355 27.355 0 0 0 .34 3.76 80.467 80.467 0 0 0 20.74 2 79.664 79.664 0 0 0 20.74-2 26.783 26.783 0 0 0 .34-3.76l2.18-16.26a45.999 45.999 0 0 0 .22-4.74c.12-12.2-5.84-21.58-23.48-21.58z" fill="#dadbc8"/><path d="M48.04 62.14l-2.18-16.26a45.996 45.996 0 0 1-.22-4.74c-.14-14.8 5.88-21.58 23.48-21.58a32.519 32.519 0 0 1 14.4 3.5c-3.62-4.04-9.7-6.92-19.02-6.92-17.64 0-23.6 9.38-23.48 21.58a46.569 46.569 0 0 0 .22 4.74l2.18 16.26c.2 12.2 8 16.74 9.84 19.3a8.921 8.921 0 0 0 4.58 3.32c-1.96-2.58-9.58-7.2-9.8-19.2z" fill="#9fc8e2"/><path d="M43.76 62.46l4.32.2v-.6L45.9 45.8a45.999 45.999 0 0 1-.22-4.74c-.14-14.8 5.88-21.58 23.48-21.58a32.519 32.519 0 0 1 14.32 3.46 12.6 12.6 0 0 0-.7-.76c-3.74-3.54-9.6-6.04-18.28-6.04a27.999 27.999 0 0 0-15.22 3.62 16.994 16.994 0 0 0-3.18 2.6 14.793 14.793 0 0 0-1.84 2.34 17.28 17.28 0 0 0-1.4 2.62c-.14.3-.26.62-.38.94a26.22 26.22 0 0 0-1.46 9.48 41.41 41.41 0 0 0 .2 4.38v.34l2.18 16.26a16.443 16.443 0 0 0 .12 2 12.815 12.815 0 0 0 .24 1.74z" fill="#efefe1"/><path d="M63.37 84.41c-3.127 0-8.138-.35-11.72-5.2a15.378 15.378 0 0 0-1.52-1.597c-2.973-2.9-8.495-8.26-8.708-18.74l-2.165-16.146a48.864 48.864 0 0 1-.238-5.015c-.07-7.165 1.878-12.816 5.8-16.767C49.1 16.602 55.734 14.4 64.5 14.4s15.4 2.202 19.7 6.544c3.912 3.95 5.86 9.602 5.8 16.796a48.084 48.084 0 0 1-.231 4.917l-2.172 16.215c-.216 10.66-5.806 16.018-8.814 18.9a17.453 17.453 0 0 0-1.446 1.479c-3.798 5.146-9.325 5.146-12.295 5.147l-.856.005-.797.005zM64.5 18.4c-7.658 0-13.327 1.803-16.848 5.36-3.134 3.164-4.692 7.854-4.632 13.94a44.895 44.895 0 0 0 .211 4.565l2.172 16.19a2.288 2.288 0 0 1 .018.233c.145 8.907 4.57 13.2 7.5 16.056a17.485 17.485 0 0 1 1.965 2.11c2.673 3.62 6.622 3.58 9.24 3.55l.896-.005c2.734 0 6.48-.001 9.1-3.566a19.366 19.366 0 0 1 1.864-1.948c2.962-2.837 7.436-7.125 7.585-16.197a2.288 2.288 0 0 1 .018-.233l2.18-16.26a44.056 44.056 0 0 0 .203-4.465c.06-6.116-1.5-10.807-4.633-13.97-3.52-3.556-9.2-5.358-16.848-5.358z" fill="#333"/><path d="M75.94 35.74a11.44 11.44 0 1 0-19.5 8 11.22 11.22 0 0 1 3 7.68h10.12a11.22 11.22 0 0 1 2.94-7.62 10.98 10.98 0 0 0 3.44-8.06z" fill="#f29f1c"/><path d="M59.5 46.14a11.4 11.4 0 0 1 8-19.5 11.579 11.579 0 0 1 5.34 1.3A11.44 11.44 0 1 0 56.5 43.8a11.22 11.22 0 0 1 3 7.68h2.8a11.48 11.48 0 0 0-2.8-5.34z" fill="#f9bf08"/><path d="M60.38,51.5v3.18a3.74,3.74,0,0,0,3.74,3.74h.74a3.74,3.74,0,0,0,3.74-3.74V51.5Z" fill="#7f8587"/><path d="M62.98 56.82v-.42a2.76 2.76 0 0 1 2.76-2.76h2.88V51.5h-8.24v3.18a3.76 3.76 0 0 0 2.94 3.66 3.601 3.601 0 0 1-.34-1.52z" fill="#929799"/><g fill="#333"><path d="M69.56 52.42H59.44a1.001 1.001 0 0 1-1-1.004 10.19 10.19 0 0 0-2.732-6.996 12.438 12.438 0 0 1 .087-17.685 12.286 12.286 0 0 1 8.834-3.553A12.455 12.455 0 0 1 76.94 35.741a12.02 12.02 0 0 1-3.754 8.786 10.166 10.166 0 0 0-2.626 6.889.999.999 0 0 1-1 1.004zm-9.156-2h8.193a12.186 12.186 0 0 1 3.165-7.295 10.065 10.065 0 0 0 3.178-7.379v-.017a10.453 10.453 0 0 0-10.333-10.547 10.267 10.267 0 0 0-7.413 2.982 10.373 10.373 0 0 0-3.133 7.35 10.496 10.496 0 0 0 3.083 7.516 12.208 12.208 0 0 1 3.259 7.389z"/><path d="M64.86 59.42h-.74a4.745 4.745 0 0 1-4.74-4.74V51.5a1 1 0 0 1 1-1h8.22a1 1 0 0 1 1 1v3.18a4.745 4.745 0 0 1-4.74 4.74zm-3.48-6.92v2.18a2.743 2.743 0 0 0 2.74 2.74h.74a2.742 2.742 0 0 0 2.74-2.74V52.5zm5.18-12.7h-4.12a.5.5 0 0 1 0-1h4.12a.5.5 0 0 1 0 1zm0-2.36h-4.12a.5.5 0 0 1 0-1h4.12a.5.5 0 0 1 0 1zm0-2.34h-4.12a.5.5 0 0 1 0-1h4.12a.5.5 0 0 1 0 1z"/><path d="M64 39.74h1V52h-1zm-3.5 29.68h8v2h-8zm.87-3.933a71.171 71.171 0 0 1-17.111-2.097l.48-1.94a69.318 69.318 0 0 0 19.716 1.972 69.54 69.54 0 0 0 19.804-1.972l.48 1.94a71.401 71.401 0 0 1-20.284 2.028q-1.54.068-3.085.068z"/></g></svg>