<svg xmlns="http://www.w3.org/2000/svg" xmlns:xlink="http://www.w3.org/1999/xlink" viewBox="0 0 128 128"><style><![CDATA[.B{fill:none}.C{stroke:#333}.D{stroke-linejoin:round}.E{stroke-width:4}.F{stroke-width:2}]]></style><use xlink:href="#B" fill="#8c8880"/><g fill="#666054"><path d="M39.88 85.9l24.156 24.152c23.27-.5 41.648-9.6 42.077-9.952-1.96-5.13-2.71-9.876-8.923-11.435C86.152 85.92 80.77 84.1 62.113 84.1a126.985 126.985 0 0 0-22.233 1.8z"/><path d="M97.2 94.7c-11.038-2.755-16.418-4.565-35.077-4.565A130.707 130.707 0 0 0 27.148 94.7c-5.278 1.325-5.895 1.75-7.357 6.225a105.59 105.59 0 0 0 42.321 9.183 107.299 107.299 0 0 0 42.111-9.064c-1.256-2.95-2.982-5.327-7.034-6.344z"/></g><path d="M97.2 94.7c-11.038-2.755-16.418-4.565-35.077-4.565a132.899 132.899 0 0 0-16.996 1.01l18.92 18.916a108.812 108.812 0 0 0 38.559-8.303l.06-.026 1.212-.53.273-.12.082-.038c-1.256-2.95-2.982-5.325-7.034-6.343z" fill="#5b5446"/><path d="M76.902 86.263a15.04 15.04 0 0 0-.089-1.6c-3.926-.357-8.595-.554-14.7-.554a136.078 136.078 0 0 0-14.93.766c-.042.458-.07.92-.07 1.388a14.895 14.895 0 1 0 29.789 0z" fill="#544c3e"/><use xlink:href="#B" class="B C D E"/><path d="M52.113 76.134h20a0 0 0 0 1 0 0v10a10 10 0 1 1-20 0v-10a0 0 0 0 1 0 0z" fill="#959fa0"/><g class="B D"><path d="M72.113 80.134c-2.7 2.667-17.3 2.667-20 0m20 4c-2.7 2.667-17.3 2.667-20 0m20 4c-2.7 2.667-17.3 2.667-20 0" stroke="#5d6268" class="F"/><path d="M52.113 76.134h20a0 0 0 0 1 0 0v10a10 10 0 1 1-20 0v-10a0 0 0 0 1 0 0z" class="C E"/></g><ellipse cx="62.113" cy="72.822" rx="17.688" ry="8.451" fill="#626b6b"/><path d="M62.113 64.37c-9.768 0-17.687 3.784-17.687 8.45 0 2.212 1.793 4.218 4.703 5.725a12.848 12.848 0 0 0 3.928-1.422l2.547-1.415a13.326 13.326 0 0 1 13.02 0l2.547 1.415a12.848 12.848 0 0 0 3.928 1.422c2.9-1.506 4.703-3.513 4.703-5.725 0-4.667-7.92-8.45-17.688-8.45z" fill="#516060"/><ellipse cx="62.113" cy="73.134" rx="18" ry="9" class="B C D E"/><g fill="#8c8880"><path d="M43.353 101.62h43.56a5.4 5.4 0 0 1 2.318.525 5.428 5.428 0 0 0-5.338-4.454h-43.56a5.43 5.43 0 0 0-5.43 5.43v2.94l3.032.748a5.426 5.426 0 0 1 5.418-5.19z"/><use xlink:href="#C"/></g><path d="M62.113 110.11a103.565 103.565 0 0 0 26-3.479v-4.495h-46a2 2 0 0 0-2 2v3.483a101.66 101.66 0 0 0 22 2.491z" fill="#666054"/><use xlink:href="#C" stroke-width="3" class="B C D"/><use xlink:href="#D" fill="#acb6b7"/><path d="M32.113 34.134a4 4 0 0 0-4 4v34a7.957 7.957 0 0 0 .216 1.784 7.975 7.975 0 0 0 1.784.216h17.02a9.811 9.811 0 0 0 5.455-1.656l4.07-2.722a9.812 9.812 0 0 1 10.91 0l4.07 2.722a9.811 9.811 0 0 0 5.455 1.656h17.02a8 8 0 0 0 8-8v-30a7.957 7.957 0 0 0-.216-1.784 7.982 7.982 0 0 0-1.784-.216z" fill="#90a0a3"/><path d="M28.113 50.134h28a0 0 0 0 1 0 0v14a4 4 0 0 1-4 4h-20a4 4 0 0 1-4-4v-14a0 0 0 0 1 0 0z" fill="#7f9193"/><circle cx="42.159" cy="50.184" r="14" fill="#b5c1c6"/><circle cx="42.159" cy="50.184" r="10" fill="#a1acb2"/><circle cx="42.159" cy="50.184" r="7" fill="#333"/><circle cx="42.159" cy="50.184" r="14" class="B C D F"/><circle cx="40.018" cy="47.996" r="2" fill="#ccc"/><circle cx="44.756" cy="52.71" r="1.004" fill="#aaa"/><path d="M68.067 50.134h28a0 0 0 0 1 0 0v14a4 4 0 0 1-4 4h-20a4 4 0 0 1-4-4v-14a0 0 0 0 1 0 0z" fill="#7f9193"/><circle cx="82.113" cy="50.184" r="14" fill="#b5c1c6"/><circle cx="82.113" cy="50.184" r="10" fill="#a1acb2"/><circle cx="82.113" cy="50.184" r="14" class="B C D F"/><circle cx="82.113" cy="50.184" r="7" fill="#333"/><circle cx="79.972" cy="47.996" r="2" fill="#ccc"/><circle cx="84.71" cy="52.71" r="1.004" fill="#aaa"/><g class="B C"><g class="D E"><path d="M62.113 22.134v5.975"/><use xlink:href="#D"/></g><path d="M58.113 76.134h8" stroke-miterlimit="10" class="F"/></g><circle cx="62.113" cy="16.134" r="6" fill="#708eba"/><path d="M59.135 18.94a5.993 5.993 0 0 1 8.288-5.543 5.988 5.988 0 1 0-7.599 8.28 5.934 5.934 0 0 1-.689-2.737z" fill="#82a6d1"/><circle cx="62.113" cy="16.134" r="6" class="B C E"/><defs ><path id="B" d="M97.2 88.675C86.152 85.92 80.77 84.1 62.113 84.1a130.703 130.703 0 0 0-34.965 4.565c-6.853 1.72-5.84 1.894-9.035 11.433a103.838 103.838 0 0 0 44 10.001c24.18 0 43.56-9.636 44-10-1.96-5.132-2.71-9.876-8.923-11.435z"/><path id="C" d="M62.113 110.11a103.565 103.565 0 0 0 26-3.479v-4.495a4 4 0 0 0-4-4h-44a4 4 0 0 0-4 4v4.514a103.096 103.096 0 0 0 26 3.46z"/><path id="D" d="M94.113 74.134h-17.02a9.811 9.811 0 0 1-5.455-1.656l-4.07-2.722a9.811 9.811 0 0 0-10.91 0l-4.07 2.722a9.812 9.812 0 0 1-5.455 1.656h-17.02a8 8 0 0 1-8-8v-30a8 8 0 0 1 8-8h64a8 8 0 0 1 8 8v30a8 8 0 0 1-8 8z"/></defs></svg>