<svg xmlns="http://www.w3.org/2000/svg" viewBox="0 0 128 128"><style><![CDATA[.B{fill:#333}.C{fill:#d62c4d}.D{fill:#e97168}.E{fill:#343433}.F{fill:#f1d5ba}.G{fill:#608d3e}.H{fill:#5583c3}]]></style><path d="M52.97 82.162v-10h28v10l29.14 8.6a8 8 0 0 1 5.68 6.38l1.18 7.02a123.8 123.8 0 0 1-50 10 123.399 123.399 0 0 1-50-10l1.16-7.02a8 8 0 0 1 5.7-6.38z" fill="#9b735d"/><path d="M71.9 88.762a1 1 0 0 0-.92-.62h-8a.98.98 0 0 0-.92.62.94.94 0 0 0 .22 1.08l4 4a1.02 1.02 0 0 0 1.42 0l4-4a.98.98 0 0 0 .2-1.08z" fill="#f6eedc"/><path d="M81.4 113.382L44.3 84.722l-19.82 5.86 12.4 20.16a131.347 131.347 0 0 0 30.1 3.42 134.033 134.033 0 0 0 14.44-.78z" class="H"/><path d="M33.95 87.882l-9.48 2.8 12.4 20.16 9.62 1.82z" fill="#4265ae"/><path d="M44 85.315l1.92-2.306 35.98 29.96-1.92 2.306z" class="E"/><path d="M66.97 78.122a23.3 23.3 0 0 1-12.64-4v4a23.699 23.699 0 0 0 12.64 4 24.279 24.279 0 0 0 12.64-4v-4a24.219 24.219 0 0 1-12.64 4z" fill="#4265ae"/><path d="M66.97 82.162a23.302 23.302 0 0 1-12.64-4v4a23.52 23.52 0 0 0 12.64 4 24.281 24.281 0 0 0 12.64-4v-4a24.281 24.281 0 0 1-12.64 4z" class="H"/><path d="M70.97 81.702l-4 4.46-3.94-4.46 3.94-3.58 4 3.58z" class="F"/><path d="M67.006 87.662a29.676 29.676 0 0 1-14.808-4.213 1.5 1.5 0 0 1 1.544-2.572 26.629 26.629 0 0 0 13.252 3.786 27.479 27.479 0 0 0 13.214-3.792 1.5 1.5 0 1 1 1.522 2.585 30.528 30.528 0 0 1-14.725 4.207z" class="B"/><path d="M59.53 80.342a.581.581 0 1 1 0-.02q.001.01 0 .02zm2.02.78a.58.58 0 0 1-.559.6h-.04a.6.6 0 0 1 0-1.18.62.62 0 0 1 .6.58zm12.8-.78a.579.579 0 1 0 0-.02zm-2.02.78a.6.6 0 1 0 .6-.6.58.58 0 0 0-.6.559v.04z" class="F"/><path d="M65.588 115.67a124.052 124.052 0 0 1-49.21-10.129 1.5 1.5 0 0 1-.888-1.623l1.16-7.02a9.542 9.542 0 0 1 6.769-7.579l28.05-8.278v-8.88a1.5 1.5 0 0 1 1.5-1.5h28a1.5 1.5 0 0 1 1.5 1.5v8.88l28.065 8.283a9.542 9.542 0 0 1 6.735 7.574l1.18 7.016a1.5 1.5 0 0 1-.888 1.627 124.61 124.61 0 0 1-50.606 10.121l-1.367.007zm-46.946-12.428a121.02 121.02 0 0 0 48.311 9.42 121.537 121.537 0 0 0 48.34-9.42l-.983-5.85a6.533 6.533 0 0 0-4.616-5.187L80.545 83.6a1.499 1.499 0 0 1-1.075-1.438v-8.5h-25v8.5a1.499 1.499 0 0 1-1.075 1.439l-29.14 8.6a6.534 6.534 0 0 0-4.645 5.188zm34.327-21.08z" class="E"/><path d="M90.97 38.162v-6c0-10.2-8-20.28-24-20.28s-24 10-24 20.28v6s-6.4-.3-4 8c1.12 3.86 3.38 7.48 6 8v.14c0 14 14 23.82 22 23.82s22-9.82 22-23.82v-.14c2.6-.6 4.9-4.2 6-8 2.58-8.88-4-8-4-8z" fill="#aa8064"/><path d="M90.97 38.162v-6c0-10.2-8-20.28-24-20.28a35.325 35.325 0 0 0-5.6.44v24a8.12 8.12 0 0 1-2.54 6 .92.92 0 0 0 .4 1.58 5.22 5.22 0 0 1 3.76 3.86.98.98 0 0 0 1.54.6 2.899 2.899 0 0 1 1.16-.64.98.98 0 0 1 1.22.98v4.24a2.26 2.26 0 0 0 1.24 2c1.14.64.32 2.88-1.24 2.88a3.2 3.2 0 0 1-1.78-.48c-1.48-.76-2.86.8-2.54 1.38s.68 0 2.16.72a5.022 5.022 0 0 0 2.2.54v7.54a.82.82 0 0 0 .62.78c2.62.62 4 5.12-.62 6a2.54 2.54 0 0 0-2 2.48v1.1a11.605 11.605 0 0 0 2.14.22c8 0 22-9.82 22-23.82v-.14c2.6-.6 4.9-4.2 6-8 2.46-8.86-4.12-7.98-4.12-7.98z" fill="#9b735d"/><path d="M66.97 79.623c-9.042 0-22.88-10.402-23.48-24.378-2.906-1.335-4.956-5.203-5.96-8.665-.976-3.373-.756-5.987.652-7.772a5.704 5.704 0 0 1 3.288-1.98v-4.666c0-10.355 7.98-21.5 25.5-21.5s25.5 11.145 25.5 21.5v4.553a5.377 5.377 0 0 1 3.273 1.73c1.503 1.748 1.728 4.485.668 8.135-.94 3.252-3.018 7.22-5.96 8.638-.585 13.99-14.433 24.405-23.48 24.405zM42.885 39.66a3.179 3.179 0 0 0-2.36 1.022c-.75.97-.79 2.72-.114 5.063 1.067 3.678 3.108 6.6 4.85 6.945a1.5 1.5 0 0 1 1.208 1.471v.14c0 13.116 13.3 22.32 20.5 22.32s20.5-9.205 20.5-22.32v-.14a1.5 1.5 0 0 1 1.163-1.461c1.8-.413 3.85-3.338 4.896-6.956.735-2.53.717-4.422-.05-5.33a2.936 2.936 0 0 0-2.322-.764 1.511 1.511 0 0 1-1.687-1.488v-6c0-12.71-11.663-18.5-22.5-18.5s-22.5 5.79-22.5 18.5v6a1.5 1.5 0 0 1-1.57 1.499z" class="B"/><path d="M86.77 80.042c-1.18 8-9.6 14-19.82 14s-18.64-6.14-19.82-14a15.059 15.059 0 0 0-4.16 10.16c0 10 10.74 16 24 16s24-6 24-16a15.16 15.16 0 0 0-4.2-10.16z" fill="#e8a146"/><path d="M43.63 83.642l.12.14" class="D"/><path d="M43.97 64.662a4.505 4.505 0 0 1-4.5-4.5v-10h3v10a1.5 1.5 0 0 0 3 0v-9a1.502 1.502 0 0 0-1.5-1.5v-3a4.505 4.505 0 0 1 4.5 4.5v9a4.505 4.505 0 0 1-4.5 4.5z" class="B"/><path d="M94.97 69.662h-8a1.5 1.5 0 0 1 0-3h8a1.5 1.5 0 0 1 0 3z" fill="#aa3061"/><path d="M93.47 72.162h3v4h-3z" class="G"/><path d="M89.47 72.162h3v4h-3z" fill="#ea9226"/><path d="M85.47 72.162h3v4h-3z" class="G"/><path d="M89.97 64.662a4.505 4.505 0 0 1-4.5-4.5v-9a4.505 4.505 0 0 1 4.5-4.5v3a1.502 1.502 0 0 0-1.5 1.5v9a1.5 1.5 0 1 0 3 0v-9h3v9a4.505 4.505 0 0 1-4.5 4.5z" class="B"/><path d="M66.97 12.122c-16 0-24 9.84-24 20v6c2 0 4 0 4 4v-6c0-6 4-14 20-10 16-4 20 4 20 10v6c0-4 2-4 4-4v-6c0-10.24-8-20-24-20z" fill="#56524f"/><path d="M86.97 43.623a1.5 1.5 0 0 1-1.5-1.5v-6a9.325 9.325 0 0 0-3.276-7.455c-3.05-2.38-8.188-2.758-14.86-1.1a1.503 1.503 0 0 1-.728 0c-6.673-1.668-11.81-1.3-14.86 1.1a9.325 9.325 0 0 0-3.276 7.455v6a1.5 1.5 0 0 1-3 0c0-2.5-.53-2.5-2.5-2.5a1.5 1.5 0 0 1-1.5-1.5v-6c0-10.355 7.98-21.5 25.5-21.5 7.828 0 14.406 2.27 19.022 6.562a20.179 20.179 0 0 1 6.478 14.938v6a1.5 1.5 0 0 1-1.5 1.5c-1.97 0-2.5 0-2.5 2.5a1.5 1.5 0 0 1-1.5 1.5zm-12.205-20.08a14.672 14.672 0 0 1 9.275 2.761 12.261 12.261 0 0 1 4.43 9.82v.764a5.929 5.929 0 0 1 1-.2v-4.564c0-9.208-6.957-18.5-22.5-18.5-10.837 0-22.5 5.79-22.5 18.5v4.564a5.929 5.929 0 0 1 1 .2v-.764a12.261 12.261 0 0 1 4.43-9.82c3.798-2.965 9.54-3.544 17.07-1.725a33.468 33.468 0 0 1 7.795-1.036z" class="B"/><path d="M46.97 69.662h-8a1.5 1.5 0 1 1 0-3h8a1.5 1.5 0 0 1 0 3z" fill="#aa3061"/><path d="M45.47 72.162h3v4h-3z" class="G"/><path d="M41.47 72.162h3v4h-3z" fill="#ea9226"/><path d="M37.47 72.162h3v4h-3z" class="G"/><path d="M66.97 107.702c-15.014 0-25.5-7.196-25.5-17.5a16.527 16.527 0 0 1 4.575-11.195 1.5 1.5 0 0 1 2.569.813c1.088 7.253 8.972 12.723 18.336 12.723 9.384 0 17.267-5.468 18.336-12.72a1.5 1.5 0 0 1 2.568-.818 16.618 16.618 0 0 1 4.616 11.165c0 10.335-10.486 17.53-25.5 17.53zM46.465 83.35a13.513 13.513 0 0 0-1.995 6.875c0 8.515 9.253 14.477 22.5 14.477s22.5-5.962 22.5-14.5a13.574 13.574 0 0 0-2.028-6.853c-2.735 7.13-10.958 12.194-20.492 12.194-9.515 0-17.735-5.062-20.485-12.193z" class="B"/><circle cx="66.97" cy="112.162" r="6" fill="#e8a146"/><path d="M68.97 112.162a2 2 0 1 1-2-2 2 2 0 0 1 2 2z" class="H"/><path d="M66.97 119.662a7.5 7.5 0 1 1 7.5-7.5 7.508 7.508 0 0 1-7.5 7.5zm0-12a4.5 4.5 0 1 0 4.5 4.5 4.505 4.505 0 0 0-4.5-4.5z" class="B"/><path d="M71.9 97.762a1 1 0 0 0-.92-.62h-8a1 1 0 0 0-1 1 .96.96 0 0 0 .3.72l4 4a1.02 1.02 0 0 0 .7.3.98.98 0 0 0 .72-.3l4-4a1.02 1.02 0 0 0 .2-1.1z" fill="#f6eedc"/><path d="M40.77 111.762L28.5 87.222a3.02 3.02 0 0 0-4-1.36l-.32.2-3.18 2a16.16 16.16 0 0 0-7 11.1l-.6 3.92a221.777 221.777 0 0 0 27.36 8.68z" class="C"/><path d="M20.95 88.162c-.12-.24-.98.72-2.12 1.74a16 16 0 0 0-4.88 9.36l-.54 3.82 19.56 7.08z" class="F"/><path d="M19.97 104.162h-2c0-12.68 10.7-14.96 10.8-14.98l.4 2c-.38.04-9.2 1.98-9.2 12.98zm4 2h-2a12.74 12.74 0 0 1 8.76-12.98l.48 2c-.28.02-7.24 1.92-7.24 10.98zm4 2h-2c0-10.88 6.94-11 7-11v2c-.2 0-5 .2-5 9zm4 0h-2c0-6.92 4.96-7 5-7v2c-.3 0-3 .22-3 5z" fill="#e16172"/><path d="M28.93 107.982l-.88-1.6a12.435 12.435 0 0 1 .84-3.7l-1.16-2.12a9.998 9.998 0 0 0-1.22 2.98l-1.48-2.72a10.837 10.837 0 0 1 1.48-2.5l-1.1-1.84a13.374 13.374 0 0 0-1.64 2.2l-1.44-2.8a11.053 11.053 0 0 1 1.74-2l-.96-1.76a15.822 15.822 0 0 0-1.82 1.84l-2.18-4.08-1.7 1.04 2.6 4.96a17.557 17.557 0 0 0-1 2.16l-2.32-4.64-1.8.9 3.36 6.7a19.255 19.255 0 0 0-.28 3.22h1.88l1.28 2.56 1.14-.56h1.7a14.768 14.768 0 0 1 .24-2.66l1.84 3.38v.94l.64.24.54.98zm-6.84-3.82l-1.78-3.56a14.333 14.333 0 0 1 .86-2.72l1.64 3a15.235 15.235 0 0 0-.72 3.28z" class="D"/><path d="M27.2 108.162h.78v-1.78l-1.54-2.84a17.212 17.212 0 0 0-.46 3.34l.58 1.08z" class="C"/><path d="M30.33 105.322a11.276 11.276 0 0 0-.36 2.84h2z" class="D"/><path d="M22.33 95.882l-1.04-2a13.302 13.302 0 0 0-1.28 1.86l1.16 2.14a11.07 11.07 0 0 1 1.16-2zm-2.03 4.72l-1.3-2.62a16.921 16.921 0 0 0-.76 2.96l1.6 3.22h.12a17.734 17.734 0 0 1 .34-3.56zm3.55-1.92a13.57 13.57 0 0 0-1.04 2.26l1.4 2.56a11.517 11.517 0 0 1 .82-2.68z" class="C"/><path d="M40.77 113.262a1.488 1.488 0 0 1-.36-.044 224.02 224.02 0 0 1-27.545-8.738 1.501 1.501 0 0 1-.938-1.624l.6-3.92a17.684 17.684 0 0 1 7.649-12.119l3.54-2.226a1.42 1.42 0 0 1 .146-.081 4.547 4.547 0 0 1 5.987 2.035l12.263 24.547a1.5 1.5 0 0 1-1.342 2.17zM15.075 102.12a221.322 221.322 0 0 0 22.887 7.378L27.17 87.893a1.528 1.528 0 0 0-1.946-.706l-3.413 2.145a14.665 14.665 0 0 0-6.315 10.046z" class="E"/><path d="M93.17 111.762l12.24-24.54a3.02 3.02 0 0 1 4-1.34l.32.2 3.16 2a16.001 16.001 0 0 1 7 11.1l.54 3.82a218.276 218.276 0 0 1-27.26 8.76z" class="C"/><path d="M113 88.162c.12-.24.98.72 2.12 1.74a16.001 16.001 0 0 1 4.88 9.36l.54 3.82-19.56 7.08z" class="F"/><path d="M113.97 104.162h2c0-12.68-10.7-14.96-10.8-14.98l-.4 2c.38.04 9.2 1.98 9.2 12.98zm-4 2h2c0-10.66-8.66-12.96-8.76-12.98l-.48 2c.3.02 7.24 1.92 7.24 10.98zm-4 2h2c0-10.88-6.92-11-7-11v2c.2 0 5 .2 5 9zm-4 0h2c0-6.92-4.94-7-5-7v2c.3 0 3 .22 3 5z" fill="#e16172"/><path d="M106.77 108.942l.64-1.06.64-.24v-.84l1.86-3.38a14.784 14.784 0 0 1 .22 2.66h1.7l1.14.56 1.28-2.56h1.88a19.264 19.264 0 0 0-.28-3.22l3.36-6.7-1.8-.9-2.32 4.62a12.444 12.444 0 0 0-1-2.16l2.66-4.86-1.76-.98-2.16 4a16.002 16.002 0 0 0-1.84-1.84l-.96 1.76a11.159 11.159 0 0 1 1.76 2l-1.54 2.8a13.386 13.386 0 0 0-1.64-2.2l-1 1.84a10.844 10.844 0 0 1 1.48 2.5l-1.68 2.8a10.003 10.003 0 0 0-1.22-2.98l-1.14 2.12a12.402 12.402 0 0 1 .82 3.7l-.88 1.6zm4.36-8l1.64-3a12.527 12.527 0 0 1 .86 2.66l-1.78 3.56a14.723 14.723 0 0 0-.72-3.22z" class="D"/><path d="M106.75 108.162h-.78a13.25 13.25 0 0 0 0-1.78l1.44-2.84a17.227 17.227 0 0 1 .46 3.34l-.46 1z" class="C"/><path d="M103.6 105.322a11.281 11.281 0 0 1 .36 2.84h-2z" class="D"/><path d="M111.63 95.882l1.04-2a19.002 19.002 0 0 1 1.26 1.86l-1.16 2.14a10.001 10.001 0 0 0-1.14-2zm2 4.72l1.3-2.62a16.93 16.93 0 0 1 .76 2.96l-1.6 3.22h-.12a17.749 17.749 0 0 0-.34-3.56zm-3.53-1.92a12.143 12.143 0 0 1 1.04 2.26l-1.38 2.56a11.526 11.526 0 0 0-.82-2.68z" class="C"/><path d="M93.17 113.262a1.5 1.5 0 0 1-1.342-2.169l12.24-24.54a4.496 4.496 0 0 1 5.995-2.021 1.484 1.484 0 0 1 .144.079l3.486 2.204a17.53 17.53 0 0 1 7.683 12.158l.54 3.82a1.501 1.501 0 0 1-.934 1.605 220.688 220.688 0 0 1-27.448 8.82 1.496 1.496 0 0 1-.364.044zm14.92-26.183a1.511 1.511 0 0 0-1.347.828l-10.763 21.58a217.775 217.775 0 0 0 22.797-7.448l-.374-2.647a14.508 14.508 0 0 0-6.344-10.06l-3.366-2.128a1.524 1.524 0 0 0-.604-.125z" class="E"/><g class="B"><circle cx="76.41" cy="49.482" r="1.5"/><path d="M81.93 46.122a22.765 22.765 0 0 0-2.52-.24 12.14 12.14 0 0 0-2.42 0 18.074 18.074 0 0 0-2.46.26 10.519 10.519 0 0 1-2.78.16.46.46 0 0 1-.34-.42.42.42 0 0 1 .34-.38 21.792 21.792 0 0 0 2.4-.86 8.759 8.759 0 0 1 2.66-.76 10.396 10.396 0 0 1 2.84.32 11.554 11.554 0 0 1 2.58 1.02.46.46 0 0 1 .2.619v.001a.42.42 0 0 1-.46.24z"/><circle cx="58.45" cy="49.482" r="1.5"/><path d="M52.63 45.262a11.55 11.55 0 0 1 2.58-1.02 10.397 10.397 0 0 1 2.84-.36 8.62 8.62 0 0 1 2.72.68 21.804 21.804 0 0 0 2.4.86.46.46 0 0 1 .325.564l-.005.016a.48.48 0 0 1-.38.34 11.445 11.445 0 0 1-2.78-.16l-2.46-.26a12.199 12.199 0 0 0-2.46-.04 22.34 22.34 0 0 0-2.54.26.46.46 0 0 1-.519-.392l-.001-.008a.46.46 0 0 1 .28-.48z"/></g><path d="M69.2 63.702a4.639 4.639 0 0 1-1.82.42c-.48 0-.52 0-1.58-.42-1.88-.66-2 1.64-5.46 2.76l2.16 1.72a4.22 4.22 0 0 0 3.18 1.16h3.28a4.8 4.8 0 0 0 3.42-1.26l2-1.62c-3.3-1.06-3.3-3.42-5.18-2.76z" fill="#936b57"/><path d="M60.13 67.603a.5.5 0 0 1-.448-.72l.56-1.14a.5.5 0 0 1 .898.44l-.56 1.14a.499.499 0 0 1-.449.28zm14.42 0a.5.5 0 0 1-.448-.276l-.58-1.16a.5.5 0 1 1 .895-.447l.58 1.16a.5.5 0 0 1-.447.724z" fill="#936b55"/><path d="M67.4 60.932a4.584 4.584 0 0 1-2.335-.579 3.137 3.137 0 0 0-1.665-.421.75.75 0 0 1 0-1.5 4.584 4.584 0 0 1 2.335.579 3.502 3.502 0 0 0 3.329 0 4.584 4.584 0 0 1 2.335-.579.75.75 0 0 1 0 1.5 3.137 3.137 0 0 0-1.665.421 4.584 4.584 0 0 1-2.335.579zm6.152 6.092a2.664 2.664 0 0 1-1.253-.298 5.183 5.183 0 0 0-2.175-.464 9.332 9.332 0 0 0-2.691.286l-.12.03-.12-.03a10.315 10.315 0 0 0-2.5-.287 6.233 6.233 0 0 0-2.232.401 4.391 4.391 0 0 1-1.772.319.5.5 0 0 1 0-1 3.454 3.454 0 0 0 1.428-.258 7.231 7.231 0 0 1 2.553-.461 10.853 10.853 0 0 1 2.637.286 10.4 10.4 0 0 1 2.862-.286 6.124 6.124 0 0 1 2.541.552 1.831 1.831 0 0 0 1.19.19.5.5 0 1 1 .1.995l-.448.024z" fill="#674848"/></svg>