<svg xmlns="http://www.w3.org/2000/svg" xmlns:xlink="http://www.w3.org/1999/xlink" viewBox="0 0 128 128"><path fill="#6681af" d="M66 122.05l28.2-38.2s21-3.4 22.4 29.6a126.144 126.144 0 0 1-50.6 10.6 125.202 125.202 0 0 1-50.4-10.6C17 80.65 38 83.85 38 83.85z"/><path fill="#526b99" d="M115.2 113.85c-5-26.2-25.8-23.8-25.8-23.8l-23.4 32-23.2-31.8S22 87.85 17 114.05a124.114 124.114 0 0 0 98.2-.2z"/><path fill="#e6b790" d="M89.6 89.65c-3.2-1-9-3.6-10.6-6v-8H53.4v8c-1.6 3-6.8 5.4-10.6 6a27.848 27.848 0 0 0 38.4 8.4 33.517 33.517 0 0 0 8.4-8.4z"/><path fill="#d8a782" d="M53.4 75.65v1.4l11 11.4a8.287 8.287 0 0 1 2.2 6 5.124 5.124 0 0 0 5 5.2h1.2a6.511 6.511 0 0 0 6.2-6.2v-17.6H53.4z"/><path fill="#333" d="M42.798 90.95a1.5 1.5 0 0 1-.232-2.981c3.4-.537 7.832-2.613 9.334-4.926V75.65a1.5 1.5 0 0 1 3 0v7.8a1.499 1.499 0 0 1-.176.706c-1.864 3.496-7.414 6.1-11.7 6.776a1.489 1.489 0 0 1-.236.019zm46.802.2a1.503 1.503 0 0 1-.448-.069c-2.294-.717-9.313-3.468-11.4-6.6a1.5 1.5 0 0 1-.252-.832v-8a1.5 1.5 0 0 1 3 0v7.493c1.503 1.715 6.07 4 9.547 5.076a1.5 1.5 0 0 1-.447 2.932z"/><path fill="#edf7f6" d="M50.4 82.45l15.8 20.8 16-20.8 9.8 4.6-25.6 35-25.8-35 9.8-4.6z"/><g fill="#d5e7e5"><path d="M92 87.05l-25.6 35-4.2-5.6 24.4-32 5.4 2.6z"/><path d="M69.2 107.25l4 5.2 18.6-25.4-5.2-2.6-17.4 22.8z"/></g><path fill="#6681af" d="M38.2 94.85h1.6a1.721 1.721 0 0 1 1.6 1.6v1.4a1.721 1.721 0 0 1-1.6 1.6h-1.4a1.721 1.721 0 0 1-1.6-1.6v-1.4a1.319 1.319 0 0 1 1.4-1.6zm5.4 7.4H45a1.721 1.721 0 0 1 1.6 1.6v1.4a1.721 1.721 0 0 1-1.6 1.6h-1.4a1.721 1.721 0 0 1-1.6-1.6v-1.4a1.578 1.578 0 0 1 1.6-1.6zm5.4 7.6h1.4a1.721 1.721 0 0 1 1.6 1.6v1.6a1.721 1.721 0 0 1-1.6 1.6H49a1.721 1.721 0 0 1-1.6-1.6v-1.4a1.531 1.531 0 0 1 1.6-1.8zm5.2 7.4h1.4a1.721 1.721 0 0 1 1.6 1.6v1.4a1.721 1.721 0 0 1-1.6 1.6h-1.4a1.721 1.721 0 0 1-1.6-1.6v-1.4a1.721 1.721 0 0 1 1.6-1.6z"/><path fill="#333" d="M23.744 88.87l2.512-1.64 22.6 34.6-2.512 1.64z"/><path fill="#6681af" d="M92.8 94.85h1.4a1.721 1.721 0 0 1 1.6 1.6v1.4a1.721 1.721 0 0 1-1.6 1.6h-1.4a1.721 1.721 0 0 1-1.6-1.6v-1.4c-.2-1 .6-1.6 1.6-1.6zm-5.4 7.4h1.4a1.721 1.721 0 0 1 1.6 1.6v1.4a1.721 1.721 0 0 1-1.6 1.6h-1.4a1.721 1.721 0 0 1-1.6-1.6v-1.4a1.578 1.578 0 0 1 1.6-1.6zm-5.4 7.6h1.4a1.721 1.721 0 0 1 1.6 1.6v1.6a1.721 1.721 0 0 1-1.6 1.6H82a1.721 1.721 0 0 1-1.6-1.6v-1.4a1.531 1.531 0 0 1 1.6-1.8zm-5.4 7.4H78a1.721 1.721 0 0 1 1.6 1.6v1.4a1.721 1.721 0 0 1-1.6 1.6h-1.4a1.721 1.721 0 0 1-1.6-1.6v-1.4a1.578 1.578 0 0 1 1.6-1.6z"/><g fill="#333"><path d="M83.544 121.837l22.394-34.604 2.52 1.63-22.394 34.604zM60.4 113.363l-2.4-1.825 23.735-30.96 10.892 5.113-1.274 2.716-8.707-4.087-22.265 29.042z"/><path d="M65.006 104.157L49.94 84.323l-8.702 4.085-1.274-2.716 10.898-5.115 16.534 21.766-2.39 1.814z"/><path d="M66 125.55a126.513 126.513 0 0 1-51.001-10.726 1.499 1.499 0 0 1-.897-1.438c.538-12.607 3.965-21.595 10.186-26.713a18.932 18.932 0 0 1 13.939-4.306 1.5 1.5 0 0 1 .984.596l26.794 36.555 26.99-36.56a1.499 1.499 0 0 1 .967-.59 18.754 18.754 0 0 1 13.91 4.187c6.248 5.093 9.69 14.12 10.228 26.83a1.499 1.499 0 0 1-.897 1.438A126.986 126.986 0 0 1 66 125.55zm29.013-40.275l-27.51 37.266a123.953 123.953 0 0 0 47.549-10.055c-.632-11.27-3.684-19.21-9.076-23.605a16.032 16.032 0 0 0-10.962-3.606zm-77.863 27.21a123.502 123.502 0 0 0 47.35 10.055L37.192 85.285a16.382 16.382 0 0 0-11.045 3.744c-5.342 4.428-8.366 12.317-8.997 23.457z"/></g><path fill="#444" d="M66.2,6.25c-21,0-24.2,22.4-24.2,22.4H90.4S87.2,6.25,66.2,6.25Z"/><path fill="#333" d="M66.2 10.05c-23.4 0-27 22.4-27 22.4H93s-3.4-22.4-26.8-22.4z"/><g fill="#444"><path d="M66 12.25a34.19 34.19 0 0 0-6.4 0 21.779 21.779 0 0 0-6.2 1.6 13.334 13.334 0 0 0-5 3.8 19.964 19.964 0 0 0-3 5.8 15.656 15.656 0 0 1 2.4-6.4 14.369 14.369 0 0 1 5-4.8 18.667 18.667 0 0 1 6.6-2.4 26.867 26.867 0 0 1 7-.6 1.503 1.503 0 1 1-.2 3z"/><path d="M66 12.25a26.208 26.208 0 0 0-5.6 0 12.36 12.36 0 0 0-5.4 1.8 16.683 16.683 0 0 0-2.4 1.6c-.6.8-1.4 1.4-2 2.2a18.607 18.607 0 0 0-2.4 5.4 19.56 19.56 0 0 1 1.8-5.8 12.029 12.029 0 0 1 1.8-2.6 12.557 12.557 0 0 1 2.4-2.2 22.158 22.158 0 0 1 5.8-2.8 23.886 23.886 0 0 1 6.6-.8 1.503 1.503 0 0 1-.2 3c-.2.2-.2.2-.4.2z"/><path d="M66.2 12.25a21.358 21.358 0 0 0-5 .6 18.864 18.864 0 0 0-4.6 2 15.38 15.38 0 0 0-3.6 3.6 20.876 20.876 0 0 0-2.2 4.8 15.429 15.429 0 0 1 1.4-5.2 14.462 14.462 0 0 1 3.4-4.4 19.474 19.474 0 0 1 4.8-3 17.731 17.731 0 0 1 5.6-1.4 1.546 1.546 0 0 1 1.6 1.4 1.521 1.521 0 0 1-1.2 1.6z"/><path d="M66 9.25a39.653 39.653 0 0 1 7 .6 29.247 29.247 0 0 1 6.6 2.4 14.369 14.369 0 0 1 5 4.8c1.4 1.8 1.8 4.2 2.4 6.4a12.43 12.43 0 0 0-3-5.8 12.599 12.599 0 0 0-5.2-4 21.779 21.779 0 0 0-6.2-1.6 34.208 34.208 0 0 0-6.4 0 1.557 1.557 0 0 1-1.8-1.2c-.2-.8.6-1.6 1.6-1.6z"/><path d="M66 9.25a23.886 23.886 0 0 1 6.6.8 17.27 17.27 0 0 1 5.8 2.8 23.971 23.971 0 0 1 2.4 2.2 12.029 12.029 0 0 1 1.8 2.6 19.56 19.56 0 0 1 1.8 5.8 16.507 16.507 0 0 0-2.4-5.4 10.483 10.483 0 0 0-2-2.2 16.683 16.683 0 0 0-2.4-1.6 13.289 13.289 0 0 0-5.4-1.8 26.19 26.19 0 0 0-5.6 0 1.557 1.557 0 0 1-1.8-1.2 1.605 1.605 0 0 1 1.2-2z"/><path d="M66.2 9.25a17.731 17.731 0 0 1 5.6 1.4 19.474 19.474 0 0 1 4.8 3 14.462 14.462 0 0 1 3.4 4.4 15.429 15.429 0 0 1 1.4 5.2 17.611 17.611 0 0 0-2.2-4.8 12.346 12.346 0 0 0-3.6-3.6 13.43 13.43 0 0 0-4.6-2 21.358 21.358 0 0 0-5-.6 1.503 1.503 0 1 1-.2-3z"/></g><path fill="#333" d="M43.488 28.864l-2.977-.427c.034-.238 3.64-23.69 25.688-23.69S91.855 28.2 91.888 28.438l-2.977.427a31.67 31.67 0 0 0-4.07-10.712A20.689 20.689 0 0 0 66.2 7.753a20.69 20.69 0 0 0-18.642 10.399 31.67 31.67 0 0 0-4.07 10.712z"/><g fill="#222"><path d="M78.8,27.05V13.85s-7.2-2.2-12.6-2.2-12.6,2.2-12.6,2.2v13"/><path d="M79.832 27.05H77.77V14.626A49.721 49.721 0 0 0 66.2 12.682a49.637 49.637 0 0 0-11.568 1.944V26.85h-2.063v-13a1.031 1.031 0 0 1 .73-.986c.3-.092 7.41-2.246 12.9-2.246s12.602 2.154 12.9 2.246a1.031 1.031 0 0 1 .73.986z"/><use xlink:href="#B"/></g><use fill="#e8a146" xlink:href="#B"/><path fill="#333" d="M90.4 25.85a8.401 8.401 0 0 0-6.2-3H48.4a7.76 7.76 0 0 0-6.2 3c-9.6 11.8-11 22.4-10.4 35 .2 4.8 4.8 6 6 6H95a5.891 5.891 0 0 0 6-6c.2-12.4-1-23.2-10.6-35z"/><path fill="#efc8a5" d="M66.2 27.25c15.2 0 19.8 9 19.8 19.2 0 .6-.2 3-.2 3.6 3.2 0 4.4 3.4 4 7.8-.4 3.8-1.8 7.8-5.4 7.8a11.618 11.618 0 0 1-.2 2c-.4 5.8-4.4 9-9.6 14.6-3.4 3.6-5.8 3.4-8.2 3.4s-4.8.4-8.2-3.4c-5.4-5.6-9.4-8.8-9.6-14.6a11.693 11.693 0 0 0-.2-2c-3.6 0-5-4.2-5.4-7.8-.6-4.4.6-7.8 4-7.8 0-.6-.2-3-.2-3.6-.4-10.2 4-19.2 19.4-19.2z"/><path fill="#e6b790" d="M85.8 50.25c0-.6.2-3 .2-3.6 0-10.2-4.4-19.2-19.8-19.2a46.005 46.005 0 0 0-5.6.4v17.6a8.215 8.215 0 0 1-2.6 5.8.907.907 0 0 0 .4 1.6 5.579 5.579 0 0 1 3.8 3.8 1.106 1.106 0 0 0 1.6.6 1.729 1.729 0 0 1 1.2-.6 1.001 1.001 0 0 1 1.2 1v4.2a2.299 2.299 0 0 0 1.2 1.8c1.2.6.4 2.8-1.2 2.8a4.776 4.776 0 0 1-1.8-.4c-1.4-.8-2.8.8-2.6 1.4s.6 0 2.2.6a10.613 10.613 0 0 0 2.2.6v7.4c0 .4.2.6.6.8 2.6.6 4 5-.6 5.8a2.376 2.376 0 0 0-2 2.4v1h2.2c2.4 0 4.8.4 8.2-3.4 5.4-5.6 9.4-8.8 9.6-14.6a11.693 11.693 0 0 1 .2-2c3.6 0 5-4.2 5.4-7.8.4-4.8-.8-8-4-8z"/><path fill="#333" d="M66 87.15a12.961 12.961 0 0 1-9.49-4.07l-2.014-2.057c-4.282-4.337-7.38-7.475-7.787-12.997a20.48 20.48 0 0 1-.12-.837c-3.015-.72-4.94-3.847-5.48-8.983-.224-2.465-.096-5.8 1.78-7.863a4.786 4.786 0 0 1 2.145-1.366l-.028-.428-.103-1.9c0-13.542 7.366-20.7 21.3-20.7s21.3 7.158 21.3 20.7c0 .316-.05 1.108-.103 1.9l-.028.42a4.679 4.679 0 0 1 2.296 1.512c1.37 1.64 1.802 4.334 1.22 7.586-.573 5.06-2.57 8.227-5.56 8.933-.015.188-.024.402-.024.65-.195 5.673-3.38 8.9-7.787 13.364L75.48 83.09A12.75 12.75 0 0 1 66 87.15zm.2-58.2c-12.315 0-18.3 5.8-18.3 17.7 0 .283.05.992.097 1.7l.104 1.9a1.5 1.5 0 0 1-1.5 1.5 1.89 1.89 0 0 0-1.498.617c-.875.957-1.242 2.98-1.01 5.547.252 2.4 1.097 6.436 3.906 6.436a1.5 1.5 0 0 1 1.5 1.5 10.21 10.21 0 0 0 .18 1.753c.008.047.014.095.017.144.307 4.456 2.943 7.126 6.934 11.167l2.05 2.095A9.993 9.993 0 0 0 66 84.15a9.694 9.694 0 0 0 7.31-3.13l2.07-2.114c4.22-4.276 6.77-6.857 6.922-11.308a10.062 10.062 0 0 1 .183-1.938l.02-.1A1.5 1.5 0 0 1 84 64.15c2.88 0 3.693-4.522 3.91-6.465a1.48 1.48 0 0 1 .015-.103c.42-2.316.2-4.252-.563-5.18a1.879 1.879 0 0 0-1.561-.653 1.5 1.5 0 0 1-1.5-1.5c0-.316.05-1.108.103-1.9l.097-1.7c0-11.9-5.986-17.7-18.3-17.7z"/><path fill="#ddad8a" d="M66 70.9a.65.65 0 0 1-.65-.65v-1.4a.65.65 0 0 1 1.3 0v1.4a.65.65 0 0 1-.65.65zm-6.4 4.4a.65.65 0 0 1-.581-.941l.6-1.2a.65.65 0 0 1 1.163.582l-.6 1.2a.65.65 0 0 1-.582.359zm12.8 0a.65.65 0 0 1-.582-.359l-.6-1.2a.65.65 0 0 1 1.163-.581l.6 1.2a.65.65 0 0 1-.581.94z"/><path fill="#ddab85" d="M67.6 71.65a3.768 3.768 0 0 1-1.6.4c-.4 0-.4 0-1.4-.4-1.6-.6-1.8 1.4-4.6 2.4l1.8 1.8a4.41 4.41 0 0 0 3 1.2h2a5.431 5.431 0 0 0 3.4-1.2l1.8-1.8c-2.8-1-2.8-3-4.4-2.4z"/><path fill="#c6916d" d="M72 74.25a14.166 14.166 0 0 1-3-.2 7.059 7.059 0 0 0-2.8.6h-.4a15.789 15.789 0 0 0-2.6-.6c-1 0-2 .2-3 .2a.43.43 0 0 1-.4-.4c0-.2.2-.2.4-.4l3-.6a5.702 5.702 0 0 1 3.2.4H66a8.807 8.807 0 0 1 3.2-.4 19.85 19.85 0 0 0 3 .6.43.43 0 0 1 .4.4c-.4.4-.4.4-.6.4zM66 69a4.583 4.583 0 0 1-2.335-.579A3.136 3.136 0 0 0 62 68a.75.75 0 0 1 0-1.5 4.583 4.583 0 0 1 2.335.579 3.502 3.502 0 0 0 3.329 0A4.583 4.583 0 0 1 70 66.5.75.75 0 0 1 70 68a3.136 3.136 0 0 0-1.665.421A4.583 4.583 0 0 1 66 69z"/><g fill="#333"><path d="M50.6 52.85a7.012 7.012 0 0 1 2.8-1.2 7.575 7.575 0 0 1 3 0l2.8.6a12.213 12.213 0 0 0 2.6.6 1.105 1.105 0 0 1-.2 2.2h-.2a15.676 15.676 0 0 1-2.8-1 10.047 10.047 0 0 0-2.6-1 10.133 10.133 0 0 0-2.6-.4 3.492 3.492 0 0 0-2.4.8.375.375 0 0 1-.6 0 .735.735 0 0 1 .2-.6zm30.4.6a3.492 3.492 0 0 0-2.4-.8 11.705 11.705 0 0 0-2.6.4 22.43 22.43 0 0 0-2.6 1 9.132 9.132 0 0 1-2.8 1 1.02 1.02 0 0 1-.4-2h.2a15.789 15.789 0 0 0 2.6-.6l2.8-.6a7.575 7.575 0 0 1 3 0 7.012 7.012 0 0 1 2.8 1.2.735.735 0 0 1 .2.6c0 .2-.6 0-.8-.2zm-20.2 5c-1.2-.6-3.8-3.8-7.8-.6a8.997 8.997 0 0 1-1.6-.4s3.8-1.6 6.6-.6"/><path d="M60.8 58.954a.495.495 0 0 1-.225-.054 6.398 6.398 0 0 1-.832-.55 9.205 9.205 0 0 0-1.623-1.011.51.51 0 0 1-.29-.015 5.957 5.957 0 0 0-2.092-.299 5.607 5.607 0 0 0-2.424 1.218l-.138.1H53a3.305 3.305 0 0 1-.983-.204l-.74-.21-1.467-.366 1.394-.587a13.789 13.789 0 0 1 4.378-.964 6.038 6.038 0 0 1 4.755 1.515 5.939 5.939 0 0 0 .688.463.504.504 0 0 1-.226.954z"/><ellipse cx="57" cy="57.85" rx="1.6" ry="1"/><path d="M72,58.45c1.2-.6,3.8-3.8,7.8-.6a8.997,8.997,0,0,0,1.6-.4s-3.8-1.6-6.6-.6"/><path d="M72 58.954a.504.504 0 0 1-.226-.954 5.939 5.939 0 0 0 .688-.463 6.031 6.031 0 0 1 4.755-1.515 13.796 13.796 0 0 1 4.377.964l1.393.587-1.466.366-.738.2a3.292 3.292 0 0 1-.983.204h-.177l-.138-.1a5.619 5.619 0 0 0-2.418-1.217 6.044 6.044 0 0 0-2.098.298.51.51 0 0 1-.29.015 9.176 9.176 0 0 0-1.623 1.011 6.405 6.405 0 0 1-.832.55.495.495 0 0 1-.225.054z"/><ellipse cx="75.8" cy="57.85" rx="1.6" ry="1"/><path d="M78 33.45v-8a9.469 9.469 0 0 0-4.4-8l-3.6-2.2a8.272 8.272 0 0 0-3.8-1 8.272 8.272 0 0 0-3.8 1l-3.6 2.2a9.222 9.222 0 0 0-4.4 8v8a6.833 6.833 0 0 0 4 6.2l7.6 3.4 7.8-3.6a6.07 6.07 0 0 0 4.2-6z"/><path d="M66 44.553a1.501 1.501 0 0 1-.614-.131l-7.6-3.4a8.338 8.338 0 0 1-4.89-7.572v-8a10.773 10.773 0 0 1 5.158-9.306l3.56-2.177.112-.062a9.211 9.211 0 0 1 8.945 0l.112.062 3.6 2.2a10.998 10.998 0 0 1 5.12 9.283v8a7.544 7.544 0 0 1-5.16 7.405l-7.713 3.56a1.5 1.5 0 0 1-.63.138zm-2.872-27.986l-3.543 2.166a7.739 7.739 0 0 0-3.681 6.717v8a5.346 5.346 0 0 0 3.075 4.812L66 41.398l7.18-3.313a1.565 1.565 0 0 1 .188-.072 4.589 4.589 0 0 0 3.139-4.563v-8a7.991 7.991 0 0 0-3.71-6.735l-3.514-2.148a6.207 6.207 0 0 0-6.144 0z"/></g><path fill="#444" d="M90 25.85a8.401 8.401 0 0 0-6.2-3H48.2a7.76 7.76 0 0 0-6.2 3c-9.6 11.8-11 22.4-10.4 35.2.2 4.8 4.8 6 6 6h10.6v-11.4a26.731 26.731 0 0 1 2-10.4l4.2-10.4H78l4.2 10.4a26.048 26.048 0 0 1 2 10.4v11.4h10.2c1.2 0 5.8-1.2 6-6 .4-12.8-.8-23.4-10.4-35.2z"/><path fill="#333" d="M90 25.85a8.401 8.401 0 0 0-6.2-3H52.2a7.76 7.76 0 0 0-6.2 3c-9.6 11.8-11 22.4-10.4 35.2.2 4.8 4.8 6 6 6h6.6v-11.4a26.731 26.731 0 0 1 2-10.4l2.4-6a6.278 6.278 0 0 1 5.8-4H78a9.152 9.152 0 0 1 6.2 5.6l1.8 4.2a26.048 26.048 0 0 1 2 10.4v5.8a4.926 4.926 0 0 1-1.8 3.8l-2.2 1.8h10.2c1.2 0 5.8-1.2 6-6 .6-12.6-.6-23.2-10.2-35z"/><g fill="#444"><path d="M78.4 35.25a15.689 15.689 0 0 0 2.8-.4l2.8-.6a17.51 17.51 0 0 0 5.2-2.4 17.654 17.654 0 0 1-4.4 4.2 11.34 11.34 0 0 1-2.6 1.6 12.219 12.219 0 0 1-2.8 1.4 1.97 1.97 0 0 1-1.6-3.6.735.735 0 0 1 .6-.2z"/><path d="M80.8 37.05a10.566 10.566 0 0 0 2.6.2 13.204 13.204 0 0 0 2.8-.2 17.962 17.962 0 0 0 5.4-1.4 25.08 25.08 0 0 1-4.8 3.2c-.8.4-1.8.8-2.8 1.2a16.662 16.662 0 0 1-3 .8 2.04 2.04 0 0 1-.8-4c0 .2.4.2.6.2z"/><path d="M82.2 40.05a8.595 8.595 0 0 0 2.4.4 13.204 13.204 0 0 0 2.8-.2 28.69 28.69 0 0 0 5.6-1.4 22.031 22.031 0 0 1-5 3.4l-3 1.2a8.619 8.619 0 0 1-3.4.6h-.2a2.102 2.102 0 0 1-.2-4.2 2.175 2.175 0 0 0 1 .2z"/><path d="M83.8 42.65a8.595 8.595 0 0 0 2.4.4H89c1.8 0 3.8-.4 5.8-.6a25.277 25.277 0 0 1-5.2 2.6c-1 .4-2 .6-3 1a15.862 15.862 0 0 1-3.4.4H83a2 2 0 0 1 0-4 1.203 1.203 0 0 1 .8.2z"/><path d="M84.6 45.65a8.595 8.595 0 0 0 2.4.4h2.8c1.8 0 3.8-.4 5.8-.6a25.277 25.277 0 0 1-5.2 2.6c-1 .4-2 .6-3 1a15.862 15.862 0 0 1-3.4.4h-.2a2 2 0 0 1 0-4 1.203 1.203 0 0 1 .8.2z"/><use xlink:href="#C"/><use x=".4" y="3" xlink:href="#C"/><path d="M86 54.65a5.57 5.57 0 0 0 2.4.8 11.804 11.804 0 0 0 2.8.4 28.628 28.628 0 0 0 5.8-.2 27.173 27.173 0 0 1-5.6 2.2l-3 .6a9.69 9.69 0 0 1-3.4 0h-.2a2.121 2.121 0 1 1 .6-4.2 2.877 2.877 0 0 1 .6.4z"/><path d="M88.2 58.25l-.2-.2.2.2 1.2.6 2.4.6a21.358 21.358 0 0 0 5 .6 46.695 46.695 0 0 1-5 1.4 11.705 11.705 0 0 1-2.6.4h-1.4a1.203 1.203 0 0 1-.8-.2.735.735 0 0 1-.6-.2.619.619 0 0 1-.4-.2c-.2 0-.2 0-.6-.4a1.915 1.915 0 1 1 2.8-2.6zm-37.8-21.6a16.965 16.965 0 0 1-5.6-3 32.942 32.942 0 0 1-4.8-4.4 1.985 1.985 0 1 1 3-2.6c.2.2.2.4.4.6a26.094 26.094 0 0 0 2.8 5.2 27.789 27.789 0 0 0 4.2 4.2z"/><path d="M41.6 30.05a12.522 12.522 0 0 0 8.6 9 14.792 14.792 0 0 1-12.2-7.6 2.059 2.059 0 1 1 3.6-2z"/><path d="M39.6 33.05a17.406 17.406 0 0 0 3.2 6 11.931 11.931 0 0 0 6 3.8 11.983 11.983 0 0 1-7.2-2.4 17.293 17.293 0 0 1-5.6-5.8 2.025 2.025 0 0 1 3.4-2.2.735.735 0 0 0 .2.6z"/><path d="M38.2 36.85a11.991 11.991 0 0 0 3.4 6.2 16.243 16.243 0 0 0 6.8 3.8 20.033 20.033 0 0 1-8-2.2 13.334 13.334 0 0 1-6-6.4 1.97 1.97 0 0 1 3.6-1.6c0-.2 0 0 .2.2z"/><path d="M36.2 39.85a16.502 16.502 0 0 0 4 6.4 12.791 12.791 0 0 0 7.2 3.4 13.379 13.379 0 0 1-8.2-1.8 18.982 18.982 0 0 1-6.4-6.2 2.025 2.025 0 1 1 3.4-2.2c-.2.2-.2.4 0 .4z"/><path d="M35 44.45a18.75 18.75 0 0 0 4.8 5.6 10.622 10.622 0 0 0 7 2.4 12.363 12.363 0 0 1-8-.8 27.77 27.77 0 0 1-6.8-4.8 1.985 1.985 0 0 1 2.6-3c.2.4.2.6.4.6z"/><path d="M34.6 48.25a14.509 14.509 0 0 0 11.4 8.4 15.853 15.853 0 0 1-8-1 15.58 15.58 0 0 1-6.8-5.2 2 2 0 0 1 3.2-2.4z"/><path d="M34.6 52.65a14.509 14.509 0 0 0 11.4 8.4 15.853 15.853 0 0 1-8-1 15.58 15.58 0 0 1-6.8-5.2 2 2 0 0 1 3.2-2.4c0-.2 0 0 .2.2z"/></g><path fill="#333" d="M94.2 68.55H82.5v-15.3a13.2 13.2 0 0 0-1.07-5.391l-2.226-5.66A9.096 9.096 0 0 0 70.6 36.35h-9a9.09 9.09 0 0 0-8.598 5.834l-2.206 5.614A14.658 14.658 0 0 0 49.7 53.25v15.3H37.6c-1.92 0-7.262-1.763-7.498-7.437-.63-13.43.946-24.177 10.735-36.21A9.275 9.275 0 0 1 48.2 21.35h35.6a9.936 9.936 0 0 1 7.321 3.503l.043.05c9.63 11.838 11.172 22.635 10.535 36.217-.236 5.667-5.578 7.43-7.498 7.43zm-8.7-3h8.7c.043 0 4.33-.484 4.5-4.562.62-13.206-.794-23.03-9.844-34.164A6.844 6.844 0 0 0 83.8 24.35H48.2a6.254 6.254 0 0 0-5.029 2.437c-9.194 11.3-10.67 21.46-10.073 34.193.17 4.086 4.46 4.57 4.502 4.57h9.1v-12.3a17.623 17.623 0 0 1 1.307-6.557l2.197-5.59A12.062 12.062 0 0 1 61.6 33.35h9a12.068 12.068 0 0 1 11.402 7.766l2.194 5.586A16.083 16.083 0 0 1 85.5 53.25z"/><path fill="#444" d="M56.2 35.05a47.159 47.159 0 0 1-.8-5.6 14.39 14.39 0 0 1 .6-5.8 18.11 18.11 0 0 1 2.6-5.2 10.97 10.97 0 0 1 4.4-3.6 26.793 26.793 0 0 0-5 9.4 21.782 21.782 0 0 0-1 5.2 47.159 47.159 0 0 1-.8 5.6zm4 0a46.142 46.142 0 0 1-1-10.6 15.429 15.429 0 0 1 1.4-5.2 16.681 16.681 0 0 1 3.2-4.2 46.809 46.809 0 0 0-1.8 4.8 40.962 40.962 0 0 0-1 4.8 43.5 43.5 0 0 0-.2 5.2 21.8 21.8 0 0 1-.6 5.2zm4 0a42.441 42.441 0 0 1-1-10 28.518 28.518 0 0 1 1.8-10 84.279 84.279 0 0 1 .2 10c-.2 3.4-.2 6.8-1 10zm7.6 0a46.712 46.712 0 0 1-.8-5.2 41.804 41.804 0 0 1-.2-5 20.534 20.534 0 0 0-1-4.8 46.809 46.809 0 0 0-1.8-4.8 13.048 13.048 0 0 1 3.2 4.2 15.429 15.429 0 0 1 1.4 5.2 24.425 24.425 0 0 1-.2 5.4 21.358 21.358 0 0 1-.6 5zm-4 0a42.441 42.441 0 0 1-1-10v-5a41.804 41.804 0 0 1 .2-5 24.615 24.615 0 0 1 1.8 10 41.411 41.411 0 0 1-1 10zm8 0a47.159 47.159 0 0 1-.8-5.6 23.866 23.866 0 0 0-1-5.2 30.522 30.522 0 0 0-5-9.4 15.145 15.145 0 0 1 4.4 3.6 15.878 15.878 0 0 1 2.6 5.2 14.033 14.033 0 0 1 .6 5.8 47.159 47.159 0 0 1-.8 5.6z"/><defs><path id="B" d="M78.8 28.05H53.6a.945.945 0 0 1-1-1v-13.2a1.021 1.021 0 0 1 .8-1c.2 0 7.4-2.4 13-2.4a48.943 48.943 0 0 1 13 2.4 1.329 1.329 0 0 1 .8 1v13c-.4.8-.8 1.2-1.4 1.2z"/><path id="C" d="M85.4 48.65c.6.2 1.6.4 2.4.6a13.204 13.204 0 0 0 2.8.2 28.558 28.558 0 0 0 5.8-.6 33.274 33.274 0 0 1-5.4 2.6 16.662 16.662 0 0 1-3 .8 15.862 15.862 0 0 1-3.4.4h-.2a2.102 2.102 0 0 1 .2-4.2 1.203 1.203 0 0 1 .8.2z"/></defs></svg>