<svg xmlns="http://www.w3.org/2000/svg" xmlns:xlink="http://www.w3.org/1999/xlink" viewBox="0 0 128 128"><path d="M120.76,99.07a11.3,11.3,0,0,0-9-9l-29-5.16v-10h-28v10l-29,5.16a11.3,11.3,0,0,0-9,9l-1,5a133.24,133.24,0,0,0,106,0Z" fill="#d8ab8d"/><path d="M54.76 80.9l20 12h8v-18h-28v6z" fill="#d2a385"/><path d="M120.76,99.07a11.3,11.3,0,0,0-9-9l-29-5.16a19.38,19.38,0,0,1-27.4.6l-.6-.6-29,5.16a11.3,11.3,0,0,0-9,9l-1,5a133.24,133.24,0,0,0,106,0Z" fill="#d5e7e5"/><path d="M120.76,99.07a11.3,11.3,0,0,0-9-9l-29-5.16a8.68,8.68,0,0,0,7,8.5l22,4.18a11.22,11.22,0,0,1,8.5,7.2l1.5-.72Z" fill="#e6edec"/><path d="M25.76,90.07a11.3,11.3,0,0,0-9,9l-1,5,1.5.7a11.1,11.1,0,0,1,8.5-7.18l22-4.24a8.6,8.6,0,0,0,7-8.44Z" fill="#edf7f6"/><path d="M86.76 113.83a144.978 144.978 0 0 0 16-3.14V88.47l-16-2.84z" fill="#fbbc86"/><path d="M102.76 95.8l-16-3.16v21.2l8.46-1.42 3.66-.8 1.04-.24 2.5-.6h.24z" fill="#eea86a"/><path d="M34.76 110.7a140.464 140.464 0 0 0 16 3.14v-28.2l-16 2.84z" fill="#fbbc86"/><path d="M50.76,92.63l-16,3.16v14.88h.18l2.78.68.76.18c3.74.86,7.86,1.64,12.28,2.24Z" fill="#eea86a"/><path d="M68.76 116.522a134.809 134.809 0 0 1-53.597-11.075 1.5 1.5 0 0 1-.874-1.67l1-5a12.72 12.72 0 0 1 10.192-10.18c1.215-.302 5.033-.93 9.867-1.724l19.07-3.424a1.5 1.5 0 0 1 .68 2.922c-4.336 1-12.614 2.37-19.266 3.462l-9.715 1.693a9.778 9.778 0 0 0-7.886 7.823l-.764 3.82a132.221 132.221 0 0 0 102.581 0l-.76-3.806a9.751 9.751 0 0 0-7.808-7.82c-1.14-.28-5.143-.946-9.778-1.717l-19.268-3.452a1.5 1.5 0 1 1 .649-2.929c4.366.968 12.542 2.328 19.11 3.42l9.925 1.747a12.693 12.693 0 0 1 10.112 10.176l.997 4.985a1.5 1.5 0 0 1-.874 1.67 134.809 134.809 0 0 1-53.596 11.076z" fill="#333"/><path d="M98.76 44.9c0 12.24-6 30-30 30s-30-17.76-30-30 13.8-26 30-26 30 13.76 30 26z" fill="#8b2240"/><path d="M68.76 76.4c-23.225 0-31.5-16.272-31.5-31.5 0-6.357 3.52-13.348 9.417-18.7a33.4 33.4 0 0 1 22.083-8.79 33.401 33.401 0 0 1 22.083 8.8c5.896 5.352 9.417 12.343 9.417 18.7 0 15.228-8.275 31.5-31.5 31.5zm0-56c-15.787 0-28.5 13.403-28.5 24.5 0 6.686 2.055 28.5 28.5 28.5s28.5-21.814 28.5-28.5c0-11.097-12.713-24.5-28.5-24.5zm-15.5 56.5h3v8h-3zm28 0h3v8h-3z" fill="#333"/><path d="M90.78 45.4v-5c0-12.72-6.58-21.5-22-21.5s-22 8.78-22 21.5v5c-1.42 0-2.86 3.74-2 8 .74 3.52 2.72 6 4 6v7.52c0 4.6 6.36 11.52 12.98 15a17.382 17.382 0 0 0 7 1.04 15.021 15.021 0 0 0 6.5-1.04c6.64-3.48 13.48-10.4 13.48-15v-7.48c.92 0 3.16-2.5 4-6 .82-4.3-.42-8.04-1.96-8.04z" fill="#d8ab8d"/><path d="M90.78 45.4v-5c0-12.72-6.58-21.5-22-21.5a34.246 34.246 0 0 0-6 .52v20.62c0 4-4 4-4 6a7.1 7.1 0 0 1 6 4h2.98a1 1 0 0 1 1 1v3.44A2.9 2.9 0 0 0 70 56.91a2 2 0 0 1-1.18 3.62c-1.48 0-1.36-.76-3.36-.76a2 2 0 0 0-1.7.9.44.44 0 0 0 0 .44.5.5 0 0 0 .38.24c2.82.46 3.26 1.3 4.72 1.48v8.08a1 1 0 0 0 1 1 3 3 0 0 1 0 6h-3a4 4 0 0 0-4 3.42v.8a17.083 17.083 0 0 0 5.9.78 15.021 15.021 0 0 0 6.5-1.04c6.64-3.48 13.48-10.4 13.48-15v-7.5c.92 0 3.16-2.5 4-6 .82-4.24-.42-7.98-1.96-7.98z" fill="#cba082"/><path d="M71.36 69.85a13.456 13.456 0 0 0-2.58.34 15.029 15.029 0 0 0-2.58-.34c-1.88 0-2.3.72-4.38.72l2.38 1.66a4.12 4.12 0 0 0 2.54.92h4.14a4.12 4.12 0 0 0 2.54-.92l2.46-1.6c-2.12-.02-2.56-.78-4.52-.78z" fill="#916953"/><path d="M75.76 70.9a6.743 6.743 0 0 1-1.9-.1 12.147 12.147 0 0 0-1.7-.34 10.539 10.539 0 0 0-3.3.38h-.3a13.437 13.437 0 0 0-3.28-.38 10.399 10.399 0 0 0-1.7.32 7.42 7.42 0 0 1-1.82.12.351.351 0 0 1 0-.7 8.522 8.522 0 0 0 1.64-.34 14.728 14.728 0 0 1 1.74-.58 8.859 8.859 0 0 1 3.78.14h-.32a11.253 11.253 0 0 1 1.86-.24 7.24 7.24 0 0 1 2 .12 20.664 20.664 0 0 0 3.4.96.34.34 0 0 1 .32.359v.001a.32.32 0 0 1-.42.28z" fill="#674848"/><g fill="#333"><path d="M86.1 21.1a3.46 3.46 0 0 1-2-1.58c-1.76-2.98-4.82-4.62-15.32-4.62-18 0-26 11.9-26 22s6 10 6 14h2v-2a4.26 4.26 0 0 1 3.58-4.2c12.68-1.94 14.42-11.8 22.42-11.8a11.318 11.318 0 0 1 3.28.6 4.18 4.18 0 0 1 2.72 4 8.26 8.26 0 0 0 2.42 5.84l.34.34a4.24 4.24 0 0 1 1.24 3v4.22h2c0-4 6-4 6-14 0-8.92-4.84-14.66-8.68-15.8z"/><path d="M92.28 45.4h-3v-5c0-9.124-3.557-20-20.5-20s-20.5 10.876-20.5 20v5h-3v-5c0-14.832 8.346-23 23.5-23s23.5 8.168 23.5 23zM68.755 92.38a20.803 20.803 0 0 1-14.432-5.786l-.624-.623 2.12-2.12.6.6a17.894 17.894 0 0 0 25.256-.577l2.167 2.074a20.824 20.824 0 0 1-15.088 6.432z"/><path d="M67.744 84.48a18.744 18.744 0 0 1-6.502-1.162 1.441 1.441 0 0 1-.18-.08C54.434 79.754 47.28 72.52 47.28 66.9v-6.458C45.436 59.38 43.9 56.5 43.312 53.7c-.673-3.335-.127-6.897 1.327-8.674a3.602 3.602 0 0 1 .641-.618V40.4c0-14.832 8.346-23 23.5-23s23.5 8.168 23.5 23v3.992a3.448 3.448 0 0 1 .665.625c1.423 1.72 1.934 5.22 1.27 8.704-.707 2.948-2.35 5.587-3.974 6.682V66.9c0 5.462-7.414 12.728-14.284 16.33a1.456 1.456 0 0 1-.14.064 16.572 16.572 0 0 1-7.059 1.149q-.508.028-1.013.028zm-5.374-3.944a15.803 15.803 0 0 0 6.304.916c.06-.002.12-.003.18.001a13.642 13.642 0 0 0 5.78-.908C81.24 77.06 87.24 70.576 87.24 66.9v-7.48a1.501 1.501 0 0 1 1.285-1.485 8.995 8.995 0 0 0 2.756-4.865c.637-3.35-.198-5.734-.677-6.2a1.5 1.5 0 0 1-1.324-1.49v-5c0-9.124-3.557-20-20.5-20s-20.5 10.876-20.5 20v5A1.5 1.5 0 0 1 47 46.874c-.467.472-1.423 2.883-.75 6.22.632 3.008 2.128 4.658 2.616 4.806a1.42 1.42 0 0 1 1.414 1.491v7.52c0 3.788 5.75 10.262 12.1 13.626zM90.78 46.9z"/><path d="M86.76 56.9v.12a13.32 13.32 0 0 1-8.38 11.72l-1.62.68v3.48a2 2 0 0 1-2 2h-1.18c-1.18 0-1.64-.92-2.24-1.42a2 2 0 0 0-1.4-.58h-2.36a2 2 0 0 0-1.4.58c-.6.5-1.06 1.42-2.24 1.42h-1.18a2 2 0 0 1-2-2v-3.48l-1.62-.68a13.4 13.4 0 0 1-8.38-11.72v-.12h-2v10c0 4.6 6.36 11.52 12.98 15a17.382 17.382 0 0 0 7 1.04 15.021 15.021 0 0 0 6.5-1.04c6.64-3.48 13.48-10.4 13.48-15v-10z"/></g><path d="M79.76 64.33h-.14a.12.12 0 0 0 0 .14 1.1 1.1 0 0 1-.488 1.477 1.116 1.116 0 0 1-.152.063c-2 .64-3.8-3.24-6.68-3.24a5.059 5.059 0 0 0-2.36.5 2.42 2.42 0 0 1-2.16 0 5.058 5.058 0 0 0-2.36-.36c-2.86 0-4.58 3.88-6.68 3.24a1.099 1.099 0 0 1-.64-1.54.12.12 0 0 0 0-.14h-.14c-2.48 2.44 2.8 8.44 10.9 3.4 8.1 5.04 13.38-.96 10.9-3.54z" fill="#343433"/><g fill="#333"><use xlink:href="#B"/><use xlink:href="#B" y="8"/><use xlink:href="#B" y="16"/></g><path d="M68.76 50.4a1.5 1.5 0 0 1-1.5-1.5V48a1.5 1.5 0 0 1 3 0v.92a1.5 1.5 0 0 1-1.5 1.5z" fill="#a7412d"/><path d="M98.1 35.65c0 21.1-13.14 3.26-29.34 3.26s-29.34 17.8-29.34-3.3c0-12.2 13.14-24.7 29.34-24.7S98.1 23.4 98.1 35.65z" fill="#c83962"/><path d="M68.76 16.43C53.5 16.43 40.98 27.5 39.56 39c1.46 15.66 14 0 29.2 0s27.74 15.72 29.18 0c-1.4-11.5-13.92-22.58-29.18-22.58z" fill="#b12f4f"/><g fill="#333"><path d="M56.716 43.252l-.953-2.845C63.95 37.663 85.318 28.86 85.88 21.2c.17-2.315-1.836-4.55-5.96-6.642l1.357-2.676c5.305 2.692 7.86 5.9 7.593 9.537-.356 4.857-5.967 10.032-16.678 15.38a134.516 134.516 0 0 1-15.477 6.464z"/><path d="M94.552 44.872c-4.856-6.922-17.596-10.826-17.725-10.865l.865-2.873c.563.17 13.86 4.24 19.316 12.015zM40.53 42.7l-1.26-2.72c12.895-5.985 33.532-17.97 34-24.657.05-.717-.084-1.803-1.84-2.945l1.637-2.515c2.843 1.85 3.306 4.107 3.194 5.674-.76 10.64-32.163 25.504-35.74 27.164zm56.226-5.194c-3.662-6.866-12.2-9.815-12.275-9.845l.956-2.843c.395.132 9.734 3.34 13.966 11.276zm-56.3-3.598l-1.395-2.656c10.1-5.305 24.146-15.04 22.222-19.088l2.7-1.287c3.863 8.13-18.93 20.612-23.538 23.032z"/><path d="M44.543 47.458a5.289 5.289 0 0 1-3.785-1.42C38.944 44.3 38.1 41 38.1 35.65c-.085-5.786 2.53-11.685 7.362-16.6a32.995 32.995 0 0 1 45.032-1.499C96.28 22.636 99.6 29.23 99.6 35.65c0 5.343-.85 8.642-2.68 10.382a5.381 5.381 0 0 1-4.155 1.416c-2.428-.12-5.258-1.345-8.536-2.765-4.58-1.984-9.77-4.233-15.4-4.233-5.636 0-10.86 2.26-15.467 4.256-3.263 1.413-6.082 2.632-8.463 2.743q-.186.01-.367.01zM68.84 37.45c6.244 0 11.977 2.484 16.584 4.48 3.008 1.304 5.607 2.43 7.5 2.522a2.424 2.424 0 0 0 1.939-.593c.797-.76 1.748-2.8 1.748-8.2 0-10.97-11.906-23.24-27.84-23.24a29.844 29.844 0 0 0-21.161 8.757c-4.203 4.265-6.57 9.535-6.5 14.46 0 4.38.58 7.145 1.727 8.236a2.357 2.357 0 0 0 1.94.587c1.836-.085 4.42-1.204 7.414-2.5 4.634-2.005 10.4-4.502 16.66-4.502zm-15.76 10.6a9.176 9.176 0 0 1 2.92-1.6 9.597 9.597 0 0 1 3.36-.44 10.596 10.596 0 0 1 3.2.8l2.88 1.2a.46.46 0 0 1 .262.596l-.002.005a.5.5 0 0 1-.46.3 21.65 21.65 0 0 1-3.12-.48l-2.92-.38a10.9 10.9 0 0 0-5.64.8.46.46 0 0 1-.598-.256l-.002-.004a.44.44 0 0 1 .12-.52zm31 .85a10.7 10.7 0 0 0-5.64-.8l-2.92.38a29.178 29.178 0 0 1-3.12.48.466.466 0 0 1-.2-.9l2.88-1.16a10.596 10.596 0 0 1 3.2-.8 9.099 9.099 0 0 1 6.28 2 .44.44 0 0 1 .018.622l-.018.018a.46.46 0 0 1-.54.14z"/><circle cx="59.82" cy="52.37" r="1.3"/><circle cx="77.74" cy="52.37" r="1.3"/></g><path d="M69.002 63.79a5.906 5.906 0 0 1-2.865-.745 4.54 4.54 0 0 0-2.14-.546A.75.75 0 0 1 64 61h.003a6.051 6.051 0 0 1 2.855.731 4.385 4.385 0 0 0 4.279.003 6.057 6.057 0 0 1 2.86-.734H74a.75.75 0 0 1 .003 1.5 4.546 4.546 0 0 0-2.145.549 5.887 5.887 0 0 1-2.856.742z" fill="#674848"/><defs ><path id="B" d="M68.76 99.4a1.5 1.5 0 0 1-1.5-1.5v-1a1.5 1.5 0 0 1 3 0v1a1.5 1.5 0 0 1-1.5 1.5z"/></defs></svg>