<svg xmlns="http://www.w3.org/2000/svg" xmlns:xlink="http://www.w3.org/1999/xlink" viewBox="0 0 128 128"><g fill="#333"><path d="M103.14 67.085c0 14-12.16 14.8-27.16 14.8s-27.2-.9-27.2-14.8 12.18-25.1 27.2-25.1 27.16 11.16 27.16 25.1z"/><path d="M81.32 42.365c-14.9 0-27.04 11.32-27.04 25.14 0 9.6 5.74 13 14.24 14.2h7.46c15 0 27.2-.9 27.2-14.8-.04-12.06-9.42-22.26-21.86-24.54z"/><path d="M75.98 84.137c-12.43 0-29.452 0-29.452-17.052 0-15.082 13.212-27.352 29.452-27.352 16.218 0 29.412 12.27 29.412 27.352 0 17.052-16.308 17.052-29.412 17.052zm0-39.9c-13.756 0-24.948 10.25-24.948 22.848 0 10.737 7.696 12.548 24.948 12.548 17.224 0 24.908-1.81 24.908-12.548 0-12.6-11.174-22.85-24.908-22.85z"/></g><path fill="#dfb89f" d="M116.52 85.705l-28.1-5.56v-13.18h-26.4v13.18l-28 5.56c-8.3 2.1-8.88 9.8-9.6 13.4a122.819 122.819 0 0 0 47.44 10.84 125.279 125.279 0 0 0 54-10.58c-.3-3.68-.68-11.46-9.34-13.66z"/><path fill="#cca896" d="M125.92 99.365c-.36-3.68-.74-11.48-9.4-13.66l-28.1-5.56v-13.18h-26.4v6.54l.74 1.62 9.48 10.76a16.3 16.3 0 0 1 3.54 10.78v13.26a125.259 125.259 0 0 0 50.14-10.56z"/><path fill="#333" d="M91.4 82.226a1.496 1.496 0 0 1-.288-.028l-2.98-.58a1.5 1.5 0 0 1-1.213-1.472v-6.9a1.5 1.5 0 0 1 3 0v5.664l1.767.344a1.5 1.5 0 0 1-.285 2.973z"/><path fill="#dfb89f" d="M99.2 34.905v-4.7c-.02-12.7-4.64-24.7-23.56-24.7s-23.54 12-23.54 24.7v4.7c-4 0-6.52 4-5.86 9.42.56 4.56 2.74 9.22 7.06 9.4 2.54 16.28 13.72 24.52 22.34 24.52s19.76-8 22.34-24.52c4.34-.18 6.5-4.84 7.06-9.4.7-5.4-1.76-9.42-5.84-9.42z"/><path fill="#d4b09c" d="M99.2 34.905v-4.7c-.02-12.7-4.64-24.7-23.56-24.7a37.779 37.779 0 0 0-5.86.44v28.08a8.44 8.44 0 0 1-2.74 6.22.96.96 0 0 0 .42 1.66 5.58 5.58 0 0 1 4 4 1.1 1.1 0 0 0 1.72.64 3.12 3.12 0 0 1 1.16-.62 1.08 1.08 0 0 1 1.36 1.06v4.4a2.38 2.38 0 0 0 1.34 2c1.24.68.34 3.02-1.34 3.02a3.66 3.66 0 0 1-2-.5c-1.6-.8-3.08.84-2.74 1.46s.72 0 2.34.74a5.579 5.579 0 0 0 2.34.58v7.86a.86.86 0 0 0 .751.957l.03.003c2.82.68 4.3 5.36-.7 6.38a2.78 2.78 0 0 0-2.24 2.74v1.52a15.587 15.587 0 0 0 2.12.16c8.42 0 19.76-8 22.34-24.52 4.48-.28 6.48-4.88 7.1-9.44.7-5.42-1.76-9.44-5.84-9.44z"/><g fill="#333"><circle cx="65.16" cy="46.265" r="1.62"/><path d="M69.8 47.085c-1.24-.72-4.46-4.86-8.62-.72a4.598 4.598 0 0 1-1.44-1 8.88 8.88 0 0 1 6.54-.6"/><path d="M69.8 47.628a.541.541 0 0 1-.272-.074 7.236 7.236 0 0 1-.846-.635c-1.6-1.305-3.996-3.277-7.12-.17l-.263.262-.34-.15a5.129 5.129 0 0 1-1.609-1.118l-.515-.528.658-.334a9.392 9.392 0 0 1 6.94-.637.544.544 0 0 1 .177.09 9.951 9.951 0 0 1 2.76 1.745 6.813 6.813 0 0 0 .702.536.543.543 0 0 1-.273 1.012zm-9.05-2.12l.33.203q.3-.277.596-.502a8.341 8.341 0 0 0-.926.3zm20.8 1.577c1.24-.72 4.46-4.86 8.62-.72a4.599 4.599 0 0 0 1.44-1 8.88 8.88 0 0 0-6.54-.6"/><path d="M81.56 47.628a.543.543 0 0 1-.273-1.012 6.824 6.824 0 0 0 .703-.536 9.958 9.958 0 0 1 2.76-1.745.539.539 0 0 1 .177-.09 9.387 9.387 0 0 1 6.94.637l.657.334-.515.528a5.136 5.136 0 0 1-1.61 1.118l-.34.15-.263-.26c-3.123-3.108-5.527-1.135-7.12.17a7.253 7.253 0 0 1-.846.635.542.542 0 0 1-.273.074zm8.124-2.42q.295.226.596.502.17-.094.33-.203a8.349 8.349 0 0 0-.927-.3z"/><circle cx="86.06" cy="46.265" r="1.62"/><path d="M58.84 41.325a8 8 0 0 1 2.82-1.16 9.681 9.681 0 0 1 3.04 0 26.279 26.279 0 0 1 2.88.68 16.672 16.672 0 0 0 2.62.6 1.06 1.06 0 0 1 .966 1.146l-.006.054a1.08 1.08 0 0 1-1.187.962l-.013-.002h-.14a17.998 17.998 0 0 1-2.84-1.08 23.125 23.125 0 0 0-2.56-1.02 8.561 8.561 0 0 0-2.64-.42 4.1 4.1 0 0 0-2.48.82.384.384 0 0 1-.48-.6s.02.04.02.02zm32.92.64a4 4 0 0 0-2.48-.8 8.121 8.121 0 0 0-2.64.44c-.86.28-1.72.64-2.6 1.02a17.749 17.749 0 0 1-2.88 1.06 1.116 1.116 0 1 1-.48-2.18h.18a14.736 14.736 0 0 0 2.6-.58 26.025 26.025 0 0 1 2.96-.64 9.103 9.103 0 0 1 3.04 0 7.642 7.642 0 0 1 2.84 1.14.4.4 0 1 1-.42.66s-.1-.12-.12-.12z"/></g><g fill="#c8a18f"><path d="M75.86 60.445a4.659 4.659 0 0 1-2.405-.609 3.594 3.594 0 0 0-1.915-.491.539.539 0 0 1 0-1.078 4.658 4.658 0 0 1 2.404.609 3.98 3.98 0 0 0 3.831 0 4.659 4.659 0 0 1 2.404-.609.539.539 0 1 1 0 1.078 3.595 3.595 0 0 0-1.915.491 4.659 4.659 0 0 1-2.405.609z"/><path d="M75.84 61.704a.539.539 0 0 1-.539-.539v-1.6a.539.539 0 1 1 1.078 0v1.6a.539.539 0 0 1-.539.539zm-1.226 7.546a5.236 5.236 0 0 1-3.493-1.343.539.539 0 0 1 .719-.804 4.223 4.223 0 0 0 2.995 1.064l2.206-.001a4.804 4.804 0 0 0 3.29-1.171.539.539 0 0 1 .699.82 6.012 6.012 0 0 1-4 1.428h-2.17q-.123.006-.246.006zm-5.494-2.825a.539.539 0 0 1-.483-.777l.7-1.42a.539.539 0 0 1 .967.477l-.7 1.42a.539.539 0 0 1-.484.301zm13.58 0a.538.538 0 0 1-.481-.295l-.72-1.42a.539.539 0 1 1 .961-.487l.72 1.42a.539.539 0 0 1-.48.783z"/></g><path fill="#915241" d="M77.5 62.325a2.481 2.481 0 0 0-1.44.48.34.34 0 0 1-.42 0 2.261 2.261 0 0 0-1.46-.48c-2.16 0-2.78 2-4.8 2.88l2 2a4.68 4.68 0 0 0 3.34 1.2h2.16a5.34 5.34 0 0 0 3.6-1.3l1.84-2c-2.04-.7-2.66-2.78-4.82-2.78z"/><path fill="#743f40" d="M75.858 65.793l-.17-.057a6.992 6.992 0 0 0-4.239-.223 9.793 9.793 0 0 1-2.028.251.539.539 0 1 1 0-1.078 8.823 8.823 0 0 0 1.816-.23 7.949 7.949 0 0 1 4.625.202 8.114 8.114 0 0 1 4.64-.197 8.84 8.84 0 0 0 1.798.225.539.539 0 0 1 0 1.078 9.848 9.848 0 0 1-2.007-.246 7.168 7.168 0 0 0-4.264.218z"/><path fill="#674848" d="M75.96 59.614a4.944 4.944 0 0 1-2.521-.626 3.392 3.392 0 0 0-1.798-.455.808.808 0 1 1 0-1.616 4.949 4.949 0 0 1 2.521.625 3.783 3.783 0 0 0 3.598 0 4.949 4.949 0 0 1 2.521-.625.808.808 0 0 1 0 1.616 3.392 3.392 0 0 0-1.798.455 4.944 4.944 0 0 1-2.522.626z"/><path fill="#333" d="M75.64 79.745c-9.383 0-20.7-8.637-23.633-24.674-4.482-.945-6.687-5.934-7.256-10.563-.43-3.525.368-6.723 2.186-8.776a6.718 6.718 0 0 1 3.664-2.171v-3.355c0-17.385 8.425-26.2 25.04-26.2 16.6 0 25.032 8.815 25.06 26.198v3.354a6.712 6.712 0 0 1 3.711 2.191c1.8 2.05 2.573 5.246 2.117 8.77-.713 5.807-3.445 9.722-7.254 10.55C96.317 71.274 85.26 79.745 75.64 79.745zm0-72.74c-14.83 0-22.04 7.59-22.04 23.2v4.7a1.5 1.5 0 0 1-1.5 1.5 3.753 3.753 0 0 0-2.918 1.316c-1.248 1.4-1.778 3.75-1.454 6.423.468 3.813 2.194 7.94 5.634 8.082a1.5 1.5 0 0 1 1.419 1.267c2.356 15.103 12.505 23.252 20.858 23.252 11.19 0 19.097-11.98 20.858-23.25a1.499 1.499 0 0 1 1.42-1.267c3.44-.143 5.165-4.27 5.633-8.084.347-2.678-.162-5.012-1.394-6.414a3.78 3.78 0 0 0-2.957-1.323 1.5 1.5 0 0 1-1.5-1.5v-4.7c-.025-15.61-7.24-23.2-22.06-23.2z"/><g fill="#f9cd5a"><use xlink:href="#B"/><path d="M51.96 67.045a1.5 1.5 0 0 1-1.5-1.5v-.538a1.5 1.5 0 1 1 3 0v.538a1.5 1.5 0 0 1-1.5 1.5zm0-5.927a1.5 1.5 0 0 1-1.5-1.5v-.54a1.5 1.5 0 0 1 3 0v.54a1.5 1.5 0 0 1-1.5 1.5zm0-5.928a1.5 1.5 0 0 1-1.5-1.5v-.54a1.5 1.5 0 0 1 3 0v.538a1.5 1.5 0 0 1-1.5 1.5z"/><use x="47.42" xlink:href="#B"/><path d="M99.38 67.045a1.5 1.5 0 0 1-1.5-1.5v-.538a1.5 1.5 0 1 1 3 0v.538a1.5 1.5 0 0 1-1.5 1.5zm0-5.927a1.5 1.5 0 0 1-1.5-1.5v-.54a1.5 1.5 0 1 1 3 0v.54a1.5 1.5 0 0 1-1.5 1.5zm0-5.928a1.5 1.5 0 0 1-1.5-1.5v-.54a1.5 1.5 0 0 1 3 0v.538a1.5 1.5 0 0 1-1.5 1.5z"/></g><path fill="#444445" d="M104.28 19.725c-8.92-17.52-22-21.5-29.12-15.8-7.12-5.7-20.2-1.72-29.12 15.8-2.84 5.6-6.26 19.04.74 30.22 13.76-12 10.46-20.46 17.76-23.66 4.8-2.1 11.14 4.16 11.14 4.16s6.34-6.26 11.14-4.16c7.16 3.14 4 11.36 17.1 23.06 6.5-11.04 3.16-24.12.36-29.62z"/><g fill="#333"><path d="M43.82 37.505a28.859 28.859 0 0 0 4.6 13.2c13.76-12 8.88-21.2 16.16-24.38 4.8-2.1 11.14 4.16 11.14 4.16s6.34-6.26 11.14-4.16c7.16 3.14 3.48 12.38 16.46 24 6.52-11.06 3.8-25.16 1-30.66a46.444 46.444 0 0 0-7.04-10.38 40.882 40.882 0 0 0-16.2-2C70 22.105 50.42 26.905 43.82 37.505z"/><path d="M51.2 43.165c2.52 0 1.44 5.64 4 5.64v-9.74zm45.22-4.1v9.74c2.5 0 1.44-5.64 4-5.64z"/></g><path fill="#f4e2bd" d="M124.86 92.745a8 8 0 0 0-6.26-6.4c-1.82-.48-10.64-2.62-18-4.44a32.34 32.34 0 0 1-24.98 11.84 32 32 0 0 1-24.94-11.84l-18 4.44a8 8 0 0 0-6.26 6.4l-1.28 7.02a124.82 124.82 0 0 0 50.56 10 124.94 124.94 0 0 0 50.56-10z"/><path fill="#f05e52" d="M124.86 92.745a8 8 0 0 0-6.26-6.4c-1.82-.48-10.64-2.62-18-4.44-10.52 13.28-26.72 11.82-27.12 11.78l-17.86 14.72a118.86 118.86 0 0 0 20 1.42 124.94 124.94 0 0 0 50.56-10z"/><path fill="#333" d="M77.535 111.275a122.46 122.46 0 0 1-1.614-.01 125.699 125.699 0 0 1-51.129-10.12 1.5 1.5 0 0 1-.887-1.653l1.3-7.02a9.461 9.461 0 0 1 7.41-7.595l.548-.14 17.406-4.29a1.503 1.503 0 0 1 1.516.514 30.363 30.363 0 0 0 23.684 11.285h.086a30.734 30.734 0 0 0 23.824-11.29 1.494 1.494 0 0 1 1.52-.505l9.017 2.217 9.005 2.23a9.425 9.425 0 0 1 7.352 7.569l1.397 7.008a1.5 1.5 0 0 1-.883 1.673 125.634 125.634 0 0 1-49.553 10.129zm-1.614-3a122.744 122.744 0 0 0 48.868-9.408l-1.165-5.843a6.472 6.472 0 0 0-5.087-5.2l-9.036-2.235-8.117-1.995a33.712 33.712 0 0 1-25.524 11.66h-.095a33.335 33.335 0 0 1-25.401-11.663L33.89 87.65l-.608.152a6.499 6.499 0 0 0-5.128 5.213l-1.08 5.837a122.87 122.87 0 0 0 48.847 9.415z"/><path fill="#f4e2bd" d="M73.24 109.805c13.62-11.8 29.28-24 34.64-26.82l-14-3.64c-5.46 2.64-24.98 17.22-38.28 29.04a126.393 126.393 0 0 0 17.64 1.42z"/><path fill="#333" d="M69.52 106.285a1.5 1.5 0 0 1-1.005-2.614l.2-.18a1.5 1.5 0 0 1 2.01 2.228l-.2.18a1.496 1.496 0 0 1-1.005.386zm4.7-3.94a1.5 1.5 0 0 1-.962-2.652l.453-.377a1.5 1.5 0 0 1 1.918 2.307l-.45.374a1.494 1.494 0 0 1-.96.348zm4.974-4.125a1.5 1.5 0 0 1-.954-2.658l.455-.374a1.5 1.5 0 0 1 1.906 2.316l-.455.374a1.493 1.493 0 0 1-.952.341zm5.003-4.1a1.5 1.5 0 0 1-.946-2.665l.455-.37a1.5 1.5 0 1 1 1.893 2.328l-.457.37a1.492 1.492 0 0 1-.944.335zm5.038-4.045a1.5 1.5 0 0 1-.934-2.675l.46-.365a1.5 1.5 0 0 1 1.867 2.349l-.46.366a1.497 1.497 0 0 1-.932.326zm5.185-3.97a1.5 1.5 0 0 1-.882-2.714l.22-.16a1.5 1.5 0 1 1 1.761 2.429l-.22.16a1.493 1.493 0 0 1-.879.285zm-21.18 25.2h-.016a128.291 128.291 0 0 1-17.849-1.437 1.5 1.5 0 0 1-.772-2.604c13.835-12.296 33.123-26.6 38.624-29.27a1.494 1.494 0 0 1 1.03-.101l14 3.64a1.5 1.5 0 0 1 .321 2.779C103.5 87 88.077 98.935 74.222 110.94a1.501 1.501 0 0 1-.982.366zm-14.182-3.957a125.581 125.581 0 0 0 13.631.95c11.94-10.32 24.574-20.25 31.388-24.752L94.052 80.94c-5.526 2.93-22.268 15.4-34.995 26.4zm-7.84-23.562a1.5 1.5 0 0 1-.294-2.971l9.596-1.9v-6.54a1.5 1.5 0 0 1 3 0v7.78a1.501 1.501 0 0 1-1.239 1.477c-.05.01-1.323.237-10.766 2.134a1.509 1.509 0 0 1-.297.03z"/><path fill="#444445" d="M108.08 36.165a32.201 32.201 0 0 0-4.38-10.34 36.002 36.002 0 0 0-7.28-8.32c-.68-.62-1.48-1.12-2.2-1.66l-1.1-.82-1.18-.7-2.38-1.38-2.5-1.14-1.24-.56-1.4-.46-2.6-.88-5.24-1.3h-.22a2 2 0 0 1 .94-3.78h.16l5.56 1.88 2.7 1.18 1.34.6 1.28.72 2.54 1.44 2.4 1.68 1.18.84 1.1.96a25.327 25.327 0 0 1 2.16 2 36.982 36.982 0 0 1 6.84 9.3 32.48 32.48 0 0 1 3.52 10.74z"/><path fill="#333" d="M44.96 31.785a25.86 25.86 0 0 1 3.32-9.84 31.76 31.76 0 0 1 6.58-8.22 31.201 31.201 0 0 1 8.88-5.66 29.642 29.642 0 0 1 10.1-2.42c-1.54.86-3.12 1.44-4.58 2.24l-4.36 2.42a47.859 47.859 0 0 0-7.86 5.82 49.396 49.396 0 0 0-6.62 7.2 60.001 60.001 0 0 0-5.46 8.46z"/><path fill="#444445" d="M102.16 36.165a38.003 38.003 0 0 0-5.1-8.32 51.46 51.46 0 0 0-6.64-6.98 53.505 53.505 0 0 0-7.84-5.56c-1.34-.86-2.82-1.52-4.22-2.26s-2.92-1.28-4.38-2h-.16a2 2 0 1 1 1.52-3.54h.16l4.4 2.48a41.35 41.35 0 0 1 4.18 2.82 55.225 55.225 0 0 1 7.56 6.7 52.877 52.877 0 0 1 6.16 7.84 35.56 35.56 0 0 1 4.36 8.82z"/><path fill="#333" d="M46.58 37.505a33.78 33.78 0 0 1 4-8.96 43.139 43.139 0 0 1 6.18-7.7c1.18-1.16 2.44-2.24 3.72-3.28l2-1.44a14.266 14.266 0 0 1 2.1-1.32 28.922 28.922 0 0 1 9.24-3.62l-7.76 5.64a80.138 80.138 0 0 0-7 6.26 147.999 147.999 0 0 0-12.48 14.42zm1.84 14.68a1.455 1.455 0 0 1-.151-.008 1.498 1.498 0 0 1-1.117-.691c-7.152-11.324-5.7-26.052-2.45-32.44C49.925 8.8 57.222 1.98 64.725.36A13.525 13.525 0 0 1 75.16 2.073 13.514 13.514 0 0 1 85.595.361c7.502 1.618 14.8 8.428 20.022 18.684 3.304 6.5 5.854 21.037-1.37 32.443a1.5 1.5 0 0 1-2.317.269 39.369 39.369 0 0 1-10.678-17.319c-1.35-3.96-2.065-5.75-4.877-6.712-3.365-1.142-8.088 2.378-9.625 3.83a1.501 1.501 0 0 1-2.074-.014c-1.572-1.52-6.345-5.176-9.52-3.852-2.92 1.275-3.9 3.75-5.385 7.496A45.878 45.878 0 0 1 49.5 51.725a1.501 1.501 0 0 1-1.081.46zm36.548-27.68a7.367 7.367 0 0 1 2.373.379c4.328 1.48 5.45 4.773 6.75 8.584a35.956 35.956 0 0 0 8.579 14.761c5.536-10.457 2.68-23.096.272-27.824-4.8-9.45-11.364-15.686-17.98-17.112a10.39 10.39 0 0 0-8.865 1.803 1.501 1.501 0 0 1-1.875 0 10.39 10.39 0 0 0-8.865-1.803c-6.617 1.427-13.17 7.664-17.98 17.112-2.4 4.73-4.25 17.346 1.318 27.77a42.879 42.879 0 0 0 8.288-14.096c1.632-4.117 2.92-7.37 6.997-9.15 4.44-1.853 9.592 1.76 11.755 3.548 1.76-1.4 5.475-3.974 9.234-3.974z"/><path fill="#f9cd5a" d="M75.667 33.065l-.18-.003a1.5 1.5 0 0 1-1.448-1.55 1.517 1.517 0 0 1 1.55-1.448 1.534 1.534 0 0 1 1.539 1.5 1.467 1.467 0 0 1-1.461 1.501zm3.063-.946a1.5 1.5 0 0 1-.837-2.746 1.531 1.531 0 0 1 2.124.305 1.472 1.472 0 0 1-.296 2.077l-.156.1a1.495 1.495 0 0 1-.834.254zm-6.26-.098a1.431 1.431 0 0 1-.852-.282l-.144-.108a1.5 1.5 0 1 1 1.853-2.359 1.535 1.535 0 0 1 .356 2.121 1.509 1.509 0 0 1-1.213.629zm8.283-2.542a1.501 1.501 0 0 1-1.418-1.99l.037-.107a1.5 1.5 0 1 1 2.846.948l-.047.138a1.501 1.501 0 0 1-1.418 1.011zm-10.237-.187a1.439 1.439 0 0 1-1.389-1.002l-.05-.16a1.5 1.5 0 1 1 2.878-.847 1.54 1.54 0 0 1-.956 1.931 1.591 1.591 0 0 1-.485.076zm10.32-3.14a1.501 1.501 0 0 1-1.438-1.077 1.54 1.54 0 0 1 .956-1.931 1.462 1.462 0 0 1 1.874.925l.05.16a1.502 1.502 0 0 1-1.439 1.924zm-10.27-.15a1.502 1.502 0 0 1-1.423-1.975l.047-.14a1.5 1.5 0 0 1 2.836.98l-.037.107A1.5 1.5 0 0 1 70.566 26zm8.378-2.6a1.493 1.493 0 0 1-.915-.312 1.54 1.54 0 0 1-.361-2.124 1.463 1.463 0 0 1 2.06-.351l.133.1a1.5 1.5 0 0 1-.917 2.688zm-6.378-.13a1.491 1.491 0 0 1-1.216-.608 1.467 1.467 0 0 1 .306-2.072l.148-.104a1.5 1.5 0 0 1 1.672 2.491 1.552 1.552 0 0 1-.91.292zm3.24-.975a1.563 1.563 0 0 1-1.582-1.501 1.46 1.46 0 0 1 1.452-1.501l.164.002a1.5 1.5 0 0 1-.034 3zm-.126-5.282a1.5 1.5 0 0 1-1.5-1.5v-.54a1.5 1.5 0 1 1 3 0v.54a1.5 1.5 0 0 1-1.5 1.5zm0-5.927a1.5 1.5 0 0 1-1.5-1.5v-.54a1.5 1.5 0 0 1 3 0v.54a1.5 1.5 0 0 1-1.5 1.5zm0-5.928a1.5 1.5 0 0 1-1.5-1.5v-.538a1.5 1.5 0 0 1 3 0v.538a1.5 1.5 0 0 1-1.5 1.5z"/><path fill="#9c1c49" d="M77.6 42.105a28.475 28.475 0 0 0-1.18-3.16.88.88 0 0 0-1.08-.5.78.78 0 0 0-.5.5 31.993 31.993 0 0 0-1.2 3.16 2.197 2.197 0 1 0 4 1.82v-.16a2.16 2.16 0 0 0-.04-1.66z"/><g fill="#f9cd5a"><circle cx="75.68" cy="26.225" r="2.16"/><circle cx="75.68" cy="35.745" r="1.62"/></g><defs><path id="B" d="M49.26 74.685a20.479 20.479 0 0 1 1.74-5.06 1.1 1.1 0 0 1 1.44-.58 1.3 1.3 0 0 1 .56.58 20.479 20.479 0 0 1 1.74 5.06 2.74 2.74 0 0 1-5.44 0z"/></defs></svg>