<svg xmlns="http://www.w3.org/2000/svg" xmlns:xlink="http://www.w3.org/1999/xlink" width="240" height="336" viewBox="-120 -168 240 336" preserveAspectRatio="none"><symbol id="A" viewBox="-500 -500 1000 1000" preserveAspectRatio="xMinYMid"><path d="M250-100a250 250 0 0 1-500 0v-110a250 250 0 0 1 500 0v420A250 250 0 0 1 0 460c-150 0-180-60-200-85" stroke="#000" stroke-width="80" stroke-linecap="square" stroke-miterlimit="1.5" fill="none"/></symbol><symbol id="B" viewBox="-600 -600 1200 1200" preserveAspectRatio="xMinYMid"><path d="M0-500c100 250 355 400 355 685a150 150 0 0 1-300 0 10 10 0 0 0-20 0c0 200 50 215 95 315h-260c45-100 95-115 95-315a10 10 0 0 0-20 0 150 150 0 0 1-300 0c0-285 255-435 355-685z"/></symbol><rect width="239" height="335" x="-119.5" y="-167.5" rx="12" fill="#fff" stroke="#000"/><use xlink:href="#B" height="70" width="70" x="-35" y="-35"/><use xlink:href="#A" height="32" width="32" x="-114.4" y="-156"/><use xlink:href="#B" height="26.769" width="26.769" x="-111.784" y="-119"/><use xlink:href="#B" height="70" width="70" x="-87.501" y="-135.501"/><use xlink:href="#B" height="70" width="70" x="17.501" y="-135.501"/><use xlink:href="#B" height="70" width="70" x="-87.501" y="-68.5"/><use xlink:href="#B" height="70" width="70" x="17.501" y="-68.5"/><g transform="rotate(180)"><use xlink:href="#A" height="32" width="32" x="-114.4" y="-156"/><use xlink:href="#B" height="26.769" width="26.769" x="-111.784" y="-119"/><use xlink:href="#B" height="70" width="70" x="-87.501" y="-135.501"/><use xlink:href="#B" height="70" width="70" x="17.501" y="-135.501"/><use xlink:href="#B" height="70" width="70" x="-87.501" y="-68.5"/><use xlink:href="#B" height="70" width="70" x="17.501" y="-68.5"/></g></svg>