<svg xmlns="http://www.w3.org/2000/svg" width="607" height="807" viewBox="68.547 122.681 607 807"><g stroke="#000"><rect x="72.047" y="126.18" width="600" height="800" rx="17.143" fill="#fff" stroke-width="5"/><path d="M261.03 464.2c-131.54 134.38-3.605 232.26 100.4 168.1.567 33.098-25.384 63.998-41.346 93.544h112.3c-16.434-28.717-43.883-60.354-44.886-93.544 106.18 60.994 219.1-45.375 101.28-168.1-61.432-67.4-99.835-119.84-114.3-137.67-13.2 17.38-48.368 68.5-113.42 137.67z" fill-rule="evenodd" stroke-width=".922pt"/></g><text x="82.752" y="206.359" font-family="Bitstream Vera Serif" font-size="95.593" xml:space="preserve"><tspan x="82.752" y="206.359">A</tspan></text><text transform="scale(-1)" x="-664.062" y="-846.09" font-family="Bitstream Vera Serif" font-size="95.593" xml:space="preserve"><tspan x="-664.062" y="-846.09">A</tspan></text><path d="M97.688 236.9c-22.207 22.687-.6 39.2 16.95 28.38.096 5.588-4.285 10.804-6.98 15.793h18.957c-2.774-4.848-7.4-10.2-7.578-15.793 18.046 10.72 37-7.66 17.098-28.38-10.37-11.38-16.855-20.232-19.298-23.242-2.23 2.934-8.166 11.563-19.148 23.242zM650.17 815.68c22.207-22.687.6-39.2-16.95-28.38-.096-5.588 4.285-10.804 6.98-15.793h-18.957c2.774 4.848 7.4 10.2 7.578 15.793-18.046-10.72-37 7.66-17.098 28.38 10.37 11.38 16.855 20.232 19.298 23.242 2.23-2.934 8.166-11.563 19.148-23.242z" stroke="#000" fill-rule="evenodd" stroke-width=".156pt"/></svg>