<svg xmlns="http://www.w3.org/2000/svg" xmlns:xlink="http://www.w3.org/1999/xlink" width="209" height="303" viewBox="0 0 167.184 242.862"><style>.B{fill-rule:evenodd}.C{stroke:none}.D{stroke-miterlimit:10}.E{stroke-linejoin:round}.F{stroke-width:1.317}.G{fill:#fff}.H{fill:#313390}.I{stroke-linejoin:miter}.J{fill:#17067a}.K{stroke-width:.863}</style><g fill="none" stroke="#17067a"><g class="G"><path stroke="#000" stroke-width=".5" d="M166.942 235.524c0 3.767-3.086 6.856-6.87 6.856H7.208c-3.775 0-6.862-3.09-6.862-6.856V7.536A6.88 6.88 0 0 1 7.208.679H160.07c3.785 0 6.87 3.084 6.87 6.857v227.988z" class="I"/><use class="B C" xlink:href="#B"/></g><use stroke-width="2.849" class="D I" xlink:href="#B"/><use class="B C G" xlink:href="#C"/><use stroke-width="2.676" class="D I" xlink:href="#C"/><use class="B C H" xlink:href="#D"/><use stroke-width="1.641" class="D I" xlink:href="#D"/><use class="B C G" xlink:href="#E"/><use stroke-width="2.063" class="D E" xlink:href="#E"/><use class="B C H" xlink:href="#F"/><use stroke-width="1.796" class="D E" xlink:href="#F"/><path d="M9.407 9.247h6.663l-6.6 6.39-.064-6.39z" class="B C J"/><path d="M9.407 9.247h6.663l-6.6 6.39-.064-6.39z" class="D I K"/><path d="M157.5 9.33h-6.663l6.598 6.39.064-6.39z" class="B C J"/><path d="M157.5 9.33h-6.663l6.598 6.39.064-6.39z" class="D I K"/><path d="M157.6 233.902h-6.664l6.6-6.39.063 6.39z" class="B C J"/><path d="M157.6 233.902h-6.664l6.6-6.39.063 6.39z" class="D I K"/><path d="M9.402 233.87h6.663l-6.598-6.4-.065 6.4z" class="B C J"/><path d="M9.402 233.87h6.663l-6.598-6.4-.065 6.4z" class="D I K"/><path d="M11.96 130.614v6.122l22.43-11.448v-6.273l-22.43 11.598z" class="B C H"/><path d="M11.96 130.614v6.122l22.43-11.448v-6.273l-22.43 11.598z" class="D E F"/><use class="B C H" xlink:href="#G"/><use class="D E F" xlink:href="#G"/><use class="B C G" xlink:href="#H"/><use class="D E F" xlink:href="#H"/><path d="M12.123 118.878V125l22.43-11.45v-6.27l-22.43 11.6z" class="B C H"/><path d="M12.123 118.878V125l22.43-11.45v-6.27l-22.43 11.6z" class="D E F"/><path d="M12.016 125.25v-6.12l22.43 11.45v6.272l-22.43-11.6z" class="B C G"/><path d="M12.016 125.25v-6.12l22.43 11.45v6.272l-22.43-11.6z" class="D E F"/><path d="M12.01 107.3v6.122l22.43-11.448v-6.273l-22.43 11.6z" class="B C H"/><path d="M12.01 107.3v6.122l22.43-11.448v-6.273l-22.43 11.6z" class="D E F"/><use class="B C G" xlink:href="#I"/><use class="D E F" xlink:href="#I"/><path d="M12.066 101.938v-6.122l22.43 11.45v6.27l-22.43-11.6z" class="B C G"/><path d="M12.066 101.938v-6.122l22.43 11.45v6.27l-22.43-11.6z" class="D E F"/><path d="M12.104 153.874v6.12l22.43-11.448v-6.272l-22.43 11.6z" class="B C H"/><path d="M12.104 153.874v6.12l22.43-11.448v-6.272l-22.43 11.6z" class="D E F"/><path d="M11.878 148.448v-6.12l22.43 11.45v6.273l-22.43-11.6z" class="B C G"/><path d="M11.878 148.448v-6.12l22.43 11.45v6.273l-22.43-11.6z" class="D E F"/><path d="M11.876 72.28V78.4l22.43-11.45v-6.27l-22.43 11.6z" class="B C H"/><path d="M11.876 72.28V78.4l22.43-11.45v-6.27l-22.43 11.6z" class="D E F"/><path d="M12 83.855v6.124l22.43-11.45v-6.273L12 83.855z" class="B C H"/><path d="M12 83.855v6.124l22.43-11.45v-6.273L12 83.855z" class="D E F"/><path d="M11.764 78.43V72.31l22.43 11.448v6.273l-22.43-11.6z" class="B C G"/><path d="M11.764 78.43V72.31l22.43 11.448v6.273l-22.43-11.6z" class="D E F"/><path d="M12.04 60.54v6.124l22.43-11.45v-6.272l-22.43 11.6z" class="B C H"/><path d="M12.04 60.54v6.124l22.43-11.45v-6.272l-22.43 11.6z" class="D E F"/><path d="M11.933 66.917v-6.122l22.43 11.448v6.272l-22.43-11.6z" class="B C G"/><path d="M11.933 66.917v-6.122l22.43 11.448v6.272l-22.43-11.6z" class="D E F"/><use x="-.147" y="-93.227" class="B C H" xlink:href="#G"/><use x="-.147" y="-93.227" class="D E F" xlink:href="#G"/><path d="M11.815 55.117v-6.122l22.43 11.448v6.273l-22.43-11.6z" class="B C G"/><path d="M11.815 55.117v-6.122l22.43 11.448v6.273l-22.43-11.6z" class="D E F"/><path d="M11.983 43.602v-6.12l22.43 11.448V55.2l-22.43-11.6z" class="B C G"/><path d="M11.983 43.602v-6.12l22.43 11.448V55.2l-22.43-11.6z" class="D E F"/><use x="-.051" y="-46.652" class="B C H" xlink:href="#G"/><use x="-.051" y="-46.652" class="D E F" xlink:href="#G"/><path d="M11.796 90.113V83.99l22.43 11.45v6.27l-22.43-11.6z" class="B C G"/><path d="M11.796 90.113V83.99l22.43 11.45v6.27l-22.43-11.6z" class="D E F"/><path d="M11.96 188.8v6.123l22.43-11.45v-6.273l-22.43 11.6z" class="B C H"/><path d="M11.96 188.8v6.123l22.43-11.45v-6.273l-22.43 11.6z" class="D E F"/><use class="B C H" xlink:href="#J"/><use class="D E F" xlink:href="#J"/><path d="M11.847 194.943v-6.124l22.43 11.45v6.273l-22.43-11.6z" class="B C G"/><path d="M11.847 194.943v-6.124l22.43 11.45v6.273l-22.43-11.6z" class="D E F"/><use x=".05" y="-23.314" class="B C H" xlink:href="#J"/><use x=".05" y="-23.314" class="D E F" xlink:href="#J"/><path d="M12.016 183.427v-6.123l22.43 11.45v6.272l-22.43-11.6z" class="B C G"/><path d="M12.016 183.427v-6.123l22.43 11.45v6.272l-22.43-11.6z" class="D E F"/><use x="-.063" y="-34.89" class="B C H" xlink:href="#J"/><use x="-.063" y="-34.89" class="D E F" xlink:href="#J"/><use y="58.176" class="B C G" xlink:href="#I"/><use y="58.176" class="D E F" xlink:href="#I"/><use x=".219" y="23.347" class="B C G" xlink:href="#H"/><use x=".219" y="23.347" class="D E F" xlink:href="#H"/><path d="M131.943 113.337v-6.124l22.43 11.456v6.275l-22.43-11.606z" class="B C H"/><path d="M131.943 113.337v-6.124l22.43 11.456v6.275l-22.43-11.606z" class="D E F"/><path d="M132.056 101.754V95.63l22.432 11.457v6.276l-22.432-11.607z" class="B C H"/><path d="M132.056 101.754V95.63l22.432 11.457v6.276l-22.432-11.607z" class="D E F"/><path d="M131.83 107.183v6.124l22.43-11.455v-6.276l-22.43 11.606z" class="B C G"/><path d="M131.83 107.183v6.124l22.43-11.455v-6.276l-22.43 11.606z" class="D E F"/><path d="M132.104 125.082v-6.126l22.433 11.456v6.277l-22.433-11.607z" class="B C H"/><path d="M132.104 125.082v-6.126l22.433 11.456v6.277l-22.433-11.607z" class="D E F"/><path d="M132 118.704v6.124l22.43-11.455v-6.276L132 118.704z" class="B C G"/><path d="M132 118.704v6.124l22.43-11.455v-6.276L132 118.704z" class="D E F"/><path d="M131.993 136.665v-6.125l22.43 11.457v6.275l-22.43-11.607z" class="B C H"/><path d="M131.993 136.665v-6.125l22.43 11.457v6.275l-22.43-11.607z" class="D E F"/><path d="M131.88 130.51v6.124l22.432-11.454v-6.277L131.88 130.51z" class="B C G"/><path d="M131.88 130.51v6.124l22.432-11.454v-6.277L131.88 130.51z" class="D E F"/><path d="M132.05 142.032v6.126l22.43-11.456v-6.277l-22.43 11.607z" class="B C G"/><path d="M132.05 142.032v6.126l22.43-11.456v-6.277l-22.43 11.607z" class="D E F"/><path d="M132.09 90.065V83.94l22.43 11.456v6.276l-22.43-11.605z" class="B C H"/><path d="M132.09 90.065V83.94l22.43 11.456v6.276l-22.43-11.605z" class="D E F"/><path d="M131.86 95.493v6.126l22.432-11.457v-6.276L131.86 95.493z" class="B C G"/><path d="M131.86 95.493v6.126l22.432-11.457v-6.276L131.86 95.493z" class="D E F"/><path d="M131.858 171.71v-6.127L154.3 177.04v6.275l-22.432-11.605z" class="B C H"/><path d="M131.858 171.71v-6.127L154.3 177.04v6.275l-22.432-11.605z" class="D E F"/><path d="M131.974 160.126V154l22.43 11.456v6.276l-22.43-11.605z" class="B C H"/><path d="M131.974 160.126V154l22.43 11.456v6.276l-22.43-11.605z" class="D E F"/><use class="B C G" xlink:href="#K"/><use class="D E F" xlink:href="#K"/><path d="M132.022 183.452v-6.125l22.43 11.455v6.277l-22.43-11.607z" class="B C H"/><path d="M132.022 183.452v-6.125l22.43 11.455v6.277l-22.43-11.607z" class="D E F"/><path d="M131.917 177.074v6.125l22.43-11.455v-6.277l-22.43 11.607z" class="B C G"/><path d="M131.917 177.074v6.125l22.43-11.455v-6.277l-22.43 11.607z" class="D E F"/><path d="M131.91 195.038v-6.125l22.43 11.455v6.275l-22.43-11.605z" class="B C H"/><path d="M131.91 195.038v-6.125l22.43 11.455v6.275l-22.43-11.605z" class="D E F"/><path d="M131.798 188.882v6.124l22.43-11.457v-6.275l-22.43 11.608z" class="B C G"/><path d="M131.798 188.882v6.124l22.43-11.457v-6.275l-22.43 11.608z" class="D E F"/><path d="M131.967 200.404v6.125l22.43-11.456v-6.276l-22.43 11.607z" class="B C G"/><path d="M131.967 200.404v6.125l22.43-11.456v-6.276l-22.43 11.607z" class="D E F"/><path d="M132.005 148.435v-6.124l22.43 11.455v6.275l-22.43-11.606z" class="B C H"/><path d="M132.005 148.435v-6.124l22.43 11.455v6.275l-22.43-11.606z" class="D E F"/><path d="M131.78 153.865V160l22.43-11.457v-6.275l-22.43 11.607z" class="B C G"/><path d="M131.78 153.865V160l22.43-11.457v-6.275l-22.43 11.607z" class="D E F"/><path d="M131.943 55.13v-6.127l22.43 11.457v6.276l-22.43-11.605z" class="B C H"/><path d="M131.943 55.13v-6.127l22.43 11.457v6.276l-22.43-11.605z" class="D E F"/><path d="M132.056 43.544v-6.126l22.432 11.456v6.276l-22.432-11.606z" class="B C H"/><path d="M132.056 43.544v-6.126l22.432 11.456v6.276l-22.432-11.606z" class="D E F"/><use x=".08" y="-116.581" class="B C G" xlink:href="#K"/><use x=".08" y="-116.581" class="D E F" xlink:href="#K"/><path d="M132.104 66.872v-6.124l22.433 11.456v6.274l-22.433-11.606z" class="B C H"/><path d="M132.104 66.872v-6.124l22.433 11.456v6.274l-22.433-11.606z" class="D E F"/><path d="M132 60.495v6.125l22.43-11.457v-6.276L132 60.495z" class="B C G"/><path d="M132 60.495v6.125l22.43-11.457v-6.276L132 60.495z" class="D E F"/><path d="M131.993 78.456V72.33l22.43 11.455v6.276l-22.43-11.606z" class="B C H"/><path d="M131.993 78.456V72.33l22.43 11.455v6.276l-22.43-11.606z" class="D E F"/><path d="M131.88 72.3v6.125l22.432-11.457v-6.276L131.88 72.3z" class="B C G"/><path d="M131.88 72.3v6.125l22.432-11.457v-6.276L131.88 72.3z" class="D E F"/><path d="M132.05 83.822v6.125l22.43-11.455v-6.276l-22.43 11.605z" class="B C G"/><path d="M132.05 83.822v6.125l22.43-11.455v-6.276l-22.43 11.605z" class="D E F"/><path d="M68.546 11.72h-6.3l11.766 21.774h6.446L68.546 11.72z" class="B C H"/><path d="M68.546 11.72h-6.3l11.766 21.774h6.446L68.546 11.72z" class="D E F"/><path d="M56.65 11.832h-6.29l11.765 21.774h6.445L56.65 11.832z" class="B C H"/><path d="M56.65 11.832h-6.29l11.765 21.774h6.445L56.65 11.832z" class="D E F"/><path d="M62.225 11.612h6.29L56.75 33.386h-6.445l11.92-21.774z" class="B C G"/><path d="M62.225 11.612h6.29L56.75 33.386h-6.445l11.92-21.774z" class="D E F"/><path d="M80.61 11.88h-6.292l11.765 21.774h6.446L80.61 11.88z" class="B C H"/><path d="M80.61 11.88h-6.292l11.765 21.774h6.446L80.61 11.88z" class="D E F"/><path d="M74.058 11.777h6.292L68.584 33.55h-6.446l11.92-21.774z" class="B C G"/><path d="M74.058 11.777h6.292L68.584 33.55h-6.446l11.92-21.774z" class="D E F"/><path d="M116.463 11.87h-6.29l11.766 21.774h6.445l-11.92-21.774z" class="B C H"/><path d="M116.463 11.87h-6.29l11.766 21.774h6.445l-11.92-21.774z" class="D E F"/><path d="M92.505 11.768h-6.29L97.98 33.544h6.447L92.505 11.768z" class="B C H"/><path d="M92.505 11.768h-6.29L97.98 33.544h6.447L92.505 11.768z" class="D E F"/><path d="M86.184 11.66h6.3L80.7 33.434h-6.445l11.92-21.774z" class="B C G"/><path d="M86.184 11.66h6.3L80.7 33.434h-6.445l11.92-21.774z" class="D E F"/><path d="M104.567 11.98h-6.29l11.766 21.774h6.444l-11.92-21.774z" class="B C H"/><path d="M104.567 11.98h-6.29l11.766 21.774h6.444l-11.92-21.774z" class="D E F"/><path d="M98.017 11.825h6.292L92.542 33.6h-6.444l11.92-21.774z" class="B C G"/><path d="M98.017 11.825h6.292L92.542 33.6h-6.444l11.92-21.774z" class="D E F"/><path d="M110.14 11.76h6.292l-11.765 21.776h-6.446l11.92-21.776z" class="B C G"/><path d="M110.14 11.76h6.292l-11.765 21.776h-6.446l11.92-21.776z" class="D E F"/><path d="M128.49 11.928h-6.29L133.966 33.7h6.444l-11.92-21.774z" class="B C H"/><path d="M128.49 11.928h-6.29L133.966 33.7h6.444l-11.92-21.774z" class="D E F"/><path d="M121.976 11.924h6.3L116.5 33.7h-6.446l11.92-21.774z" class="B C G"/><path d="M121.976 11.924h6.3L116.5 33.7h-6.446l11.92-21.774z" class="D E F"/><path d="M44.644 11.86h-6.29L50.12 33.635h6.444L44.644 11.86z" class="B C H"/><path d="M44.644 11.86h-6.29L50.12 33.635h6.444L44.644 11.86z" class="D E F"/><path d="M32.863 11.645h-6.29L38.338 33.42h6.445l-11.92-21.774z" class="B C H"/><path d="M32.863 11.645h-6.29L38.338 33.42h6.445l-11.92-21.774z" class="D E F"/><path d="M50.22 11.642h6.29L44.745 33.416H38.3l11.92-21.774z" class="B C G"/><path d="M50.22 11.642h6.29L44.745 33.416H38.3l11.92-21.774z" class="D E F"/><path d="M20.95 11.645h-6.29L26.426 33.42h6.445L20.95 11.645z" class="B C H"/><path d="M20.95 11.645h-6.29L26.426 33.42h6.445L20.95 11.645z" class="D E F"/><path d="M38.336 11.645h6.29L32.86 33.42h-6.444l11.92-21.774z" class="B C G"/><path d="M38.336 11.645h6.29L32.86 33.42h-6.444l11.92-21.774z" class="D E F"/><path d="M26.58 11.645h6.29L21.106 33.42H14.66l11.92-21.774z" class="B C G"/><path d="M26.58 11.645h6.29L21.106 33.42H14.66l11.92-21.774z" class="D E F"/><use class="B C H" xlink:href="#L"/><use class="D E F" xlink:href="#L"/><path d="M134.068 11.708h6.3l-11.765 21.774h-6.448l11.923-21.774z" class="B C G"/><path d="M134.068 11.708h6.3l-11.765 21.774h-6.448l11.923-21.774z" class="D E F"/><path d="M145.9 11.873h6.29l-11.764 21.774h-6.446l11.92-21.774z" class="B C G"/><path d="M145.9 11.873h6.29l-11.764 21.774h-6.446l11.92-21.774z" class="D E F"/><path d="M68.888 209.763h-6.29l11.765 21.774h6.446l-11.92-21.774z" class="B C H"/><path d="M68.888 209.763h-6.29l11.765 21.774h6.446l-11.92-21.774z" class="D E F"/><path d="M56.99 209.874H50.7l11.766 21.775h6.446l-11.92-21.775z" class="B C H"/><path d="M56.99 209.874H50.7l11.766 21.775h6.446l-11.92-21.775z" class="D E F"/><path d="M62.565 209.656h6.293L57.092 231.43h-6.447l11.92-21.773z" class="B C G"/><path d="M62.565 209.656h6.293L57.092 231.43h-6.447l11.92-21.773z" class="D E F"/><path d="M80.948 209.923h-6.3l11.765 21.773h6.445l-11.92-21.773z" class="B C H"/><path d="M80.948 209.923h-6.3l11.765 21.773h6.445l-11.92-21.773z" class="D E F"/><path d="M74.4 209.82h6.29l-11.765 21.775H62.48L74.4 209.82z" class="B C G"/><path d="M74.4 209.82h6.29l-11.765 21.775H62.48L74.4 209.82z" class="D E F"/><path d="M116.804 209.912h-6.292l11.767 21.774h6.446l-11.92-21.774z" class="B C H"/><path d="M116.804 209.912h-6.292l11.767 21.774h6.446l-11.92-21.774z" class="D E F"/><path d="M92.847 209.81h-6.292l11.765 21.775h6.447l-11.92-21.775z" class="B C H"/><path d="M92.847 209.81h-6.292l11.765 21.775h6.447l-11.92-21.775z" class="D E F"/><path d="M86.524 209.704h6.293L81.05 231.477h-6.445l11.92-21.774z" class="B C G"/><path d="M86.524 209.704h6.293L81.05 231.477h-6.445l11.92-21.774z" class="D E F"/><path d="M104.908 210.024h-6.294l11.767 21.774h6.446l-11.92-21.774z" class="B C H"/><path d="M104.908 210.024h-6.294l11.767 21.774h6.446l-11.92-21.774z" class="D E F"/><path d="M98.357 209.868h6.292L92.882 231.64h-6.444l11.92-21.773z" class="B C G"/><path d="M98.357 209.868h6.292L92.882 231.64h-6.444l11.92-21.773z" class="D E F"/><path d="M110.482 209.802h6.29L105 231.58h-6.447l11.92-21.777z" class="B C G"/><path d="M110.482 209.802h6.29L105 231.58h-6.447l11.92-21.777z" class="D E F"/><use x="-11.731" y="198.221" class="B C H" xlink:href="#L"/><use x="-11.731" y="198.221" class="D E F" xlink:href="#L"/><path d="M122.316 209.968h6.3l-11.765 21.774h-6.446l11.92-21.774z" class="B C G"/><path d="M122.316 209.968h6.3l-11.765 21.774h-6.446l11.92-21.774z" class="D E F"/><path d="M44.984 209.905h-6.3l11.765 21.774h6.445l-11.92-21.774z" class="B C H"/><path d="M44.984 209.905h-6.3l11.765 21.774h6.445l-11.92-21.774z" class="D E F"/><path d="M32.994 209.946h-6.292l11.766 21.775h6.445l-11.92-21.775z" class="B C H"/><path d="M32.994 209.946h-6.292l11.766 21.775h6.445l-11.92-21.775z" class="D E F"/><path d="M50.56 209.685h6.3L45.086 231.46H38.64l11.92-21.774z" class="B C G"/><path d="M50.56 209.685h6.3L45.086 231.46H38.64l11.92-21.774z" class="D E F"/><path d="M140.553 209.928h-6.29l11.764 21.776h6.447l-11.92-21.776z" class="B C H"/><path d="M140.553 209.928h-6.29l11.764 21.776h6.447l-11.92-21.776z" class="D E F"/><path d="M134.233 209.82h6.29l-11.765 21.775H122.3l11.922-21.775z" class="B C G"/><path d="M134.233 209.82h6.29l-11.765 21.775H122.3l11.922-21.775z" class="D E F"/><path d="M146.065 209.983h6.3L140.6 231.758h-6.445l11.92-21.775z" class="B C G"/><path d="M146.065 209.983h6.3L140.6 231.758h-6.445l11.92-21.775z" class="D E F"/><path d="M38.568 209.726h6.292l-11.766 21.777H26.65l11.92-21.777z" class="B C G"/><path d="M38.568 209.726h6.292l-11.766 21.777H26.65l11.92-21.777z" class="D E F"/><path d="M20.988 209.978h-6.292l11.766 21.774h6.445l-11.92-21.774z" class="B C H"/><path d="M20.988 209.978h-6.292l11.766 21.774h6.445l-11.92-21.774z" class="D E F"/><path d="M26.563 209.756h6.292L21.1 231.532h-6.447l11.92-21.776z" class="B C G"/><path d="M26.563 209.756h6.292L21.1 231.532h-6.447l11.92-21.776z" class="D E F"/><path stroke="#000" stroke-width=".5" d="M166.838 235.326c0 3.767-3.086 6.857-6.872 6.857H7.103c-3.775 0-6.862-3.1-6.862-6.857V7.338A6.88 6.88 0 0 1 7.103.482h152.863c3.786 0 6.872 3.084 6.872 6.856v227.988z" class="I"/></g><defs><path id="B" d="M7.64 2.098c-3.214 0-5.802 2.51-5.802 5.632v227.487c0 3.12 2.588 5.63 5.802 5.63h152.09c3.215 0 5.8-2.51 5.8-5.63V7.73c0-3.12-2.586-5.632-5.8-5.632H7.64z"/><path id="C" d="M9.282 7.624c-.8 0-1.46.633-1.46 1.418v224.865c0 .785.65 1.417 1.46 1.417h148.435c.8 0 1.462-.633 1.462-1.417V9.04c0-.785-.652-1.418-1.462-1.418H9.282z"/><path id="D" d="M38.653 37.275c-.4 0-.704.304-.704.684v167.748c0 .38.314.684.704.684h88.2c.392 0 .704-.304.704-.684V37.96c0-.38-.313-.684-.704-.684h-88.2z"/><path id="E" d="M52.617 43.224c-4.62 0-8.34 3.612-8.34 8.097v140.305c0 4.486 3.72 8.097 8.34 8.097h59.913c4.62 0 8.34-3.61 8.34-8.097V51.32c0-4.485-3.72-8.097-8.34-8.097H52.617z"/><path id="F" d="M53.544 49.674c-1.554 0-2.805 1.215-2.805 2.724v138.15c0 1.5 1.252 2.724 2.805 2.724h57.687c1.556 0 2.81-1.214 2.81-2.724V52.398c0-1.51-1.253-2.724-2.81-2.724H53.544z"/><path id="G" d="M12.073 142.192v6.122l22.43-11.45v-6.27l-22.43 11.6z"/><path id="H" d="M11.847 136.766v-6.122l22.43 11.45v6.272l-22.43-11.6z"/><path id="I" d="M11.897 113.452v-6.122l22.43 11.45v6.27l-22.43-11.598z"/><path id="J" d="M12.073 200.367v6.12l22.43-11.45v-6.27l-22.43 11.6z"/><path id="K" d="M131.75 165.553v6.126l22.43-11.456v-6.276l-22.43 11.606z"/><path id="L" d="M140.388 11.817h-6.292l11.767 21.775h6.444l-11.92-21.775z"/></defs></svg>