<svg xmlns="http://www.w3.org/2000/svg" xmlns:xlink="http://www.w3.org/1999/xlink" width="208" height="303" viewBox="0 0 167.08 242.665"><style><![CDATA[.B{fill-rule:evenodd}.C{fill:#fff}.D{stroke-miterlimit:10}.E{stroke:#fb0f0c}.F{stroke:#fff}.G{stroke-width:.027}]]></style><g fill="#fb0f0c" stroke="#000"><path d="M166.83 235.888c0 3.786-3.086 6.9-6.87 6.9H7.11c-3.775 0-6.86-3.104-6.86-6.9V6.778c0-3.79 3.086-6.89 6.86-6.89h152.85a6.9 6.9 0 0 1 6.87 6.891v229.1z" stroke-width=".5" class="C"/><g class="B"><g class="D G"><path d="M27.635 32.346H131.08c.813 0 8.628-.373 8.628.295V208.03c0 .257.174 1.428-.143 1.428H28.314c-1.46 0-.68-4.075-.68-5.24V32.346" class="E"/><g class="C F"><path d="M61.657 96.013l44.028.31v50.422c0 .505-44.028.06-44.028.188V96.013"/><path d="M83.67 91.383L61.89 116.58c-.68.785-4.237 3.8-4.237 4.9 0 1.003 3.273 3.787 3.896 4.508l22.12 25.6 21.78-25.196c.68-.786 4.237-3.8 4.237-4.9 0-1.003-3.273-3.786-3.896-4.507l-22.12-25.6"/></g><g class="E"><path d="M63.658 98.328h38.23c2.306 0 1.797.197 1.797 2.516V143.3c0 2.105-1.218 1.322-3.228 1.322H64.633c-1.577 0-.975-1.024-.975-2.516V98.328"/><path d="M83.67 93.698L63.494 117.04c-.614.71-3.838 3.452-3.838 4.44 0 .9 2.94 3.4 3.5 4.048l20.517 23.734 20.178-23.34c.614-.71 3.838-3.453 3.838-4.44 0-.9-2.94-3.4-3.5-4.048L83.67 93.698"/></g><g class="C F"><path d="M67.66 102.96h26.074c1.085 0 5.946-.735 5.946.594l-.02 36.45h-26.6c-1.06 0-5.4.725-5.4-.595v-36.45"/><path d="M83.67 98.328l-16.714 19.335c-.528.61-3.3 2.967-3.3 3.817 0 .762 2.485 2.876 2.958 3.422l17.055 19.73 16.713-19.335c.53-.61 3.3-2.968 3.3-3.817 0-.76-2.485-2.875-2.958-3.422L83.67 98.328"/></g><g class="E"><path d="M69.662 105.274h25.613c3.083 0 2.405.274 2.405 3.37v28.368c0 1.497-5.24.674-6.462.674h-16.24c-1.89 0-5.315 1.106-5.315-1.173v-31.24"/><path d="M83.67 100.643l-15.11 17.48c-.464.537-2.9 2.61-2.9 3.355 0 .66 2.152 2.5 2.56 2.963l15.45 17.874 15.11-17.48c.464-.537 2.9-2.61 2.9-3.356 0-.658-2.152-2.5-2.56-2.962l-15.45-17.874"/></g><g class="C F"><path d="M83.67 102.96l-13.25 15.327c-.442.51-2.76 2.484-2.76 3.194 0 .622 2.03 2.35 2.417 2.796l13.593 15.726 13.25-15.327c.442-.512 2.76-2.484 2.76-3.195 0-.62-2.03-2.35-2.416-2.796L83.67 102.96"/><path d="M71.663 107.59h23.913c.21 0 .104 22.725.104 24.893 0 .44.313 2.547 0 2.89-.35.383-3.26 0-3.752 0h-20.16c-.234 0-.104-2.202-.104-2.46V107.59"/></g></g><path d="M83.67 107.59L73.54 119.3c-.298.345-1.876 1.69-1.876 2.17s1.578 1.826 1.876 2.17l10.132 11.72 10.13-11.72c.3-.345 1.877-1.69 1.877-2.17s-1.578-1.825-1.877-2.17l-4.127-4.775-6.004-6.946" stroke="none"/><path d="M113.7 93.698h-4.002l4.002 4.63v-4.63m0 6.945l-4.002-4.63v4.5c0 .272 3.486.13 4.002.13m-60.038-6.945h4.002l-4.002 4.63v-4.63m0 6.945l4.002-4.63v4.5c0 .272-3.486.13-4.002.13m4.002 41.674h-4.002l4.002 4.63v-4.63m0 6.945l-4.002-4.63v4.5c0 .272 3.486.13 4.002.13m52.036-6.945h4.002l-4.002 4.63v-4.63m0 6.945l4.002-4.63v4.5c0 .272-3.486.13-4.002.13M57.654 126.1h-4.002l4.002 4.63v-4.63m0 6.946l-4.002-4.63v4.5c0 .272 3.486.13 4.002.13m-4.002-23.152h4.002l-4.002 4.63v-4.63m0 6.946l4.002-4.63v4.5c0 .272-3.486.13-4.002.13m60.038-6.946h-4.002l4.002 4.63v-4.63m0 6.946l-4.002-4.63v4.5c0 .272 3.486.13 4.002.13m-4 9.26h4.002l-4.002 4.63v-4.63m0 6.946l4.002-4.63v4.5c0 .272-3.486.13-4.002.13" class="C D F G"/><g stroke="none"><path d="M69.712 24.532l-2.244-6.22c-.506-1.912-.91-6.58 1.627-7.497 2.433-.88 3.317 3.34 3.286 4.997-.048 2.5-1.228 5.035-2.117 7.324l-.552 1.397"/><path d="M69.7 24.578c-2.01-.85-4.25-1.68-6.03-2.97-1.58-1.145-4.097-4.538-2.628-6.614 1.482-2.095 4.574.306 5.573 1.72 1.433 2.03 2.106 4.804 2.86 7.146l.227.717"/><path d="M69.706 24.578c2-.85 4.25-1.68 6.03-2.97 1.58-1.145 4.096-4.54 2.628-6.614-1.482-2.096-4.575.306-5.574 1.72-1.46 2.07-2.145 4.914-2.9 7.304l-.176.56m-5.152.28c-1.627-.484-3.643-.324-4.683 1.188-.554.806-.68 3.93 1.084 3.322.308-.106.56-1.475.934-1.8.715-.6 2.054-.583 2.922-.652l3.53-.127c.001-.007.003-.013.007-.02-1.088-.845-2.475-1.512-3.792-1.92m10.218-.001c1.627-.485 3.643-.324 4.683 1.188.554.806.68 3.93-1.084 3.322-.308-.106-.56-1.475-.934-1.8-.714-.6-2.054-.583-2.922-.652-1.168-.093-2.38.032-3.53-.127-.001-.007-.003-.013-.007-.02 1.088-.845 2.475-1.512 3.793-1.92m-6.443 4.497c.238 2.04 3.764 1.048 2.078-1.76-1.185-1.973-1.863-.127-2.078 1.76m29.402-4.823l-2.244-6.22c-.506-1.912-.908-6.58 1.627-7.497 2.434-.88 3.318 3.34 3.286 4.997-.048 2.5-1.228 5.035-2.116 7.324l-.553 1.397"/><path d="M97.717 24.578c-2.01-.85-4.25-1.68-6.03-2.97-1.58-1.145-4.097-4.54-2.63-6.614 1.482-2.095 4.574.306 5.574 1.72 1.433 2.03 2.105 4.805 2.857 7.146l.228.717"/><path d="M97.724 24.578c2-.85 4.25-1.68 6.03-2.97 1.58-1.145 4.097-4.538 2.628-6.614-1.48-2.095-4.574.306-5.573 1.72-1.462 2.07-2.144 4.914-2.908 7.304l-.177.56m-5.154.28c-1.627-.485-3.643-.324-4.682 1.188-.555.807-.682 3.93 1.084 3.322.307-.106.56-1.475.934-1.8.714-.6 2.054-.583 2.922-.652l3.528-.127c.001-.007.004-.013.007-.02-1.1-.845-2.474-1.512-3.793-1.92m10.22-.001c1.627-.485 3.644-.324 4.684 1.188.554.806.68 3.93-1.084 3.322-.3-.106-.56-1.475-.935-1.8-.714-.6-2.054-.583-2.922-.652-1.168-.093-2.38.032-3.53-.127-.001-.007-.003-.013-.007-.02 1.1-.845 2.475-1.512 3.793-1.92m-6.443 4.497c.238 2.04 3.765 1.048 2.078-1.76-1.185-1.973-1.864-.126-2.078 1.76m29.404-4.823l-2.245-6.22c-.505-1.912-.908-6.58 1.63-7.497 2.433-.88 3.316 3.34 3.285 4.997-.05 2.5-1.23 5.034-2.117 7.324l-.552 1.397"/><path d="M125.736 24.578c-2.012-.85-4.25-1.68-6.03-2.97-1.58-1.145-4.096-4.54-2.628-6.614 1.48-2.095 4.574.306 5.573 1.72 1.46 2.07 2.145 4.914 2.908 7.304l.178.56"/><path d="M125.742 24.578c2.012-.85 4.25-1.68 6.03-2.97 1.58-1.145 4.096-4.54 2.63-6.614-1.482-2.095-4.575.306-5.574 1.72-1.46 2.07-2.145 4.914-2.908 7.304l-.178.56m-5.152.28c-1.628-.485-3.644-.324-4.684 1.188-.555.807-.68 3.93 1.084 3.322.308-.106.56-1.475.934-1.8.715-.6 2.055-.583 2.922-.652l3.53-.127c.002-.007.004-.013.007-.02-1.1-.845-2.474-1.512-3.792-1.92m10.217-.001c1.63-.484 3.645-.324 4.684 1.188.555.806.682 3.93-1.084 3.322-.307-.106-.56-1.475-.934-1.8-.715-.6-2.054-.583-2.922-.652-1.168-.093-2.38.032-3.53-.127l-.006-.02c1.088-.845 2.474-1.512 3.8-1.92m-6.44 4.497c.238 2.04 3.764 1.047 2.078-1.76-1.186-1.973-1.863-.126-2.078 1.76m-82.67-4.823l-2.245-6.22c-.506-1.912-.908-6.58 1.627-7.497 2.434-.88 3.317 3.34 3.286 4.997-.048 2.5-1.228 5.034-2.117 7.324l-.552 1.397"/><path d="M41.68 24.578c-2.012-.85-4.25-1.68-6.03-2.97-1.58-1.145-4.096-4.538-2.628-6.614 1.482-2.095 4.575.306 5.574 1.72 1.433 2.03 2.106 4.805 2.858 7.146l.227.717"/><path d="M41.687 24.578c2-.85 4.25-1.68 6.03-2.97 1.58-1.145 4.097-4.538 2.628-6.614-1.482-2.095-4.574.306-5.574 1.72-1.433 2.03-2.106 4.805-2.858 7.146l-.227.717m-5.152.28c-1.627-.485-3.643-.324-4.683 1.188-.554.806-.68 3.93 1.084 3.322.307-.106.56-1.475.934-1.8.714-.6 2.054-.583 2.922-.652l3.53-.127c.001-.007.003-.013.007-.02-1.088-.845-2.475-1.513-3.793-1.92m10.218-.001c1.628-.484 3.644-.324 4.684 1.188.554.806.68 3.93-1.084 3.322-.308-.106-.56-1.475-.934-1.8-.714-.6-2.054-.583-2.922-.652-1.168-.093-2.38.032-3.53-.127-.001-.007-.004-.013-.007-.02 1.088-.845 2.474-1.512 3.792-1.92M40.3 29.355c.238 2.04 3.764 1.048 2.078-1.76-1.185-1.973-1.864-.126-2.078 1.76M69.462 217.27l-2.245 6.22c-.505 1.9-.9 6.58 1.628 7.498 2.434.88 3.317-3.34 3.285-4.997-.048-2.492-1.23-5.035-2.116-7.324l-.552-1.397"/><path d="M69.45 217.225c-2.012.848-4.25 1.68-6.03 2.97-1.58 1.145-4.097 4.538-2.63 6.613 1.482 2.095 4.575-.306 5.574-1.72 1.433-2.03 2.106-4.805 2.858-7.146l.227-.717"/><path d="M69.456 217.225c2.012.848 4.25 1.68 6.03 2.97 1.58 1.145 4.096 4.538 2.628 6.613-1.482 2.095-4.574-.306-5.574-1.72-1.46-2.07-2.145-4.914-2.908-7.304l-.177-.56m-5.153-.277c-1.627.484-3.643.323-4.683-1.2-.554-.805-.68-3.93 1.084-3.322.307.106.56 1.475.934 1.8.715.6 2.054.584 2.922.652l3.53.127c.001.008.003.014.007.02-1.088.845-2.475 1.512-3.793 1.922m10.22-.01c1.627.484 3.644.323 4.683-1.2.554-.805.68-3.93-1.084-3.322-.307.106-.56 1.475-.934 1.8-.715.6-2.053.584-2.922.652-1.168.093-2.382-.03-3.53.127-.001.007-.004.014-.007.02 1.087.845 2.475 1.512 3.792 1.922m-6.442-4.508c.238-2.04 3.764-1.05 2.078 1.758-1.185 1.974-1.862.128-2.078-1.758m29.402 4.822l-2.244 6.22c-.506 1.9-.908 6.58 1.627 7.498 2.434.88 3.318-3.34 3.286-4.997-.048-2.5-1.228-5.037-2.116-7.324l-.553-1.397"/><path d="M97.467 217.225c-2.012.848-4.25 1.68-6.03 2.97-1.58 1.145-4.097 4.538-2.63 6.613 1.482 2.095 4.574-.306 5.574-1.72 1.46-2.07 2.144-4.914 2.908-7.304l.177-.56"/><path d="M97.474 217.225c2.012.848 4.25 1.68 6.03 2.97 1.58 1.145 4.097 4.538 2.628 6.613-1.482 2.095-4.574-.306-5.573-1.72-1.46-2.07-2.145-4.914-2.9-7.304l-.176-.56m-5.153-.277c-1.627.484-3.643.323-4.683-1.2-.554-.805-.68-3.93 1.084-3.322.308.106.56 1.475.935 1.8.715.6 2.053.584 2.922.652l3.528.127c.001.007.004.014.007.02-1.088.845-2.475 1.512-3.793 1.922m10.22-.01c1.627.484 3.643.323 4.684-1.2.553-.805.68-3.93-1.084-3.322-.3.106-.56 1.475-.935 1.8-.715.6-2.054.584-2.923.652-1.167.093-2.38-.03-3.528.127-.001.008-.003.014-.007.02 1.088.845 2.475 1.512 3.793 1.922m-6.445-4.508c.24-2.04 3.765-1.05 2.08 1.758-1.185 1.974-1.862.128-2.08-1.758m29.405 4.822l-2.245 6.22c-.505 1.9-.908 6.58 1.63 7.498 2.434.88 3.316-3.34 3.285-4.997-.048-2.5-1.227-5.037-2.117-7.324l-.552-1.397"/><path d="M125.486 217.225c-2.012.848-4.25 1.68-6.03 2.97-1.58 1.145-4.096 4.538-2.63 6.613 1.482 2.095 4.575-.306 5.574-1.72 1.434-2.03 2.106-4.805 2.86-7.146l.227-.717"/><path d="M125.492 217.225c2.012.848 4.25 1.68 6.03 2.97 1.58 1.145 4.096 4.538 2.628 6.613-1.48 2.095-4.574-.306-5.573-1.72-1.434-2.03-2.105-4.805-2.86-7.146l-.227-.717m-5.152-.278c-1.628.484-3.644.323-4.683-1.2-.555-.805-.682-3.93 1.084-3.322.307.106.56 1.475.934 1.8.715.6 2.054.584 2.922.652l3.53.127c.001.008.004.014.007.02-1.1.845-2.474 1.512-3.793 1.922m10.22-.01c1.628.484 3.645.323 4.684-1.2.555-.805.68-3.93-1.084-3.322-.307.106-.56 1.475-.934 1.8-.715.6-2.053.584-2.922.652-1.168.093-2.382-.03-3.53.127-.002.008-.004.014-.007.02 1.087.845 2.475 1.512 3.792 1.922m-6.442-4.508c.237-2.04 3.764-1.05 2.078 1.758-1.186 1.974-1.863.128-2.078-1.758m-82.67 4.822L39.2 223.5c-.505 1.9-.908 6.58 1.628 7.498 2.433.88 3.318-3.34 3.286-4.997-.048-2.492-1.23-5.035-2.117-7.324l-.552-1.397"/><path d="M41.43 217.225c-2.012.848-4.25 1.68-6.03 2.97-1.58 1.145-4.096 4.538-2.63 6.613 1.482 2.095 4.575-.307 5.574-1.72 1.433-2.03 2.105-4.805 2.858-7.146l.227-.717"/><path d="M41.437 217.225c2.012.848 4.25 1.682 6.03 2.97 1.58 1.144 4.097 4.538 2.63 6.613-1.482 2.095-4.574-.306-5.574-1.72-1.46-2.07-2.145-4.914-2.9-7.304l-.177-.56m-5.152-.277c-1.628.484-3.644.323-4.683-1.2-.554-.805-.68-3.93 1.084-3.322.307.106.56 1.475.934 1.8.715.6 2.053.584 2.922.652l3.53.127c.001.008.004.014.007.02-1.088.845-2.474 1.512-3.792 1.922m10.217-.01c1.628.484 3.644.324 4.684-1.2.554-.805.68-3.93-1.084-3.322-.307.106-.56 1.475-.934 1.8-.715.6-2.053.584-2.922.652-1.168.093-2.382-.03-3.53.127-.001.008-.003.014-.007.02 1.088.845 2.475 1.512 3.792 1.922m-6.442-4.508c.24-2.04 3.764-1.05 2.08 1.758-1.185 1.975-1.862.128-2.08-1.758m106.466 6.202c1.906 1.024 3.968 2.284 6.077 2.83 1.92.498 5.555.018 5.904-2.527.338-2.456-3.126-3.558-4.994-3.34-2.33.27-4.773 1.844-6.814 2.94l-.173.097"/><path d="M146.5 218.664c.82 2.606 3.365 12.558 7.947 10.206 2.232-1.145.437-4.936-.732-6.225-1.65-1.816-4.385-2.77-6.596-3.718l-.62-.263"/><path d="M146.486 218.656c.822-2.608 3.367-12.564 7.95-10.206 2.23 1.147.438 4.926-.732 6.217-1.65 1.818-4.386 2.776-6.598 3.728l-.62.262m-.24 5.96c.37 1.677.448 4.192-1.027 5.417-.96.797-3.443.535-2.872-1.254.106-.33 1.26-.678 1.548-1.083.594-.84.508-2.4.563-3.377l.1-4.083c.787 1.307 1.34 2.9 1.678 4.38"/><path d="M146.246 212.795c.372-1.68.45-4.193-1.027-5.418-.96-.795-3.446-.537-2.872 1.254.105.33 1.263.676 1.548 1.08.594.84.508 2.4.563 3.38l.1 4.083c.785-1.305 1.344-2.9 1.678-4.38m-3.88 7.456c-1.828-.443-1.047-4.408 1.52-2.404 1.544 1.205.38 2.078-1.52 2.404m4.173-34.014c1.906 1.026 3.97 2.284 6.078 2.833 1.916.498 5.556.018 5.9-2.528.332-2.454-3.125-3.557-4.994-3.34-2.328.268-4.773 1.843-6.8 2.94l-.174.096"/><path d="M146.486 186.25c.824 2.607 3.367 12.56 7.95 10.206 2.23-1.146.438-4.933-.732-6.22-1.652-1.817-4.387-2.772-6.598-3.723l-.62-.263m.014-.006c.82-2.6 3.363-12.56 7.947-10.206 2.232 1.146.438 4.932-.732 6.22-1.65 1.818-4.385 2.773-6.596 3.724l-.62.262m-.253 5.956c.372 1.683.45 4.2-1.027 5.418-.958.796-3.447.546-2.872-1.25.105-.328 1.263-.676 1.548-1.08.594-.84.508-2.4.563-3.38l.1-4.083c.785 1.303 1.343 2.9 1.678 4.375m.01-11.818c.37-1.677.448-4.192-1.027-5.418-.96-.796-3.45-.536-2.872 1.254.106.328 1.262.675 1.548 1.08.594.84.508 2.4.563 3.38l.1 4.083c.787-1.306 1.34-2.9 1.678-4.38m-3.88 7.456c-1.828-.442-1.045-4.413 1.52-2.4 1.546 1.2.38 2.082-1.52 2.4m4.17-34.014c1.904 1.027 3.972 2.287 6.08 2.833 1.92.498 5.55.018 5.9-2.527.337-2.455-3.125-3.562-4.994-3.346-2.33.27-4.774 1.848-6.814 2.944l-.173.096"/><path d="M146.486 153.838c.824 2.61 3.367 12.56 7.95 10.206 2.23-1.145.438-4.932-.732-6.22-1.652-1.818-4.387-2.773-6.598-3.724l-.62-.263"/><path d="M146.486 153.83c.824-2.607 3.367-12.56 7.95-10.206 2.23 1.146.438 4.933-.732 6.22-1.652 1.817-4.387 2.773-6.598 3.723l-.62.263m-.24 5.963c.37 1.678.448 4.192-1.027 5.418-.96.797-3.446.536-2.872-1.254.105-.33 1.263-.676 1.548-1.08.594-.84.508-2.4.563-3.38.077-1.346-.065-2.768.12-4.086.785 1.28 1.333 2.908 1.668 4.383"/><path d="M146.246 147.97c.37-1.677.448-4.192-1.027-5.417-.96-.798-3.446-.537-2.872 1.254.105.33 1.263.676 1.548 1.08.594.84.508 2.4.563 3.38.077 1.346-.065 2.768.12 4.086.785-1.28 1.333-2.9 1.668-4.384m-3.89 7.456c-1.83-.442-1.045-4.405 1.52-2.4 1.548 1.206.376 2.078-1.52 2.4m4.17-66.427c1.905 1.025 3.97 2.287 6.077 2.832 1.92.497 5.555.017 5.904-2.528.338-2.456-3.126-3.56-4.994-3.342-2.33.272-4.773 1.845-6.814 2.94l-.173.096"/><path d="M146.5 89.014c.82 2.607 3.365 12.558 7.947 10.206 2.232-1.146.437-4.936-.732-6.224-1.648-1.815-4.385-2.77-6.596-3.72l-.62-.263"/><path d="M146.486 89.006c.822-2.6 3.368-12.564 7.95-10.206 2.23 1.147.438 4.926-.732 6.216-1.65 1.818-4.387 2.775-6.598 3.727l-.62.263m-.24 5.96c.37 1.677.448 4.193-1.027 5.418-1.018.846-3.412.5-2.85-1.3.085-.268 1.32-.753 1.588-1.17.558-.874.46-2.45.5-3.434.064-1.28-.08-2.656.116-3.9.77 1.314 1.323 2.9 1.66 4.387"/><path d="M146.246 83.145c.372-1.68.45-4.192-1.027-5.418-.96-.796-3.447-.537-2.872 1.254.105.33 1.263.676 1.548 1.08.594.84.508 2.412.563 3.38l.1 4.082c.786-1.305 1.344-2.9 1.678-4.38m-3.88 7.457c-1.828-.443-1.047-4.407 1.52-2.404 1.544 1.205.38 2.078-1.52 2.404m4.173-34.014c1.906 1.026 3.97 2.283 6.078 2.832 1.917.5 5.556.018 5.9-2.528.332-2.455-3.125-3.557-4.994-3.342-2.328.27-4.773 1.845-6.8 2.94l-.174.097"/><use xlink:href="#B"/><path d="M146.5 56.593c.82-2.6 3.363-12.56 7.947-10.206 2.232 1.145.437 4.932-.732 6.22-1.65 1.817-4.384 2.773-6.596 3.724l-.62.262m-.253 5.957c.372 1.683.45 4.2-1.027 5.418-.958.796-3.448.546-2.872-1.25.105-.33 1.263-.676 1.548-1.08.594-.84.508-2.412.563-3.38l.1-4.082c.785 1.303 1.343 2.9 1.678 4.375"/><path d="M146.246 50.732c.372-1.677.448-4.192-1.027-5.417-.96-.796-3.443-.54-2.872 1.25.106.332 1.26.677 1.548 1.084.594.84.508 2.4.563 3.38l.1 4.082c.787-1.306 1.34-2.9 1.678-4.38m-3.88 7.456c-1.828-.44-1.046-4.412 1.52-2.408 1.546 1.208.38 2.082-1.52 2.408m4.17-34.014c1.903 1.027 3.972 2.287 6.08 2.832 1.92.497 5.55.017 5.9-2.527.337-2.455-3.125-3.563-4.994-3.346-2.33.27-4.774 1.848-6.814 2.944l-.173.096"/><use xlink:href="#B" y="-32.41"/><path d="M146.486 24.18c.824-2.608 3.367-12.56 7.95-10.206 2.23 1.145.438 4.932-.732 6.22-1.652 1.817-4.387 2.772-6.598 3.724l-.62.263m-.24 5.962c.37 1.677.448 4.192-1.027 5.418-.96.797-3.446.536-2.872-1.254.105-.33 1.263-.676 1.548-1.08.594-.84.508-2.412.563-3.38.077-1.346-.065-2.77.12-4.086.785 1.278 1.333 2.9 1.668 4.383"/><path d="M146.246 18.32c.37-1.677.448-4.192-1.027-5.418-.96-.797-3.446-.536-2.872 1.254.105.33 1.263.675 1.548 1.08.594.84.508 2.4.563 3.38.077 1.346-.065 2.768.12 4.086.785-1.28 1.333-2.9 1.668-4.383m-3.89 7.456c-1.83-.44-1.045-4.404 1.52-2.408 1.548 1.205.376 2.078-1.52 2.408m4.17 95.625c1.903 1.027 3.972 2.287 6.08 2.833 1.92.497 5.55.017 5.9-2.528.337-2.456-3.125-3.558-4.994-3.34-2.33.272-4.773 1.844-6.814 2.94l-.173.096"/><path d="M146.486 121.426c.824 2.608 3.367 12.56 7.95 10.206 2.23-1.145.438-4.932-.732-6.22-1.652-1.817-4.387-2.772-6.598-3.723l-.62-.263"/><path d="M146.486 121.418c.824-2.608 3.367-12.56 7.95-10.206 2.23 1.145.438 4.932-.732 6.22-1.652 1.817-4.387 2.773-6.598 3.724l-.62.262m-.24 5.962c.37 1.677.448 4.192-1.027 5.417-.96.8-3.443.537-2.872-1.254.105-.33 1.262-.68 1.548-1.083.594-.84.508-2.412.563-3.38l.1-4.08c.787 1.307 1.34 2.9 1.678 4.38"/><path d="M146.246 115.557c.37-1.678.45-4.2-1.027-5.418-.96-.797-3.446-.536-2.872 1.254.105.33 1.263.676 1.548 1.08.594.84.508 2.4.563 3.38.077 1.346-.065 2.768.12 4.086.783-1.28 1.333-2.9 1.668-4.384m-3.89 7.453c-1.824-.43-1.048-4.4 1.52-2.4 1.54 1.205.376 2.08-1.52 2.4M20.817 218.65c-1.906 1.024-3.968 2.284-6.077 2.83-1.92.498-5.554.018-5.904-2.527-.338-2.456 3.125-3.558 4.993-3.34 2.33.27 4.774 1.844 6.814 2.94l.173.097"/><path d="M20.854 218.664c-.82 2.606-3.366 12.557-7.948 10.206-2.232-1.145-.436-4.936.733-6.225 1.65-1.816 4.384-2.77 6.595-3.718l.62-.263"/><path d="M20.857 218.656c-.822-2.6-3.368-12.563-7.952-10.206-2.23 1.147-.437 4.926.733 6.217 1.65 1.817 4.385 2.776 6.598 3.728l.62.262m.24 5.96c-.372 1.677-.448 4.192 1.027 5.417.96.797 3.444.535 2.872-1.254-.106-.33-1.26-.677-1.547-1.083-.594-.84-.508-2.4-.564-3.377l-.1-4.083c-.786 1.307-1.34 2.9-1.678 4.38"/><path d="M21.097 212.795c-.373-1.68-.45-4.193 1.027-5.418.96-.795 3.446-.537 2.872 1.254-.105.33-1.26.676-1.547 1.08-.594.84-.508 2.4-.564 3.38l-.1 4.083c-.786-1.305-1.344-2.9-1.678-4.38m3.88 7.456c1.83-.444 1.045-4.407-1.52-2.404-1.544 1.205-.38 2.078 1.52 2.404m-4.173-34.014c-1.907 1.026-3.967 2.284-6.077 2.833-1.917.498-5.556.018-5.9-2.528-.333-2.454 3.125-3.557 4.993-3.34 2.33.268 4.774 1.844 6.8 2.94l.173.096"/><path d="M20.857 186.25c-.824 2.608-3.367 12.56-7.952 10.206-2.23-1.145-.437-4.933.733-6.22 1.652-1.817 4.385-2.772 6.598-3.723l.62-.263"/><path d="M20.854 186.244c-.82-2.6-3.364-12.56-7.948-10.206-2.23 1.145-.437 4.93.733 6.22 1.65 1.817 4.383 2.774 6.595 3.724l.62.262m.243 5.956c-.373 1.683-.45 4.2 1.027 5.418.958.796 3.448.546 2.872-1.25-.105-.33-1.26-.676-1.547-1.08-.594-.84-.508-2.4-.564-3.38l-.1-4.083c-.785 1.304-1.343 2.9-1.678 4.375"/><path d="M21.097 180.382c-.372-1.678-.448-4.192 1.027-5.418.96-.796 3.45-.536 2.872 1.254-.106.328-1.26.675-1.547 1.08-.594.84-.508 2.4-.564 3.38l-.1 4.083c-.786-1.307-1.34-2.9-1.678-4.38m3.88 7.456c1.83-.442 1.044-4.413-1.52-2.4-1.546 1.2-.38 2.082 1.52 2.4m-4.17-34.014c-1.904 1.027-3.972 2.287-6.08 2.833-1.92.498-5.55.018-5.9-2.527-.337-2.455 3.124-3.562 4.993-3.346 2.332.27 4.775 1.848 6.814 2.944l.173.096"/><path d="M20.857 153.838c-.824 2.61-3.366 12.56-7.952 10.206-2.23-1.144-.437-4.932.733-6.22 1.65-1.817 4.386-2.772 6.598-3.724l.62-.263"/><path d="M20.857 153.83c-.824-2.608-3.367-12.558-7.952-10.206-2.23 1.145-.437 4.933.733 6.22 1.652 1.817 4.386 2.772 6.598 3.723l.62.263m.24 5.963c-.372 1.678-.448 4.192 1.027 5.418.96.797 3.446.536 2.872-1.254-.105-.33-1.26-.676-1.547-1.08-.594-.84-.508-2.4-.564-3.38-.077-1.346.067-2.77-.12-4.086-.785 1.28-1.332 2.908-1.667 4.383"/><path d="M21.097 147.97c-.372-1.677-.448-4.192 1.027-5.417.96-.797 3.446-.537 2.872 1.254-.105.33-1.262.676-1.547 1.08-.594.84-.508 2.4-.564 3.38-.077 1.346.067 2.77-.12 4.086-.785-1.28-1.332-2.9-1.667-4.384m3.888 7.456c1.83-.443 1.043-4.404-1.52-2.4-1.55 1.206-.375 2.078 1.52 2.4m-4.17-66.427c-1.904 1.025-3.97 2.286-6.077 2.832-1.92.497-5.554.017-5.904-2.528-.337-2.456 3.125-3.56 4.993-3.342 2.332.272 4.774 1.845 6.814 2.94l.173.096"/><path d="M20.854 89.014c-.82 2.607-3.366 12.557-7.948 10.206-2.232-1.145-.436-4.936.733-6.224 1.65-1.815 4.384-2.77 6.595-3.72l.62-.263"/><path d="M20.857 89.006c-.822-2.6-3.368-12.563-7.952-10.206-2.23 1.147-.438 4.926.733 6.216 1.65 1.818 4.385 2.775 6.598 3.727l.62.263m.24 5.96c-.372 1.678-.448 4.193 1.027 5.418 1.02.845 3.413.5 2.85-1.3-.084-.268-1.322-.753-1.588-1.17-.558-.874-.46-2.45-.5-3.434-.065-1.28.08-2.657-.117-3.9-.77 1.314-1.322 2.9-1.66 4.387"/><path d="M21.097 83.145c-.373-1.68-.45-4.193 1.027-5.418.96-.795 3.447-.537 2.872 1.254-.105.33-1.26.676-1.547 1.08-.594.84-.508 2.412-.564 3.38l-.1 4.082c-.786-1.305-1.344-2.9-1.678-4.38m3.88 7.457c1.83-.444 1.045-4.407-1.52-2.404-1.545 1.206-.38 2.078 1.52 2.404m-4.173-34.014c-1.906 1.026-3.968 2.283-6.077 2.832-1.917.5-5.556.018-5.9-2.528-.333-2.455 3.125-3.557 4.993-3.342 2.33.27 4.773 1.845 6.8 2.94l.173.097"/><path d="M20.857 56.6c-.824 2.61-3.367 12.558-7.952 10.206-2.23-1.145-.437-4.932.733-6.22 1.652-1.817 4.385-2.772 6.598-3.724l.62-.263"/><path d="M20.854 56.593c-.82-2.6-3.364-12.558-7.948-10.206-2.23 1.145-.437 4.932.733 6.22 1.65 1.817 4.383 2.773 6.595 3.724l.62.262m.243 5.957c-.373 1.683-.45 4.2 1.027 5.418.958.796 3.448.546 2.872-1.25-.105-.33-1.26-.676-1.547-1.08-.594-.84-.508-2.412-.564-3.38l-.1-4.082c-.785 1.304-1.343 2.9-1.678 4.375"/><path d="M21.097 50.732c-.372-1.678-.448-4.192 1.027-5.417.96-.796 3.443-.54 2.872 1.25-.106.332-1.26.677-1.547 1.084-.594.84-.508 2.4-.564 3.38l-.1 4.082c-.786-1.307-1.34-2.9-1.678-4.38m3.88 7.456c1.83-.44 1.044-4.412-1.52-2.408-1.546 1.208-.38 2.082 1.52 2.408m-4.17-34.014c-1.904 1.027-3.972 2.287-6.08 2.832-1.92.497-5.55.017-5.9-2.527-.337-2.455 3.124-3.563 4.993-3.346 2.332.27 4.775 1.848 6.814 2.944l.173.096"/><path d="M20.857 24.19c-.824 2.61-3.367 12.56-7.952 10.206-2.23-1.145-.437-4.932.733-6.22 1.652-1.817 4.386-2.77 6.598-3.724l.62-.263"/><path d="M20.857 24.18c-.824-2.6-3.367-12.558-7.952-10.206-2.23 1.145-.437 4.932.733 6.22 1.652 1.817 4.386 2.772 6.598 3.724l.62.263m.24 5.962c-.372 1.677-.448 4.192 1.027 5.418.96.797 3.446.536 2.872-1.254-.105-.33-1.26-.676-1.547-1.08-.594-.84-.508-2.412-.564-3.38-.077-1.345.067-2.77-.12-4.086-.785 1.28-1.333 2.908-1.667 4.383"/><path d="M21.097 18.32c-.372-1.678-.448-4.192 1.027-5.418.96-.797 3.446-.536 2.872 1.254-.105.33-1.26.675-1.547 1.08-.594.84-.508 2.4-.564 3.38-.077 1.345.067 2.77-.12 4.086-.785-1.28-1.332-2.908-1.667-4.383m3.888 7.456c1.83-.442 1.044-4.404-1.52-2.408-1.55 1.205-.375 2.08 1.52 2.408m-4.17 95.625c-1.904 1.027-3.973 2.287-6.08 2.833-1.92.497-5.55.017-5.9-2.528-.337-2.456 3.125-3.558 4.993-3.34 2.332.272 4.774 1.844 6.814 2.94l.173.096"/><path d="M20.857 121.426c-.824 2.608-3.367 12.558-7.952 10.206-2.23-1.145-.437-4.932.733-6.22 1.652-1.816 4.386-2.772 6.598-3.723l.62-.263"/><path d="M20.857 121.418c-.824-2.6-3.367-12.558-7.952-10.206-2.23 1.145-.437 4.932.733 6.22 1.652 1.817 4.385 2.772 6.598 3.724l.62.262m.24 5.962c-.372 1.678-.448 4.192 1.027 5.417.96.8 3.443.537 2.872-1.254-.105-.33-1.26-.68-1.547-1.083-.594-.84-.508-2.412-.564-3.38l-.1-4.08c-.786 1.307-1.34 2.9-1.678 4.38"/><path d="M21.097 115.557c-.37-1.68-.45-4.2 1.027-5.418.96-.797 3.446-.536 2.872 1.254-.105.33-1.262.676-1.547 1.08-.594.84-.508 2.4-.564 3.38-.077 1.345.067 2.77-.12 4.086-.783-1.28-1.332-2.908-1.667-4.384m3.888 7.453c1.824-.43 1.046-4.4-1.52-2.4-1.54 1.205-.376 2.08 1.52 2.4"/></g></g><g class="D G"><path d="M73.15 146.658h.027" fill="none"/><path d="M75.666 112.22c1.648 0 16-.137 16 .135v15.493c0 .434.312 2.56 0 2.894-1.02 1.098-16-.646-16-.134V112.22" class="B E"/></g><g class="C B"><path d="M76.667 115.692l2-2.315 1 3.473-3.002-1.158m12-2.315l2 2.315-3.002 1.158 1.002-3.473m.063 16.14l2.002-2.316-3.002-1.158 1 3.473m-10.07.066l-2-2.315 3.002-1.158-1 3.472m5-17.362l-1.98 6.868c-.246.852-5.07 2.025-6.026 2.393.957.37 5.78 1.54 6.026 2.394l1.98 6.867 1.98-6.867c.246-.853 5.07-2.025 6.026-2.394-.956-.368-5.78-1.54-6.026-2.393l-1.98-6.868" stroke="none"/><g class="D F G"><use xlink:href="#C"/><path d="M132.693 99.478l-.977 4.523c-.113.525-3.412 1.088-4.026 1.265.614.178 3.913.74 4.026 1.265l.977 4.523.98-4.523c.113-.525 3.412-1.088 4.025-1.265-.613-.177-3.912-.74-4.025-1.265l-.98-4.523m.027 32.41l-.977 4.522c-.114.525-3.412 1.088-4.026 1.265.613.177 3.912.74 4.026 1.265l.977 4.523.978-4.523c.114-.525 3.413-1.088 4.026-1.265-.613-.177-3.912-.74-4.026-1.265l-.978-4.522"/><use xlink:href="#C" x="-14.01"/><use xlink:href="#D"/><path d="M118.7 131.887l-.977 4.522c-.113.525-3.412 1.088-4.026 1.265.614.177 3.913.74 4.026 1.265l.977 4.523.98-4.523c.113-.525 3.412-1.088 4.025-1.265-.613-.177-3.912-.74-4.025-1.265l-.98-4.522m-28.025 31.266l-.977 4.523c-.113.525-3.412 1.087-4.025 1.265.613.177 3.912.74 4.025 1.266l.977 4.52.98-4.52c.113-.526 3.412-1.1 4.025-1.266-.613-.177-3.912-.74-4.025-1.265l-.98-4.523m-14.008 0l-.977 4.523c-.114.525-3.413 1.087-4.026 1.265.614.177 3.913.74 4.026 1.266l.977 4.52.978-4.52c.114-.526 3.413-1.1 4.026-1.266-.613-.177-3.912-.74-4.026-1.265l-.978-4.523m28.008-.027l-.978 4.523c-.113.525-3.413 1.087-4.026 1.265.613.177 3.913.74 4.026 1.265l.978 4.522.977-4.522c.114-.525 3.412-1.088 4.026-1.265-.614-.178-3.912-.74-4.026-1.265l-.977-4.523m-41.978.044l-.977 4.522c-.113.526-3.412 1.088-4.026 1.265.614.177 3.913.74 4.026 1.265l.977 4.522.978-4.522c.113-.526 3.412-1.088 4.025-1.265-.613-.177-3.912-.74-4.025-1.265l-.978-4.522m69.976-.02l-.977 4.523c-.114.525-3.413 1.087-4.027 1.265.614.176 3.913.74 4.027 1.265l.977 4.52.978-4.52c.113-.526 3.412-1.1 4.026-1.265-.614-.178-3.913-.74-4.026-1.265l-.978-4.523m-14.01 0l-.977 4.523c-.114.525-3.412 1.087-4.026 1.265.614.176 3.912.74 4.026 1.265l.977 4.52.98-4.52c.113-.526 3.412-1.1 4.025-1.265-.613-.178-3.912-.74-4.025-1.265l-.98-4.523m-27.99 16.2l-.977 4.522c-.113.525-3.412 1.088-4.025 1.265.613.177 3.912.74 4.025 1.265l.977 4.522.98-4.522c.113-.526 3.412-1.088 4.025-1.265-.613-.177-3.912-.74-4.025-1.265l-.98-4.522m-14.008 0l-.977 4.522c-.114.525-3.413 1.088-4.026 1.265.614.177 3.913.74 4.026 1.265l.977 4.522.978-4.522c.114-.526 3.413-1.088 4.026-1.265-.613-.177-3.912-.74-4.026-1.265l-.978-4.522m28.008-.028l-.978 4.523c-.113.525-3.413 1.087-4.026 1.265.613.176 3.913.74 4.026 1.265l.978 4.52.977-4.52c.114-.526 3.412-1.1 4.026-1.265-.614-.178-3.912-.74-4.026-1.265l-.977-4.523m-41.978.043l-.977 4.522c-.113.525-3.412 1.088-4.026 1.265.614.177 3.913.74 4.026 1.265l.977 4.522.978-4.522c.113-.526 3.412-1.088 4.025-1.265-.613-.177-3.912-.74-4.025-1.265l-.978-4.522m69.976-.02l-.977 4.522c-.114.526-3.413 1.088-4.027 1.265.614.177 3.913.74 4.027 1.265l.977 4.522.978-4.522c.113-.525 3.412-1.088 4.026-1.265-.614-.177-3.913-.74-4.026-1.265l-.978-4.522m-14.01 0l-.977 4.522c-.114.526-3.412 1.088-4.026 1.265.614.177 3.912.74 4.026 1.265l.977 4.522.98-4.522c.113-.525 3.412-1.088 4.025-1.265-.613-.177-3.912-.74-4.025-1.265l-.98-4.522m-27.99 16.2l-.977 4.522c-.113.525-3.412 1.088-4.025 1.265.613.178 3.912.74 4.025 1.265l.977 4.523.98-4.523c.113-.525 3.412-1.087 4.025-1.265-.613-.176-3.912-.74-4.025-1.265l-.98-4.522m-14.008 0l-.977 4.522c-.114.525-3.413 1.088-4.026 1.265.614.178 3.913.74 4.026 1.265l.977 4.523.978-4.523c.114-.525 3.413-1.087 4.026-1.265-.613-.176-3.912-.74-4.026-1.265l-.978-4.522m28.008-.026l-.978 4.523c-.113.525-3.413 1.087-4.026 1.265.613.177 3.913.74 4.026 1.265l.978 4.522.977-4.522c.114-.526 3.412-1.088 4.026-1.265-.614-.177-3.912-.74-4.026-1.265l-.977-4.523m-41.978.042l-.977 4.52c-.113.525-3.412 1.088-4.026 1.265.614.178 3.913.74 4.026 1.265l.977 4.523.978-4.523c.113-.525 3.412-1.087 4.025-1.265-.613-.177-3.912-.74-4.025-1.265l-.978-4.52m69.976-.02l-.977 4.522c-.114.525-3.413 1.088-4.027 1.265.614.177 3.913.74 4.027 1.265l.977 4.523.978-4.523c.113-.525 3.412-1.087 4.026-1.265-.614-.177-3.913-.74-4.026-1.265l-.978-4.522m-14.01 0l-.977 4.522c-.114.525-3.412 1.088-4.026 1.265.614.177 3.912.74 4.026 1.265l.977 4.523.98-4.523c.113-.525 3.412-1.087 4.025-1.265-.613-.177-3.912-.74-4.025-1.265l-.98-4.522m-27.99-47.458l-.977 4.523c-.113.525-3.412 1.087-4.025 1.265.613.177 3.912.74 4.025 1.265l.977 4.52.98-4.52c.113-.526 3.412-1.1 4.025-1.265-.613-.178-3.912-.74-4.025-1.265l-.98-4.523m-14.008 0l-.977 4.523c-.114.525-3.413 1.087-4.026 1.265.614.176 3.913.74 4.026 1.265l.977 4.52.978-4.52c.114-.526 3.413-1.1 4.026-1.265-.613-.178-3.912-.74-4.026-1.265l-.978-4.523m28.008-.026l-.978 4.522c-.113.525-3.413 1.088-4.026 1.265.613.177 3.913.74 4.026 1.265l.978 4.522.977-4.522c.114-.525 3.412-1.088 4.026-1.265-.614-.177-3.912-.74-4.026-1.265l-.977-4.522m-41.978.042l-.977 4.523c-.113.525-3.412 1.087-4.026 1.265.614.177 3.913.74 4.026 1.266l.977 4.52.978-4.52c.113-.526 3.412-1.1 4.025-1.266-.613-.177-3.912-.74-4.025-1.265l-.978-4.523m69.976-.02l-.977 4.523c-.114.525-3.413 1.087-4.027 1.265.614.177 3.913.74 4.027 1.265l.977 4.522.978-4.522c.113-.526 3.412-1.088 4.026-1.265-.614-.178-3.913-.74-4.026-1.265l-.978-4.523m-14.01 0l-.977 4.523c-.114.525-3.412 1.087-4.026 1.265.614.177 3.912.74 4.026 1.265l.977 4.522.98-4.522c.113-.526 3.412-1.088 4.025-1.265-.613-.178-3.912-.74-4.025-1.265l-.98-4.523"/><use xlink:href="#E"/><path d="M62.657 83.28l-.977 4.522c-.113.525-3.413 1.088-4.026 1.265.614.177 3.913.74 4.026 1.265l.977 4.522.978-4.522c.114-.525 3.413-1.088 4.026-1.265-.613-.177-3.912-.74-4.026-1.265l-.978-4.522m42.023 0l-.977 4.522c-.113.525-3.412 1.088-4.026 1.265.614.177 3.913.74 4.026 1.265l.977 4.522.98-4.522c.113-.525 3.412-1.088 4.025-1.265-.613-.177-3.912-.74-4.025-1.265l-.98-4.522"/><path d="M90.67 83.28l-.978 4.522c-.113.525-3.412 1.088-4.026 1.265.614.177 3.913.74 4.026 1.265l.978 4.522.978-4.522c.113-.525 3.412-1.088 4.025-1.265-.613-.177-3.912-.74-4.025-1.265l-.978-4.522M62.665 67.062l-.978 4.522c-.114.525-3.412 1.088-4.026 1.265.614.178 3.913.74 4.026 1.265l.978 4.523.978-4.523c.113-.525 3.412-1.088 4.025-1.265-.613-.177-3.912-.74-4.025-1.265l-.978-4.522"/><path d="M76.667 67.073l-.977 4.523c-.114.525-3.413 1.088-4.026 1.265.614.177 3.913.74 4.026 1.265l.977 4.522.978-4.522c.114-.525 3.413-1.088 4.026-1.265-.613-.178-3.912-.74-4.026-1.265l-.978-4.523m14.008 0l-.977 4.523c-.113.525-3.412 1.088-4.025 1.265.613.177 3.912.74 4.025 1.265l.977 4.522.98-4.522c.113-.525 3.412-1.088 4.025-1.265-.613-.178-3.912-.74-4.025-1.265l-.98-4.523"/><use xlink:href="#F"/><use xlink:href="#D" x="14.016" y="-16.218"/><use xlink:href="#G"/><path d="M118.68 83.26l-.978 4.523c-.113.525-3.412 1.088-4.026 1.265.614.178 3.913.74 4.026 1.265l.978 4.523.977-4.523c.114-.525 3.413-1.088 4.026-1.265-.613-.177-3.912-.74-4.026-1.265l-.977-4.523"/><use xlink:href="#G" x="-14.01"/><path d="M76.667 50.867L75.7 55.4c-.114.525-3.413 1.088-4.026 1.265.614.177 3.913.74 4.026 1.265l.977 4.523.978-4.523c.114-.525 3.413-1.088 4.026-1.265-.613-.178-3.912-.74-4.026-1.265l-.978-4.523m-14-.01L61.68 55.4c-.113.525-3.413 1.088-4.026 1.265.614.177 3.913.74 4.026 1.265l.977 4.523.978-4.523c.114-.525 3.413-1.088 4.026-1.265-.613-.178-3.912-.74-4.026-1.265l-.978-4.523m42.023-.01l-.977 4.523c-.113.525-3.412 1.088-4.026 1.265.614.177 3.913.74 4.026 1.265l.977 4.523.98-4.523c.113-.525 3.412-1.088 4.025-1.265-.613-.178-3.912-.74-4.025-1.265l-.98-4.523m-14 0l-.978 4.523c-.113.525-3.412 1.088-4.026 1.265.614.177 3.913.74 4.026 1.265l.978 4.523.978-4.523c.113-.525 3.412-1.088 4.025-1.265-.613-.178-3.912-.74-4.025-1.265l-.978-4.523M62.665 34.65l-.978 4.522c-.113.525-3.412 1.088-4.026 1.265.614.178 3.912.74 4.026 1.265l.978 4.522.978-4.522c.113-.525 3.412-1.088 4.025-1.265-.613-.177-3.912-.74-4.025-1.265l-.978-4.522"/><use xlink:href="#E" y="-48.62"/><path d="M90.675 34.66l-.977 4.522c-.113.525-3.412 1.088-4.025 1.265.613.177 3.912.74 4.025 1.265l.977 4.522.98-4.522c.113-.525 3.412-1.088 4.025-1.265-.613-.177-3.912-.74-4.025-1.265l-.98-4.522m14 0l-.978 4.522c-.113.525-3.412 1.088-4.026 1.265.614.177 3.913.74 4.026 1.265l.978 4.522.978-4.522c.113-.525 3.412-1.088 4.026-1.265-.614-.177-3.913-.74-4.026-1.265l-.978-4.522"/><use xlink:href="#H"/><use xlink:href="#H" x="0.004" y="-16.188"/><path d="M118.68 50.848l-.978 4.522c-.113.525-3.412 1.088-4.026 1.265.614.177 3.913.74 4.026 1.265l.978 4.522.977-4.522c.114-.525 3.413-1.088 4.026-1.265-.613-.177-3.912-.74-4.026-1.265l-.977-4.522"/><use xlink:href="#H" x="-14.006" y="-16.188"/><path d="M34.63 131.913l-.977 4.523c-.113.525-3.412 1.087-4.026 1.265.614.177 3.913.74 4.026 1.265l.977 4.522.978-4.522c.114-.526 3.413-1.088 4.026-1.265-.613-.178-3.912-.74-4.026-1.265l-.978-4.523m.026-16.197l-.977 4.522c-.113.525-3.412 1.087-4.026 1.265.614.177 3.913.74 4.026 1.265l.977 4.522.978-4.522c.113-.525 3.412-1.088 4.025-1.265-.613-.178-3.912-.74-4.025-1.265l-.978-4.522m.016-16.234l-.977 4.523c-.114.525-3.412 1.088-4.026 1.265.614.177 3.912.74 4.026 1.265l.977 4.522.978-4.522c.113-.525 3.412-1.088 4.025-1.265-.613-.178-3.912-.74-4.025-1.265l-.978-4.523m-.032 63.67l-.977 4.523c-.113.525-3.413 1.087-4.026 1.265.614.177 3.913.74 4.026 1.266l.977 4.52.978-4.52c.113-.526 3.412-1.1 4.025-1.266-.613-.177-3.912-.74-4.025-1.265l-.978-4.523"/><path d="M34.64 179.36l-.977 4.522c-.113.525-3.413 1.088-4.026 1.265.614.177 3.913.74 4.026 1.265l.977 4.522.978-4.522c.113-.526 3.412-1.088 4.025-1.265-.613-.177-3.912-.74-4.025-1.265l-.978-4.522m0 16.206l-.977 4.522c-.113.525-3.413 1.088-4.026 1.265.614.178 3.913.74 4.026 1.265l.977 4.523.978-4.523c.113-.525 3.412-1.087 4.025-1.265-.613-.176-3.912-.74-4.025-1.265l-.978-4.522m0-47.462l-.977 4.523c-.113.525-3.413 1.087-4.026 1.265.614.176 3.913.74 4.026 1.265l.977 4.52.978-4.52c.113-.526 3.412-1.088 4.025-1.265-.613-.178-3.912-.74-4.025-1.265l-.978-4.523m.01-64.828l-.978 4.522c-.113.525-3.412 1.088-4.026 1.265.614.177 3.912.74 4.026 1.265l.978 4.522.978-4.522c.113-.525 3.412-1.088 4.026-1.265-.614-.177-3.913-.74-4.026-1.265l-.978-4.522m-.01-16.203l-.977 4.523c-.113.525-3.413 1.088-4.026 1.265.614.177 3.913.74 4.026 1.265l.977 4.522.978-4.522c.113-.525 3.412-1.088 4.025-1.265-.613-.178-3.912-.74-4.025-1.265l-.978-4.523"/><use xlink:href="#F" x="-70.035" y="-16.21"/><path d="M34.64 34.66l-.977 4.522c-.113.525-3.413 1.088-4.026 1.265.614.177 3.913.74 4.026 1.265l.977 4.522.978-4.522c.113-.525 3.412-1.088 4.025-1.265-.613-.177-3.912-.74-4.025-1.265l-.978-4.522m13.998 97.253l-.977 4.523c-.114.525-3.413 1.087-4.026 1.265.614.177 3.913.74 4.026 1.265l.977 4.522.978-4.522c.113-.526 3.413-1.088 4.026-1.265-.613-.178-3.913-.74-4.026-1.265l-.978-4.523m.027-16.197l-.977 4.522c-.114.525-3.412 1.087-4.026 1.265.614.177 3.912.74 4.026 1.265l.977 4.522.978-4.522c.114-.525 3.413-1.088 4.026-1.265-.613-.178-3.912-.74-4.026-1.265l-.978-4.522m.017-16.234l-.977 4.523c-.114.525-3.413 1.088-4.026 1.265.614.177 3.913.74 4.026 1.265l.977 4.522.978-4.522c.114-.525 3.412-1.088 4.026-1.265-.614-.178-3.912-.74-4.026-1.265l-.978-4.523m-.034 63.67l-.978 4.523c-.113.525-3.412 1.087-4.026 1.265.614.177 3.912.74 4.026 1.266l.978 4.52.977-4.52c.114-.526 3.413-1.1 4.026-1.266-.614-.177-3.913-.74-4.026-1.265l-.977-4.523m0 16.207l-.978 4.522c-.113.525-3.412 1.088-4.026 1.265.614.177 3.913.74 4.026 1.265l.978 4.522.977-4.522c.114-.526 3.413-1.088 4.026-1.265-.614-.177-3.913-.74-4.026-1.265l-.977-4.522m0 16.206l-.978 4.522c-.113.525-3.412 1.088-4.026 1.265.614.178 3.913.74 4.026 1.265l.978 4.523.977-4.523c.114-.525 3.413-1.087 4.026-1.265-.614-.176-3.913-.74-4.026-1.265l-.977-4.522m0-47.462l-.978 4.523c-.113.525-3.412 1.087-4.026 1.265.614.177 3.913.74 4.026 1.265l.978 4.52.977-4.52c.114-.526 3.413-1.1 4.026-1.265-.614-.178-3.913-.74-4.026-1.265l-.977-4.523m.01-64.828l-.977 4.522c-.113.525-3.412 1.088-4.026 1.265.614.177 3.913.74 4.026 1.265l.977 4.522.978-4.522c.114-.525 3.413-1.088 4.026-1.265-.613-.177-3.912-.74-4.026-1.265l-.978-4.522m-.01-16.203l-.978 4.523c-.113.525-3.412 1.088-4.026 1.265.614.177 3.913.74 4.026 1.265l.978 4.522.977-4.522c.114-.525 3.413-1.088 4.026-1.265-.614-.178-3.913-.74-4.026-1.265l-.977-4.523m.01-16.2l-.977 4.523c-.113.525-3.412 1.088-4.026 1.265.614.177 3.913.74 4.026 1.265l.977 4.522.978-4.522c.114-.525 3.413-1.088 4.026-1.265-.613-.178-3.912-.74-4.026-1.265l-.978-4.523m-.01-16.203l-.978 4.522c-.113.525-3.412 1.088-4.026 1.265.614.177 3.913.74 4.026 1.265l.978 4.522.977-4.522c.114-.525 3.413-1.088 4.026-1.265-.614-.177-3.913-.74-4.026-1.265l-.977-4.522"/></g></g><path d="M8.372 6.3c-2.353 0-1.5 6.438-1.5 7.724V230.58c0 1.757-.666 5.503 1.924 5.503H158.01c2.748 0 2.212-2.945 2.212-4.93V14.783c0-2.05.468-4.732 0-6.746 0-2.987-8.457-1.737-10.124-1.737H8.372" fill="none" stroke-width="1.29" class="D E"/></g><defs ><path id="B" d="M146.486 56.6c.824 2.608 3.367 12.56 7.95 10.206 2.23-1.145.438-4.932-.732-6.22-1.652-1.817-4.387-2.772-6.598-3.724l-.62-.263"/><path id="C" d="M132.704 115.692l-.978 4.522c-.113.525-3.412 1.088-4.025 1.265.613.178 3.912.74 4.025 1.265l.978 4.523.978-4.523c.113-.525 3.412-1.087 4.025-1.265-.613-.177-3.912-.74-4.025-1.265l-.978-4.522"/><path id="D" d="M118.684 99.478l-.978 4.523c-.113.525-3.412 1.088-4.025 1.265.613.178 3.912.74 4.025 1.265l.978 4.523.978-4.523c.113-.525 3.412-1.088 4.025-1.265-.613-.177-3.912-.74-4.025-1.265l-.978-4.523"/><path id="E" d="M76.667 83.28l-.977 4.522c-.114.525-3.413 1.088-4.026 1.265.614.177 3.913.74 4.026 1.265l.977 4.522.978-4.522c.114-.525 3.413-1.088 4.026-1.265-.613-.177-3.912-.74-4.026-1.265l-.978-4.522"/><path id="F" d="M104.685 67.073l-.978 4.523c-.113.525-3.412 1.088-4.026 1.265.614.177 3.913.74 4.026 1.265l.978 4.522.978-4.522c.113-.525 3.412-1.088 4.026-1.265-.614-.178-3.913-.74-4.026-1.265l-.978-4.523"/><path id="G" d="M132.704 67.073l-.978 4.523c-.113.525-3.412 1.088-4.025 1.265.613.177 3.912.74 4.025 1.265l.978 4.522.978-4.522c.113-.525 3.412-1.088 4.025-1.265-.613-.178-3.912-.74-4.025-1.265l-.978-4.523"/><path id="H" d="M132.7 50.848l-.978 4.522c-.113.525-3.412 1.088-4.025 1.265.613.177 3.912.74 4.025 1.265l.978 4.522.978-4.522c.113-.525 3.412-1.088 4.025-1.265-.613-.177-3.912-.74-4.025-1.265l-.978-4.522"/></defs></svg>