<svg xmlns="http://www.w3.org/2000/svg" xmlns:xlink="http://www.w3.org/1999/xlink" width="240" height="336" viewBox="-120 -168 240 336" preserveAspectRatio="none"><defs><path id="A" d="M-82.4-130.4H82.4v260.8H-82.4z"/></defs><symbol id="B" viewBox="-500 -500 1000 1000" preserveAspectRatio="xMinYMid"><path d="M-285-460h200m-100 0v920m-100 0h200M85-460h200m-100 20l-355 595M85 460h200m-100-20L-10-70" stroke="#000" stroke-width="80" stroke-linecap="square" stroke-miterlimit="1.5" fill="none"/></symbol><symbol id="C" viewBox="-600 -600 1200 1200" preserveAspectRatio="xMinYMid"><path d="M30 150c5 235 55 250 100 350h-260c45-100 95-115 100-350a10 10 0 0 0-20 0 210 210 0 1 1-74-201 10 10 0 0 0 14-14 230 230 0 1 1 220 0 10 10 0 0 0 14 14 210 210 0 1 1-74 201 10 10 0 0 0-20 0z"/></symbol><symbol id="D" preserveAspectRatio="none" viewBox="0 0 1300 2000"><path fill="#fc4" d="M315.885 799.273c-12.562 0-24.692 1.853-36.105 5.37l-.33 82.758c-30.264 3.33-59.226 9.71-87.205 18.668-.918 6.037-1.36 12.068-1.36 18.203 0 19.372 4.407 37.715 12.396 53.82 85.715-21.842 147.416-22.492 227.926-6.012 6.3-14.68 9.678-30.85 9.678-47.81 0-9.42-1.04-18.594-3.1-27.3-28.568-6.29-55.93-10.094-82.244-11.602l-4.695-81.094c-11.01-3.262-22.783-5.004-34.96-5.004zM315 865a15 15 0 1 1 0 30 15 15 0 1 1 0-30zm-50 45a15 15 0 1 1 0 30 15 15 0 1 1 0-30zm100 0a15 15 0 1 1 0 30 15 15 0 1 1 0-30zm-79.758-106.8a30.653 27.5 0 0 1-.01-.7 30.653 27.5 0 0 1 30.653-27.5 30.653 27.5 0 0 1 30.653 27.5 30.653 27.5 0 0 1-.011.741m-43.19-25.278C300.167 763.716 289.4 725.933 265 730c-23.937 3.99-41.64 59.017-20 70 16.945 8.6 16.1-46.872 35-45 9.353.926 13.58 21.494 14.69 28.027m31.247-6.473c1.507-26.148 5.675-51.77 14.062-76.554l-25-30-25 30c8.45 24.97 12.617 50.79 14.095 77.143m31.47 4.446c1.424-7.678 5.69-25.724 14.435-26.6 18.9-1.872 18.055 53.6 35 45 21.64-10.983 3.937-66.01-20-70-24.002-4-34.812 32.494-38.175 47.247m365.23 188.7c16.95-40.09-11.834-60.112-42.055-60.7-30.22.587-59.004 20.6-42.055 60.7-45-34.547-65.377 2.234-65.636 34.062.26 31.828 20.636 68.6 65.636 34.062-16.95 40.09 11.834 60.112 42.055 60.7 30.22-.587 59.004-20.6 42.055-60.7 45 34.547 65.377-2.234 65.636-34.062-.26-31.828-20.636-68.6-65.636-34.062zm-66.722-55.4l-3.928-23.484 3.94 23.48zm124.392 49.792l56.495-.442c.754-109.53 18.217-216.805 78.238-318.928l-163.814 78.676-154.502-69.477c-9.748-29.54-20.637-57.824-32.992-84.678l-34.475-2.598c41.32 84.043 67.265 185.872 87.854 299.418-30.212-83.707-76.693-146.8-135.994-190.55-57.095-42.122-124.884-65.967-198.717-76.393-16.482 7.737-33.214 16.435-49.742 25.71 182 10.664 321.31 95.862 372.763 308.34C635 890 711.038 893.67 749.724 960.33zM609.78 823.213l.387 1.97-.387-1.97zm3.334 17.4l.566 3.047-.566-3.047zm2.693 14.62l1.05 5.797-1.05-5.797zm1.723 9.6l3.63 20.78-3.63-20.78zm597.39 190.095A25 25 0 0 1 1200 1100a25 25 0 0 1-10.719-47.585M1260 1035a47.5 20 0 0 1-47.5 20 47.5 20 0 0 1-47.5-20 47.5 20 0 0 1 47.5-20 47.5 20 0 0 1 47.5 20zm-155-175c0-20 40-32.707 40 0 0 7.453-10 7.533-10 0 0-5-9.93-5.124-10 5-.247 35 65-10 75-20 10 10 75.247 55 75 20-.07-10.124-10-10-10-5 0 7.533-10 7.453-10 0 0-32.707 40-20 40 0 0 50-85 27.6-95 15-10 12.6-95 35-95-15zM961.508 538.87l-37.137-.567-204.8 98.606-166.84-75.38c-4.21 1.51-10.03 2.485-17.73 3.47l9.177 25.88L720 670l218.7-105.45c7.323-8.75 14.87-17.24 22.798-25.678zM314.675-24.08c55.01 81.034 88.648 134.92 113.4 184.046 187.307-23.752 340.515-19.215 490.885 1.272 18.165-39.343 46.776-87.05 102.705-164.126M806.262 960H748l6.218 15h51.22zm-254.3 0h-59.368l-.095 15h52.346z"/></symbol><symbol id="E" preserveAspectRatio="none" viewBox="0 0 1300 2000"><path fill="red" d="M330 835a15 15 0 1 1-30 0 15 15 0 1 1 30 0zm0 90a15 15 0 1 1-30 0 15 15 0 1 1 30 0zm-95 10a15 15 0 1 1-30 0 15 15 0 1 1 30 0zm190-5a15 15 0 1 1-30 0 15 15 0 1 1 30 0zm-285.18 15.306c7.62 3.718 15.84 8.658 23.2 14.922l33.176-.048c-3.453-11.245-5.302-23.36-5.302-35.905 0-58.338 39.964-107.342 94.008-121.128l.35.054a23.32 23.32 0 0 1-.01-.7c0-7.817 3.635-14.872 9.465-19.676-1.117-6.33-5.345-26.898-14.698-27.824-18.9-1.872-18.055 53.6-35 45-21.64-10.983-3.937-66.01 20-70 24.4-4.067 35.167 33.716 38.336 47.964l.76-.82C302.617 750.79 298.45 724.97 290 700l25-30 25 30c-8.386 24.785-12.554 50.406-14.062 76.554l.887.693C330.188 762.494 340.998 726 365 730c23.937 3.99 41.64 59.017 20 70-16.945 8.6-16.1-46.872-35-45-8.747.866-13.01 18.91-14.708 26.302 6.75 4.75 11.246 12.504 11.246 21.198 0 0-.004.494.335.738 54.217 13.902 94.012 62.822 94.012 121.037 0 12.296-1.775 24.177-5.178 35.564l24.588.162-.034-241.332c-67.1-62.058-155.93-91.6-258.1-97.65-21.2 11.9-42.063 24.82-62.295 38.42L140 940zM600.074 1000a20 20 0 1 1-40 0 20 20 0 1 1 40 0zM670 944.17a20 20 0 1 1-40 0 20 20 0 1 1 40 0zm-177.72 30.287c.903 16.64 1.104 34.162 1.15 50.803l53.45-.34c-3.026-7.745-4.5-16.505-4.57-24.92.07-8.615 1.614-17.593 4.745-25.43m402.44-18.974c-40.9 11.85-72.976 43.68-85.452 84.27l-38.424.127c-9.314-175.274 7.103-342.1 153.56-494.674l95.94 35.134C968.125 698.475 943.89 822.2 949.495 955.597zM869.19 535.838l55.182 2.466-204.8 98.606-167.212-75.257c4.803-1.5 8.364-3.585 12.055-6.76C585 580 615 560 615 535c10 30 15 40 39.615 43.97 28.317-1.168 56.27-2.887 77.742-14.417 16.018 6.956 33.704 5.118 42.247-4.035 29.608 4.696 64.647-11.968 69.86-23.703 8.364 1.277 17.09 1.043 24.724-.977zM385.068 83.802c10.924 7.535 23.026 14.09 36.414 17.193 3.267 10.612 6.9 23.055 14.428 36.765 3.727 6.796 8.66 13.44 14.083 19.65 56.07-6.63 109.767-10.662 161.315-12.313 10.983-14.435 19.11-32.14 23.045-52.675 9.534-4.37 17.877-10.464 24.628-17.58 6.334 7.51 14.316 14.094 23.585 19.026 2.55 19.152 8.806 36.1 17.092 50.458 62.52.996 122.87 5.5 182.23 12.897a76.75 76.75 0 0 0 3.279-3.56c13.508-15.578 21.043-36.194 22.98-60.173 26.42-5.61 46.23-13.18 61.298-20.946-37.415 57.32-54.087 93.09-66.473 127.903-140.51-18.324-283.074-22.316-457.022-2.24-15.705-36.13-34.098-70.825-60.88-114.405z"/></symbol><symbol id="F" preserveAspectRatio="none" viewBox="0 0 1300 2000"><path fill="#44f" d="M1200 135c-.037 15.315 1.717 33.768 1.717 48.768s-15 62.053-15 77.053 10.484 45.412 10.484 65.412-16.307 64.104-16.307 84.104 15.56 56.307 15.56 76.307-10.56 45-10.56 65 13.842 48.62 13.842 73.62-18.842 55.895-18.842 75.895 9.813 29.178 9.813 54.178c0 23.257-10.175 80.864-10.748 104.863l20.45-14.576c1.908-27.812 7.832-71.454 7.3-90.895-.682-24.99-10.74-33.898-11.285-53.89s17.448-51.4 16.766-76.38-15.302-53.224-15.848-73.217 9.327-45.27 8.78-65.264-17.09-55.86-17.635-75.852 14.552-64.527 14.006-84.52-11.856-50.105-12.266-65.1 13.302-62.44 12.893-77.434-2.675-33.393-3.12-48.072zM652.26 294.03a10 17.5 0 0 0-10 17.5 10 17.5 0 0 0 10 17.5 10 17.5 0 0 0 10-17.5 10 17.5 0 0 0-10-17.5zm-150.045 5.174a10 17.5 0 0 0-10 17.5 10 17.5 0 0 0 10 17.5 10 17.5 0 0 0 10-17.5 10 17.5 0 0 0-10-17.5zM550 420c-30 10-25 25-45 30l-.535.986C519.068 450.964 535 432.1 550 430v-10zm50 0v10c32.317 0 45.72 21.485 67.297 20.986l-.79-.986c-29.558-5-14.408-25-66.506-30zm526 179.06c-110.185 112.444-133.558 223.164-127.12 352.563 49.77 5.74 90.76 41.014 104.746 88.152l33.434.154c-17.282-14.44-32.06-36.508-32.06-69.93 0-65 45-75 55-75 10.714 0 19.736 7.646 25.88 18.133 3.557-5.198 14.418-10.99 32.5-14.863 66.707-14.294 60.623 22.506 20.53 29.05 36.973-3.507 38.855 15.323 19.522 26.08 21.32 5.563 13.378 23.555-10.728 29.428 31.24 4.095 17.127 31.04-17.062 32.982 17.353 3.768 29.37 10.89 29.37 19.19 0 1.834-.586 3.6-1.627 5.148l41.627-.12v-377.36l-55-20.164-.103 230.912c16.05 6.826 30.22 7.928 30.103-8.416-.07-10.124-10-10-10-5 0 7.533-10 7.453-10 0 0-32.707 40-20 40 0 0 50-85 27.6-95 15-4.206 5.3-21.68 12.326-40.516 14.977l-.81.11-3.408.4C1130.54 893.06 1105 887.407 1105 860c0-20 40-32.707 40 0 0 7.453-10 7.533-10 0 0-5-9.93-5.124-10 5-.114 16.128 13.68 15.268 29.783 8.55L1155 609.21l-29-10.148zm112.9 328.258c-1.97.187-4.01.42-6.182.738a73.72 73.72 0 0 0 6.182-.738zm-778.727-208.73L459.896 960l90.754.072 24.672-30.822c-22.643-93.147-62.25-161.868-115.148-210.662zm362.207 5.328a10 10 0 1 0 0 20 10 10 0 1 0 0-20zM620 735a10 10 0 1 0 0 20 10 10 0 1 0 0-20zm48.03 3.283a10 10 0 1 0 0 20 10 10 0 1 0 0-20zm109.605 1.232a10 10 0 1 0 0 20 10 10 0 1 0 0-20zm-76.764 15.19a10 10 0 1 0 0 20 10 10 0 1 0 0-20zm45.154 2.053a10 10 0 1 0 0 20 10 10 0 1 0 0-20zM52.5 772.5a7.5 7.5 0 1 0 0 15 7.5 7.5 0 1 0 0-15zm430 10c6.904 0 12.5 5.596 12.5 12.5s-5.596 12.5-12.5 12.5S470 801.904 470 795s5.596-12.5 12.5-12.5zm144.89 3.402a10 10 0 1 0 0 20 10 10 0 1 0 0-20zm154.762 2.875a10 10 0 1 0 0 20 10 10 0 1 0 0-20zm-111.658.82a10 10 0 1 0 0 20 10 10 0 1 0 0-20zM37.5 790a7.5 7.5 0 1 0 0 15 7.5 7.5 0 1 0 0-15zm35 2.5a7.5 7.5 0 1 0 0 15 7.5 7.5 0 1 0 0-15zM55 805l-25 75 15-15 10 30 5-30 10 15-15-75zm648.334 1.018a10 10 0 1 0 0 20 10 10 0 1 0 0-20zm47.207 0a10 10 0 1 0 0 20 10 10 0 1 0 0-20zm-373.895 9.004l2.725 47.22c15.947 1.634 32.2 4.046 48.732 7.035-11.308-23.03-29.273-41.88-51.457-54.254zm-122.117.416c-24.402 13.713-43.634 35.35-54.46 61.78 17.57-4.566 35.727-8.57 54.344-11.54l.115-50.24zM522.5 827.5c6.904 0 12.5 5.596 12.5 12.5s-5.596 12.5-12.5 12.5S510 846.904 510 840s5.596-12.5 12.5-12.5zm110.227 13a10 10 0 1 0 0 20 10 10 0 1 0 0-20zm43.104 3.285a10 10 0 1 0 0 20 10 10 0 1 0 0-20zm108.783 2.463a10 10 0 1 0 0 20 10 10 0 1 0 0-20zm-75.943 13.957a10 10 0 1 0 0 20 10 10 0 1 0 0-20zm44.336 3.285a10 10 0 1 0 0 20 10 10 0 1 0 0-20zM315 865a15 15 0 1 0 0 30 15 15 0 1 0 0-30zm167.5 2.5c6.904 0 12.5 5.596 12.5 12.5s-5.596 12.5-12.5 12.5S470 886.904 470 880s5.596-12.5 12.5-12.5zm-170.46 2.44a6.026 6.074 0 0 1 6.027 6.074 6.026 6.074 0 0 1-6.027 6.074 6.026 6.074 0 0 1-6.025-6.074 6.026 6.074 0 0 1 6.025-6.074zm477.9 22.693a10 10 0 1 0 0 20 10 10 0 1 0 0-20zm-111.658 6.568a10 10 0 0 0-9.105 5.867l19.084 4.783a10 10 0 0 0-9.979-10.65zM537.5 905c6.904 0 12.5 5.596 12.5 12.5s-5.596 12.5-12.5 12.5-12.5-5.596-12.5-12.5 5.596-12.5 12.5-12.5zm220.842 4.877a10 10 0 1 0 0 20 10 10 0 1 0 0-20zM265 910a15 15 0 1 0 0 30 15 15 0 1 0 0-30zm100 0a15 15 0 1 0 0 30 15 15 0 1 0 0-30zm-3.393 4.94a6.026 6.074 0 0 1 6.025 6.074 6.026 6.074 0 0 1-6.025 6.074 6.026 6.074 0 0 1-6.027-6.074 6.026 6.074 0 0 1 6.027-6.074zm-100.582.06a6.026 6.074 0 0 1 6.027 6.074 6.026 6.074 0 0 1-6.027 6.074 6.026 6.074 0 0 1-6.025-6.074 6.026 6.074 0 0 1 6.025-6.074zm450.107.623a10 10 0 0 0-5.623 1.732l15.465 10.043a10 10 0 0 0-9.842-11.775zM325.588 985.37c-33.88.246-68.068 5.053-108.615 14.904 22.6 29.84 58.518 48.998 98.912 48.998 42.75 0 80.488-21.46 102.834-54.234-33.58-6.552-63.236-9.885-93.13-9.668z"/></symbol><symbol id="G" preserveAspectRatio="none" viewBox="0 0 1300 2000"><path d="M672.932 185.05c-70.695-.11-145.242 4.245-226.6 14.096l10.72 26.285c165.82-19.487 302.234-15.744 436.89 2.145l8.82-26.432c-74.536-10.105-149.71-15.968-229.83-16.094zM401.37 542.795C349.5 554.56 299.723 572.464 251.73 595.4c73.92 10.384 141.7 34.23 198.805 76.352 59.302 43.75 105.782 106.842 135.994 190.55-20.59-113.546-46.533-215.375-87.854-299.418L425 555zm537.197 21.97L720 670l-175.822-79.12 21.852 59.182 154.613 69.574 164-78.96zm161.953 24.988c-107.836 114.296-132.03 230.93-126.2 361.334l24.766.594c-6.643-129.456 16.73-240.175 127.053-352.533zM1245 642.3v187.727l55-18.357V662.613zM139.914 659.406c-13.638 9.143-40 28.348-40 28.348L100 900c13.807 0 25 11.193 25 25 0 4.94-1.43 9.543-4.184 13.057 5.064 1.28 12.006 3.796 19.5 7.492L140 940zM1050 787c-4.057-.057-4.057 6.057 0 6h75c4.057.057 4.057-6.057 0-6zm-27.457 25l-1.14 6H1140v-6zm-4.174 23.5l-1.242 9h77.268l7.236-9zm-2.996 25l-.814 9h76.5l-1.035-9zm-1.727 25.5l-.492 18h98.63l-13.72-18zm-.602 31l.133 6h86.402l3.066-6zm.447 20l14.803 6h64.62l1.395-6zm44.56 20l8.865 6h23.383l.357-6zm25.17 20l5.52 6h2.035l-.543-6zm-725.148 6.648a3 3 0 0 0-1.604.529c-11.457 7.663-25.357 12.096-40.584 12.096-13.727 0-26.375-3.605-37.13-9.928a3 3 0 1 0-3.041 5.172c11.67 6.86 25.39 10.756 40.17 10.756 16.394 0 31.485-4.793 43.92-13.11a3 3 0 0 0-1.732-5.516zm33.12 3.672a3 3 0 0 0-2.297 1.055c-17.73 20.208-43.762 32.898-73 32.898-27.39 0-51.952-11.128-69.527-29.137a3 3 0 1 0-4.295 4.189c18.666 19.127 44.806 30.947 73.822 30.947 30.986 0 58.688-13.48 77.52-34.94a3 3 0 0 0-2.213-5.012z"/></symbol><symbol id="H" preserveAspectRatio="none" viewBox="0 0 1300 2000"><path stroke="#44f" stroke-linecap="round" stroke-linejoin="round" stroke-width="6" fill="none" d="M522.9 3.48c9.297 67.907 63.934 63.432 67.753 108.843 3.44 40.92-51.645 45.5-54.872 4.55-2.18-27.67 29.204-29.893 31.355-2.6 1.075 13.646-18.522 15.272-19.597 1.625M522.9 3.48c1.458 68.557-53.17 73.145-49.83 118.596 3.01 40.956 58.098 36.388 54.872-4.55-2.18-27.67-33.506-24.692-31.355 2.6 1.075 13.646 20.673 12.02 19.597-1.625M803.52.008c-1.617 68.432 60.02 74.375 56.2 119.75-3.446 40.92-65.7 35.012-62.012-5.886 2.493-27.64 37.895-23.902 35.436 3.364-1.23 13.633-23.377 11.53-22.147-2.102M803.5.01c-10.65 67.57-72.303 61.812-76.662 107.136-3.93 40.874 58.324 46.784 62.012 5.886 2.493-27.64-32.977-30.63-35.436-3.364-1.23 13.633 20.918 15.735 22.147 2.102m106.2 45.593c1.162-1.19 2.297-2.424 3.404-3.7 13.508-15.578 21.043-36.194 22.98-60.173 26.42-5.61 46.23-13.18 61.856-21.684m-129.236 80.8c27.817-11.554 43.905-36.164 40.852-82.08 88.422-13.035 96.24-42.478 134.5-65.724M384.638 83.186c11.354 8.15 23.456 14.705 36.844 17.81 3.267 10.612 6.9 23.055 14.428 36.765 3.727 6.796 8.66 13.44 14.82 19.612m39.926-4.327c-37.887-17.634-37.174-48.547-49.762-77.465C408.942 77.337 370.46 37.367 336.36-.2m275.004 145.38c10.925-14.516 19.05-32.222 22.987-52.756 9.534-4.37 17.877-10.464 24.628-17.58 6.334 7.51 14.316 14.094 23.585 19.026 2.55 19.152 8.806 36.1 17.7 50.523M661.11 0c-6.223 34.596-15.096 66.138-51 71.52-2.112 36.652-16.567 59.957-38.3 75.357m162.66-1.506c-16.468-16.294-26.507-38.787-26.526-70.92C672.417 66.93 665.355 34.9 661.11 0m358.307.214c-89.105 123.155-107.6 170.487-125.54 227.525M331.33.603C399.557 102.39 431.38 159.184 457.19 225.525m-10.86-26.378c173.564-21.015 316.127-17.023 456.43 1.998m-445.71 24.288c165.82-19.487 302.234-15.745 436.9 2.144M428.13 160.035c187.255-23.82 340.462-19.284 490.61 1.877M-.065 771.262C113.128 665.907 248.106 577.56 401.37 542.796M1155 609.634L959.395 538.07M1300 662.683l-55-20.122M924.37 538.304l-204.8 98.606-167.3-75.284m-8.096 29.254L720 670l218.568-105.237M566.03 650.06l154.613 69.575 163.99-78.958m-306.737 47.62l143.174 64.427 140.143-67.476m-214.16 72.16l78.748 48.387 76.56-47.89m-153.3 50.762l81.47 50.197 74-47.52m-153.05 59.26l83.774 41.328 71.53-45.383m-6.21-152.11l7.728 189.336M625.965 709.928L589.11 730.03m57.944 27.377l-45.62 26.06m47.63 25.198l-37.577 23.997m40.006 37.94l-30.533 14.272m181.402-126.972l28.806 8.172m-24.372 100.472l4.647 2.216m-6.9-57.42l14.644 6M605.783 960h-6.5m101.434 0h-6.5M460 960V718.46m-19.115 205.813a125 125 0 1 1-250 0 125 125 0 0 1 250 0M961.508 538.87C815.97 693.8 799.004 865.22 808.188 1039.996m17.516-.01c-9.4-175.267 7.018-342.082 153.724-494.567M949.775 955.53c-5.886-133.34 18.35-257.055 125.322-375.042m-76.01 371.192c-6.643-129.456 16.73-240.176 127.053-352.534m-151.82 351.94c-5.83-130.405 18.365-247.04 126.2-361.335M677.5 1000a27.5 27.5 0 1 1-55 0 27.5 27.5 0 1 1 55 0m14.555-34.062c16.95-40.09-11.834-60.112-42.055-60.7-30.22.587-59.004 20.6-42.055 60.7-45-34.547-65.377 2.234-65.636 34.062.26 31.828 20.636 68.6 65.636 34.062-16.95 40.09 11.834 60.112 42.055 60.7 30.22-.587 59.004-20.6 42.055-60.7 45 34.547 65.377-2.234 65.636-34.062-.26-31.828-20.636-68.6-65.636-34.062m-193.38-403.055c41.32 84.043 67.265 185.872 87.853 299.418-30.212-83.707-76.693-146.8-135.994-190.55-57.095-42.122-124.885-65.968-199.253-76.038M196.2 960h-33.547M140 659.363V940m-40-252.22V900m1114.92 154.94A25 25 0 0 1 1200 1100a25 25 0 0 1-10.719-47.585m-10.207 9.77c-22.95-7.14-74.074-30.022-74.074-92.185 0-65 45-75 55-75 20 0 34.105 26.642 34.105 46.642 0 40-39.105 33.772-39.105 3.358 0-20 10-30 10-30l-30 20m125 100a47.5 20 0 0 1-47.5 20 47.5 20 0 0 1-47.5-20 47.5 20 0 0 1 47.5-20 47.5 20 0 0 1 47.5 20m-66.15-95.558c5.603-3.558 14.336-6.9 26.15-9.442 70-15 59.845 26.263 15 30-21.683 1.807-36.04-.242-43.223-4.1m66.388-2.42c25.294 6.414 10.023 30.033-24.04 31.153-50.432 1.66-60.46-15.413-33.333-25.7m46.744 23.89c31.398 4.087 17.286 31.032-17.147 32.23-56.677 1.973-59.35-22.55-13.184-30.637m-31.246-70.983c3.48-5.51 14.34-11.303 32.413-15.176 70-15 59.845 26.263 15 30-20.955 1.746-35.065-.11-42.474-3.708m-33.8 32.76c5 20-12.097 67.678-12.097 67.678m10-151.572V180l45-45 45 45v693.428M1105 860c0-20 40-32.707 40 0 0 7.453-10 7.533-10 0 0-5-9.93-5.124-10 5-.247 35 65-10 75-20 10 10 75.247 55 75 20-.07-10.124-10-10-10-5 0 7.533-10 7.453-10 0 0-32.707 40-20 40 0 0 50-85 27.6-95 15-10 12.6-95 35-95-15m95.408-14.376c1.908-27.812 7.833-71.455 7.302-90.895-.682-24.99-10.74-33.9-11.286-53.89s17.447-51.4 16.765-76.38-15.3-53.223-15.846-73.216 9.327-45.27 8.78-65.264-17.09-55.86-17.634-75.853 14.55-64.526 14.005-84.52-11.856-50.106-12.265-65.1 13.3-62.44 12.892-77.433-2.674-33.394-3.12-48.073c-.037 15.315 1.716 33.768 1.716 48.768s-15 62.053-15 77.053 10.484 45.41 10.484 65.41-16.305 64.105-16.305 84.105 15.558 56.305 15.558 76.305-10.558 45-10.558 65 13.842 48.62 13.842 73.62-18.842 55.895-18.842 75.895 9.81 29.18 9.81 54.18c0 23.257-10.174 80.862-10.747 104.862M203.405 977.834c85.59-21.582 147.294-22.233 227.62-5.818m-151.22-167.302l-.357 82.688c-30.264 3.33-59.225 9.71-87.14 18.53m158.42-101.64c2.057 26.958 3.642 53.992 4.812 81.08 26.316 1.508 53.676 5.313 82.16 11.718m-220.475 103.075c76.07-18.433 129.86-19.104 201.3-5.165m-163.88-179.53l-.23 50.21c-18.617 2.97-36.774 6.973-54.477 11.922m228.236-8.057c-16.592-3.257-32.855-5.668-48.802-7.302l-2.813-47.256M330 880a15 15 0 1 1-30 0 15 15 0 1 1 30 0m0-45a15 15 0 1 1-30 0 15 15 0 1 1 30 0m0 90a15 15 0 1 1-30 0 15 15 0 1 1 30 0m-50 0a15 15 0 1 1-30 0 15 15 0 1 1 30 0m-45 10a15 15 0 1 1-30 0 15 15 0 1 1 30 0m145-10a15 15 0 1 1-30 0 15 15 0 1 1 30 0m45 5a15 15 0 1 1-30 0 15 15 0 1 1 30 0M285.242 803.2a30.653 27.5 0 0 1-.01-.7 30.653 27.5 0 0 1 30.653-27.5 30.653 27.5 0 0 1 30.653 27.5 30.653 27.5 0 0 1-.011.741m-43.19-25.278C300.167 763.716 289.4 725.933 265 730c-23.937 3.99-41.64 59.017-20 70 16.945 8.6 16.1-46.872 35-45 9.353.926 13.58 21.494 14.69 28.027m9.404-5.884l.001.024m21.842-.613c1.507-26.148 5.675-51.77 14.062-76.554l-25-30-25 30c8.45 24.97 12.617 50.79 14.095 77.143m31.47 4.446c1.424-7.678 5.69-25.724 14.435-26.6 18.9-1.872 18.055 53.6 35 45 21.64-10.983 3.937-66.01-20-70-24.002-4-34.812 32.494-38.175 47.247M177.596 945h-38.54m37.12-15H140m36.207-15H140m38.04-15H140m41.582-15H140m47.125-15H140m54.607-15H140m64.61-15H140m77.78-15H140m93.264-15H140m82.865-15H140m80.217-15H140m81.762-15H140m86.447-15H140m320 195h-5.826M460 930h-4.406M460 915h-4.436M460 900h-6.27m6.27-15h-9.812M460 870h-15.338M460 855h-22.81M460 840h-32.812M460 825h-46.006M460 810h-63.174M460 795h-52.885M460 780h-50.217M460 765h-51.762M460 750h-56.447M1300 1040h-41.57M1245 830l55-18.333M865.54 536.833c25.6 3.76 49.27-7.043 49.106-33.284-.15-23.912-23.268-33.143-37.9-27.026m9.148 61.49c25.6 3.76 49.27-7.043 49.106-33.284-.146-23.15-21.82-32.54-36.477-27.564m7.372 60.848c25.6 3.76 49.27-7.043 49.106-33.284-.15-23.912-23.268-33.143-37.9-27.026m3.794 60.3c25.6 3.76 49.27-7.043 49.106-33.284-.144-22.84-21.244-32.288-35.886-27.755m6.78 61.04c25.6 3.76 49.27-7.043 49.106-33.284-.15-23.912-23.268-33.143-37.9-27.026m8.794 60.3c25.6 3.76 49.27-7.043 49.106-33.284-.15-23.912-23.268-33.143-37.9-27.026m8.794 60.3c25.6 3.76 49.27-7.043 49.106-33.284-.15-23.912-23.268-33.143-37.9-27.026M754.94 214.828c58.346 120.263 27.11 213.533 28.095 252.466C785 545 895 560 894.644 503.55 894.424 468.55 845 465 845 495c-.59 16.604 31.333 20.568 25 0m-97.02-279.107c58.234 119.78 37.2 213.163 38.182 251.98.82 32.388 23.432 43.343 49.503 41.02M791 216.953c57.746 119.272 39.18 212.217 40.16 250.92.414 16.365 6.392 27.258 15.57 33.73m-35.696-282.987c47.44 81.937 34.363 176.107 41.472 260.645m-22.43-258.91c47.682 79.353 37.62 170.364 49.93 254.646M848.35 222.124c45.916 80.088 39.247 178.28 59.153 252.778M867.13 224.324c44.89 80.253 39.318 181.402 67.873 251.11m-48.93-248.894c44.622 81.12 39.37 189.05 76.428 250.118M897.635 216.5C949.21 300.14 951.802 432.027 990 475m-215.476 86.152c29.688 4.06 64.727-12.602 70.476-24.1M755 215c91.368 218.51-34.006 227.8-30.938 300.888.845 20.14 10.938 29.112 24.223 33.688m31.67-1.194c21.553 5.252 48.56-2.6 66.067-11.3m-55.578-155.407c-9.302 47.96-51.778 73.173-48.878 123.24.654 11.282 7.62 16.12 11.394 23.114m36.736-131.545c-10.502 31.1-33.464 50.383-31.002 92.875 3.1 53.494 45.332 53.94 77.633 45.163m-48.08-122.957c-8.795 19.553-20.033 35.14-18.103 68.44 2.595 44.79 31.606 55.442 59.938 52.572M700 505c-4.58 71.226 80 80 80 40 0-30-50-20-30 5m-67-39c0 30 24.833 77.835 51.13 54.58M666 517c0 35 22.575 70.896 49.356 55.678M649 523c0 30 16 62 46.42 53.226M632 529c5 30 13 56 45.453 49.033M615 535c10 30 15 40 39.615 43.97M575 535c-10 23.797-15.385 26.85-40 30m23-34.76c-5 23.797-15.547 35.286-48 29.76m31-34.52c0 23.797-30.58 41.478-61 34.52m27-44.038c0 23.797-28.117 58.868-54.413 40.42M490 511.203c10 55.526-95 58.797-96.084 14C392.943 484.997 450 490 450 520c0 23.643-40.818 30.224-40 5 .266-8.218 10-15 20-10m135 40c20 25 50 5 50-20m-91-14.278c0 20.17-20.534 37.883-45.32 38.573M463.466 224.87C451.463 265.442 470 272.05 470 325c0 55-65 45-65 5 0-30 40-25 40 0 0 18.405-30 20-30 5s15-10 15-10m26.513-100.172c-14.602 44.608-6.856 72.643-11.642 107.215m-15.187 78.65s-15-5-15 10 30 13.405 30-5c0-25-44.105-30.41-44.105-.41 0 40 64.42 44.718 65-5 .3-25.664-5.58-30.282 1.158-67.644-16.736 27.362.164 63.4-22.63 77.772M465 405c18.917 89.457 2.83 125.1-30 135m30-265s20-20 40-20 27.543 6.06 32.537 6.305C543.06 261.576 550 255 555 250v10s-12.053 4.663-17.053 4.663-26.044-5.808-34.18-6.305c-3.973-.243-32.225 8.037-38.768 16.642m275 10s-32.906-33.284-52.906-33.284-49.3 8.524-54.294 8.768c-5.524.27-17.8-.484-22.8-10.484v10s17.39 3.842 22.39 3.842 50.166-9.234 55.936-8.768C704.2 256.356 733.457 276.395 740 285m-185-25s15 15 15 20c0 20-11.716 30.41-11.716 50.41S545 390 545.41 398.695C545.646 403.69 560 410 565 410s5 20 5 20m35-55c25 5 28.974 36.325 10 30-45-15-45 10-12.537-2.463M530 460v10l5-5-5-5m115 0v10l-5-5 5-5m-110 5c10 0 15-10 25-10s15 5 20 5 16.568-7.126 21.568-7.126S625 465 640 465m-75 20c5.86 12.36 30 15 35 0M470 310c10-5 20-10 35.747-9.18C521.537 301.644 535 325 550 325c-25 0-30 10-45 10s-25-5-35-10m150-10s20-20 35-20 50 20 60 20c-22.347-.05-44.764 15-60 15-20 0-35-15-35-15M495 430c5.82 1.44 15-12.658 0-12.446-22.653.32-14.297 33.47 9.464 33.432C519.068 450.963 535 432.1 550 430v-10c-30 10-25 25-45 30m185-15c-12.38-5-19.673-21.47 2.428-23.217C715 410 710 450 667.297 450.986 645.72 451.484 632.317 430 600 430v-10c52.098 5 36.947 25 66.505 30m91.342 550A107.847 96.548 0 0 1 650 1096.548 107.847 96.548 0 0 1 542.153 1000 107.847 96.548 0 0 1 650 903.452 107.847 96.548 0 0 1 757.847 1000M533.15 565.48c44.8 97.376 70.46 213.438 91.43 340.76m96.5-153.517l17.112 191.896M645.54 718.736l7.25 184.842M551.963 960h-116.35m370.648 0H748m-.002-.005l59.2-37.006m-605.23-301.884c182.606 10.658 322.19 96.312 373.563 309.08M754.227 975h51.22M492.5 975h52.346"/></symbol><symbol id="I" preserveAspectRatio="none" viewBox="0 0 1300 2000"><path stroke="#44f" stroke-linecap="round" stroke-linejoin="round" stroke-width="3" fill="none" d="M1205 585.225v-84.22m0 163.06v-78.84m0 150.844v-72.004m0-187.336V140m30 728.537V170m-10 692.945V160m-10 696.566V150m-10 699.232v-52.508m-10-566.69v-11.123m0 66.8v-55.676m0 140.15v-27.113m0 96.994v-69.88m5.558 533.92c3.887 4.86 4.604 9.572 2.486 23.824M1205 935c3.887 4.86 6.708 14.032 2.537 24.384m-4.127-1.198c3.887 4.86 4.655 15.264.895 23.768m-4.458 7.874c3.887 4.86 3.63 14.443.074 22.537M1240 907.258c1.276 3.844 1.458 7.25 0 10m.616 21.96c1.276 3.844 1.458 7.25 0 10m-2.463 18.284c1.276 3.844 1.458 7.25 0 10m-1.5 16.676c1.276 3.844 1.458 7.25 0 10m-42.793-64.737C1177.135 940 1180 970 1180 970M480 305c5-10 19.19-20 35-20 15 0 30 20 30 20m85 2.11s15.59-23.505 32.587-23.7c16.87-.194 30.733 9.623 34.403 15.2M620 315c5 15 14.81 31.867 40 30m-190-20c-3.264 17.638 35 25 35 25m13.9-44.175c.71 2.408 1.1 5.027 1.1 7.767 0 11.823-7.264 21.408-16.225 21.408s-16.225-9.585-16.225-21.408c0-4.157.898-8.038 2.453-11.323m178.258-4.628c1.512 3.253 2.383 7.08 2.383 11.175 0 11.823-7.264 21.408-16.225 21.408s-16.225-9.585-16.225-21.408c0-3.68.703-7.142 1.943-10.166M560 515c15-10 35-5 40 0"/><use xlink:href="#C" height="90" width="90" transform="matrix(.996195 .084715 -.087156 .968301 852.093247 811.614252)"/><use xlink:href="#C" height="90" width="90" transform="matrix(.965926 .251572 -.258819 .93888 895.180195 667.429659)"/><use xlink:href="#C" height="90" width="90" transform="matrix(.906308 .410785 -.422618 .880931 970.233971 542.872775)"/></symbol><rect width="239" height="335" x="-119.5" y="-167.5" rx="12" fill="#fff" stroke="#000"/><use width="164.8" height="260.8" x="-82.4" y="-130.4" xlink:href="#D"/><use transform="rotate(180)" width="164.8" height="260.8" x="-82.4" y="-130.4" xlink:href="#D"/><use width="164.8" height="260.8" x="-82.4" y="-130.4" xlink:href="#E"/><use transform="rotate(180)" width="164.8" height="260.8" x="-82.4" y="-130.4" xlink:href="#E"/><use width="164.8" height="260.8" x="-82.4" y="-130.4" xlink:href="#F"/><use transform="rotate(180)" width="164.8" height="260.8" x="-82.4" y="-130.4" xlink:href="#F"/><use width="164.8" height="260.8" x="-82.4" y="-130.4" xlink:href="#G"/><use transform="rotate(180)" width="164.8" height="260.8" x="-82.4" y="-130.4" xlink:href="#G"/><use width="164.8" height="260.8" x="-82.4" y="-130.4" xlink:href="#H"/><use transform="rotate(180)" width="164.8" height="260.8" x="-82.4" y="-130.4" xlink:href="#H"/><use width="164.8" height="260.8" x="-82.4" y="-130.4" xlink:href="#I"/><use transform="rotate(180)" width="164.8" height="260.8" x="-82.4" y="-130.4" xlink:href="#I"/><use xlink:href="#B" height="32" width="32" x="-114.4" y="-156"/><use xlink:href="#C" height="26.769" width="26.769" x="-111.784" y="-119"/><use xlink:href="#C" height="55.68" width="55.68" x="-86.595" y="-132.16"/><g transform="rotate(180)"><use xlink:href="#B" height="32" width="32" x="-114.4" y="-156"/><use xlink:href="#C" height="26.769" width="26.769" x="-111.784" y="-119"/><use xlink:href="#C" height="55.68" width="55.68" x="-86.595" y="-132.16"/></g><use xlink:href="#A" stroke="#44f" fill="none"/></svg>