<svg xmlns="http://www.w3.org/2000/svg" xmlns:xlink="http://www.w3.org/1999/xlink" width="240" height="336" viewBox="-120 -168 240 336" preserveAspectRatio="none"><style><![CDATA[.B{stroke:#44f}.C{stroke-linecap:round}.D{stroke-linejoin:round}]]></style><defs><path id="A" d="M-82.4-130.4H82.4v260.8H-82.4z"/></defs><symbol id="B" viewBox="-500 -500 1000 1000" preserveAspectRatio="xMinYMid"><path d="M-285-460h200m-100 0v920m-100 0h200M85-460h200m-100 20l-355 595M85 460h200m-100-20L-10-70" stroke="red" stroke-width="80" stroke-linecap="square" stroke-miterlimit="1.5" fill="none"/></symbol><symbol id="C" viewBox="-600 -600 1200 1200" preserveAspectRatio="xMinYMid"><path d="M-400 0C-350 0 0-450 0-500 0-450 350 0 400 0 350 0 0 450 0 500 0 450-350 0-400 0z" fill="red"/></symbol><symbol id="D" preserveAspectRatio="none" viewBox="0 0 1300 2000"><path fill="#fc4" d="M426.28 0c36.472 61.814 68.48 122.794 83.72 190 220-50 290 135 490 75-6.148-107.698 56.115-197.837 111.957-265H426.28zM1300 80l-80 80 .46 444.092c29.157 15.313 56.88 32.778 79.54 49.828V80zM730.424 560l-18.43 16.26c-74.36 65.612-115.843 79.924-204.672 102.393l18.443 129.406c94.826-23.706 169.09-49.275 253.07-118.06h83.006c-36.783 78.647-60.018 153.335-73.578 225h-260.58l-.422 25h256.63c-28.004 175.123.233 332.482 26.88 486.045 48.286-3.56 94.945-5.65 84.227 43.955l122.098-48.678c-89.076-265.304-178.628-449.205 8.713-763.002l58.697-98.32H730.424zm330.373 88.537l-15.328 25.766c108.824 68.98 172.625 150.484 209.1 262.346l27.664-11.848c-38.808-116.694-108.33-204.494-221.426-276.264zm-23.232 39.332l-11.072 19.893c4.572 14.62-28.113 34.818-9.7 47.174 20.48 13.743 35.303-2.516 53.21-19.936-14.905 20.047-30.697 38.7-10 55 19.435 16.73 36.52-2.196 54.984-19.02-15.55 19.55-29.984 39.022-17.594 56.48 12.792 18.024 38.14-.89 60.228-12.56-19.95 15.036-45.28 28.286-32.62 50.1 12.547 21.614 39.19 10.79 62.537 1.906-21.636 12.486-43.37 25.9-32.537 48.094 10.372 21.24 33.238 11.174 57.703 6.125-23.926 7.69-52.165 19.09-29.303 51.672l23.113-14.098c-20.714 4.573-16.857-10.76-3.664-12.783 39.846-6.107 26.337-27.503 33.894-34.344-11.755-.4-13.638-25.33-49.328-6.588-19.72 7.816-18.36-7.936-5.656-12.035 38.363-12.38 21.618-31.35 27.988-39.307-11.67 1.48-17.5-22.83-48.672.213-17.542 9.02-18.114-6.78-6.008-12.4 36.563-16.974 17.624-33.755 22.975-42.432-11.4 2.894-20.16-20.522-49.21 7.426-15.48 14.503-19.99-.652-9.674-9.123 31.152-25.584 8.616-37.09 11.625-46.83C1120.47 756.15 1106.13 735.67 1085 770c-15 15-20 0-9.967-8.803 30.3-26.587 7.4-37.353 10.1-47.186C1075 720 1060 700 1040 735c-13.466 16.39-19.904 1.95-10.777-7.79 19.814-21.145 13.065-31.474 8.342-39.342zM1300 1025.496c-115.918 49.92-199.867 115.636-251.293 246.27l-3.16 9.85c-14.17 6.37-28.66 12.53-43.29 18.348l37.932 111.092c79.026-34.5 160.32-78.752 259.81-144.45v-241.11z"/></symbol><symbol id="E" preserveAspectRatio="none" viewBox="0 0 1300 2000"><path fill="red" d="M750.06 71.416c-8.1 7.058-17.813 12.834-28.66 16.604-5.08 17.498-12.873 32.766-23.1 45.496-57.344-8.466-118.2-13.386-182.865-7.31-.234-1.283-1.036-2.56-1.8-3.844-8.76-14.744-13.228-28.237-17.213-39.74-10.56-2.087-20.47-6.124-29.678-10.008C485.61 111.42 500.836 149.583 510 190c220-50 290 135 490 75-3.103-54.365 11.226-104.257 33.283-148.727-7.296 1.614-15.012 2.782-23.283 3.727-2.746 15.66-7.59 29.77-15.182 42.076-62.438 13.153-131.213.635-208.168-13.5-7.44-15.904-12.004-34.04-12.79-53.95-9.612-6.35-17.653-14.366-23.8-23.22zM1300 136.57l-40 39.998 1.262 450.93c14.24 8.907 27.212 17.772 38.738 26.432zm-186.937 426.562l-7.1 9.682-58.697 98.32zm-88.004 26.094c-8.764.254-24.385 4.427-26.29.762A19.5 19.5 0 0 0 996 600c0 10.22 7.893 18.71 18.088 19.45-2.566-4.934 19.25-23.8 16.686-28.734-.635-1.222-2.794-1.573-5.715-1.488zm-279.504.762A19.5 19.5 0 0 0 738.5 605c0 10.77 8.73 19.5 19.5 19.5s19.5-8.73 19.5-19.5a19.5 19.5 0 0 0-7.047-15.006zm80.713 0A19.5 19.5 0 0 0 823.5 600c0 10.77 8.73 19.5 19.5 19.5s19.5-8.73 19.5-19.5a19.5 19.5 0 0 0-2.766-10.012zm87.5 0A19.5 19.5 0 0 0 911 600c0 10.77 8.73 19.5 19.5 19.5S950 610.77 950 600a19.5 19.5 0 0 0-2.766-10.012zM688 635.5c-.658 0-1.316.033-1.97.1l-15.44 10.615c-1.375 2.724-2.1 5.734-2.1 8.785 0 10.77 8.73 19.5 19.5 19.5s19.5-8.73 19.5-19.5-8.73-19.5-19.5-19.5zm282.5 20c-10.77 0-19.5 8.73-19.5 19.5s8.73 19.5 19.5 19.5a21.43 21.43 0 0 0 .656-.012l16.13-29.414A19.5 19.5 0 0 0 970.5 655.5zm-354.578 20.22l-18.264 7.242A19.5 19.5 0 0 0 593.5 695c0 10.77 8.73 19.5 19.5 19.5s19.5-8.73 19.5-19.5c0-9.64-7.046-17.834-16.578-19.28zM778.836 690c-83.98 68.784-158.246 94.352-254.416 119.03l290.47.773c12.36-39.083 27.827-78.908 46.953-119.803zM538.79 701.38l-19.95 5.213A19.5 19.5 0 0 0 513.5 720c0 10.77 8.73 19.5 19.5 19.5s19.5-8.73 19.5-19.5a19.5 19.5 0 0 0-13.709-18.621zM930.5 730.5c-10.77 0-19.5 8.73-19.5 19.5s8.73 19.5 19.5 19.5c1.852 0 3.695-.264 5.473-.783l12.02-27.332A19.5 19.5 0 0 0 930.5 730.5zm-30 80c-10.77 0-19.5 8.73-19.5 19.5s8.73 19.5 19.5 19.5c2.473 0 4.924-.47 7.22-1.387l9.057-28.85A19.5 19.5 0 0 0 900.5 810.5zm73.38 13.072c-30.287 84.62-37.4 159.34-31.172 232.307 4.045 47.383 14.005 94.266 27.81 143.32 35.467-73.406 82.796-130.262 138.2-174.976l-6.213-20.652c-25.453-89.086-50.378-129.386-128.625-179.998zm323.728 121.934l-9.275 3.736L1300 978.207v-26.762zm-97.826 46.55l-8.687 4.953 36.732 64.4 8.686-4.955zm100.22 61.957l-21.39 8.584 10.578 22.262 10.81-4.838zm-191.68 2.728l-7.414 6.71 49.477 54.662 7.414-6.71zm127.693 28.525l-31.816 20.63 14.1 19.81 30.053-19.373zm-67.186 49.303l-26.365 26.894 18.5 16.033 24.316-25.082zm-133.647 3.555l-5.588 8.293 61.828 41.656 5.588-8.293zm77.92 62.13l-17.738 30.244 21.824 11.578 16.645-28.375zm-129.352 32.9l-3.77 9.262 69.168 28.16 3.772-9.262z"/></symbol><symbol id="F" preserveAspectRatio="none" viewBox="0 0 1300 2000"><path fill="#44f" d="M600 445c-40 0-85-35-85-35v-15c40 15 30 45 85 50m-75-235l-5 15s45-5 55-5c30 0 60 45 95 45-35 0-65-55-95.3-56.16-9.993-.383-13.614 9.42-33.614 9.42C536.382 218.258 525 210 525 210zm49.667 73.06a11.249 20.385 0 0 1-11.249 20.385 11.249 20.385 0 0 1-11.249-20.385 11.249 20.385 0 0 1 11.249-20.385 11.249 20.385 0 0 1 11.249 20.385zM489.01 572.698l133.64 3.825c19.965.522 52.342-5.558 72.988-38.356 8.822 11.653 21.897 16.73 35.872 16.97L730.424 560l-18.43 16.26c-74.36 65.612-115.843 79.924-204.95 102.132L489.01 572.698zM800 605c0 23.196-18.804 42-42 42-29.84.637-35.202-40.062-49.393-28.596A42 42 0 0 1 730 655c0 23.196-18.804 42-42 42-20.928 0-38.655-15.406-41.584-36.12l-5.35 2.877C649.933 671.723 655 683.08 655 695c0 23.196-18.804 42-42 42-17.875 0-33.13-11.17-39.195-26.908A41.98 41.98 0 0 1 575 720c0 23.196-18.804 42-42 42-5.157 0-10.27-.95-15.082-2.8l2.217 19.344c96.262-24.137 164.257-47.608 247.79-118.543H910.32c-156.787 297.276-107.906 528.857-68.797 765.254 30.6.378 51.772 10.196 52.53 40.46l95.313-32.77c-74.332-196.57-139.016-358.158-88.234-560.95l-.63.006c-23.196 0-42-18.804-42-42s18.804-42 42-42a42 42 0 0 1 24.527 7.908l1.553-4.094C905.003 789.792 888.5 771.68 888.5 750c0-23.196 18.804-42 42-42 10.4 0 20.407 3.853 28.12 10.81l1.535-3.105C941.543 710.973 928.5 694.217 928.5 675c0-23.196 18.804-42 42-42a42 42 0 0 1 28.717 11.352l.834-1.4 1.902-3.186C984.94 633.958 973.5 617.975 973.5 600c0-3.37.407-6.727 1.21-10h-3.418c.802 3.273 1.21 6.63 1.21 10 0 23.196-18.804 42-42 42s-42-18.804-42-42c0-3.37.407-6.727 1.21-10h-5.918c.802 3.273 1.21 6.63 1.21 10 0 23.196-18.804 42-42 42s-42-18.804-42-42c0-3.37.407-6.727 1.21-10-9.2-1.207-2.26 7.468-2.21 15zm175.104-15l55.566 1.654.988-1.654zm23.632 172.9c94.583 60.402 136.897 120.76 165.9 221.53l18.766-11.634c-22.862-32.583 5.376-43.982 29.302-51.67-24.465 5.05-47.33 15.115-57.702-6.126-10.832-22.184 10.9-35.61 32.536-48.095-23.348 8.883-50 19.71-62.536-1.905-12.662-21.813 12.67-35.063 32.62-50.1-22.087 11.67-47.437 30.582-60.23 12.558-12.4-17.46 2.043-36.93 17.594-56.48-18.464 16.826-35.55 35.752-54.984 19.02-20.697-16.3-4.905-34.953 10-55-17.906 17.42-32.73 33.68-53.208 19.936-18.412-12.355 14.274-32.553 9.7-47.174M1254.56 936.65c-36.465-111.86-100.267-193.368-209.09-262.347l-7.904 13.568c4.723 7.868 11.47 18.196-8.343 39.34-9.126 9.74-2.687 24.18 10.778 7.79 20-35 35-15 45.124-20.988-2.69 9.832 20.21 20.598-10.09 47.185C1065 770 1070 785 1085 770c21.13-34.33 35.47-13.85 45.785-19.505-3.01 9.74 19.527 21.246-11.625 46.83-10.315 8.47-5.807 23.626 9.675 9.124 29.05-27.948 37.808-4.532 49.21-7.426-5.35 8.677 13.588 25.457-22.975 42.43-12.106 5.62-11.535 21.42 6.008 12.4 31.17-23.044 37.003 1.267 48.672-.212-6.37 7.958 10.376 26.927-27.988 39.306-12.702 4.1-14.066 19.85 5.655 12.036 35.7-18.74 37.573 6.188 49.328 6.588-7.557 6.84 5.952 28.236-33.894 34.343-13.193 2.022-17.05 17.356 3.665 12.783zm-111.803 62.202l-1.79-6.27c-27.634-96.72-63.334-149.574-152.397-206.618l-14.645 37.86c78.203 50.36 103.128 90.662 128.58 179.747l5.99 20.963"/></symbol><symbol id="G" preserveAspectRatio="none" viewBox="0 0 1300 2000"><path d="M1084.508 560l-58.697 98.32c-187.34 313.797-97.79 497.698-8.713 763.002l23.092-10.266-57.762-175.512c64.447-156.058 179.24-235.865 317.572-291.102v-26.828c-138.02 53.795-258.328 132.84-329.172 282.387l.795 2.71-1.42-4.314c-13.49-48.25-23.45-95.135-27.496-142.518-9.688-113.478 12.898-231.197 104.568-384.744l58.697-98.32-29.78 49.916c108.495 68.997 180.943 154.62 223.81 263.285v-232.1c-52.113-39.226-130.673-80.473-187.98-91.012l-.064.107zM220 625c-38.243 16.87-50.73 39.82-50.184 65.85-13.3-.348-27.534 4.81-43.62 20.596 2.945-9.904 3.418-20.66 3.805-31.445-38.312 16.9-50.776 39.903-50.182 66-9.15.74-18.788 4.284-29.186 12.215C54.076 747.82 54.6 736.43 55 725c-38.537 17-50.922 40.174-50.17 66.45-1.594.208-3.204.51-4.83.902v13.45c6.455-.823 13.03-.953 22.26-.586-9.05 2.62-15.422 4.463-22.26 5.8v13.97c15.197.001 32.097-6.118 51.395-20.848-11.463-5.788-22.95-11.437-35.184-12.78 13.19-5.1 21.793-11.762 27.44-19.45 22.217 12.236 47.947 11.85 80.484-12.984-10.803-5.455-21.628-10.784-33.078-12.506 19.825-7.612 29.328-18.78 34.014-31.607 23.028 14.305 49.765 15.292 84.064-10.887-9.735-4.916-19.487-9.734-29.7-11.9 17.505-6.37 27.302-15.398 32.848-25.89 22.528 13.014 48.645 13.135 81.852-12.21-23.778-12.007-47.654-23.447-78.11 3.057 3.1-10.052 3.58-20.998 3.975-31.98zm-15 25c-9.295 18.59-14.428 24.37-31.143 41.13l-1.406-.14c13.07-21.403 18.434-26.875 32.55-41zm52.28 4.807c2.377.016 4.928.082 7.72.193-19.154 5.548-26.54 7.606-51.53 8.73.2-.437.382-.88.57-1.322 19.62-5.653 27.964-7.704 43.238-7.602zm-85 50c2.377.016 4.928.082 7.72.193-19.935 5.775-27.006 7.775-54.58 8.87.053-.152.095-.308.146-.46 22.238-6.438 30.55-8.7 46.713-8.602zM115 705c-9.24 18.483-14.365 24.3-30.852 40.84a46.15 46.15 0 0 0-1.611.012C95.545 724.565 100.916 719.084 115 705zm-75 45c-9.287 18.575-14.418 24.362-31.102 41.092a46.34 46.34 0 0 0-1.568.1C20.49 769.62 25.84 764.16 40 750zm47.28 9.807c2.377.016 4.928.082 7.72.193-18.542 5.37-26.02 7.474-49.14 8.623a46.84 46.84 0 0 0 1.193-2.084c17.576-5.02 25.72-6.83 40.225-6.732zM523.076 810l4.607 105h260.645l26.547-105zm467.71 71.87l-2.305 9.463c-13.936 57.217-16.337 109.636-11.896 161.652.997 11.684 2.414 23.387 4.166 35.13l2.12 14.21 8.615-11.498c21.298-28.422 44.77-53.825 69.992-76.62l2.783-2.516-1.043-3.606c-17.22-59.464-30.254-90.3-65.016-119.902zm7.127 22.383c26.414 25.135 37.62 51.977 52.734 103.687-21.305 19.517-41.323 40.982-59.904 64.463-.855-6.832-1.62-13.647-2.2-20.437-4.087-47.877-2.144-95.767 9.37-147.713z"/></symbol><symbol id="H" preserveAspectRatio="none" viewBox="0 0 1300 2000"><path stroke-width="6" fill="none" d="M1205 261.182v97.637m-15-106.69V367.87m-15-17.56v29.996m0-89.9v39.187m0-89.9v29.996m-15 98.684v27.984m0-98.002v23.29m0-98.002v27.984m-15 54.246v8.254M520.134 778.543c96.262-24.137 164.257-47.608 247.79-118.543H910.32c-156.787 297.276-107.906 528.857-68.797 765.254M525.766 808.06c94.826-23.706 169.09-49.275 253.07-118.06h83.006c-131.846 281.9-89.778 512.978-51.07 736.045m178.593 6.9C889.254 1168.2 806.638 966.91 1000.05 642.94l31.607-52.94H741.766l-9.922 8.756c-78.35 69.132-127.85 86.374-220.13 109.725m505.384 712.842C928.02 1156.02 838.47 972.117 1025.81 658.32l58.697-98.32H730.424l-18.43 16.26c-74.36 65.612-115.843 79.924-204.67 102.393M426.29.007C462.762 61.82 494.762 122.796 510 190c220-50 290 135 490 75-6.148-107.703 56.123-197.855 111.966-265.018M614.76.032c16.73 41.378 55.947 49.645 55.58 90.028-.408 44.997-60.98 44.224-60.335-.77.435-30.4 34.906-29.556 34.477.44-.215 14.998-21.763 14.723-21.548-.275M599.096.044C581.146 40.794 541.84 48.1 541.05 88.4c-.88 44.99 59.69 45.764 60.335.77.435-30.4-34.048-30.436-34.477-.44-.215 14.998 21.333 15.273 21.548.275M910 3.4c-3.958 75.052 63.504 83.57 57.94 133.177-5.014 44.7-73.043 36.172-67.764-8.495 3.568-30.19 42.24-24.924 38.722 4.854-1.76 14.89-25.96 11.855-24.2-3.034M910 3.4c-13.64 73.838-81.115 65.44-87.268 114.973-5.544 44.633 62.485 53.162 67.764 8.495 3.568-30.19-35.203-34.632-38.722-4.854-1.76 14.89 22.442 17.923 24.2 3.034m-384.1 3.746C710 100 880 200 1015.604 156.595m-20.193 5.328c6.997-12.153 11.843-26.264 14.59-41.923 8.27-.945 15.987-2.113 23.205-3.475m-81.716 50.85c19.22-13.488 30.892-37.153 31.903-75.195 30.425-1.548 52.5-5.644 69.805-11.195m-586.677-9.73c9.446 5.24 19.354 9.28 29.914 11.366 3.985 11.503 8.452 24.997 17.213 39.74a89.05 89.05 0 0 0 2.409 3.829m36.573-2.297c-21.4-18.82-24.134-45.134-35.9-69.788-25.03 2.192-54.55-18.946-83.546-45.79m265.622 125.38c9.723-12.9 17.517-28.178 22.597-45.676a87.27 87.27 0 0 0 28.66-16.604c6.148 8.853 14.187 16.87 23.8 23.22.785 19.912 5.35 38.047 12.742 53.992M757.092.052c-9.98 32.9-23.918 60.708-60.003 62.635-4.63 30.514-16.392 51.692-33.043 66.46m160.493 26.228c-15.847-19.385-24.21-44.73-21.012-79.264-34.67-10.876-41.41-41.52-43.145-76.067M.128 733.28c160.745-106.142 273.82-156.13 405.765-201.716M1084.508 560c58.556 0 155.048 48.393 215.606 93.996m-239.316-5.46c113.096 71.77 182.617 159.57 221.424 276.264m-236.754-250.5c108.824 68.98 172.626 150.486 209.09 262.347m45.512-50.46c-42.857-108.747-115.328-194.42-223.9-263.39M998.735 762.9c94.583 60.402 136.897 120.76 165.9 221.53M988.568 785.964c89.063 57.044 124.762 109.898 152.397 206.618l1.79 6.27m-168.833-175.03c78.203 50.36 103.128 90.662 128.58 179.747l5.99 20.963m-63.124 257.06l3.338-9.824c51.42-130.622 135.35-196.342 251.25-246.26m-145.866 202.44c35.812-56.212 81.928-90.805 145.814-120.773M1113.38 1249.43c42.764-84.642 101.833-131.066 186.517-169.544M1077.87 1266.58c47.687-111.38 119.453-168.575 222.006-213.896m-329.05 147.318c70.84-149.54 191.118-228.61 329.13-282.407M981.74 1237.19c64.317-157.148 179.434-237.316 318.252-292.746m-297.715 355.7c108.097-44.365 209.475-97.716 297.742-168.6m-329.817 66.854c-13.49-48.25-23.45-95.134-27.496-142.517-9.688-113.478 12.898-231.197 104.568-384.744l58.697-98.32 7.09-9.682m-73.17 847.473l-58.398-173.96M523.076 810h291.8m-287.19 105h260.645m-261.066 25h256.695m329.144 260.255l20.73 13.447m8.632-52.237l18.5 16.033m7.854-42.927l16.46 17.846m18.908-46.52l14.1 19.8m17.716-40.438l12.336 21.066m30.262-43.735l10.58 22.262m-193.827 145.638l21.824 11.578M1220 603.865V160l80-80m-40 546.748v-450.18l40-40m-80.018 216.094C1178.5 366.005 1146.587 405.675 1120 460c-1.436-40.363-8.306-82.087 20-115-16.063-8.51-30.68-9.463-50-35 19.32-25.537 33.937-26.49 50-35-28.306-32.913-21.436-74.637-20-115 26.587 54.325 58.5 93.995 99.982 107.336m-71.68 144.1c.056-3.197.194-6.275.44-9.224 1.32-15.756 4.72-26.855 14.004-37.65l24.494-28.482-33.195-17.588c-8.638-4.577-14.026-6.53-18.703-8.5 4.677-1.96 10.065-3.914 18.703-8.5l33.195-17.588-24.494-28.482c-9.284-10.795-12.684-21.895-14.004-37.65-.247-2.95-.385-6.027-.44-9.224M1120 160c-80.254 116.73-51.745 210.787 0 300M708.56 618.376A42 42 0 0 1 688 697a42 42 0 0 1-41.598-36.205M686.03 635.6A19.5 19.5 0 0 1 707.5 655a19.5 19.5 0 1 1-39 0 19.5 19.5 0 0 1 2.091-8.784m126.638-56.22A42 42 0 0 1 758 647a42 42 0 0 1-41.436-35.143m53.9-21.863A19.5 19.5 0 0 1 758 624.5a19.5 19.5 0 0 1-12.445-34.512M883.8 590A42 42 0 0 1 843 642a42 42 0 0 1-40.789-52.012m57.523.001A19.5 19.5 0 0 1 843 619.5a19.5 19.5 0 0 1-16.733-29.512M971.3 590A42 42 0 0 1 930.5 642a42 42 0 0 1-40.789-52.012m57.523.001A19.5 19.5 0 0 1 930.5 619.5a19.5 19.5 0 0 1-16.733-29.512m88.194 49.77a42 42 0 0 1-27.25-49.77m39.376 29.46a19.5 19.5 0 0 1-15.321-29.461M960.294 715.74A42 42 0 0 1 970.5 633a42 42 0 0 1 28.739 11.372m-28.082 50.117A19.5 19.5 0 0 1 951 675a19.5 19.5 0 0 1 36.285-9.925m-60.62 126.75A42 42 0 0 1 930.5 708a42 42 0 0 1 28.229 10.901m-22.757 49.815A19.5 19.5 0 0 1 911 750a19.5 19.5 0 0 1 36.994-8.615m-46.757 130.61A42 42 0 0 1 858.5 830a42 42 0 0 1 66.636-34.016m-17.416 52.13A19.5 19.5 0 0 1 881 830a19.5 19.5 0 0 1 35.778-10.737m-275.735-155.53A42 42 0 0 1 613 737a42 42 0 0 1-41.896-44.949m44.82-16.33A19.5 19.5 0 0 1 613 714.5a19.5 19.5 0 0 1-15.342-31.537m-31.952 10.687A42 42 0 0 1 533 762a42 42 0 0 1-15.083-2.802m20.873-57.82A19.5 19.5 0 0 1 533 739.5a19.5 19.5 0 0 1-14.158-32.909m276.317-460.18C741.578 377.816 800 422.2 800 500c0 55-115 90-115 0 0-55 75-55 75-10 0 35-62.765 44.89-60 10 3.052-38.508 47.487-19.355 35-5m47.517-254.267c-57.74 135.6-2.033 172.158-2.033 251.057 0 55-85.484 58.2-80.484 8.2m70-265c-61.788 140.32-10 175-10 255m47.997-238.18C758.185 379.052 815 423.287 815 500c0 30.823-36.118 55.365-67.872 55.144m73.92-298.243C774.7 380.245 830 424.317 830 500c0 30.823-36.118 55.365-67.872 55.144m72.195-293.56C791.102 381.375 845 425.282 845 500c0 30.823-36.118 55.365-67.872 55.144m70.62-289.105C807.44 382.477 860 426.216 860 500c0 30.823-36.118 55.365-67.872 55.144m69.335-285.326C823.58 383.434 875 427.02 875 500c0 30.823-36.118 55.365-67.872 55.144m68.334-282.276C839.5 384.22 890 427.677 890 500c0 30.823-36.118 55.365-67.872 55.144m67.61-280.002C855.19 384.816 905 428.17 905 500c0 30.823-36.118 55.365-67.872 55.144m67.155-278.548C870.63 385.2 920 428.49 920 500c0 30.823-36.118 55.365-67.872 55.144M919.1 277.188C885.81 385.358 935 428.62 935 500c0 30.823-36.118 55.365-67.872 55.144m67.066-278.262C900.716 385.277 950 428.552 950 500c0 30.823-36.118 55.365-67.872 55.144m67.455-279.5C915.338 384.946 965 428.278 965 500c0 30.823-36.118 55.365-67.872 55.144m68.162-281.74C929.663 384.36 980 427.793 980 500c0 30.823-36.118 55.365-67.872 55.144m69.225-284.993C943.68 383.52 995 427.09 995 500c0 30.823-36.118 55.365-67.872 55.144m70.742-289.458C957.335 382.39 1010 426.142 1010 500c0 30.823-36.118 55.365-67.872 55.144M520 532.778C465.796 598.504 405 580 405 540s65-45 65-5c0 30-45 25-45 5 0-10 0-10 5-15m70 9.444c-25.083 26.79-49.177 31.34-67.463 18.093M540 532.222c-20 40-57.915 45.684-79.403 45.122M560 533.89c-20 40-55.863 43.196-77.35 42.634M580 535c-20 40-55.863 42.085-77.35 41.523m97.35-43.2c-20 40-55.863 43.752-77.35 43.2M620 531.667c-20 40-55.863 45.418-77.35 44.857M640 530.556c-20 40-55.863 46.53-77.35 45.968M660 531.11c-20 40-55.863 45.974-77.35 45.412M680 530c-20 40-55.863 47.085-77.35 46.523m92.873-38.51c-20.53 32.953-52.907 39.032-72.873 38.51M517.827 188.827C514.886 200.91 510 221.505 510 225c0 5 15 20 15 25s-25 30-35 45-25 60-25 70-5 20 10 20 20 15 20 15l-10 15 10 25s-1.838 13.675-5 20c-5 10 20 15 20 20s-20.437 15.02-20 20c3.908 44.548-24.383 56.24-25 50m70-200c15 0 10 40-10 30-30-15-45 5-15-5m105 35c2.205-6.063 7.383-10 15-10 25 0 10 45-30 45s-85-35-85-35v-15c40 15 30 45 85 50m-105-5c20 0 40 5 60 20-22.925-16.544-40-35-70-45m40-205l-5 15s45-5 55-5c30 0 60 45 95 45-35 0-65-55-95.3-56.16-9.993-.383-13.614 9.42-33.614 9.42C536.382 218.258 525 210 525 210m105 80c-30 0-45.346-24.918-65-25-10.138-.042-30 5-30 5m60.87 9.644C610.873 299.647 557.374 309.072 545 295M239.87 597.116C233.83 582.484 222.966 557.69 210 535c-20-35-45-15-35 5s20 35 20 35m-19.7-35.065c-1.68-1.02-21.224-27.478-50.3-39.935-35-15-33.238 7.222-10 25 11.232 8.593 50 65 50 65m-60-74.7C85 495 60 500 80 530s55 75 55 75m-55-75c-15-20-30 0-15 20 18.974 25.298 40 80 40 80m-32.968-69.42C45 530 44.064 561.807 54.064 581.807 59.064 591.807 75 645 80 655l10.7 21.402m946.863 11.468c4.723 7.868 11.47 18.196-8.343 39.34-9.126 9.74-2.687 24.18 10.778 7.79 20-35 35-15 45.124-20.988-2.69 9.832 20.21 20.598-10.09 47.185C1065 770 1070 785 1085 770c21.13-34.33 35.47-13.85 45.785-19.505-3.01 9.74 19.527 21.246-11.625 46.83-10.315 8.47-5.807 23.626 9.675 9.124 29.05-27.948 37.808-4.532 49.21-7.426-5.35 8.677 13.588 25.457-22.975 42.43-12.106 5.62-11.535 21.42 6.008 12.4 31.17-23.044 37.003 1.267 48.672-.212-6.37 7.958 10.376 26.927-27.988 39.306-12.702 4.1-14.066 19.85 5.655 12.036 35.7-18.74 37.573 6.188 49.328 6.588-7.557 6.84 5.952 28.236-33.894 34.343-13.193 2.022-17.05 17.356 3.665 12.783m-180.022-250.936c4.572 14.62-28.113 34.82-9.7 47.174 20.48 13.743 35.303-2.517 53.208-19.936-14.905 20.047-30.697 38.7-10 55 19.435 16.73 36.52-2.195 54.984-19.02-15.55 19.55-29.984 39.02-17.594 56.48 12.792 18.024 38.14-.888 60.23-12.558-19.95 15.036-45.28 28.286-32.62 50.1 12.547 21.614 39.19 10.79 62.536 1.905-21.636 12.486-43.37 25.91-32.536 48.095 10.372 21.24 33.237 11.175 57.702 6.126-23.926 7.69-52.164 19.09-29.302 51.67" class="B C D"/></symbol><symbol id="I" preserveAspectRatio="none" viewBox="0 0 1300 2000"><path stroke-width="3" fill="none" d="M545 265c2.64-9.53 17.644-23.57 27.903-22.032C591.207 245.713 610 280 620 280m10 10c-10 0-20 10-20 10m-26.992-28.16a35.29 35.29 0 0 1 .541 6.192c0 13.807-7.835 25-17.5 25s-17.5-11.193-17.5-25c0-4.428.806-8.588 2.22-12.196M120.802 496.815c-3.725 13.385-7.12 15.266-16.172 17.234m-8.167-5.558c-3.725 13.385-11.33 13.38-20.38 15.348m4.126 6.104c-3.725 13.385-7.7 14.105-18.204 13.75M69.6 558.28c-5.03 10.627-11.04 10.476-19.656 9.542m132.017-50.58C188.18 532.903 210 535 210 535M65 590c4.797.895 7.937-1.1 10-5m33.204-33.974c4.797.895 7.937-2.906 10-6.796M65 590c4.797.895 7.937-1.1 10-5m61.026-52.31c4.797.895 6.654-2.65 8.717-6.54m-61.057 40.663c4.797.895 7.937-2.65 10-6.54" class="B C D"/><use xlink:href="#C" height="120" width="120" transform="matrix(1 0 0 .972 590 941.68)"/><use xlink:href="#C" height="120" width="120" transform="matrix(1 0 0 .972 510 941.68)"/><g class="B C D"><use xlink:href="#C" height="170" width="170" transform="matrix(.965926 -.251572 .258819 .93888 295.896686 581.578838)" stroke-width="42.352"/><use xlink:href="#C" height="150" width="150" transform="matrix(.984808 -.168786 .173648 .957233 348.115805 705.866467)" stroke-width="48"/><use xlink:href="#C" height="130" width="130" transform="matrix(.996195 -.084715 .087156 .968301 382.582221 827.566919)" stroke-width="55.384"/><use xlink:href="#C" height="110" width="110" transform="matrix(1 0 0 .972 405 928.54)" stroke-width="65.454"/><use xlink:href="#C" height="100" width="100" transform="matrix(.984808 .168786 -.173648 .957233 409.442021 1013.699042)" stroke-width="72"/></g><use xlink:href="#C" height="90" width="90" transform="matrix(.5 .841777 -.866025 .486 1275.471143 940.250049)"/><use xlink:href="#C" height="90" width="90" transform="matrix(.642788 .744595 -.766044 .62479 1178.546558 990.377686)"/><use xlink:href="#C" height="90" width="90" transform="matrix(.766044 .62479 -.642788 .744595 1088.453442 1058.377686)"/><use xlink:href="#C" height="90" width="90" transform="matrix(.866025 .486 -.5 .841777 1021.528857 1149.250049)"/></symbol><rect width="239" height="335" x="-119.5" y="-167.5" rx="12" fill="#fff" stroke="#000"/><use width="164.8" height="260.8" x="-82.4" y="-130.4" xlink:href="#D"/><use transform="rotate(180)" width="164.8" height="260.8" x="-82.4" y="-130.4" xlink:href="#D"/><use width="164.8" height="260.8" x="-82.4" y="-130.4" xlink:href="#E"/><use transform="rotate(180)" width="164.8" height="260.8" x="-82.4" y="-130.4" xlink:href="#E"/><use width="164.8" height="260.8" x="-82.4" y="-130.4" xlink:href="#F"/><use transform="rotate(180)" width="164.8" height="260.8" x="-82.4" y="-130.4" xlink:href="#F"/><use width="164.8" height="260.8" x="-82.4" y="-130.4" xlink:href="#G"/><use transform="rotate(180)" width="164.8" height="260.8" x="-82.4" y="-130.4" xlink:href="#G"/><use width="164.8" height="260.8" x="-82.4" y="-130.4" xlink:href="#H"/><use transform="rotate(180)" width="164.8" height="260.8" x="-82.4" y="-130.4" xlink:href="#H"/><use width="164.8" height="260.8" x="-82.4" y="-130.4" xlink:href="#I"/><use transform="rotate(180)" width="164.8" height="260.8" x="-82.4" y="-130.4" xlink:href="#I"/><use xlink:href="#B" height="32" width="32" x="-114.4" y="-156"/><use xlink:href="#C" height="26.769" width="26.769" x="-111.784" y="-119"/><use xlink:href="#C" height="55.68" width="55.68" x="-89.68" y="-132.16"/><g transform="rotate(180)"><use xlink:href="#B" height="32" width="32" x="-114.4" y="-156"/><use xlink:href="#C" height="26.769" width="26.769" x="-111.784" y="-119"/><use xlink:href="#C" height="55.68" width="55.68" x="-89.68" y="-132.16"/></g><use xlink:href="#A" fill="none" class="B"/></svg>