<svg xmlns="http://www.w3.org/2000/svg" xmlns:xlink="http://www.w3.org/1999/xlink" width="240" height="336" viewBox="-120 -168 240 336" preserveAspectRatio="none"><defs><path id="A" d="M-82.4-130.4H82.4v260.8H-82.4z"/></defs><symbol id="B" viewBox="-500 -500 1000 1000" preserveAspectRatio="xMinYMid"><path d="M-260 100c300 0 220 360 520 360M-175 0v-285a175 175 0 0 1 350 0v570a175 175 0 0 1-350 0z" stroke="#000" stroke-width="80" stroke-linecap="square" stroke-miterlimit="1.5" fill="none"/></symbol><symbol id="C" viewBox="-600 -600 1200 1200" preserveAspectRatio="xMinYMid"><path d="M30 150c5 235 55 250 100 350h-260c45-100 95-115 100-350a10 10 0 0 0-20 0 210 210 0 1 1-74-201 10 10 0 0 0 14-14 230 230 0 1 1 220 0 10 10 0 0 0 14 14 210 210 0 1 1-74 201 10 10 0 0 0-20 0z"/></symbol><symbol id="D" preserveAspectRatio="none" viewBox="0 0 1300 2000"><path fill="#fc4" d="M126.244 0C106.112 115.728 110.677 243.292 30 330c33.59-7.98 66.994-12.36 99.984-9.607L333.643 0zm668.94 480l-510.762.117c-33.066 50.77-73.708 92.457-125.197 119.68l697.926.793c-23.462-43.178-43.98-83.366-61.967-120.6zm322.314 57.5c-16.937 0-33.872 21.077-28.147 63.227a42.5 42.5 0 0 1 56.295-.016c5.72-42.14-11.214-63.21-28.148-63.21zm-260.098 63.127c-9.57 10.815-18.21 22.757-25.723 35.768-37.37 64.728-37.814 140.45-7.797 202.08C796.02 884.234 780 937.777 780 995c0 168.447 138.792 305 310 305 80.432 0 153.71-30.138 208.803-79.562l-.69-.516 1.89-2.54v-27.12L923.95 910.625l80.025-114.678L1300 1015.93v-31.15L996.06 758.736 890.79 909.496l-.447-.477 10.658-15.37c-74.4-55.386-96.537-160.12-47.672-244.758 6.038-10.457 12.883-20.128 20.404-28.98zm213.152 2.594c-68.783-.54-63.724 68.144 15.172 57.426a42.5 42.5 0 0 1-.016-56.295c-5.397-.733-10.45-1.094-15.156-1.13zm93.89 0c-4.7.037-9.77.4-15.172 1.133a42.5 42.5 0 0 1 .016 56.295c78.88 10.706 83.934-57.967 15.156-57.428zM410.168 629.72c5.633 161.815 151.47 195.793 164.084 310.258l20.432-.012C587.116 821.02 445.85 791.57 440.176 630.1zm129.957.39c4.04 161.4 104.663 181.7 109.682 309.838l25.025-.002c-4.34-127.984-91.33-143.766-94.73-309.828zm119.986.182c2.786 128.345 57.357 162.203 59.805 309.395h20.014c-2.04-147.19-47.516-181.05-49.838-309.395zM1235 640c-13.07 39.2-55.14 75.15-53.707 109.752-4.37-18.95-8.08-37.984-13.525-55.89l-21.678-2.06c7.35 20 11.636 41.876 16.582 63.76L1185 765c63.58-18.95 58.442-71.175 50-125zm-89.353 24.273a42.5 42.5 0 0 1-56.295.016c-4.562 33.61 5.292 53.803 18.06 60.605l-1.682-.105c-21.832 2.077-44.95 12.79-70.728 10.21 17.417 28.272 67.468 31.437 130 25-12.934-21.018-25.87-30.534-39.14-33.96l-.64-.04c13.883-5.48 25.272-26.052 20.426-61.73zm-230.86 270.79l280.145 208.248c-29.605 19.987-65.264 31.69-104.93 31.69-105.024 0-185-80.047-185-180 0-21.157 3.583-40.965 10.252-59.44zM655.377 965.03l-137.863.03C519.107 978.173 520 991.484 520 1005c0 9.856-.475 19.602-1.4 29.61l136.377.39.016-2.7c-6.29 2.156-15.595-.074-15.582-6.71-7.07 7.097-22.088-7.92-15-15-10.018.02-10.018-21.218 0-21.2-7.097-7.07 7.92-22.088 15-15-.013-6.768 9.675-8.967 15.96-6.6zm325.168 18.986c-.362 3.553-.545 7.208-.545 10.984 0 58.883 44.645 105 110 105 13.872 0 26.585-2.22 38.178-6.295z"/></symbol><symbol id="E" preserveAspectRatio="none" viewBox="0 0 1300 2000"><path fill="red" d="M333.65 0L148.307 291.516C127.456 294.21 106.74 298.6 85 290c-11.597 15.062-27.312 25.967-42.447 36.918 29.806-5.92 58.786-8.877 87.48-6.213l.182-.29c17.627 1.978 34.916 5.695 51.924 12.107L393.64 0zm308.795 0c34.353 141.48 46.363 258.03 152.867 480 17.86 37.224 38.378 77.41 62.105 121.18l16.316 18.732C988.885 461.534 744.765 342.3 642.922 0zM260 55c-13.228 10.6-26.504 11.206-35 10 5.287 8.604 6.504 20.65 5 35 9.783 8.146 15.717 18.856 20.777 30.15l41.895-65.764C280.597 63.628 268.99 61.928 260 55zm857.5 565a12.5 12.5 0 1 0 0 25 12.5 12.5 0 1 0 0-25zm-707.178 9.86L179 630.05l39.63 70.182c144.49 3.72 264.4 105.003 294.227 239.416l61.385.33C561.638 825.512 415.8 791.534 410.322 629.86zm425.504.022l-145.89.264c2.476 128.5 47.953 162.348 50.02 309.697l44.734.055c7.158-36.616 20.55-70.856 39.242-101.48-30.08-61.535-29.635-137.28 7.744-202.023 1.295-2.242 2.623-4.454 4.146-6.514zM873.63 665l-11.668 25h74.246l-22.627-25zm-19.092 55l-2.12 25h131.875l-21.92-25zm.707 55l7.07 25h103.945l18.03-25zm20.86 55l19.092 25h33.94l17.678-25zm-31.46 122.686a12.5 12.5 0 0 0-1.072 24.961 12.5 12.5 0 1 0 1.957-24.924 12.5 12.5 0 0 0-.885-.037zM650 987.5a12.5 12.5 0 0 0 0 25 12.5 12.5 0 0 0 0-25zm355.303 14.95c3.417 41.512 35.468 72.55 84.697 72.55 4.177 0 8.193-.245 12.06-.723zm-156.135 36.377a12.5 12.5 0 0 0-12.582 14.705 12.5 12.5 0 1 0 24.605-4.418 12.5 12.5 0 0 0-12.023-10.287zm34.365 78.182a12.5 12.5 0 0 0-11.436 17.418 12.5 12.5 0 1 0 22.982-9.836 12.5 12.5 0 0 0-11.547-7.582zm58.17 60.033a12.5 12.5 0 0 0-8.266 21.641 12.5 12.5 0 0 0 17.045-18.287 12.5 12.5 0 0 0-8.779-3.354zm252.178 25.92a12.5 12.5 0 0 0-11.551 17.342 12.5 12.5 0 0 0 23.047-9.686 12.5 12.5 0 0 0-11.496-7.656zm-177.215 11.217a12.5 12.5 0 0 0-3.799 24.478 12.5 12.5 0 1 0 7.133-23.961 12.5 12.5 0 0 0-3.334-.518zm90.916 10.54a12.5 12.5 0 1 0 .83 24.986 12.5 12.5 0 1 0-.83-24.986z"/></symbol><symbol id="F" preserveAspectRatio="none" viewBox="0 0 1300 2000"><path fill="#44f" d="M636.568 188.838A13.432 21.162 0 0 0 623.135 210a13.432 21.162 0 0 0 13.434 21.162A13.432 21.162 0 0 0 650 210a13.432 21.162 0 0 0-13.432-21.162zm-140 1.21a13.432 21.162 0 0 0-13.434 21.162 13.432 21.162 0 0 0 13.434 21.162A13.432 21.162 0 0 0 510 211.209a13.432 21.162 0 0 0-13.432-21.162zm-233.324 319.79a382.34 382.34 0 0 1-10.23 12.75l3.877-4.21 6.117-.084 5.803.113 2.2.086 3.406.143 17.56.98 2.3.113 3.764.14 2.324.076.605.012 4.994.045a19.09 19.09 0 0 1-.43.861 18.47 18.47 0 0 1-.477.842l-.15.234a18.37 18.37 0 0 1-.957 1.4l-.64.797-.7.787-.008.008a21.98 21.98 0 0 1-.758.768l-.834.768-1.89 1.52s-1.42 1.007-2.215 1.5-1.64 1.002-2.553 1.506l-2.96 1.54a94.82 94.82 0 0 1-3.342 1.557c-.008.003-.014.008-.022.012-5.964 2.643-13.783 5.48-24.08 8.813l-13.6 4.254c6.552 3.588 9.914 7.016 11.84 11.12-3.626-.02-7.258.075-10.895.23-10.908.466-21.85 1.468-32.73 1.477l11.787-12.803c-7.98 7.882-16.348 15.38-25.14 22.447l635.588.326-4.824-9.143c-.15 0-.298-.007-.447-.008l-2.77-.03c-.008 0-.017 0-.025 0-.083-.002-.167-.008-.25-.01l-2.967-.098c-.007 0-.014 0-.022 0l-.54-.03-2.545-.145c-14.05-.963-27.956-4.376-41.523-13.574l.713.193-.94-.62c-2.22.21-4.308.837-6.473 1.496 6.554 3.588 9.906 7.015 11.832 11.12-31.867-.177-64.258 8.6-94.926-12.055l-6.775 2.086c6.556 3.59 9.9 7.017 11.836 11.123-31.866-.177-64.258 8.6-94.926-12.053l-5.705 1.76c6.556 3.59 9.908 7.015 11.834 11.12-28.75-.16-57.927 6.962-85.88-6.81 1.44 1.546 2.5 3.15 3.31 4.875-31.866-.177-64.258 8.6-94.926-12.053l-5.705 1.758c6.556 3.59 9.908 7.017 11.834 11.123-31.94-.177-64.403 8.645-95.133-12.187l20.21-7.74c-7.126 2.594-15.91 5.453-26.912 8.805 6.556 3.59 9.908 7.017 11.834 11.123-31.94-.177-64.403 8.645-95.133-12.187l39.31-15.055 7.684 2.373-3.23-1.236c30.73-20.833 63.196-12 95.135-12.187-2.698 5.752-8.197 10.172-21.393 15.57l11.803-4.52 7.684 2.373-3.23-1.236c30.73-20.833 63.196-12 95.135-12.187-1.783 3.8-4.826 7.02-10.46 10.324l7.352 2.27-3.23-1.236c16.325-11.067 33.14-13.766 50.105-13.89 14.97-.1 30.056 1.784 45.027 1.7-2.304 4.912-6.685 8.856-16.117 13.264l6.82 2.11L560 535c30.73-20.833 63.194-12 95.133-12.187-1.783 3.8-4.825 7.02-10.46 10.324l7.363 2.275-3.238-1.24c30.73-20.833 63.194-12 95.133-12.187-1.708 3.64-4.565 6.75-9.754 9.908l.03-.012 7.71 2.383-3.256-1.248c.942-.638 1.887-1.238 2.832-1.822l.893-.54c.7-.426 1.42-.836 2.133-1.232l.814-.455c.933-.505 1.867-.988 2.803-1.445.22-.108.442-.205.662-.31a75.24 75.24 0 0 1 2.27-1.037l.918-.393c.746-.314 1.494-.615 2.242-.902l.684-.266c.947-.353 1.894-.682 2.844-.994l.813-.258a79.01 79.01 0 0 1 2.195-.66l.852-.24a82.32 82.32 0 0 1 2.836-.727l.154-.035a85.94 85.94 0 0 1 2.852-.609l.865-.164 2.295-.4.695-.113 2.936-.406.578-.064 2.4-.256.904-.082 2.35-.178.645-.045.533-.025 3.762-.158 1.316-.033 4.162-.037 5.615.11 1.725.063 3.916.166 1.775.1 11.145.64L809.978 510zm261.742 35.73l-8.023 2.482c.215.118.41.236.62.354zM1055 570c0 11.187 2.782 25.153 6.27 33.605 6.978-.644 14.9-.49 23.76.666l-22.15-22.15c-1.932-1.877-.604-5.152 2.1-5.152a3 3 0 0 1 2.152.91l22.15 22.15c-1.155-8.86-1.3-16.782-.666-23.76-8.453-3.488-22.42-6.27-33.605-6.27zm125 0c-11.187 0-25.153 2.782-33.605 6.27.644 6.98.5 14.907-.666 23.77l22.162-22.162a3 3 0 0 1 2.152-.91c2.694.001 4.022 3.275 2.1 5.152l-22.148 22.148c8.854-1.153 16.772-1.307 23.746-.664 3.488-8.453 6.27-22.42 6.27-33.605zM121.36 618.908C83.23 651.688 42.7 669.22 0 664.05v108.76l1.197 6.754c45.648-40.95 103.78-68.662 168.338-76.604zm963.682 41.82c-8.864 1.156-16.79 1.3-23.77.666-3.488 8.453-6.27 22.42-6.27 33.605 11.187 0 25.153-2.782 33.605-6.27-.643-6.974-.49-14.892.664-23.746l-22.137 22.137c-2.828 2.945-7.187-1.415-4.242-4.242zm64.93 0l22.15 22.15c2.945 2.828-1.415 7.187-4.242 4.242l-22.15-22.15c1.155 8.86 1.3 16.782.666 23.76 8.453 3.488 22.42 6.27 33.605 6.27 0-11.187-2.782-25.153-6.27-33.605-6.978.644-14.9.49-23.76-.666zm-145.996 135.22L923.95 910.625 1300 1190.262V1015.93z"/></symbol><symbol id="G" preserveAspectRatio="none" viewBox="0 0 1300 2000"><path d="M393.637 0L0 618.572v45.486C197.24 687.924 347.448 226.477 407.35 0zm252.58 316.484c-6.28 30.762-13.875 58.08-21.217 63.516-17.9 13.25-60.727 84.764-70 90-5.433 3.068-11.62 4.193-18.062 4.008l1.24 5.992 173.7-.1c-27.65-61.226-48.883-115.042-65.662-163.416zm-487.22 283.434c-10.55 5.538-21.688 10.518-33.31 14.807l-4 4.463 47.604 83.805C182.286 700.91 196.035 700 210 700c2.95 0 5.888.04 8.793.234L179 630.05l656.88-.268c6.402-10.604 13.643-20.26 21.256-29.467zm714.738 19.994c-7.522 8.852-14.367 18.523-20.404 28.98-48.865 84.637-26.738 189.372 47.672 244.758l15.146-19.732c-64.205-47.8-83.715-138.13-40.95-212.203 4.713-8.163 9.972-15.753 15.7-22.768zM512.967 939.855A304.52 304.52 0 0 1 520 1005c0 9.936-.483 19.76-1.422 29.727l66.4.273-.205-70 196.674-.076c.87-8.408 2.04-16.642 3.2-24.844z"/></symbol><symbol id="H" preserveAspectRatio="none" viewBox="0 0 1300 2000"><path stroke="#44f" stroke-linecap="round" stroke-linejoin="round" stroke-width="6" fill="none" d="M1300 984.78L996.277 759.002m-995.08 20.56C56.3 730.138 129.568 700 210 700c171.208 0 310 136.553 310 305 0 57.29-16.055 110.892-43.98 156.687M1.93 780.02l410.83 305.396M513.054 940H784.32M1300 1190.265L923.935 910.712M995.84 758.47L887.238 914.584m116.5-118.733l-79.783 114.688M857.2 600.86L995.817 758.5M886.75 914.2c-84.962-62.772-110.23-182.27-55.07-277.806 7.512-13 16.154-24.95 25.724-35.766m43.6 293.024c-74.4-55.386-96.537-160.12-47.672-244.758 6.038-10.457 12.883-20.13 20.404-28.982m130.465 176.13L1300 1015.93M916.148 873.92c-64.205-47.8-83.715-138.13-40.95-212.203 4.713-8.163 9.972-15.754 15.7-22.768M995.058 760H853.114m95.8-55H857.47m99.564 110h-89.114m-11.03-215h-698.02m682.056-30h-636.08M810 510H262.997m532.063-30H284.483M642.495.16C676.82 141.573 688.844 258.107 795.312 480c17.86 37.224 38.38 77.412 62.106 121.18M835.988 630H179.392m510.7.3c2.322 128.345 47.798 162.203 49.837 309.394M660.1 630.3c2.786 128.345 57.357 162.203 59.805 309.394m-139.813-309.57c3.4 166.062 90.388 181.846 94.73 309.83M540.125 630.107c4.04 161.4 104.662 181.69 109.68 309.838M440.176 630.1c5.673 161.472 146.94 190.92 154.51 309.865M410.168 629.718C415.8 791.533 561.637 825.51 574.25 939.976M517.652 965h263.765M509.15 925h62.516m-67.084-15h62.916m-68.365-15h62.156m-61.45-15h53.32m-52.352-15h42.537m-41.57-15h30.053m-29.084-15h16.242m220.46 90h48.93m-49.563-15h53.465m-54.566-15h59.408m-60.902-15h58.568m-60.4-15h53.88m-56.23-15h49.707m-52.54-15h46.02m-49.254-15h42.732m-264.986 0h1.69m773.085 385.026C1228.267 1248.566 1162.43 1275 1090 1275c-157.915 0-285-125.286-285-280 0-47.532 11.992-92.13 33.2-131.287m377.734 295.368c-34.95 25.694-78.076 40.92-125.934 40.92-118.247 0-210-91.356-210-205 0-26.728 5.074-51.778 14.4-74.884m207.658 154.16c-3.866.477-7.882.724-12.06.724-49.23 0-81.28-31.04-84.697-72.55m122.874 91.256c-11.593 4.075-24.306 6.295-38.178 6.295-65.355 0-110-46.117-110-105a108.26 108.26 0 0 1 .545-10.984m214.543 159.19C1165.452 1163.257 1129.736 1175 1090 1175c-105.024 0-185-80.047-185-180 0-21.157 3.582-40.966 10.25-59.442M657.5 981.893c3.536-24.75 35.355 7.07 10.607 10.607 20-15 20 30 0 15 24.75 3.535-7.07 35.355-10.607 10.607 15 20-30 20-15 0-3.536 24.75-35.355-7.07-10.607-10.607-20 15-20-30 0-15-24.75-3.535 7.07-35.355 10.607-10.607-15-20 30-20 15 0m5 18.107a12.5 12.5 0 1 1-25 0 12.5 12.5 0 1 1 25 0M585 965v70M218.77 700.347l-40.14-70.248m-8.876 73.217l-48.074-84.13M393.636 0L0 618.572m182.286-286.11C132.42 314.002 81.424 317.784 30 330c80.68-86.7 76.097-214.288 96.23-330.02M333.636 0L129.95 320.08M407.504-.495C347.657 225.87 197.332 687.942.002 664.067M437.92-.377c-48.183 224.1-98.68 536.285-312.233 615.1m14.684-311.02l48.89 17.46m-40.185-31.138l48.888 17.46m-39.26-32.593l48.89 17.46m-39.258-32.592l48.89 17.46M191.5 249.464l35.35 12.625m-9.352-21.91l18.98 6.78M41.885 326.784C57.688 315.967 73.403 305.062 85 290c21.74 8.6 42.457 4.2 63.307 1.516m-75.32-25.1c27.732 5.564 57.993 4.792 88.322 3.845M105.35 153.767C131.238 176.184 102.3 226.145 140 245c36.056 18.028 59.083-37.958 35-50-20-10-45 25-20 35 14.13 5.652 20.13-28.64 10-20m-59.846-56.655c33.418 11.492 60.155-41.413 96.812-19.505 34.602 20.68-.183 70.226-23.296 56.412-19.194-11.472-3.156-51.38 18.73-35.696 12.37 8.866-13.3 32.383-11.472 19.194m47.025-15.33c-3.78-20.768-8.86-40.45-27.953-48.42 4.185-27.894 1.423-52.34-15-70 17.356-1.62 34.466-1.97 55-20 27.97 9.93 52.53 3.2 77.423-1.913M250.778 130.15c-5.06-11.294-10.995-22.005-20.778-30.15 1.504-14.35.287-26.396-5-35 8.496 1.206 21.772.6 35-10 8.99 6.928 20.596 8.627 32.67 9.386m101.824-17.5c13.934-4.563 26.2-13.093 38.203-22.3M387.56 71.24c14.724-4.38 27.57-13.257 40.103-22.878m-46.772 45.55c15.64-5.46 29.216-15.853 42.72-26.42m-50.7 52.46c16.64-3.748 30.812-13.406 44.6-23.982m-51.607 46.988c17.686-4.808 32.63-16.18 47.473-27.792m-55.862 53.275c18.785-2.66 34.356-13.013 49.436-24.542m-57.626 49.312c19.367-5.353 37.923-20.228 54.055-33.012m-62.58 57.627c20.312-4.34 39.847-19.82 56.77-33.234M332.495 241.2c21.753-5.31 42.553-23.03 60.13-36.835m-68.21 59.166c21.962-8.66 47.288-25.83 63.013-37.795M314.768 289c22.178-7.638 48.957-25.45 65.936-38.21m-75.948 63.53c22.1-6.185 50.266-24.47 68.662-38.076m-78.402 61.753c23.38-6.632 53.476-26.685 71.603-40.397m-82.384 65.53c22.643-4.32 53.99-24.473 73.97-39.228m-84.628 63.1c23.43-4.18 56.54-25.8 76.566-40.79m-85.34 59.673c24.057-6.308 56.528-20.98 74.84-33.277m-86.67 57.495c24.16-6.01 57.732-21.062 76.538-33.656m-89.718 59.147c21.064-3.607 53.84-17.136 75.832-29.886m-88.627 53.23c22.278-4.36 55.94-18.663 77.112-31.55m-91.73 56.475c22.427-4.477 56.123-18.85 77.147-31.73M199.124 524.8c26.144-6.728 62.615-23.588 79.85-36.518m-96.412 60.66c24.044-5.904 57.633-20.912 76.61-33.53m-95.366 58.145c19.156-4.1 45.85-14.943 66.056-25.885m432.016-353.127c20.527 78.558 49.89 167.39 105.543 285.038m-99.267-366.296L660 225c0 15-18.164 142.538-35 155-17.9 13.25-60.727 84.764-70 90-25.806 14.57-68.62-14.676-75-20-40.525 11.388-131.542-97.08-100-115l-23.233-9.957m299.098-60.225c19.063 61.807 45.052 131.477 84.196 215.326M646.267 316.05c16.73 48.81 37.96 102.625 66.08 163.75m23.077-9.8H707.98m20.586-15h-27.27m20.602-15H694.61m20.728-15h-27.11m20.75-15h-26.994m20.736-15h-26.98m20.957-15H669.89m20.854-15h-26.652m21.127-15h-26.82m21.32-15h-26.68m21.18-15h-26.54m21.342-15h-20.007m14.84-15h-12.79M403.08 403.57c-18.422-18.29-35.836-38.596-51.88-61.652m148.444 138.168c-18.847-12.4-37.352-25.483-55.242-39.8m30.36 39.804c-47.3-32.468-91.933-70.275-129.442-122.353M450.5 480.066c-40.393-29.087-78.456-62.84-111.306-107.038m87.88 107.122c-33.898-25.697-65.875-55.24-94.157-92.185m71.145 92.047c-27.67-22.177-53.863-47.313-77.566-77.436m55.643 77.61c-22.013-18.66-42.964-39.45-62.318-63.437m40.674 63.27c-16.625-14.96-32.567-31.3-47.58-49.48m27 49.678c-11.772-11.23-23.16-23.226-34.075-36.172m13.697 35.966c-7.188-7.3-14.216-14.9-21.063-22.87m1.508 22.886c-3.088-3.326-6.143-6.717-9.163-10.178m82.607-121.222c-5.56-7.233-10.976-14.75-16.237-22.58M525 480c-11.007-6.987-21.924-14.154-32.698-21.608M400 550c-11.508.084-22.758-3.17-33.797-9.17m-21.337 6.983C375.596 568.645 408.06 559.823 440 560c-4.364-9.305-16-15.118-55.824-27.242m59.59-1.052c-11.508-.084-22.758 3.17-33.797 9.17m-21.337-6.983c30.73-20.833 63.195-12.01 95.134-12.188-4.364 9.305-16 15.118-55.824 27.242m60.856.223C477.29 549.256 466.04 546 455 540m-21.337 6.983c30.73 20.833 63.195 12.01 95.134 12.188-4.364-9.305-16-15.118-55.824-27.242m59.59-1.052c-11.508-.084-22.758 3.17-33.797 9.17m-21.337-6.983c30.73-20.833 63.195-12.01 95.134-12.188-4.364 9.305-16 15.118-55.824 27.242m54.632 2.987c-11.508.084-22.758-3.17-33.797-9.17m-21.337 6.983c30.73 20.833 63.195 12.01 95.134 12.188-4.364-9.305-16-15.118-55.824-27.242m59.59-1.052c-11.508-.084-22.758 3.17-33.797 9.17M560 535c30.73-20.833 63.195-12.01 95.134-12.188-4.364 9.305-16 15.118-55.824 27.242m60.856.223c-11.508.084-22.758-3.17-33.797-9.17m-21.337 6.983c30.73 20.833 63.195 12.01 95.134 12.188-4.364-9.305-16-15.118-55.824-27.242m59.59-1.052c-11.508-.084-22.758 3.17-33.797 9.17m-21.337-6.983c30.73-20.833 63.195-12.01 95.134-12.188-4.364 9.305-16 15.118-55.824 27.242m61.926-.103c-11.508.084-22.758-3.17-33.797-9.17m-21.337 6.983c30.73 20.833 63.195 12.01 95.134 12.188-4.364-9.305-16-15.118-55.824-27.242m59.59-1.052C782.29 530.744 771.04 534 760 540m-21.337-6.983c24.743-16.774 50.612-14.322 76.425-12.823m6.442 11.996c-8.333 4.473-21.7 9.226-43.558 15.88M310 550c-11.508.084-22.758-3.17-33.797-9.17m-21.337 6.983C285.596 568.645 318.06 559.823 350 560c-4.364-9.305-16-15.118-55.824-27.242m59.59-1.052c-11.508-.084-22.758 3.17-33.797 9.17m-21.337-6.983c30.73-20.833 63.195-12.01 95.134-12.188-4.364 9.305-16 15.118-55.824 27.242m-81.05-30.57c16.295-.55 32.754 1.71 49.075 1.62-4.364 9.305-16 15.118-55.824 27.242m15.824-17.242c-7.813-.057-15.508 1.425-23.098 4.26m-24.292 25.74c14.51-.01 29.12-1.787 43.624-1.706-2.955-6.3-9.244-11-25.362-17.143m592.725 7.135c-7.888-1.32-15.66-4.163-23.328-8.332m-21.337 6.983c16.734 11.345 33.983 13.895 51.38 13.894m145.15 451.33L930 1020c-2.197 12.537 1.914 18.21 5 25l50.346-16.208m4.7 11.785l-46.358 21.575c1.13 12.678 6.57 17.092 11.312 22.848l43.33-29.894m8.275 10.27l-38.486 35.02c5.78 11.34 12.476 13.403 19.023 16.974l31.678-40.556m15.46 9.974l-23.01 43.89c9.355 8.63 16.35 8.244 23.73 9.322l15.424-46.38m14.7 3.96L1055 1150c11.46 5.538 18.04 3.134 25.415 2.02l2.627-52.328m19.638-.4l5.642 55.094c12.536 2.204 18.212-1.903 25.003-4.985l-12.3-53.516M978.2 982.094l-50.64-7.46c-5.776 11.342-3.5 17.972-2.55 25.367h55.238m-123.224-33.837a12.5 12.5 0 1 1-24.923-1.956 12.5 12.5 0 1 1 24.923 1.956m-25.9 10.506c-26.097 12.998-21.794-41.833 1.956-24.923-12.998-26.097 41.833-21.794 24.923 1.956 26.097-12.998 21.794 41.833-1.956 24.923 12.998 26.097-41.833 21.794-24.923-1.956m30.08 72.444a12.5 12.5 0 0 1-24.606 4.419 12.5 12.5 0 0 1 24.606-4.419m-22.397 16.722c-21.955 19.183-31.676-34.95-4.42-24.606-19.183-21.955 34.95-31.676 24.606-4.42 21.955-19.183 31.676 34.95 4.42 24.606 19.183 21.955-34.95 31.676-24.606 4.42m56.286 58.754a12.5 12.5 0 0 1-22.983 9.837 12.5 12.5 0 0 1 22.983-9.837m-18.065 21.33c-17.08 23.627-38.723-26.936-9.837-22.983-23.627-17.08 26.936-38.723 22.983-9.837 17.08-23.627 38.723 26.936 9.837 22.983 23.627 17.08-26.936 38.723-22.983 9.837m73.467 34.476a12.5 12.5 0 0 1-17.046 18.287 12.5 12.5 0 0 1 17.046-18.287m-7.903 26.8c-6.074 28.515-46.306-8.986-18.287-17.046-28.515-6.074 8.986-46.306 17.046-18.287 6.074-28.515 46.306 8.986 18.287 17.046 28.515 6.074-8.986 46.306-17.046 18.287m77.42 7.49a12.5 12.5 0 1 1-7.134 23.961 12.5 12.5 0 1 1 7.134-23.961m4.847 27.527c7.243 28.24-45.47 12.547-23.96-7.134-28.24 7.243-12.547-45.47 7.133-23.96-7.243-28.24 45.47-12.547 23.96 7.133 28.24-7.243 12.547 45.47-7.133 23.96m82.735-17.507a12.5 12.5 0 1 1 .831 24.986 12.5 12.5 0 1 1-.831-24.986m13.324 24.57c15.823 24.487-39.147 26.316-24.986.83-24.488 15.823-26.316-39.147-.83-24.986-15.823-24.487 39.147-26.316 24.986-.83 24.488-15.823 26.316 39.147.83 24.986m68.106-45.35a12.5 12.5 0 1 1 9.686 23.048 12.5 12.5 0 1 1-9.686-23.048m21.21 18.205c23.514 17.236-27.2 38.545-23.048 9.686-17.236 23.514-38.545-27.2-9.686-23.048-23.514-17.236 27.2-38.545 23.048-9.686 17.236-23.514 38.544 27.2 9.686 23.048m-69.045-118.563L1160 1140c9.205-1.875 13.674-5.58 17.47-9.545M642.958.142c101.868 342.194 345.91 461.412 230.776 619.77M1090 605c-15-90 70-90 55 0 90-15 90 70 0 55 15 90-70 90-55 0-90 15-90-70 0-55m27.5-37.5c0 60 5 65 65 65-60 0-65 5-65 65 0-60-5-65-65-65 60 0 65-5 65-65m12.5 65a12.5 12.5 0 1 1-25 0 12.5 12.5 0 1 1 25 0m-68.718-28.86C1057.788 595.2 1055 581.2 1055 570c11.2 0 25.2 2.788 33.64 6.282m57.72 0C1154.8 572.788 1168.8 570 1180 570c0 11.2-2.788 25.2-6.282 33.64m-112.435 57.72C1057.788 669.8 1055 683.8 1055 695c11.2 0 25.2-2.788 33.64-6.282m57.72 0C1154.8 692.212 1168.8 695 1180 695c0-11.2-2.788-25.2-6.282-33.64m-93 160.423c1-6.686 3.44-15.94 9.28-21.783 10-10 70-40 80-40s20 15 30 15 15 25-5 25-35-10-35-10c1.742 21.62-12.85 27.104-25 35m18.114-12.77c4.683 23.14 1.313 41.743-5.947 58.157M1200 805c75-25 81.847 11.93 10 25-55 10.005-59.523-8.492-10-25m-1.8 26.716c70.636-18.93 77.553 15.292 8.552 25.4-52.822 7.73-56.804-12.458-8.552-25.4m1.097 28.595c71.88-9.683 74.714 25.17 5.475 26.3-53.004.864-54.578-19.685-5.475-26.3m.6-85.086c3.316-3.587 7.774-7.17 13.406-10.444 45.03-26.18 52.14 14.277 7.592 31.666-9.145 3.57-16.142 4.234-20.894 2.95M1185 765c-18.207-39.306 35-80 50-125 8.442 53.825 13.58 106.05-50 125m0 0c17.822-26.387 30.237-56.503 45-85m-104.14 46.04c13.272 3.425 26.206 12.94 39.14 33.96-62.532 6.437-112.583 3.272-130-25 25.777 2.578 48.897-8.134 70.73-10.21M1165 760c-24.02-10.25-51.6-16.772-85-17.184m-413.482-608.5c-18.88-6.563-35.786-16.163-50.088-31.494-19.19-20.57-34.207-52.086-41.325-102.76m92.18 123.928c-16.65-6.09-31.148-14.702-43.543-27.99-17.305-18.55-31.528-47.45-38.528-95.88m82.87 113.502c-14.338-5.566-26.503-13.16-37.03-24.443C615.6 72.623 602.196 46.31 595.33.175m67.196 88.792c-6.295-3.645-11.794-8.015-16.845-13.43C633.874 62.88 622.123 41.64 615.573.255M665.3 101.62c-10.353-4.768-19.137-10.896-26.942-19.263-13.61-14.59-26.2-38.348-32.918-82.137m54.002 74.55c-2.266-1.844-4.403-3.852-6.46-6.056C642.96 57.96 632.065 39.196 625.703.27M511.87.155c-9.11 52.945-27.57 93.81-54.968 123.18-16.3 17.484-34.99 29.93-54.087 38.912M501.725.145c-8.96 50.73-26.6 89.007-52.135 116.37-13.337 14.297-28.342 25.033-43.924 33.185M491.572.122c-8.794 48.478-25.622 84.195-49.294 109.57-10.328 11.072-21.714 19.88-33.646 26.94M481.414.08c-8.612 46.192-24.607 79.376-46.448 102.8-7.23 7.75-15.006 14.317-23.16 19.91m11.372-52.896c11.807-16.758 21.41-39.17 27.668-69.743M471.25.02c-8.414 43.87-23.563 74.554-43.598 96.032-4.04 4.33-8.26 8.265-12.634 11.848M461.06.045c-8.456 42.736-23.376 71.372-42.434 90.983m236.6-35.342c-7.09-9.922-14.48-26.147-19.42-55.545M401.712 21.587C414.795 16.883 426.445 8.747 437.84 0M420 180c37.87-22.798 75.447-48.05 120-15v5c-60-35-70-10-120 10m170-10l-.003 5.472C610 155 635.344 158.686 660 165c-37.17-18.904-54.466-8.26-70 5m0 0s-5 15-5 45c0 25 20 85 20 95 0 13.032-12.277 22.123-20 20-4.82-1.326-20 20-20 20m-30-55c-10 0-30 35-5 35 40-15 60-5 0 0m-25 35l-5 10 10-5-5-5m95 0l-5 10-5-5 10-5m-90 5c10 0 20-5 30-5s15 5 20 5 10-5 15-5 10 5 15 5m-60 25c13.5 3.754 21.865 20.5 45 0m-45-200c-52.197-18.082-74.36 28.53-100 30 40 0 35.054 8.73 50 10 38.304 3.254 50.908-26.427 42.668-42.342M660 200c-35-30-55 20-75 15 29.24 6.592 50 30 75-5m502.673 545.563c-4.946-21.883-9.234-43.76-16.584-63.76M1185 765c-6.227-23.877-10.324-48.418-17.233-71.138m38.08 193.09c-6.148 4.44-17.954 6.43-27.298 7.323M582.36 665h56.467m-50.994 35h55.96m-46.46 35h54.646m-40.238 35h51.1m-32.557 35h43.852m-24.943 35h34.96m-20.457 35h27.432m-19.234 35h23.13M584.55 682.5h54.275c9.762.138 17.75-7.737 17.75-17.5s-7.987-17.638-17.75-17.5H582.36m9.666 70h51.768c9.762.138 17.75-7.737 17.75-17.5s-7.987-17.638-17.75-17.5h-55.96m16.066 70h48.08c9.762.138 17.75-7.737 17.75-17.5s-7.987-17.638-17.75-17.5h-54.646m23.35 70h42.148c9.762.138 17.75-7.737 17.75-17.5s-7.987-17.638-17.75-17.5h-51.1m28.246 70h34.14c9.762.138 17.75-7.737 17.75-17.5s-7.987-17.638-17.75-17.5h-43.852m26.914 70h26.955c9.762.138 17.75-7.737 17.75-17.5s-7.987-17.638-17.75-17.5h-34.96m19.373 70h22.563c9.762.138 17.75-7.737 17.75-17.5s-7.987-17.638-17.75-17.5h-27.432m10.426 70h20.902c9.762.138 17.75-7.737 17.75-17.5s-7.987-17.638-17.75-17.5h-23.13M467.6 665h75.16m-65.22 35h71.77m-53.875 35h65.54m-39.814 35h56.842m-26.58 35h47.914m-19.48 35h40.912m-19.52 35h35.867m-23.322 35h32.81M541.008 647.5H467.6c-9.762-.138-17.75 7.737-17.75 17.5s7.987 17.638 17.75 17.5h75.16m2.69 0H477.54c-9.762-.138-17.75 7.737-17.75 17.5s7.987 17.638 17.75 17.5h71.77m5.273 0h-59.148c-9.762-.138-17.75 7.737-17.75 17.5s7.987 17.638 17.75 17.5h65.54m7.816 0h-47.63c-9.762-.138-17.75 7.737-17.75 17.5s7.987 17.638 17.75 17.5h56.842m10.363 0h-36.943c-9.762-.138-17.75 7.737-17.75 17.5s7.987 17.638 17.75 17.5h47.914m11.053 0h-30.533c-9.762-.138-17.75 7.737-17.75 17.5s7.987 17.638 17.75 17.5h40.912m9.02 0h-28.54c-9.762-.138-17.75 7.737-17.75 17.5s7.987 17.638 17.75 17.5h35.867m5.516 0h-28.838c-9.762-.138-17.75 7.737-17.75 17.5s7.987 17.638 17.75 17.5h32.81"/></symbol><symbol id="I" preserveAspectRatio="none" viewBox="0 0 1300 2000"><path stroke="#44f" stroke-linecap="round" stroke-linejoin="round" stroke-width="3" fill="none" d="M1184.474 767.204c.35 15.415 12.042 16.45 23.907 17.267m-26.93 27.27c3.624 9.318 6.246 17.206 2.045 21.086m-2.698 4.06c3.624 9.318 6.246 17.206 2.045 21.086m-2.045 6.656c3.624 9.318 6.246 17.206 2.045 21.086m30.874-75.44c1.874 2.948 2.833 6.142 2.593 9.658m3.7 17.47c1.457 3.175 1.974 6.47 1.26 9.92m-2.77 20.86c1.483 3.163 2.027 6.453 1.34 9.9M1220 775c1.874 2.948 2.833 6.142 2.593 9.658M435 205c29.854-29.76 89.915-20.22 87.766-12.15M480 250c21.575 13.39 40-25 45-40m65 5c17.56-51.28 55-40 60-25m-142.61.373c4.636 4.58 7.61 11.67 7.61 19.627 0 13.807-8.954 25-20 25s-20-11.193-20-25c0-4.33.88-8.4 2.43-11.95m176.057-2.61c.976 2.945 1.514 6.174 1.514 9.56 0 13.807-8.954 25-20 25s-20-11.193-20-25c0-2.248.237-4.427.683-6.5"/><use xlink:href="#C" height="90" width="90" transform="matrix(.707107 -.687308 .707107 .687308 953.36039 901)"/><use xlink:href="#C" height="90" width="90" transform="matrix(.707107 -.687308 .707107 .687308 1061.36039 978)"/><use xlink:href="#C" height="90" width="90" transform="matrix(.707107 -.687308 .707107 .687308 1165.36039 1060)"/></symbol><rect width="239" height="335" x="-119.5" y="-167.5" rx="12" fill="#fff" stroke="#000"/><use width="164.8" height="260.8" x="-82.4" y="-130.4" xlink:href="#D"/><use transform="rotate(180)" width="164.8" height="260.8" x="-82.4" y="-130.4" xlink:href="#D"/><use width="164.8" height="260.8" x="-82.4" y="-130.4" xlink:href="#E"/><use transform="rotate(180)" width="164.8" height="260.8" x="-82.4" y="-130.4" xlink:href="#E"/><use width="164.8" height="260.8" x="-82.4" y="-130.4" xlink:href="#F"/><use transform="rotate(180)" width="164.8" height="260.8" x="-82.4" y="-130.4" xlink:href="#F"/><use width="164.8" height="260.8" x="-82.4" y="-130.4" xlink:href="#G"/><use transform="rotate(180)" width="164.8" height="260.8" x="-82.4" y="-130.4" xlink:href="#G"/><use width="164.8" height="260.8" x="-82.4" y="-130.4" xlink:href="#H"/><use transform="rotate(180)" width="164.8" height="260.8" x="-82.4" y="-130.4" xlink:href="#H"/><use width="164.8" height="260.8" x="-82.4" y="-130.4" xlink:href="#I"/><use transform="rotate(180)" width="164.8" height="260.8" x="-82.4" y="-130.4" xlink:href="#I"/><use xlink:href="#B" height="32" width="32" x="-114.4" y="-156"/><use xlink:href="#C" height="26.769" width="26.769" x="-111.784" y="-119"/><use xlink:href="#C" height="55.68" width="55.68" x="30.915" y="-132.16"/><g transform="rotate(180)"><use xlink:href="#B" height="32" width="32" x="-114.4" y="-156"/><use xlink:href="#C" height="26.769" width="26.769" x="-111.784" y="-119"/><use xlink:href="#C" height="55.68" width="55.68" x="30.915" y="-132.16"/></g><use xlink:href="#A" stroke="#44f" fill="none"/></svg>