<svg xmlns="http://www.w3.org/2000/svg" xmlns:xlink="http://www.w3.org/1999/xlink" width="240" height="336" viewBox="-120 -168 240 336" preserveAspectRatio="none"><defs><path id="A" d="M-82.4-130.4H82.4v260.8H-82.4z"/></defs><symbol id="B" viewBox="-500 -500 1000 1000" preserveAspectRatio="xMinYMid"><path d="M50-460h200m-100 0v710a100 100 0 0 1-400 0v-30" stroke="#000" stroke-width="80" stroke-linecap="square" stroke-miterlimit="1.5" fill="none"/></symbol><symbol id="C" viewBox="-600 -600 1200 1200" preserveAspectRatio="xMinYMid"><path d="M30 150c5 235 55 250 100 350h-260c45-100 95-115 100-350a10 10 0 0 0-20 0 210 210 0 1 1-74-201 10 10 0 0 0 14-14 230 230 0 1 1 220 0 10 10 0 0 0 14 14 210 210 0 1 1-74 201 10 10 0 0 0-20 0z"/></symbol><symbol id="D" preserveAspectRatio="none" viewBox="0 0 1300 2000"><path fill="#fc4" d="M0 2.5V1660l110-110-.018-126.234c105.296-87.528 180.255-182.163 233.8-282.25l-5.742 10.635c139.34-34.523 228.763-151.94 326.875-251.22 98.724-99.9 202.374-184.19 377.62-174.982l21.885-26.592-12.71-.965 3.467.182-.38-234.674c-6.48-3.04-12.977-5.812-19.758-8.47l.096 242.092 2.074.11c-159.047-6.045-265.297 63.26-356.08 148.363 22.003-20.658 44.856-40.363 69.137-58.227l-.137-180.627-41.71 22.193c-.636 3.926-2.025 7.877-3.418 10.664 5 10 10.6 34.355-20 20 15 30-10 25-20 20-9.483 4.74-32.455 9.483-22.014-15.623l29.81-16.1L585 695l-5.035-2.8.258 256.52c-29.078 30.45-58.047 60.053-88.42 86.33 11.695-10.162 23.153-20.85 34.416-31.988-30.273-24.218-62.124-47.482-101.275-67.924-6.813 24.55-14.315 48.867-22.598 73.062l67.293 44.893.184.16c-34.985 27.602-72.212 50.298-113.846 64.63 95.578-192 116.2-403.263 123.262-622.42-17.428-7.747-13.268-13.828-27.006-26.035l.117-1.984C431.014 428.206 390 348.455 390 325v-70c0-10-5-30-5-40s10-80 10-80l-10 5c-21.326 60.667-18.827 125.69-24.732 189.61C360 305 310 301.73 310 345c0 37.916 49.696 36.786 71.482 5.906-8.81 15.273-2.76 42.1 1.586 64.87C380.073 463.28 354.797 460.347 345 460c-6.795-.24-10.502-3.35-11.604-7.604C337.372 463.072 362.42 459.76 365 435c3.774-36.204-60-20-55 25 1.226 11.03 7.257 19.357 15.37 24.953 0 0 34.63 25.047 69.63 15.047 5.77-1.648 10.586-4.383 14.627-7.61l41.86-5.875C441.17 824.334 402.388 1133.537 110 1387.2l-.022 15.73-.12-838.238c-4.802-9.885-4.813-24.568-.006-44.078v-.54C97.595 526.44 97.524 513.807 95 505c0 0-8.695 11.232-18.695 26.232-1.838 2.756-4.227 4.45-6.81 5.268l1.877.395c6.157 2.24 9.932 5.263 9.932 8.6 0 6.904-16.254 12.5-36.305 12.5s-36.305-5.596-36.305-12.5 16.254-12.5 36.305-12.5c3.53 0 6.943.173 10.17.496l1.066.225c-5.922-4.692-8.72-13.73-1.236-23.705 15-20 16.464-26.464 20-30 4.147-4.147 18.62-4.842 34.848-2.11L109.803 160H140zm284.047 43.188C216.752 54.57 232.1 147.182 175 190c93.31 27.993 143.087-35.436 161.516-80.607zM640 125c63.11 116.225 35 199.88 35 305 0 39.694 23.8 56.98 46.227 54.82 43.937-3.506 110.424-43.307 166.375-66.15C905 414.024 920 397.306 920 370c0-10-5-40-39.27-35.008 5.046-66.1 26.24-132.378-15.73-209.992zm249.127 293.31l-4.094 2.037.08 296.918c6.692-2.108 13.377-4.054 20.03-5.89l-.412-290.592-15.605-2.473zM340 435c-2.607 2.94-4.41 5.635-5.553 8.07 1.17-2.778 3.047-5.564 5.553-8.07zm-69.898 67.754C242.496 503 219.375 516.875 195 525c-5.603-.617-10.988-1.7-20 5-1.704 40.187-7.5 76.003-15 110 .007 9.98 6.643 13.344 20 10 25.063 17.576 57.075 51.196 86.773 69.31C271.76 699.112 264.29 672.697 245 645c12.993 4.354 31.508-2.847 50-10-10.938-17.69-23.686-30.315-44.385-37.537C273.77 597.43 289.967 588.45 300 575c-10.786-14.06-23.418-26.34-45-30 18.668-6.676 33.492-17.007 35-40-6.92-1.633-13.528-2.303-19.898-2.246zM39.143 560A35.858 12.5 0 0 1 75 572.5 35.858 12.5 0 0 1 39.143 585a35.858 12.5 0 0 1-35.859-12.5A35.858 12.5 0 0 1 39.143 560zm-1.885 27.5A32.742 12.5 0 0 1 70 600a32.742 12.5 0 0 1-32.742 12.5A32.742 12.5 0 0 1 4.516 600a32.742 12.5 0 0 1 32.742-12.5zm2.742 25A35 12.5 0 0 1 75 625a35 12.5 0 0 1-35 12.5A35 12.5 0 0 1 5 625a35 12.5 0 0 1 35-12.5zm610.322 108.72c5.068.03 10.928 1.904 14.678 3.78 10-5 35-10 20 20 30-15 25 10 20 20 5 10 10.6 34.355-20 20 15 30-10 25-20 20-10 5-35 10-20-20-30 15-25-10-20-20-5-10-10-35 20-20-9.375-18.75-3.125-23.828 5.322-23.78zm0 125c5.068.03 10.928 1.904 14.678 3.78 3.933-1.966 10.187-3.932 15.414-3.77l-14.746 14.53 2.87-2.764-14.053 13.783-33.262 32.77c.06-5.04 1.918-10.832 3.777-14.55-5-10-10-35 20-20-9.375-18.75-3.125-23.828 5.322-23.78z"/></symbol><symbol id="E" preserveAspectRatio="none" viewBox="0 0 1300 2000"><path fill="red" d="M246.47 0L370 150c180.66-37.466 351.908-15.7 520 10L1023.334 0H246.47zm638.316 420.898L570 580l-91.814-52.258-2.654 58.81L580 645l305.053-159.79-.053-.81-.213-63.502zm190.268 52.945l.266 213.346c33.76-38.278 71.635-75.15 114.617-110.734l.1-16.514c-34.8-32.654-68.884-62.03-114.973-86.098zm-754.408 25.67l-31.623 9.654-4.38 13.883 38.002-11.602-2-11.936zm3.47 35.115l-54.023 3.178-10.244 7.115 10.877 4.87 54.576-3.21-1.186-11.953zm560.87.486l-114.758 61.47-.314 177.2c34.85-23.34 72.832-43.004 115.188-56.514l-.115-182.156zM297.21 571.627c-.59 2.677-2.48 10.377-3.662 11.793l31.78 1.986.008-12.02-28.125-1.758zm-3.662 11.793l-.64-.04c.168.375.388.34.64.04zm-35.928 11.47c-6.03.1 10.896 11.59 14.592 14.352l52.04 6.123.475-12.027-61.166-7.195c-2.92-.894-4.825-1.27-5.94-1.252zm33.008 33.078c12.43 3.658-11.98 11.314-6.178 11.207l36.916 5.545 1.47-11.914-32.207-4.838zm181.434 8.52c-5.895 81.123-15.634 160.54-32.645 237.537 45.21 18.345 84.338 42.848 120.355 70.484l.012-262.834-87.723-45.187zM160 640c-16.58 5.56-33.037 6.415-49.69 2.5l-.154 344.1c88.828-105.753 107.278-197.596 126.27-289.582C216.343 680.4 196.64 661.67 180 650c-13.357 3.344-19.993-.02-20-10zm524.895 2.074l-29.963 15.21A19.91 19.91 0 0 0 665 660c10.345 0 18.857-7.855 19.895-17.926zm-437.264 5.832l6.865 13.52 63.545 12.096.896-12.043-71.307-13.574zm14.98 30.313l3.56 13.258 47.11 10.033 2.355-10.035-53.027-13.256zM665 745a20 20 0 1 0 0 40 20 20 0 1 0 0-40z"/></symbol><symbol id="F" preserveAspectRatio="none" viewBox="0 0 1300 2000"><path fill="#44f" d="M599.754 695H730.1l-.205 15h-129.72zm0 130h103.86l-15.19 15h-87.85zm305.34-350.896l-.1 41.316 8.055 12.08-8.11 12.168-.1 41.61 35.854-53.78zm129.52-4.564l-38.64 57.96L1035 586.037l-.137-41.668-11.246-16.87 11.135-16.7zm-107.162-44.822l40.88 61.32 29.14-43.71-23.674-5.953-5.467 8.2-7.668-11.506zm40.88 144.246L929.31 627.5l39.025 58.537 39.023-58.537-19.512-29.27zm0 41.463l11.38 17.074-11.38 17.074L956.95 627.5zm-63.348 100.99c6.917-1.744 13.964-3.413 21.508-4.78l-21.22-31.594zm111.295-14.15L1035 668.943l.136 28.572-18.854-.25zm-660.34 420.554c17.996-36.037 33.178-72.46 46.355-109.484l67.413 44.868c-34.97 27.774-72.264 50.526-113.768 64.617zm642.893-335.53c-12.064.257-24.52.617-35.75 2.1l-6.264.822 5.176 36.404 5.926-.55 6.382-.564 7.837-13.064-9.424.77-1.71-12.023c6.353-.703 12.818-1.26 19.418-1.62l25.792-38.153-6.244.03c-35.37.173-67.446 4.464-97.2 11.936l-6.443 1.617 15.004 47.36c-22.248 6.063-42.873 14.283-62.326 24.422l-6.484-10.062c10.007-5.255 20.196-10.13 30.734-14.184l6.453-2.482-16.92-33.457-5.346 2.197c-29.992 12.327-57.417 28.353-83.215 47.127l-5.23 3.805 30.283 38.77c-19.26 14.385-37.967 30.7-56.785 48.676l-8.586-9.092c9.248-8.733 18.515-17.2 27.775-25.19l4.79-4.133-24.512-27.72-4.666 3.934c-23.766 20.027-46.627 42.187-69.652 65.48l-6.053 5.275 36.04 35.895c-19.627 19.928-39.408 41.356-60.193 63.215l-9.14-8.662 15.857-16.63 4.268-4.566-9.135-8.533-4.266 4.566-20.012 21-4.496 4.54 27.387 25.96 4.3-4.496 68.615-72.064 4.412-4.428-35.53-35.387c20.304-20.457 40.44-39.89 61.05-57.586l8.035 9.088c-9.373 8.22-18.736 16.745-28.057 25.664l-4.486 4.293 25.793 27.316 4.547-4.398c21.802-21.086 43.16-39.847 65.184-55.8l5.25-3.803-30.105-38.54c21.998-15.54 45.136-28.915 70.02-39.63l5.494 10.865c-10.953 4.536-21.63 9.585-31.916 15.238l-5.875 3.23 20.05 31.104 5.096-2.77c21.955-11.94 45.27-21.298 70.96-27.72l6.45-1.61-14.88-46.98c25.176-5.853 52.104-9.35 81.473-9.92l.03 5.027M-10 1670l120-120M340 490c3.26 72.69.133 146.002-10 220l-63.003-16.796c1.77 9.448 1.717 18.248-.224 26.106-10.168-6.202-20.607-14.22-30.633-22.53-18.706 92.222-37.156 184.066-125.984 289.528l.005 225.474C248.84 1085.098 364.64 805.808 350.936 497.82M428.258 260a10 20 0 0 1-10 20 10 20 0 0 1-10-20 10 20 0 0 1 10-20 10 20 0 0 1 10 20zm140.87 2.032a10 20 0 0 1-10 20 10 20 0 0 1-10-20 10 20 0 0 1 10-20 10 20 0 0 1 10 20z"/></symbol><symbol id="G" preserveAspectRatio="none" viewBox="0 0 1300 2000"><path d="M585 695l-112.856-59.18 1.72-27.602L580 670l305.04-160.324-.052 25.052zM439.55 873.4c-2.2 11.53-4.91 23.275-7.84 34.77 43.85 19.867 81.12 46.098 116.906 73.455l31.527-32.624-.117-256.78-20.258-10.25.006 262.53c-36.017-27.637-75.146-52.14-120.222-71.1zm310.717-85.64l-.604-180.377 20.09-10.554.412 176.78-19.9 14.152zm324.92-313.856c-6.3-3.433-13.043-6.744-20.117-9.9l-.19 234.525 9.37 1.01c3.682-3.877 7.134-7.87 10.693-11.942zM330 710c10.133-73.998 13.26-147.31 10-220l-18.95 7.817 1.597 13.63c6.125 64.647.077 137.84-10.633 193.87zM110.427 966h16.215l9.03-12h-25.04zm-.205-30H148.8l6.2-12h-45.6zm.082-60h72.578l4.926-12h-78.084zm.123 30h56.65l6.158-12h-63.013zm-.123-60h85.714l4.516-12h-90.23zm.58-30H195a6 6 0 0 0 6.085-6 6 6 0 0 0-6.085-6h-84.696zm-.87-33H175c4.057.057 4.057-6.057 0-6h-64.986zm0-30H155c4.057.057 4.057-6.057 0-6h-45.567zm145.617-40.064l-1.3 6.197c-17.76 84.66-40.19 174.694-121 274.336L132 995.12v163.473l10.682-13.32C219.1 1049.98 284.627 903.428 313.834 734.11l.934-5.404zm9.094 14.846L301 737.455c-27.925 157.173-87.59 294.068-157 386.414V999.31c79.262-98.45 103.144-188.695 120.725-271.527zm489.61-174.92l-25.055-53.688-59.85 30.324 25.747 55.172M712.5 530c6.904 0 12.5 5.596 12.5 12.5s-5.596 12.5-12.5 12.5-12.5-5.596-12.5-12.5 5.596-12.5 12.5-12.5zm57.568-51.64l25.16 53.913 59.387-31.313-24.425-52.34zm42.432-.86c6.904 0 12.5 5.596 12.5 12.5s-5.596 12.5-12.5 12.5S800 496.904 800 490s5.596-12.5 12.5-12.5zm-231.775 97.267l26.03 55.778 59.723-30.594-26.014-55.745zM622.5 572.5c6.904 0 12.5 5.596 12.5 12.5s-5.596 12.5-12.5 12.5S610 591.904 610 585s5.596-12.5 12.5-12.5zm-111.572-25.996l-25.942 45.228 58.425 32.917 25.905-45.162zm26.793 31.3c3.974 5.645 2.62 13.443-3.026 17.417s-13.443 2.62-17.417-3.026-2.62-13.443 3.026-17.417 13.443-2.62 17.417 3.026zM906.793 139.3l-13.317-2.036c-105.3-16.1-212.93-30.902-324.064-30.36-66.68.324-134.623 6.172-204.082 20.576l-12.12 2.405L370 150c180.66-37.466 351.908-15.7 520 10l150-180"/></symbol><symbol id="H" preserveAspectRatio="none" viewBox="0 0 1300 2000"><path stroke="#44f" stroke-linecap="round" stroke-linejoin="round" stroke-width="6" fill="none" d="M921.558 121.325l-25.06-3.83c-105.512-16.132-214.303-31.175-327.25-30.61-67.768.34-137.033 6.298-207.98 21.012l-22.184 4.6M425 415c5 25 5 75-30 85s-70-15-70-15m-215-6.552V160M0 1660l110-110V565.476m-.048 858.315C424.08 1162.7 468.218 839.167 479.238 495.464M355.727 1118.1c243.05-83.732 335.925-451.87 708.246-418.67m-726.175 453.23c139.583-35.032 229.006-152.447 327.118-251.727 98.724-99.9 202.375-184.19 377.154-174.997M452.012 469.223C442.44 813.792 407.376 1129.21 110 1387.2m965-913.267v213.595m-20-223.447v234.332m-20-242.953v241.937M905 420.772V711.33m-20-293.637V717.28m3.35-299.038c165.336 24.8 232.033 75.754 301.702 142.32m-778.944 424.7c28.188 14.13 52.952 32.587 77.586 51.208m-63.62-101.327c39.02 20.444 70.87 43.71 100.957 67.668m-94.368-94.825c43.893 20.07 81.163 46.3 117.275 73.608M439.2 873.673c45.425 18.698 84.554 43.2 120.342 70.782M475.757 586.08L580 645l305.052-159.79m-411.36 122.777L580 670l305.077-159.802M472.06 636.49L585 695l299.973-159.663M560 682.157v262.407m20-252.538v257.328m20-262.407V927.44m130-309.623v185.676m20-196.246v180.717m20-191.082v176.713M478.285 527.592L570 580l319.196-161.726M685 765a20 20 0 1 0-40 0 20 20 0 1 0 40 0m-40-20c-15-30 10-25 20-20 10-5 35-10 20 20 30-15 25 10 20 20 5 10 10.6 34.355-20 20 15 30-10 25-20 20-10 5-35 10-20-20-30 15-25-10-20-20-5-10-10-35 20-20m-23.778 159.55c.06-5.04 1.92-10.832 3.778-14.55-5-10-10-35 20-20-15-30 10-25 20-20 3.933-1.966 10.186-3.933 15.413-3.77m-25.48-188.945C657.89 659.01 661.33 660 665 660c10.345 0 18.856-7.855 19.894-17.926m23.577-13.042c-.612 4.025-2.04 8.11-3.47 10.968 5 10 10.6 34.355-20 20 15 30-10 25-20 20-9.483 4.74-32.455 9.483-22.013-15.623M402.493 1008.33l67.145 44.763m435.725-620.048l129.765 194.647m.233-.732l-47.642 71.463m-81.9-64.693l45.682 68.523m68.494-252.244L905.982 621.026m-.433 53.762l21.318 31.977m89.298-9.553l18.834-28.25m-596.075 331.712l12.606-23.725c12.105-20.216 39.57-3.424 28.547 17.13l-14.46 24.478m14.46-24.478c12.105-20.216 37.365-2.357 26.34 18.198l-12.107 20.494m-83.2-47.52l14.08-26.502c12.105-20.216 37.365-2.356 26.34 18.198M70 487.07V200H0m70 366.092v-11.905m0 64.245v-40.025M0 1600l70-70V631.363M0 160h140L0 2.5M0 130h80L0 50m315 845a7.5 7.5 0 1 1-15 0 7.5 7.5 0 1 1 15 0m0 0c30-40 80 5 90-10m-90 15c9.92 49.006 72.41 27.16 75 45m-72.033-48.796C350.854 878.304 400 925 405 885m-15 60c5-30-66.33-20.364-72.418-46.242C342.27 923.3 385 930 395 920m0 0c4.03-20.98-63.4-33.217-80-20m17.448-74.874a7.46 7.5 0 0 1-7.022 7.916 7.46 7.5 0 0 1-7.874-7.059 7.46 7.5 0 0 1 7.022-7.916 7.46 7.5 0 0 1 7.874 7.059m0 0c27.52-41.65 79.73.42 88.81-15.126m-88.525 20.118c12.637 48.36 73.452 22.978 77.04 40.64m-74.308-44.6c31.642-19.75 83.102 24.062 85.794-16.158m-11.486 60.76c3.26-30.237-67.03-16.54-74.545-42.03 25.912 23.08 68.727 27.34 78.09 16.784m0 0c2.81-21.176-64.85-29.54-80.583-15.396m14.37-81.813a7.124 7.5 0 0 1-6.53 8.077 7.124 7.5 0 0 1-7.673-6.874 7.124 7.5 0 0 1 6.53-8.077 7.124 7.5 0 0 1 7.673 6.874m0 0c25.358-42.277 76.13-1.433 84.456-17.186m-84.075 22.17c13.127 48.052 70.63 21.264 74.443 38.84m-71.923-42.862c29.776-20.48 79.868 22.124 81.555-18.148m-9.63 61c2.45-30.304-64.357-14.978-72.093-40.284 25.246 22.473 66.216 25.734 74.922 14.964m0 0c2.218-21.236-62.563-28.025-77.273-13.52m11.128-73.53a6.852 7.5 0 0 1-5.624 8.638 6.852 7.5 0 0 1-7.892-6.155 6.852 7.5 0 0 1 5.624-8.638 6.852 7.5 0 0 1 7.892 6.155m0 0c20.982-44.414 72.84-8.31 79.582-24.76m-78.826 29.69c16.35 46.688 69.35 14.8 74.384 31.965m-72.285-36.2c26.926-23.096 78.27 14.82 76.726-25.455m-4.442 61.655c-.032-30.414-62.847-9.104-72.245-33.617 25.956 20.107 65.47 19.65 72.97 8.134m0 0c.46-21.358-62.15-22.264-75.108-6.482m7.302-82.28a6.762 7.5 0 0 1-5.549 8.638 6.762 7.5 0 0 1-7.788-6.155 6.762 7.5 0 0 1 5.549-8.638 6.762 7.5 0 0 1 7.788 6.155m0 0c20.705-44.414 71.877-8.31 78.53-24.76m-77.783 29.69c16.134 46.688 68.434 14.8 73.4 31.965m-71.33-36.2c26.57-23.096 77.235 14.82 75.712-25.455m-4.383 61.655c-.03-30.414-62.016-9.104-71.3-33.617 25.613 20.107 64.605 19.65 72.004 8.134m0 0c.453-21.358-61.33-22.264-74.115-6.482m-.617-70.65a6.924 7.5 0 0 1-5.482 8.789 6.924 7.5 0 0 1-8.114-5.938 6.924 7.5 0 0 1 5.482-8.789 6.924 7.5 0 0 1 8.114 5.938m0 0c20.172-44.973 73.387-10.296 79.82-26.923m-78.94 31.832c17.6 46.227 70.395 12.902 75.874 29.925m-73.85-34.216c26.667-23.823 79.405 12.68 76.918-27.54m-3.068 61.757c-.732-30.403-63.693-7.386-73.75-31.635 26.682 19.392 66.587 17.86 73.896 6.14m0 0c-.028-21.364-63.293-20.56-76.02-4.43m-75.003 422.4a7.73 8.033 0 0 1-8.614 6.994 7.73 8.033 0 0 1-6.73-8.952 7.73 8.033 0 0 1 8.614-6.994 7.73 8.033 0 0 1 6.73 8.952m0 0c35.714-38.606 81.208 15.762 93.322 1.12m-93.95 4.194c4 53.393 70.658 38.328 71.067 57.632m-67.555-61.28c35.89-14.734 80.297 41.325 90.438-.546m-22.883 61.826c8.884-31.24-65.294-30.3-68.27-58.615 22.173 29.303 65.04 42.016 76.525 32.69m0 0c6.76-21.777-60.682-43.59-79.323-31.708m-29.437 64.735a7.673 8.013 0 0 1-8.611 6.894 7.673 8.013 0 0 1-6.601-8.994 7.673 8.013 0 0 1 8.611-6.894 7.673 8.013 0 0 1 6.601 8.994m0 0c35.786-38.17 80.465 16.492 92.617 2.003m-93.287 3.293c3.494 53.295 69.797 38.9 70.034 58.16m-66.516-61.765c35.752-14.356 79.338 41.98 89.77.313m-23.253 61.452c9.09-31.076-64.543-30.852-67.25-59.113 21.752 29.44 64.188 42.526 75.67 33.333m0 0c6.9-21.658-59.85-44.056-78.455-32.38m-36.445 62.887a7.898 8.152 0 0 1-9.769 5.591 7.898 8.152 0 0 1-5.417-10.083 7.898 8.152 0 0 1 9.769-5.591 7.898 8.152 0 0 1 5.417 10.082m0 0c41.975-32.813 79.54 29.18 94.014 16.5m-95.465-11.275c-4.174 54.177 65.425 50.06 62.873 69.478m-58.768-72.556c38.486-8.856 74.694 54.653 91.36 14.353m-32.592 58.203c13.765-29.85-61.243-41.14-59.898-70.002 17.877 33.026 59.188 52.832 72.213 45.377m0 0c10.167-20.715-54.55-53.693-75.187-44.852m-46.546 63.696a8.084 8.122 0 0 1-10.525 4.484 8.084 8.122 0 0 1-4.463-10.574 8.084 8.122 0 0 1 10.525-4.484 8.084 8.122 0 0 1 4.463 10.574m0 0c46.14-27.976 77.917 37.5 93.97 26.5m-95.99-21.48c-9.89 53.225 61.377 56.663 56.757 75.625m-52.258-78.23c40.094-4.617 70.332 62.213 91.492 24.087m-39.234 54.144c17.12-28.087-58.05-47.373-53.675-75.823 14.756 34.65 54.74 58.735 68.774 52.755m0 0c12.506-19.426-49.93-59.087-71.856-52.557m-49.47 52.58a8.414 8.715 0 0 1-11.224 4.094 8.414 8.715 0 0 1-3.952-11.625 8.414 8.715 0 0 1 11.224-4.093 8.414 8.715 0 0 1 3.952 11.625m0 0c49.745-26.853 78.52 45.407 95.91 34.7m-98.332-29.47c-13.72 56.334 60.095 64.816 54.068 84.812m-49.226-87.3c41.952-2.244 69.04 71.364 93.5 31.96m-44.264 55.342c19.603-28.926-57.24-54.644-50.853-84.816 13.087 38.103 53.066 66.588 68.032 61.13m0 0c14.25-19.96-48.045-66.64-71.247-61.125m-13.256-21.474c138.54-127.436 254.35-406.802 240.608-714.842M128.5 1363.393c8.198-9.592-2.314-28.257-18.5-43.393m0 40c7.738 5.04 13.61 4.707 18.5 3.393M110 1385c5.306-6.524 4.355-12.857 1.003-19.872M110 1320c17.69 18.562 31.778 36.964 48.47 14.665m-47.767-38.87c22.17 15.196 35.716 44.344 47.538 38.425m-47.928-347.382c88.672-105.988 107.12-197.833 126.14-289.79M15 200c0 24.267 20 45.733 20 70s-20 45.733-20 70m2.257 294.906C22.49 653.366 35 670.807 35 690c0 24.267-20 45.733-20 70m1.2-150.676c-.448 2.082-.786 4.178-.988 6.294M15 340c0 24.267 20 45.733 20 70s-20 45.733-20 70c0 18.667 11.834 35.676 17.296 53.577M15 760c0 24.267 20 45.733 20 70s-20 45.733-20 70 20 45.733 20 70-20 45.733-20 70 20 45.733 20 70-20 45.733-20 70 20 45.733 20 70-20 45.733-20 70 20 45.733 20 70-20 45.733-20 70 20 45.733 20 70c0 17.992-10.994 34.445-16.68 51.64M30 200c0 24.267 20 45.733 20 70s-20 45.733-20 70m3.147 297.832C38.78 655.22 50 671.824 50 690c0 24.267-20 45.733-20 70m0-420c0 24.267 20 45.733 20 70s-20 45.733-20 70c0 18.21 11.26 34.842 16.883 52.264M30 760c0 24.267 20 45.733 20 70s-20 45.733-20 70 20 45.733 20 70-20 45.733-20 70 20 45.733 20 70-20 45.733-20 70 20 45.733 20 70-20 45.733-20 70 20 45.733 20 70-20 45.733-20 70 20 45.733 20 70c0 8.743-2.596 17.123-5.918 25.4M45 200c0 24.267 20 45.733 20 70s-20 45.733-20 70m2.774 296.652C53.267 654.47 65 671.413 65 690c0 24.267-20 45.733-20 70m0-420c0 24.267 20 45.733 20 70s-20 45.733-20 70c0 11.03 4.13 21.48 8.638 31.876M45 760c0 24.267 20 45.733 20 70s-20 45.733-20 70 20 45.733 20 70-20 45.733-20 70 20 45.733 20 70-20 45.733-20 70 20 45.733 20 70-20 45.733-20 70 20 45.733 20 70-20 45.733-20 70 20 45.733 20 70c0 1.502-.077 2.993-.22 4.475M0 115h64.04M0 100h48.85M0 85h35.304M0 70h20.525M140 580c-29.95-.016-40.027-19.94-30-60-12.41 6.55-12.465-6.157-15-15 0 0-8.695 11.232-18.695 26.232S40 530 55 510s16.464-26.464 20-30c5-5 25-5 45 0s55 50 55 50c-1.704 40.187-7.5 76.003-15 110-16.58 5.56-33.036 6.416-49.377 2.902m-39.25-106.008c6.157 2.24 9.933 5.263 9.933 8.59 0 6.904-16.254 12.5-36.305 12.5s-36.305-5.596-36.305-12.5 16.254-12.5 36.305-12.5c3.53 0 6.943.173 10.17.497M75 572.5A35.858 12.5 0 0 1 39.142 585a35.858 12.5 0 0 1-35.858-12.5A35.858 12.5 0 0 1 39.142 560 35.858 12.5 0 0 1 75 572.5M70 600a32.742 12.5 0 0 1-32.742 12.5A32.742 12.5 0 0 1 4.516 600a32.742 12.5 0 0 1 32.742-12.5A32.742 12.5 0 0 1 70 600m5 25a35 12.5 0 0 1-35 12.5A35 12.5 0 0 1 5 625a35 12.5 0 0 1 35-12.5A35 12.5 0 0 1 75 625m100-95c9.012-6.7 14.397-5.617 20-5 6.602 53.925-5.186 88.42-15 125-13.357 3.344-19.993-.02-20-10m35-115c30-10 58.1-28.71 95-20-.465 7.087-2.195 12.97-4.912 17.916-6.1 11.098-17.174 17.466-30.088 22.084 21.582 3.66 34.214 15.94 45 30-10.033 13.45-26.23 22.43-49.384 22.463 20.7 7.222 33.446 19.848 44.384 37.537-18.492 7.153-37.007 14.354-50 10 19.29 27.697 26.76 54.112 21.773 74.3-29.698-18.115-61.7-51.734-86.773-69.3m88.59-147.135c-19.968 23.702-42.55 42.82-71.627 50.534l.314 2.014c27.15 1.82 53.022 6.85 72.722 18.898-24.548 10.717-49.297 15.727-75 12.402l-.156 2.753c23.305 9.3 50.114 12.986 65.146 35.534-27.967 3.853-49.066-2.197-70.957-7.73l-1.28 4.91c23.946 23.1 43.122 50.723 57.776 82.638M409.668 492.69l41.922-6.162m-111.067 16.6c2.79-.3 10.017-1.362 19.685-2.832M288.8 511.33l47.735-19.9 3.637 2.778C343.136 565.525 339.937 637.433 330 710l-62.98-16.795m54.034-195.468l1.594 13.71c6.125 64.647.077 137.84-10.71 193.962m331.864-573.234C701.96 244.697 675 327.057 675 430c0 75 85 70 85 5 0-50-60-45.31-60-5 0 30 45 30 45 10 0-10-5-15-10-20m-65.66-286.734C726.4 245.602 693.068 334.167 700 430m-4.8-294.927c48.26 98.566 16.053 183.258 20.658 266.387m5.503-263.865c45.155 96.517 4.146 179.666 15.03 261.376m11.356-258.233c41.294 93.23-4.038 170.597 9.712 252.602m16.506-249.798c37.352 87.708-1.183 161.463 6.958 238.512m19.498-235.006c33.1 81.8 1.072 151.58 4.616 223.483m22.07-219.178c28.605 75.47 2.72 140.8 2.65 207.295m23.587-203.943c24.95 69.45 4.407 130.388 1.698 191.728m24.67-187.792c21.365 63.523 5.33 120.003 1.027 176.354m-143.53 144.64C760.06 482.813 785 465.21 785 430c0-35.78-30.724-43.555-48.2-30.312m24.594 75.296C783.006 475.603 805 458.064 805 425c0-35.174-29.693-43.284-47.303-30.966m31.792 70.333C808.17 460.965 825 443.922 825 415c0-38.86-36.24-44.685-52.4-26.43m36.808 65.8C828.128 451.01 845 433.96 845 405c0-39.224-36.924-44.792-52.84-25.91m37.676 65.212C848.378 440.754 865 423.744 865 395c0-39-36.504-44.727-52.566-26.23m33.9 70.213C864.27 434.82 880 417.962 880 390c0-34.53-28.614-42.977-46.32-31.623m34.026 70.265C885.06 423.957 900 407.252 900 380c0-39.087-36.667-44.753-52.673-26.106M887.6 418.67C905 414.024 920 397.306 920 370c0-38.9-36.337-44.7-52.455-26.357M393.488 145.734C390.692 165.756 385 207.455 385 215c0 10 5 30 5 40v70c0 30 67.094 152.094 75 160 15 15 63.177 34.874 85 30 15.768-3.522 96.225-30.183 127.66-63.115M382.576 147.228C363.268 207.665 366.103 272.15 360 335c-1.733 17.844-25.582 26.283-30 0m60-5c-10 50-80 60-80 15 0-43.27 50-40 50-15m21.642 21.232c-15 25 12.013 83.236 3.358 103.768-9.923 23.54-55 30-60 0-2.6-15.596 15-20 15-20m42.947-20c-2.874 48.28-28.15 45.347-37.947 45-14.99-.53-15-15-5-25m65.624-61.475c4.03 25.8.44 70.852-.624 81.475-5 50-90 50-95 5s58.774-61.204 55-25c-3.544 33.995-49.455 27.568-25 0m140-5c5 10 20 20 40 10m-55-25l15-5c5 0 5 5 15 5s10-5 20-5 5 5 15 5 15-5 15-5M390 220c11.318-14.134 56.376-43.415 80-10-1.4-1.496 1.277 6.54 0 5-25.008-30.136-66.37-7.783-80 5m240 10c-5.438-6.8-22.697-30.54-45-35-25-5-40 0-59.073 15.4 1.4-1.496-1.412 6.416 0 5 34.343-34.454 95.16-8.365 104.073 14.6m-160-15c18.673 51.658 0 74.505 0 100 0 15-6.095 35.06-5 45 1.595 14.47 15 15 20 25m45-10c-10-10-55-5-20 0s35-7.93 35-15c0-5-5-15-15-15m-5-80s15-20 35-20 45 25 80 25c-30 0-50.01 9.323-70 10-20.5.695-35-15-45-15m-135-10c15-10 25-15 40-10s45 20 45 20m0 0c-20 5-40 15-55 15-14.142 0-30-20-30-20M246.47 0L370 150c180.66-37.466 351.908-15.7 520 10L1023.334 0m-116.54 139.3l-13.317-2.036c-105.3-16.1-212.93-30.902-324.064-30.36-66.68.324-134.623 6.172-204.082 20.576l-12.23 2.537m-69.053-84.328C216.752 54.57 232.1 147.182 175 190c93.31 27.993 143.088-35.437 161.516-80.608M175 190c59.99 9.23 94.425-79.494 134.753-112.88M310 130c3.622-15.522-.587-31.178-6.695-46.867M255 85c18.364-7.903 33.498-4.9 48.503-1.48M240 120c13.663-9.296 27.374-11.325 41.122-10.975M290 155c3.267-4.48-3.393-36.023-7.714-46.574M225 155c11.905-7.533 22.973-11.69 33.555-13.886M260 175c.7-8.732.615-23.442-1.616-34.617M210 170c7.27-1.286 13.646-.613 19.568 1.056M230 185c4.485-6.254 3.934-11.496 1.8-16.426"/></symbol><symbol id="I" preserveAspectRatio="none" viewBox="0 0 1300 2000"><path stroke="#44f" stroke-linecap="round" stroke-linejoin="round" stroke-width="3" fill="none" d="M524.942 513.716L570 540l126.33-61.127M61.132 535.04c-6.953 8.523-6.132 13.187-1.56 20.414m-2.136 7.295c-6.953 8.523-6.132 13.187-1.56 20.414m-1.52 7.5c-6.953 8.523-6.132 13.187-1.56 20.414m8.538 4.422c-6.953 8.523-6.132 13.187-1.56 20.414M35 540c-3.99 5.328-1.136 7.235 0 10m-.82 17.915c-3.99 5.328-1.136 7.235 0 10m-2.668 18.12c-3.99 5.328-1.136 7.235 0 10m-.205 14.63c-3.99 5.328-1.136 7.235 0 10M60 505c5 5-5 25-5 25m340-280c15-20 25-20 40-20s40 20 40 20m60 5c15-20 27.855-25.694 45-25 12.01.486 30 15 30 15m-179.85.272c2.982 3.655 4.85 8.9 4.85 14.728 0 11.046-6.716 20-15 20s-15-8.954-15-20c0-6.2 2.11-11.724 5.422-15.392m162.6 5.46C574.28 252.994 575 256.385 575 260c0 11.046-6.716 20-15 20s-15.87-6.052-15.87-17.097c0-6.372 2.235-12.048 5.717-15.71M610 510l78.91-37.135M615 500l69.82-32.856M480 460c10.058-6.05 25 0 35 5"/><use xlink:href="#C" height="75" width="75" transform="matrix(1 0 0 .972 467 692.036)"/><use xlink:href="#C" height="75" width="75" transform="matrix(1 0 0 .972 467 808.036)"/><use xlink:href="#C" height="75" width="75" transform="matrix(1 0 0 .972 789 607.036)"/></symbol><rect width="239" height="335" x="-119.5" y="-167.5" rx="12" fill="#fff" stroke="#000"/><use width="164.8" height="260.8" x="-82.4" y="-130.4" xlink:href="#D"/><use transform="rotate(180)" width="164.8" height="260.8" x="-82.4" y="-130.4" xlink:href="#D"/><use width="164.8" height="260.8" x="-82.4" y="-130.4" xlink:href="#E"/><use transform="rotate(180)" width="164.8" height="260.8" x="-82.4" y="-130.4" xlink:href="#E"/><use width="164.8" height="260.8" x="-82.4" y="-130.4" xlink:href="#F"/><use transform="rotate(180)" width="164.8" height="260.8" x="-82.4" y="-130.4" xlink:href="#F"/><use width="164.8" height="260.8" x="-82.4" y="-130.4" xlink:href="#G"/><use transform="rotate(180)" width="164.8" height="260.8" x="-82.4" y="-130.4" xlink:href="#G"/><use width="164.8" height="260.8" x="-82.4" y="-130.4" xlink:href="#H"/><use transform="rotate(180)" width="164.8" height="260.8" x="-82.4" y="-130.4" xlink:href="#H"/><use width="164.8" height="260.8" x="-82.4" y="-130.4" xlink:href="#I"/><use transform="rotate(180)" width="164.8" height="260.8" x="-82.4" y="-130.4" xlink:href="#I"/><use xlink:href="#B" height="32" width="32" x="-114.4" y="-156"/><use xlink:href="#C" height="26.769" width="26.769" x="-111.784" y="-119"/><use xlink:href="#C" height="55.68" width="55.68" x="30.915" y="-132.16"/><g transform="rotate(180)"><use xlink:href="#B" height="32" width="32" x="-114.4" y="-156"/><use xlink:href="#C" height="26.769" width="26.769" x="-111.784" y="-119"/><use xlink:href="#C" height="55.68" width="55.68" x="30.915" y="-132.16"/></g><use xlink:href="#A" stroke="#44f" fill="none"/></svg>