<svg xmlns="http://www.w3.org/2000/svg" xmlns:xlink="http://www.w3.org/1999/xlink" width="240" height="336" viewBox="-120 -168 240 336" preserveAspectRatio="none"><defs><path id="A" d="M-82.4-130.4H82.4v260.8H-82.4z"/></defs><symbol id="B" viewBox="-500 -500 1000 1000" preserveAspectRatio="xMinYMid"><path d="M-285-460h200m-100 0v920m-100 0h200M85-460h200m-100 20l-355 595M85 460h200m-100-20L-10-70" stroke="red" stroke-width="80" stroke-linecap="square" stroke-miterlimit="1.5" fill="none"/></symbol><symbol id="C" viewBox="-600 -600 1200 1200" preserveAspectRatio="xMinYMid"><path d="M0-300c0-100 100-200 200-200s200 100 200 250C400 0 0 400 0 500 0 400-400 0-400-250c0-150 100-250 200-250S0-400 0-300z" fill="red"/></symbol><symbol id="D" preserveAspectRatio="none" viewBox="0 0 1300 2000"><path fill="#fc4" d="M320.354 0c60.636 94.994 91.193 153.283 115.787 219.86 186.786-16.687 339.962-8.712 490.734 14.793C947.967 174.51 969.46 124.313 1065.727 0zM1090 78.564c-15 .062-30 8.936-30 31.436 0 20 14.992 80.996-5 95 26.055 40.33 25.883 70.236 3.9 91.48 5.286-7.545 3.077-21.75-12.342-23.123C1021.667 271.14 1025 320 1060 320c65.192 0 25-130 25-215 5 20 35 20 35-5 0-12.748-15-21.497-30-21.436zM1230 185c-.633 0-1.266.045-1.897.135.27 16.532-3.98 32.956-13.363 49.256 3.8 6.73 9.38 10.61 15.26 10.61 11.046 0 20-13.43 20-30s-8.954-30-20-30zm20 30a22.5 25 0 0 0 22.5 25 22.5 25 0 0 0 22.5-25 22.5 25 0 0 0-22.5-25 22.5 25 0 0 0-22.5 25zm-49.88 119.84a25.003 25.003 0 0 0-11.299 2.799c-35.528 17.764-52.113 17.764-87.64 0a25.003 25.003 0 1 0-22.359 44.723c28.37 14.185 56.31 19.305 84.367 15.393l-12.596 56.838c-3.547 16.006-9.343 32.204-17.385 48.61-8.742-14.062-15.645-27.995-18.7-43.143l-11.72-58.13-33.434 48.975c-18.028 26.407-34.973 40.588-50.74 47.77-3.208 5.616-19.317 22-28.877 29.156l-3.338.31.69 1.535c-.208.132-.44.295-.637.412.274.006.548.002.822.006C1045.5 660.94 1178.456 800.588 1300 904.242v-40.715c-111.405-98.016-228-224.936-280.81-338.262 24.2-8.04 47.876-26.675 70.81-60.266 6.67 33.087 26.02 58.938 45 85 19.905-29.886 33.326-59.885 40-90 28.146 55 76.6 70.8 125 86.7v-2.834c-15.518-10.11-29.132-22.122-39.064-37.816-26.513-11.63-48.277-27.34-63.68-57.44l-26.66-52.096c13.47-2.64 26.977-7.35 40.584-14.154a25.003 25.003 0 0 0-11.061-47.521zM721.127 538.338l-24.783 24.313c-3.44 6.355-9.802 12.743-17.63 17.307L510.768 744.115a1384.97 1384.97 0 0 1 22.34 80.496c15.82-16.563 15.728-42.643-.223-59.05-1.295-1.33-2.677-2.578-3.875-3.986 1.37 1.234 2.58 2.653 3.875 3.986 16.362 16.83 43.27 17.206 60.098.844s17.208-43.27.846-60.098c-1.366-1.405-2.83-2.713-4.086-4.2 1.45 1.297 2.72 2.795 4.086 4.2 16.362 16.83 43.27 17.208 60.098.846s17.208-43.27.846-60.098c-1.437-1.478-2.98-2.85-4.295-4.418 1.528 1.357 2.857 2.94 4.295 4.418 16.362 16.83 43.27 17.208 60.098.846s17.208-43.27.846-60.1c-1.507-1.55-3.13-2.983-4.504-4.633 1.607 1.417 2.995 3.08 4.504 4.633 9.838 10.12 24.057 14.694 37.986 11.795a1300.94 1300.94 0 0 1 10.508-47.437c-15.57-3.203-30.436-7.746-43.082-13.822zm-6.258 109.564c-16.83 16.362-17.208 43.27-.846 60.098 1.12 1.15 2.303 2.24 3.35 3.445-1.178-1.08-2.23-2.294-3.35-3.445-16.362-16.83-43.27-17.208-60.098-.846s-17.208 43.27-.846 60.098c1.2 1.224 2.453 2.376 3.56 3.662-1.255-1.143-2.37-2.438-3.56-3.662-16.362-16.83-43.27-17.208-60.098-.846s-17.208 43.27-.846 60.1c1.26 1.296 2.6 2.5 3.77 3.877-1.332-1.205-2.51-2.58-3.77-3.877-15.97-16.427-42.08-17.232-59.025-1.88a1372.76 1372.76 0 0 1 17.916 84.4L734.19 729.773c3.062-31.157 7.286-62.468 12.72-93.918-11.875-.592-23.502 3.747-32.04 12.047zm241.977-69.66l-12.512 22.57a258.88 258.88 0 0 1 26.76 30.346c40.312 53.644 61.406 120.996 61.406 192.37s-21.093 138.726-61.406 192.37c-23.73 31.58-55.716 59.03-93.498 76.514l45.037 3.34c26.85-17.853 49.978-40.256 68.447-64.834 43.835-58.332 66.42-131.092 66.42-207.39s-22.586-149.06-66.42-207.39a283.65 283.65 0 0 0-34.234-37.896zm-204.822 29.742l-3.842 20.584 3.842-20.584zm150.88 83.053c-43.345 110.77-55.473 213.145-43.953 308.992 14.996-9.728 28.7-22.9 40.195-38.2 27.3-36.33 43.355-85.002 43.355-138.303 0-50.7-14.527-97.213-39.598-132.5zM1130 741.3V1030h105l15-17.574V944.78l-43.512-53.4 33.828-37.89-43.32-41.572L1160 853.36V774zM570.734 925l-14.627 14.322 4.344 30.227L570 960l20 20 20-20 20 20 20-20 20 20 20-20 20 20 20-20 2.236 2.236L729.818 925zM1160 929.314l39.627 48.63-39.627 39.63zM1090 1010c-21.1 28.415-40.88 57.832-74.31 76.92a15.002 15.002 0 0 0-23.164 16.074c9.715 38.86 9.7 53.517.322 81.62a15.002 15.002 0 0 0 25.971 14.207L1090 1270c3.764-21.35 4.836-44.933-20-90 29.406-9.92 53.114-26.17 70-50-16.654-6.66-39.96-13.326-70-20 22.693-36.974 25.104-69.34 20-100zm-30.66 72.21c-2.4 5.17-5.098 10.453-8.516 16.02l-16.504 26.89 30.8 6.844c12.616 2.803 23.682 5.594 33.682 8.346-10.233 7.616-22.108 13.686-35.992 18.37l-25.506 8.606 12.992 23.574c3.17 5.75 5.774 10.884 8.055 15.67l-23.62-23.62a22.4 22.4 0 0 0-8.715-5.549c4.89-21.744 4.288-42.223-1.607-69.652.823-.36 1.634-.774 2.428-1.242 12.46-7.113 23.026-15.42 32.504-24.258zM1300 1287.623c-63.402 53.97-136.274 97.473-213.895 136.4l22.383 22.426c68.06-34.6 132.96-73.233 191.512-119.96z"/></symbol><symbol id="E" preserveAspectRatio="none" viewBox="0 0 1300 2000"><path fill="red" d="M667.13 60.605c-7.782 7.603-17.327 14.042-28.16 18.557-4.972 22.292-14.542 41.39-27.148 56.947-57.83.426-118.197 3.3-181.547 8.973-6.182-6.936-11.54-14.35-15.54-21.9-8.068-15.23-11.816-28.962-15.193-40.678-14.958-3.78-28.374-11.3-40.654-20.223 29.074 48.754 48.962 87.64 65.6 127.744 195.866-17.4 355.945-8.977 513.148 15.52 14.906-38.016 34.875-77.296 79.13-139.66-17.867 9.1-40.336 16.83-70.18 22.223-2.84 26.208-11.877 48.573-27.486 65.252a94.42 94.42 0 0 1-3.928 3.955l-203.953-14.262 203.133 13.8c-65.998-9.5-133.04-16.083-203-18.97-9.36-15.97-15.92-34.72-18.256-55.77-10.278-5.666-19.065-13.105-25.975-21.5zM1090 345a15 15 0 1 0 0 30 15 15 0 1 0 0-30zm110 0a15 15 0 1 0 0 30 15 15 0 1 0 0-30zm-55 15a15 15 0 1 0 0 30 15 15 0 1 0 0-30zM747 548l-17.08 16.857c.85 1.97 2.09 3.843 3.72 5.52 6.944 7.142 17.604 7.29 24.746.348a19.02 19.02 0 0 0 2.074-2.377l3.398-16.23zm-199.945 4.58c-13.256 11.37-29.45 19.387-46.06 24.488-15.724 4.83-32.378 7.76-49.045 9.994 18.804 42.608 35.625 86.046 50.39 130.656l111.373-108.9c-23.62-8.164-47.028-26.43-66.66-56.23zm-44.713 165.14l-.016.016.188.496-.172-.512zm190.193-116.287l-23.44 22.947c.845 1.872 2.044 3.65 3.6 5.25 6.944 7.142 17.604 7.29 24.746.348s7.293-17.604.35-24.746c-1.586-1.632-3.368-2.898-5.256-3.8zm50.36 59.363c-3.8.37-7.524 2.043-10.598 5.03-7.142 6.944-7.29 17.604-.348 24.746.74.762 2.534 1.95 4.074 2.916zm-111.02.027l-23.6 23.092c.836 1.768 1.99 3.447 3.47 4.967 6.944 7.142 17.604 7.293 24.746.35s7.29-17.606.348-24.748c-1.508-1.55-3.19-2.77-4.973-3.66zM1300 690.012l-170.836.102c51.65 61.762 111.97 121.6 170.836 173.402zm-616.2 29.96c-4.426-.062-8.876 1.636-12.447 5.107-7.142 6.944-7.29 17.604-.348 24.746 1.232 1.268 2.582 2.316 4.008 3.143l24.055-23.55c-.777-1.4-1.767-2.752-2.97-3.988-3.472-3.57-7.873-5.395-12.3-5.457zm-112.594.246l-23.73 23.232c.824 1.665 1.934 3.247 3.332 4.686 6.944 7.142 17.604 7.29 24.746.348s7.29-17.604.348-24.746c-1.43-1.47-3.014-2.643-4.695-3.52zm331.207 15.656c-12.14 3.718-20.203 15.212-20.203 28.17 0 16.57 13.016 30 29.072 30 2.23 0 4.454-.265 6.766.13-.613.858-1.366.828-2.12.828-16.056 0-29.072 13.43-29.072 30s13.016 30 29.072 30c.615 0 1.23-.02 1.7 1.23-2.547.64-5.02.31-7.504.31-16.056 0-29.072 13.43-29.072 30 0 10.74 5.554 20.47 14.24 25.85-3.236-1.212-6.662-1.857-10.133-1.857-16.056 0-29.072 13.43-29.072 30 0 9.245 4.13 17.972 11.52 23.424C900.532 930.564 920 878.85 920 823.527c0-30.75-6.036-60.83-17.586-87.654zm-171.395 32.18L571.2 924.543l158.576.34c-2.723-51.57-2.412-103.855 1.242-156.83zm429.223 5.037l-.242 78.85 36.947-41.236c-12.348-13.43-24.516-25.885-36.705-37.613zm-537.385 6.133c-4.426-.062-8.876 1.637-12.447 5.11-7.142 6.944-7.293 17.604-.35 24.746 1.31 1.35 2.757 2.447 4.285 3.297l23.928-23.432a18.56 18.56 0 0 0-3.117-4.264c-3.472-3.57-7.873-5.395-12.3-5.457zm-60.943 59.254c-4.426-.062-8.876 1.636-12.447 5.107-7.142 6.944-7.293 17.604-.35 24.746 1.39 1.43 2.928 2.58 4.557 3.447l23.8-23.303c-.816-1.613-1.903-3.145-3.262-4.543-3.472-3.57-7.873-5.393-12.3-5.455zm678.402 15.016l-33.828 37.89 43.512 53.4v-82.447zm29.5 25.582l.313 150.926H1300V904.26l-30.193-25.186zM1160 929.314v88.26l39.627-39.63zm90 83.578L1232.318 1030h17.787zm50 17.12l-207.918.24c.98 24.864-4.38 50.904-22.082 79.748 30.04 6.674 53.346 13.34 70 20-4.213 5.945-8.85 11.418-14.428 16.93 68.457-14.52 130.475-70.54 174.428-108.885zm-1.736 164.57l-48.064 35.9 33.17 43.13-28.812 19.615-13.892-15.89 3.092-2.227 7.924 9.96 23.426-14.978-29.79-36.447-48.12 34.863 30.887 43.734-29.664 18.227-13.135-16.522 3.19-2.08 7.45 10.32 24.1-13.867-28.08-37.834-49.14 32.764 28.688 45.504-30.644 16.443-12.147-17.26 3.31-1.89 6.834 10.738 24.87-12.436-25.82-39.412-51.275 30.016 28.875 45.8-30.644 16.443-12.147-17.26 3.31-1.89 6.834 10.738 24.87-12.436-25.75-39.305-49.443 27.47 8 9.275 37.508-20.838 12.248 18.695-3.13 1.564-7.166-11.262-24.69 14.11 25.853 36.74 51.356-27.557-29.125-46.2 30.725-17.984 12.178 18.588-3.13 1.564-7.166-11.262-24.69 14.11 25.853 36.74 51.356-27.557-29.312-46.496 29.914-19.947 13.244 17.846-3.033 1.744-7.812-10.822-23.824 15.527 27.957 35.166 49.623-30.5-31.426-44.5 29.352-21.266 14.092 17.242-2.95 1.885-8.31-10.447-23.072 16.625 29.568 33.82 47.48-32.322v-1.254l-32.87-42.74 29.11-21.744 3.758 4.598v-18.96zm.76 25.103l-23.072 16.625 24.05 27.508v-18.233l-6.336-7.248 3.092-2.227 3.244 4.078v-19.275z"/></symbol><symbol id="F" preserveAspectRatio="none" viewBox="0 0 1300 2000"><path fill="#44f" d="M603.152 277.127a10 16.642 0 0 0-10 16.641 10 16.642 0 0 0 10 16.643 10 16.642 0 0 0 10-16.643 10 16.642 0 0 0-10-16.641zM480 278.357A10 16.642 0 0 0 470 295a10 16.642 0 0 0 10 16.643A10 16.642 0 0 0 490 295a10 16.642 0 0 0-10-16.643zm720.082 21.563C1184.405 311.755 1162.23 320 1145 320c-16.3 0-32.597-8.856-44.22-17.086l1.633 35.3c34.293 17.19 50.878 17.2 86.406-.574a24.89 24.89 0 0 1 11.238-2.795zM530 420c-10 10-24.607 13.168-25.584 14.406L500 440c8.827-11.184 57.87-5.19 88.768-8.246L580 430c-10 0-20-10-20-10s-6.717 10-16.717 10C530 430 530 420 530 420zm58.768 11.754L605 435l-5-5c-3.328.787-7.126 1.348-11.232 1.754zM1175 460c-6.674 30.115-20.095 60.114-40 90-18.98-26.062-38.33-51.913-45-85-22.902 33.546-46.544 52.183-70.8 60.172 24.822 53.374 63.838 109.79 109.855 164.81l170.943.018V546.7c-48.4-15.9-96.854-31.7-125-86.7zm-188.602 68.14c-5.778 9.182-11.348 18.312-16.768 27.652 15.487 14.084 29.388 29.297 41.436 45.328 47.354 63.015 71.434 141.175 71.434 222.408s-24.078 159.394-71.434 222.4c-3.338 4.443-6.82 8.822-10.373 13.275 2.7.03 5.286-.14 7.934-.033 1.484.06 2.865.277 4.27.455 22.057-16.13 38.06-39 57.03-64.54L1090 1010c1.05 6.306 1.782 12.684 2.055 19.58l37.807.42.66-289.316c-60.507-69.222-113.196-142.19-144.123-212.545zm-71.094 26.615a5 5 0 0 0-1.953 9.525 5 5 0 0 0 4.238-9.057 5 5 0 0 0-2.285-.469zm-118.52 8.67a5 5 0 0 0-.941 9.918 5 5 0 1 0 1.791-9.838 5 5 0 0 0-.85-.08zm96.46 3.1a5 5 0 0 0-1.953 9.525 5 5 0 0 0 4.238-9.057 5 5 0 0 0-2.285-.469zM826.3 568.8a5 5 0 0 0-.943 9.918 5 5 0 0 0 1.791-9.838 5 5 0 0 0-.848-.08zm-15.7 7.23l-20.592 57.234 12.525-12.965 1.334 20.574 6.215-19.957 9.44 17.727zm109.818 3.193a5 5 0 0 0-1.953 9.527 5 5 0 1 0 4.238-9.059 5 5 0 0 0-2.285-.469zm-15.54 3.172l-34.482 50.11 15.414-9.35-3.945 20.234 11.1-17.717 4.615 19.543zM737.12 609.82a53.15 53.15 0 0 1-.234 16.674c3.906-.564 7.86-.69 11.787-.38l2.93-15.787c-4.823.493-9.7.323-14.482-.506zm92.875 51.4a5 5 0 0 0-1.045 9.854 5 5 0 1 0 2.387-9.711 5 5 0 0 0-1.342-.143zm-153.818 7.844a53.15 53.15 0 0 1-.234 16.674 53.15 53.15 0 0 1 16.674.234 53.15 53.15 0 0 1 .234-16.674 53.15 53.15 0 0 1-16.674-.234zm134.48 7.998a5 5 0 0 0-1.045 9.854 5 5 0 1 0 2.387-9.711 5 5 0 0 0-1.342-.143zm29.133 7.16a5 5 0 0 0-1.045 9.854 5 5 0 1 0 2.387-9.711 5 5 0 0 0-1.342-.143zm-15.61 6.273l-24.033 55.88 13.29-12.18.082 20.615 7.416-19.54 8.344 18.266zm-208.943 37.82A53.15 53.15 0 0 1 615 745a53.15 53.15 0 0 1 16.674.234 53.15 53.15 0 0 1 .234-16.674 53.15 53.15 0 0 1-16.674-.234zM763.2 780.182a5 5 0 0 0-.832 9.959 5 5 0 1 0 1.186-9.93 5 5 0 0 0-.354-.029zm110.396 2.29c-10.96 44.137-16.844 86.61-18.26 127.848l.193.508c4.283-4.47 9.52-7.995 15.38-10.203-1.534-4.455-2.36-9.207-2.36-14.086 0-13.505 6.336-25.728 16.19-33.564-6.465-7.527-10.387-17.353-10.387-27.973 0-10.72 3.992-20.632 10.566-28.186-4.72-3.988-8.568-9.01-11.324-14.344zm-319.307 5.11c.8 5.533.72 11.164-.234 16.672a53.15 53.15 0 0 1 16.674.234c-.8-5.533-.72-11.164.234-16.672a53.15 53.15 0 0 1-16.674-.234zm275.484 2.725a5 5 0 0 0-.332 9.959 5 5 0 1 0 1.184-9.93 5 5 0 0 0-.852-.029zm-84.338 7.96a5 5 0 0 0-.332 9.959 5 5 0 1 0 1.186-9.93 5 5 0 0 0-.854-.029zm30.145 3.55a5 5 0 0 0-5.061 4.408 5 5 0 1 0 9.93 1.184 5 5 0 0 0-4.869-5.592zm36.93 6.574a5 5 0 0 0-.332 9.959 5 5 0 1 0 1.184-9.93 5 5 0 0 0-.852-.029zM760 810l-17.04 58.393 11.707-13.71 2.596 20.45 4.977-20.3 10.5 17.113zm82.654 1.936a5 5 0 0 0-5.059 4.408 5 5 0 1 0 9.93 1.184 5 5 0 0 0-4.871-5.592zm-15.58 8.188l-17.04 58.393 11.707-13.71 2.596 20.45 4.977-20.3 10.5 17.113zM790 905a5 5 0 1 0 0 10 5 5 0 1 0 0-10zm-15 20a5 5 0 1 0 0 10 5 5 0 1 0 0-10zm30 0a5 5 0 1 0 0 10 5 5 0 1 0 0-10zm-15 10l-10 60 10-15 5 20 2.537-20.748L810 995zm41.168 85.12a5 5 0 0 0-5.203 5.281 5 5 0 1 0 9.984-.578 5 5 0 0 0-4.781-4.707zm-70.5 2.992a5 5 0 0 0-5.051 5.867 5 5 0 1 0 9.848-1.738 5 5 0 0 0-4.797-4.129zM1300 1038.55c-44.498 38.33-106.274 93.932-174.578 108.53-14.742 14.6-33.5 25.524-55.422 32.92 24.836 45.067 23.764 68.65 20 90l-71.174-71.176c-3.786 4.87-10.37 7.082-16.574 5.014-5.29-1.763-8.93-6.182-9.96-11.27l-63.36 21.008c21.407 40.022 46.9 78.808 75.71 116.182 109.285-57.818 212.277-117.477 295.36-193.248zm-307.71 154.018l.766-.254-.916-.598c.04.286.093.57.15.852zM847.3 1039.22a5 5 0 0 0-5.203 5.281 5 5 0 0 0 5.279 4.703 5 5 0 0 0-.076-9.988zm-68.383.98a5 5 0 0 0-5.051 5.867 5 5 0 1 0 9.848-1.738 5 5 0 0 0-4.797-4.129zm38.432.754a5 5 0 0 0-5.203 5.279 5 5 0 1 0 9.984-.578 5 5 0 0 0-4.781-4.705zm-67.977 4.46a5 5 0 0 0-5.049 5.867 5 5 0 1 0 9.848-1.738 5 5 0 0 0-4.799-4.129zm83.03 4.658l-4.727 43.863 21.557-1.672zm-67.514 2.656l.58 60.824 7.24-16.5 8.4 18.828L780 1095l15 13.342zm153.3 174.525L915 1245l-12.562-16.346 5.95 20.037-17.71-9.47 42.275 47.04zm-86.875 19.826l-4.45 17.47-11.36-17.203 4.5 20.412-16.986-10.713 38.797 49.95zm117.338 32.783a5 5 0 0 0-4.533 6.996 5 5 0 1 0 9.17-3.99 5 5 0 0 0-4.637-3.006zm-27.5 11.97a5 5 0 0 0-4.533 6.994 5 5 0 1 0 9.17-3.99 5 5 0 0 0-4.637-3.004zm-63.36 9.896a5 5 0 0 0-1.82.279 5 5 0 1 0 3.322 9.432 5 5 0 0 0-1.502-9.713zm85.094 2.46a5 5 0 0 0-4.535 6.994 5 5 0 0 0 9.17-3.988 5 5 0 0 0-4.635-3.006zm-113.39 7.508a5 5 0 0 0-1.82.279 5 5 0 1 0 3.322 9.432 5 5 0 0 0-1.502-9.713zm82.398.373L910 1330l-13.723-15.385 7.396 19.55-18.354-8.15 45.598 43.828zm-61.605 13.508a5 5 0 0 0-1.82.279 5 5 0 1 0 3.322 9.432 5 5 0 0 0-1.502-9.713zm96.33 36.72a5 5 0 0 0-4.51 7.322 5 5 0 0 0 8.854-4.647 5 5 0 0 0-4.344-2.676zm-26.562 13.945a5 5 0 0 0-4.51 7.322 5 5 0 1 0 8.854-4.648 5 5 0 0 0-4.344-2.674zm83.164 6.662l-1.88 17.93-13.725-15.385L995 1405l-18.354-8.148 45.596 43.826zm-60.586 4.072a5 5 0 0 0-4.51 7.324 5 5 0 1 0 8.854-4.648 5 5 0 0 0-4.344-2.676zm-28.383 15.498L910 1420l-11.566-17.064 4.744 20.355-17.113-10.508 18.98 23.838 16.61 5.37zm123.693 30.656a5 5 0 0 0-4.51 7.324 5 5 0 1 0 8.853-4.648 5 5 0 0 0-4.344-2.676zm-26.562 13.945a5 5 0 0 0-4.51 7.324 5 5 0 0 0 8.853-4.648 5 5 0 0 0-4.344-2.676zm-70.357 9.73a5 5 0 0 0-4.061 2.465l2.543 7.205a5 5 0 0 0 6.467-6.392 5 5 0 0 0-4.949-3.277zm92.936 1.006a5 5 0 0 0-4.51 7.322 5 5 0 0 0 8.853-4.647 5 5 0 0 0-4.344-2.676z"/></symbol><symbol id="G" preserveAspectRatio="none" viewBox="0 0 1300 2000"><path d="M631.533 181.016c-65.078-.14-133.435 2.915-206.787 9.697l11.316 29.096c186.863-16.634 340.04-8.662 490.852 14.756l10.643-28.7c-98.203-15.51-197.56-24.617-306.023-24.85zm441.234 226.17l-8.416 18.14c49.74 23.015 104.156 24.04 154.31 3.076l-7.596-18.488c-45.317 19.084-93.23 18.174-138.3-2.73zM550 505c-11.907 39.688-58.598 53.443-109.68 57.092 3.9 7.73 7.574 15.85 11.31 24.242 16.99-1.506 33.643-4.436 49.367-9.266 16.608-5.1 32.803-13.12 46.06-24.488 19.633 29.798 43.04 48.065 66.508 56.377L502.246 717.46l8.428 26.354L678.96 579.81C647.595 599.015 588.798 596.705 550 505zm419.578 51.05l-12.732 22.19a283.65 283.65 0 0 1 34.234 37.896c43.834 58.33 66.42 131.1 66.42 207.39s-22.585 149.06-66.42 207.39c-18.47 24.578-41.597 46.98-67.844 64.816l68.64 3.56c.2-8.48 7.048-15.48 15.75-15.133 3.496.14 6.72 1.482 8.64 3.213 32.85-19.533 52.63-48.954 73.732-77.373l-20.07-14.904c-18.972 25.55-34.974 48.4-57.03 64.54-1.406-.178-2.787-.396-4.27-.455-2.647-.106-5.234.063-7.87.182l10.31-13.424c47.355-63.016 71.434-141.178 71.434-222.4s-24.08-159.393-71.434-222.408a308.44 308.44 0 0 0-41.488-45.068zM1047.11 577l3.727 6H1300v-6zm12.473 20l4.055 6H1300v-6zm12.5 18.5l6.297 9H1300v-9zm16.828 23.5l9.03 12H1300v-12zm17.93 23.5l12.016 15H1300v-15zm-372.664 67.47l-183.115 179.3 5.045 30.05 174.945-171.3zM1250 862.334V1030h20V880.37zM570 960l-9.55 9.55 4.422 35.45h171.262l-3.898-42.764L730 960l-20 20-20-20-20 20-20-20-20 20-20-20-20 20zm521.46 89l-1.78 12h184.168l13.994-12zm-3.914 21.5l-2.953 9h166.777l10.963-9zm-5.852 16.5l-2.64 6H1233.6l7.908-6zM1300 1136.5c-83.082 75.77-186.077 135.418-295.393 193.078l18.996 23.95c99.8-52.704 195.444-107.903 276.396-177.014z"/></symbol><symbol id="H" preserveAspectRatio="none" viewBox="0 0 1300 2000"><path stroke="#44f" stroke-linecap="round" stroke-linejoin="round" stroke-width="6" fill="none" d="M520.672.153c16.67 52.963 65.937 55.088 68.644 99.564 2.734 44.917-59.29 48.357-61.782 3.426-1.684-30.367 33.643-31.912 35.304-1.958.83 14.977-21.235 16.2-22.065 1.224M514.21.15c-10.564 54.813-59.517 62.307-57.285 106.91 2.25 44.944 64.274 41.505 61.782-3.426-1.684-30.367-36.965-27.996-35.304 1.958.83 14.977 22.896 13.753 22.065-1.224M832.117.15c6.783 59.167 64.417 69.896 59.33 115.353-5.005 44.72-74.794 36.48-69.517-8.208 3.566-30.204 43.242-25.103 39.724 4.7-1.76 14.897-26.586 11.965-24.828-2.932M826.8.195c-20.6 55.295-78.7 52.503-84.328 97.72-5.55 44.657 64.24 52.898 69.517 8.208 3.566-30.204-36.206-34.484-39.724-4.7-1.76 14.897 23.07 17.828 24.828 2.932m118.068 52.952a94.44 94.44 0 0 0 3.928-3.956c15.6-16.68 24.647-39.044 27.487-65.252 29.844-5.393 52.312-13.12 70.105-21.992m-147.452 84.828c31.576-11.865 50.335-38.363 48.176-88.74 91.85-10.837 107.24-38.864 143.197-62.267M358.634 61.953c12.533 9.25 25.95 16.772 40.907 20.552 3.377 11.716 7.126 25.447 15.194 40.677 4 7.55 9.357 14.965 16.11 21.9m44.983-3.605c-42.083-20.4-40.427-54.228-53.77-86.258-27.123.768-57.764-24.58-87.183-55.16M611.68 136.292c12.678-15.588 22.3-34.75 27.3-57.13 10.834-4.514 20.377-10.953 28.16-18.557 6.91 8.405 15.696 15.843 25.975 21.51 2.335 21.05 8.895 39.8 18.48 55.838M666.44.097c-8.125 28.527-21.5 51.556-54.118 55.484-3.387 40.084-20.275 65.198-45.133 81.448M750 140c-18.053-18.314-28.71-43.235-27.843-78.43C690 54.08 679.26 29.526 674.32.086m390.8.687c-95.776 123.77-117.196 173.86-138.283 233.967M320.68.467c60.503 94.808 90.905 152.9 115.537 219.445m-11.47-29.2c195.606-18.087 355.686-9.666 512.81 15.153m-501.494 13.942c186.863-16.634 340.04-8.66 490.85 14.757m-521.54-87.207c211.067-20.772 383.092-11.45 551.22 16m-77.583 929.777C829.86 928.444 851.682 742.21 986.4 528.14c57.772 131.42 191.48 271.967 313.637 376.14m-192.617 541.58c-72.615-72.347-134.28-149.487-178.48-232.4M-.017 673.517c108.13-86.3 237.93-144.97 369.274-201.67m394.895 80.27c-77.42 322.262-23.657 629.835 95.2 885.7M510.827 744.4L679.12 579.613m-65.62 29.264L502.326 717.734m16.563 53.76L747.18 547.96M557.656 950H731.37m-180.306-40.728l183.115-179.3m4.544-39.438l-193.307 189.28m10.69 59.5l174.945-171.3M729.818 925H570.734M385 505c-10 0-19.402 28.553 5 30 18.973 1.125 40-45 0-45-45 0-40.13 73.84 9.87 73.84C464.79 563.84 535 555 550 505c55 130 150.188 80.355 150 45-.147-27.73-35-30-40-15-6.834 20.5 10 30 25 15M560.45 969.55L570 960l20 20 20-20 20 20 20-20 20 20 20-20 20 20 20-20 2.236 2.236M589.452 702.39a42.5 42.5 0 0 1 3.53 64.016 42.5 42.5 0 0 1-63.712-5.087m181.59-177.803a42.5 42.5 0 0 1 4.011 64.385 42.5 42.5 0 0 1-64.072-5.577m-.64.63a42.5 42.5 0 0 1 3.769 64.201 42.5 42.5 0 0 1-63.894-5.332m-61.28 60.012a42.5 42.5 0 0 1 4.295 62.813m-.02.082a42.5 42.5 0 0 1 62.633 5.896m.493-.484a42.5 42.5 0 0 1-3.171-63.734 42.5 42.5 0 0 1 63.437 4.721m97.254-171.116a42.5 42.5 0 0 1-42.11-17.188m6.006 128.43a42.5 42.5 0 0 1-2.7-63.354 42.5 42.5 0 0 1 32.054-11.959M656.86 770.7a42.5 42.5 0 0 1-2.935-63.544 42.5 42.5 0 0 1 63.252 4.48m-21.04-148.685l25.117-24.594m-269.5 48.2c16.874-1.73 33.527-4.658 49.25-9.488 16.608-5.1 32.803-13.12 46.06-24.488 19.633 29.798 43.04 48.065 66.574 56.457m335.51-85.78c48.707 15.887 96.192 7.172 140.86-58.257 6.67 33.087 26.02 58.938 45 85 19.905-29.886 33.326-59.885 40-90 28.14 54.988 76.577 70.79 124.966 86.687m.05 316.87c-111.46-98.063-228.127-225.08-280.9-338.45M893.15 717.07A132.614 176.472 0 0 1 920 823.528a132.614 176.472 0 0 1-64.023 151.033m2.616 25.863c15.352-10.124 29.055-23.296 40.55-38.594 27.3-36.33 43.355-85.002 43.355-138.303 0-50.7-14.527-97.213-39.442-132.898m-25.462 401.784c37.782-17.484 69.766-44.935 93.498-76.514 40.313-53.646 61.406-120.998 61.406-192.37s-21.094-138.725-61.406-192.37c-8.01-10.66-16.963-20.85-26.76-30.346m-21.7 494.94c26.85-17.853 49.978-40.255 68.448-64.833 43.835-58.33 66.42-131.092 66.42-207.39s-22.586-149.06-66.42-207.39a283.65 283.65 0 0 0-34.234-37.896m43.783 480.822c3.62-4.305 7.1-8.684 10.438-13.127 47.355-63.016 71.434-141.178 71.434-222.4s-24.08-159.393-71.434-222.408c-12.047-16.03-25.948-31.245-41.488-45.068m193.615-158.325l-12.6 56.865c-3.547 16.006-9.343 32.204-17.385 48.61-8.742-14.062-15.645-27.995-18.7-43.143l-11.72-58.13-33.434 48.975c-18.028 26.407-34.973 40.59-50.74 47.77m242.323 7.375c-26.513-11.63-48.278-27.34-63.68-57.44l-26.666-52.107M985.512 529.677c52.75-39.676 73.688-93.2 97.756-145.363m116.85-49.474a25.003 25.003 0 0 0-11.299 2.799c-35.528 17.764-52.113 17.764-87.64 0a25.003 25.003 0 1 0-22.359 44.723c44.472 22.236 87.887 22.236 132.36 0a25.003 25.003 0 0 0-11.061-47.521m2.13 51.562c25.84 72.738 56.575 130.842 97.73 157.772m.03 743.446c-63.404 53.972-136.28 97.475-213.904 136.404m213.947-247.52c-80.96 69.126-176.63 124.322-276.448 177.035m276.43-217.036c-83.086 75.78-186.104 135.42-295.428 193.084M1092.024 1030H1300m-140-100.686l39.627 48.63-39.627 39.63m90-72.793l-43.512-53.4 33.828-37.89m-43.32-41.57L1160 853.36m72.426 176.64l17.574-17.574M1130 741.3V1030m30-256v256m58.5-197.108l-51.424 57.6L1240 980l-50 50m60-167.666V1030m20-149.63V1030m-140.906-340H1300m-292.373 394.16a15.002 15.002 0 0 0-15.1 18.834c9.715 38.86 9.7 53.517.322 81.62a15.002 15.002 0 1 0 28.459 9.486c10.632-31.897 10.608-57.24.322-98.38a15.002 15.002 0 0 0-14.004-11.559m11.193 114.66L1090 1270c3.764-21.35 4.836-44.933-20-90 29.406-9.92 53.114-26.17 70-50-16.654-6.66-39.96-13.326-70-20 22.693-36.974 25.104-69.34 20-100-21.103 28.42-40.883 57.84-74.32 76.927m285.04-49c-44.55 38.348-106.667 94.502-175.68 109.493m-133.303-47.843l-142.058-7.325c-55 0-78.958 27.747-9.678 27.747m250-110l-20.07-14.904c-18.972 25.55-34.974 48.4-57.03 64.54-1.406-.178-2.787-.396-4.27-.455-2.647-.106-5.234.064-7.87.183M900 1175c-40 0-60 5-80 5-30 0-40 25-10 25h82.857M890 1145c-5 0-60 5-80 5s-45 25 0 30m75-60h-45c-40 0-75 25-35 30m188.056 42.315L910 1220c-15 5-25 10-35.965 16.14C847.496 1250.995 840 1225 855 1215s25-10 25-10m144.382-97.28c.832-.363 1.65-.78 2.454-1.253 12.46-7.113 23.026-15.42 32.504-24.258-2.4 5.17-5.098 10.453-8.516 16.02l-16.504 26.89 30.8 6.844c12.616 2.803 23.682 5.594 33.682 8.346-10.233 7.616-22.108 13.686-35.992 18.37l-25.506 8.606 12.992 23.574c3.17 5.75 5.774 10.884 8.055 15.67l-23.62-23.62c-2.55-2.618-5.58-4.48-8.815-5.587m74.732-874.55l3 36.016m96.35-38.95v35.008M1085 105c0 85 40.192 215-25 215-35 0-38.333-48.86-13.432-46.642C1065 275 1064.564 294.986 1055 300c25.797-21.415 27.524-52.396 0-95 19.992-14.004 5-75 5-95 0-45 60-35.495 60-10 0 25-30 25-35 5m6.905 191.162C1102.5 304.94 1123.745 320 1145 320c30 0 75-25 75-50 0-11.753-4.42-23.507-9.105-32.662m-121.94-73.746c3.168-2.072 8.087-3.592 16.044-3.592 25 0 35 15 40 15 18.23 0 23.95 24.45-5 25-19.996.38-30-20-30-20 6.156 14.16 16.642 29.114 5 40 35.23 6.8 45.444 29.923 45 60m-40.466-117.823c.078-3.88.23-7.94.466-12.177m28.51 49.16c-5.5 37.794-22.848 36.236-27.74-6.067m-20.532-32.75c1.3-12.08 7.92-19.14 19.762-25.345 21.1-11.063 28.913 21.39 29.933 40.77m-9.915-35.647c39.55-34.246 38.25 71.703 34.982 79.877-8.15 20.377-26.266 27.467-29.98-5.804m22.005-71.097c23.913-20.97 40.376 17.032 35.512 51.08-6.248 43.735-27.345 61.842-30.05 31.063m23.194-77.205c21.887-13.738 37.104 22.058 31.556 54.05-7.883 45.456-31.28 48.413-27.638 6.775m28.504-23.728A13.4 13.4 0 0 1 1230 185c11.046 0 20 13.43 20 30s-8.954 30-20 30c-5.88 0-11.46-3.88-15.26-10.61M1295 215a22.5 25 0 0 1-22.5 25 22.5 25 0 0 1-22.5-25 22.5 25 0 0 1 22.5-25 22.5 25 0 0 1 22.5 25m-341.742-45h112.004m-151.248 85h160.773M1150 235c14.42 7.86 26.457 17.773 30 35M917.772 854.94a29.072 30 0 0 1-1.844.06 29.072 30 0 0 1-29.072-30 29.072 30 0 0 1 29.072-30 29.072 30 0 0 1 2.261.091m-.28-1.838a29.072 30 0 0 1-6.627.79 29.072 30 0 0 1-29.072-30 29.072 30 0 0 1 19.991-28.499m-1.55 179.358a29.072 30 0 0 1-19.601-28.364 29.072 30 0 0 1 29.072-30 29.072 30 0 0 1 7.361.978m-50.202 106.67a29.072 30 0 0 1-11.195-23.657 29.072 30 0 0 1 29.072-30 29.072 30 0 0 1 15.406 4.559m-43.942 56.35a42.03 42.03 0 0 0 1.481 1.361M873.7 782.12c2.645 5.685 6.493 10.705 11.212 14.693-6.574 7.554-10.566 17.466-10.566 28.186 0 10.62 3.92 20.446 10.387 27.973-9.856 7.836-16.19 20.06-16.19 33.564 0 4.88.825 9.63 2.36 14.086-5.858 2.208-11.095 5.733-15.38 10.203m41.266-186.62c-2.593.984-5.044 2.215-7.334 3.66M735 485c0-35-35-35-35 5s55 20 55-15c0-50-75-40-75 10 0 64.14 114.105 78.02 179.105 73.02 64.638-4.972 129.54-48.5 130.074-113.317.746-90.608-65.255-127.78-81.056-212.612M707.267 530.174C755.952 531.73 775 510 775.484 463.588 776.263 389.015 710 380 715.528 213.414m5.697 324.97l.095.003m217.015-7.12c22.326-20.788 35.47-55.564 35.726-86.564.752-91.32-65.077-128.36-79.996-214.62m34.43 307.052c20.324-22.527 30.2-62.56 30.447-92.432.758-92.032-64.87-128.934-78.907-216.646m29.508 318.054c22.985-22.02 34.02-69.662 34.28-101.408.763-92.7-64.57-129.468-77.772-218.566m27.904 325.5c23.373-22.23 34.486-74.91 34.75-106.924.768-93.264-64.097-129.913-76.572-220.198m28.43 330.446c22.26-23.704 32.765-78.976 33.022-110.248.772-93.798-63.556-130.33-75.343-221.753m24.5 334.774c24.186-21.867 35.456-80.458 35.724-113.02.777-94.313-62.965-130.73-74.092-223.265m22.102 337.387c25.054-20.935 36.598-80.996 36.87-114.122.78-94.807-62.32-131.1-72.82-224.72m20.733 339.023c25.2-20.77 36.694-81.08 36.968-114.302.784-95.182-61.497-131.396-71.5-225.836m19.976 339.765c24.886-21.108 36.132-80.904 36.404-113.93.787-95.558-60.656-131.68-70.17-226.958M802.71 557.75c24.172-21.85 35.006-80.47 35.275-113.045.8-95.934-59.795-131.965-68.833-228.086M789.24 556.3c23.22-22.886 36.265-79.83 33.625-111.606C815 350 760 325 755.378 215.488m13.2 337.536c27.376-21.005 42.47-72.122 39.16-108.32C800 360 745 355 741.643 214.755m5.536 333.204c34.297-15.474 48.468-62.336 47.1-91.76C790 365 730 375 727.914 214.05m25.92 269.68c3.03-18.43 4.706-21.396 3.976-32.608-4.37-67.102-66.31-43.674-57.35-238.486M685 550c-25 35-75.4 8.408-100-45m75.345 46.462C638.38 543.637 616.83 525.685 605 500m116.224 38.385c-5.458 7.64-12.9 12.66-21.454 15.286m-37.93-21.843C645.218 525.066 629.78 511.233 620 490m86.506 39.95c-26.158.828-55.97-16.223-71.506-49.95m51.413 29.317C672.032 502.23 658.868 489.25 650 470m30.252 12.308c-7.07-6.296-13.188-14.37-17.79-24.36m23.407 5.25c-4.097-5.395-7.768-11.464-10.87-18.198m25.973 3.333c-4.14-5.43-7.845-11.543-10.973-18.333m29.672 12.515c-5.643-6.262-10.64-13.76-14.672-22.515M385 535c48.677 7.96 64.36-29.036 64.212-70.306C449.06 422.457 425 380 435 340m-42.2 222.915c48.677 7.96 69.287-55.308 69.138-96.578C461.786 424.1 435 400 435 340m4.65 222.422c23.015-15.528 34.298-51.97 36.05-81.286M461.4 560.17c18.025-17.666 27.05-49.2 28.6-75.17m-5.707 70.81C497.096 537.654 503.696 511.85 505 490m1.532 58.498C514.63 532.015 518.97 512.27 520 495m8.437 41c3.734-11.97 5.878-24.53 6.563-36M435 340s5.983 80.02 5 105c-1.55 39.43-75 77.65-75 0 0-50 60-45 60-5s-45 30-45 5 35-20 35 0m9.54-96.806c-1.9 17.88-8.925 27.048-7.487 40.237C417.89 396.104 425 415 425 440m22.585-222.507C443.343 230.942 435 258.813 435 270c0 15 5 25 5 50 0 40-70 55-70 0 0-45 60-55 60-15s-40 30-40 10 25-20 25-5m21.84-90.784c-5.71 10.94-12.324 26.063-12.324 37.426C424.516 277.258 430 305 430 305m5.41-40.41S450 245 470 245s30 10 40 10c5 0 15-10 15-10v10c-5 0-9.815 4.89-15 5-5 0-30-15-35-15m195 15s-35-20-45-20c-15 0-35 10-45 10s-25-5-25-5v5c8.447 0 20.18 5.024 25 5 4.956-.025 30-15 45-15m-100 15s10 25 10 30-20 50-20 60-10 35-10 40 15 15 20 15 20-10 30-15c4.472-2.236 10 10-30 15m40-35c25 0 28.892 24.48 11.232 30.895-6.715 2.44-16.723-1.566-18.133-9.11M505 425l-10 20 10-10v-10m100 0l5 20-10-15 5-5m-105 15l4.415-5.594C505.393 433.167 520 430 530 420c0 0 0 10 13.284 10 10 0 16.716-10 16.716-10s10 10 20 10l25 5-5-5c-28.367 6.712-90-2.67-100 10m30 10c16.912 17.225 30 15 45 0M440 295c20 0 30.345-16.238 40.337-15.82C500 280 505 295 515 295c-5 0-15 15-40 15-15 0-15-15-35-15m205 0c-20 0-30.345-16.238-40.337-15.82C585 280 580 295 570 295c5 0 15 15 40 15 15 0 15-15 35-15m375-110l-25 30 30 25m-49.092-25H995m-35 25l35-55v55"/></symbol><symbol id="I" preserveAspectRatio="none" viewBox="0 0 1300 2000"><path stroke="#44f" stroke-linecap="round" stroke-linejoin="round" stroke-width="3" fill="none" d="M801.772 1151.052c4.937 11.41 3.38 18.268.82 27.537m3.708 3.763c4.937 11.41 3.996 13.137 1.437 22.406m-1.026-79.458c4.937 11.41 3.79 14.368 1.232 23.637M946.25 185h118.23m-125.875 18.333h118.166M931.6 221.667h132.955M910 240h161.887M1145 215c10.035-1.68 20.034.026 30 5m-52.495-14.373c10.035-1.68 14.698-1.616 24.663 3.358m28.826 11.568c10.035-1.68 10.182-1 20.148 3.974m4.063-.217c10.035-1.68 9.606-2.45 19.572 2.524M1135 170c-5 10 21.253 16.102 24.957 15.288M1185 180c3.035-2.388 6.42-1.983 10 0m15.04 4.3c3.035-2.388 6.42-1.983 10 0m-62.956-11.494c3.035-2.388 6.42-1.983 10 0M840 1130c2.31 4.324 1.48 7.3 0 10m-1.026 17.504c2.31 4.324 1.48 7.3 0 10m4.105 20.583c2.31 4.324 1.48 7.3 0 10M445 295c10 0 15 24.165 35.337 24.59C500 320 520 295 525 295m120.817.406c-10 0-15 24.165-35.337 24.59-19.663.41-39.663-24.59-44.663-24.59M440 295c15 0 23.452-28.016 40-30 12.603-1.51 35 15 35 15m130 0s-29.105-16.413-41.708-14.902c-16.548 1.984-25 30-40 30C570 295 575 320 575 320m-135-20c2.62 18.998 24.184 33.085 25 30m40 70c-15 15-21.764 25.737-30 40m120-50c5 20 33.235 43.592 35 40m-95 60c5-20 25-15 35-5m-76.008-202.265A14.758 20 0 0 1 495 290a14.758 20 0 0 1-10.671 19.218m-6.207.575A14.758 20 0 0 1 465.484 290a14.758 20 0 0 1 .34-4.269m18.504 23.487a14.758 20 0 0 1-4.087.782 14.758 20 0 0 1-2.121-.208m138.693-25.54a14.758 20 0 0 1 .928 6.98 14.758 20 0 0 1-9.416 18.644m-13.53-2.005a14.758 20 0 0 1-6.569-16.639 14.758 20 0 0 1 1.104-7.589m18.996 26.232a14.758 20 0 0 1-5.342 1.356 14.758 20 0 0 1-8.189-3.361M780 560l-20.952 14.505M780 575l-24.725 17.117M780 590l-28.277 19.576m26.14-3.097l-29.288 20.277m25.925-2.948l-28.955 20.046m25.883-2.92l-28.496 19.728m25.735-2.816l-28.2 19.53m25.596-2.72l-27.772 19.226m25.567-2.7l-27.53 19.06m25.42-2.598l-27.18 18.817m25.422-2.6l-26.908 18.63m25.295-2.512l-26.654 18.453m25.293-2.5l-26.336 18.233m25.188-2.437L729.69 789.83m25.186-2.437l-25.814 17.87m25.098-2.375l-25.688 17.784m24.763 12.857l-25.237 17.472m25.55-32.688l-25.34 17.542m24.764 12.856l-24.9 17.24m24.966-2.284l-24.824 17.186m24.924-2.255l-24.525 16.98m24.926-2.256l-24.445 16.924m24.894-2.235l-24.183 16.742m24.897-2.236l-24.098 16.683m24.88-2.224l-23.866 16.523m24.88-2.224l-23.78 16.463m24.873-2.22l-23.568 16.316m24.873-2.22L735.4 995.87m24.878-2.223l-23.292 16.125m24.88-2.224l-23.22 16.074m24.897-2.236l-23.04 15.95m24.897-2.236l-22.974 15.905m24.922-2.254l-22.8 15.785m24.924-2.255l-22.752 15.75m85.1-104.105l29.28 39.317M830.46 946.5l27.282 36.635m-27.388-62.34l25.407 34.118m-24.552-58.532l23.892 32.083m-22.088-55.224l22.72 30.51m-20.216-52.7l21.66 29.086M838.65 829.7l20.92 28.092m-17.218-48.684l20.272 27.222m-16.058-47.126l19.704 26.46m-15.03-45.744l19.2 25.796M856.34 751.2l18.778 25.216m-13.3-43.424l18.402 24.71m-12.576-42.45l18.074 24.27m-11.93-41.582l17.79 23.89m-11.355-40.81l17.544 23.56m-10.843-40.123l17.333 23.276m-10.388-39.512l17.263 23.182m-10.094-39.117l17.083 22.94m-9.688-38.572l16.904 22.7m-9.26-37.996l16.803 22.564m-8.983-37.626l16.527 22.193m-8.54-37.032l16.545 22.217m-8.387-36.826l16.436 22.07m-7.964-36.257l16.13 21.658m-119.508 535.51c2.31 4.324 1.48 7.3 0 10m-31.984-13.296c4.937 11.41 3.175 13.547.616 22.816M835 1005l29.28 34.317M840 1035l32.973 37.19m-28.384-4.317l24.013 24M882.184 1230c-7.184-7.504-32.184 5-32.184 5m-99.535-135.997l31.225 28.994m-26.434-4.546l32.022 29.734m-26.656-4.752L793.54 1179m-26.93-5.005l33.92 31.497m-27.253-5.306l35.04 32.536m-27.633-5.66l36.292 33.7m-28.084-6.078l37.697 35.004m-28.607-6.563l39.274 36.468m-29.22-7.132l41.38 38.425m-30.092-7.943l43.045 39.97m-30.326-8.16L870 1410m-23.976-2.264L870 1430m233.343 11.683l-5.248 8.568m-4.79-18.85l-13.47 22m3.43-32.27l-13.468 21.99m3.602-32.55l-13.576 22.164m3.768-32.82l-13.576 22.164m3.803-32.876l-13.612 22.223m4.056-33.29l-13.707 22.38m4.152-33.448l-13.71 22.38m4.314-33.712l-13.87 22.643m4.59-34.164l-13.87 22.643m4.618-34.207l-13.895 22.685m4.925-34.7l-14.065 22.963m5.095-34.986l-14.064 22.96m5.315-35.345l-14.284 23.32m5.655-35.9l-14.302 23.35m3.716-39.402l-14.502 23.676m6.25-36.87l-14.6 23.82m6.438-37.18l-14.688 23.98m6.858-37.865l-14.94 24.393m6.722-37.642l-11.436 18.67"/><use xlink:href="#C" height="90" width="90" transform="matrix(.087156 .968301 -.996195 .084715 1028.906753 753.614252)"/><use xlink:href="#C" height="90" width="90" transform="matrix(.5 .841777 -.866025 .486 974.471143 642.250049)"/><use xlink:href="#C" height="90" width="90" transform="matrix(-.34202 .913381 -.939693 -.332444 1032.677074 884.857806)"/><use xlink:href="#C" height="90" width="90" transform="matrix(-.642788 .744595 -.766044 -.62479 985.397442 997.608746)"/></symbol><rect width="239" height="335" x="-119.5" y="-167.5" rx="12" fill="#fff" stroke="#000"/><use width="164.8" height="260.8" x="-82.4" y="-130.4" xlink:href="#D"/><use transform="rotate(180)" width="164.8" height="260.8" x="-82.4" y="-130.4" xlink:href="#D"/><use width="164.8" height="260.8" x="-82.4" y="-130.4" xlink:href="#E"/><use transform="rotate(180)" width="164.8" height="260.8" x="-82.4" y="-130.4" xlink:href="#E"/><use width="164.8" height="260.8" x="-82.4" y="-130.4" xlink:href="#F"/><use transform="rotate(180)" width="164.8" height="260.8" x="-82.4" y="-130.4" xlink:href="#F"/><use width="164.8" height="260.8" x="-82.4" y="-130.4" xlink:href="#G"/><use transform="rotate(180)" width="164.8" height="260.8" x="-82.4" y="-130.4" xlink:href="#G"/><use width="164.8" height="260.8" x="-82.4" y="-130.4" xlink:href="#H"/><use transform="rotate(180)" width="164.8" height="260.8" x="-82.4" y="-130.4" xlink:href="#H"/><use width="164.8" height="260.8" x="-82.4" y="-130.4" xlink:href="#I"/><use transform="rotate(180)" width="164.8" height="260.8" x="-82.4" y="-130.4" xlink:href="#I"/><use xlink:href="#B" height="32" width="32" x="-114.4" y="-156"/><use xlink:href="#C" height="26.769" width="26.769" x="-111.784" y="-119"/><use xlink:href="#C" height="55.68" width="55.68" x="-89.68" y="-132.16"/><g transform="rotate(180)"><use xlink:href="#B" height="32" width="32" x="-114.4" y="-156"/><use xlink:href="#C" height="26.769" width="26.769" x="-111.784" y="-119"/><use xlink:href="#C" height="55.68" width="55.68" x="-89.68" y="-132.16"/></g><use xlink:href="#A" stroke="#44f" fill="none"/></svg>