<svg xmlns="http://www.w3.org/2000/svg" xmlns:xlink="http://www.w3.org/1999/xlink" width="240" height="336" viewBox="-120 -168 240 336" preserveAspectRatio="none"><defs><path id="A" d="M-82.4-130.4H82.4v260.8H-82.4z"/></defs><symbol id="B" viewBox="-500 -500 1000 1000" preserveAspectRatio="xMinYMid"><path d="M-260 100c300 0 220 360 520 360M-175 0v-285a175 175 0 0 1 350 0v570a175 175 0 0 1-350 0z" stroke="red" stroke-width="80" stroke-linecap="square" stroke-miterlimit="1.5" fill="none"/></symbol><symbol id="C" viewBox="-600 -600 1200 1200" preserveAspectRatio="xMinYMid"><path d="M-400 0C-350 0 0-450 0-500 0-450 350 0 400 0 350 0 0 450 0 500 0 450-350 0-400 0z" fill="red"/></symbol><symbol id="D" preserveAspectRatio="none" viewBox="0 0 1300 2000"><path fill="#fc4" d="M216.555 0c22.672 33.815 49.204 66.355 53.94 105.508l-25.363 36.035-3.986-4.102c6.32-11.198 5.98-26.776-9.5-42.414C199.508 62.532 146.222 132.374 90 90c50 50-6.776 124.444 29.752 149.355 25.358 17.294 44.433 10.196 53.54-3.55l3.4 3.12-26.592 37.854C124.295 281.372 99.5 282.84 80 270c-14.682 26.212-45.302 28.698-70 40 61.376.312 120.483 3.772 154.338 42.287L411.893 0H216.555zm416.918 0l8.816 25.467C760.632 186.75 859.8 286.03 876.72 574.873l31.297 25.848C895.37 279.397 784.08 169.326 660.838 0h-27.365zm49.305 231.158l-3.29 51.135c3.567 6.1 7.01 12.233 10.33 18.457 24.307 45.58 42.878 96.272 54.72 165.254l34.537 28.36c-15.83-119.84-49.162-192.81-96.295-263.205zm-402.35 171.684L269.3 430.8c90.347 32 178.35 53.163 271.21 57.447-21.405-9.82-42.855-20.98-60.5-18.246-24.29 3.763-48.682-9.915-69.5-29.48-42.95-9.33-86.012-22.164-130.072-37.68zm-11.166 28.033C243.943 488.3 208.577 533.65 166.486 568c116.13 44.757 235.198 76.286 363.186 83.35l-2.275-.018L628.943 861.68l95.982-7.365c-73.626 12.42-154.804 10.87-249.02-14.79l6.092 32.6c160.352 40.145 287.864 12.7 399.988-33.312l-10.918-27.94c-46.132 19.01-94.093 34.635-145.77 43.39l-97.604-202.178-4.16-.03c89.463-3.608 183.635-19.57 284.367-51.38L720.67 446.672c-32.205 5.738-63.265 9.475-93.135 10.875-7.876 11.692-16.5 22.512-25.623 30.975 40.733-.486 83.422-4.83 128.137-13-44.724 8.17-87.476 12.572-128.684 13.494C593.907 495.794 586.486 500 580 500c-11.754 0-25.097-5.3-38.824-11.453-93.522-4.586-181.528-25.74-271.914-57.672zm869.035 68.377c-22.784.772-47.828 39.967-8.297 50.748-55 15 15 85 30 30 15 55 85-15 30-30 55-15-15-85-30-30-4.22-15.47-12.788-21.05-21.703-20.748zm136.127 104.445c-23.587-.514-39.8 16.03-54.424 36.303l15 10c24.284-10.693 46.335-22.648 50-45-3.687-.808-7.207-1.23-10.576-1.303zm-221.385 25.215c-17.504.055-35.16 7.582-53.04 26.088 39.672 4.96 54.753 44.346 137.924 20.602l1.693-.937c-28.657-25.18-57.406-45.844-86.578-45.752zm-27.89 68.434l-132.8 160.22c20.036 27.174 39.697 49.954 58.553 71.457C921.952 972.377 905 1023.82 905 1080c0 95.074 48.797 177.617 123.053 226.05l15.676 10.223 53.934-53.58c-1.894-19.38-4.182-37.427-6.965-53.875-4.04 1.088-8.097 1.295-12.236 1C1016.016 1206.1 970 1151.35 970 1090c0-29.304 10.124-57.732 29.367-80.127 3.22-3.856 6.962-7.155 10.533-10.05 42.224 57.386 74.67 127.706 87.982 262.47l170.73-170.865 15.025-14.892-.024-.12 16.385-16.406-16.387 16.393c-6.905-37.354-17.928-72.61-39.068-101.39-17.397-23.683-41.763-42.338-74.684-53.195-5.924-4.443-15.715-8.488-29.9-11.016a40 40 0 0 1-39.156 39.17c11.378 63.78 53.95 39.17 44.195 5.03 14.485 4.138 27.256-1.142 32.21-9.46 22.212 9.908 38.578 24.107 51.217 41.313 14.532 19.783 24.032 44.132 30.225 70.37-16.884-23.37-41.272-2.487-33.642 24.217-18.716-5.347-34.572 5.033-34.543 17.467-19.833-6.863-37.303-16.203-51.385-29.02-25.365-23.09-41.373-57.883-41.193-113.777.444-1.685.887-3.81 1.307-6.148A40 40 0 0 1 1060 910a40 40 0 0 1 40-40 40 40 0 0 1 39.971 39.195c63.78-11.378 39.17-53.95 5.03-44.195 9.14-31.986-27.66-55.62-41.988-4.662-6.604-30.946-16.217-61.528-33.072-87.512L1300 962.393V923.54l-274.852-226.195zm-3.78 52.2c10.657 7.85 19.522 17.042 27.06 27.305 11.32 15.412 19.587 33.595 25.2 53.598-13.245-.552-24.066 15.52-18.63 34.55-24.132-6.895-43.5 12.357-30.252 28.37-25.78-7.16-48.3-17.677-65.666-33.484-5.606-5.103-10.756-10.778-15.373-17.135l77.658-93.203zm212.48 9.975l-15.77 2.195c13.8 28.31 34.27 51.3 14.56 106.336l12.414 9.654c12.692-33.117 12.725-58.556 6.768-78.838-4.667-15.888-12.027-28.085-17.97-39.348zM1015 810c-8.284 0-15 6.716-15 15s6.716 15 15 15 15-6.716 15-15-6.716-15-15-15zm-78.44 55.57c2.88 3.198 5.902 6.232 9.06 9.105 24.942 22.704 57.135 35.17 92.03 42.887-33.902 16.1-11.727 45.746 17.352 37.438-6.494 22.727 10.204 41.238 25.162 32.348 4.916 43.822 21.223 75.27 45.457 97.328 27.69 25.206 64.317 37.79 104.244 45.158l36.348-36.025-141.383 141.434c-13.615-111.338-41.96-181.004-78.5-235.688-33.368-49.922-71.293-86.38-109.758-133.984zm-54.248 5.424c-110.832 43.705-240.482 69.42-397.605 32.62l.324 30.81c143.122 31.822 266.358 13.765 371.355-21.994l25.926-41.437zM1175 1005a15 15 0 1 0 0 30 15 15 0 1 0 0-30zm-30 130c-8.284 0-15 6.716-15 15s6.716 15 15 15 15-6.716 15-15-6.716-15-15-15z"/></symbol><symbol id="E" preserveAspectRatio="none" viewBox="0 0 1300 2000"><path fill="red" d="M411.893 0L0 586.152V715.77L502.973 0zm230.53 25.78C660.15 77.16 690 165.893 690 180c0 13.05-4.256 34.612-7.22 50.98 47.13 70.573 80.46 143.543 96.29 263.383l97.648 80.5C859.8 286.03 760.633 186.748 642.424 25.78zM1160 445c-22.788 0-45.574 18.414-27.506 55.24 10.8-3.24 22.373.94 27.506 19.76 5.133-18.82 16.705-23 27.506-19.76 18.068-36.826-4.718-55.24-27.506-55.24zm-73.88 70.963c-48.388-.4-40.346 93.172 24.12 61.543-3.24-10.8.94-22.373 19.76-27.506-18.82-5.133-23-16.705-19.76-27.506-9.185-4.506-17.227-6.474-24.12-6.53zm147.762 0c-6.894.057-14.936 2.025-24.12 6.53 3.24 10.8-.94 22.373-19.76 27.506 18.82 5.133 23 16.705 19.76 27.506 64.467 31.63 72.51-61.943 24.12-61.543zm-73.88 17.7A16.158 16.336 0 0 0 1143.842 550 16.158 16.336 0 0 0 1160 566.336 16.158 16.336 0 0 0 1176.158 550 16.158 16.336 0 0 0 1160 533.664zm0 46.336c-5.133 18.82-16.705 23-27.506 19.76-36.135 73.652 91.147 73.652 55.012 0-10.8 3.24-22.373-.94-27.506-19.76zm-277.832 60.62c-72.056 19.6-141.373 32.178-208.14 38.248l81.154 169.357c40.212-8.87 78.642-22.015 115.688-37.703C863.78 788.403 860 764.74 860 740c0-35.877 7.95-69.49 22.168-99.38zm-507.363 20.686c49.626 47.836 85.528 109.62 101.197 178.605 41.477 10.938 80.512 17.57 118.213 20.363L508.072 679.82c-45.302-3.45-89.724-9.772-133.268-18.516zM1100 885a25 25 0 1 0 0 50 25 25 0 1 0 0-50zm-62.447 157.744c-11.377 12.652-17.553 29.63-17.553 47.256 0 37.163 26.967 67.85 61.428 69.79-11.175-48.27-26.047-85.33-43.875-117.045z"/></symbol><symbol id="F" preserveAspectRatio="none" viewBox="0 0 1300 2000"><path fill="#44f" d="M664.824 217.748l-17.85 3.004c-1.752 4.07-2.803 9.262-2.803 14.92 0 13.058 5.596 23.645 12.5 23.645s12.5-10.586 12.5-23.645c0-7.167-1.685-13.588-4.348-17.924zm-152.324.43a12.5 23.644 0 0 0-12.5 23.645 12.5 23.644 0 0 0 12.5 23.645 12.5 23.644 0 0 0 12.5-23.645 12.5 23.644 0 0 0-12.5-23.645zm-228.762 175.23l-3.31 9.436c44.06 15.516 87.12 28.348 130.32 37.86L397.92 427.55c-37.73-9.002-75.516-20.526-114.182-34.145zm426.748 44.89c-26.25 4.426-51.716 7.503-76.586 9.326l-6.72 10.434c30.225-1.9 61.285-5.647 93.5-11.385zM137.47 589.21c-23.17 15.07-48.004 27.18-73.742 36.04L0 715.793v181.795l264.234-264.156c-42.97-12.7-85.195-27.607-126.764-44.223zm770.646 11.545C878.406 636.06 860 685.41 860 740c0 44.177 12.055 84.923 32.36 117.592l132.875-160.174zm-346.16 52.008L661.88 861.29c11.205-.632 22.438-1.553 32.84-2.764l-99.953-205.693c-10.825.11-21.597.054-32.81-.07zm-187.164 8.52c43.554 8.766 87.978 15.088 133.482 18.47zM595 677.275a10 10 0 1 1 0 20 10 10 0 1 1 0-20zm22.434 46.684a10 10 0 1 1 0 20 10 10 0 1 1 0-20zm22.432 46.684a10 10 0 1 1 0 20 10 10 0 1 1 0-20zm22.434 46.686a10 10 0 1 1 0 20 10 10 0 1 1 0-20zM918 891.092a7.5 7.5 0 1 0 0 15 7.5 7.5 0 1 0 0-15zm17.148 19.9l-37.385 9.447-5.104 10.115 12.475 30.428-33.98 17.6-3.074 10.357 18.11 31.943-29.547 24.033-.973 10.686 24.938 29.23-23.727 34.486 1.578 10.174 31.504 24.47-15.385 37.473 3.916 9.713 36.086 15.887-5.525 41.418 6.098 8.37 38.596 6.984 3.014 40.162 6.78 6.906 47.527 4.445-2.658 25.438 16.752-15.975 1.613-15.443-6.762-8.246-48.77-4.562-2.975-39.633-6.143-6.818-37.26-6.742 5.324-39.906-4.412-7.856-34.55-15.21 14.77-35.98-2.338-8.772-30.416-23.627 22.977-33.397-.475-9.117-23.687-27.768 28.508-23.187 1.793-9.518-17.395-30.684 33.154-17.172 3.488-9.504-11.797-28.78 33.365-8.432c1.215-.3 2.296-.863 3.184-1.637zm-50 36.955a7.5 7.5 0 1 0 0 15 7.5 7.5 0 1 0 0-15zm-19.293 62.19a7.5 7.5 0 1 0 0 15 7.5 7.5 0 1 0 0-15zm-5.543 67.324a7.5 7.5 0 1 0 0 15 7.5 7.5 0 1 0 0-15zm9.854 73.893a7.5 7.5 0 1 0 0 15 7.5 7.5 0 1 0 0-15zm27.094 69.785a7.5 7.5 0 1 0 0 15 7.5 7.5 0 1 0 0-15zm41.666 58.908a7.5 7.5 0 1 0 0 15 7.5 7.5 0 1 0 0-15zm58.086 52.135a7.5 7.5 0 1 0 0 15 7.5 7.5 0 1 0 0-15z"/></symbol><symbol id="G" preserveAspectRatio="none" viewBox="0 0 1300 2000"><path d="M1025.515 697.647l-25.28-20.368C989.952 689.78 980 712.384 980 740c0 3.922.195 7.744.686 11.316zm-91.73 110.1C925.197 788.13 920 765.005 920 740c0-41.103 14.18-77.08 34.055-100.8l-22.996-19.27C906.29 649.5 890 692.154 890 740c0 34.746 8.556 66.77 22.76 93.01m-30.245-193.405c-72.404 20.612-141.72 33.19-208.486 39.26l81.558 169.126-30.273 6.293-97.437-202.308c88.306-4.07 181-20.042 280.025-51.313M594.89 860.323L508.073 679.82c-45.302-3.45-89.726-9.772-133.167-18.417-16.41-15.827-34.458-30.224-53.427-42.81 66.752 17.082 134.816 28.6 205.75 32.7l102.104 210.47c-11.04-.03-22.665-.51-34.442-1.44zm287.424 10.67c-110.832 43.705-240.484 69.42-397.607 32.622l-2.707-31.5c160.352 40.145 287.863 12.7 399.987-33.312l10.34 18.76zM-.65 940.65l321.914-322.167c-52.75-13.6-104.258-30.608-155.128-50.2-8.87 7.218-18.128 13.977-28.235 20.644 41.136 16.898 83.362 31.805 126.33 44.505L-.3 897.884m318.976-765.218L310 85l45-5-5-50 44.268-4.92M274.19 195.957L265 150l47.563-8.648m-78.115 111.163L225 210l45.754-9.15m-71.392 101.598L190 265l42.277-9.395m-68.12 96.94L150 310l47.383-4.738m463.18 91.304c4.387-10.11 7.592-19.187 9.436-26.565 6-24.04 8.408-58.918 9.425-86.4 3.628 4.783 7.072 10.926 10.39 17.15 24.307 45.58 42.878 96.272 53.034 163.91z"/></symbol><symbol id="H" preserveAspectRatio="none" viewBox="0 0 1300 2000"><path stroke="#44f" stroke-linecap="round" stroke-linejoin="round" stroke-width="6" fill="none" d="M485.032 934.425C628.154 966.247 751.39 948.2 856.387 912.43m-371.68-8.815c157.123 36.8 286.775 11.083 397.607-32.622M507.87 679.887l87.077 180.373m160.64-12.268l-81.542-168.908M892.372 857.62C872.054 824.923 860 784.177 860 740c0-54.59 18.405-103.94 48.065-139.335m189.598 662.027c-23.93-244.9-111.058-277.296-205.313-405.126l132.972-159.913M1300 923.53L660.366 396.772m-338.91 221.77L.788 939.212M321.114 618.57C419.82 682.947 485 793.9 485 920c0 83.944-28.89 161.184-77.327 222.436M166.038 568.35c222.81 85.35 455.935 122.608 741.864 32.315m-233.89 77.985c66.782-5.852 136.1-18.43 208.503-39.043m-507.723 21.675c43.554 8.766 87.977 15.09 133.48 18.47m-370.97-90.4c41.734 16.472 83.96 31.38 126.898 44.2m615.884-55.726c-264.41 78.944-479.532 46.19-688.847-31.994m646.678-2.77C603.554 606.6 413.05 578.63 222.995 509.63m586.32 9.922c-215.428 54.1-390.783 28.357-568.548-35.35m539.58 11.504C583.126 540.992 422.05 516.867 256.16 457.9m284.955 30.687c-93.46-4.626-181.468-25.78-271.814-57.79m481.636 40.68c-52.358 10.8-101.99 16.482-149.863 17.777m-73.677 162.076L628.944 861.68m96.37-7.394l-97.62-202.212m-66.243.795l100.65 208.488m31.964-2.793l-99.313-205.72M475.907 839.526c160.526 43.72 283.216 17.466 395.16-28.663M482 872.115c160.352 40.145 287.863 12.7 399.987-33.312M0 715.77L502.973 0M307.836 277.857C288.682 469.584 186.993 581.984 63.685 625.48m418.572 339.05c59 12.802 114.945 17.45 167.75 16.067m-165.85-36.124c58.492 12.9 113.775 17.574 165.9 16.178m-166.674-6.113c58.684 12.824 114.244 17.478 166.657 16.09m-169.134 3.837c59.417 12.832 115.84 17.498 169.12 16.12m-.023 28.817c-68.6 1.798-131.9 13.776-189.706 31.29m18.904-66.365c59.965 12.916 116.974 17.622 170.823 16.247m-.03-1.148c-65.257 1.666-125.873 12.263-181.487 28m181.453 11.922c-72.95 1.954-139.695 15.805-200.344 35.65m200.362-45.628c-70.625 1.868-135.533 14.705-194.666 33.3m194.68-53.256c-66.826 1.728-128.71 12.966-185.355 29.53m12.646-44.8c16.7 3.592 33.177 6.557 49.427 8.938m.558-.033c-18.988 3.74-37.473 8.138-55.443 13.072M980.56 751.45c-.365-3.706-.56-7.53-.56-11.45 0-27.616 9.952-50.22 20.043-62.264m-66.26 130C925.197 788.13 920 765.005 920 740c0-41.103 14.18-77.08 34.055-100.8m-41.293 193.8C898.556 806.77 890 774.746 890 740c0-47.846 16.29-90.5 41.06-120.068m193.77 615.3c-13.615-111.338-41.96-181.004-78.51-235.687-35.05-52.438-75.124-89.992-115.574-141.244l98.838-118.86m.114.34L1300 962.393m-234.594 332.2l-20.965-13.674C978.336 1237.804 935 1164.736 935 1080c0-47.182 13.333-90.316 36.648-127.134m72.08 363.407l-15.675-10.224C953.797 1257.617 905 1175.074 905 1080c0-56.187 16.956-107.635 46.23-150.684m49.143 430.312l-5.097-3.325C904.72 1297.24 845 1195.752 845 1080c0-74.36 24.612-142.69 66.254-197.867m170.17 277.76A65 70 0 0 1 1020 1090a65 70 0 0 1 17.291-47.542m58.6-287.5c2.945-15.558 13.38-62.448 34.11-74.948 25.842-15.585 34.723-11.668 62.036-30.683 31.58-21.985 61.132.186 20 25C1177.547 695.124 1180 690 1165 695c15 35 10 60-10 70m75-82.424c44.022-16.043 67.9 3.138 10 22.424-82.883 27.607-70.718-.297-10-22.424m1.724-28.197c39.536-13.043 58.998 5.446 5.11 24.032-28.255 9.746-45.072 12.574-52.426 11.18m52.258 16.396c42.513-16.043 65.572 3.138 9.657 22.424-80.042 27.607-68.294-.297-9.657-22.424m9.954 23.8c38.29-14.166 57.68 6 7.41 22.818-71.963 24.077-60.22-3.28-7.41-22.818m-3.824 46.316c9.16-9.437 15.742-18.45 17.203-25.648m-79.76 74.445c14.707-9.096 34.53-23.214 50.77-37.604m-12.934-25.58c13.8 28.31 34.27 51.3 14.56 106.336m12.414 9.653c12.692-33.117 12.724-58.555 6.767-78.837-4.667-15.888-12.027-28.085-17.97-39.347M1160 520c-15-55-85 15-30 30-55 15 15 85 30 30 15 55 85-15 30-30 55-15-15-85-30-30m16.158 30A16.158 16.336 0 0 1 1160 566.336 16.158 16.336 0 0 1 1143.842 550 16.158 16.336 0 0 1 1160 533.664 16.158 16.336 0 0 1 1176.158 550m-43.625-49.675c-36.3-73.766 91.223-73.766 54.934 0m22.21 22.21c73.766-36.3 73.766 91.223 0 54.934m-22.21 22.21c36.3 73.766-91.223 73.766-54.934 0m-22.21-22.21c-73.766 36.3-73.766-91.223 0-54.934M1130 550h-45m5 0a5 5 0 1 1-10 0 5 5 0 1 1 10 0m70-30v-45m0 5a5 5 0 1 1 0-10 5 5 0 1 1 0 10m30 70h45m-5 0a5 5 0 1 1 10 0 5 5 0 1 1-10 0m-70 30v45m0-5a5 5 0 1 1 0 10 5 5 0 1 1 0-10m11.482-81.482L1185 525m5 0a5 5 0 1 1-10 0 5 5 0 1 1 10 0m-18.522 36.48L1185 575m0 5a5 5 0 1 1 0-10 5 5 0 1 1 0 10m-36.48-41.48L1135 525m-5 0a5 5 0 1 0 10 0 5 5 0 1 0-10 0m18.518 36.482L1135 575m0 5a5 5 0 1 0 0-10 5 5 0 1 0 0 10m35.154 73.6l3.916 6.527m11.884-15.193l3.603 6.004m-50.052 23.785c-31.728-18.3-66.633-26.312-104.506-24.714m104.617 24.663C1093.767 634.375 1047.68 605.65 1000 655c39.672 4.96 54.752 44.346 137.923 20.602M1220 640c16.7-23.17 35.506-41.468 65-35-3.665 22.352-25.716 34.307-50 45M660.962.18c123.195 169.232 234.412 279.32 247.056 600.54M642.29 25.466C760.632 186.748 859.8 286.03 876.722 574.873M682.777 231.16c47.133 70.394 80.465 143.365 96.296 263.205m-99.587-212.07c3.567 6.1 7.012 12.233 10.33 18.456 24.307 45.58 42.878 96.272 54.72 165.254M0 586.153L411.892 0m219.57-5.844C640.644 20.33 690 161.86 690 180c0 20-10 60-10 70s0 80-10 120-60 130-90 130-70.354-34.592-100-30c-70.89 10.98-142.67-126.598-130-130 0 0-5.347 10.755-10 10-17.9-2.903-28.81-31.84-34.625-54.087m-141.218 56.632C130.484 313.772 71.376 310.312 10 310c24.698-11.302 55.318-13.788 70-40 19.5 12.84 44.295 11.37 70.358 6.438m-32.463 46.173L344.595-.001M50.197 311.195l4.395-1.785c10.375-4.38 21.25-10.634 30.03-20.346 17.087 6.838 35.606 6.885 53.746 4.514M90 90c50 50-6.776 124.444 29.752 149.356 50.522 34.455 76.102-27.914 47.612-46.78C141.357 175.357 119.228 211.72 140 220c13.525 5.4 20 0 20-10M90 90c56.222 42.374 109.51-27.47 141.655 5.027 36.78 37.18-11.958 74.012-32.41 52.48-22.33-23.51 11.17-52.634 23.5-31.037 8.028 14.062-.294 19.99-9.9 16.875M190 220c17.04-28.965-18.498-48.18-40-70 27.148 10.568 55.142 33.88 80 10m40.122-53.906c-4.394-39.668-30.887-72.24-53.548-106.04m65.77 88.566C274.242 54.85 253.2 26.54 234.7-.08m83.956 132.747L310 85l45-5-5-50 44.268-4.92M274.19 195.957L265 150l47.563-8.648m-78.115 111.163L225 210l45.754-9.15m-71.392 101.598L190 265l42.277-9.395m-68.12 96.94L150 310l47.383-4.738m216.504-178.3c81.195-20.044 121.84-71.68 157.847-126.924m-54.164.03c-16.37 23.325-33.164 42.983-55.437 58.05M535.716.083c-24.8 36.445-50.754 66.71-92.73 85.517M553.765.072c-31.093 46.8-64.663 87.322-126.322 107.456m243.274 2.953C628.164 83.296 600.622 42.847 575.76.03m52.706.042c3.462 5.47 6.958 10.744 10.537 15.816M610.812.125c12.792 20.952 26.05 39.934 41.923 56.083M593.293.18c19.568 32.943 40.447 62.822 69.325 85.45M340 265c10 55-15 45 0 25m85-90c32.57-21.833 65.334-43.275 130 0-2.1-1.048 2.388 5.3.447 3.986C520 180 475.77 168.206 425 200m180-5c31.44-37.48 60-20 85-10-25-5-60-20-85 15v-5m0 0c-10 90 20.912 95.608 20 150 0 10-30 5-30 20m-35-45c-21.322.138-52.198 34.45-10 35 7.172.094 17.26-10.366 22.04-10.045 38.618 2.596-.877 5.28-12.04 5.045m-35 40v10l5-5-5-5m105 0v10l-5-5 5-5m-5 5c-5 0-25-5-30-5s-10 5-15 5-15-5-20-5-20 5-30 5m30 20c5 15 40 15 40 0M435 245c28.544 10.017 49.297-25 75-25 30 0 44.732 33.14 50 30m-95-10c22.444 55 85 0 95 10m125-25c-32.58-22.584-65 15-80 20 15 0 65 35 77.777-13.84M349.18 341.516l-.27-.086m1.795 11.032l-8.624-2.72m68.668 90.96c-43.2-9.513-86.26-22.346-130.32-37.862m38.583-71.28l-15.96-5.576m28.698 20.405L299.7 335.408m55.838 28.985c-19.184-5.81-38.61-12.26-58.427-19.293m64.714 31.584c-22.02-6.45-44.295-13.743-67.04-21.798m74.384 34.288c-25.25-7.108-50.758-15.332-76.825-24.544m85.167 37.182c-28.904-7.77-58.04-17.008-87.836-27.52m97.263 40.3c-33.023-8.4-66.216-18.744-100.176-30.714M397.92 427.55c-37.73-9.002-75.516-20.526-114.182-34.144m436.932 53.266c-32.205 5.738-63.266 9.475-93.49 11.385m41.862-53.992l-12.41 1.468m23.035 7.2a789.15 789.15 0 0 1-28.248 3.381m38.54 5.228c-14.873 2.208-29.482 3.968-43.868 5.298m54.382 3.187c-20.593 3.274-40.693 5.704-60.396 7.337m70.413 1.142c-26.25 4.426-51.717 7.503-76.587 9.326m-423.34 105.14l15.02-46.562m70.863-66.178l-44.98 126.765m80.303-115.646L294.35 580.02m77.575-117.717L339.45 592.2m68.86-121.387l-20.68 132.355m44.38 8.187c4.337-43.872 6.407-90.01 10.62-134.007m32.883 139.705l3.83-134.086m40.244 138l-3.948-134.22m47.898 136.18L547.57 491.203m58.68 131.648l-26.883-122.894m72.415 120.678l-45.255-131.65m83.503 128.174L639.73 487.22m96.05 123.74l-59.416-127.32m106.11 118.817l-74-123.317m127.934 110.785l-98.808-115.99M245.96 365.75c1.55 37.59-1.767 78.673-6.764 120.96m21.894-142.46c1.21 36.59-2.044 76.387-6.877 117.314m21.832-138.6c1.177 32.637-1.242 67.853-5.193 104.168m-41.305-38.012c1.682 37.378-1.516 78.258-6.44 120.374m-8.505-99.122c1.533 36.48-1.53 76.258-6.276 117.242m-8.672-95.952c1.354 34.734-1.41 72.422-5.793 111.27m-9.158-89.98c1.168 32.45-1.218 67.448-5.13 103.542m-9.824-82.175c.976 29.706-.99 61.52-4.35 94.338m-10.78-72.824c1.08 26.37-.233 54.456-2.84 83.47m-12.317-61.925c1.112 22.584.414 46.466-1.393 71.144m-13.548-49.915c.87 18.8.498 38.487-.71 58.777m-17.705-32.576c.44 13.78.247 28.01-.42 42.585M91.148 586.1c.266 9.206.254 18.612.01 28.185M291 301.73c.944 24.246-.12 49.93-2.338 76.445m809 884.515c-23.93-244.9-111.058-277.296-205.313-405.126l132.972-159.913m8.653 435.71l-58.09 42.568c-8.064 7.7-8.277 20.505-.473 28.468s20.61 8.008 28.47.1l48.168-54.16m-35.356-140.99l-31.076-22.71a20 20 0 0 0-11.125-4c-8.866-.402-16.936 5.087-19.82 13.48s.106 17.683 7.345 22.817l64.79 39.878m0 0l-59.602-27.54c-1.913-.596-3.905-.902-5.908-.906-9.998-.022-18.477 7.342-19.855 17.245s4.768 19.302 14.392 22.01l64.382 14.675m0 0l-61.17-4.64c-11.114.668-19.544 10.282-18.752 21.388s10.5 19.428 21.596 18.512l60.53-10.633m0 0l-61.285 15.983c-10.332 4.216-15.216 16.07-10.852 26.342s16.288 14.984 26.495 10.473l57.195-28.36m18.075 16.975l-46.82 73.927c-4.814 10.068-.458 22.128 9.678 26.796s22.132.14 26.654-10.064l29.286-82.678m0 0l-25.173 104.775c-1.47 11.068 6.407 21.195 17.496 22.497s21.096-6.726 22.23-17.833l6.324-53.887M1145 955c10 35-35 60-45-10-10 70-55 45-45 10-35 10-60-35 10-45-70-10-45-55-10-45-10-35 35-60 45 10 10-70 55-45 45-10 35-10 60 35-10 45 70 10 45 55 10 45m125 136.44c-10-70-55-45-45-10-35-10-60 35 10 45m-44.514-27.444c-19.862-6.953-37.333-16.293-51.414-29.11-25.365-23.09-41.373-57.883-41.07-114.582m-18.137 32.134c5.204 43.733 21.5 75.18 45.744 97.24 27.69 25.206 64.317 37.792 104.245 45.16m53.774-53.3c-6.904-37.404-17.927-72.71-39.093-101.524-17.397-23.683-41.763-42.338-75.112-53.48m7.7 24.01c22.292 9.904 38.656 24.103 51.295 41.31 14.532 19.783 24.032 44.13 30.678 71.05m-322.71-192.512c2.93 3.266 6.007 6.36 9.224 9.288 24.942 22.704 57.134 35.17 92.458 42.804m-13.31-23.995c-25.802-7.274-48.32-17.792-65.686-33.6-5.61-5.108-10.765-10.788-15.385-17.152m77.568-93.262c10.703 7.867 19.6 17.086 27.163 27.38 11.32 15.412 19.588 33.595 25.83 53.604m28.46 31.245c-6.314-32.318-15.93-62.9-32.796-88.9M1030 825a15 15 0 1 1-30 0 15 15 0 1 1 30 0m160 195a15 15 0 1 1-30 0 15 15 0 1 1 30 0m-30 130a15 15 0 1 1-30 0 15 15 0 1 1 30 0m70.86-24.34l-3.262 3.713m40.81-46.453l-37.547 42.74m50.988-58.04l-13.442 15.3m31.594-35.964l-18.153 20.664m-71.037 58.135l-87.43 99.522M1300 1024.228l-22.258 25.337m-83.073 71.836l-74.117 84.37m136.45-155.324l-2.125 2.418M1300 1001.5l-27.22 30.986m-134.826 130.747l-20.608 23.458m61.913-70.477l-22.05 25.1m67.13-76.414l-13.608 15.5m41.115-46.802l-11.84 13.478M1300 978.772l-33.032 37.6m-136.945 133.16l-16.314 18.57m50.955-58.003l-22.05 25.1m103.213-117.49l-67.278 76.584m118.216-134.567l-36.5 41.538m-109.317 101.7l-41.305 47.018m129.06-146.91l-74.22 84.487m120.69-137.383l-32.535 37.035m-114.437 107.538l-33.01 37.575M1230.43 989.78l-78.938 89.857m122.102-139l-29.6 33.683m-117.526 111.054l-26.27 29.903m70.98-80.796l-31.513 35.872m81.28-92.523l-32.072 36.508m73.126-83.24l-27.736 31.572m-118.388 112.035l-20.95 23.85m65.588-74.66l-31.34 35.674m81.294-92.54l-33.48 38.112m73.43-83.586l-26.857 30.572m-117.056 110.52l-17.55 19.976m109.756-124.937l-78.614 89.488m118.735-135.158l-27.03 30.77m-113.467 106.434l-15.566 17.72m102.958-117.2l-73.25 83.382m114.772-130.647l-28.3 32.213m-107.53 99.675l-15.528 17.675m55.428-63.095l-24.923 28.37m53.992-61.46l-14.944 17.01m70.22-79.93l-30.55 34.775m-99.296 90.303l-17.133 19.503m46.94-53.432l-13.685 15.578m68.36-77.814l-.19.217m33.972-38.67l-33.78 38.453m-88.494 78.007l-20.74 23.61m45.983-52.343l-7.887 8.978m93.334-106.244l-36.164 41.166m-85.29 74.36l-18.155 20.666m45.225-51.48l-1.266 1.44m4.922-5.603l-3.656 4.162m43.82-49.88l-1.966 2.24m40.947-46.61l-6.16 7.012m-116.45 109.828l-13.842 15.756m124.865-142.136l-8.308 9.457m-107.3 99.425l-18.12 20.627m122.155-139.05l-11.49 13.08m-105.783 97.687l-14.063 16.008m119.75-136.314l-3.764 4.285m-116.22 109.566l-9.15 10.416m44.475-50.627l-1.385 1.576m42.156-47.987l-3.742 4.26m36.045-41.03l-4.064 4.626M1021.632 932l-14.25 16.22m23.578-26.84l-9.33 10.62m13.392-15.244l-4.064 4.626m92.03-104.76l-24.24 27.593M1018.71 912.6l-21.14 24.063m113.836-129.582l-17.25 19.636m-91.07 80.94l-15.4 17.54m33.638-38.29l-3.725 4.24m36.56-41.616l-12.538 14.272m31.7-36.084l-2.544 2.896m29.055-33.073l-11.27 12.83m-100.32 91.47l-10.514 11.968m89.707-102.115l-65.154 74.166m85.968-97.86l-6.13 6.98M974.34 894.92l-6.587 7.498m92.78-105.615l-72.596 82.638m88.713-100.984l-1.972 2.245M961.39 886.937l-3.554 4.046m47.73-54.333l-30.883 35.154m77.883-88.656l-27.236 31.003m-75.91 63.683l-1.4 1.605m53.44-60.83l-38.857 44.232m44.357-50.492l-5.5 6.26m42.107-47.93l-36.608 41.67m-68.435 55.173l-.148.168m94.9-108.027l-81.545 92.824M264.263 633.31L.001 897.573"/></symbol><symbol id="I" preserveAspectRatio="none" viewBox="0 0 1300 2000"><g stroke="#44f" stroke-linecap="round" stroke-linejoin="round"><path stroke-width="3" fill="none" d="M1200 695c4.41 6.183 6.95 12.697 5 20m-.665 4.982c4.412 6.183 6.95 12.697 5 20m6.832 2.98c4.41 6.183 6.95 12.697 5 20M1195 650c1.03 15.056 40.208.06 35-5M550 455c15.323-7.56 30.583-14.284 45-10m-50-175c-8.282 10.548-23.954 12.98-40 15m140-10c16.677 2.2 19.875-1.846 25-5m-225-45c25 0 48.602-42.4 90 0m68.006 3.103C615 225 647.5 177.5 685 220m-157.484 4.238c1.583 3.945 2.484 8.48 2.484 13.307 0 15.213-8.954 27.545-20 27.545s-20-12.332-20-27.545c0-4.515.79-8.776 2.187-12.537m181.45-5.028c.88 3.105 1.364 6.485 1.364 10.02 0 15.213-8.954 27.545-20 27.545S635 245.213 635 230c0-1.304.066-2.587.193-3.843m138.92 362.787c16.877-3.39 33.955-7.247 51.246-11.594M602.93 608.195c14.445-.32 29.018-.976 43.732-1.988m-127.554.06a932.54 932.54 0 0 0 42.558 1.925m-128.37-11.69a978.48 978.48 0 0 0 42.62 5.825M343 578c15.542 3.88 31.167 7.432 46.89 10.63m-133.5-35.712c13.97 4.58 27.98 8.93 42.046 13.025m470.232 13.898c16.284-3.218 32.76-6.876 49.442-10.993m-217.342 29.457a926.35 926.35 0 0 0 42.548-1.842M518.82 596.3a920.08 920.08 0 0 0 41.649 1.934m-126.3-11.655c13.925 2.228 27.937 4.164 42.05 5.8m-130.79-24.038c15.256 3.814 30.587 7.31 46.01 10.46m-131.68-35.295c13.79 4.523 27.615 8.816 41.486 12.86m53.863-26.7c-14.278-3.594-28.51-7.485-42.72-11.65m124.8 28.8a969.17 969.17 0 0 1-39.595-7.38m120.09 16.996c-13.536-.996-26.97-2.3-40.32-3.9m114.84 6.18a867.53 867.53 0 0 1-36.509-.317M746.96 543.32c-13.386 2.465-26.626 4.62-39.732 6.474m28.687-24.63c12.727-2.26 25.6-4.81 38.597-7.655m-186.687 21.6c11.717-.096 23.527-.437 35.44-1.032M517.057 536.7c11.98.907 24.038 1.566 36.19 1.965M438.6 527.16a894.33 894.33 0 0 0 39.286 5.68M359.87 510.566a1014.41 1014.41 0 0 0 40.75 9.433m-120.884-32.874c12.704 4.192 25.41 8.172 38.134 11.924m51.683-27.175c-13.52-3.445-27.023-7.18-40.54-11.187m112.76 26.664a899.82 899.82 0 0 1-34.989-6.753m109.1 16.162a813.79 813.79 0 0 1-36.845-3.829m92.97 6.38c-7.908-.08-15.773-.277-23.598-.59m165.438-10.357a889.26 889.26 0 0 1-33.226 4.732m82.617 77.63c15.693-3.05 31.57-6.512 47.643-10.404m-212.266 28.1c13.666-.25 27.45-.812 41.366-1.698m-121.462-.38a907.63 907.63 0 0 0 40.738 1.943m-124.27-11.624a954.49 954.49 0 0 0 41.495 5.758M347.84 558.667a1073.91 1073.91 0 0 0 45.129 10.288M263.09 534.076c13.61 4.465 27.25 8.703 40.926 12.696m48.66-7.44c-14.407-3.62-28.763-7.538-43.086-11.73m86.454 21.674c-14.52-3.003-28.97-6.325-43.368-9.943m83.774 17.43c-13.54-2.213-27.003-4.715-40.406-7.487M517.96 566.4a898.94 898.94 0 0 1-40.888-3.906m117.265 6.122c-12.587.18-25.07.09-37.46-.258m195.544-15.9a983.56 983.56 0 0 1-40.828 6.781M730.388 516c12.113-2.104 24.35-4.47 36.725-7.11m-181.458 20.29c11.323-.068 22.734-.367 34.243-.906m-103.13-1.538c11.677.9 23.43 1.558 35.272 1.966m-112.713-11.494c12.883 2.17 25.83 4.065 38.858 5.667m-115.893-21.97a1004.27 1004.27 0 0 0 39.871 9.257M283.08 477.7c12.526 4.133 25.046 8.057 37.577 11.758m-47.525 16.356l-37.97-13.056m57.947-43.33l-27.986-9.572m4.66 75.377c-13.534-4.44-27.057-9.112-40.584-13.994m60.566-42.385l-29-9.93m106.367 32.624c-13.65-3.47-27.275-7.234-40.905-11.27m114.705 27.02c-11.94-2.042-23.83-4.33-35.688-6.847m110.942 16.3c-12.556-.998-25.025-2.283-37.423-3.84m102.56 6.385a806.24 806.24 0 0 1-31.697-.581m134.814 94.137c14.722-1.6 29.59-3.557 44.6-5.886m-48.33-3.73a975.77 975.77 0 0 0 43.956-5.69m-58.862-32.83c-12.035 1.154-23.96 2.055-35.787 2.713m28.392-21.835a897.39 897.39 0 0 0 39.914-4.531m-54.902-34.21a817.78 817.78 0 0 1-33.61 1.947M677 583.615a963.68 963.68 0 0 0 43.312-5.495m-50.764-13.767c-12.172 1.2-24.235 2.145-36.198 2.843m21.33-41.277a885.3 885.3 0 0 0 39.222-4.332m-46.716-15.04c-11.44.935-22.773 1.625-34.01 2.08m106.18-11.038c-11.555 1.914-22.988 3.583-34.31 5.014m133.616 24.86l-29.4 7.135m-28.6-55.02l-15.644 3.206m83.316 52.49a1104.58 1104.58 0 0 1-31.853 7.918m-25.903-55.537l-18.216 3.86m-552.2 44.868l14.266 4.407m-6.618-12.48l9.682 2.974m-2.673-11.258l5.736 1.753M.001 686.133l164.64-234.298M.001 651.346L145 445m-145 171.56l125.61-178.75m696.013-37.814c10.75 42.962 18.64 91.657 23.212 148.63m-32.09-28.447l-3.93-29.74c-5.163-39.085-12.283-73.743-21.15-105.17M892.513 587.95l-.817-13.955c-3.354-57.247-9.988-107.304-19.374-151.998m-33.663-14.634c10.513 44.62 18.077 95.135 22.168 153.983m-64.918-54.077l-1.965-14.87c-5.75-43.52-13.867-81.213-24.117-114.958m-36.63-15.904c12.135 34.014 21.74 72.39 28.672 118.272m42.525-87.355c10.975 41.17 19.186 87.86 24.237 142.696"/><g stroke-width="72"><use xlink:href="#C" height="100" width="100" transform="matrix(1 0 0 .972 600 951.4)"/><use xlink:href="#C" height="100" width="100" transform="matrix(1 0 0 .972 530 956.4)"/><use xlink:href="#C" height="100" width="100" transform="matrix(1 0 0 .972 460 961.4)"/></g></g></symbol><rect width="239" height="335" x="-119.5" y="-167.5" rx="12" fill="#fff" stroke="#000"/><use width="164.8" height="260.8" x="-82.4" y="-130.4" xlink:href="#D"/><use transform="rotate(180)" width="164.8" height="260.8" x="-82.4" y="-130.4" xlink:href="#D"/><use width="164.8" height="260.8" x="-82.4" y="-130.4" xlink:href="#E"/><use transform="rotate(180)" width="164.8" height="260.8" x="-82.4" y="-130.4" xlink:href="#E"/><use width="164.8" height="260.8" x="-82.4" y="-130.4" xlink:href="#F"/><use transform="rotate(180)" width="164.8" height="260.8" x="-82.4" y="-130.4" xlink:href="#F"/><use width="164.8" height="260.8" x="-82.4" y="-130.4" xlink:href="#G"/><use transform="rotate(180)" width="164.8" height="260.8" x="-82.4" y="-130.4" xlink:href="#G"/><use width="164.8" height="260.8" x="-82.4" y="-130.4" xlink:href="#H"/><use transform="rotate(180)" width="164.8" height="260.8" x="-82.4" y="-130.4" xlink:href="#H"/><use width="164.8" height="260.8" x="-82.4" y="-130.4" xlink:href="#I"/><use transform="rotate(180)" width="164.8" height="260.8" x="-82.4" y="-130.4" xlink:href="#I"/><use xlink:href="#B" height="32" width="32" x="-114.4" y="-156"/><use xlink:href="#C" height="26.769" width="26.769" x="-111.784" y="-119"/><use xlink:href="#C" height="55.68" width="55.68" x="34" y="-132.16"/><g transform="rotate(180)"><use xlink:href="#B" height="32" width="32" x="-114.4" y="-156"/><use xlink:href="#C" height="26.769" width="26.769" x="-111.784" y="-119"/><use xlink:href="#C" height="55.68" width="55.68" x="34" y="-132.16"/></g><use xlink:href="#A" stroke="#44f" fill="none"/></svg>