<svg xmlns="http://www.w3.org/2000/svg" viewBox="0 0 128 128"><g fill="#333"><path d="M66.858 18.007c-18.88 0-24 13.4-24 27.2v31.06a12.94 12.94 0 0 0 12.94 12.94h22.1a12.94 12.94 0 0 0 12.96-12.92v-31.08c0-13.8-5.06-27.2-24-27.2z"/><path d="M77.92 90.707h-22.12a14.456 14.456 0 0 1-14.44-14.44v-31.06c0-18.508 9.056-28.7 25.5-28.7 16.682 0 25.5 9.924 25.5 28.7v31.06a14.461 14.461 0 0 1-14.439 14.44zm-11.06-71.2c-14.93 0-22.5 8.647-22.5 25.7v31.06a11.453 11.453 0 0 0 11.44 11.44h22.118a11.453 11.453 0 0 0 11.442-11.422V45.207c0-17.053-7.57-25.7-22.5-25.7z"/></g><path d="M115.678 99.407a8 8 0 0 0-5.68-6.38l-31.14-8.52v-10h-24v10l-31.14 8.52a8 8 0 0 0-5.7 6.38l-1.16 7.02a123.402 123.402 0 0 0 50 10 123.801 123.801 0 0 0 50-10z" fill="#dcb091"/><path d="M93.798 94.987l16.2 4a8 8 0 0 1 5.68 6.38l.24 1.42a123.701 123.701 0 0 1-49.06 9.64 123.801 123.801 0 0 0 50-10l-1.18-7.02a8 8 0 0 0-5.68-6.38l-11.5-3.38v.26a23.563 23.563 0 0 1-4.7 5.08zm-70.08 4.02l16.82-4.14a32.748 32.748 0 0 1-4-4.96v-.6l-12.66 3.72a8 8 0 0 0-5.7 6.38l-1.32 7.02.94.38.22-1.42a8 8 0 0 1 5.7-6.38z" fill="#e6f2f0"/><path d="M23.838 109.147a124.001 124.001 0 0 0 43.02 7.28 123.702 123.702 0 0 0 49.06-9.7l-.24-1.42a8 8 0 0 0-5.68-6.38l-16.2-4a55.727 55.727 0 0 1-6.36 4.44c-15.22 9.5-34.96 7.6-46.9-4.58l-16.82 4.14a8 8 0 0 0-5.7 6.38l-.22 1.42.56.22c1.74.72 3.5 1.42 5.28 2z" fill="#d5e7e5"/><path d="M66.858 21.487c16 0 21 9.18 21 20v4c3.46 0 4.56 3.4 4 8-.48 3.9-2 8-6 8v3c0 6-4.78 8.7-10.36 14.5a9.6 9.6 0 0 1-8.64 3.5 9.6 9.6 0 0 1-8.64-3.5c-5.58-5.8-10.36-8.5-10.36-14.5v-3c-4 0-5.52-4.1-6-8-.56-4.6.54-8 4-8v-4c0-10.76 5-20 21-20z" fill="#dcb091"/><path d="M91.858 53.487c.56-4.6-.54-8-4-8v-4c0-10.82-5-20-21-20a33.729 33.729 0 0 0-5.54.42v19.46a7.8 7.8 0 0 1-2.46 5.76.9.9 0 0 0 .4 1.54 5.16 5.16 0 0 1 3.6 3.76.98.98 0 0 0 1.54.58 3.498 3.498 0 0 1 1.16-.64.98.98 0 0 1 1.22.96v4.14a2.22 2.22 0 0 0 1.24 1.88c1.14.64.32 2.8-1.24 2.8a3.381 3.381 0 0 1-1.78-.46c-1.48-.74-2.86.78-2.54 1.36s.68 0 2.16.7a5.321 5.321 0 0 0 2.2.54v7.36a.8.8 0 0 0 .62.76c2.62.62 4 4.98-.62 6a2.48 2.48 0 0 0-1.96 2.32v1.78a9.061 9.061 0 0 0 2 0 9.6 9.6 0 0 0 8.64-3.5c5.58-5.8 10.36-8.5 10.36-14.5v-2.98c4-.04 5.52-4.14 6-8.04z" fill="#cba082"/><path d="M66.858 46.307c-6.32 0-12.8 2.32-18 2.22v7.34a4 4 0 0 0 2.88 3.78 63.882 63.882 0 0 0 30.24 0 4 4 0 0 0 2.88-3.78v-7.34c-5.2.2-11.68-2.22-18-2.22z" fill="#ad554b"/><path d="M58.718 47.227a.88.88 0 0 0 .44 1.46 5.16 5.16 0 0 1 3.7 3.76.98.98 0 0 0 1.54.58 3.498 3.498 0 0 1 1.16-.64.98.98 0 0 1 1.22.96v4.14a2.22 2.22 0 0 0 1.24 1.88 1.303 1.303 0 0 1 .14 2 63.543 63.543 0 0 0 13.72-1.78 4 4 0 0 0 2.98-3.7v-7.36c-5.2.2-11.68-2.22-18-2.22a46.532 46.532 0 0 0-8.14.92z" fill="#9f4d43"/><g fill="#333"><path d="M65.8 84.042a11.284 11.284 0 0 1-8.778-4.181l-3.646-3.546c-3.927-3.682-7.028-6.59-7.028-11.83v-1.668c-2.317-.537-5.18-2.576-5.99-9.148-.437-3.595.1-6.362 1.555-8.005a4.858 4.858 0 0 1 2.434-1.491v-2.687c0-13.864 7.99-21.5 22.5-21.5s22.5 7.636 22.5 21.5v2.687a4.858 4.858 0 0 1 2.434 1.491c1.455 1.642 1.992 4.4 1.555 8.003-.81 6.574-3.672 8.614-5.99 9.15v1.668c0 5.2-3.103 8.084-7.03 11.736-1.207 1.12-2.454 2.28-3.76 3.634a11.09 11.09 0 0 1-9.708 4.138c-.35.033-.702.048-1.05.048zm1.048-61.055c-12.94 0-19.5 6.224-19.5 18.5v4a1.5 1.5 0 0 1-1.5 1.5 2.051 2.051 0 0 0-1.688.667c-.844.953-1.144 3.013-.823 5.65.375 3.047 1.462 6.68 4.51 6.68a1.5 1.5 0 0 1 1.5 1.5v3c0 3.94 2.42 6.207 6.08 9.64 1.154 1.082 2.46 2.308 3.8 3.7.03.032.06.065.088.1a8.308 8.308 0 0 0 7.374 3.068 1.525 1.525 0 0 1 .313 0 8.121 8.121 0 0 0 7.248-3.058 1.358 1.358 0 0 1 .096-.11c1.38-1.436 2.734-2.693 3.927-3.802 3.657-3.4 6.074-5.645 6.074-9.538v-3a1.5 1.5 0 0 1 1.5-1.5c3.05 0 4.136-3.634 4.51-6.683.32-2.637.02-4.697-.823-5.65a2.051 2.051 0 0 0-1.689-.667 1.5 1.5 0 0 1-1.5-1.5v-4c0-12.276-6.56-18.5-19.5-18.5z"/><path d="M66.858 17.207c18 0 24 14.14 24 22v4c0 6.9-6 6-6 12 0-6-2.94-7.22-6-8-8-2-10-4-12-8.18-2 4.18-4 6.18-12 8.18-3.06.78-6 2-6 8 0-6-6-5.1-6-12v-4c0-7.86 6-21.98 24-22z"/><path d="M84.858 56.207a1 1 0 0 1-1-1c0-5.274-2.274-6.273-5.247-7.03-7.152-1.79-9.796-3.666-11.753-7-1.957 3.334-4.6 5.212-11.757 7-2.97.756-5.243 1.755-5.243 7.03a1 1 0 1 1-2 0c0-2.457-1.112-3.483-2.52-4.782-1.63-1.504-3.48-3.2-3.48-7.218v-4c0-8.882 6.787-22.98 25-23h.001c18.213 0 25 14.107 25 23v4c0 4.008-1.848 5.713-3.48 7.218-1.41 1.3-2.52 2.325-2.52 4.782a1 1 0 0 1-1 1zm-18-18.18a1 1 0 0 1 .902.568c1.816 3.796 3.438 5.666 11.34 7.642 2.4.612 4.918 1.555 6.087 4.658a13.491 13.491 0 0 1 1.835-1.94c1.52-1.403 2.835-2.615 2.835-5.748v-4c0-8.12-6.244-21-23-21-16.755.02-23 12.89-23 21v4c0 3.132 1.314 4.344 2.835 5.748a13.491 13.491 0 0 1 1.835 1.94c1.17-3.102 3.685-4.045 6.082-4.657 7.907-1.977 9.53-3.847 11.345-7.643a1 1 0 0 1 .902-.568z"/></g><path d="M42.338 33.587a40.381 40.381 0 0 0-1.38 8.46c4.72-2.96 15.6-3.5 26-3.5s21.06.54 25.84 3.44a39.498 39.498 0 0 0-1.4-8.5c-4.54-3.2-13.76-5.42-24.54-5.42s-20 2.26-24.52 5.52z" fill="#d5e7e5"/><path d="M63.725 33.1l3.098-3.096 3.096 3.098-3.098 3.096z" fill="#b9cdca"/><path d="M40.958 43.546a1.5 1.5 0 0 1-1.498-1.583 41.92 41.92 0 0 1 1.431-8.773 1.5 1.5 0 0 1 .569-.82c4.964-3.58 14.695-5.803 25.398-5.803 10.686 0 20.42 2.182 25.404 5.694a1.504 1.504 0 0 1 .581.822 41.11 41.11 0 0 1 1.453 8.823 1.5 1.5 0 0 1-2.276 1.363c-4.76-2.888-16.583-3.222-25.062-3.222-8.58 0-20.528.34-25.203 3.27a1.501 1.501 0 0 1-.797.229zm2.687-9.04a38.985 38.985 0 0 0-.961 5.055c4.64-1.73 12.353-2.516 24.274-2.516 8.29 0 18.148.31 24.12 2.5a38.137 38.137 0 0 0-.981-5.119c-4.59-2.958-13.607-4.852-23.24-4.852-9.64 0-18.65 1.93-23.213 4.94z" fill="#333"/><path d="M41.178 28.967a26 26 0 0 0 7.36 18.24 26.24 26.24 0 0 0 0-36.48 26.3 26.3 0 0 0-7.36 18.24z" fill="#d5e7e5"/><path d="M55.918 28.967a26.22 26.22 0 0 0-7.38-18.24v36.48a26.2 26.2 0 0 0 7.38-18.24z" fill="#b9cdca"/><path d="M42.018 22.447l6.52 6.52 6.52-6.52a26.637 26.637 0 0 0-2.58-6.42l-4 4-4-4a25.521 25.521 0 0 0-2.46 6.42z" fill="#5e463a"/><path d="M48.538 28.967l6.52-6.52a26.637 26.637 0 0 0-2.58-6.42l-4 4z" fill="#735343"/><path d="M48.538 48.707a1.498 1.498 0 0 1-1.075-.454 27.344 27.344 0 0 1-7.785-19.29 27.667 27.667 0 0 1 7.78-19.276 1.499 1.499 0 0 1 1.079-.459h.002a1.498 1.498 0 0 1 1.078.458 27.629 27.629 0 0 1 0 38.565 1.583 1.583 0 0 1-1.078.457zm.002-35.746a24.664 24.664 0 0 0-5.863 16.007v.006a24.345 24.345 0 0 0 5.858 16.006 24.623 24.623 0 0 0 .005-32.019z" fill="#333"/><path d="M59.778 33.107a1.36 1.36 0 0 1-1.32 1.32 1.32 1.32 0 0 1-1.3-1.32 1.3 1.3 0 0 1 1.3-1.3 1.32 1.32 0 0 1 1.32 1.3zm16.88 0a1.3 1.3 0 1 1-1.3-1.3 1.3 1.3 0 0 1 1.3 1.3z" fill="#b9cdca"/><path d="M66.613 106.928c-12.39 0-24.365-5.683-31.383-16.21a1.5 1.5 0 1 1 2.496-1.664c10.292 15.437 32.236 19.52 48.918 9.1a32.069 32.069 0 0 0 10.587-9.158 1.5 1.5 0 1 1 2.415 1.78 34.93 34.93 0 0 1-11.497 9.971 40.625 40.625 0 0 1-21.536 6.18z" fill="#333"/><path d="M65.48 117.934a124.068 124.068 0 0 1-49.213-10.129 1.5 1.5 0 0 1-.888-1.623l1.16-7.02a9.544 9.544 0 0 1 6.768-7.578l31.155-8.524.792 2.894-31.14 8.52a6.526 6.526 0 0 0-4.616 5.18l-.967 5.853a121.159 121.159 0 0 0 48.311 9.421 121.339 121.339 0 0 0 48.34-9.42l-.983-5.852a6.533 6.533 0 0 0-4.616-5.187l-31.12-8.515.792-2.894 31.14 8.52a9.552 9.552 0 0 1 6.764 7.582l1.18 7.017a1.5 1.5 0 0 1-.888 1.627 124.372 124.372 0 0 1-50.606 10.121l-1.363.007z" fill="#343433"/><path d="M58.203 107.817L66.83 99.2l8.627 8.627-8.627 8.627z" fill="#ae4355"/><path d="M64.383 107.83l2.46-2.46 2.46 2.46-2.46 2.46z" fill="#e4b351"/><path d="M66.83 117.944a1.5 1.5 0 0 1-1.061-.439l-8.626-8.627a1.499 1.499 0 0 1 0-2.121l8.626-8.626a1.499 1.499 0 0 1 2.121 0l8.627 8.626a1.5 1.5 0 0 1 0 2.121l-8.627 8.627a1.5 1.5 0 0 1-1.06.439zm-6.505-10.127l6.505 6.505 6.505-6.505-6.505-6.505z" fill="#333"/><path d="M80.438 83.227l-13.6 5.2-13.62-5.2-7.24 8.04 20.86 7.5 20.86-7.5-7.26-8.04z" fill="#d4c898"/><path d="M80.438 83.227l-13.6 5.2-13.62-5.2-3.64 4.14 17.26 6.2 17.24-6.2-3.64-4.14z" fill="#eee5bc"/><g fill="#333"><path d="M66.838 100.267a1.495 1.495 0 0 1-.507-.088l-20.86-7.5a1.5 1.5 0 0 1-.607-2.416l7.24-8.04a1.503 1.503 0 0 1 1.65-.398l13.084 4.996 13.065-4.995a1.5 1.5 0 0 1 1.649.395l7.26 8.04a1.5 1.5 0 0 1-.606 2.417l-20.86 7.5a1.495 1.495 0 0 1-.508.088zm-18.25-9.656l18.25 6.562 18.248-6.56-5.072-5.617-12.64 4.833a1.494 1.494 0 0 1-1.071.001l-12.66-4.833z"/><path d="M66.838 95.066a1.492 1.492 0 0 1-.507-.088l-17.26-6.2a1.499 1.499 0 0 1-.62-2.402l3.64-4.14a1.498 1.498 0 0 1 1.662-.411l13.084 4.996 13.065-4.995a1.498 1.498 0 0 1 1.662.411l3.64 4.14a1.5 1.5 0 0 1-.619 2.402l-17.24 6.2a1.498 1.498 0 0 1-.508.088zM52.16 86.7l14.676 5.272L81.496 86.7 80 85l-12.626 4.828a1.494 1.494 0 0 1-1.071.001L53.656 85z"/><circle cx="75.858" cy="54.487" r="1.5"/><path d="M81.378 51.127l-2.54-.26a12.14 12.14 0 0 0-2.42 0 18.059 18.059 0 0 0-2.46.26 10.523 10.523 0 0 1-2.78.16.46.46 0 0 1-.401-.512l.001-.008a.42.42 0 0 1 .34-.38 21.804 21.804 0 0 0 2.4-.86 8.757 8.757 0 0 1 2.72-.68 10.395 10.395 0 0 1 2.84.32 11.557 11.557 0 0 1 2.58 1.02.46.46 0 0 1 .201.619l-.001.001a.42.42 0 0 1-.46.24z"/><circle cx="57.898" cy="54.487" r="1.5"/><path d="M52.078 50.267a11.557 11.557 0 0 1 2.58-1.02 10.395 10.395 0 0 1 2.84-.32 8.62 8.62 0 0 1 2.72.68 21.804 21.804 0 0 0 2.4.86.46.46 0 0 1 .325.564l-.005.016a.48.48 0 0 1-.38.34 11.445 11.445 0 0 1-2.78-.16l-2.46-.26a12.2 12.2 0 0 0-2.42 0 22.317 22.317 0 0 0-2.54.26.46.46 0 0 1-.519-.392l-.001-.008a.46.46 0 0 1 .24-.56z"/></g><path d="M68.738 67.427a4.64 4.64 0 0 1-1.82.42c-.48 0-.52 0-1.58-.42-1.88-.66-2 1.64-5.46 2.76l2.16 1.72a4.22 4.22 0 0 0 3.18 1.16h3.28a4.8 4.8 0 0 0 3.42-1.26l2-1.62c-3.3-1.08-3.3-3.46-5.18-2.76z" fill="#916953"/><path d="M59.677 71.327a.5.5 0 0 1-.448-.72l.56-1.14a.5.5 0 0 1 .897.44l-.56 1.14a.5.5 0 0 1-.449.28z" fill="#cba082"/><path d="M74.08 71.327a.5.5 0 0 1-.451-.283l-.56-1.16a.5.5 0 0 1 .9-.435l.56 1.16a.5.5 0 0 1-.45.717z" fill="#b28a6f"/><path d="M66.858 65.436a4.583 4.583 0 0 1-2.335-.579 3.137 3.137 0 0 0-1.665-.421.75.75 0 1 1 0-1.5 4.584 4.584 0 0 1 2.335.579 3.502 3.502 0 0 0 3.329 0 4.583 4.583 0 0 1 2.335-.579.75.75 0 0 1 0 1.5 3.137 3.137 0 0 0-1.665.421 4.584 4.584 0 0 1-2.335.579zm6.242 5.312a2.661 2.661 0 0 1-1.252-.298 5.186 5.186 0 0 0-2.175-.464 9.305 9.305 0 0 0-2.69.286l-.12.03-.12-.03a10.901 10.901 0 0 0-2.5-.287 6.236 6.236 0 0 0-2.232.401 4.385 4.385 0 0 1-1.771.319.5.5 0 1 1 0-1 3.45 3.45 0 0 0 1.427-.258 7.241 7.241 0 0 1 2.553-.461 11.231 11.231 0 0 1 2.636.286 10.336 10.336 0 0 1 2.862-.286 6.127 6.127 0 0 1 2.541.552 1.842 1.842 0 0 0 1.19.19.5.5 0 0 1 .1.995l-.45.024z" fill="#674848"/></svg>