<svg xmlns="http://www.w3.org/2000/svg" xmlns:xlink="http://www.w3.org/1999/xlink" viewBox="0 0 128 128"><style>.B{stroke-linejoin:round}.C{fill:none}.D{stroke:#333}.E{stroke-width:3}.F{stroke-linecap:round}.G{fill:#f0eee2}.H{fill:#318ab7}</style><g fill="#333"><path d="M81.886 79.883c0 10.5-8.74 11.16-19.5 11.16s-19.56-.66-19.56-11.16a19.52 19.52 0 0 1 39.02 0z"/><path d="M66.226 61.183a19.22 19.22 0 0 0-19.4 18.98c0 7.22 4.12 9.78 10.2 10.68 1.7.1 3.5.12 5.36.12 10.76 0 19.5-.66 19.5-11.16a19.14 19.14 0 0 0-15.66-18.62z"/></g><path stroke-width="3.304" d="M81.886 79.883c0 10.5-8.74 11.16-19.5 11.16s-19.56-.66-19.56-11.16a19.52 19.52 0 0 1 39.02 0z" class="B C D"/><path fill="#c3d1dc" d="M35.146 47.183v11.72a19.8 19.8 0 0 0 19.78 19.82h14.12a19.82 19.82 0 0 0 19.82-19.82v-11.72z"/><path d="M35.046 47.363v11.5a20 20 0 0 0 19.78 20h14a20.24 20.24 0 0 0 20.22-20v-11.5z" class="B C D E"/><path d="M99.806 93.223c-9.22-2.3-20.76-5.72-37.62-5.72h-.16c-16.96 0-28.4 3.4-37.62 5.72-7.66 2-8.8 8.94-9.36 12.32a125.821 125.821 0 0 0 47 10 123.823 123.823 0 0 0 47-10c-.42-3.14-1.28-10.34-9.24-12.32z" class="H"/><path fill="#1a6c9d" d="M99.806 98.363l-8.56-2.14a120.539 120.539 0 0 0-29.06-3.56h-.16a119.995 119.995 0 0 0-28.98 3.56l-8.56 2.14a11.06 11.06 0 0 0-8 7.52 114.462 114.462 0 0 0 45.56 9.66 115.041 115.041 0 0 0 45.66-9.66 11.02 11.02 0 0 0-7.9-7.52z"/><path fill="#b28a6f" d="M50.046 78.543v6c0 8.58 4.56 14.92 12 20 7.44-5.08 12-11.42 12-20v-6z"/><path fill="#a48067" d="M74.046 78.543h-24v5.16l9.66 10.18a8.14 8.14 0 0 1 2.34 5.72v5c7.44-5.08 12-11.42 12-20z"/><path fill="#b28a6f" d="M62.186 87.543a10.18 10.18 0 0 0 9-3.44c5.58-5.8 10-9 10-15v-3c4 0 5.52-4 6-8 .56-4.6-.54-8-4-8v-4c0-10.82-4.92-20-21-20s-21 9.18-21 20v4c-3.46 0-4.56 3.4-4 8 .48 4 2 8 6 8v3c0 6 4.42 9.2 10 15a10.18 10.18 0 0 0 9 3.44"/><path fill="#a48067" d="M82.626 50.203c0-.62.24-3.18.24-3.82 0-10.82-4.72-20.2-20.8-20.2a35.129 35.129 0 0 0-5.42.42v20.98a7.82 7.82 0 0 1-2.54 5.78.92.92 0 0 0 0 1.28.961.961 0 0 0 .46.26 5.14 5.14 0 0 1 3.76 3.76.98.98 0 0 0 1.16.74.921.921 0 0 0 .38-.16 2.88 2.88 0 0 1 1.16-.64.98.98 0 0 1 1.195.701l.005.02a.983.983 0 0 1 0 .24v4.12a2.18 2.18 0 0 0 1.26 1.88c1.14.64.32 2.8-1.26 2.8v9.52a.78.78 0 0 0 .62.76c2.64.62 4 5-.62 6-2.18.44-5.12-2-6.12 0 0 .12-1.32 2.96 6.12 2.96a9.36 9.36 0 0 0 8.52-3.44c5.56-5.8 9.8-9.34 10.2-15.34a11.532 11.532 0 0 1 .18-2c3.72-.12 5.2-4.4 5.68-8.28.52-4.8-.72-8.34-4.18-8.34z"/><path fill="#ad968d" d="M41.186 47.183v2.92c-3.46 0-4.56 3.4-4 8 .48 4 2 8 6 8v3a11.56 11.56 0 0 0 2.84 7.48 19.641 19.641 0 0 0 9.02 2.14h14a19.841 19.841 0 0 0 9.54-2.44 11.461 11.461 0 0 0 2.6-7.18v-3c4 0 5.52-4 6-8 .56-4.6-.54-8-4-8v-2.92z"/><path fill="#a48b83" d="M54.106 53.363a.92.92 0 0 0 0 1.28.962.962 0 0 0 .46.26 5.14 5.14 0 0 1 3.76 3.76.98.98 0 0 0 1.16.74.92.92 0 0 0 .38-.16 2.88 2.88 0 0 1 1.16-.64.98.98 0 0 1 1.195.701l.005.02a.983.983 0 0 1 0 .24v4.12a2.18 2.18 0 0 0 1.26 1.88c1.14.64.32 2.8-1.26 2.8v10.36h6.82a19.841 19.841 0 0 0 9.54-2.44 11.461 11.461 0 0 0 2.6-7.18v-3c4 0 5.52-4 6-8 .56-4.6-.54-8-4-8v-2.92h-26.54v.4a7.82 7.82 0 0 1-2.54 5.78z"/><path fill="#917b77" d="M63.906 72.843a3.762 3.762 0 0 1-1.62.42c-.42 0-.46 0-1.4-.42-1.68-.66-1.76 1.38-4.86 2.5l2 2a4.52 4.52 0 0 0 3.24 1.16h2a5.12 5.12 0 0 0 3.48-1.26l1.78-1.88c-2.94-1.08-2.96-3.18-4.62-2.52z"/><path fill="#9f8a82" d="M87.046 58.643v-.54c.56-4.6-.54-8-4-8v-4c0-10.82-4.92-20-21-20s-21 9.18-21 20v4c-3.46 0-4.56 3.4-4 8v.62a170.253 170.253 0 0 0 24.7 1.82 170.198 170.198 0 0 0 25.3-1.9z"/><path fill="#9b837e" d="M82.626 50.203c0-.62.24-3.18.24-3.82 0-10.82-4.72-20.2-20.8-20.2a35.129 35.129 0 0 0-5.42.42v20.98a7.82 7.82 0 0 1-2.54 5.78.92.92 0 0 0 0 1.28.961.961 0 0 0 .46.26 5.14 5.14 0 0 1 3.76 3.76.98.98 0 0 0 1.16.74.921.921 0 0 0 .38-.16 2.88 2.88 0 0 1 1.16-.64.98.98 0 0 1 1.195.701l.005.02a.983.983 0 0 1 0 .24v.98a170.655 170.655 0 0 0 24.52-1.84v-.36c.58-4.6-.66-8.14-4.12-8.14z"/><path d="M83.186 50.103v-4c0-10.82-4.92-20-21-20s-21 9.18-21 20v4c-3.46 0-4.56 3.4-4 8 .48 4 2 8 6 8v3c0 6 4.6 9.58 10 15a10.38 10.38 0 0 0 9 3.44 10.18 10.18 0 0 0 9-3.44c5.58-5.8 10-9 10-15v-3c4 0 5.52-4 6-8 .56-4.6-.54-8-4-8z" class="B C D E"/><g fill="#606060"><path d="M56.166 59.663a9.4 9.4 0 0 0-2.58-1.62h-.12a8.72 8.72 0 0 0-6.52.6l-.62.32.5.48a5.54 5.54 0 0 0 1.5 1.02l.32.14.24-.24a4.46 4.46 0 0 1 3.06-1.54 1.42 1.42 0 0 0-.5 1.1 1.5 1.5 0 0 0 3 0 1.215 1.215 0 0 0 0-.26 14.071 14.071 0 0 1 1.14.86 5.145 5.145 0 0 0 .78.6.56.56 0 0 0 .26 0 .48.48 0 0 0 .42-.24.52.52 0 0 0-.18-.7 6.54 6.54 0 0 1-.7-.52zm20.88-1.1a8.72 8.72 0 0 0-6.52-.6h-.12a9.098 9.098 0 0 0-2.58 1.62 6.56 6.56 0 0 1-.64.5.5.5 0 0 0-.215.674l.015.026a.52.52 0 0 0 .44.24.56.56 0 0 0 .26 0 6.368 6.368 0 0 0 .78-.6l1-.78v.18a1.5 1.5 0 1 0 3 0 1.48 1.48 0 0 0-.48-1.1 4.36 4.36 0 0 1 3.16 1.54l.24.24.32-.14a5.182 5.182 0 0 0 1.48-1.02l.52-.48zm-30-3.32a7.516 7.516 0 0 1 2.64-1.08 9.52 9.52 0 0 1 2.82 0 26.275 26.275 0 0 1 2.68.62 16.739 16.739 0 0 0 2.44.56 1.02 1.02 0 0 1 .921 1.11l-.001.01a1.02 1.02 0 0 1-1.12.9h-.16a18.251 18.251 0 0 1-2.64-1 23.782 23.782 0 0 0-2.4-.94 7.518 7.518 0 0 0-2.46-.38 3.819 3.819 0 0 0-2.32.74.36.36 0 1 1-.44-.56zm29.28.64a3.68 3.68 0 0 0-2.3-.74 7.457 7.457 0 0 0-2.46.4c-.8.24-1.6.6-2.42.94a18.019 18.019 0 0 1-2.68.98 1.026 1.026 0 0 1-.46-2h.18a16.299 16.299 0 0 0 2.42-.54l2.68-.64a8.881 8.881 0 0 1 2.82 0 7.258 7.258 0 0 1 2.64 1.06.36.36 0 0 1 .124.494l-.004.006a.36.36 0 0 1-.494.124l-.006-.004zm4.72 2.66c0-5 4-7.64 4-14.16 0-10.44-5.74-20-23-20s-23 9.5-23 20c0 6.52 4 10.16 4 15.16v-7c17.06 0 21.74-2.6 26-8.7 2 3.46 5.02 6.36 12 8.7z"/><path d="M42.366 59.543l-.28-7a.94.94 0 0 1 .88-.96l7.08-.48a58.46 58.46 0 0 0 7-1.02 18.842 18.842 0 0 0 6.14-2.46 18.004 18.004 0 0 0 4.62-4.6 1.4 1.4 0 0 1 1.955-.314q.023.017.045.034a1.341 1.341 0 0 1 .38.44 15.381 15.381 0 0 0 4.62 5.2 27.999 27.999 0 0 0 6.48 3.32.96.96 0 0 1 .6.9c0 2-.2 4-.3 6a.68.68 0 0 1-1.36 0c0-2-.24-4-.3-6l.68.92a30.204 30.204 0 0 1-7.26-3.1 17.561 17.561 0 0 1-5.74-5.76h2.46a17.101 17.101 0 0 1-5.4 5.5 20.602 20.602 0 0 1-7.2 2.58 70.986 70.986 0 0 1-14.56.74l.96-.96-.28 7a.68.68 0 0 1-.699.66.7.7 0 0 1-.521-.64z"/></g><path d="M62.046 104.903v10.64" class="B C D E F"/><path d="M74.106 84.343l5 4v17l-10-6c2.96-4.08 4.18-8.94 5-15z" class="H"/><path d="M69.106 99.342l10 6v-17l-5-4" class="B C D E"/><path d="M50.106 84.343l-5 4v17l10-6c-2.96-4.08-4.18-8.94-5-15z" class="H"/><g class="B C D"><path d="M55.106 99.342l-10 6v-17l5-4m-5.06 4l-20.7 4.88c-7.72 2-8.28 9.06-8.82 12.28h.2a114.281 114.281 0 0 0 46.26 10 119.521 119.521 0 0 0 46.46-10c-.24-1.82-.16-10.66-8.7-12.32-1.86-.36-18.2-4.38-20.7-4.88" class="E"/><path stroke-width="2.8" d="M74.046 81.203v3.7c0 8.56-4.56 14.9-12 20-7.44-5.1-12-11.44-12-20v-4"/></g><path fill="#606060" d="M42.386 59.543c-.1-4-2.98-7.34-4-11.68a22.26 22.26 0 0 1-.3-6.52 21.82 21.82 0 0 1 1.58-6.36 18 18 0 0 1 9.12-9.34 30.499 30.499 0 0 1 12.7-2.62 32 32 0 0 1 12.78 2.14 18.2 18.2 0 0 1 9.64 8.88 21.881 21.881 0 0 1 1.86 6.32 23.882 23.882 0 0 1 0 6.54c-.68 4.52-4 7.74-4 11.64a.66.66 0 1 1-1.32.001v-.001a14.4 14.4 0 0 1 1.64-6.3 20.262 20.262 0 0 0 1.88-5.66 20.42 20.42 0 0 0-2-11.46 15.84 15.84 0 0 0-8.54-7.4 31.998 31.998 0 0 0-11.84-1.84 29.719 29.719 0 0 0-11.64 2.1 15.54 15.54 0 0 0-8.14 7.9 20.317 20.317 0 0 0-1.58 5.7 19.457 19.457 0 0 0 .1 5.9 30.836 30.836 0 0 0 1.9 5.76 16.701 16.701 0 0 1 1.48 6.3.66.66 0 0 1-1.32 0z"/><path stroke="#a27c67" stroke-width="1.5" d="M61.046 78.543h2.6" class="B C F"/><use class="G" xlink:href="#B"/><path fill="#dad6c1" d="M30.026 54.323v.76a1.72 1.72 0 0 0 .92 1.52l4.26 2.48v-8.78l-4.16 2.5a1.72 1.72 0 0 0-1.02 1.52z"/><use class="B C D E" xlink:href="#B"/><use class="G" xlink:href="#C"/><path fill="#dad6c1" d="M94.226 54.343v.76a1.84 1.84 0 0 1-.92 1.52l-4.26 2.48v-8.78l4.26 2.5a1.72 1.72 0 0 1 .92 1.52z"/><use class="B C D E" xlink:href="#C"/><path d="M63.046 16.323h-2a26 26 0 0 0-26 26v4.92c0 1.12 12 4.5 26.86 4.5s26.86-3.4 26.86-4.5v-4.98a26 26 0 0 0-25.72-25.94z" class="G"/><path fill="#fff" d="M43.146 49.883v-1.86a26 26 0 0 1 26-26h2a25.999 25.999 0 0 1 10.7 2.32l-.3-.32-.4-.14-.74-.7v-.1a26 26 0 0 0-17.36-6.76h-2a26 26 0 0 0-26 26v4.92c.1.52 3.16 1.66 8.1 2.64z"/><path d="M63.046 16.323h-2a26.16 26.16 0 0 0-26 26v4.5c0 2 12.1 4.82 26.96 4.82s27.04-2.84 27.04-4.28v-5a26.24 26.24 0 0 0-26-26.04z" class="B C D E"/><path fill="#fff" d="M88.886 47.323c0 1.62-12 4.36-26.86 4.36s-26.88-2.78-26.88-4.36 12-3 26.86-3 26.88 1.34 26.88 3z"/><path d="M36.606 48.383c3.62 1.52 13.62 3.26 25.42 3.26s21.78-1.74 25.4-3.26c-3.62-1.14-13.62-.76-25.4-.76s-21.8-.4-25.42.76z" class="G"/><path fill="#3a3a3a" d="M35.586 45.323v2.56a76.86 76.86 0 0 1 9.22-2.86 39.517 39.517 0 0 0-9.22.3zm52.86 0v2.56a77.992 77.992 0 0 0-9.22-2.86 39.517 39.517 0 0 1 9.22.3z"/><g class="B D E"><path fill="#fff" d="M41.866 29.143l-.6-1.3a6.12 6.12 0 0 1 3-8 1.04 1.04 0 0 1 1.38.5l1.14 2.8"/><path d="M82.226 29.143l.6-1.3a6.12 6.12 0 0 0-3-8 1.04 1.04 0 0 0-1.38.5l-1.14 2.8" class="G"/></g><path fill="#fff" d="M62.046 9.883a7.5 7.5 0 0 0-7.5 7.5v10.5h15v-10.5a7.5 7.5 0 0 0-7.5-7.5z"/><path d="M62.046 15.883a7.5 7.5 0 0 0-7.5 7.5v5.5h15v-5.5a7.5 7.5 0 0 0-7.5-7.5z" class="G"/><path d="M69.546 28.883v-11.5a7.5 7.5 0 1 0-15 0v11.5" class="B C D E"/><g fill="#3a3a3a"><circle cx="54.546" cy="32.403" r="1.26"/><circle cx="69.546" cy="32.403" r="1.26"/><circle cx="54.546" cy="37.103" r="1.26"/><circle cx="69.546" cy="37.103" r="1.26"/><circle cx="54.546" cy="41.803" r="1.26"/><circle cx="69.546" cy="41.803" r="1.26"/></g><g class="B C E"><path stroke="#606060" d="M41.186 50.103c-3.46 0-4.56 3.4-4 8 .48 4 2 8 6 8v3a12 12 0 0 0 2.8 7.5m37.22-26.5c3.46 0 4.56 3.4 4 8-.48 4-2 8-6 8v3a12 12 0 0 1-2.8 7.5"/><g class="D"><path d="M35.146 47.323c0 1.62 12 4.36 26.86 4.36s26.88-2.78 26.88-4.36" class="F"/><path d="M35.046 47.363v11.5a20 20 0 0 0 19.78 20h14a20.24 20.24 0 0 0 20.22-20v-11.5"/></g></g><path fill="#b7de75" d="M96.686 92.903a4.12 4.12 0 0 0-3.14-4c-.5-.12-4.72-1.26-10.2-2.2a2 2 0 0 0-2 1.2c-2 4.84-9.78 8.48-19.2 8.48s-17.42-3.62-19.34-8.5a2 2 0 0 0-2.1-1.2c-5.58.96-9.5 2-10.22 2.2a4.12 4.12 0 0 0-3.14 4v17.52a118.822 118.822 0 0 0 34.74 5.14 118.622 118.622 0 0 0 34.6-5.1z"/><path fill="#9ac458" d="M96.746 110.483v-13.78a144.464 144.464 0 0 0-20-4 28.681 28.681 0 0 1-14.66 3.62 28.681 28.681 0 0 1-14.66-3.62 133.581 133.581 0 0 0-20 4v13.78a120.262 120.262 0 0 0 34.74 5.04c17.46 0 23.38-2.46 34.58-5.04z"/><path d="M63.046 96.383a5 5 0 0 1 5 5v14" class="B C D E F" opacity=".08"/><path fill="#f7ffe9" d="M83.046 113.763l7.3-1.52v-24.12l-6.94-1.42h-.36z"/><path fill="#ebffc5" d="M90.266 112.223v-17.08l-7.32-1.46v20l7.2-1.46z"/><path fill="#f7ffe9" d="M33.766 112.203l7.3 1.54v-27h-.36l-6.94 1.42z"/><path fill="#ebffc5" d="M41.046 93.703l-7.3 1.46v17h.12l7.18 1.48z"/><g class="B C D E"><path d="M96.026 93.043a4 4 0 0 0-3.12-4 87.741 87.741 0 0 0-9.6-2.2 2 2 0 0 0-2.1 1.2c-2 4.84-9.74 8.66-19.16 8.66s-17.36-3.8-19.28-8.64a1.88 1.88 0 0 0-2.1-1.2 69.704 69.704 0 0 0-9.48 2.32 4.12 4.12 0 0 0-3.14 4v17.54a115.203 115.203 0 0 0 34 5 114.643 114.643 0 0 0 34-5.1z"/><path d="M61.046 96.763a5 5 0 0 1 5 5v14" class="F"/></g><rect width="20.28" height="6.94" x="51.866" y="107.643" fill="#65a391" rx="1"/><g class="C"><g class="B D E"><rect width="20.28" height="6.94" x="51.866" y="107.643" rx="1"/><rect width="4.12" height="8.38" x="69.426" y="106.683" rx="1"/></g><g stroke-miterlimit="10" stroke-width="1.5" class="F"><path stroke="#917b77" d="M62.286 69.223v1.54"/><path stroke="#826b68" d="M58.106 68.183c2 0 2 1.04 4.18 1.04s2-1.04 4.18-1.04"/><path stroke="#917b77" d="M55.906 74.523l-.68 1.4m13.42-1.4l.82 1.66"/><path stroke="#826b68" d="M68.526 75.343c-2 0-3.12-1.04-6.24 0-3.1-1.04-4.14 0-6.24 0"/></g></g><defs><path id="B" d="M31.046 56.603l4.26 2.48v-11.74l-4.26 2.54a1.78 1.78 0 0 0-.88 1.52v3.68a1.78 1.78 0 0 0 .88 1.52z"/><path id="C" d="M93.306 56.623l-4.26 2.48v-11.74l4.26 2.52a1.78 1.78 0 0 1 .88 1.52v3.72a1.84 1.84 0 0 1-.88 1.5z"/></defs></svg>