<svg xmlns="http://www.w3.org/2000/svg" xmlns:xlink="http://www.w3.org/1999/xlink" viewBox="0 0 128 128"><path fill="#b9e9f9" d="M103.72 90.24c-9.46-1.84-13.58-3.26-26.48-5.76h-30.3c-12.92 2.68-17.04 4-26.52 5.76a15.38 15.38 0 0 0-11.34 14.7 130.56 130.56 0 0 0 53 11.14 129.181 129.181 0 0 0 53-11.14 15.48 15.48 0 0 0-11.36-14.7z"/><g fill="#92d1ea"><path d="M103.72 95.88c-9.46-1.84-13.58-3.26-26.48-5.76h-30.3c-12.92 2.68-17.04 4-26.52 5.76a14.96 14.96 0 0 0-10.36 9.52 130.401 130.401 0 0 0 52 10.74 129.261 129.261 0 0 0 52-10.72 15.06 15.06 0 0 0-10.34-9.54z"/><path d="M103.72 90.24c-9.46-1.84-13.58-3.26-26.48-5.76a27.6 27.6 0 0 1-13.4 8.74l24 20.34a132.638 132.638 0 0 0 27.24-8.64 15.56 15.56 0 0 0-11.36-14.68z"/></g><path fill="#7fc2d6" d="M103.72 95.88c-9.46-1.84-13.58-3.26-26.48-5.76H70.8a31.398 31.398 0 0 1-6.98 3.16l24 20.34a131.445 131.445 0 0 0 13.12-3.36 134.806 134.806 0 0 0 12.78-4.72l.36-.14a15.08 15.08 0 0 0-10.36-9.52z"/><path fill="#faffff" d="M83.56 85.88h.12l-6.44-1.3h-30.3l-6.36 1.3v.18c6.4 7.72 10.54 10.8 21.4 13.78 10.68-2.96 14.94-5.96 21.58-13.96z"/><path fill="none" stroke="#3e64af" stroke-linejoin="bevel" stroke-width="1.877" d="M31.3 105.86h4.28V97.5H31.8v4.18h3.78"/><path fill="#e8b992" d="M46.94,73.32V84.48a28.4,28.4,0,0,0,15.14,9.28,28.28,28.28,0,0,0,15.14-9.28V73.32Z"/><path fill="#ddad8a" d="M77.22 73.32H46.94v5.58L64.3 93.08a27.419 27.419 0 0 0 12.92-8.58z"/><path fill="#f0f7f7" d="M77.22 84.48a27.6 27.6 0 0 1-13.4 8.74l5.08 4.32c6-2.44 9.66-5.6 14.66-11.58l.12-.08c-1.92-.5-4.02-.94-6.46-1.4z"/><path fill="none" stroke="#333" stroke-linejoin="round" stroke-width="3" d="M46.92,75.18v9.3a28.4,28.4,0,0,0,15.14,9.28A28.28,28.28,0,0,0,77.2,84.48v-9.3Z"/><use fill="#e8b992" xlink:href="#B"/><path fill="#ddad8a" d="M82 46.32v-3.14c0-14.28-4.92-23.5-19.86-23.5a28.277 28.277 0 0 0-6 .6v23.6a8 8 0 0 1-2.58 5.86.9.9 0 0 0 .4 1.56c3.06.86 4.68 1.44 6.58.96.64-.16 1.76.54 1.76 1.2v3.18a3.38 3.38 0 0 0 1.3 2.84 2.237 2.237 0 0 1-1.3 4.06c-1.66 0-2.24-1.12-4.46-1.12-1.32 0-1.12 1.72-1.16 1.68a5.18 5.18 0 0 1 2.24.58 6.799 6.799 0 0 0 3.36.88v6.72a3.88 3.88 0 0 0 2.6 3.6 3.16 3.16 0 0 1 2 3.32c0 6.1-10.86-.48-11.04 6a8.399 8.399 0 0 0 3.24.68h6.16a8.36 8.36 0 0 0 5.46-2.14c4.98-4.6 7.58-6.28 9.04-8.54a11.48 11.48 0 0 0 1.64-4.28l1.06-6.4h2l3.18-6.4v-4.24c.06-4.2-2.04-8.56-5.62-7.56z"/><path fill="#ddab85" d="M64.48 69.2a4 4 0 0 0-2 .26 1.28 1.28 0 0 1-.86 0 5.581 5.581 0 0 0-2.4-.26 5.54 5.54 0 0 0-3.64 3.88c2.72 0 2.36.2 4.4.22h4.2c2 0 1.34-.22 4.58-.22-1.68-1.9-1.36-3.52-4.28-3.88z"/><path fill="#fff" d="M65.6 73.2h-6.52a.6.6 0 0 1-.6-.6v-1.16a.6.6 0 0 1 .6-.6h6.62a.6.6 0 0 1 .6.6v1.16a.6.6 0 0 1-.591.608.588.588 0 0 1-.109-.008z"/><path fill="none" stroke="#cca183" stroke-linecap="round" stroke-miterlimit="10" stroke-width="1.526" d="M62.3 65.8v2.02m-1.88 7.76h4.06m-2.44 6.02h.5"/><g fill="#333"><circle cx="71.16" cy="54.4" r="1.6"/><circle cx="53" cy="54.4" r="1.6"/></g><path fill="#c6916d" d="M55.44 72.84l1.32-1.54a3.24 3.24 0 0 1 2.18-.98c1.12 0 2.26.1 3.38.2h-.14c1.1-.14 2.22-.18 3.32-.22a3.26 3.26 0 0 1 2.18 1L69 72.84a.38.38 0 0 1 0 .5.36.36 0 0 1-.44 0l-1.48-1.28a2 2 0 0 0-1.46-.44l-3.3.44h-.04l-3.36-.44a2 2 0 0 0-1.46.46l-1.52 1.28a.38.38 0 0 1-.5 0 .32.32 0 0 1 0-.52z"/><g stroke="#333" stroke-linejoin="round"><path fill="#333" stroke-width="2.213" d="M81.58 56c0-6.66 11.4-12.8 5.72-26.54-4.96-12-20.64-8.94-20.64-15.58-9.16 0-24.8 3.58-29.76 15.58-5.8 14 5.7 19.88 5.7 26.54 0-2 0-6.54 3.44-8.86a1.24 1.24 0 0 0 .333-1.722l-.013-.018-3.46-2.84a2.2 2.2 0 0 1 1.02-3.28 20.74 20.74 0 0 1 17.58.92 1.4 1.4 0 0 0 1.2 0 20.74 20.74 0 0 1 17.58-.92 2.2 2.2 0 0 1 1.02 3.28l-3.5 2.84a1.24 1.24 0 0 0 .302 1.727l.018.013c3.42 2.32 3.46 6.84 3.46 8.86z"/><g fill="none" stroke-width="3"><use xlink:href="#B"/><path stroke-linecap="square" d="M46.94 84.48c-12.92 2.68-17.04 4-26.52 5.76a15.38 15.38 0 0 0-11.34 14.7 130.56 130.56 0 0 0 53 11.14 129.181 129.181 0 0 0 53-11.14 15.48 15.48 0 0 0-11.36-14.7c-9.46-1.84-13.58-3.26-26.48-5.76"/></g></g><path fill="none" stroke="#c6916d" stroke-linecap="round" stroke-miterlimit="10" stroke-width="1.526" d="M56.96 64.36a5.18 5.18 0 0 1 2.54.66 5.32 5.32 0 0 0 5.08 0 5.4 5.4 0 0 1 2.5-.66"/><path fill="#333" d="M47.44 50.42a12 12 0 0 1 2.9-1.1 11.162 11.162 0 0 1 3.16-.18 19.439 19.439 0 0 1 5.64 2 .46.46 0 0 1 .24.6.48.48 0 0 1-.46.28 24.547 24.547 0 0 1-2.96-.52l-2.74-.42a14.599 14.599 0 0 0-5.5.12.48.48 0 0 1-.54-.36.5.5 0 0 1 .26-.42zm29.88.86a14.58 14.58 0 0 0-5.5-.12l-2.74.42a24.547 24.547 0 0 1-2.96.52.44.44 0 0 1-.478-.398.416.416 0 0 1-.002-.042.46.46 0 0 1 .28-.46 19.439 19.439 0 0 1 5.64-2 12.862 12.862 0 0 1 3.16.18 10.361 10.361 0 0 1 2.9 1.1.46.46 0 0 1 .18.62.48.48 0 0 1-.52.24z"/><defs><path id="B" d="M87.72 53.88c0-4.18-2.14-8.54-5.7-7.54v-3.16c0-14.28-4.94-23.5-19.86-23.5S42.3 28.9 42.3 43.18v3.14c-3.7-1-5.84 3.26-5.84 7.54v4.22l3.34 6.46h2l1.06 6.4a11.62 11.62 0 0 0 1.64 4.28c1.46 2.26 4 4 9.04 8.54a8.36 8.36 0 0 0 5.54 2.12h6.16a8.36 8.36 0 0 0 5.46-2.14c4.98-4.6 7.58-6.28 9.04-8.54a11.48 11.48 0 0 0 1.64-4.28l1.06-6.4h2l3.18-6.4v-4.24z"/></defs></svg>