<svg xmlns="http://www.w3.org/2000/svg" viewBox="0 0 128 128"><path d="M110.868 89.362l-26.82-5.72h-30.64l-26.82 5.72a16 16 0 0 0-11.5 15.32 130.198 130.198 0 0 0 53.62 11.5 128.8 128.8 0 0 0 53.62-11.5c0-5.7-3.8-13.38-11.46-15.32z" fill="#84303a"/><path d="M110.868 95.162l-26.82-5.72h-30.64l-26.82 5.72a15.42 15.42 0 0 0-10.5 10 130.218 130.218 0 0 0 52.64 11.08 129.179 129.179 0 0 0 52.62-11.06 15.44 15.44 0 0 0-10.48-10.02z" fill="#77252b"/><path d="M68.728 116.202a127.017 127.017 0 0 0 39.24-6v-4.46a17.5 17.5 0 0 0-5-12.24c-5.2-1.16-10-2.3-18.92-4h-30.64l-19.88 4.3a17.48 17.48 0 0 0-4.76 12v4.18a128.579 128.579 0 0 0 39.96 6.22z" fill="#9e3237"/><path d="M70.588 98.942a32.58 32.58 0 0 0 17.34-10.96l2.24-2.76-7.6-1.56h-27.64l-7.56 1.62 2.18 2.7a32.52 32.52 0 0 0 17.34 10.96l1.86.52z" fill="#84303a"/><path d="M53.408 72.162v11.5a28.559 28.559 0 0 0 15.32 9.58 28.76 28.76 0 0 0 15.32-9.58v-11.5z" fill="#e8b992"/><path d="M53.408 76.682l18.46 15.62a27.48 27.48 0 0 0 12.18-8.54v-11.6h-30.64z" fill="#dba983"/><g fill="#333"><path d="M68.728 94.74a1.481 1.481 0 0 1-.352-.042 30.25 30.25 0 0 1-16.125-10.082 1.501 1.501 0 0 1-.343-.955v-11.5a1.5 1.5 0 0 1 1.5-1.5h30.64a1.5 1.5 0 0 1 1.5 1.5v11.5a1.5 1.5 0 0 1-.346.958 30.453 30.453 0 0 1-16.118 10.078 1.505 1.505 0 0 1-.356.043zm-13.82-11.627a27.248 27.248 0 0 0 13.819 8.581 27.452 27.452 0 0 0 13.821-8.583v-9.45h-27.64z"/><path d="M69.14 117.683c-.187 0-.373-.002-.56-.001a130.815 130.815 0 0 1-54.11-11.633 1.498 1.498 0 0 1-.884-1.37 17.6 17.6 0 0 1 12.579-16.757l.133-.032 14.127-2.975 14.14-3.05.62 2.935-1.468.31-12.648 2.735-14.125 2.975a14.593 14.593 0 0 0-10.323 12.904 127.834 127.834 0 0 0 51.965 10.958l.547.001a126.389 126.389 0 0 0 51.657-10.956c-.393-5.262-3.986-11.324-10.332-12.93-4.398-.86-7.73-1.612-11.258-2.408l-15.484-3.294-1.472-.3.58-2.943 1.472.3 26.82 5.72c8.284 2.095 12.71 10.22 12.71 16.812a1.5 1.5 0 0 1-.88 1.366 129.424 129.424 0 0 1-53.807 11.635z"/></g><path d="M43.825 107.6H41.9v-8.62h-3.8v-1.916h4.758l.957.958v9.58z" fill="#e5d285"/><path d="M89.608 48.862v-6.54c.96-13.16-8-21.78-21.78-21.78s-22.74 8.6-21.86 21.78l-.32 6.5c-2.92-.46-4 3.38-3.3 6.84s1.74 8.8 5.64 8.8c.94 10.52-.7 9.44 10.68 18.72 1.82 2.24 5.48 3.06 9.12 3.06s7.32-.82 9.12-3.06c11.38-9.28 9.72-8.22 10.66-18.72 3.9 0 4.82-5.34 5.54-8.8s-.38-7.5-3.5-6.8z" fill="#e8b992"/><path d="M89.608 48.862v-6.54c.96-13.16-8-21.78-21.78-21.78a29.606 29.606 0 0 0-6 .6v23.84a7.8 7.8 0 0 1-2.56 5.7.9.9 0 0 0 .4 1.54c3 .86 4.6 1.42 6.46.94.62-.16 1.72.54 1.72 1.18v3.14a3.38 3.38 0 0 0 1.28 2.8 2.2 2.2 0 0 1-1.28 4c-1.62 0-2.2-1.1-4.4-1.1-1.3 0-1.1 1.7-1.14 1.64a4.761 4.761 0 0 1 2.2.58 6.759 6.759 0 0 0 3.3.86v6.62a3.82 3.82 0 0 0 2.5 3.52 3.1 3.1 0 0 1 1.88 3.26c0 5.84-10.12-.12-10.8 5.38a16.439 16.439 0 0 0 6.4 1.1c3.64 0 7.32-.82 9.12-3.06 11.38-9.28 9.72-8.22 10.66-18.72 3.9 0 4.82-5.34 5.54-8.8s-.38-7.4-3.5-6.7z" fill="#ddad8a"/><g fill="#cea080"><path d="M67.828 69.313a.65.65 0 0 1-.65-.65v-2.34a.65.65 0 1 1 1.3 0v2.34a.65.65 0 0 1-.65.65zm1.42 1.37l-1.38.62-1.52-.38a2.68 2.68 0 0 0-2 .3l-3.84 1.86c2.82.58 2.42 1.88 5.24 2.12l4.18-.14c2-.24 3.22-.66 5.08-3.74a12.562 12.562 0 0 1-4.32-.72 2 2 0 0 0-1.44.08z"/><path d="M59.347 74.172a.634.634 0 0 1-.247-.05.65.65 0 0 1-.353-.849l.42-1.02a.65.65 0 0 1 1.202.496l-.42 1.02a.65.65 0 0 1-.602.403zm15.9-1.46a.65.65 0 0 1-.615-.439l-.48-1.4a.65.65 0 1 1 1.23-.422l.48 1.4a.651.651 0 0 1-.404.826.665.665 0 0 1-.212.035z"/></g><path d="M75.088 71.542a5.578 5.578 0 0 1-1.8 1.1l-2 .26-4 .38-4 .1h-4a.293.293 0 0 1-.04-.58h.34l3.9-.54 3.78-.4h5.76a5.3 5.3 0 0 0 1.66-.68.32.32 0 0 1 .443.091l.017.03a.3.3 0 0 1-.06.24z" fill="#b78767"/><g fill="#333"><path d="M67.927 87.722H67.8c-4.658 0-8.27-1.237-10.192-3.488-9.92-8.092-10.33-8.723-10.843-16.162l-.17-2.304c-3.844-1.012-4.95-6.22-5.64-9.46l-.075-.352c-.544-2.545-.238-5.897 1.673-7.648a3.865 3.865 0 0 1 2.606-1.038l-.676-4.715a1.46 1.46 0 0 1-.011-.106c-.468-6.544 1.35-12.22 5.257-16.417 4.173-4.48 10.572-6.95 18.02-6.95S81.59 21.55 85.763 26.03c3.9 4.198 5.73 9.883 5.262 16.438-.002.036-.006.07-.01.106l-.675 4.707a3.899 3.899 0 0 1 2.657 1.043c1.652 1.513 2.288 4.516 1.62 7.65l-.123.58c-.705 3.355-1.732 8.25-5.49 9.217l-.164 2.3c-.5 7.436-.907 8.066-10.83 16.16-2.57 3.017-7.352 3.488-10.082 3.488zM45.216 50.27a.874.874 0 0 0-.636.251c-.827.757-1.17 2.914-.766 4.808l.076.355c.813 3.824 1.738 7.258 4.098 7.258a1.499 1.499 0 0 1 1.494 1.363l.277 3.56c.446 6.46.446 6.46 9.857 14.136a1.481 1.481 0 0 1 .216.216c1.294 1.593 4.2 2.506 7.976 2.506h.12c3.703 0 6.558-.9 7.855-2.506A1.481 1.481 0 0 1 76 82c9.412-7.676 9.412-7.676 9.844-14.13l.27-3.564a1.5 1.5 0 0 1 1.494-1.366c2.29 0 3.144-3.17 3.95-7.002l.125-.6c.48-2.262-.007-4.167-.712-4.812a1.089 1.089 0 0 0-1.2-.162 2.019 2.019 0 0 1-2.582-2.248l.85-5.925c.394-5.682-1.15-10.565-4.468-14.128-3.6-3.864-9.216-5.992-15.82-5.992s-12.225 2.13-15.824 5.994c-3.314 3.56-4.857 8.435-4.463 14.106l.853 5.946a2.02 2.02 0 0 1-2.568 2.231 1.844 1.844 0 0 0-.528-.09zm44.94-1.722l-.004.026zm-44.814.003l.003.02z"/><circle cx="76.508" cy="55.882" r="1.48"/><circle cx="58.388" cy="55.882" r="1.48"/><path d="M88.888 31.742c.38-8.62-13.8-17.06-13.8-17.06s-5.62 1.6-18.12 4.7a12 12 0 0 0-9.88 11.78c-2.84 4-3.04 9.52-2.42 13.76l.64 4.38c2.36 1.24 3.34 6.24 3.34 6.24v-10.86l2.96-2.96v-7.26h3.16c3.1.68 6.5 1.4 10.1 2a14.318 14.318 0 0 0 5.76 0l17.86-3.5-4.52 4.56v4l3 3.16v10.9s.98-5 3.34-6.24l.64-4.38a20.18 20.18 0 0 0-2.06-13.22z"/><path d="M86.97 56.57c-.032 0-.064-.001-.097-.004a.99.99 0 0 1-.894-.985V45.076l-2.728-2.873a.992.992 0 0 1-.272-.682v-4a.987.987 0 0 1 .287-.696l2.25-2.27-5.006.974-9.678 1.9a15.243 15.243 0 0 1-6.162.001c-3.544-.59-6.905-1.3-10.008-1.98h-2.063v6.27a.99.99 0 0 1-.29.7l-2.67 2.67v10.45a.99.99 0 0 1-1.961.191c-.346-1.756-1.42-4.815-2.83-5.556a.989.989 0 0 1-.519-.732l-.64-4.38c-.482-3.293-.795-9.466 2.414-14.22a12.984 12.984 0 0 1 10.69-12.439l18.024-4.68a.991.991 0 0 1 .777.102c.593.354 14.4 8.678 14.3 17.678a21.249 21.249 0 0 1 2.037 13.634l-.634 4.342a.989.989 0 0 1-.518.733c-1.585.832-2.6 4.378-2.83 5.555a.99.99 0 0 1-.97.8zm-2.01-15.444L87.686 44a.992.992 0 0 1 .272.682v5.626a5.907 5.907 0 0 1 1.438-1.562l.574-3.927a19.322 19.322 0 0 0-1.111-10.824l-3.9 3.934zm-38.736 7.58a5.912 5.912 0 0 1 1.437 1.562v-5.586a.991.991 0 0 1 .29-.7l2.67-2.67v-6.85a.989.989 0 0 1 .99-.989h3.16a1.031 1.031 0 0 1 .212.022c3.106.682 6.474 1.394 10.05 2a13.298 13.298 0 0 0 5.398.007l9.702-1.906 7.82-1.526a.989.989 0 0 1-.052-.362c.318-7.208-10.814-14.59-12.962-15.945-1.528.425-7.238 1.988-17.73 4.59a11.026 11.026 0 0 0-9.129 10.823.992.992 0 0 1-.183.57c-3.1 4.38-2.608 10.58-2.248 13.043z"/></g><path d="M67.8 67.203a5.901 5.901 0 0 1-2.865-.745 4.539 4.539 0 0 0-2.139-.546.75.75 0 0 1 .002-1.5h.002a6.037 6.037 0 0 1 2.855.731 4.387 4.387 0 0 0 4.279.003 6.044 6.044 0 0 1 2.861-.733h.002a.75.75 0 0 1 .002 1.5 4.546 4.546 0 0 0-2.145.549 5.892 5.892 0 0 1-2.856.742z" fill="#b78767"/><path d="M52.388 51.302a7.701 7.701 0 0 1 2.7-1.12 9.66 9.66 0 0 1 2.94 0c.96.16 1.88.4 2.78.64a17.491 17.491 0 0 0 2.54.58 1.06 1.06 0 0 1-.031 2.12 1.049 1.049 0 0 1-.189-.02h-.04a18.708 18.708 0 0 1-2.74-1.04 25.887 25.887 0 0 0-2.5-.98 8.003 8.003 0 0 0-2.56-.4 4.001 4.001 0 0 0-2.4.78.38.38 0 1 1-.46-.58s-.04.04-.04.02zm30.42.62a3.84 3.84 0 0 0-2.4-.78 8.001 8.001 0 0 0-2.54.42c-.84.26-1.66.62-2.52.98a17.218 17.218 0 0 1-2.78 1.02 1.04 1.04 0 0 1-.48-2h.18a15.266 15.266 0 0 0 2.52-.56l2.78-.66a9.064 9.064 0 0 1 2.94 0 7.603 7.603 0 0 1 2.74 1.1.38.38 0 0 1-.4.64z" fill="#333"/><path d="M68.828 77.132h-2a.651.651 0 0 1 0-1.301h2a.651.651 0 0 1 0 1.301zm-.9 5.9h-.5a.651.651 0 0 1 0-1.301h.5a.651.651 0 0 1 0 1.301z" fill="#cea080"/></svg>