<svg xmlns="http://www.w3.org/2000/svg" viewBox="0 0 128 128"><style>.B{stroke-miterlimit:10}.C{stroke-linecap:round}.D{stroke-width:3}</style><path fill="#e4b397" d="M112.856 96.023a8 8 0 0 0-5.68-6.38l-31.14-8.52v-10h-24v10l-31.14 8.52a8 8 0 0 0-5.7 6.38l-1.16 7.1a123.399 123.399 0 0 0 50 10 123.799 123.799 0 0 0 50-10z"/><path fill="#39a284" d="M64.036 113.123a123.799 123.799 0 0 0 50-10l-1.18-7.02a8 8 0 0 0-5.68-6.38l-28-7.72c-2 2.22-7.7 7.8-15.24 7.8s-13.28-5.58-15.24-7.8l-28 7.64a8 8 0 0 0-5.7 6.38l-.96 7.1a123.399 123.399 0 0 0 50 10z"/><path fill="#2e8d70" d="M59.396 89.123l1.82 1.88a10.54 10.54 0 0 1 2.82 7.14v14.98a123.799 123.799 0 0 0 50-10l-1.04-6.22-28.96-6.6a7.32 7.32 0 0 1-5.88-7.18l-2.12 1.88a17.64 17.64 0 0 1-10.6 4.66h-1.4a14.515 14.515 0 0 1-1.86-.12 21.679 21.679 0 0 1-2.78-.42z"/><path fill="#49b996" d="M48.796 82.003l-28 7.64a8 8 0 0 0-5.56 5.84l30.8-8.36a10.88 10.88 0 0 0 4.84-3.02 25.762 25.762 0 0 1-2.08-2.1z"/><g fill="none" stroke="#343433" class="D"><path d="M76.036 85.123v-8.3m-24 8.3v-8.3" class="B"/><path stroke-linejoin="round" d="M76.036 81.123l31.14 8.52a8 8 0 0 1 5.68 6.38l1.18 7.1a123.799 123.799 0 0 1-50 10 123.399 123.399 0 0 1-50-10l1.16-7.02a8 8 0 0 1 5.7-6.38l31.14-8.6" class="C"/></g><path fill="#e4b397" d="M64.036 18.103c16 0 21 9.18 21 20v4c3.46 0 4.56 3.4 4 8-.48 4-2 8-6 8v3.02c0 6-4.84 8.58-10.42 14.38a9.72 9.72 0 0 1-8.58 3.62 10 10 0 0 1-8.7-3.62c-5.58-5.82-10.3-8.38-10.3-14.38v-3c-4 0-5.52-4.1-6-8-.56-4.6.54-8 4-8v-4c0-10.84 5-20.02 21-20.02z"/><g fill="#e1ab90"><path d="M85.036 42.103v-4c0-10.82-5-20-21-20a33.246 33.246 0 0 0-5.5.42v20.74a7.8 7.8 0 0 1-2.5 5.86.9.9 0 0 0 .4 1.54 5.16 5.16 0 0 1 3.76 3.76.98.98 0 0 0 1.54.58 3.502 3.502 0 0 1 1.16-.64.98.98 0 0 1 1.22.96v4.14a2.22 2.22 0 0 0 1.24 1.88c1.14.64.32 2.8-1.24 2.8a3.379 3.379 0 0 1-1.78-.46c-1.48-.74-2.86.78-2.54 1.36s.78-.1 2.22.6a4.779 4.779 0 0 0 2.18.64v7.36a.72.72 0 0 0 .58.76c2.62.62 4 4.98-.62 6a2.48 2.48 0 0 0-2 2.4v.32a9.99 9.99 0 0 0 2 0 9.72 9.72 0 0 0 8.58-3.62c5.46-5.8 10.3-8.38 10.3-14.38v-3.02c4 0 5.52-4 6-8 .56-4.6-.54-8-4-8z"/><path d="M83.356 58.083c3.76-.22 5.22-4.2 5.68-8 .56-4.6-.54-8-4-8v-4c0-10.82-5-20-21-20s-21 9.18-21 20v4c-3.46 0-4.56 3.4-4 8 .48 3.9 2 8 6 8v3.04a18.3 18.3 0 0 0 3.8 8.86v-20.86c.18-9.42 2.34-10 12.68-14.12a10.42 10.42 0 0 1 7.84 0c15.86 6.72 14 10.62 14 14z"/></g><path fill="#d6a28b" d="M89.036 50.103c.56-4.6-.54-8-4-8v-4c0-10.82-5-20-21-20a33.51 33.51 0 0 0-5.52.42v17.68l3.56-1.26a6 6 0 0 1 4.26 0c13.48 6.76 13.36 5.86 13.06 15.44v18.52a10.76 10.76 0 0 0 3.64-7.78v-3.02c4 0 5.52-4.1 6-8z"/><g fill="#333"><path d="M66.036 100.223a1.9 1.9 0 1 1 0-.38 1.223 1.223 0 0 1 0 .38zm0 7a1.9 1.9 0 1 1 0-.38 1.223 1.223 0 0 1 0 .38zm-18.86-61.86a9.341 9.341 0 0 1 6.4-1.02c1.08.14 2.12.34 3.16.58a24.554 24.554 0 0 0 2.98.6 1.02 1.02 0 1 1-.26 2h-.12c-1.14-.3-2-.68-3.08-1.02l-2.94-.9a12.606 12.606 0 0 0-2.94-.48 4.361 4.361 0 0 0-2.78.78.36.36 0 1 1-.44-.56s.02.04.02.02z"/><circle cx="55.036" cy="49.963" r="1.5"/><path stroke="#333" stroke-width="1.007" d="M58.656 50.703c-1.16-.66-4.14-4.5-8-.66a4.939 4.939 0 0 1-1.34-.92 8.24 8.24 0 0 1 6-.56m14.24 2.14c1.16-.66 4.14-4.5 8-.66a4.939 4.939 0 0 0 1.34-.92 8.24 8.24 0 0 0-6-.56" class="B C"/><circle cx="73.036" cy="49.943" r="1.5"/><path d="M80.336 45.943a4.3 4.3 0 0 0-2.78-.82 13.766 13.766 0 0 0-2.98.44 29.38 29.38 0 0 0-2.94.9 27.343 27.343 0 0 1-3.12.98 1.026 1.026 0 1 1-.46-2h.16a29.623 29.623 0 0 0 2.96-.58 29.941 29.941 0 0 1 3.16-.58 9.22 9.22 0 0 1 6.4 1 .361.361 0 0 1-.4.6z"/></g><g fill="none" stroke="#d39e89" class="B C"><path d="M60.036 62.143c2 0 2 1.02 4 1.02s2-1.02 4-1.02"/><path d="M64.116 62.863v1.48m-4.08 5.7a4.36 4.36 0 0 0 3.12 1.12h2a5.16 5.16 0 0 0 3.38-1.2m-10.18-2.58l-.66 1.38m12.16-1.38l.66 1.38"/></g><path fill="#a56659" d="M65.756 65.643a3.679 3.679 0 0 1-1.56.4c-.4 0-.44 0-1.36-.4-1.6-.64-1.7 1.32-4.66 2.4l1.86 1.88a4.3 4.3 0 0 0 3.1 1.12h2a5 5 0 0 0 3.34-1.2l1.72-1.8c-2.82-.92-2.84-3.04-4.44-2.4z"/><g fill="none" class="B C"><path stroke="#743f40" d="M70.196 68.023c-2 0-2.98-.98-6 0-2.96-1-4 0-6 0"/><path stroke="#c68b71" stroke-width="1.5" d="M60.196 61.123c2 0 2 1 4 1s2-1 4-1"/></g><path fill="#333" d="M90.036 71.123c3.26-10 0-22 0-22 0-15.84-2.2-34-26-34s-26 18.44-26 34c0 0-3.26 12 0 22 0 0-4 4-4 14 0 0 14 10 30 10 15.62 0 30-9.84 30-9.84a20.94 20.94 0 0 0-4-14.16zm-17.42 4.38a9.72 9.72 0 0 1-8.58 3.62 10 10 0 0 1-8.7-3.62c-4-4.22-7.62-6.72-9.3-10v-18.38c.2-9.4 3.66-10.88 14-15.04a10.62 10.62 0 0 1 7.84 0c15.48 6.42 14 10.32 14 14v19.7c-1.84 3.14-5.32 5.64-9.26 9.72z"/><path fill="#222" d="M72.616 75.503a9.72 9.72 0 0 1-8.58 3.62 10 10 0 0 1-8.7-3.62c-5.58-5.82-10.3-8.38-10.3-14.38v4c0 6 4.72 8.56 10.3 14.38a10 10 0 0 0 8.7 3.62 9.72 9.72 0 0 0 8.58-3.62c5.58-5.84 10.42-8.38 10.42-14.38v-4c0 6-4.84 8.58-10.42 14.38z"/><g fill="none" stroke="#333" class="B D"><path d="M90.036 71.123c3.26-10 0-22 0-22 0-15.84-2.2-34-26-34s-26 18.44-26 34c0 0-3.26 12 0 22 0 0-4 4-4 14 0 0 14 10 30 10 15.62 0 30-9.84 30-9.84a20.94 20.94 0 0 0-4-14.16z"/><path d="M46.036 71.903v-24.78c.2-9.4 3.66-10.88 14-15.04a10.62 10.62 0 0 1 7.84 0c15.48 6.42 14 10.32 14 14v26.08"/></g><path fill="#444" d="M38.916 60.143a.36.36 0 0 1 .7-.14 58.7 58.7 0 0 0 8.14 16.42 25.44 25.44 0 0 0 14.78 9.72.36.36 0 0 1 0 .72 20.78 20.78 0 0 1-17.12-8.62 35.259 35.259 0 0 1-6.5-18.1zm1.12 24.98c6.56 1.54 16 4.26 23.1 4.46s15.9-2.46 22.9-4.46a41.119 41.119 0 0 1-23 7.38 53.999 53.999 0 0 1-23-7.38zm2.1-32.7a77.186 77.186 0 0 1-.56-9.58v-2.44a13.042 13.042 0 0 1 .46-2.62 12 12 0 0 1 6.92-7.74l4.56-1.58a75.337 75.337 0 0 1 9.28-2.46 76.564 76.564 0 0 1-8.4 4.62l-4.26 2a10.92 10.92 0 0 0-5.4 6 18.981 18.981 0 0 0-.84 4.34 77.2 77.2 0 0 1-1.76 9.46z"/></svg>