<svg xmlns="http://www.w3.org/2000/svg" xmlns:xlink="http://www.w3.org/1999/xlink" width="600" height="600" overflow="hidden!important" viewBox="0 0 200 200"><style>.B{fill:#f3d4cf}.C{fill:#c5796d}.D{stroke:#c5796d}.E{stroke-width:1.5}.F{fill:#3e4442}</style><defs><radialGradient id="A" cx="100" cy="113" r="40" xlink:href="#b"><stop offset="0" stop-color="#fff4f3" stop-opacity=".5"/><stop offset=".9" stop-color="#f3d4cf" stop-opacity="0"/></radialGradient><radialGradient id="B" cx="100" cy="57" r="36" xlink:href="#b"><stop offset="0" stop-color="#fff4f3" stop-opacity=".5"/><stop offset=".9" stop-color="#f3d4cf" stop-opacity="0"/></radialGradient><linearGradient id="C" x1="100" x2="100" y1="142" y2="139" xlink:href="#b"><stop offset=".1" stop-color="#ebc3bd"/><stop offset="1" stop-color="#e4b3ab"/></linearGradient><linearGradient id="D" x1="130" x2="130" y1="77" y2="98" xlink:href="#b"><stop offset="0" stop-color="#26120b"/><stop offset="1" stop-color="#26120b" stop-opacity=".5"/></linearGradient><linearGradient id="E" x1="70" x2="70" y1="77" y2="98" xlink:href="#b"><stop offset="0" stop-color="#26120b"/><stop offset="1" stop-color="#26120b" stop-opacity=".5"/></linearGradient><radialGradient id="F" cx="-558.588" cy="-490.918" r="84.646" gradientTransform="matrix(0.096 -0.0248 0.0245 0.0961 140.5478 120.3577)" xlink:href="#b"><stop offset="0" stop-color="#fff" stop-opacity=".8"/><stop offset="1" stop-color="#fff" stop-opacity="0"/></radialGradient><radialGradient id="G" cx="-565.337" cy="-492.691" r="84.644" gradientTransform="matrix(0.0991 8.856325e-004 -0.0011 0.0991 130.3774 136.3533)" xlink:href="#b"><stop offset="0" stop-color="#fff" stop-opacity=".8"/><stop offset="1" stop-color="#fff" stop-opacity="0"/></radialGradient><linearGradient id="H" x1="70.283" x2="71.61" y1="93.047" y2="91.466" xlink:href="#b"><stop offset="0" stop-color="#fff"/><stop offset="1" stop-color="#fff" stop-opacity="0"/></linearGradient><linearGradient id="I" x1="77" x2="75" y1="85" y2="87" xlink:href="#b"><stop offset="0" stop-color="#fff"/><stop offset="1" stop-color="#fff" stop-opacity="0"/></linearGradient><linearGradient id="J" x1="80" x2="76" y1="81" y2="85" xlink:href="#b"><stop offset="0" stop-color="#fff"/><stop offset="1" stop-color="#fff" stop-opacity="0"/></linearGradient><radialGradient id="K" cx="-578.76" cy="-490.73" r="84.646" gradientTransform="matrix(0.096,-0.0248,0.0245,0.0961,142.4794,119.8404)" xlink:href="#b"><stop offset="0" stop-color="#fff" stop-opacity=".8"/><stop offset="1" stop-color="#fff" stop-opacity="0"/></radialGradient><radialGradient id="L" cx="-584.778" cy="-487.329" r="84.644" gradientTransform="matrix(0.0991 8.856325e-004 -0.0011 0.0991 182.3104 135.839)" xlink:href="#b"><stop offset="0" stop-color="#fff" stop-opacity=".8"/><stop offset="1" stop-color="#fff" stop-opacity="0"/></radialGradient><linearGradient id="M" x1="70.284" x2="71.611" y1="93.047" y2="91.467" xlink:href="#b"><stop offset="0" stop-color="#fff"/><stop offset="1" stop-color="#fff" stop-opacity="0"/></linearGradient><radialGradient id="N" cx="127" cy="87.834" r="14" gradientTransform="matrix(-1 0 0 1 200 0)" xlink:href="#b"><stop offset="0" stop-color="#fff"/><stop offset=".544" stop-color="#fdfefe"/><stop offset=".74" stop-color="#f6f8f9"/><stop offset=".879" stop-color="#eaeff2"/><stop offset=".992" stop-color="#d9e3e8"/><stop offset="1" stop-color="#d8e2e7"/></radialGradient><radialGradient id="O" cx="127" cy="87.834" r="14" xlink:href="#b"><stop offset="0" stop-color="#fff"/><stop offset=".544" stop-color="#fdfefe"/><stop offset=".74" stop-color="#f6f8f9"/><stop offset=".879" stop-color="#eaeff2"/><stop offset=".992" stop-color="#d9e3e8"/><stop offset="1" stop-color="#d8e2e7"/></radialGradient><radialGradient id="P" cx="125.16" cy="86.942" r="18.705" fx="138.734" fy="85.449" gradientTransform="matrix(0.9998 0.0208 0.0131 -0.6281 -51.4298 138.9481)" xlink:href="#b"><stop offset="0" stop-color="#e4b3ab"/><stop offset=".7" stop-color="#e4b3ab" stop-opacity=".3"/><stop offset="1" stop-color="#f3d4cf" stop-opacity="0"/></radialGradient><radialGradient id="Q" cx="67.721" cy="109.165" r="29.505" gradientTransform="matrix(1.0322 -0.0541 0.0541 1.0322 -5.8613 6.0176)" xlink:href="#b"><stop offset=".95" stop-opacity="0"/><stop offset="1" stop-opacity=".3"/></radialGradient><radialGradient id="R" cx="125.16" cy="86.942" r="18.705" fx="138.734" fy="85.449" gradientTransform="matrix(-0.9998 0.0208 -0.0131 -0.6281 251.4298 138.9481)" xlink:href="#b"><stop offset="0" stop-color="#e4b3ab"/><stop offset=".7" stop-color="#e4b3ab" stop-opacity=".3"/><stop offset="1" stop-color="#f3d4cf" stop-opacity="0"/></radialGradient><radialGradient id="S" cx="67.721" cy="109.165" r="29.506" gradientTransform="matrix(-1.0322 -0.0541 -0.0541 1.0322 205.8613 6.0176)" xlink:href="#b"><stop offset=".95" stop-opacity="0"/><stop offset="1" stop-opacity=".3"/></radialGradient><linearGradient id="T" x1="99.98" x2="99.98" y1="171.27" y2="136.351" xlink:href="#b"><stop offset="0" stop-color="#e4b3ab" stop-opacity=".8"/><stop offset=".7" stop-color="#c5796d"/></linearGradient><path id="U" d="M158.785 76.762h-.005c-.012.053-10.717 44.373-18.92 56.95-6.452 9.895-28.166 25.54-39.84 25.558s-33.437-15.56-39.918-25.433C51.86 121.285 41.017 77 41.005 76.946h-.001a60.48 60.48 0 0 1-2.002-15.382C38.95 28.1 66.155.92 99.773.867s60.913 27.033 60.964 60.507a60.45 60.45 0 0 1-1.952 15.388z"/><path id="V" d="M74.048 78.595l-.1.012.12.575-.02-.587zm.018.585c.1 2.793.262 5.282.732 6.183.25-.986-.173-3.443-.732-6.183zm.734 6.185c-.06.236-.153.397-.294.452s-.32-.008-.52-.146c.058.236.052.422-.05.537s-.285.142-.527.1c.16.184.242.353.206.5s-.19.258-.415.343c.225.088.376.2.41.347s-.046.315-.205.498c.24-.03.426.001.525.115s.106.3.05.537c.2-.137.376-.197.518-.142s.234.216.29.454c.114-.215.243-.353.396-.368.148-.02.307.084.466.267.002-.244.053-.423.18-.5s.31-.07.537.018c-.1-.216-.148-.398-.078-.534s.245-.207.487-.235c-.2-.14-.32-.283-.318-.436s.12-.296.32-.434c-.24-.03-.412-.103-.484-.237s-.03-.32.08-.535c-.23.085-.413.102-.538.016s-.177-.267-.178-.5c-.158.182-.316.282-.468.262s-.282-.154-.393-.37zm.86.106c.68-.758 1.446-3.13 2.224-5.813-1.2 2.516-2.222 4.795-2.224 5.813zm2.223-5.814l.253-.524-.1-.037-.163.56zm-1.506 6.308c.953-.357 2.736-2.1 4.67-4.115-2.24 1.667-4.197 3.215-4.67 4.115zm4.67-4.114l.433-.318-.06-.07-.373.388zm-4.27 4.887c1 .125 3.4-.59 6.052-1.475-2.76.435-5.212.896-6.052 1.475zm6.052-1.475l.478-.073-.02-.08-.458.154zm-6.054 2.343c.836.583 3.284 1.057 6.038 1.505-2.642-.897-5.027-1.627-6.038-1.505zm6.038 1.505l.404.138.018-.07-.422-.067zm-6.446-.736c.47.902 2.42 2.462 4.65 4.142-1.924-2.025-3.696-3.78-4.65-4.142zm4.65 4.14l.253.268a.47.47 0 0 1 .043-.046l-.296-.222zm-5.366-3.647c-.004 1.02.995 3.302 2.19 5.827-.764-2.688-1.516-5.066-2.19-5.827zm2.192 5.827l.1.324.055-.02-.145-.304zm-3.056-5.726c-.476.902-.653 3.386-.768 6.178.574-2.733 1.01-5.188.768-6.178zm-.767 6.178l-.066.323c.02.004.035.005.055.007l.01-.33zm-.042-6.49c-.844.576-2.154 2.697-3.553 5.114 1.778-2.154 3.307-4.126 3.553-5.114zm-3.552 5.114l-.23.274.053.034.176-.308zm2.978-5.765c-1.015.12-3.16 1.385-5.522 2.875 2.577-1.08 4.843-2.113 5.522-2.875zm-5.522 2.878l-.372.156c.01.02.02.038.033.057l.34-.213zm5.315-3.723c-.95-.365-3.44-.238-6.227-.016 2.784.238 5.273.376 6.227.016zm-6.226-.016l-.457-.04-.001.08.458-.04zm6.435-.827c-.67-.763-2.932-1.81-5.5-2.905 2.35 1.502 4.49 2.783 5.5 2.905zm-5.5-2.905l-.446-.285-.04.078.487.207zm6.077 2.257c-.24-.99-1.758-2.967-3.52-5.132 1.385 2.425 2.683 4.552 3.52 5.132zm-3.52-5.132l-.28-.494-.08.054.36.44z"/><path id="W" d="M78.334 87c0 1.842-1.492 3.333-3.333 3.333S71.666 88.84 71.666 87 73.16 83.666 75 83.666 78.334 85.16 78.334 87z"/><path id="X" d="M70.35 90.893a1.39 1.39 0 0 1 1.927.38 1.39 1.39 0 0 1-.379 1.927 1.39 1.39 0 0 1-1.927-.378 1.39 1.39 0 0 1 .379-1.929z"/><path id="Y" d="M77.635 86.536c-.356.53-1.373.468-2.275-.136s-1.346-1.526-.99-2.055v-.001c.354-.53 1.372-.47 2.274.137s1.346 1.524.992 2.054z"/><path id="Z" d="M81.682 85.12c-.806 1.237-2.884 1.3-4.64.166s-2.527-3.075-1.722-4.31 2.884-1.3 4.64-.166 2.525 3.077 1.722 4.31z"/><path id="a" d="M128.334 87c0 1.842-1.492 3.333-3.333 3.333s-3.335-1.492-3.335-3.333 1.494-3.334 3.335-3.334 3.333 1.493 3.333 3.334z"/><linearGradient id="b" gradientUnits="userSpaceOnUse"/></defs><path fill="#982a13" d="M160 25H40l-1 199h123l-2-199z"/><path d="M190.858 199.866c-6.008-10.158-13.474-11.973-19.628-13.936-6.323-2.016-19.346-3.178-26.45-4.6-6.86-1.373-23.153-5.79-23.34-13.488-.192-8.066 4.29-40.1 4.29-40.1H74.005s4.487 32.023 4.294 40.1c-.184 7.7-16.48 12.115-23.34 13.488-7.104 1.422-20.125 2.584-26.448 4.6-6.156 1.963-13.624 3.777-19.632 13.936C5.234 206.026 2.87 216 2.87 227h194c-.001-11-2.36-20.973-6.012-27.133z" class="B"/><path fill="#fff4f3" d="M121.442 167.843c2.495 10.93 18.165 13.698 26.293 15.325 21.91 4.38 33.772 5.134 42.297 19.54 2.903 4.916 5.46 15.864 5.962 24.153 1.835.29.53-17.432-5.136-26.994-9.742-16.472-29.09-15.135-46.077-18.535-6.86-1.373-23.153-5.79-23.34-13.488zm-42.884 0c-.186 7.7-16.48 12.115-23.34 13.488-16.988 3.4-36.335 2.063-46.077 18.535-5.667 9.563-6.97 27.285-5.136 26.994.503-8.29 3.06-19.237 5.962-24.153 8.524-14.405 20.388-15.16 42.297-19.54 8.128-1.627 23.798-4.397 26.293-15.325z"/><path fill="#e4b3ab" d="M51.206 189.513s28.64.3 33.473 1.885c2.314.758 8.372 5.633 8.372 5.633s-6.556-3.17-8.658-3.758c-4.883-1.364-33.187-3.76-33.187-3.76zM99.795 200c2.053-.04 7.887-3.8 7.887-3.8s-5.574 2.06-7.342 2.16c-1.49.086-6.366-1.238-6.366-1.238s4.138 2.9 5.82 2.877zm17.213-7.242c6.75-1.818 29.786-3.23 29.786-3.23s-23.79-.516-30.5 1.725c-2.252.752-7.562 5.16-7.562 5.16s6.064-3.058 8.286-3.655z"/><path fill="none" d="M190.858 199.866c-9.74-16.47-29.122-15.142-46.077-18.535-6.86-1.373-23.153-5.79-23.34-13.488-.192-8.066 4.29-40.1 4.29-40.1H74.005s4.487 32.023 4.294 40.1c-.184 7.7-16.48 12.115-23.34 13.488-7.104 1.422-20.125 2.584-26.448 4.6-6.156 1.963-13.624 3.777-19.632 13.936C5.234 206.027 2.87 216 2.87 227h194c-.001-11-2.36-20.974-6.012-27.134z" class="D E"/><path fill="url(#T)" d="M100.02 171.27c5.607-.01 13.53-3.627 20.967-8.478.485-6.84 1.756-17.34 2.758-25.098-13.972-1.825-33.828-1.785-47.74.1.995 7.702 2.25 18.065 2.74 24.877 7.534 4.92 15.6 8.607 21.277 8.598z"/><path fill="#152c5e" d="M176.662 239.205l-153.208-1.823c1.595-10.032 4.924-15.048 10.136-20.336.397-10.14-3-24.685-4.583-31.95 1.592-4.057 4.74.357 20.73-4.584 4.066-1.013 8.65-7.315 14.947-2.354-2.2.903-4.148 1.32-5.923 1.756-2.657 14.61 31.716 40.78 40.84 45.67 11.18-5.065 44.953-33.16 41.373-45.645-.346-.158-4.268-1.1-5.55-1.7 2.176-1.92 5.892-2.672 9.59-.353 4.43 2.77 12.578 5.406 22.848 5.406 1.323 0 2.337.34 2.986 2-1.114 5.095-4.727 22.604-4.667 31.635 7.827 7.792 8.942 12.75 10.483 22.3z"/><path fill="#0a1f4f" d="M150.077 185.14c-3.11 8.592-5.63 11.417-7.907 14.465-2.618 3.506-3.455 5.13-2.205 2.785 4.648-9.322 5.9-8.88 10.112-17.25zm-2.57 28.38l-.344 1.593c2.8-9.574 9.184-26.46 9.184-26.46-2.17 7.14-5.107 7.495-8.84 24.866zM55.885 200c14.044 17.188-2.303-2.73-7.432-12.774 2.148 4.95 3.736 7.912 7.432 12.774zm-1.578 16.992c-.395-1-6.42-22.676-11.55-26.604 2.393 1.956 11.92 27.604 11.55 26.604z"/><path fill="#233b6d" d="M170.847 185.28l-.642 2.827c-2.355-.396-5.96-1.215-5.96-.373-.866 9.1-1.283 8.2-2.025 16.167.073-10.926 2.02-11.63-.22-16.902-6.053-1.017-11.768-2.58-17.02-4.186-2.15 8.86-12.232 20.26-8.525 15.445 3.343-4.392 6.313-10.895 7.528-15.75l-2.774-.87c-.02-.59-.082-1.165-.235-1.7-.346-.158-4.268-1.1-5.55-1.7 2.176-1.92 5.892-2.672 9.59-.353 4.43 2.77 12.578 5.406 22.848 5.406 1.323.001 2.336.34 2.986 2zm-141.694 0l.642 2.827c2.355-.396 5.895-.783 5.895-.783-.26 5.06 1.35 7.6 2.092 15.577C37.708 191.977 36.014 192.19 37 187c6.053-1.017 12.768-2.58 18.02-4.186 2.15 8.86 13.232 22 9.525 17.186-3.343-4.392-7.313-12.635-8.528-17.49l2.774-.87c.02-.59.082-1.165.235-1.7.346-.158 4.268-1.1 5.55-1.7-2.176-1.92-5.892-2.672-9.59-.353-4.43 2.77-12.578 5.406-22.848 5.406-1.323 0-2.336.34-2.986 2z"/><path fill="#01153f" d="M58.77 179.936c0-.8.47-1.65 1.34-1.65.476 0 1.025.247 1.633.733l.146.117-.178.057-2.85.85-.1-.107zm82.1.06c-.016 0-.016 0-1.14-.35l-1.3-.402.162-.12c.53-.385.955-.572 1.3-.572.533 0 .885.433 1.076 1.323l.026.12h-.123z"/><path fill="#000f30" d="M166.28 216.915c-.055-8.28 2.988-23.902 4.66-31.67-1.18-3.017-3.58-1.753-6.03-2.02-15.956-1.477-19.064-5.28-21.12-6.16-2.655-1.258-6.253-.9-8.48 1.13-.02.01-.04.03-.06.06 1.22.625 4.63 1.43 5.63 1.71 3.55 12.378-29.553 40.193-41.23 45.53-9.23-4.947-43.363-30.894-40.8-45.5l3.1-.78c.04 0 2.487-.82 2.92-1.03a.12.12 0 0 1-.05-.05c-6.392-5.112-11.06 1.27-15.1 2.28-16.08 4.97-19.17.454-20.8 4.7.213 1 5.017 20.344 4.6 31.86-5.072 5.146-8.55 10.14-10.16 20.4-.01.04-.02.07-.02.1 10.23.588 152.44 1.83 153.44 1.83-1.575-9.768-2.746-14.71-10.5-22.4zm-27.63-37.7c1.198-.872 1.907-.766 2.22.7-.001.001-2.22-.7-2.22-.7zm-79.78.73c0-1 .825-2.43 2.8-.84-.76.24-2.086.628-2.8.84zm-34.97 57.43c3.735-15.164 12.067-23.607 14.47-23.68-1.422 0-3.53 1.973-4.53 2.96.94-11.17-2.007-22.558-4.63-31.54 1.216-2.388 3.067-1.38 5.53-1.38 22.48 0 21.745-12.367 29.94-5.54-.41.163-2.524.757-2.9.88-3.44-3.277-3.946 2.577-2.9 7.54 5.004 16.15 35.575 39.6 40.7 39.6 15.945-6.354 44.86-31.908 41.6-46.16.01-.02 0-.04-.01-.06-.188-1.347-1.06-2.112-2.62-.81-.904-.285-1.897-.55-3.1-.92 5.24-4.38 10.854 1.216 12.77 2.2 4.607 2.536 12.876 3.43 16.68 3.43 2.626.086 4.562-1.097 5.74 1.35-2.91 9.728-5.3 21.217-4.67 31.4-1.057-1.004-2.635-2.4-4.05-2.76 6.852 2.486 13.144 17.17 14.4 25.26-67.535-2.377-75.794-2.1-152.42-1.74z"/><path d="M47.7 82.61c-1.588-2.324-8.025-7.66-11.703-6.84-4.355.97-5.708 4.275-5.603 6.332.606 11.758 4.426 11.75 6.7 16.27 1.71 3.383 3.126 4.933 4.172 11.692.598 3.866 4.427 6.83 7.217 6.684 3.908-.205 6.994-3.634 8.29-7.014 2.69-7.02-4.95-21.08-9.084-27.126z" class="B D E"/><path d="M43.274 99.484c-.15-.542-.062-1.474.024-2.376.077-.82 1.438-3.8 1.348-4.34-.344-2.022-1.93-5.81-2.95-7.853-1.17-2.35-3.604-5.29-5.8-5.943-.904-.27-3.48.04-3.78.625-1.13 2.19-.615 4.313 1.1 9.984.85 2.81 3.915 6.07 3.998 6.395 1.067 4.247 5.1 11.032 6.488 12.554.256.28.52.442.58.367s-.104-.36-.36-.642c-1.372-1.513-5.367-8.282-6.396-12.38-1.092-4.347 2.313-11.094 2.93-12.516a24.4 24.4 0 0 1 .954 1.738 41.59 41.59 0 0 1 .645 1.364c-.367.744-4.245 6.226-3.026 10.37.45 1.528 2.054 4.49 3.432 6.05.483.546.893.702 1.2 1.207.34.586.732 1.25 1.792 1.687a1.3 1.3 0 0 0 .577.108c.293-.02.5-.157.667-.318.03.265.044.604.05.92.007.404.073.735.162.738s.168-.325.16-.73c-.01-.497-.04-1.113-.132-1.403-.273-.854-1.028-1.79-1.83-2.78-.79-.976-1.603-1.985-1.834-2.824zm-6.314-5.57c-2.347-6.628-1.518-13.365-1.103-14.318 1.345 0 3.778 2.44 4.397 3.42-.38.84-3.417 6.353-3.294 10.898zm8.6 11.515c-.96-.395-1.303-.98-1.635-1.545-.3-.513-1.018-1-1.346-1.348-.19-.204-.53-.75-.715-.872C40.1 94.225 43.208 91.51 43.83 90.94c.23.712.41 1.368.5 1.896.082.485-1.28 3.474-1.352 4.23-.09.94-.182 1.91-.012 2.526.253.917 1.093 1.955 1.904 2.96.72.892 1.46 1.81 1.732 2.58-.093.164-.398.557-1.043.293z" class="C"/><path d="M152.05 82.61c1.588-2.324 8.025-7.66 11.7-6.84 4.357.97 5.71 4.275 5.604 6.332-.605 11.758-4.426 11.75-6.71 16.27-1.71 3.383-3.127 4.933-4.174 11.692-.598 3.866-4.428 6.83-7.217 6.684-3.908-.205-6.994-3.634-8.29-7.014-2.688-7.02 4.953-21.08 9.086-27.126z" class="B D E"/><path d="M154.633 102.307c-.8 1-1.557 1.928-1.83 2.78-.092.3-.123.906-.13 1.403-.008.404.072.732.16.73s.154-.334.162-.738l.05-.92c.156.16.373.3.666.318.17.01.36-.02.578-.108 1.06-.436 1.45-1.1 1.79-1.687.297-.505.71-.66 1.19-1.207 1.377-1.56 2.98-4.52 3.432-6.05 1.22-4.145-2.66-9.627-3.027-10.37l.645-1.364c.252-.505.576-1.11.955-1.738.617 1.42 4.02 8.168 2.93 12.516-1.03 4.098-5.025 10.868-6.396 12.38-.256.282-.42.566-.36.642s.322-.086.578-.367c1.39-1.52 5.422-8.307 6.5-12.554.082-.326 3.146-3.586 3.996-6.395 1.715-5.67 2.232-7.793 1.102-9.984-.303-.586-2.877-.896-3.783-.625-2.186.655-4.62 3.594-5.79 5.943-1.018 2.044-2.605 5.83-2.95 7.853-.1.54 1.27 3.52 1.348 4.34.086.902.176 1.834.025 2.376-.235.84-1.047 1.85-1.834 2.824zm4.85-19.29c.62-.98 3.053-3.42 4.396-3.42.416.953 1.244 7.69-1.104 14.318.126-4.546-2.913-10.06-3.292-10.898zm-6.347 22.12c.273-.77 1.012-1.69 1.732-2.58.81-1.005 1.65-2.044 1.904-2.96.168-.616.076-1.587-.014-2.526-.07-.758-1.434-3.746-1.352-4.23.1-.528.27-1.184.5-1.896.623.57 3.73 3.284 1.967 10.722-.184.122-.523.668-.715.872-.328.348-1.047.834-1.346 1.348-.332.565-.674 1.15-1.635 1.545-.645.262-.948-.13-1.04-.293z" class="C"/><use class="B" xlink:href="#U"/><path fill="#ebc3bd" d="M125.766 6.622c19.104 10.248 32.075 30.355 32.04 53.476a60.48 60.48 0 0 1-2.003 15.382h-.001c-.012.053-10.856 44.34-19.1 56.89-5.946 9.06-24.555 25.12-36.833 25.12s-30.886-16.06-36.833-25.12C54.794 119.82 43.95 75.534 43.938 75.48h-.001a60.48 60.48 0 0 1-2.002-15.382C41.898 36.977 54.87 16.87 73.972 6.622 53.277 16.324 38.963 37.28 39 61.564a60.48 60.48 0 0 0 2.002 15.382c.013.053 10.857 44.34 19.1 56.89 4.416 6.728 15.922 16.095 26.5 21.382a52.39 52.39 0 0 1-1.599-.717c5.408 2.875 10.664 4.763 14.713 4.768.05 0 .103-.005.152-.005s.103.005.152.005c4.05-.005 9.305-1.893 14.714-4.768-.538.253-1.07.49-1.6.718 10.577-5.287 22.085-14.655 26.5-21.383 8.242-12.552 19.087-56.837 19.098-56.89h.002a60.48 60.48 0 0 0 2.002-15.382c.04-24.284-14.274-45.24-34.97-54.942z"/><use fill="none" class="D E" xlink:href="#U"/><path fill="url(#C)" d="M100.457 141.65c-3.24 0-3.697-2.678-3.697-2.678l7.125-.188c-.001 0-.578 2.866-3.428 2.866z"/><path d="M99.886 139.415c-1.668 0-2.938-.17-3.027-.184a.25.25 0 0 1-.213-.282c.02-.138.147-.227.282-.214.037.006 3.7.5 6.766-.195.146-.03.27.057.3.19a.25.25 0 0 1-.188.299c-1.32.3-2.724.387-3.92.387zm.185-5.273c-1.29 0-2.542-.477-3.8-.7-1.408-.262-2.812-.038-4.22.096-1.202.114-2.384.097-3.574-.118-.566-.103-1.41-.165-1.893-.49a.76.76 0 0 1 .155-1.324c.528-.2 1.35.216 1.882.317a10.68 10.68 0 0 0 1.845.198c1.366.018 2.72-.258 4.083-.306 1.445-.048 2.835.352 4.23.658 1.247.273 2.325.1 3.553-.174 2.13-.46 4.26-.573 6.43-.67 1.073-.05 2.167-.256 3.2-.583.436-.14.953-.512 1.41-.26a.76.76 0 0 1-.042 1.337c-1.78.837-3.78.972-5.715 1.06l-3.694.334c-1.27.225-2.54.636-3.84.636z" class="C"/><path fill="url(#N)" d="M79.063 92.23c-4.3.755-7.656.7-10.688-.204-3.127-.943-7.188-4.825-8.596-8.495 3.715-.277 11.35-.597 14.9-.154 4.688.586 9.474 2.406 12.305 5.236-.016.294-.053.583-.087.872-2.285 1.547-5.52 2.34-7.824 2.745z"/><g transform="translate(-1 .5)"><path d="M83.5 87c0 4.694-3.806 8.5-8.5 8.5s-8.5-3.806-8.5-8.5 3.807-8.5 8.5-8.5A8.5 8.5 0 0 1 83.5 87z" class="F"/><use fill="url(#F)" xlink:href="#V"/><path fill="url(#G)" d="M76.255 78.622l-.1-.014-.034.586.134-.572zm-.135.57c-.627 2.724-1.114 5.17-.892 6.162.496-.888.722-3.37.892-6.162zm-.89 6.163c-.12.212-.25.344-.4.36s-.306-.09-.464-.276c-.006.243-.06.42-.188.505s-.313.063-.54-.03c.107.22.143.403.07.536s-.25.2-.49.224c.194.144.312.29.308.44s-.126.292-.327.428c.24.034.4.11.478.247s.025.318-.09.532c.23-.08.414-.093.537-.003s.17.27.164.514c.166-.177.325-.278.478-.253.148.02.274.16.382.38.064-.236.16-.396.306-.447s.318.014.515.157c-.05-.237-.04-.423.063-.536s.3-.136.532-.102c-.157-.187-.238-.356-.195-.504s.192-.255.423-.336c-.226-.09-.372-.206-.407-.354s.053-.316.218-.495c-.243.023-.427-.01-.524-.125s-.102-.303-.04-.538c-.2.134-.38.2-.52.132-.147-.056-.236-.22-.288-.456zm.804.327c.852-.558 2.206-2.65 3.652-5.04-1.82 2.117-3.387 4.056-3.652 5.04zm3.652-5.042l.38-.44-.078-.06-.302.5zm-3.088 5.704c1.013-.1 3.187-1.322 5.577-2.767-2.596 1.03-4.887 2.02-5.577 2.767zm5.576-2.766l.5-.195-.04-.083-.46.278zm-5.4 3.615c.943.382 3.437.31 6.227.142-2.78-.294-5.265-.483-6.227-.142zm6.227.142l.48.053.003-.083-.483.03zm-6.452.697c.655.78 2.898 1.87 5.442 3.017-2.32-1.55-4.435-2.873-5.442-3.017zM82 91.05l.354.238.035-.063-.39-.175zm-6.036-2.38c.22.993 1.7 3.004 3.42 5.205-1.335-2.456-2.592-4.61-3.42-5.205zm3.42 5.202l.176.325c.018-.013.034-.023.053-.034l-.23-.29zm-4.238-4.912c-.267.982.107 3.447.608 6.195-.043-2.794-.153-5.285-.608-6.195zm.608 6.195l.004.337a.39.39 0 0 1 .058-.005l-.062-.332zm-1.47-6.32c-.693.748-1.508 3.102-2.34 5.77 1.26-2.493 2.32-4.75 2.34-5.77zm-2.34 5.77l-.147.295.05.02.096-.316zm1.64-6.28c-.964.338-2.78 2.048-4.756 4.02 2.276-1.62 4.263-3.13 4.756-4.02zm-4.756 4.02l-.3.206.04.045.25-.25zm4.37-4.8c-1-.148-3.41.52-6.078 1.35 2.77-.377 5.226-.79 6.078-1.35zm-6.078 1.35l-.4.054.018.063.382-.117zm6.098-2.22c-.824-.6-3.263-1.12-6-1.627 2.626.95 4.995 1.727 6 1.627zm-6-1.627l-.432-.158-.02.077.453.08zm6.43.867c-.45-.91-2.363-2.506-4.56-4.23 1.883 2.06 3.617 3.85 4.56 4.23zm-4.56-4.23l-.355-.39-.06.065.416.326zm5.287 3.752c.024-1.017-.93-3.32-2.073-5.868.71 2.7 1.414 5.09 2.073 5.868zM72.3 79.572l-.144-.55-.1.032.234.518z"/><use class="F" xlink:href="#W"/><use opacity=".9" xlink:href="#W"/><use fill="url(#H)" opacity=".5" xlink:href="#X"/><use fill="url(#I)" opacity=".5" xlink:href="#Y"/><use fill="url(#J)" opacity=".75" xlink:href="#Z"/></g><path d="M56 88c0 13.808 8.06 25 18 25s18-11.19 18-25-8.06-25-18-25S56 74.19 56 88zm3.78-4.47c3.715-.277 11.35-.597 14.9-.154 4.952.62 10.04 2.6 12.788 5.7-2.29 1.82-5.897 2.705-8.395 3.143-4.3.755-7.656.7-10.688-.204-3.126-.942-7.187-4.825-8.595-8.495z" class="B"/><path fill="url(#P)" d="M56.143 86.915c.027 8.284 8.484 14.962 18.902 14.92s18.836-6.796 18.813-15.08-8.486-14.963-18.902-14.92-18.837 6.796-18.813 15.08zm3.637-3.385c3.715-.277 11.35-.597 14.9-.154 4.952.62 10.04 2.6 12.788 5.7-2.29 1.82-5.897 2.705-8.395 3.143-4.3.755-7.656.7-10.688-.204-3.126-.942-7.187-4.825-8.595-8.495z"/><path fill="url(#Q)" d="M59.78 83.53c3.715-.277 11.35-.597 14.9-.154 4.952.62 10.04 2.6 12.788 5.7-2.29 1.82-5.897 2.705-8.395 3.143-4.3.755-7.656.7-10.688-.204-3.126-.942-7.187-4.825-8.595-8.495z"/><path d="M67.363 79.695c6.133-.278 8.613.088 12.986 1.384 1.662.602 1.852.772 2.555 1.214-3.785-2.037-14.074-2.652-15.54-2.598zm-7.967 7.057c2.854 5.494 4.797 4.894 7.53 6.058.025.01-1.5-.58-2.664-1.196-3-1.72-3.355-2.45-4.867-4.862z" class="C"/><path fill="#1b2a40" d="M56 81.734c3.096 2.525 4.363 5.953 7.398 8.53 2.037 1.73 5.877 2.717 9.602 2.773 3.844.058 8.6-.434 10.258-.855 2.838-.718 3.54-1.278 6.742-1.472-1.986-3.04-3.836-4.4-6.268-5.84-2.977-1.764-5.074-2.28-8.72-2.564-4.853-.38-19.013-.57-19.013-.57zm4.705 2.092c3.467-.258 10.6-.557 13.895-.144 4.62.577 9.37 2.426 11.934 5.328-2.137 1.7-5.504 2.524-7.834 2.933-4.02.705-7.145.663-9.973-.2-2.918-.88-6.707-4.502-8.022-7.927z"/><path fill="url(#O)" d="M120.937 92.23c4.3.755 7.656.7 10.688-.204 3.127-.943 7.188-4.825 8.596-8.495-3.715-.277-11.35-.597-14.9-.154-4.688.586-9.474 2.406-12.305 5.236.016.294.053.583.087.872 2.285 1.547 5.52 2.34 7.824 2.745z"/><g transform="translate(1 .5)"><path d="M133.5 87c0 4.694-3.806 8.5-8.5 8.5s-8.5-3.806-8.5-8.5 3.807-8.5 8.5-8.5A8.5 8.5 0 0 1 133.5 87z" class="F"/><use x="50" fill="url(#K)" xlink:href="#V"/><path fill="url(#L)" d="M126.255 78.622l-.1-.014-.034.586.134-.572zm-.135.57c-.627 2.724-1.114 5.17-.892 6.162.496-.888.722-3.37.892-6.162zm-.89 6.163c-.12.212-.25.344-.4.36s-.306-.09-.464-.276c-.006.243-.06.42-.188.505s-.313.063-.54-.03c.107.22.143.403.07.536s-.25.2-.49.224c.194.144.312.29.308.44s-.126.292-.327.428c.24.034.4.11.478.247s.025.318-.09.532c.23-.08.414-.093.537-.003s.17.27.164.514c.166-.177.325-.278.478-.253.148.02.274.16.382.38.064-.236.16-.396.306-.447s.318.014.515.157c-.05-.237-.04-.423.063-.536s.3-.136.532-.102c-.157-.187-.238-.356-.195-.504s.192-.255.423-.336c-.226-.09-.372-.206-.407-.354s.053-.316.218-.495c-.243.023-.427-.01-.524-.125s-.102-.303-.04-.538c-.2.134-.38.2-.52.132-.147-.056-.236-.22-.288-.456zm.804.327c.852-.558 2.206-2.65 3.652-5.04-1.82 2.117-3.387 4.056-3.652 5.04zm3.652-5.042l.38-.44-.078-.06-.302.5zm-3.088 5.704c1.013-.1 3.187-1.322 5.577-2.767-2.596 1.03-4.887 2.02-5.577 2.767zm5.576-2.766l.5-.195-.04-.083-.46.278zm-5.4 3.615c.943.382 3.437.31 6.227.142-2.78-.294-5.265-.483-6.227-.142zm6.227.142l.48.053.003-.083-.483.03zm-6.452.697c.655.78 2.898 1.87 5.442 3.017-2.32-1.55-4.435-2.873-5.442-3.017zM132 91.05l.354.238.035-.063-.39-.175zm-6.036-2.38c.22.993 1.7 3.004 3.42 5.205-1.335-2.456-2.592-4.61-3.42-5.205zm3.42 5.202l.176.325c.018-.013.034-.023.053-.034l-.23-.29zm-4.238-4.912c-.267.982.107 3.447.608 6.195-.043-2.794-.153-5.285-.608-6.195zm.608 6.195l.004.337a.39.39 0 0 1 .058-.005l-.062-.332zm-1.47-6.32c-.693.748-1.508 3.102-2.34 5.77 1.26-2.493 2.32-4.75 2.34-5.77zm-2.34 5.77l-.147.295.05.02.096-.316zm1.64-6.28c-.964.338-2.78 2.048-4.756 4.02 2.276-1.62 4.263-3.13 4.756-4.02zm-4.756 4.02l-.3.206.04.045.25-.25zm4.37-4.8c-1-.148-3.41.52-6.078 1.35 2.77-.377 5.226-.79 6.078-1.35zm-6.078 1.35l-.4.054.018.063.382-.117zm6.098-2.22c-.824-.6-3.263-1.12-6-1.627 2.626.95 4.995 1.727 6 1.627zm-6-1.627l-.432-.158-.02.077.453.08zm6.43.867c-.45-.91-2.363-2.506-4.56-4.23 1.883 2.06 3.617 3.85 4.56 4.23zm-4.56-4.23l-.355-.39-.06.065.416.326zm5.287 3.752c.024-1.017-.93-3.32-2.073-5.868.71 2.7 1.414 5.09 2.073 5.868zm-2.073-5.868l-.144-.55-.1.032.234.518z"/><use class="F" xlink:href="#a"/><use opacity=".9" xlink:href="#a"/><use x="50" fill="url(#M)" opacity=".5" xlink:href="#X"/><use x="50" fill="url(#I)" opacity=".5" xlink:href="#Y"/><use x="50" fill="url(#J)" opacity=".75" xlink:href="#Z"/></g><path d="M126 63c-9.94 0-18 11.193-18 25s8.06 25 18 25 18-11.19 18-25-8.06-25-18-25zm5.624 29.026c-3.03.914-6.378.96-10.688.204-2.497-.438-6.105-1.323-8.395-3.143 2.748-3.1 7.836-5.09 12.788-5.7 3.54-.443 11.175-.123 14.9.154-1.407 3.67-5.468 7.553-8.595 8.495z" class="B"/><path fill="url(#R)" d="M125.045 71.834c-10.416-.043-18.875 6.635-18.902 14.92s8.398 15.033 18.813 15.08 18.875-6.635 18.902-14.92-8.397-15.034-18.813-15.08zm6.58 20.19c-3.03.914-6.378.96-10.688.204-2.497-.438-6.105-1.323-8.395-3.143 2.748-3.1 7.836-5.09 12.788-5.7 3.54-.443 11.175-.123 14.9.154-1.407 3.67-5.468 7.553-8.595 8.495z"/><path fill="url(#S)" d="M140.22 83.53c-3.715-.277-11.35-.597-14.9-.154-4.952.62-10.04 2.6-12.788 5.7 2.29 1.82 5.897 2.705 8.395 3.143 4.3.755 7.656.7 10.688-.204 3.126-.942 7.187-4.825 8.595-8.495z"/><path d="M117.096 82.293c.703-.442.893-.613 2.555-1.214 4.373-1.295 6.854-1.662 12.986-1.384-1.467-.054-11.756.56-15.54 2.598zm18.64 9.32c-1.154.617-2.69 1.205-2.664 1.196 2.734-1.164 4.678-.564 7.53-6.058-1.51 2.41-1.876 3.143-4.867 4.862z" class="C"/><path fill="#1b2a40" d="M124.986 82.304c-3.645.285-5.742.8-8.72 2.564-2.432 1.44-4.28 2.802-6.268 5.84 3.203.193 3.904.754 6.742 1.472 1.668.42 6.414.913 10.258.855 3.725-.056 7.564-1.044 9.602-2.773 3.035-2.576 4.303-6.003 7.398-8.53.001 0-14.16.2-19.013.57zm6.287 9.45c-2.828.853-5.95.895-9.973.2-2.33-.41-5.697-1.234-7.834-2.933 2.564-2.902 7.313-4.75 11.934-5.328 3.305-.413 10.428-.114 13.895.144-1.315 3.425-5.104 7.048-8.022 7.927z"/><path fill="url(#A)" d="M140.204 113.007c.035 22.275-17.995 40.365-40.273 40.396-22.274.036-40.36-17.993-40.396-40.272S77.53 72.77 99.808 72.735s40.363 17.995 40.396 40.272z"/><path fill="url(#B)" d="M135 56c0 19.33-15.67 35-35 35s-35-15.67-35-35 15.67-35 35-35 35 15.67 35 35z"/><path fill="#2a232b" d="M54 73.2c9.954-9.974 16.76-4.714 30.6-2.063.845.162 6.32.337 5.3 2.268-.483.924-2.036.814-2.903.798C73.308 73.936 66.652 64.197 54 73.2zm90.52.304c-12.07-9.095-19.137.037-31.727.388-4.076.116-3.813-2.1-2.078-2.45 2.014-.407 2.563.033 8.45-1.382 11.342-2.725 17.18-5.22 25.354 3.445z"/><path fill="#e4b3ab" d="M99.94 119.956c-1.906-.058-5.298-2.02-4.893-3.788.375-1.64 2.51.598 4.96.618s5.38-1.442 5.725.204c.555 2.657-2.722 3.063-5.793 2.966z"/><path d="M104.203 118.958c.155.202.42.202.586-.002s.178-.533.02-.734c-1.15-1.48-3.22.505-3.064.7.06.08 1.59-1.08 2.458.026zm-8.57-3.772c.242 1.576.743 3.678 4.77 4.78-3.972-.117-6.554-.855-6.533-4.55.01-1.867 1.964-5.712 1.964-5.712s-.457 3.82-.202 5.484z" class="C"/><path fill="#b7513b" d="M44.483 18.786v192.7h39.633c-.985-7.894-2.345-15.114-3.827-18.896-7.734-19.635-34.67-24.746-29.98-50.592l.186-.036c5.16 11.272 7.6 17.786 19.622 19.774C53.422 148.092 56.645 135.4 58.97 119.28c1.357-9.407-1.612-16.768-3.584-24.324 2.337-6.986 3.574-13.578 4.833-21.104 11.25-67.23 61.58-64.193 76-20.887 9.12 27.39 1.487 36.087 12.74 53.306.534 12.012 3.037 24.947-11.378 41.925-3.168 3.73-7.858 7.637-12 10.247 15.048-1.334 23.306-15.722 28.3-29.98l.183.058c-6.6 55.46-31.788 30.36-34.347 82.965h41.15v-192.7H44.483z" opacity=".1"/><path fill="#982a13" d="M84.24 24.512s13.507 2.744 15.44 8.394c-9.837-.448-14.145-3.676-28.02 1.726 3.218-5.56 12.58-10.12 12.58-10.12zm32.115-.677s-14.886-.596-16.673 9.07c9.837-.448 15.855-4.834 29.83 1.466-1.92-5.54-13.157-10.536-13.157-10.536z"/><path fill="#b7513b" d="M171.325 103.155c12.474-84.818-28.43-117.88-66.57-108.483C62.686-15.575 30.577 5.914 25.65 64.4c-.89 20.54 1.352 36.037 1.71 39.73-2.823 5.81-4.602 12.117-5.334 18.632-2.28 1.99-4.366 3.558-6.692 5.203 1.216-.168 3.034-.383 6.45-1.384-.802 22.784 10.506 26.852 9.795 45.72-.663 12.74-.707 13.817 1.77 22.173 6.55 22.107-3.54 20.23-.85 47.58 31.104-1.338 46.5 4.047 119.532-.472 1.616-.1 12.444-.8 16.533-.56-16.247-55.787 11.274-50.916 2.58-79.354-7.793-25.488 13.53-33.983.182-58.502zm-50.976 129.33c.313 3.85.855 8.563 1.04 9.658-14.026.06-13.942-.43-36.432-.22.397-13.065 1.52-40.587-1.77-48.975-8.064-20.475-33.71-27.085-35.086-49.86l.195-.036c5.38 11.757 9.68 16.5 22.217 18.573-17.408-14.226-13.83-25.25-13.383-42.226.265-9.903-1.68-17.482-3.736-25.362 2.437-7.282 3.738-14.154 5.04-22.003 5.3-31.98 23.306-56.507 41.03-39.238.001-.001.225-.316.225-.316.096.134.084.114.202.302 15.17-16.92 29.792-2.734 37.78 17.474 11.073 27.99 1.55 37.627 13.28 55.582.56 12.526 1.19 25.365-13.838 43.07-3.304 3.89-7.355 7.003-11.67 9.727 15.688-1.395 25.436-14.79 30.64-29.654l.19.06c-15.182 57.92-43.462 15.02-35.926 103.445z"/><path fill="#a83c25" d="M168.564 241.012c-4.09-.24-14.917.458-16.533.56l-20.98 1.104c.627-18.603-6.242-38.093 2.55-55.675C138 177.376 152 168 155 156c.56-2.235 1.938-7.965 2.43-12.944 3.44 21.68-17.092 41.785-12.3 63.68 4.266-14.53 12.416-38.893 17.552-49.096-.563 16.096-1.812 20.566-1.29 30.668 4.13-9.095 7.526-16.68 5.584-38.498 0 0 2.598 6.715 4.168 11.848 8.695 28.438-18.827 23.567-2.58 79.354zm-6.82-88.777c14.178-34.092-4.985-37.232-10.55-59.28C145.2 69.242 145.2 27.485 124 23c-10.773-2.28-19.332 1.04-24.926 9.434l.4.366c.001-.001.225-.316.225-.316.096.134.084.114.202.302 15.17-16.92 29.792-2.734 37.78 17.474 11.073 27.99 1.55 37.627 13.28 55.582 2.666 23.645-7.074 41.16-25.508 52.796 15.263-7.068 28.2-18.5 30.174-46.75l.398.2c5.454 7.13 8.935 28.643 5.727 40.147zM154.398 45c1.833 21.55 4.026 42.923 16.985 58.268-.02-.038-.038-.074-.06-.112l.76-5.638C166.31 90.678 160.708 78.757 159 66c-2.14-15.982.07-34.47-15.9-46 7.75 6.708 11.298 16 11.298 25zM69 18C44 33 50.146 61.473 44.146 84c-3.188 11.97-11.55 22.788-20.646 30.744a58.92 58.92 0 0 0-1.377 7.277C60.3 97.473 45.24 48.478 61.2 30.666c11.568-12.91 25.383-17.77 38.49 1.817C96.415 16.706 79 13 69 18zm13.258 7.4c-7.133 1.456-14.76 9.23-18.923 16.342C56.868 52.8 55.85 70.012 50.682 88.46c-4.4 15.707-13.998 30.57-33.68 39.25 26.76-5.687 35.423-30.752 36.39-33.667 2.437-7.282 3.738-14.154 5.04-22.003 5.26-31.746 23.042-56.14 40.64-39.604-5.66-5.922-8.947-8.64-16.816-7.034zM68.733 161.296l1.78.332c-17.408-14.226-14.13-25.25-13.683-42.226.255-9.563-1.65-17.36-3.626-24.95-.523 1.394-1.105 2.744-1.716 4.073 9.082 23.055-9.765 44.294 17.246 62.772zm77.97.332c9.17-9.346 13.167-29.97 11.37-43.484-.817 4.008-1.474 8.073-2.426 12.056l.438-1.217.19.06c-15.183 57.92-43.463 15.02-35.927 103.445.313 3.85.855 8.563 1.04 9.658-14.026.06-13.942-.43-36.432-.22.397-13.065 1.52-40.587-1.77-48.975-7.75-19.678-44.052-31.323-33.378-62.632-9.69 13.094-4.6 24.13 1.678 31.31 35.12 44.05 24.852 49.003 26.454 81.047 11.177.333 30.093.525 48.263-.105-4.665-62.835 1.127-61.2 20.5-80.942zM39.184 142.01c-1.385-4.846 8.584-15.692 5.366-30.735-.664 10.154-5.912 17.93-8.55 26.724-4 33.884 27.286 39.376 14 74 0-13-2.667-19.437-7.667-31.437C42.333 196.563 49 207 41 223c0 0 2.76-11.765.26-17.418-8.38-25.3-1.82-35.306-8.26-51.582-2.838-7.7-8.246-14.15-10.878-27.926.677 19.74 10.6 29.425 9.958 46.216-.663 12.74-1.207 13.817 1.268 22.173 6.55 22.107-3.54 20.23-.85 47.58 12.22-.525 22.025-.014 33.847.527 2.26-24.406 5.03-40.444-7.662-60.172-6.87-10.677-21.23-21.694-19.5-40.386zM45 38c-4.15 20.744-5.556 42.857-18.478 58.357l.837 7.762c-.066.136-.124.275-.188.41C51.195 67.57 41.1 47.743 50 28c2-5 6.23-8.566 11-14-8.085 6.828-14 13-16 24zm121.623 64.836C155.162 84.076 155.692 61.634 148 38c-4.507-13.846-24.446-39.65-48.506-6.168 11.16-14.396 23.65-15.006 31.307-10.43 6.2 3.7 10.544 10.145 13.544 17.145 7.068 18.138 5.753 34.787 13.753 52.787 5 12 12.048 22.146 12.416 32.828-.332 4.575-3.198 15.69-4.698 19.253.48-1.376 6.27-12.165 6.27-18.4-.001-6.87-1.62-15.887-5.463-22.178zM71.522 9.66c3.306-2.748 25.504-5.422 29.75 11.058C98.29 4.86 78.927 5.073 71.522 9.66zm63.907-1.08c3.5 2.642 2.08 1.447-.513-.514-13.694-8.515-27.5-1.497-33.308 12.366 8.04-17.04 25.16-18.413 33.82-11.852zm12.34 7.182C129.86-9.3 106.307-.53 100.614 13.436c7.456-15.582 31.374-18.79 47.154 2.327zm-100.65 6.152C45.04 26.41 51.848 6.392 75.2 1.782 83.573.1 94.592.91 99.956 8.003 91.35-4.505 59.98-4.1 47.118 21.915zm87.598-9.056c1.24.864 2.13 1.626 2.078 1.583-.177-.117-1.063-1.067-2.62-2.098-11.543-7.674-29.75 1.124-33.9 15.082 4.826-13.68 23.37-21.914 34.44-14.567zM65.4 15.566c-3.443 2.883 4.383-2.277 6.732-2.84 8.25-2.126 24.014-.522 28.82 11.98C96.43 10.93 77.13 7.13 65.4 15.566z"/><path fill="#c66854" d="M54.287 8.395c-6.063 5.795-8.245 8.12-12.733 15.896C29.97 42.645 29.465 95.483 30.12 75.647c.883-28.894 3.106-48.72 24.167-67.252zm-14.12 37.887c-1.2 10.8 2.133-9.666 3.98-14.112 6.93-16.365 27.572-34.15 46.88-25.372 3.802 1.736 6.47 3.73 7.692 4.555-26.795-20.548-55.13 3.7-58.55 34.93zm99.86-34.93c4.6 4.55 8.293 8.722 8.248 8.67-3.867-3.54-21.245-34.352-47.08-3.22 12.17-13.392 25.62-17.818 38.83-5.45zm-48.757 6.762c5.95 4.15 11.46 11.672 10.71 10.672-.25-.29-1.608-2.192-3.735-4.794-22.683-27.604-48.242 4.85-50.494 29 3.692-24.362 25.53-47.29 43.52-34.888zm57.178 16.988c.914 2.425 1.4 3.932 1.306 3.63-.112-.292-.6-2.13-1.518-4.706-7.78-22.254-29.125-27.144-48.288-4.222 19.555-21.362 39.415-17.535 48.5 5.298zm22.283 54.075c-.008-.39.217-2.754.27-6.182.46-22.1-4.53-58.257-22.22-71.904 22.985 20.203 21.848 79.343 21.95 78.086zm-10.135 20.46l1.702 2.122c-6.983-11.994-4.544 1.486-14.992-43.76 3.904 20.03 3.51 29.42 13.3 41.637zm-120.37.56c-3.7 3.778-2.04 2.24.69-.536C55.243 92.09 52.2 85.15 56.037 63.72c-3.098 14.155-3.505 33.75-15.813 46.478zm39.993-85.254l2.144-.644c-4.026 1.41-20.332 4.076-24.18 27.2 3.388-14.763 11.977-23.385 22.036-26.555zm63.234 22.1c2.782 8.476-1.83-8.357-4.675-13.598-5.338-10.29-12.488-12.038-23.153-11.645 17.4-.774 22.234 8.92 27.828 25.243zM34.274 152.3c2.07 11.298 11.41 25.64 15.08 38.07 1.79 5.938 1.875 6.194-.112-1.306-11.232-35.413-21.715-39.5-10.232-69.374 0 0-8.822 16.863-4.737 32.6zm114.5 36.983l-.555 3.9c9.005-39.146 13.987-26.598 11.758-65.936.022 43.978-4.99 24.745-11.203 62.046zM46.04 133.496c-8.804 20.717 5.362 28.95 22.507 53.013 3.892 6.425 2.585 4.246 1.648 2.49-11.5-21.46-31.094-34.2-23.9-53.677 2.383-6.427 3.98-9.33 3.182-22.33.143 8.976-.238 12.996-3.427 20.506zm6.387-13.904c-.092 12.744-6.55 21.745 6.856 35.31 4.074 3.177-2.93-3.353-4.056-5.36-2.187-3.878-3.82-8.57-3.37-13.06.683-13.91 1.296-1.39.912-30l-.342 13.108zm90.242 27.706c-1.67 2.148-4.705 4.313-5.604 6.15-.214.387.542-.853 1.744-1.98 17.557-16.844 13.72-27.795 16.996-34.76-3.333 7.08-.866 14.407-13.136 30.59zm-16.14 40.244c-2.762 11.25-1.063 15.187-1.063 15.187-.185-1-.322-1.582-.322-3.37 2.057-31.334 25.247-25.986 31.597-60.146-5.584 27.864-24.854 27.823-30.212 48.33z"/><path fill="#891b03" d="M171.43 103.136C183.498 17.3 142.48-14.82 104.78-5.425c-63.63-15.205-85.202 40.694-77.5 109.5-2.854 5.875-4.63 12.232-5.3 18.6-2.67 2.33-6.03 4.794-7.03 5.43 2.28-.256 4.492-.737 6.75-1.4-.454 12.987 3.396 20.927 6.94 29.32 6.294 14.887.154 21.277 3.4 34.07 1.24 4.85 3.1 9.63 3.55 14.64.946 10.766-5.545 16.426-3.15 37.4.08 0 .15-.01.23-.01 24.692-.967 13.033-.165 29.72.44 62.103 2.413 88.897-1.46 106.34-1.46-12.26-39.767-.31-49.433 3.6-63.05 3.343-11.656-3.54-17.892-3.1-27.43 1.08-19.514 13.042-26.388 2.23-47.5zm-101.85 58.13c-11.588-2.08-16.382-8.37-21.42-19.06-.284-5.823 1.92-12.104 2.96-17.87 1.044-5.75.4-10.896-.7-22.73 1.12-2.35 2.1-4.77 2.94-7.24 1.57 6.54 3 13.15 3.04 19.83.054 14.62-6.33 33.736 13.17 47.07zm-47.88-35.04a42.58 42.58 0 0 1-5.23 1.27c41.837-27.21 31.73-67.088 39.07-85.77 7.243-18.434 27.63-33.995 44.1-9.15a3.54 3.54 0 0 0-.16.23c-17.355-18.325-36.108 8.93-40.73 31.36-4.5 21.877-6.914 51.458-35.12 61.4-.001-.001-1.93.63-1.93.65zm10.92 115.63c-.543-9.458-.846-11.33.73-18.64 1.28-5.96 3.6-12.12 3.23-18.27-.4-6.4-3.1-12.4-3.9-18.74-.75-6.14.5-12.3.53-18.46.082-12.213-10.172-20.935-9.6-41.63 8.104-2.688 15.358-7.616 20.94-14.84.917 21.25-5.573 19.928-6.48 31.84-1.51 20.052 22.174 35.67 27.74 56.1 1.94 7.062 2.03 35.213 2 42.56-25.307-.443-9.477-1.48-35.18.1zm35.38-.09c1.762-47.61-.2-49.127-16.54-70.6-22.6-29.594-7.548-34.703-6.54-50.26.2-3.27 0-6.56-.2-9.84 2.15-2.82 3.97-5.86 5.5-9.05.795 13.27.928 13.425.83 15.92-.627 17.156-14.775 28.272 12.3 53.86 21.94 20.76 20.976 18.66 21.5 70.03-5.62.04-11.24.04-16.85-.058zm17.06.06c.35-11.354 1.576-40.352-1.78-48.9-8.07-20.492-33.704-27.098-35.08-49.83.323 1 3.402 7.81 6.93 11.45 4.472 4.623 9.446 6.313 15.75 7.25-17.932-13.084-14.028-28.113-13.65-42.38.263-9.843-1.635-17.335-3.74-25.4 4.287-12.413 4.894-24.4 7.4-33.84 5.71-21.558 22.336-43.88 38.59-27.22.006-.017.2-.286.2-.3a10.51 10.51 0 0 1 .19.3c13.404-16.837 29.143-4.305 37.7 17.34 11.03 27.882 1.583 37.684 13.3 55.6.49 11.8 1.402 25.005-13.83 42.95-3.366 3.96-8.398 7.835-12 9.92 15.66-.846 25.94-14.893 31.14-29.75-15.514 57.917-43.44 15.318-35.93 103.48.343 4.205.894 8.792 1.02 9.55-11.478.073-9.487-.325-36.2-.22zm78.33-94.35c7.73-35.545-14.47-31.226-17.3-59.6-.996-10.41-.63-29-12.86-48.65-8.754-14.108-21.634-20.468-33.27-6.5-.04-.08-.1-.16-.14-.24 15.77-21.402 42.415-19.527 49.34 26.27 4.38 29.034 5.438 27.162 15.17 47.38 4.36 8.987 10.315 20.754-.93 41.33zm-12.06-40.88c2.058 3.087 4.326 5.995 6.52 9.05 0 16.35-13.22 39.914-30.75 42.47 2.52-1.54 4.96-3.23 7.1-5.25 15.813-15.033 18.51-28.253 17.14-46.27zm16.6 50.1c1.3 5.5 3.7 10.57 3.73 16.32-1.432 16.422-17.6 23.63-3.3 67.67-9.83-.523-19.654.533-37.14 1.15-.46-25.17-2.177-31.864-.95-42.6 2.85-25.063 24.016-23.11 27.16-56.19-4.017 34.862-28.503 30.377-29.03 61.11-.033 2 2.4 37.353 2.43 37.68l-9.37.2c-7.985-81.762 13.702-65.904 27.89-91.11 4.94-8.745 8.7-22.552 8.76-34.92 8.2 11.655 7.685 17.53 4.77 32.82 5.384-8.49 9.79-22.53 6.5-32.88-1.094-4.394-4.797-11.87-6.25-14.88-10.84-22.44-8.965-23.64-13-45.33-7.404-40.292-33.264-47.16-50.4-23.33-17.552-27.954-45.346-8.197-49.08 25.4-1.354 12.346-.255 38.468-26.65 63.02 1.906-15 8.73-22.372 13.75-34.22 12.65-29.735 1.814-50.492 18.65-67.33C38.122 37.494 51 59.408 34.1 91.476c-1.94 3.67-4.1 7.24-6 10.94-5.854-64.18 16.384-121.01 75.6-107.03 40.783-10.33 64.18 25.442 67.6 67.8 1.47 18.212-.248 34.6-.54 38.77-2.87-4.9-6.3-9.47-8.34-14.8-11.876-31.337-1.556-52.06-19.32-67.28 18.12 16.345 6.485 41.9 19.8 71.6 2.613 4.897 5.803 9.39 8.16 14.36 9.59 20.22-7.6 31.793-3.1 50.87z"/><path fill="url(#D)" d="M124.34 100a29.78 29.78 0 0 1-2.49-.1c-3.5-.26-15-2.23-16.05-16.5-.26-3.57 7.6-6.1 23.34-7.5l2.46-.23c3.85-.36 8.2-.77 11.65-.77 4.5 0 6.58.68 6.73 2.22.36 3.45-1.67 10.82-8.72 17-4.3 3.8-10.3 5.87-16.92 5.87z"/><path fill="url(#E)" d="M75.66 100l2.5-.1c3.5-.26 15-2.23 16.05-16.5.26-3.57-7.6-6.1-23.34-7.5l-2.46-.23c-3.85-.36-8.2-.77-11.65-.77-4.5 0-6.58.68-6.73 2.22-.36 3.45 1.67 10.82 8.72 17 4.3 3.8 10.3 5.87 16.92 5.87z"/><path fill="#2c2c2c" d="M148 73.03c-5.98.68-19.67 1.5-27.04 2.16-4.68.4-12.8 2.65-20.95 2.65S83.73 75.6 79.05 75.2L52 73.03c-2.7-.3-6.42.95-5.97 3.5.34 1.9 3.15 10.2 11.86 18.2 5.94 5.45 15.9 8.17 26.2 5.12C93.78 97 95.8 88.73 96.76 86.63c.85-1.85 1.76-2.67 3.24-2.67s2.4.82 3.24 2.67c.96 2.1 2.98 10.36 12.66 13.23 10.3 3.05 20.26.33 26.2-5.12 8.7-8 11.52-16.3 11.86-18.2.45-2.56-3.27-3.82-5.97-3.5zM78.1 99.4c-7.54.57-14.3-1.48-19.05-5.64-6.87-6.03-8.9-13.22-8.56-16.58.3-2.93 12.22-1.5 20.3-.78s23.2 2.55 22.9 6.96c-.86 11.98-9.24 15.56-15.58 16.04zm62.83-5.64c-4.74 4.16-11.5 6.2-19.05 5.64-6.34-.48-14.72-4.05-15.6-16.04-.32-4.4 14.8-6.24 22.9-6.96s20-2.15 20.3.78c.35 3.35-1.68 10.55-8.55 16.58z"/><path fill="#3b3b3b" d="M73.6 99.42c-16.3-.67-21.96-14.1-23.63-18-1.6-3.73-.3-5.07 1.95-5.88-.9.62-1.62 1.23-1.64 2.6-.2 6.06 7.92 20.42 23.32 21.27zm19.97-12.2c.94-2.3 1.76-3.96 1.3-5.25-.74-2.1-5.84-2.97-7.7-3.36 6.45 1.87 8.26 2.45 6.4 8.6zM82.14 77.14c-4.22-1.3-16.7-2.7-20.76-2.42 4.32.4 16.18 1.3 20.76 2.42zm44.25 22.28c16.3-.67 21.96-14.1 23.63-18 1.6-3.73.3-5.07-1.94-5.88.9.62 1.62 1.23 1.64 2.6.18 6.06-7.93 20.42-23.33 21.27zM112.83 78.6c-1.87.4-6.97 1.26-7.7 3.36-.45 1.3.37 2.96 1.3 5.25-1.85-6.15-.04-6.73 6.4-8.6zm25.8-3.87c-4.07-.27-16.54 1.1-20.76 2.42 4.58-1.14 16.44-2.02 20.76-2.42z"/></svg>