<svg xmlns="http://www.w3.org/2000/svg" viewBox="0 0 128 128"><path d="M69.28 65.14a25.5 25.5 0 1 1 25.5-25.5 25.529 25.529 0 0 1-25.5 25.5zm0-48a22.5 22.5 0 1 0 22.5 22.5 22.526 22.526 0 0 0-22.5-22.5z" fill="#333"/><path d="M106.28 90.56a87.997 87.997 0 0 0-20-8.96v-8.4h-34v7.36a95.236 95.236 0 0 0-20.54 10c-10.46 2.5-15.64 3.26-17.82 16.86a135.259 135.259 0 0 0 54.78 11.64h.36a137.659 137.659 0 0 0 55.22-11.42c-2.22-13.6-7.54-14.44-18-17.08z" fill="#3e4142"/><path d="M31.74 96.56a73.362 73.362 0 0 1 14.58-7.1c4.94-1.76 5.06-6.24 5.06-8.62a95.48 95.48 0 0 0-19.64 9.72c-10.46 2.5-15.64 3.26-17.82 16.86.42.2.86.36 1.28.54 2.72-7.52 8.02-9.4 16.54-11.4z" fill="#4a4e4f"/><path d="M69.28 119.06a137.7 137.7 0 0 0 55-11.42c-2.22-13.6-7.54-14.44-18-17a87.997 87.997 0 0 0-20-8.96v-8.4h-34v7.14l14 16.22a10.86 10.86 0 0 1 3 7.02z" fill="#37393a"/><path d="M106.28 90.56a86.317 86.317 0 0 0-20-8.96 7.84 7.84 0 0 0 5.2 7.88 72.517 72.517 0 0 1 14.62 7.08c9.82 2.46 13.82 4.26 16.66 11.72l1.52-.64c-2.22-13.6-7.54-14.44-18-17.08z" fill="#3e4142"/><path d="M69.386 120.56H68.7a135.927 135.927 0 0 1-55.389-11.769 1.5 1.5 0 0 1-.872-1.608c2.263-14.12 8.143-15.516 17.885-17.828l.82-.195a96.903 96.903 0 0 1 19.637-9.662V73.28h3v7.28a1.5 1.5 0 0 1-1.01 1.418 93.88 93.88 0 0 0-20.217 9.842 1.476 1.476 0 0 1-.465.199l-1.07.255c-9.357 2.22-13.406 3.182-15.42 14.244a132.918 132.918 0 0 0 53.105 11.042h.682a135.328 135.328 0 0 0 53.216-10.83c-2.055-11.076-6.16-12.074-15.637-14.38l-1.04-.253a1.501 1.501 0 0 1-.422-.175 86.543 86.543 0 0 0-19.659-8.808 1.499 1.499 0 0 1-1.062-1.435v-8.4h3v7.297a89.536 89.536 0 0 1 19.08 8.661l.81.197c9.843 2.394 15.784 3.84 18.09 17.964a1.501 1.501 0 0 1-.882 1.617 138.344 138.344 0 0 1-55.492 11.544z" fill="#333"/><path d="M93.28 39.64l-.84 21.62a13.44 13.44 0 0 1-2.88 7.82l-8.24 10.48a13.48 13.48 0 0 1-10.6 5h-2.8A13.5 13.5 0 0 1 57.3 79.4l-8.24-10.48a13.58 13.58 0 0 1-2.88-7.82l-.9-21.54c0-8-3-13 0-25 4.9 2.94 7.06 2 10.94 4.86a24 24 0 0 1 26.18 0c2.44-2 5.88-2 10.88-4.9 3 12.04 0 16.98 0 25.12z" fill="#3e4142"/><path d="M82.4 19.54a24 24 0 0 0-13.12-3.9c-6 18-7.72 48-6.96 68a13.759 13.759 0 0 0 5.6.92h2.8a13.46 13.46 0 0 0 10.6-5.16l8.24-10.48a13.44 13.44 0 0 0 2.88-7.82l.84-21.62c0-8.14 3-13 0-25-5 3.16-8.44 3.02-10.88 5.06z" fill="#37393a"/><path d="M62.06 49.24l2-1.1-.34.42-.2-5 .58.74a14.801 14.801 0 0 1-7.06-3.38 14.319 14.319 0 0 1-4-6.7 20.682 20.682 0 0 1-.78-3.8 15.059 15.059 0 0 0-.68-3.5 18 18 0 0 0-3.66-6.14.44.44 0 0 1 0-.62.44.44 0 0 1 .6 0 17.481 17.481 0 0 1 4.3 6.4 16.381 16.381 0 0 1 1.1 3.68 20.462 20.462 0 0 0 .9 3.46 14.64 14.64 0 0 0 3.54 6 13.801 13.801 0 0 0 6.1 3.3.7.7 0 0 1 .52.72l-.14 4.84a.56.56 0 0 1-.32.46l-2 .9a.444.444 0 1 1-.46-.76zm4.76-1.6l-.32-6 .48.72a26.558 26.558 0 0 1-4.92-2.38 14.86 14.86 0 0 1-4.14-3.76 12.821 12.821 0 0 1-2.28-5.14 14.14 14.14 0 0 1 0-5.5.46.46 0 0 1 .577-.301l.003.001a.46.46 0 0 1 .32.42 14.721 14.721 0 0 0 .54 4.86 12.56 12.56 0 0 0 2.36 4.3 21.001 21.001 0 0 0 3.68 3.36 31.444 31.444 0 0 0 4.44 2.54h.1a.8.8 0 0 1 .4.68c0 2-.2 4-.34 6a.42.42 0 0 1-.42.42.46.46 0 0 1-.48-.22z" fill="#666"/><path d="M64.58 54.56a16.561 16.561 0 0 1 1.08 3.64l.1 3.74.16 7.4v7.52a10 10 0 0 1-1.12 3.7l-1.58 3.36-1.8-.9 1.74-3.28a8.581 8.581 0 0 0 1.24-3.18l.22-7.32.16-7.42v-3.6a16.099 16.099 0 0 0-.86-3.48zm10 .18a15.999 15.999 0 0 0-.88 3.5v3.68l.22 7.42.2 7.32a8.64 8.64 0 0 0 1.24 3.16l1.74 3.28-1.78.9-1.56-3.44a10 10 0 0 1-1.26-3.78l.12-7.52.16-7.42.12-3.74a15.603 15.603 0 0 1 1.02-3.54z" fill="#333"/><path d="M48.72 40.56a7.44 7.44 0 0 0 1.2 2 4.719 4.719 0 0 0 1.78 1.28h-.66a9.76 9.76 0 0 1 6-.22 7.4 7.4 0 0 1 4.62 3.82.48.48 0 0 1-.22.62.46.46 0 0 1-.54-.12 7.34 7.34 0 0 0-2-1.68 7.18 7.18 0 0 0-2.36-.8 15.475 15.475 0 0 0-2.62-.08 10.838 10.838 0 0 0-2.54.24.68.68 0 0 1-.56 0 5.559 5.559 0 0 1-2.14-2 7.18 7.18 0 0 1-.76-2.86.413.413 0 1 1 .8-.2zm22.06-24.92l-1.02 11h-.98l-1-11h3z" fill="#666"/><path d="M67.697 86.062a14.852 14.852 0 0 1-11.648-5.603L47.8 69.966a14.986 14.986 0 0 1-3.199-8.685l-.82-21.625a48.949 48.949 0 0 0-.64-7.122 41.922 41.922 0 0 1 .684-18.299 1.5 1.5 0 0 1 2.207-.934 22.88 22.88 0 0 0 5.319 2.236 17.768 17.768 0 0 1 4.909 2.131 25.516 25.516 0 0 1 26.078-.015 17.561 17.561 0 0 1 3.956-1.67 28.66 28.66 0 0 0 6.215-2.711 1.5 1.5 0 0 1 2.227.922 41.692 41.692 0 0 1 .684 18.247 48.291 48.291 0 0 0-.638 7.037l-.84 21.68a14.846 14.846 0 0 1-3.201 8.69L82.5 80.327a14.871 14.871 0 0 1-11.776 5.733H67.92l-.223.002zM46.303 16.84a39.421 39.421 0 0 0-.191 15.276 51.835 51.835 0 0 1 .668 7.484l.82 21.563a12 12 0 0 0 2.562 6.95l8.238 10.48a11.866 11.866 0 0 0 9.499 4.466h2.825a11.889 11.889 0 0 0 9.417-4.585l8.242-10.48a11.876 11.876 0 0 0 2.56-6.95l.84-21.622a51.267 51.267 0 0 1 .667-7.398 39.153 39.153 0 0 0-.185-15.191 35.129 35.129 0 0 1-5.024 2 11.672 11.672 0 0 0-3.877 1.779 1.498 1.498 0 0 1-1.78.106 22.517 22.517 0 0 0-24.543 0 1.499 1.499 0 0 1-1.7-.044 14.322 14.322 0 0 0-4.871-2.269 27.68 27.68 0 0 1-4.164-1.565z" fill="#333"/><path d="M74.1 53.06l-2.6-.66-1.28-.4a2.958 2.958 0 0 0-.94 0 4.838 4.838 0 0 0-.94.14l-1.28.38-2.62.64a.46.46 0 0 1-.519-.392l-.001-.008a.46.46 0 0 1 .2-.48c.76-.5 1.56-.9 2.34-1.34l1.18-.62a3.421 3.421 0 0 1 1.66-.38 4.301 4.301 0 0 1 1.64.4l1.18.6 2.34 1.34a.48.48 0 0 1 .16.64.5.5 0 0 1-.52.14z" fill="#666"/><path d="M56.48 47.64a6 6 0 0 0-4.7 1.38.24.24 0 0 0 0 .28 4.221 4.221 0 0 0 .84 1.12c3.28 3.3 7 .82 8.7.36a.24.24 0 0 0 .18-.28.18.18 0 0 0 0-.12 7.78 7.78 0 0 0-5.02-2.74z" fill="#333"/><path d="M70.82 47.64l-.32-6a.7.7 0 0 1 .4-.68 31.444 31.444 0 0 0 4.44-2.54 21.001 21.001 0 0 0 3.68-3.36 12.621 12.621 0 0 0 2.44-4.5 15.2 15.2 0 0 0 .46-4.86.44.44 0 0 1 .396-.48h.004a.44.44 0 0 1 .46.36 13.42 13.42 0 0 1 0 5.5 12.821 12.821 0 0 1-2.28 5.14 14.86 14.86 0 0 1-4.14 3.76 26.745 26.745 0 0 1-4.94 2.38l.5-.72c0 2-.2 4-.34 6a.42.42 0 0 1-.42.42.46.46 0 0 1-.34-.42z" fill="#666"/><path d="M82.08 47.64a6 6 0 0 1 4.68 1.38.24.24 0 0 1 0 .28 5.039 5.039 0 0 1-.82 1.12c-3.3 3.3-7.02.82-8.72.36a.24.24 0 0 1-.18-.28.18.18 0 0 1 0-.12 7.88 7.88 0 0 1 5.04-2.74zm9.7-8a22.96 22.96 0 0 0-1.12-9.8.483.483 0 0 1 .88-.4 25.14 25.14 0 0 1 3.24 10.2 1.54 1.54 0 0 1-1.36 1.64 1.5 1.5 0 0 1-1.64-1.34.665.665 0 0 1 0-.3zm-43.86-9.8a22.64 22.64 0 0 0-1.1 9.8 1.509 1.509 0 0 1-3 .32.761.761 0 0 1 0-.3 24.539 24.539 0 0 1 3.24-10.2.46.46 0 0 1 .619-.201l.001.001a.48.48 0 0 1 .24.58z" fill="#333"/><path d="M76.06 50.04l-2-.9a.5.5 0 0 1-.34-.58l-.2-5a.7.7 0 0 1 .52-.72 13.66 13.66 0 0 0 6-3.3 14.46 14.46 0 0 0 3.56-6 22.477 22.477 0 0 0 .88-3.46 17.701 17.701 0 0 1 5.44-10 .44.44 0 0 1 .62 0 .44.44 0 0 1 0 .6 18 18 0 0 0-3.5 6.22 13.998 13.998 0 0 0-.7 3.5 22.446 22.446 0 0 1-.76 3.8 14.2 14.2 0 0 1-4.12 6.7 14.62 14.62 0 0 1-7.06 3.38l.58-.74-.14 5.02-.32-.5 2 1.1a.46.46 0 0 1 .18.62.48.48 0 0 1-.624.267z" fill="#666"/><path d="M62.54 54.04l-2.62 1.84a7.999 7.999 0 0 0-2 2 6.66 6.66 0 0 0-1.04 2.56c-.14.86-.16 2-.26 3.02l-.86 12.5-3-.32 1.9-12.4.52-3.18A8.379 8.379 0 0 1 56.74 57a8.98 8.98 0 0 1 2.6-2.14l2.58-1.62zm14-.8l2.68 1.62a9.1 9.1 0 0 1 2.58 2.12 8.459 8.459 0 0 1 1.56 3.08c.28 1.2.36 2.12.54 3.18l1.88 12.38-2.98.34-.88-12.5a23.411 23.411 0 0 0-.24-3.02 7.019 7.019 0 0 0-1.06-2.56 7.999 7.999 0 0 0-2-2l-2.7-1.84z" fill="#333"/><g fill="#666"><path d="M88.64 50.92a9.999 9.999 0 0 1-4.52 3.82 9.539 9.539 0 0 1-2.98.62l-2.86.1L79 55l-2 4a.9.9 0 0 1-1.18.42 13.28 13.28 0 0 0-6.5-1.76 12.761 12.761 0 0 0-3.4.5 13.36 13.36 0 0 0-3.12 1.3.92.92 0 0 1-1.24-.32l-2-4 .74.46-2.86-.1a9.12 9.12 0 0 1-3-.62 9.659 9.659 0 0 1-4.56-4 .46.46 0 0 1 .16-.62.44.44 0 0 1 .6.1 8.86 8.86 0 0 0 4.24 3.14 8.001 8.001 0 0 0 2.58.38h2.86a.78.78 0 0 1 .7.42l2.1 4-1.34-.36a14.14 14.14 0 0 1 7.52-2.24 13.582 13.582 0 0 1 4 .62 14.316 14.316 0 0 1 3.6 1.66l-1.32.34 2-4a.82.82 0 0 1 .72-.42h2.82a7.998 7.998 0 0 0 2.56-.4 8.52 8.52 0 0 0 4.24-3.14.5.5 0 0 1 .76.6zM69.28 95.64l-3 5.02 3 10.98 3-10.98-3-5.02z"/><path d="M69.28 112.14a.5.5 0 0 1-.483-.368l-3-10.98a.502.502 0 0 1 .053-.389l3-5.02a.521.521 0 0 1 .858 0l3 5.02a.502.502 0 0 1 .053.389l-3 10.98a.5.5 0 0 1-.482.368zm-2.462-11.407l2.462 9 2.46-9-2.46-4.118zM60.26 94.26l-4.38 3.86-.44 11.4 6.16-9.58-1.34-5.68z"/><path d="M55.44 110.02a.501.501 0 0 1-.499-.519l.44-11.4a.501.501 0 0 1 .169-.355l4.38-3.86a.5.5 0 0 1 .817.26l1.34 5.68a.501.501 0 0 1-.066.386l-6.16 9.58a.5.5 0 0 1-.421.228zm.93-11.667L56 107.7l5.054-7.86-1.1-4.66zm-4.3-8.133l-5.32 2.38-3.86 10.72 8.76-7.28.42-5.82z"/><path d="M42.88 103.82a.5.5 0 0 1-.47-.669l3.86-10.72a.497.497 0 0 1 .266-.287l5.32-2.38a.5.5 0 0 1 .703.492l-.42 5.82a.498.498 0 0 1-.179.349l-8.76 7.28a.5.5 0 0 1-.32.116zm4.258-10.85l-3.166 8.793 7.185-5.97.344-4.773zM45.48 83.9l-5.82.68-6.88 9.06 10.54-4.3 2.16-5.44z"/><path d="M32.78 94.14a.5.5 0 0 1-.398-.803l6.88-9.06a.505.505 0 0 1 .34-.194l5.82-.68a.506.506 0 0 1 .454.192.5.5 0 0 1 .068.489l-2.16 5.44a.502.502 0 0 1-.276.278l-10.54 4.3a.493.493 0 0 1-.189.038zm7.15-9.1l-5.646 7.435 8.65-3.53 1.772-4.464zm38.37 9.2l4.36 3.86.44 11.4-6.16-9.58 1.36-5.68z"/><path d="M83.1 110.02a.5.5 0 0 1-.42-.23l-6.16-9.58a.5.5 0 0 1-.066-.387l1.36-5.68a.5.5 0 0 1 .818-.258l4.36 3.86a.499.499 0 0 1 .168.355l.44 11.4a.501.501 0 0 1-.499.519zm-5.624-10.17l5.054 7.86-.36-9.356-3.576-3.165zm9.004-9.63l5.34 2.38 3.84 10.72-8.76-7.28-.42-5.82z"/><path d="M95.66 103.82a.5.5 0 0 1-.319-.115l-8.76-7.28a.499.499 0 0 1-.179-.349l-.42-5.82a.499.499 0 0 1 .211-.445.504.504 0 0 1 .491-.048l5.34 2.38a.501.501 0 0 1 .267.288l3.84 10.72a.501.501 0 0 1-.471.669zm-8.277-8.028l7.2 5.974-3.15-8.795-4.383-1.953zM93.08 83.9l5.8.68 6.88 9.06-10.54-4.3-2.14-5.44z"/><path d="M105.76 94.14a.493.493 0 0 1-.189-.037l-10.54-4.3a.498.498 0 0 1-.276-.28l-2.14-5.44a.498.498 0 0 1 .069-.487.504.504 0 0 1 .454-.192l5.8.68a.503.503 0 0 1 .34.194l6.88 9.06a.5.5 0 0 1-.398.803zm-10.153-5.18l8.65 3.528L98.6 85.05l-4.76-.558z"/><path d="M69.202 102.142a36.555 36.555 0 0 1-29.705-15.394l2.446-1.736a33.521 33.521 0 0 0 54.578.134l2.44 1.748a36.285 36.285 0 0 1-23.741 14.754 36.997 36.997 0 0 1-6.017.494zM90.72 40.76a7.839 7.839 0 0 1-.92 2.64 5.82 5.82 0 0 1-2.12 2 .96.96 0 0 1-.58 0 10.838 10.838 0 0 0-2.54-.24 15.473 15.473 0 0 0-2.54.16 6.92 6.92 0 0 0-2.34.8 7.34 7.34 0 0 0-2 1.68.52.52 0 0 1-.66 0 .46.46 0 0 1-.12-.54 7.4 7.4 0 0 1 4.62-3.82 9.76 9.76 0 0 1 6 .22h-.64a4.66 4.66 0 0 0 1.76-1.28 7.821 7.821 0 0 0 1.2-2 .42.42 0 0 1 .52-.28.48.48 0 0 1 .32.598v.002z"/></g></svg>