<svg xmlns="http://www.w3.org/2000/svg" viewBox="0 0 128 128"><g fill="#333"><circle cx="63" cy="15.777" r="5.2"/><path d="M83 60.977H43a9.719 9.719 0 0 1-9.6-11.6l2.4-13.8a27.623 27.623 0 0 1 27-21.6h.2a28.006 28.006 0 0 1 27.2 21.4l2.4 14a9.926 9.926 0 0 1-9.6 11.6z"/></g><path d="M13.2 93.377a7.016 7.016 0 0 1 5.6-4.6l29.4-5.4v-14.4H78v14.4l29.4 5.4a7.316 7.316 0 0 1 5.6 4.6l4.2 11a135.225 135.225 0 0 1-108 0z" fill="#efc8a5"/><path d="M10.4 100.177a12.406 12.406 0 0 1 9.6-9.8c19.2-4.8 14.8-3.4 28-8.2v-13.2h29.8v14l28.2 7.4a14.078 14.078 0 0 1 9.4 10.6l.6 3.4a131.553 131.553 0 0 1-53.2 11.2 130.618 130.618 0 0 1-53-11.2z" fill="#e6b790"/><path d="M116 104.377l-.6-3.4a13.134 13.134 0 0 0-9.4-10.6l-28.2-7.4v-14H48v6.8l13.2 11.8a5.035 5.035 0 0 1 1.8 4v24.2a134.209 134.209 0 0 0 53-11.4z" fill="#ddad8a"/><path d="M89.2 85.377l-9.2-9.2-16.8 29-16.8-29-9.4 9.2-18 3a7.466 7.466 0 0 0-5.8 4.8l-4 10.8a135.225 135.225 0 0 0 108 0l-4-10.8a8.301 8.301 0 0 0-5.8-4.8l-18.2-3z" fill="#725948"/><path d="M40.6 96.977l-27.4-4-4.2 11.4a137.622 137.622 0 0 0 38.8 10.4zm44.8 0l27.4-4 4.2 11.4a137.622 137.622 0 0 1-38.8 10.4z" fill="#674e3d"/><path d="M90 104.977l4.2-2.4a1.275 1.275 0 0 1 1.2 0l4.2 2.4a1.209 1.209 0 0 1 .6 1.2v4.8l-10.2 1.2a1.209 1.209 0 0 1-.6-1.2v-4.8a1.729 1.729 0 0 1 .6-1.2zm-54 0l-4.2-2.4a1.275 1.275 0 0 0-1.2 0l-4.2 2.4a1.209 1.209 0 0 0-.6 1.2v4.8l10.2 1.2a1.209 1.209 0 0 0 .6-1.2v-4.8a1.729 1.729 0 0 0-.6-1.2z" fill="#cbbd95"/><path d="M63.2 117.1a136.657 136.657 0 0 1-54.6-11.348 1.5 1.5 0 0 1-.807-1.896l4-10.8a8.918 8.918 0 0 1 6.978-5.761l17.98-2.997a1.5 1.5 0 0 1 .494 2.959l-18 3a5.951 5.951 0 0 0-4.647 3.859l-3.5 9.446a134.035 134.035 0 0 0 104.197 0l-3.505-9.463a6.829 6.829 0 0 0-4.73-3.859l-17.9-2.982a1.5 1.5 0 0 1 .494-2.959l18 3A9.797 9.797 0 0 1 114.585 93l4.02 10.856a1.499 1.499 0 0 1-.807 1.896 136.657 136.657 0 0 1-54.6 11.347z" fill="#333"/><path d="M63 115.577a129.302 129.302 0 0 1-15.2-1L37 85.777l9.4-9.4 22.4 39c-2 .2-4 .2-5.8.2z" fill="#886b56"/><path d="M63 115.577a129.302 129.302 0 0 1-15.2-1L37 85.777l5.6-5.6 20.6 35.4z" fill="#7f6351"/><path d="M63 117.077a130.497 130.497 0 0 1-15.379-1.011 1.499 1.499 0 0 1-1.226-.962l-10.8-28.8a1.499 1.499 0 0 1 .344-1.587l9.4-9.4a1.5 1.5 0 0 1 2.361.313l22.4 39a1.5 1.5 0 0 1-1.151 2.24 59.483 59.483 0 0 1-5.949.207zm-14.117-3.883a125.483 125.483 0 0 0 14.117.883l3.3-.04-20.225-35.213-7.332 7.332z" fill="#333"/><path d="M63 115.577c-1.8 0-3.8 0-5.8-.2l22.6-39 9.2 9.4-10.8 29a131.284 131.284 0 0 1-15.2.8z" fill="#886b56"/><path d="M66.8 115.577l19.2-33 3.2 3.2-10.8 29c-4 .4-7.8.6-11.6.8z" fill="#7f6351"/><g fill="#333"><path d="M63 117.077a59.483 59.483 0 0 1-5.949-.208 1.501 1.501 0 0 1-1.149-2.245l22.6-39a1.5 1.5 0 0 1 2.37-.297l9.2 9.4a1.5 1.5 0 0 1 .333 1.573l-10.8 29a1.499 1.499 0 0 1-1.233.967 131.725 131.725 0 0 1-15.372.81zm-3.3-3.04l3.3.04a130.649 130.649 0 0 0 14.117-.689l10.145-27.243-7.153-7.3z"/><path d="M49.7 79.777h-3v-10.8a1.5 1.5 0 0 1 1.5-1.5H78a1.5 1.5 0 0 1 1.5 1.5v10.6h-3v-9.1H49.7z"/></g><path d="M84.8 43.777v-4.4c0-11.8-4-23.8-21.6-23.8s-21.6 12-21.6 23.8v4.4c-.2 0-6.4 0-4.4 10.8a8.116 8.116 0 0 0 6.4 6.4c0 7.6 2.2 8.6 9.4 16.2 2.8 3.6 6.2 3.2 10 3.2s7.2.4 10-3.2c7.4-7.6 9.4-8.6 9.4-16.2a8.116 8.116 0 0 0 6.4-6.4c2.4-10.8-3.8-10.8-4-10.8z" fill="#efc8a5"/><path d="M89 54.777c2.2-10.8-4.2-10.8-4.4-10.8v-4.4c0-11.8-4-23.8-21.6-23.8a33.714 33.714 0 0 0-6.6.6v23.2c-.2 1.6-1 1.8-2.2 2.6-.4.2-.2 1 .2 1 2 .4 4.8 1.2 6 3a.277.277 0 0 0 .4 0c.2-.2.2 0 .2-.2a3.075 3.075 0 0 1 1.2-.8h.6c.2.2.2.2.2.4v6a3.631 3.631 0 0 0 1.2 2.8 2.1 2.1 0 0 1 1 1.8 2.22 2.22 0 0 1-2.2 2.2c-1.6 0-2.2-1-4.4-1-1.2 0-1 1.6-1.2 1.6a4.032 4.032 0 0 1 2.2.6 6.333 6.333 0 0 0 3.2.8v6.6a3.843 3.843 0 0 0 2.6 3.6c1 .4 1.8 1.2 1.8 3.2 0 6-10.8-.6-10.8 6 2 .8 4.2.6 6.4.6 3.8 0 7.2.4 10-3.2 7.4-7.6 9.4-8.6 9.4-16.2a7.664 7.664 0 0 0 6.8-6.2z" fill="#e6b790"/><path d="M84.8 43.777a5.901 5.901 0 0 0-2.2 4.4v4.4a7.125 7.125 0 0 1-3 6.4 10.927 10.927 0 0 0-3.6 8.6v6.6c5-5 6.4-6.6 6.4-13.2a8.116 8.116 0 0 0 6.4-6.4c2.4-10.8-3.8-10.8-4-10.8z" fill="#ddad8a"/><path d="M41.6 43.777a5.901 5.901 0 0 1 2.2 4.4v4.4a7.125 7.125 0 0 0 3 6.4 10.927 10.927 0 0 1 3.6 8.6v6.6c-5-5-6.4-6.6-6.4-13.2a8.116 8.116 0 0 1-6.4-6.4c-2.6-10.8 3.8-10.8 4-10.8z" fill="#e6b790"/><path d="M65.027 82.013c-.336 0-.67-.003-1.006-.007L63 82l-1.022.006c-3.525.033-7.184.07-10.21-3.77l-2.707-2.806C44.356 70.6 42.24 68.427 42 62.23a9.713 9.713 0 0 1-6.395-7.355c-.88-4.745-.388-8.275 1.46-10.494a6.128 6.128 0 0 1 2.913-1.958v-3.046c0-16.632 8.03-25.423 23.224-25.423s23.223 8.792 23.223 25.423v3.048a5.906 5.906 0 0 1 2.858 1.962c1.79 2.232 2.162 5.78 1.104 10.542a9.682 9.682 0 0 1-6.381 7.301c-.216 6.355-2.193 8.35-7.45 13.652l-2.33 2.365c-2.738 3.466-5.987 3.766-9.196 3.766zM63 78.753l1.054.007c3.256.03 5.615.055 7.665-2.58a1.641 1.641 0 0 1 .118-.136l2.41-2.448c5.404-5.45 6.53-6.585 6.53-12.62a1.623 1.623 0 0 1 1.324-1.596 6.516 6.516 0 0 0 5.102-5.103c1.05-4.73.33-6.88-.455-7.86A2.669 2.669 0 0 0 84.8 45.4a1.623 1.623 0 0 1-1.623-1.623v-4.4c0-14.922-6.534-22.176-19.977-22.176s-19.977 7.254-19.977 22.177v4.4A1.623 1.623 0 0 1 41.6 45.4a2.841 2.841 0 0 0-2.041 1.057c-.825.992-1.627 3.154-.763 7.824a6.516 6.516 0 0 0 5.102 5.1 1.623 1.623 0 0 1 1.324 1.596c0 5.86 1.183 7.076 6.166 12.2l2.8 2.894c.036.038.07.078.102.12 2.05 2.635 4.408 2.61 7.665 2.58L63 78.753z" fill="#333"/><path d="M62.94 61.75a4.798 4.798 0 0 1-2.755-.873 4.523 4.523 0 0 0-1.984-.488.812.812 0 0 1 0-1.623 6.152 6.152 0 0 1 2.763.686l.108.065a3.42 3.42 0 0 0 3.899-.028 6.2 6.2 0 0 1 2.829-.723.812.812 0 0 1 0 1.623 4.545 4.545 0 0 0-2.036.515 5.319 5.319 0 0 1-2.825.846z" fill="#c6916d"/><path d="M66 65.377a5.301 5.301 0 0 0-2.6.2h-1a5.301 5.301 0 0 0-2.6-.2c-1.4.2-1.6 1.2-4.6 2.8l2.6 1.6a4.592 4.592 0 0 0 2.8.8H65a6.51 6.51 0 0 0 2.8-.8l2.6-1.6c-2.6-1.6-3-2.6-4.4-2.8z" fill="#ddab85"/><path d="M70.6 68.377a6.804 6.804 0 0 1-2-.2 5.84 5.84 0 0 0-1.8-.4 11.074 11.074 0 0 0-3.6.4h-.4a11.074 11.074 0 0 0-3.6-.4 5.84 5.84 0 0 0-1.8.4 3.408 3.408 0 0 1-2 0 .4.4 0 0 1 0-.8 5.84 5.84 0 0 0 1.8-.4l1.8-.6a8.882 8.882 0 0 1 4 .2h-.4a14.469 14.469 0 0 1 4.2-.2l2 .6a5.84 5.84 0 0 0 1.8.4.43.43 0 0 1 .4.4c0 .6-.2.6-.4.6z" fill="#c6916d"/><g fill="#333"><ellipse cx="54.2" cy="50.577" rx="2.2" ry="1"/><path d="M46.4 45.777l3.2-.8a19.404 19.404 0 0 1 3.4-.2c2.2.2 4.4 1 6.4 1.2l-.4 2.4-3.2-1.2a17.6 17.6 0 0 0-3-1 10.968 10.968 0 0 0-6.2.4z"/><ellipse cx="72.2" cy="50.577" rx="2.2" ry="1"/><path d="M79.6 46.577a10.968 10.968 0 0 0-6.2-.4 17.6 17.6 0 0 0-3 1l-3.2 1.2-.4-2.4c1.8-.2 4-1 6.4-1.2a19.404 19.404 0 0 1 3.4.2c1.2.2 2.2.6 3.2.8zM67 28.977a11.042 11.042 0 0 0-8 0 .881.881 0 0 1-1.2-.8v-12.4h10.4v12.4c.2.6-.6 1-1.2.8z"/><path d="M63 15.777c-20.4 0-21.6 17-21.6 23.8v6c2.4 0 2.2 6.4 2.2 6.4h.8v-14a18.6 18.6 0 1 1 37.2 0v14h.8s-.2-6.4 2.2-6.4v-6c.2-6.8-1.2-23.8-21.6-23.8z"/></g></svg>