<svg xmlns="http://www.w3.org/2000/svg" viewBox="0 0 128 128"><path d="M116.76 98.24a11.28 11.28 0 0 0-9-9l-17-4c-3.62-.8-7.28-1.42-10.94-1.88v-8.12H49.76v8a99.888 99.888 0 0 0-11.04 2l-17.04 4a11.28 11.28 0 0 0-9 9l-.92 5a130.5 130.5 0 0 0 53.06 11 130.661 130.661 0 0 0 52.94-11z" fill="#a37c62"/><path d="M64.82 114.24a130.519 130.519 0 0 0 52.94-11l-.98-4.92a11.58 11.58 0 0 0-8.54-8.96C86.5 83.9 87.6 84.7 79.76 83.7v-9h-30v3.04l11.4 14a16 16 0 0 1 3.58 10v12.46z" fill="#a0775c"/><path d="M48.32 75.24h3v12h-3zm30 0h3v12h-3z" fill="#333"/><path d="M86.84 44.7v-5c0-12.72-6.58-21.5-22-21.5s-22 8.8-22 21.5v5c-3.82 0-4.58 3.74-3.68 8 .76 3.54 2.68 8.48 5.68 8.48v5c0 4.6 6.36 11.52 12.98 15a17.58 17.58 0 0 0 7 1.04 15.22 15.22 0 0 0 6.5-1.04c6.62-3.48 13.52-10.4 13.52-15V61.2c3 0 5.22-4.96 6-8.48.92-4.28-.16-7.92-4-8.02z" fill="#a88064"/><path d="M48.84 60.24a9.821 9.821 0 0 1-1.7-2.84.18.18 0 0 0-.18-.12.167.167 0 0 0-.16.16 2.32 2.32 0 0 1-2 2.3v6.46c0 3.3 3.56 7.8 8 11.36v-9.32c.06-3.82-2.16-5.88-3.96-8zm38-15.54v-5c0-12.72-6.58-21.5-22-21.5a34 34 0 0 0-6.48.62V39.4c0 4.24-4.3 4.24-4.3 6.36a10.84 10.84 0 0 1 6.46 2.58h3.24a1.08 1.08 0 0 1 1.08 1.06v4.22a3.06 3.06 0 0 0 1.26 2.48 2.121 2.121 0 0 1-1.24 3.84h-.04c-1.6 0-.96-.92-3.1-.92-1.44 0-2 .58-2 1.08a.46.46 0 0 0 0 .4.52.52 0 0 0 .38.2c3.72 0 1.72 1.14 4.74 1.18v8.72a1.08 1.08 0 0 0 1.08 1.06 3.18 3.18 0 1 1 0 6.36h-3.24a4.26 4.26 0 0 0-4.14 3.26v.2a20.82 20.82 0 0 0 6.28.74 15.22 15.22 0 0 0 6.5-1.04c6.62-3.48 13.52-10.4 13.52-15v-5c3 0 5.22-4.96 6-8.48.92-4.26-.16-7.9-4-8z" fill="#a0775c"/><path d="M87.76 45a4.619 4.619 0 0 0-.96-.14v-5c0-12.7-6.58-21.5-22-21.5s-22 8.8-22 21.5v5a4.001 4.001 0 0 0-1 .16s3.54.34 5 5.56v-10l2-2.24c2-2-.14-8.48 4-10a69.06 69.06 0 0 1 24 0c4.14 1.52 2 8 4 10l2 2.24v10c1.5-5.32 4.96-5.58 4.96-5.58z" fill="#836552"/><path d="M87.76 45a4.619 4.619 0 0 0-.96-.14v-5c0-6.36-1.64-11.74-5.22-15.52-3.58-3.74-9.04-6-16.7-6a22.119 22.119 0 0 0-3.3.16h-.28a25.866 25.866 0 0 0-2.9.44v8.62a69.763 69.763 0 0 1 18.46.78c4.14 1.52 2 8 4 10l2 2.24v10c1.44-5.32 4.9-5.58 4.9-5.58z" fill="#7c5e4d"/><path d="M64.84 18.2c-9.42 0-15.52 3.3-18.86 8.74l37.78.06c-3.36-5.5-9.48-8.8-18.92-8.8z" fill="#755849"/><path d="M87.16 45h-.2c-1.66 0-4.12 1.6-4.12 3.26v6c0 2.98 0 4-2 6a10.78 10.78 0 0 0-4 8v9.32c4.46-3.56 8-8 8-11.36V61.2c3 0 5.22-4.96 6-8.48a14.005 14.005 0 0 0 .3-2.32v-.44c-.1-2.72-1.38-4.76-3.98-4.96z" fill="#916953"/><g fill="#333"><path d="M63.836 83.768a18.963 18.963 0 0 1-6.531-1.158 1.496 1.496 0 0 1-.183-.082C50.494 79.044 43.34 71.81 43.34 66.2v-3.768c-3.63-1.347-5.215-7.387-5.646-9.396-.437-2.08-.88-5.925 1.057-8.376a4.905 4.905 0 0 1 2.569-1.705V39.24c0-14.535 8.346-22.54 23.5-22.54s23.5 8.005 23.5 22.54v3.708a5.251 5.251 0 0 1 2.798 1.854c1.476 1.877 1.9 4.877 1.188 8.233-.697 3.144-2.67 8.18-5.966 9.395v3.77c0 5.435-7.434 12.707-14.322 16.328a1.532 1.532 0 0 1-.146.067 16.923 16.923 0 0 1-7.054 1.148q-.492.025-.982.025zm-5.408-3.942a15.994 15.994 0 0 0 6.309.918 1.42 1.42 0 0 1 .171 0 13.756 13.756 0 0 0 5.786-.908c6.628-3.508 12.646-9.99 12.646-13.635v-5a1.5 1.5 0 0 1 1.5-1.5c1.745 0 3.754-3.777 4.536-7.305.515-2.398.28-4.6-.616-5.738a2.437 2.437 0 0 0-1.979-.917 1.5 1.5 0 0 1-1.461-1.499v-5c0-12.966-6.897-19.54-20.5-19.54s-20.5 6.574-20.5 19.54v5a1.5 1.5 0 0 1-1.461 1.5 2.132 2.132 0 0 0-1.754.779c-.85 1.074-1.027 3.277-.477 5.893.893 4.152 2.704 7.288 4.213 7.288a1.5 1.5 0 0 1 1.5 1.5v5c0 3.788 5.75 10.26 12.088 13.625z"/><circle cx="55.32" cy="49.98" r="1.5"/><path d="M64.178 115.742a131.153 131.153 0 0 1-53.021-11.128 1.5 1.5 0 0 1-.868-1.668l1-5a12.695 12.695 0 0 1 10.193-10.18c1.292-.333 5.877-1.3 11.185-2.397l16.752-3.6a1.5 1.5 0 0 1 .681 2.922c-3.9.9-10.77 2.342-16.82 3.605l-11.15 2.388a9.759 9.759 0 0 0-7.897 7.824l-.766 3.828a127.753 127.753 0 0 0 51.345 10.394 128.729 128.729 0 0 0 51.238-10.394l-.762-3.8a9.725 9.725 0 0 0-7.807-7.82c-1.523-.376-7.545-1.648-13.92-2.995l-14.125-3.014a1.5 1.5 0 0 1 .645-2.93l14.1 3 13.938 3a12.668 12.668 0 0 1 10.113 10.179l.997 4.983a1.5 1.5 0 0 1-.868 1.668 131.919 131.919 0 0 1-53.548 11.127q-.318.002-.636.002zM49.98 45a9.999 9.999 0 0 1 2.64-1 10.54 10.54 0 0 1 2.86-.16 17.262 17.262 0 0 1 5.12 1.86.42.42 0 0 1 .224.55l-.004.01a.46.46 0 0 1-.4.26 25.101 25.101 0 0 1-2.66-.44l-2.5-.38a13.619 13.619 0 0 0-5 .12.4.4 0 0 1-.475-.308l-.005-.032a.44.44 0 0 1 .2-.48z"/><circle cx="73.44" cy="49.98" r="1.5"/><path d="M78.5 45.78a13.6 13.6 0 0 0-5-.12l-2.5.38a24.268 24.268 0 0 1-2.7.48.42.42 0 0 1-.44-.399v-.001a.4.4 0 0 1 .26-.4 17.68 17.68 0 0 1 5.12-1.86 11.4 11.4 0 0 1 2.86.16 10 10 0 0 1 2.64 1 .4.4 0 0 1 .172.539l-.012.02a.38.38 0 0 1-.44.22z"/></g><path d="M64.76 63.042a5.907 5.907 0 0 1-2.865-.745 4.54 4.54 0 0 0-2.14-.546.75.75 0 0 1 .003-1.5h.003a6.051 6.051 0 0 1 2.855.731 4.385 4.385 0 0 0 4.279.003 6.057 6.057 0 0 1 2.86-.734h.003a.75.75 0 0 1 .003 1.5 4.546 4.546 0 0 0-2.145.549 5.888 5.888 0 0 1-2.856.742z" fill="#674848"/><path d="M67.02 66.14a1.38 1.38 0 0 0-.9 0l-1.36.62-1.36-.62a1.34 1.34 0 0 0-.88 0 14.997 14.997 0 0 0-4.44 2.14.88.88 0 0 0-.12 1.34l1.46 1.52a3.82 3.82 0 0 0 2.8 1.22h5.12a3.82 3.82 0 0 0 2.8-1.22l1.42-1.54a.88.88 0 0 0-.052-1.243q-.033-.03-.068-.057a14.78 14.78 0 0 0-4.42-2.16z" fill="#916953"/><path d="M71.76 69.24c-1.24.1-2.42 0-3.54 0a10.199 10.199 0 0 0-3.22.46h-.48a9.999 9.999 0 0 0-3.22-.44 34.983 34.983 0 0 1-3.58 0 .34.34 0 1 1 0-.68c1.12-.14 2.26-.44 3.48-.64a8.001 8.001 0 0 1 3.8.26h-.4a10.179 10.179 0 0 1 3.72-.24c1.22.14 2.34.48 3.44.6a.36.36 0 0 1 .32.36.42.42 0 0 1-.32.32z" fill="#674848"/><path d="M40.66 66.36a5.18 5.18 0 0 1-.097-10.359l.098 1v1a3.197 3.197 0 0 0-2.291.975 3.18 3.18 0 1 0 5.471 2.145l2-.038a5.187 5.187 0 0 1-5.08 5.278l-.1.001z" fill="#333"/><path d="M40.66 64.04A2.96 2.96 0 1 0 43.62 67a2.96 2.96 0 0 0-2.96-2.96z" fill="#3882b2"/><path d="M40.66 70.96A3.96 3.96 0 1 1 44.62 67a3.964 3.964 0 0 1-3.96 3.96zm0-5.92A1.96 1.96 0 1 0 42.62 67a1.962 1.962 0 0 0-1.96-1.96zM89 66.36c-.034 0-.067-.001-.1-.001a5.181 5.181 0 0 1-5.08-5.278l2 .038a3.181 3.181 0 1 0 3.24-3.118L89 56a5.202 5.202 0 0 1 3.731 1.588 5.18 5.18 0 0 1-3.73 8.773z" fill="#333"/><path d="M89 64.04A2.96 2.96 0 1 1 86.04 67 2.96 2.96 0 0 1 89 64.04z" fill="#3882b2"/><path d="M89 70.96A3.96 3.96 0 1 1 92.96 67 3.965 3.965 0 0 1 89 70.96zm0-5.92A1.96 1.96 0 1 0 90.96 67 1.962 1.962 0 0 0 89 65.04z" fill="#333"/><path d="M85.58,21.42c0,2.32-1.88,2-4.2,2H48.58c-2.32,0-4.2.34-4.2-2V13.2A4.2,4.2,0,0,1,48.58,9H81.4a4.2,4.2,0,0,1,4.2,4.2v8.22Z" fill="#a42b2b"/><g fill="#333"><path d="M47.127 24.937a4.486 4.486 0 0 1-3.319-.972 3.419 3.419 0 0 1-.928-2.544V13.2a5.706 5.706 0 0 1 5.7-5.7H81.4a5.706 5.706 0 0 1 5.7 5.7v8.22a1.533 1.533 0 0 1-.028.289 3.284 3.284 0 0 1-.918 2.245c-1.037 1.02-2.494.996-4.04.974l-.733-.008h-32.8l-1.453.016zM48.58 10.5a2.703 2.703 0 0 0-2.7 2.7v8.22a1.072 1.072 0 0 0 .056.436 8.268 8.268 0 0 0 1.83.073l.813-.01 33.58.008a6.582 6.582 0 0 0 1.892-.118c-.008-.013.027-.13.027-.4a1.509 1.509 0 0 1 .02-.246V13.2a2.703 2.703 0 0 0-2.7-2.7z"/><path d="M48.078 9.476l2.845-.952 4.82 14.4-2.845.952zm8.56-.002l2.846-.95 4.8 14.4-2.846.95zm8.54.004l2.844-.956 4.84 14.4-2.844.956zm8.56 0l2.844-.956 4.84 14.4-2.844.956z"/></g><path d="M78.92 78.46c2.78 6.86-3.88 14.38-14.28 14.38-9.62 0-17.42-7.16-14.18-14.38-16.38 10-7.18 30 14.22 30s30.86-19.98 14.24-30z" fill="#3f3a39"/><path d="M84.88 83.92a19.441 19.441 0 0 0-6-5.46C81.66 85.32 75 92.84 64.6 92.84c-9.62 0-17.42-7.16-14.18-14.38a18.999 18.999 0 0 0-6 5.46c0 10.78 10 16.34 20.3 16.34 10.88 0 21.04-6.26 20.16-16.34z" fill="#333"/><path d="M71.38 91.66l13.26 8a13.581 13.581 0 0 0 2.72-8v-.14l-8.96-5.4a13.34 13.34 0 0 1-7.02 5.54z" fill="#bc2928"/><path d="M78.42 86.06a14 14 0 0 1-7 5.58l7.42 4.48a14.24 14.24 0 0 0 5.3-6.64z" fill="#a42b2b"/><path d="M50.94 86.06l-8.86 5.4v.14a13.679 13.679 0 0 0 2.72 8l13.26-8a13.44 13.44 0 0 1-7.12-5.54z" fill="#bc2928"/><path d="M50.92 86.08l-5.4 3.3a15.04 15.04 0 0 0 5.24 6.7l7.28-4.4a14.26 14.26 0 0 1-7.12-5.6z" fill="#a42b2b"/><path d="M59.38 92.12v16a29.5 29.5 0 0 0 10.6 0v-16a19.7 19.7 0 0 1-5.3.72 19.999 19.999 0 0 1-5.3-.72z" fill="#bc2928"/><path d="M69.98 99.76v-7.64a20.54 20.54 0 0 1-10.56 0v7.58a26.561 26.561 0 0 0 10.56.06z" fill="#a42b2b"/><path d="M64.62 109.96c-11.676 0-21.546-6.1-24-14.833-1.93-6.864 1.195-13.573 8.36-17.947a1.5 1.5 0 0 1 2.154 1.885 6.414 6.414 0 0 0 .632 6.289c2.335 3.58 7.485 5.986 12.815 5.986 5.44 0 10.514-2.312 12.925-5.9a6.712 6.712 0 0 0 .865-6.426 1.5 1.5 0 0 1 2.163-1.849c7.173 4.31 10.33 10.937 8.447 17.73-2.458 8.864-12.475 15.054-24.36 15.054zM47.582 81.917c-3.878 3.46-5.356 7.84-4.075 12.398 2.442 8.688 12.656 12.645 21.113 12.645 12.3 0 19.75-6.664 21.468-12.856 1.258-4.537-.285-8.894-4.254-12.316a10.323 10.323 0 0 1-1.841 5.338c-2.998 4.45-8.904 7.214-15.413 7.214-6.3 0-12.46-2.953-15.328-7.348a9.855 9.855 0 0 1-1.67-5.075z" fill="#333"/><path d="M66.3 98a1.44 1.44 0 1 1-1.44-1.42A1.46 1.46 0 0 1 66.3 98zm-17.52-5.66a1.2 1.2 0 1 1-1.2-1.2 1.2 1.2 0 0 1 1.2 1.2zm34.14 0a1.2 1.2 0 1 1-1.2-1.2 1.2 1.2 0 0 1 1.2 1.2z" fill="#3f3a39"/></svg>