<svg xmlns="http://www.w3.org/2000/svg" xmlns:xlink="http://www.w3.org/1999/xlink" width="240" height="336" viewBox="-120 -168 240 336" preserveAspectRatio="none"><defs><path id="A" d="M-82.4-130.4H82.4v260.8H-82.4z"/></defs><symbol id="B" viewBox="-500 -500 1000 1000" preserveAspectRatio="xMinYMid"><path d="M50-460h200m-100 0v710a100 100 0 0 1-400 0v-30" stroke="red" stroke-width="80" stroke-linecap="square" stroke-miterlimit="1.5" fill="none"/></symbol><symbol id="C" viewBox="-600 -600 1200 1200" preserveAspectRatio="xMinYMid"><path d="M-400 0C-350 0 0-450 0-500 0-450 350 0 400 0 350 0 0 450 0 500 0 450-350 0-400 0z" fill="red"/></symbol><symbol id="D" preserveAspectRatio="none" viewBox="0 0 1300 2000"><path fill="#fc4" d="M0 0v602.5A52.5 17.5 0 0 1 52.5 585a52.5 17.5 0 0 1 47.5 10.092v-197.7C208.286 356.236 247.222 289.517 265 215c-50.477 41.168-105.797 67.4-165 81.69V100L0 0zm0 602.5V635c0-7.263 13.907-13.493 33.71-16.14l.3-.002A52.5 17.5 0 0 1 0 602.5zM0 635v35a52.5 17.5 0 0 1 52.5-17.5 52.5 17.5 0 0 1 47.5 10.092v-17.535c-9.953 4.5-26.39 7.443-45 7.443-30.376 0-55-7.835-55-17.5zm0 35v1040l100-100V707.814c-7.793 5.74-23.892 9.686-42.5 9.686-26.234 0-47.5-7.835-47.5-17.5 0-5.867 7.837-11.06 19.863-14.234A52.5 17.5 0 0 1 0 670zm872.922-504.63C878.474 185.244 890 227.41 890 235c0 10-10 40-10 55s-10 70-20 95-45 90-50.285 100.826c2.87 18.592 22.06 32.816 42.186 38.035l-1.488-.033c-33.86 23.766-71.467 38.494-112.363 44.63-68.314 10.247-147.235-4.216-232.498-47.14l-.656.295c11.605-7.363 23.1-21.337 32.703-45.244C554.796 433.598 515 330 595 175c-67.978-.001-133.598 4.195-191.217 22.625-60.89 128.08-57.836 214.77-77.752 256.514C330 415 240 390 240 465c0 20.578 15.555 49.798 43.03 51.1 65.15 21.07 129.95 36.622 202.684 12.24a40.6 40.6 0 0 0 7.232-1.334l-10.63 4.787c93.453 50.018 181.504 68.032 258.7 56.453 52.213-7.832 99.7-29.078 141.033-63.695l-1.73-.04c9.594-2.607 17.178-8.654 20.148-18.94 24.05-28.32 34.2-44.003 46.78-61.896 2.826-6.006 3.973-13.878 2.75-23.664-5-40-50-20-49.88-4.727-3.373-10.432-5.12-21.98-4.975-35.377C914.503 387.622 940 374.143 940 350c0-40-40-5-40-5s16.804-123.5-17.262-178.78l-9.816-.85zm88.28 300.824C905.57 546.71 830.55 595.03 743.984 608.014c-88.05 13.207-187.444-9.83-290.957-69.645L445 540l27.33 31.725c96.126 49.65 189.63 68.817 274.62 56.068 70.778-10.617 134.61-43.834 186.826-96.937l-2.9 3.176 17.164 274.627 17.586-58.613-14.854-237.656c9.408-10.912 18.38-22.524 26.883-34.828l3.633-5.258-20.088-6.11zm72.14 19.826c26.26 105.355 79.358 198.02 165.48 268.012l1.105-38.525c-66.365-59.904-109.386-135.173-133.367-221.154l-33.22-8.332zm-668.078 55.54l151.07 170.174c-.862-.06-1.722-.103-2.578-.115-1.297-.018-2.586.017-3.863.105-10.22.706-19.688 4.787-26.588 11.688-11.544 11.544-15.2 30.278-8.35 47.686-5.928-1.86-11.945-2.542-17.723-2.143-10.22.706-19.69 4.787-26.6 11.688-9.67 9.67-13.793 24.386-10.86 39.14-4.226-.84-8.45-1.11-12.55-.828-10.22.706-19.69 4.787-26.6 11.688-9.617 9.617-13.748 24.224-10.908 38.896l-.85-.187a15 15 0 0 0-2.979-.311c-.87-.003-1.723.067-2.555.207l.39 2.127c-21.617-108.042-70.89-218.342-156-326.48l-63.596 41.584c3.825 14.65 9.9 37.28 10.846 53.52.352 5.977-.336 13.376-1.412 21.79 156.38 228.2 134.295 446.7 38.824 633.137 27.042 33.29 49.713 70.3 68.02 110.166 43.963-73.483 78.356-154.444 98.05-240.098l-.31 1.623 295.53-300.145 121.16 136.48 21.035-21.363L408.006 544.65l-42.742-3.1zM100 609.904a52.5 17.5 0 0 1-26.826 8.654l.662-.006c10.648 1.235 19.75 3.49 26.164 6.39v-15.037zm0 67.5a52.5 17.5 0 0 1-19.865 7.443l1.057-.02c8.065 1.713 14.63 4.275 18.81 7.354v-14.777zm738.64 20.332l-25.588 8.225c8.45 25.62 22.49 63.8 36.947 84.04 10.843 15.18 28.27 35.064 44.53 52.715 0 0 23.036-12.07 16.2-19.656C897.24 808.094 883.902 792.462 875 780c-14.126-19.776-27.856-56.685-36.36-82.264zm-51.79 14.543l-26.717 4.648C767.967 741.662 783.72 787.21 800 810c14.39 20.144 40.37 48.57 59.836 69.07 7.133 7.513 16.883-18.613 16.883-18.613C858.628 841.113 837.464 817.45 825 800c-15.166-21.233-29.875-62.216-38.15-87.72z"/></symbol><symbol id="E" preserveAspectRatio="none" viewBox="0 0 1300 2000"><path fill="red" d="M199.52 0l157.664 165.582 25.473-4.902c149.958-27.996 296.776-37.138 441.393-36.5l61.848.84 34.475 1.57L1040.95 0h-90.37L876.95 108.7l-3.268-.072-52.8-.684a2658.24 2658.24 0 0 0-43.678.152l-7.916.094L798.268 0H696.223l-7.773 110.4-5.36.22a2217.5 2217.5 0 0 0-87.605 5.359l-5.514.447L570.955 0H447.898l45.314 126.52-7.39.957c-26.194 3.39-52.95 7.403-79.9 12.123l-3.543.62L292.633 0zm108.35 0l99.543 127.197c23.432-4.05 46.65-7.54 69.502-10.588L435.15 0zm275.244 0l16.924 103.627c25.99-2.04 51.693-3.606 77.19-4.72L684.19 0zM810.69 0l-25.73 96.07 35.975-.125 49.725.645L936.086 0zM0 50v70l80 80v-70zm0 150v109.854c27.325-.91 54.014-3.78 80-8.816V280zm225.898 66.748C156.887 308.026 80.516 327.253 0 329.854v73.936c87.942-16.247 143.5-43.188 179.627-75.494 20.794-18.59 35.415-39.2 46.27-61.547zM80 404.438c-23.576 7.69-50.13 14.285-80 19.656V435l80 80zM262.084 508.61l-54.93 36.684c65.585 82.864 109.888 167.062 137.03 251.623l130.922-131.623L365.264 541.56c-34.415-10.878-70.714-12.66-103.18-32.95zm863.334 2.24l-42.344 33.27 9.807 23.38h66.514l-40.512 50.64 14.36 21.424 61.38-10.23-17.67 63.613 12.203 12.115 10.983-39.54-.596-43.387-6.068-7.82-60.37 10.063 36.715-45.895-13.078-25.984h-60.057l46.652-36.656zM0 515v87.5A52.5 17.5 0 0 1 52.5 585a52.5 17.5 0 0 1 18.664 1.164zm0 87.5V635c0-7.263 13.907-13.493 33.71-16.14l.3-.002A52.5 17.5 0 0 1 0 602.5zM0 635v35a52.5 17.5 0 0 1 52.5-17.5 52.5 17.5 0 0 1 27.5 2.619v-4.545c-7.507 1.222-15.988 1.926-25 1.926-30.376 0-55-7.835-55-17.5zm0 35v80l80 80V715.414c-6.698 1.33-14.358 2.086-22.5 2.086-26.234 0-47.5-7.835-47.5-17.5 0-5.867 7.837-11.06 19.863-14.234A52.5 17.5 0 0 1 0 670zm170.152-103a3 3 0 1 0 0 6h8.81a3 3 0 1 0 0-6h-.38zM72.72 586.354A52.5 17.5 0 0 1 80 587.619v-1.266zm74.277.646a3 3 0 1 0 0 6h47.293a3 3 0 1 0 0-6h-.355zm15.473 20a3 3 0 1 0 0 6h46.166a3 3 0 1 0 0-6h-.324zM80 617.393a52.5 17.5 0 0 1-6.863 1.166l.7-.006c2.125.247 4.17.544 6.164.87zM176.955 627a3 3 0 1 0 0 6h45.28a3 3 0 1 0 0-6h-.297zm13.672 20a3 3 0 1 0 0 6h44.47a3 3 0 1 0 0-6h-.27zm12.87 20a3 3 0 1 0 0 6h43.63a3 3 0 1 0 0-6h-.25zm12.078 20a3 3 0 1 0 0 6h42.422a3 3 0 1 0 0-6zm597.477 18.96l-26.203 6.318c8.275 25.505 22.984 66.488 38.15 87.72 12.7 17.782 34.437 42.018 52.748 61.56l16.78-18.844C878.27 825.064 860.843 805.18 850 790c-14.456-20.238-28.498-58.42-36.947-84.04zM226.846 707a3 3 0 1 0 0 6h41.582a3 3 0 1 0 0-6zm10.307 20a3 3 0 1 0 0 6h41.02a3 3 0 1 0 0-6zm9.557 20a3 3 0 1 0 0 6h40.467a3 3 0 1 0 0-6zm8.814 20a3 3 0 1 0 0 6h39.916a3 3 0 1 0 0-6h-.156zm8.082 20a3 3 0 1 0 0 6h39.14a3 3 0 1 0 0-6zm7.354 20a3 3 0 1 0 0 6h38.61a3 3 0 1 0 0-6zm6.514 20a3 3 0 1 0 0 6h38.264a3 3 0 1 0 0-6zM0 830v235l80 80V910zm283.213 17a3 3 0 1 0 0 6h37.81a3 3 0 1 0 0-6zm5.043 20a3 3 0 1 0 0 6h37.44a3 3 0 1 0 0-6zm4.354 20a3 3 0 1 0 0 6h37.152a3 3 0 1 0 0-6zm3.668 20a3 3 0 1 0 0 6h36.945a3 3 0 1 0 0-6zm2.986 20a3 3 0 1 0 0 6h36.627a3 3 0 1 0 0-6zm2.197 20a3 3 0 1 0 0 6h36.453a3 3 0 1 0 0-6zm1.5 20a3 3 0 1 0 0 6h36.398a3 3 0 1 0 0-6zm.83 20a3 3 0 1 0 0 6H340a3 3 0 1 0 0-6zm.174 20a3 3 0 1 0 0 6H340a3 3 0 1 0 0-6zm-.484 20a3 3 0 1 0 0 6h36.412a3 3 0 1 0 0-6zm-1.137 20a3 3 0 1 0 0 6h36.447a3 3 0 1 0 0-6zm-1.787 20a3 3 0 1 0 0 6h36.555a3 3 0 1 0 0-6zm-2.52 20a3 3 0 1 0 0 6h36.816a3 3 0 1 0 0-6zm-3.184 20a3 3 0 1 0 0 6h37.115a3 3 0 1 0 0-6zm-3.826 20a3 3 0 1 0 0 6h37.354a3 3 0 1 0 0-6zM0 1145v235l80 80v-235zm286.55 2a3 3 0 1 0 0 6h37.656a3 3 0 1 0 0-6zm-5.11 20a3 3 0 1 0 0 6h38.023a3 3 0 1 0 0-6zm-5.75 20a3 3 0 1 0 0 6h38.445a3 3 0 1 0 0-6zm-6.396 20a3 3 0 1 0 0 6h38.914a3 3 0 1 0 0-6zm-7.04 20a3 3 0 1 0 0 6h39.396a3 3 0 1 0 0-6zm-7.69 20a3 3 0 1 0 0 6h39.844a3 3 0 1 0 0-6zm-8.342 20a3 3 0 1 0 0 6h40.34a3 3 0 0 0 .002 0 3 3 0 0 0 .006 0h.04a3 3 0 0 0 .162-5.996 3 3 0 0 0-.178 0h-.03zm-9 20a3 3 0 1 0 0 6h40.883a3 3 0 1 0 0-6zm-9.66 20a3 3 0 1 0 0 6h41.463a3 3 0 1 0 0-6zm-9.125 20a3 3 0 1 0 0 6h40.877a3 3 0 1 0 0-6zm12.818 20a3 3 0 1 0 0 6h17.828a3 3 0 1 0 0-6h-.125zM0 1459.955V1660l80-80v-40.768z"/></symbol><symbol id="F" preserveAspectRatio="none" viewBox="0 0 1300 2000"><path fill="#44f" d="M509 758c9 0 28.315-1.237 32 4 19 27 34.047 54.14 62 66 5.895 2.5 10.258 21.9 2 26-38.418 19.07-54.167-44.095-64-71-7.297-19.97-27.054-16.342-31-17-6-1-3.687-8-1-8zm-52.66 57.23c9 0 28.315-1.237 32 4 19 27 34.047 54.14 62 66 5.895 2.5 10.258 21.9 2 26-38.418 19.07-54.167-44.095-64-71-7.297-19.97-27.054-16.342-31-17-6-1-3.687-8-1-8zm-50 50c9 0 28.315-1.237 32 4 19 27 34.047 54.14 62 66 5.895 2.5 10.258 21.9 2 26-38.418 19.07-54.167-44.095-64-71-7.297-19.97-27.054-16.342-31-17-6-1-3.687-8-1-8zm-35.1 49.918c7.58.188 14.956 1.05 17.1 4.082 19 27 34.047 54.14 62 66 5.895 2.5 10.258 21.9 2 26-38.418 19.07-54.167-44.095-64-71-3.55-9.71-10.044-13.842-16.235-15.6m4.186 94.433c7.016 6.682 14.83 12.255 24.05 16.165 5.895 2.5 10.258 21.9 2 26-10.88 5.4-19.94 4.206-27.565-.892M697.25 280a13.625 20 0 0 1-13.625 20A13.625 20 0 0 1 670 280a13.625 20 0 0 1 13.625-20 13.625 20 0 0 1 13.625 20zM860 284.506a12.5 20.292 0 0 1-12.5 20.292 12.5 20.292 0 0 1-12.5-20.292 12.5 20.292 0 0 1 12.5-20.292 12.5 20.292 0 0 1 12.5 20.292zm179.288 309.79c-17.01-37.323-29.874-76.645-38.918-117.435l-19.08-4.558-3.633 5.258c-8.474 12.264-17.414 23.846-26.84 34.714L965.86 749.98c19.442-54.632 44.354-106.743 73.427-155.684zM1144.6 515.97l55.194 14.905M1144.6 515.97c3.5 27.018 30.4 77.532 54.943 106.167l.25-91.26M137.57 706c-4.348 7.57-8.855 12.68-13.242 14.107-15.037 4.888-24.328-10.13-24.328-10.13l.078 496.904c23.977 17.954 45.71 37.08 66.058 57.43C248.24 1096.685 266.79 907.898 137.57 706zM100 1610l-110 110m364.528-887.18l141.618-143.83 20.83 22.783c-1.078-.09-2.152-.14-3.22-.156-1.297-.018-2.586.017-3.863.105-10.22.706-19.688 4.787-26.588 11.688-11.544 11.544-15.2 30.278-8.35 47.686-5.928-1.86-11.945-2.542-17.723-2.143-10.22.706-19.69 4.787-26.6 11.688-9.67 9.67-13.793 24.386-10.86 39.14-4.226-.84-8.45-1.11-12.55-.828-10.22.706-19.69 4.787-26.6 11.688-9.617 9.617-13.748 24.224-10.908 38.896l-.85-.187a15 15 0 0 0-2.979-.311 15.09 15.09 0 0 0-2.555.208zM1100 520a10 10 0 1 1-20 0 10 10 0 1 1 20 0zm30 65a10 10 0 1 1-20 0 10 10 0 1 1 20 0zm45 70a10 10 0 1 1-20 0 10 10 0 1 1 20 0z"/></symbol><symbol id="G" preserveAspectRatio="none" viewBox="0 0 1300 2000"><path d="M130 1057c-4.057-.057-4.057 6.057 0 6h60c4.057.057 4.057-6.057 0-6zm-10 25c-4.057-.057-4.057 6.057 0 6h85c4.057.057 4.057-6.057 0-6zm-20 27v12h117.996l2.322-12zm0 25v12h112.2l2.612-12zm0 25v12h104.353l3.774-12zm0 25v12h96.806l3.483-12zm17.56 37h68.505l4.935-12h-87.372zm29.898 25h27.866l4.935-12h-46.444zm738.44-1121l-61.848-.84c-144.617-.628-291.435 8.513-441.393 36.5l-25.893 4.462L390 200c167.854-31.337 332.223-38.656 495-35l35.36-38.408zm48.586 474.122c-96.952 80.76-235.54 102.495-377.1 68.72l43.715 48.936c123.687 18.042 244.26-3.946 336.972-69.99zm-117.55 361.093l-372.5-419.61-36.418 4.035L795.9 981.588zM496.146 688.992L354.528 832.82l-10.07-34.848L475.103 665.29zm381.572 208.63l-17.55-18.4 51.237-55.326 19.39 20.895m-737.81 450.733c94.897-187.044 116.98-405.546-39.015-633.202-4.98 15.602-9.504 32.46-16.22 43.26 129.038 202.306 110.486 391.093 29.078 558.57z"/></symbol><symbol id="H" preserveAspectRatio="none" viewBox="0 0 1300 2000"><path stroke="#44f" stroke-linecap="round" stroke-linejoin="round" stroke-width="6" fill="none" d="M100 709.952V1610L0 1710M100 678.11v13.91m0-47v17.312m0-52.554v14.84m0-227.22v197.232M0 0l100 100v196.63m.156 910.645c107.997 79.347 171.737 190.717 199.486 315.914M207.3 545.26c238.076 301.583 196.382 620.395 53.375 860.345m97.5-238.99l295.53-300.145m-288.44-324.91l409.6 461.4M650 870.236V1005m-15-119.53v235.336m-15-220.102v203.205m-15-187.97v171.074m-15-155.84v138.943m-15-123.71v106.813m-15-91.578v74.682m-15-59.447v42.55m-15-27.316v10.42M408.006 544.65L795.9 981.588M444.424 540.616l372.5 419.61M368.8 1110.75l263.86-267.98m-278.133-9.948l141.618-143.83M344.46 797.973L475.103 665.29M144.45 587.034L262.085 508.6M940.1 460.45l259.692 70.425M882.05 524.54c-41.333 34.618-88.82 55.864-141.033 63.696-77.195 11.58-165.246-6.435-258.7-56.453m-29.288 6.587c103.513 59.813 202.907 82.85 290.956 69.644C830.55 595.03 905.57 546.7 961.2 466.193m-110.8 57.636c-33.86 23.766-71.466 38.494-112.363 44.628-68.314 10.247-147.235-4.216-232.498-47.14m51.833 146.536c141.56 33.774 280.148 12.04 377.1-68.72m-3.607-65.1L948.04 808.66m2.725-296.398l14.86 237.784M601.1 716.788c123.687 18.042 244.26-3.946 336.972-69.99m-177.938 70.13C767.967 741.662 783.72 787.21 800 810c19.662 27.527 60.973 70.517 77.718 87.62M786.85 712.28c8.275 25.505 22.985 66.488 38.15 87.72 12.464 17.45 33.628 41.114 51.72 60.458M813.053 705.96c8.45 25.62 22.49 63.8 36.947 84.04 10.843 15.18 28.27 35.063 44.53 52.714m-55.89-144.977c8.503 25.58 22.233 62.487 36.358 82.263 13.414 18.78 36.904 44.756 55.795 64.8M153.972 662.33c155.995 227.656 133.91 446.158 39.015 633.202m1006.94-580.027C1146.7 667.46 1108.5 609.532 1083.074 544.12c-6.273-16.146-11.767-32.747-16.514-49.768m132.263 259.68c-86.122-69.992-139.22-162.657-165.48-268.012m111.257 29.95c3.5 27.018 30.4 77.532 54.943 106.167M80 240L0 160m0-40l80 80m0 80L0 200m80 355L0 475m0-40l80 80m0 355L0 790m0-40l80 80m0 80L0 830m80 355l-80-80m0-40l80 80m0 80l-80-80m80 355l-80-80m0-40l80 80m0 80l-80-80m80-744.174V1580l-80 80M80 404.212v182.703M0 50l80 80v170.958m512.66 581.81l-100-110c-20-30 10-60 40-40l100 110m-94.138 95.607L440 830c-20-30 10-60 40-40l98.193 108.012m-89.308 90.76L390 880c-20-30 10-60 40-40l98.606 108.467m-162.55-64.385c4.52.868 9.232 2.776 13.945 5.918l98.886 108.774m-39.626 40.41l-62.918-69.2m.515 21.566l52.37 57.608m-39.892 40.12l-15.594-17.153m143.236-360.34c-1.078-.09-2.152-.14-3.22-.156-1.297-.018-2.586.017-3.863.105-10.22.706-19.688 4.787-26.588 11.688-11.544 11.544-15.2 30.278-8.35 47.686-5.928-1.86-11.945-2.542-17.723-2.143-10.22.706-19.69 4.787-26.6 11.688-9.67 9.67-13.793 24.386-10.86 39.14-4.226-.84-8.45-1.11-12.55-.828-10.22.706-19.69 4.787-26.6 11.688-9.617 9.617-13.748 24.224-10.908 38.896l-.85-.187a15 15 0 0 0-2.979-.311 15.09 15.09 0 0 0-2.555.208m548.15-45.143l-51.3 54.965m-11.27-152.673c30.438-14.244 60.78-29.936 91-47.503m-79.702 74.228c27.325-12.68 54.575-26.51 81.73-41.804m-67.9 67.342c23.36-10.81 46.666-22.46 69.903-35.142m-51.546 58.583c17.883-8.34 35.733-17.177 53.545-26.598m-33.556 49.258c11.862-5.596 23.7-11.414 35.54-17.48m-27.996 48.272l18.803-8.81m-90.7-122.66L890 690l-50.35 10.627m20.035 51.21L905 715l-52.69 11.12m21.244 51.638L920 740l-52.69 11.12m23.933 49.452L935 765l-52.69 11.12m64.607 14.53l-49.607 10.47m12.974 21.167l36.743-29.87m-2.452 27.948l-27.265 5.754m4.567 28l18.26-14.844m-143.39-28.452L735 805l50-20m31.745 50.826L755 830l45.995-18.398m35.75 49.224L775 855l46.293-18.517m35.452 49.343L795 880l48.076-19.23m22.41 49.466L810 905l50-20m-88.125-133.843c-45.675 6.443-87.52 11.323-128.233 13.293m128.102-13.624L710 745l50-20m24.463 56.69c-37.56 5.866-76.037 10.142-115.74 12.29m115.206-13.42L725 775l48.666-19.466m26.877 55.193c-34.21 5.512-69.172 9.723-105.12 12.22l-.338.023m125.478 12.752c-33.673 5.426-68.073 9.59-103.426 12.104m125.324 12.59c-33.626 5.47-67.975 9.688-103.27 12.263M865 885c-33.784 5.565-68.294 9.873-103.757 12.527m102.932 14.978c-26.572 4.034-53.61 7.264-81.218 9.5m49.582 22.2l-27.537 2.622m40.625-15.363L830 930l27.643-11.057m-719.9-213.35c129.038 202.306 110.486 391.093 29.078 558.57M144.664 587.05c211.433 263.85 187.394 526.874 72.807 741.458m23.227 36.982c127.566-228.18 159.318-517.652-64.978-799.216m-30.94 20.857c211.316 263.77 187.278 526.792 73.073 741.738M176.02 566.162c223.996 281.677 192.244 571.15 64.817 798.824M100 710s9.29 14.995 24.328 10.107C139.668 715.12 156.474 665.06 155 640c-1.468-24.957-15-65-15-70s1.91-14.69 1.91-34.69c0-30-31.91-45.31-34.073-2.527C107.21 545.174 110 550 115 565m0 0c-.676 4.552-10 15-10 20 0 20 8.286 22.81 8.286 22.81M0 602.5A52.5 17.5 0 0 1 52.5 585a52.5 17.5 0 0 1 52.5 17.5A52.5 17.5 0 0 1 52.5 620 52.5 17.5 0 0 1 0 602.5M0 635c0-7.263 13.907-13.493 33.7-16.14m40.126-.306C94.935 621 110 627.44 110 635c0 9.665-24.624 17.5-55 17.5S0 644.665 0 635m0 35a52.5 17.5 0 0 1 52.5-17.5A52.5 17.5 0 0 1 105 670a52.5 17.5 0 0 1-52.5 17.5A52.5 17.5 0 0 1 0 670m81.19 14.83C95.42 687.85 105 693.514 105 700c0 9.665-21.266 17.5-47.5 17.5S10 709.665 10 700c0-5.87 7.845-11.066 19.884-14.24m41.47-99.406L0 515m.02-205.145C97.554 306.607 187.046 278.578 265 215 242.582 308.966 186.547 390.542.192 424.084m-.166-94.22c80.508-2.603 156.867-21.843 225.872-63.117-10.857 22.346-25.478 42.958-46.27 61.547C143.53 360.564 88.07 387.48.303 403.733m403.48-206.11C336.263 339.655 347.37 430.787 320 465c-20 25-55 30-55 0 0-35 34.9-14.626 35-10m120.15-260.264C350.946 338.298 360.638 429.107 335 465c-25 35-70 30-70 0m171.417-272.9C365.772 337.154 375.06 428.375 350 465c-65 95-110 35-110 0 0-75 90-50 85-10m127.67-265.5C380.33 335.873 384.964 425.072 365 465c-20 40-77.602 65.6-94.572 48.745m198.335-326.44C395.282 334.978 400.064 424.872 380 465c-20 40-64.5 68.136-85 55m189.862-334.903C410.176 334 413.892 422.783 398.06 465c-15 40-63.998 80.555-88.06 60m190.99-342.134c-75.72 150.318-68.162 241.763-84.868 283.883-21.12 53.25-54.565 85.898-82.248 66.013m183.2-352.062c-76.908 151.61-70.007 243.962-83.777 287.36C420 510 385.05 555.512 355.845 537.64m177.108-358.65C455.14 331.615 463.15 424.35 453.116 468.935 445 505 414.577 561.022 378.61 540.433m170.223-363.16c-78.666 153.693-61.875 251.63-76.344 295.16-12.488 37.568-39.31 81-68.3 71.273m160.527-368.15c-79.667 154.67-60.427 249.282-68.044 294.7-6.67 39.754-36.097 76.466-68.194 69.63M580 175c-80 155-52.502 250.817-63.085 295.684-6.915 29.317-28.08 68.333-57.542 65.65M595 175c-80 155-40.203 258.598-57.4 301.367-14.963 37.21-34.463 50.386-51.885 51.962m387.2-362.96C878.475 185.244 890 227.41 890 235c0 10-10 40-10 55s-10 70-20 95-45 90-50 100-9.81 39.563-24.81 44.563S735 550 720 540s-20-15-30-15-30 5-45 0-85-15-90-30c-4.38-13.21-10-20-12.377-37.814M600 250c38.334-16.373 66.186-53.253 135-10l-5 5c-36.12-35.307-82.46-18.225-130 5m285-10c-35-15-45-30-95 5 30-15 66.71-25.583 95-5m-95 5c-5.615 2.796-7.258 21.124-5 30 2.466 9.69 15 50 15 60s8.935 52.186 8.935 57.186C808.935 402.186 790 410 775 410m-35-40c-20.808 1.708-37.884 39.09 9.317 31.367C779.33 396.457 760 390 730 400m-35 40v15l10-10-10-5m110-5l-5 10-10-5 15-5m-105 10c15 0 30-10 35-10s15 10 20 10 15-10 20-10 10 5 15 5m-55 30c10.017 10.832 40 15 40-10M595 285c35 5 80-30 120-30m-80 25c-5 15 55 25 70 15s20-5 20-5m65.923-4.735c20 0 52.332-22.8 70-25s20 10 20 10M790 285c20 10 33.07 20 52.775 20S880 290 880 290m2.74-123.78C916.805 221.49 899.287 285.408 900 345c.877 16.276 15 10 20 5m-44.13-27.097C862.68 401.75 940 392.043 940 350c0-40-40-25-40-5m-5 35c0 45 20 70 35 45m-66.742-47.322C863.15 465.86 958.062 484.498 950 420c-5-40-50-20-49.354-3.324M849.7 409.42c3.982 49.733 43.724 72.867 75.3 60.58 18.663-7.264 21.42-17.97 21.126-24.435m-109.745-10.34C844.554 477.95 902.816 504.17 930 470m-103.042-17.02c9.23 40.69 44.654 58.763 73.332 47.6 9.377-3.8 17.976-11.415 19.488-21.63m-101.294-10.206c11.128 36.612 44.52 52.456 71.806 41.836 10.08-3.923 15.52-8.85 18.345-13.57m-99.206-10.358c6.15 37.142 80.063 56.922 91.04 18.908m19.7-379.78l-34.26-.77-61.848-.84c-144.617-.628-291.435 8.513-441.393 36.5l-25.623 4.783M199.524 0L390 200c167.854-31.337 332.223-38.656 495-35L1041.082 0M472.33 571.725c96.126 49.65 189.63 68.816 274.622 56.068 92.087-13.813 172.42-65.876 230.705-150.232l3.633-5.258"/></symbol><symbol id="I" preserveAspectRatio="none" viewBox="0 0 1300 2000"><g stroke="#44f" stroke-linecap="round" stroke-linejoin="round"><path stroke-width="3" fill="none" d="M85 590c-4.7 8.725-5.187 17.1 0 25m3.7 6.884c-4.7 8.725-5.187 17.1 0 25m0 10c-4.7 8.725-5.187 17.1 0 25m0 5c-4.7 8.725-5.187 17.1 0 25M130 510c0 25 10 30 10 30m-89.072 57.5c-1.13 2.58-1.34 5.774 0 10m0 23.024c-1.13 2.58-1.34 5.774 0 10m0 24.476c-1.13 2.58-1.34 5.774 0 10m0 25c-1.13 2.58-1.34 5.774 0 10m0-13.84c-1.13 2.58-1.34 5.774 0 10M725 500c25-10 40-10 50-5m-70-240c-30-20-60.95-7.28-90 15m170 5c24.496-30.29 50.876-35.96 70-25m-162.46 8.604c5.8 4.01 9.635 10.975 9.635 18.896 0 12.426-9.44 22.5-21.088 22.5S660 289.926 660 277.5c0-3.285.66-6.406 1.846-9.22m191.278-6.54C860.1 265.138 865 273.153 865 282.5c0 12.426-8.662 22.5-19.347 22.5s-19.347-10.074-19.347-22.5c0-3.816.817-7.41 2.26-10.56M835 317.323c11.292 3.97 26.1-.362 27.07-2.323m-344.1 194.822c39.57 23.537 86.52 45.27 132.03 45.178m-124.63-56.734C565.472 522.392 613.488 545.094 660 545"/><use xlink:href="#C" height="200" width="200" transform="matrix(1 0 0 .972 550 902.8)" stroke-width="36"/></g><use xlink:href="#C" height="50" width="50" transform="matrix(.898794 -.426097 .438371 .873628 860.57087 586.811724)"/><use xlink:href="#C" height="50" width="50" transform="matrix(.927184 -.364118 .374607 .901223 819.455239 609.572373)"/><use xlink:href="#C" height="50" width="50" transform="matrix(.970296 -.235148 .241922 .943127 775.694559 621.300516)"/><use xlink:href="#C" height="50" width="50" transform="matrix(.994522 -.101602 .104528 .966675 729.523741 628.37316)"/><use xlink:href="#C" height="50" width="50" transform="matrix(1 0 0 .972 681 630.7)"/><use xlink:href="#C" height="50" width="50" transform="matrix(.996195 .084715 -.087156 .968301 633.274026 626.674584)"/><use xlink:href="#C" height="50" width="50" transform="matrix(.984808 .168786 -.173648 .957233 586.721011 618.849521)"/><use xlink:href="#C" height="50" width="50" transform="matrix(.965926 .251572 -.258819 .93888 542.32233 607.2387)"/></symbol><rect width="239" height="335" x="-119.5" y="-167.5" rx="12" fill="#fff" stroke="#000"/><use width="164.8" height="260.8" x="-82.4" y="-130.4" xlink:href="#D"/><use transform="rotate(180)" width="164.8" height="260.8" x="-82.4" y="-130.4" xlink:href="#D"/><use width="164.8" height="260.8" x="-82.4" y="-130.4" xlink:href="#E"/><use transform="rotate(180)" width="164.8" height="260.8" x="-82.4" y="-130.4" xlink:href="#E"/><use width="164.8" height="260.8" x="-82.4" y="-130.4" xlink:href="#F"/><use transform="rotate(180)" width="164.8" height="260.8" x="-82.4" y="-130.4" xlink:href="#F"/><use width="164.8" height="260.8" x="-82.4" y="-130.4" xlink:href="#G"/><use transform="rotate(180)" width="164.8" height="260.8" x="-82.4" y="-130.4" xlink:href="#G"/><use width="164.8" height="260.8" x="-82.4" y="-130.4" xlink:href="#H"/><use transform="rotate(180)" width="164.8" height="260.8" x="-82.4" y="-130.4" xlink:href="#H"/><use width="164.8" height="260.8" x="-82.4" y="-130.4" xlink:href="#I"/><use transform="rotate(180)" width="164.8" height="260.8" x="-82.4" y="-130.4" xlink:href="#I"/><use xlink:href="#B" height="32" width="32" x="-114.4" y="-156"/><use xlink:href="#C" height="26.769" width="26.769" x="-111.784" y="-119"/><use xlink:href="#C" height="55.68" width="55.68" x="34" y="-132.16"/><g transform="rotate(180)"><use xlink:href="#B" height="32" width="32" x="-114.4" y="-156"/><use xlink:href="#C" height="26.769" width="26.769" x="-111.784" y="-119"/><use xlink:href="#C" height="55.68" width="55.68" x="34" y="-132.16"/></g><use xlink:href="#A" stroke="#44f" fill="none"/></svg>