<svg xmlns="http://www.w3.org/2000/svg" xmlns:xlink="http://www.w3.org/1999/xlink" width="240" height="336" viewBox="-120 -168 240 336" preserveAspectRatio="none"><defs><path id="A" d="M-82.4-130.4H82.4v260.8H-82.4z"/></defs><symbol id="B" viewBox="-500 -500 1000 1000" preserveAspectRatio="xMinYMid"><path d="M50-460h200m-100 0v710a100 100 0 0 1-400 0v-30" stroke="red" stroke-width="80" stroke-linecap="square" stroke-miterlimit="1.5" fill="none"/></symbol><symbol id="C" viewBox="-600 -600 1200 1200" preserveAspectRatio="xMinYMid"><path d="M0-300c0-100 100-200 200-200s200 100 200 250C400 0 0 400 0 500 0 400-400 0-400-250c0-150 100-250 200-250S0-400 0-300z" fill="red"/></symbol><symbol id="D" preserveAspectRatio="none" viewBox="0 0 1300 2000"><path fill="#fc4" d="M0 27.174v74.783L60 175v479.352l45-31.2v-290.81c47.547 13.885 57.732 59.91 59.8 112.822C207.183 366.332 172.25 341.87 155 305c22.435-6.794 44.1-15.652 60-40-19.522-21.34-39.812-27.132-60-35 45.6-69.7 20.41-97.002-2.076-126.053 4.262 33.894 6.384 68.407-47.38 116.953L105 280.75V155zm616.344 92.865c-90.016.02-177.157 15.772-250.18 35.988C314.555 278.493 383.86 375.085 320 480c20-55-81.657-74.736-75 5 1.622 19.425 15.247 28.676 31.95 29.883-4.328-.204-8.267-.745-11.527-1.725L0 696.207v30l235.473-162.395-14.71-19.047L497.5 902.5l.037 17.5H802.5v-17.5c28.548-117.155 72.473-223.814 144.93-319.04l-103.836-76.062c-18.965 21.006-35.78 42.993-50.818 65.793l2.102-3.19H410.283L360 505h-21.818l21.775-6.81 11.504-1.785L360 505l11.695 15h459.648l12.2-12.578L820 490H412.902c34.86-5.908 68.524-14.106 95.883-32.45 7.353-4.93 12.79-12.427 20.594-17.135 11.293-6.812 22.2-13.53 28.297-25.416l-25.602 9.586 25.207-9.5c8.975-2.712 15.273-10.185 22.72-25.076 60.12-120.238-19.763-129.97 64.36-269.45-9.36-.347-18.704-.514-28.016-.512zm547.152 344.535c-23.907-.21-52.475 9.66-73.496 25.426-40 30-80 15-75-25-70 30-5 140 65 95 42.196-27.126 105-40 115-5 31.743-65.25 5.79-90.1-31.504-90.426zm-868.37 48.732l-2.736 1.025c-2.77.294-5.484.487-8.117.582 3.568-.216 7.2-.758 10.854-1.607zm497.47 60.156c-65.17 98.935-96.87 213.154-125.156 328.96l-253.982-328.32L422.64 585H785zm226.852 63.707c-52.412 65.676-90.82 136.7-119.543 212.92l21.53 23.418c27.583-79.52 64.96-153.577 116.838-221.973-5.41 26.806-8.273 54.748-8.273 83.465 0 136.64 64.807 255.724 160.738 318.285l-2.596-1.6c-45.752 115.83-115.544 225.867-185.646 304.262l13.85 17.496c72.416-75.9 146.448-187.78 195.84-307.033l-6.268-3.838c29.107 16.624 60.756 28.176 94.082 33.7v-18.47c-143.477-19.162-255-163.615-255-339.008 0-26.57 2.563-52.43 7.404-77.252l-14.016-10.17.318-.424zm88.402 64.605l17.75 13.197c-.443 6.608-.668 13.287-.668 20.027 0 122.962 75.11 225.59 175.068 249.656V953.92c-85.54-23.52-149.178-112.607-149.178-218.92l.01-2.04zm-20.275 13.242c-11.012-.226-20.79 7.228-14.314 26.105-44.412-8.72-25.537 58.643 7.295 29.1 7.514 43.327 68.57-5.007 20.6-20.63 18.918-19.53 1.51-34.266-13.582-34.576zm-254.97 86.537l-29.986 105.5c48.755 35.02 80.42 91.607 80.42 155.455 0 37.016-10.642 71.592-29.088 100.94l67.256 87.81C964.193 1199.896 990 1134.156 990 1062.5c0-112.477-63.586-210.376-157.396-260.945zm276.732 19.518c-12.986-.007-25.24 9.442-13.35 29.03-45.25.96-12.432 62.742 13.338 26.87 16.59 40.725 65.92-19.527 15.725-24.55 12.766-20.62-1.887-31.342-15.71-31.35zm59.832 95.607c-15.415.164-32.128 14.613-11.727 32.826-42.995 14.138 6.443 63.635 20.607 21.8 27.764 34.1 57.34-37.934 7.865-28.072 5.06-19.186-5.498-26.674-16.746-26.555zm92.318 75.375c-17.158-.39-37.538 22.874-8.574 35.96-36.78 26.376 25.225 58.778 26.197 14.62 8.782 5.792 15.837 5.75 20.89 2.678v-35.3c-5.022-2.238-12.218-1.772-21.805 3.48-.72-15.416-8.33-21.248-16.71-21.44z"/></symbol><symbol id="E" preserveAspectRatio="none" viewBox="0 0 1300 2000"><path fill="red" d="M199.648 0l156.055 158.855C484.175 122.112 658.575 97.858 815 150L960.455 0H874.2l-72.256 88.408-2.96-.604c-35.208-7.185-69.718-11.908-103.334-14.81l-5.03-.434L697.58 0h-67.604l-.084 70.975-4.998-.006c-38.885-.036-76.4 2.7-112.475 7.174l-4.648.578L492.77 0h-77.48l32.893 88.25-5.828 1.102c-28.865 5.46-56.36 11.82-82.547 18.523l-3.436.88L283.98 0zm96.344 0l64.8 97.352c23.534-5.972 48.19-11.616 73.916-16.62L404.617 0zM502.95 0l12.902 67.705c33.443-3.997 68.15-6.47 104.053-6.654L619.977 0zm204.674 0l-6.092 63.533c31.424 2.872 63.623 7.33 96.46 13.9L861.283 0zM0 101.957v594.53l60-42.137V175zm434.898 426.797c-6.16 0-12.292 3.65-5.287 10.936a7.5 7.5 0 0 1 10.574.002c7.006-7.286.873-10.937-5.287-10.937zm5.287 10.938c-.102.106-.18.205-.287.313.108-.108.208-.185.314-.287a7.5 7.5 0 0 0-.027-.025zm.027.025a7.5 7.5 0 0 1-.002 10.574c14.572 14.012 14.573-24.584.002-10.574zm-.002 10.574c-.106-.102-.205-.18-.312-.287.108.108.185.208.287.314a7.5 7.5 0 0 0 .025-.027zm-.025.027a7.5 7.5 0 0 1-10.574-.002c-14.012 14.572 24.584 14.573 10.574.002zm-10.574-.002c.102-.106.18-.205.287-.312-.108.108-.208.185-.314.287a7.5 7.5 0 0 0 .027.025zm-.027-.025a7.5 7.5 0 0 1 .002-10.574c-14.572-14.012-14.573 24.584-.002 10.574zm.002-10.574c.106.102.205.18.313.287-.108-.108-.185-.208-.287-.314a7.5 7.5 0 0 0-.025.027zm71.816-10.963c-6.16 0-12.292 3.65-5.287 10.936a7.5 7.5 0 0 1 10.574.002c7.006-7.286.873-10.937-5.287-10.937zm5.287 10.938c-.102.106-.18.205-.287.313.108-.108.208-.185.314-.287a7.5 7.5 0 0 0-.027-.025zm.027.025a7.5 7.5 0 0 1-.002 10.574c14.572 14.012 14.573-24.584.002-10.574zm-.002 10.574c-.106-.102-.205-.18-.312-.287.108.108.185.208.287.314a7.5 7.5 0 0 0 .025-.027zm-.025.027a7.5 7.5 0 0 1-10.574-.002c-14.012 14.572 24.584 14.573 10.574.002zm-10.574-.002c.102-.106.18-.205.287-.312-.108.108-.208.185-.314.287a7.5 7.5 0 0 0 .027.025zm-.027-.025a7.5 7.5 0 0 1 .002-10.574c-14.572-14.012-14.573 24.584-.002 10.574zm.002-10.574c.106.102.205.18.313.287-.108-.108-.185-.208-.287-.314a7.5 7.5 0 0 0-.025.027zm71.816-10.963c-6.16 0-12.292 3.65-5.287 10.936a7.5 7.5 0 0 1 10.574.002c7.006-7.286.873-10.937-5.287-10.937zm5.287 10.938c-.102.106-.18.205-.287.313.108-.108.208-.185.314-.287a7.5 7.5 0 0 0-.027-.025zm.027.025a7.5 7.5 0 0 1-.002 10.574c14.572 14.012 14.573-24.584.002-10.574zm-.002 10.574c-.106-.102-.205-.18-.312-.287.108.108.185.208.287.314a7.5 7.5 0 0 0 .025-.027zm-.025.027a7.5 7.5 0 0 1-10.574-.002c-14.012 14.572 24.584 14.573 10.574.002zm-10.574-.002c.102-.106.18-.205.287-.312-.108.108-.208.185-.314.287a7.5 7.5 0 0 0 .027.025zm-.027-.025a7.5 7.5 0 0 1 .002-10.574c-14.572-14.012-14.573 24.584-.002 10.574zm.002-10.574c.106.102.205.18.313.287-.108-.108-.185-.208-.287-.314a7.5 7.5 0 0 0-.025.027zm71.814-10.963c-6.16 0-12.292 3.65-5.287 10.936a7.5 7.5 0 0 1 10.574.002c7.006-7.286.873-10.937-5.287-10.937zm5.287 10.938c-.102.106-.18.205-.287.313.108-.108.208-.185.314-.287a7.5 7.5 0 0 0-.027-.025zm.027.025a7.5 7.5 0 0 1-.002 10.574c14.572 14.012 14.573-24.584.002-10.574zm-.002 10.574c-.106-.102-.205-.18-.312-.287.108.108.185.208.287.314a7.5 7.5 0 0 0 .025-.027zm-.025.027a7.5 7.5 0 0 1-10.574-.002c-14.012 14.572 24.584 14.573 10.574.002zm-10.574-.002c.102-.106.18-.205.287-.312-.108.108-.208.185-.314.287a7.5 7.5 0 0 0 .027.025zm-.027-.025a7.5 7.5 0 0 1 .002-10.574c-14.572-14.012-14.573 24.584-.002 10.574zm.002-10.574c.106.102.205.18.313.287-.108-.108-.185-.208-.287-.314a7.5 7.5 0 0 0-.025.027zm71.816-10.963c-6.16 0-12.292 3.65-5.287 10.936a7.5 7.5 0 0 1 10.574.002c7.006-7.286.873-10.937-5.287-10.937zm5.287 10.938c-.102.106-.18.205-.287.313.108-.108.208-.185.314-.287a7.5 7.5 0 0 0-.027-.025zm.027.025a7.5 7.5 0 0 1-.002 10.574c14.572 14.012 14.573-24.584.002-10.574zm-.002 10.574c-.106-.102-.205-.18-.312-.287.108.108.185.208.287.314a7.5 7.5 0 0 0 .025-.027zm-.025.027a7.5 7.5 0 0 1-10.574-.002c-14.012 14.572 24.584 14.573 10.574.002zm-10.574-.002c.102-.106.18-.205.287-.312-.108.108-.208.185-.314.287a7.5 7.5 0 0 0 .027.025zm-.027-.025a7.5 7.5 0 0 1 .002-10.574c-14.572-14.012-14.573 24.584-.002 10.574zm.002-10.574c.106.102.205.18.313.287-.108-.108-.185-.208-.287-.314a7.5 7.5 0 0 0-.025.027zm71.814-10.963c-6.16 0-12.292 3.65-5.287 10.936a7.5 7.5 0 0 1 10.574.002c7.006-7.286.873-10.937-5.287-10.937zm5.287 10.938c-.102.106-.18.205-.287.313.108-.108.208-.185.314-.287a7.5 7.5 0 0 0-.027-.025zm.027.025a7.5 7.5 0 0 1-.002 10.574c14.572 14.012 14.573-24.584.002-10.574zm-.002 10.574c-.106-.102-.205-.18-.312-.287.108.108.185.208.287.314a7.5 7.5 0 0 0 .025-.027zm-.025.027a7.5 7.5 0 0 1-10.574-.002c-14.012 14.572 24.584 14.573 10.574.002zm-10.574-.002c.102-.106.18-.205.287-.312-.108.108-.208.185-.314.287a7.5 7.5 0 0 0 .027.025zm-.027-.025a7.5 7.5 0 0 1 .002-10.574c-14.572-14.012-14.573 24.584-.002 10.574zm.002-10.574c.106.102.205.18.313.287-.108-.108-.185-.208-.287-.314a7.5 7.5 0 0 0-.025.027zM470 600l185 240c17.5-85.45 45-165 85-240zm680.832 132.96l-.01 2.04c0 106.313 63.636 195.4 149.178 218.92v-62.346c-46.11-17.785-81.745-62.134-93.36-117.395zM855.346 851.596c-5.122.09-10.463 2.545-15.346 8.404l-19.178 23.014 34.645 30.426L875 890c11.484-13.78-2.92-38.7-19.654-38.404zm48.607 53.824c-3.66.096-7.675 1.344-11.95 4.096l-25.887 16.66 24.732 38.896 25.563-16.45c16.624-10.7 7.3-43.722-12.457-43.2zm-101.336 1.625l-.088 11.303A3 3 0 0 0 797 920v20a3 3 0 0 0 5.346 1.91l-.346 44.19c42.307 39.722 28.55 84.92 15.53 130.05l36.42 47.29c18.446-29.347 29.088-63.924 29.088-100.94 0-63.848-31.665-120.435-80.42-155.455zm-302.662 9.912A3 3 0 0 0 497 920v20a3 3 0 1 0 6 0v-20a3 3 0 0 0-3.045-3.043zm15 0A3 3 0 0 0 512 920v20a3 3 0 1 0 6 0v-20a3 3 0 0 0-3.045-3.043zm15 0A3 3 0 0 0 527 920v20a3 3 0 1 0 6 0v-20a3 3 0 0 0-3.045-3.043zm15 0A3 3 0 0 0 542 920v20a3 3 0 1 0 6 0v-20a3 3 0 0 0-3.045-3.043zm15 0A3 3 0 0 0 557 920v20a3 3 0 1 0 6 0v-20a3 3 0 0 0-3.045-3.043zm15 0A3 3 0 0 0 572 920v20a3 3 0 1 0 6 0v-20a3 3 0 0 0-3.045-3.043zm15 0A3 3 0 0 0 587 920v20a3 3 0 1 0 6 0v-20a3 3 0 0 0-3.045-3.043zm15 0A3 3 0 0 0 602 920v20a3 3 0 1 0 6 0v-20a3 3 0 0 0-3.045-3.043zm15 0A3 3 0 0 0 617 920v20a3 3 0 1 0 6 0v-20a3 3 0 0 0-3.045-3.043zm15 0A3 3 0 0 0 632 920v20a3 3 0 1 0 6 0v-20a3 3 0 0 0-3.045-3.043zm15 0A3 3 0 0 0 647 920v20a3 3 0 1 0 6 0v-20a3 3 0 0 0-3.045-3.043zm15 0A3 3 0 0 0 662 920v20a3 3 0 1 0 6 0v-20a3 3 0 0 0-3.045-3.043zm15 0A3 3 0 0 0 677 920v20a3 3 0 1 0 6 0v-20a3 3 0 0 0-3.045-3.043zm15 0A3 3 0 0 0 692 920v20a3 3 0 1 0 6 0v-20a3 3 0 0 0-3.045-3.043zm15 0A3 3 0 0 0 707 920v20a3 3 0 1 0 6 0v-20a3 3 0 0 0-3.045-3.043zm15 0A3 3 0 0 0 722 920v20a3 3 0 1 0 6 0v-20a3 3 0 0 0-3.045-3.043zm15 0A3 3 0 0 0 737 920v20a3 3 0 1 0 6 0v-20a3 3 0 0 0-3.045-3.043zm15 0A3 3 0 0 0 752 920v20a3 3 0 1 0 6 0v-20a3 3 0 0 0-3.045-3.043zm15 0A3 3 0 0 0 767 920v20a3 3 0 1 0 6 0v-20a3 3 0 0 0-3.045-3.043zm15 0A3 3 0 0 0 782 920v20a3 3 0 1 0 6 0v-20a3 3 0 0 0-3.045-3.043zm148.318 54.355c-2.105-.01-4.39.27-6.855.885l-28.98 7.227 12.846 44.303 26.668-6.65c20.958-5.227 21.157-45.65-3.678-45.764zm-20.502 71.096l-.705 46.092 25.527.738c23.42.676 34.5-45.117 1.97-46.057zm-4.398 67.328l-14.518 43.906 28.377 6.9c22.767 5.538 43.136-36.944 11.516-44.635zm-19.982 55.225l-14.916 23.97 25.914 32.992c16.53-3.808 31.38-24.552 12.152-39.256z"/></symbol><symbol id="F" preserveAspectRatio="none" viewBox="0 0 1300 2000"><path fill="#44f" d="M1011.238 1309.35l-48.703-63.338c36.328-52.39 57.465-115.527 57.465-183.51 0-75.3-25.938-144.672-69.62-200.32 21.1-55.64 47.446-108.17 80.685-158.012-.688 10.083-1.065 20.406-1.065 30.832 0 123.54 52.97 232.746 134.42 299.04-37.026 100.824-93.294 198.03-153.184 275.308zM748 366c20.005-2.57 42.8-23.897 48-29 4.093-4.017 14.922 4.34 14 10-19.782 10.298-48.043 21.628-62 19m-61-142c2.047 3.47 65.668-38.846 77-43 13.905-5.097 26.594 6.692 26 6l2 11s-16.41-11.864-25-9c-9 3-78.944 40.146-80 35zm101 9.5a8.5 15.5 0 0 1-8.5 15.5 8.5 15.5 0 0 1-8.5-15.5 8.5 15.5 0 0 1 8.5-15.5 8.5 15.5 0 0 1 8.5 15.5z"/></symbol><symbol id="G" preserveAspectRatio="none" viewBox="0 0 1300 2000"><path d="M632.88 93.754c-110.56-.523-210.986 20.512-297.262 44.568l20.084 20.533C484.175 122.112 658.575 97.858 815 150l26.967-28.018c-72.766-19.84-142.75-27.915-209.086-28.23zM265.924 512.605l-3.684 2.355-6.8 22.098 11.08 12.824 48.814-7.5-14.822 44.465 10.316 13.127 46.346-3.86-11.92 51.648 11.39 12.11 45.498-7.582-11.92 55.623 11.422 11.96 44.04-7.34-15.242 49.535 11.08 12.824 49.227-7.574-15.307 49.75L485 830h50.723l-15.12 41.582L530 885h49.47l-7.816 17.195 21.777.42 10.672-23.477L595 865h-50.723l15.12-41.582L550 810h-51.46l16.018-52.06-11.08-12.824-49.227 7.574 15.307-49.75-11.203-12.805-45.498 7.582 11.92-55.623-11.422-11.96-45.25 7.54 11.64-50.43-10.574-12.213-44.89 3.74 15.205-45.613-11.008-13.045-49.227 7.574 3.77-12.25zm627.3 30.627l-44.746 6.885-8.223 12.13 12.752 55.256-55.256 12.752-6.982 13.6 21.154 50.77-50.77 21.154-5.385 13.076 21.676 52.025-42.6 25.555-3.598 13.43 20.896 37.615-43.4 34.72c-3.11 2.398-4.416 6.26-3.707 9.86l22.803.473 43.396-34.717 2.496-12.664-20.303-36.547 41.705-25.023 4.086-12.42-21.154-50.77 50.77-21.154 5.385-13.076-20.447-49.072 53.465-12.338 7.496-11.992-12.578-54.506 52.484-8.076zM350 550a7.5 7.5 0 1 0 0 15 7.5 7.5 0 1 0 0-15zm-62.5 7.5a7.5 7.5 0 1 0 0 15 7.5 7.5 0 1 0 0-15zm605 20a7.5 7.5 0 1 0 0 15 7.5 7.5 0 1 0 0-15zM440 585l220 285c24.38-100.968 56.858-199.87 105-285zm387.5 7.5a7.5 7.5 0 1 0 0 15 7.5 7.5 0 1 0 0-15zM470 600h270c-40 75-67.5 154.55-85 240zm-137.5 7.5a7.5 7.5 0 1 0 0 15 7.5 7.5 0 1 0 0-15zm60 0a7.5 7.5 0 1 0 0 15 7.5 7.5 0 1 0 0-15zm646 43.645c-51.9 68.37-89.415 142.62-117.31 222.342C964.096 924.86 990 990.7 990 1062.5c0 71.656-25.806 137.396-68.666 188.766l80.898 104.387c70.368-78.09 140.157-188.125 185.936-304.125-8.05-5.395-15.882-11.065-23.428-17.226-37.346 100.564-93.612 197.77-153.502 275.05l-48.703-63.338c36.328-52.39 57.465-115.528 57.465-183.512 0-4.86-.112-9.692-.326-14.5H1050a3 3 0 1 0 0-6h-30.65c-.5-8.084-1.33-16.084-2.428-24h45.578a3 3 0 1 0 0-6h-46.465c-1.28-8.1-2.853-16.106-4.727-24H1065a3 3 0 1 0 0-6h-55.182c-1.83-7.093-3.89-14.097-6.182-21H1080a6.001 6.001 0 0 0 4.397-1.834 380.08 380.08 0 0 1-6.33-10.166h-78.68a322.92 322.92 0 0 0-7.414-18H1065a6.001 6.001 0 0 0 2.568-.545 391.77 391.77 0 0 1-5.826-11.455h-75.436a326.79 326.79 0 0 0-9.658-18h76.848c-1.696-3.96-3.33-7.962-4.908-12h-79.22a331.63 331.63 0 0 0-12.316-18h84.978a411.36 411.36 0 0 1-3.822-12h-86.6l7.12-18h74.453l-2.873-12h-66.547l7.945-18h54.992l-1.967-12h-47.416l8.855-18h36.262l-1.104-12h-28.904c11.73-22.086 24.556-43.65 38.63-64.703 1.34-18.056 3.772-35.746 7.453-53.152zm-196 1.355a7.5 7.5 0 1 0 0 15 7.5 7.5 0 1 0 0-15zm-465 15a7.5 7.5 0 1 0 0 15 7.5 7.5 0 1 0 0-15zm60 0a7.5 7.5 0 1 0 0 15 7.5 7.5 0 1 0 0-15zm345 10a7.5 7.5 0 1 0 0 15 7.5 7.5 0 1 0 0-15zm-300 45a7.5 7.5 0 1 0 0 15 7.5 7.5 0 1 0 0-15zm-65 5a7.5 7.5 0 1 0 0 15 7.5 7.5 0 1 0 0-15zM805 735a7.5 7.5 0 1 0 0 15 7.5 7.5 0 1 0 0-15zm-55 30a7.5 7.5 0 1 0 0 15 7.5 7.5 0 1 0 0-15zm456.824 9.256c11.444 55.2 47.067 99.532 93.176 117.316v-48.914l-93.176-68.402zM462.5 782.5a7.5 7.5 0 1 0 0 15 7.5 7.5 0 1 0 0-15zm65 0a7.5 7.5 0 1 0 0 15 7.5 7.5 0 1 0 0-15zm250 35a7.5 7.5 0 1 0 0 15 7.5 7.5 0 1 0 0-15zm-270 25a7.5 7.5 0 1 0 0 15 7.5 7.5 0 1 0 0-15zm65 0a7.5 7.5 0 1 0 0 15 7.5 7.5 0 1 0 0-15zM725 845a7.5 7.5 0 1 0 0 15 7.5 7.5 0 1 0 0-15z"/></symbol><symbol id="H" preserveAspectRatio="none" viewBox="0 0 1300 2000"><path stroke="#44f" stroke-linecap="round" stroke-linejoin="round" stroke-width="6" fill="none" d="M497.5 1097.5v-195h305M497.537 920h304.598m-304.392 20h304.803M497.5 902.5L220.25 544.105M527.5 902.5L239.883 530.703M637.5 902.5L332.043 507.64M667.5 902.5L360 505m483.545 2.42C742.264 619.634 702.256 759.866 667.5 902.5m194.102-381.386C769.05 630.934 730.857 765.61 697.5 902.5m230.267-333.218C849.253 668.405 802.427 779.685 772.5 902.5m174.612-319.436C874.973 678.686 831.048 785.345 802.5 902.5m216.946-265.33c-52.412 65.676-90.817 136.7-119.54 212.92m138.8-199.13c-52.106 68.556-89.61 142.806-117.27 222.55m-88.83-71.954C926.414 852.124 990 950.023 990 1062.5c0 71.656-25.807 137.396-68.795 188.75m-111.74-375.97c62.645 39.59 104.133 108.65 104.133 187.22 0 47.078-14.894 90.74-40.3 126.696m-70.67-282.15c48.755 35.02 80.42 91.608 80.42 155.456 0 37.016-10.643 71.59-29.09 100.94M410.447 570H795.06m-423.364-50h459.648M380 490h440l480 352.653M266.065 512.714L0 696.207m235.472-132.395L0 726.207M950.477 862.55C994.062 917.828 1020 987.2 1020 1062.5c0 67.984-21.137 131.12-57.313 183.425m337.29-149.625C1147.335 1070.987 1030 918.87 1030 735c0-28.8 2.877-56.8 8.315-83.67m261.683 333.333C1200.04 960.596 1124.932 857.962 1124.932 735c0-6.74.226-13.42.67-20.028m174.332 238.936c-85.51-23.548-149.1-112.622-149.1-218.91l.01-2.04m149.154 158.627c-46.105-17.787-81.73-62.15-93.344-117.406m5.543 292.24c-49.392 119.253-123.424 231.132-195.84 307.033m171.797-321.758c-45.752 115.83-115.542 225.867-185.645 304.26m162.32-321.663c-37.42 100.57-93.7 197.776-153.48 274.922m-48.954-63.12l48.757 63.385m19.875-605.192c-33.188 49.72-59.544 102.25-80.73 157.52M422.64 585H784.9m515.082 492.842C1156.5 1058.675 1045 914.194 1045 738.805c0-26.88 2.62-53.037 7.572-78.126m6.827 80.43l-.01-2.304c0-23.564 2.12-46.54 6.143-68.676m12.38 186.235c-8.2-24.99-13.86-51.486-16.61-79.042m79.017 191.77c-20.107-23.635-37.136-50.952-50.307-81.03m151.473 156.423c-31.033-13.014-59.49-32.494-84.226-57.078m142.703 73.235c-8.078-1.138-16.05-2.695-23.895-4.65m-199.55-337.72c.705-12.565 2.052-24.92 4.003-37.022m13.19 169.118c-8.155-24.563-13.696-50.687-16.218-77.9m72.54 180.37c-17.576-21.1-32.57-45.235-44.38-71.68m147.018 147.088c-28.585-11.096-54.96-28-78.135-49.51M1093.26 715.83a336.36 336.36 0 0 1 2.375-23.247m7.264 129.45c-2.874-11.182-5.185-22.656-6.892-34.376m54.814 137.28c-7.863-10.8-15.053-22.307-21.495-34.43m112.126 111.923c-13.808-6.724-26.972-14.93-39.35-24.455m-92.982-246.44a315.99 315.99 0 0 1 1.869-27.929m-1.92 30.736l.05-2.807m.243 21.7c-.216-4.774-.325-9.582-.325-14.42l.03-4.463m11.77 89.733c-3.907-13.663-6.9-27.827-8.896-42.388m19.078 71.965l-2.965-7.62m38.852 70.85c-8.722-11.416-16.618-23.738-23.575-36.833m46.542 62.922l-3.46-3.477m113.556 61.718c-32.013-5.54-61.824-19.135-87.926-38.996m-87.004-109.793c24.758-39.99-53.606-42.76-29.062-2.32-45.25.96-12.43 62.742 13.34 26.872 16.59 40.725 65.92-19.527 15.724-24.55m-23.89-102.83c32.722-33.783-43.244-53.216-27.897-8.47-44.412-8.72-25.537 58.643 7.296 29.1 7.514 43.327 68.57-5.007 20.602-20.63m84.757 193.64c11.993-45.477-63.76-25.23-28.472 6.272-42.995 14.138 6.443 63.636 20.608 21.802 27.764 34.1 57.34-37.936 7.864-28.074m114.22 66.835c-5.027-2.306-12.268-1.873-21.94 3.425-2.19-46.98-68.392-4.957-25.283 14.52-36.78 26.376 25.223 58.78 26.196 14.622 8.812 5.81 15.9 5.757 20.947 2.654m-497.7-4.004c12.292-6.088 37.197-17.856 52.655-21.284 31.902-7.076 33.675 38.555 5 40-14.795.745-43.333 3.13-57.14 4.316m-.602-11.13L835 1045m-31.998-27.773c8.416-9.36 23.833-25.793 34.76-33.28C861.5 967.674 877.964 1004.39 855 1015c-15.996 7.4-51.487 25.46-51.487 25.46m-.87-9.927l26.99-19.574M802.8 968.572c3.872-6.98 7.984-13.67 11.743-18.34 18.053-22.427 44.39 7.99 25.456 24.767-9.832 8.712-28.33 26.23-37.107 34.582m-.33-15.415l11.982-15.727m-11.864-62.202c12.41.88 23.56 16.505 13.283 30.13-3.496 4.635-8.3 11.292-13.193 18.135m.437 103.3c13.22-1.66 41.624-4.727 57.747-2.804 32.447 3.87 19.033 47.52-8.507 39.403-12.405-3.656-35.107-9.597-49.603-13.34m.27-11.915l30.698 2.832m-31 9.45c13.122 3.413 40.07 10.94 54.14 18.57 25.83 14.005 5.327 44.2-15.498 37.286m-30.268-38.778l14.273 7.253m-4.65-232.748L840 860c20.833-25 50 12 35 30l-19.533 23.44m10.648 12.736l25.888-16.66c27.365-17.612 44.1 26.426 24.407 39.106l-25.56 16.45m6.59 14.353l28.98-7.228c31.576-7.875 33.267 39.208 10.533 44.878l-26.668 6.65m2.49 18.682l26.792.774c32.53.94 21.45 46.732-1.97 46.056l-25.527-.737m-3.695 21.235l25.375 6.172c31.62 7.69 11.25 50.174-11.516 44.636l-28.376-6.902m-5.466 11.32l23.15 17.706c19.226 14.704 4.377 35.45-12.153 39.257M830.62 805.888c8.31 11.194 11.712 25.644 4.933 37.823 33.98-40.776 81.55 19.572 57.086 48.93 44.633-28.725 71.944 43.1 39.808 63.783 51.5-12.844 54.26 63.95 17.18 73.198 53.056 1.532 34.986 76.22-3.214 75.118 51.574 12.544 18.35 81.835-18.782 72.803 29.402 22.486 9.944 53.634-14.82 62.553M0 27.174L105 155v468.153M0 101.956L60 175v479.35m45.543-433.45C171.888 160.995 153.134 122.46 150 80c151.153 128.774 109.83 254.773 15 380-.73-59.31-8.18-112.84-60.466-127.797m48.534-228.21C175.41 133 200.6 160.3 155 230c20.188 7.868 40.478 13.66 60 35-15.9 24.348-37.565 33.206-60 40 17.25 36.87 52.183 61.332 9.94 139.946m921.1 240.61c1.723-14.747 5.19-42.096 8.96-45.554 5.24-4.806 44.33-54.33 50-60 5-5 35-10 40-10s26.73 9.53 30 25c9.58 45.312-10.243 75.366-35 10-10 10-15 10-30 10 42.72 33.895 28.888 60.21-15 80m54.832-125.17c3.706-4.796 8.718-9.813 15.168-14.83 30.75-23.916 77.015-7.61 30 30-6.876 5.5-13.28 9.583-19.093 12.442m15.06-9.207c37.403-11.47 66.81 9.2 8.43 42.197-55.597 31.424-78.104 13.095-54.412-13.083m53.107 13.57c34.28-2.653 54.672 18.516-2.566 38.272-59.976 20.7-76.954-1.87-43.853-22.363m45.822 21.752c34.15-2.052 55.895 22.657.33 36.42-57.162 14.158-68.36-12.308-31.514-28.41m-28.49 76.72c22.272-6.892 50.557-31.936 53.306-46.624m-62.557-34.1c4.88 19.335-15.884 43.747-18.572 42.404m-135-250c-5 40 35 55 75 25 53.814-40.36 157.1-42.075 105 65-10-35-72.804-22.126-115 5-70 45-135-65-65-95m0 0c-45.453 52.655 14.216 101.957 90 50 74.272-50.92 112.522 23.688 90 40l-5 15m-16.173-104.722c8.656 16.02 15.13 32.113 16.274 48.388m-39.75-48.355c9.92 11.142 17.946 22.907 22.308 35.877m-62.768-23.222c9.18 6.823 17.74 14.14 24.698 22.41m-58.237-1.766c12.964 2.473 25.084 6.156 35.63 12.093m-62.977-4.686c9.893 7.502 18.578 15.684 25.12 25.074M1019.8 491.34c7.39 15.133 13.117 30.23 14.738 45.244m130.478-2.62c5.593-10.02 4.3-21.725.053-35.1m-23.11 36.6c4.67-10.08 3.387-22.6.018-37.077m-40.832 49.948c4.647-8.76 5.254-20.123 4.457-33.296m-53.32 55.416c7.156-8.408 10.15-21.05 12.29-36.07m-60.044 18.127c6.74-4.077 12.714-10.692 18.646-18.784m-216.036-386.66C812.88 165.27 820 189.034 820 195c0 11.18-5 13.128-5 20 0 5 40 70 40 90s-20 20-25 20 0 20 0 25-5 15-5 15 5 7.93 5 15c0 15-30 15-30 15s5 15 5 20 20 0 20 25c0 10-30 35-40 35s-20-10-30-10-25 10-35 10-61.026-20.513-80-30c-10-5-8.577-19.972-25.6-26.568-10.395-4.028-21.74-19.195-30.5-36.124M800 295c-39.02 3.503-15.755 40.282 20 15 8.165-5.773 0 5 0 5-9.083 0-18.017 4.73-25 4m-47 47c20.005-2.57 42.8-23.897 48-29 4.093-4.017 14.922 4.34 14 10-19.782 10.298-48.043 21.628-62 19m36 8c14.112-2.18 28.148-.782 41-10M687 224c2.047 3.47 65.668-38.846 77-43 13.905-5.097 26.594 6.692 26 6l2 11s-16.41-11.864-25-9c-9 3-78.944 40.146-80 35m28 21c33.347-2.168 60.226-31.538 87-30m-57.04 21.788C732.526 265.243 785.724 244.615 803 254m17 236l-24.893-18.67M366.45 156.054C314.555 278.493 383.86 375.085 320 480c-9.532 15.66-50 25-55 0-8.825-44.126 50.246-27.892 35-10m88.83-319.798C331.02 274.733 395.788 368.424 340 480c-20 40-91.16 51-95 5-6.657-79.736 95-60 75-5m91.713-335.824C348.907 271.727 416.684 366.63 360 480c-12.344 24.69-44.178 38.333-67.644 34.343m141.79-375.057C366.706 269.312 432.407 365.187 375 480c-8.547 17.094-22.772 24.414-38.504 25.976m119.852-370.9C385.29 266.556 453.018 353.963 395 470c-12.344 24.69-36.535 39-60 35m143.348-373.58C404.032 264.677 473.553 347.894 415 465c-11.864 23.728-30.05 33.243-52.28 30.405M500.28 128.004C422.838 263.26 494.052 346.896 435 465c-12.344 24.69-26.535 29-50 25m136.683-364.427C441.982 262.263 514.405 346.2 455 465c-12.344 24.69-31.535 29-55 25m143.015-366.694C461.18 261.18 534.732 335.535 475 455c-12.344 24.69-26.535 34-50 30m138.984-363.317C480.602 260.56 554.966 330.067 495 450c-12.344 24.69-26.535 34-50 30m139.58-359.308C500.248 260.213 575.11 324.783 515 445c-10.357 20.714-18.493 27.076-34.703 26.232M605 120c-85 140-9.792 189.584-70 310-9.215 18.43-16.672 28.284-29.62 30.438M625 120c-85 140-9.792 179.584-70 300-6.153 12.306-15.25 18.305-25.732 20.732m115.355-320.11C560.237 260.03 640.12 269.762 580 390c-7.445 14.89-13.743 22.365-22.718 25.077M335.618 138.234c138.04-38.4 312.307-69.157 506.308-16.415M199.648 0l156.055 158.855C484.175 122.112 658.575 97.858 815 150L960.455 0"/></symbol><symbol id="I" preserveAspectRatio="none" viewBox="0 0 1300 2000"><path stroke="#44f" stroke-linecap="round" stroke-linejoin="round" stroke-width="3" fill="none" d="M115 211.838v124.197m10-134.865v140.314m10-152.88v160.713m10-177.426v189.582M155 90v292.195m10-288.793V455m10-351.965V446.28m10-332.818v318.725m10-307.416v292.406m10-279.94v263.63m10-249.625v231.977m10-215.398v195.68M1202 680c9.81 8.788 7.628 26.84 4 27m-12-58c9.81 8.788 7.628 26.84 4 27m17-73c-9 5-4 36-4 36m10 9c3.216 4.712 3.826 10.284 4 16m6 18c3.216 4.712 3.826 10.284 4 16M804 254c-2.915-2.55-26.04 5.376-27 11m26-51c-12 3-23-10-37-10-4.123 0-22 8-22 8m41.397 6c3.635 2.78 5.514 8.267 5.603 14.5 0 10.217-6.492 18.5-14.5 18.5s-14.5-8.283-14.5-18.5a23.42 23.42 0 0 1 .428-4.48M594.212 400h-19.5m33.456 15h-50.493m70.197 15H548.03m91.75 15H526.273M670 460H510m135 15H474.754"/><use xlink:href="#C" height="100" width="100" transform="matrix(1 0 0 .972 496 951.4)"/><use xlink:href="#C" height="100" width="100" transform="matrix(-1 0 0 -.972 665 1048.6)"/><use xlink:href="#C" height="75" width="75" transform="matrix(.866025 .486 -.5 .841777 869.45706 726.872262)"/><use xlink:href="#C" height="75" width="75" transform="matrix(.866025 .486 -.5 .841777 901.45706 661.872262)"/><use xlink:href="#C" height="75" width="75" transform="matrix(.866025 .486 -.5 .841777 940.45706 596.872262)"/><use xlink:href="#C" height="75" width="75" transform="matrix(.5 .841777 -.866025 .486 233.54294 583.872262)"/><use xlink:href="#C" height="75" width="75" transform="matrix(.5 .841777 -.866025 .486 168.54294 678.872262)"/><use xlink:href="#C" height="75" width="75" transform="matrix(.5 .841777 -.866025 .486 65.54294 678.872262)"/><use xlink:href="#C" height="75" width="75" transform="matrix(.5 .841777 -.866025 .486 109.54294 775.872262)"/></symbol><rect width="239" height="335" x="-119.5" y="-167.5" rx="12" fill="#fff" stroke="#000"/><use width="164.8" height="260.8" x="-82.4" y="-130.4" xlink:href="#D"/><use transform="rotate(180)" width="164.8" height="260.8" x="-82.4" y="-130.4" xlink:href="#D"/><use width="164.8" height="260.8" x="-82.4" y="-130.4" xlink:href="#E"/><use transform="rotate(180)" width="164.8" height="260.8" x="-82.4" y="-130.4" xlink:href="#E"/><use width="164.8" height="260.8" x="-82.4" y="-130.4" xlink:href="#F"/><use transform="rotate(180)" width="164.8" height="260.8" x="-82.4" y="-130.4" xlink:href="#F"/><use width="164.8" height="260.8" x="-82.4" y="-130.4" xlink:href="#G"/><use transform="rotate(180)" width="164.8" height="260.8" x="-82.4" y="-130.4" xlink:href="#G"/><use width="164.8" height="260.8" x="-82.4" y="-130.4" xlink:href="#H"/><use transform="rotate(180)" width="164.8" height="260.8" x="-82.4" y="-130.4" xlink:href="#H"/><use width="164.8" height="260.8" x="-82.4" y="-130.4" xlink:href="#I"/><use transform="rotate(180)" width="164.8" height="260.8" x="-82.4" y="-130.4" xlink:href="#I"/><use xlink:href="#B" height="32" width="32" x="-114.4" y="-156"/><use xlink:href="#C" height="26.769" width="26.769" x="-111.784" y="-119"/><use xlink:href="#C" height="55.68" width="55.68" x="34" y="-132.16"/><g transform="rotate(180)"><use xlink:href="#B" height="32" width="32" x="-114.4" y="-156"/><use xlink:href="#C" height="26.769" width="26.769" x="-111.784" y="-119"/><use xlink:href="#C" height="55.68" width="55.68" x="34" y="-132.16"/></g><use xlink:href="#A" stroke="#44f" fill="none"/></svg>