<svg xmlns="http://www.w3.org/2000/svg" xmlns:xlink="http://www.w3.org/1999/xlink" width="240" height="336" viewBox="-120 -168 240 336" preserveAspectRatio="none"><defs><path id="A" d="M-82.4-130.4H82.4v260.8H-82.4z"/></defs><symbol id="B" viewBox="-500 -500 1000 1000" preserveAspectRatio="xMinYMid"><path d="M50-460h200m-100 0v710a100 100 0 0 1-400 0v-30" stroke="#000" stroke-width="80" stroke-linecap="square" stroke-miterlimit="1.5" fill="none"/></symbol><symbol id="C" viewBox="-600 -600 1200 1200" preserveAspectRatio="xMinYMid"><path d="M0-500c100 250 355 400 355 685a150 150 0 0 1-300 0 10 10 0 0 0-20 0c0 200 50 215 95 315h-260c45-100 95-115 95-315a10 10 0 0 0-20 0 150 150 0 0 1-300 0c0-285 255-435 355-685z"/></symbol><symbol id="D" preserveAspectRatio="none" viewBox="0 0 1300 2000"><path fill="#fc4" d="M1220.03 34.26c-31.41 0-56.875 47-56.875 105 .016 40.087 12.395 76.66 31.904 94.26l-45.74 45.74 45.775 45.775c-19.517 17.576-31.91 54.135-31.94 94.225 0 33.25 8.373 62.892 21.438 82.13.936 3.778 47.697 25.613 51.822 18.447 23.424-12.987 40.5-53.103 40.5-100.578-.016-40.087-12.395-76.66-31.904-94.26l45.74-45.74-45.775-45.775c19.517-17.576 31.91-54.135 31.94-94.225 0-58-25.464-105-56.875-105zm0 45c17.95 0 32.5 26.863 32.5 60s-14.55 60-32.5 60-32.5-26.863-32.5-60 14.55-60 32.5-60zM694.04 169.135c-63.888 6.44-127.843 16.954-191.06 30.264C520.5 262.59 450.95 302.61 460 375c1.818 14.546 11.572 23.142 23.318 26.568-3.254 26.675-20.68 58.987-43.074 53.242 7.57.24 14.737-4.762 14.756-14.81.046-25-50-40.227-50 15 0 26.45 31.97 41.442 60.645 32.246-5.2 1.798-10.493 2.94-15.67 3.63l.078 267.125C439.618 747.053 423.324 740 405 740c-31.5 0-57.035 20.82-57.035 46.5.001 1.034.046 2.068.133 3.1h-.133l-.04 7.125c24.462 30 46.93 62.78 67.725 98.105l334.146.17.205-74.244h-.15a23.92 23.92 0 0 0 .15-2.184c0-18.1-20.147-32.756-45-32.756-9.376.597-16.98 2.632-23.643 5.924 5.907-2.95 12.53-4.94 20.475-5.805l10.533-15.46 64.762 44.113 10.307-14.79-64.47-44.322-6.746 9.342 125.96-184.883 64.36 44.25 9.813-15.13-63.992-43.994-3.303 4.78 51.697-75.883 64.342 44.234 10.62-14.572-57.68-39.656L910 485l-8.746 8.227 3.992-5.86C901.463 489.022 896.383 490 890 490c-25 0-55-5-75-5-9.747 0-27.808-5.94-44.8-11.94-10.374 3.45-27.352 8.727-40.2 11.94-17.632 4.408-50.808-10.615-58.533-14.36-10.537 15.724-24.314 25.315-38.316 29.898 26.18-8.657 51.552-34.883 56.256-86.1C714.145 408.96 735 391.293 735 370c0-55.227-55-45-55-10 0 9.54 3.412 14.963 8.104 17.482-80.306-31.39 38.064-123.362 5.938-208.348zm525.988 80.836l29.29 29.29-29.29 29.29-29.29-29.29zm0 109.29c17.95 0 32.5 26.863 32.5 60s-14.55 60-32.5 60-32.5-26.863-32.5-60 14.55-60 32.5-60zM485.406 476.125c.02.16.047.315.068.475l-.047-.31a47.21 47.21 0 0 0-1.15.779l1.13-.945zm-5.578 4.258L480 515h380L660.043 802.215l-.043 6.488v-9.312h-.158c.088-.936.14-1.872.158-2.81 0-23.296-21.266-42.182-47.5-42.182-24 0-43.843 15.807-47.305 34.867-1.57-25.298-24.1-44.266-51.678-44.266-17.98 0-33.796 8.063-43.002 20.223 2.624-3.49 5.776-6.673 9.39-9.44l-.078-275.398zm93.7 3.898c.145.26.306.512.46.768l-.326-.533c-15.416 16.862-37.06 24.866-55.102 23.094 18.02 1.715 39.625-6.35 54.97-23.328zm407.186 32.014L750 855v40l175.37-257.896-117.824 173.64c36.997 2.217 73.3 9.25 108.23 20.754-34.92-11.474-71.255-18.488-108.285-20.67l-19.682 28.854c62.063 1.184 122.67 16.544 177.816 44.676l6.477 3.377c41.326 22.005 79.452 51.257 112.672 86.998C1164.954 1060.997 1210 1178 1210 1300c0 34.756-3.656 69.106-10.85 102.477 8.28 4.288 16.8 8.447 25.652 12.512 8.662-37.515 13.082-75.735 13.082-114.988 0-98.303-27.457-193.56-77.514-273.693l-1.082-.807c42.156 31.268 89.847 55.215 140.71 70.936V899.504c-51.712-25.693-109.972-86.673-101.29-151.568-35.12-24.628-71.45-48.975-108.842-72.967 74.94 48.014 145.354 97.11 210.13 146.242V708.438c-104.607-68.65-200.637-128.4-299.56-181.967l-.076.113zM335 520l-20 8.48v229.73l20 22.578zm55 18.598c-13.902 0-27.804 8.598-10.607 25.795C345 530 345 620 379.393 585.607 345 620 435 620 400.607 585.607c26.217 26.217 32.8-20.2 18.947-28.246-4.32-2.51-10.627-1.29-18.947 7.03 17.197-17.197 3.294-25.795-10.607-25.795zM480 570v25h324.06L820 570zm518.945 48.588l.88.53-.88-.53zm-609.553 34.404c-13.902 0-27.802 8.598-10.605 25.795-34.393-34.393-34.393 55.606 0 21.213-34.393 34.393 55.606 34.393 21.213 0 26.217 26.217 32.803-20.2 18.95-28.246-4.32-2.51-10.63-1.287-18.95 7.033 17.197-17.197 3.294-25.795-10.607-25.795zm398.22 7.242l-10.24 14.834 64.652 44.45 10.238-14.836zM470.21 765.633l-.61.848.61-.848zm-8.27 23.836a1.59 1.59 0 0 0 .096.326v.006c-.04-.096-.073-.21-.096-.332zm218.414 2.787c-.484.252-.963.5-1.437.775.473-.267.955-.522 1.438-.775zm337.207 51.076l.95 2.37-.95-2.37zm3.082 7.533l.924 2.2-.924-2.2zm3.682 8.494l1.564 3.43-1.564-3.43zm3.088 6.707l1.805 3.8-1.805-3.8zm2.732 5.684l4.053 8.05-4.053-8.05zm5.03 9.93l2.48 4.664-2.48-4.664zm2.772 5.19l5.82 10.357c3.094 5.32 6.314 10.578 9.66 15.775-2.844-4.408-5.606-8.855-8.262-13.348l-1.4-2.428-5.82-10.357zM794.78 904.738l7.48 21.45L800 920H430l12.707 24.7 366.205-.3-.236-.65 4.275 11.275c202.05 4.974 319.656 193.073 296.893 394.81 11.2 7.608 22.842 15.12 34.775 22.375-6.506-9.68-6.512-16.274 2.018-18.82 2.228-17.597 3.363-35.43 3.363-53.39 0-5.358-.102-10.704-.303-16.037-13.44-10.034-11.804-19.084-1.94-27.594-2.57-24.912-7.326-49.394-14.147-73.135-18.283-13.575-11.454-18.32-7.744-24.162-8.214-23.168-18.448-45.49-30.582-66.658-8.366-4.1-14.68-8.716-9.766-16.145-12.678-19.88-27.105-38.604-43.174-55.893-5.104-5.49-10.342-10.805-15.707-15.936-3.975-2.376-8.1-4.444-10.64-9.793-23.462-20.774-49.104-38.225-76.285-52.068l-5.564-2.773c-27.634-13.472-56.792-23.25-86.816-29.045l-12.717-2.207c-13.146-2.028-26.437-3.294-39.834-3.816zm259.014 8.832l3.027 4.623-3.027-4.623zm-536.11 50.332c-13.902 0-27.802 8.598-10.605 25.795-34.393-34.393-34.393 55.606 0 21.213-34.393 34.393 55.606 34.393 21.213 0 26.217 26.217 32.8-20.2 18.947-28.246-4.32-2.51-10.627-1.287-18.947 7.033 17.197-17.197 3.294-25.795-10.607-25.795zm88.13 0c-13.902 0-27.802 8.598-10.605 25.795-34.393-34.393-34.393 55.606 0 21.213-34.393 34.393 55.606 34.393 21.213 0 26.217 26.217 32.803-20.2 18.95-28.246-4.32-2.51-10.63-1.287-18.95 7.033 17.197-17.197 3.294-25.795-10.607-25.795zm227.352 41.05l17.113 35.03c102.383 30.854 178.3 129.82 182.9 248.61l27.856 24.23c.166-4.25.25-8.524.25-12.818 0-147.05-98.337-269.388-228.12-295.05z"/></symbol><symbol id="E" preserveAspectRatio="none" viewBox="0 0 1300 2000"><path fill="red" d="M339.994 0c47.44 47.6 100.553 102.806 140.34 165.766 119.757-48.484 358.765-76.598 478.27-25.84C1001.156 89.327 1052.45 43.59 1107.316 0zm880.035 79.26a32.5 60 0 0 0-32.5 60 32.5 60 0 0 0 32.5 60 32.5 60 0 0 0 32.5-60 32.5 60 0 0 0-32.5-60zm0 170.71l-29.29 29.29 29.29 29.29 29.29-29.29zm0 109.29a32.5 60 0 0 0-32.5 60 32.5 60 0 0 0 32.5 60 32.5 60 0 0 0 32.5-60 32.5 60 0 0 0-32.5-60zM988.96 543.563l-20.252 29.54c120.63 70.147 232.407 144.673 331.293 219.342V744.96c-93.594-69.53-198.437-135.485-311.04-201.398zm-708.953 1.64c-47.874 23.233-95.508 47.342-142.25 72.62 53.195 30.118 100.356 65.097 142.42 105.293zm110.213 14.8a15 15 0 0 0-10.826 25.605 15 15 0 1 0 21.215-21.215 15 15 0 0 0-10.389-4.391zM480 635.21l.35 120.244c9.258-6.577 20.694-10.455 33.168-10.455 27.587 0 50.107 18.968 51.678 44.266 3.462-19.06 23.305-34.867 47.305-34.867 26.234 0 47.5 18.886 47.5 42.182-.018.94-.07 1.875-.158 2.81H660l.043 2.97 115.78-166.945zm-90.387 39.184A15 15 0 0 0 378.787 700 15 15 0 0 0 400 678.787a15 15 0 0 0-10.387-4.393zM1277.5 804.547c-11.905 22.593 8.882 47.772 22.5 59.2v-42.523l-22.5-16.678zM808.912 944.4l.23.6h.383zm-157.63.13L443.35 945l-.643-.3c17.48 34.53 33.433 71.124 47.986 109.848l-.217.453h160.898zM812.94 955l20.225 49.95c129.782 25.66 228.12 148 228.12 295.05 0 4.295-.084 8.568-.25 12.818L1110 1350c22.608-201.9-95-390-297.06-395zm-295.258 8.902c13.902 0 27.804 8.598 10.607 25.795 8.32-8.32 14.627-9.543 18.947-7.033 13.854 8.047 7.27 54.464-18.947 28.246 34.393 34.393-55.606 34.393-21.213 0-34.393 34.393-34.393-55.606 0-21.213-17.197-17.197-3.296-25.795 10.605-25.795zm-10.605 25.795a15 15 0 0 0 21.213 21.213 15 15 0 0 0-21.213-21.213zm98.736-25.795c13.902 0 27.804 8.598 10.607 25.795 8.32-8.32 14.63-9.543 18.95-7.033 13.854 8.047 7.268 54.464-18.95 28.246 34.393 34.393-55.606 34.393-21.213 0-34.393 34.393-34.393-55.606 0-21.213-17.197-17.197-3.296-25.795 10.605-25.795zm-10.605 25.795a15 15 0 0 0 21.213 21.213 15 15 0 0 0-21.213-21.213zm254.875 50.475c47.763 99.005 107.68 181.41 182.805 248.648-4.298-119.02-80.226-217.986-182.805-248.648zm360.39 18.264c35.988 73.868 55.295 156.645 55.295 241.564 0 43.186-4.993 85.818-14.437 127.03 15.9 6.787 32.086 13.22 48.67 19.332V1096.43c-31.215-9.647-61.238-22.384-89.527-37.994z"/></symbol><symbol id="F" preserveAspectRatio="none" viewBox="0 0 1300 2000"><path fill="#44f" d="M515 515v55h55v-55zm27.5 10a17.5 17.5 0 1 1 0 35 17.5 17.5 0 1 1 0-35zm92.5-10v55h55v-55zm27.5 10a17.5 17.5 0 1 1 0 35 17.5 17.5 0 1 1 0-35zm92.5-10v55h55v-55zm27.5 10a17.5 17.5 0 1 1 0 35 17.5 17.5 0 1 1 0-35zm-270 245a37.5 37.5 0 0 0-37.412 40H475v85h75v-85h-.125a37.5 37.5 0 0 0-37.375-40zm-107.964 0c-20.71 0-37.5 16.79-37.5 37.5a37.17 37.17 0 0 0 .088 2.5h-.088v12.25l48.4 72.75h26.6v-85h-.125a37.48 37.48 0 0 0 .125-2.5c0-20.71-16.79-37.5-37.5-37.5zm208.026 17.857A32.438 32.143 0 0 0 580.125 820a32.438 32.143 0 0 0 .076 2.143h-.076V895H645v-72.857h-.108A32.438 32.143 0 0 0 645 820a32.438 32.143 0 0 0-32.437-32.143zm90 22.143a27.438 25.929 0 0 0-27.437 25.929 27.438 25.929 0 0 0 .064 1.729h-.064v58.77H730v-58.77h-.09a27.438 25.929 0 0 0 .091-1.729A27.438 25.929 0 0 0 702.563 810zm308.252-253.598L992.5 586.986l34.25 20.664 18.2-30.412zm63.314 38.625l-17.896 29.902 33.61 21.732 18.305-30.584zm63.057 39.055l-18.586 31.053 33.148 22.504L1171 655.473zm62.393 40.164l-19.252 32.164 32.434 23.697 19.94-33.316zm61.088 42.342l-19.557 32.678 32.56 23.484 19.61-32.764zm-409.548 31.354L875 765c50 35 90-35 50-70l-26.957-17.97zM900 720c8.284 0 15 6.716 15 15s-6.716 15-15 15-15-6.716-15-15 6.716-15 15-15zm98.4-101.744l-42.328-24.75-36.535 51.87L940 660c20.554 14.388 39.417 11.032 51.73-.34zM965 615c8.284 0 15 6.716 15 15s-6.716 15-15 15-15-6.716-15-15 6.716-15 15-15zM810 810l55.745 7.935c-1.6-10.027-6.565-19.903-15.745-27.935l-19.35-12.9zm183.336-60.138l-58.954 88.21c39.148 14.882 76.532 35.642 110.85 61.702-27.363-46.31-45.1-97.165-51.896-149.91zM925 395s-15-5-20-5-10 15-20 15-10 5-10 5c-.62.316 22.903 3.625 30-5 3.177-3.86 20.184-2.235 20.184-2.235M850 395c15 0 35.006-26.643 45-27l25-1-4 8s-13 2-18 2-23 23-33 23-15-5-15-5zm62-43c26.02-3.86 44.26-17.774 28-17-21 1-29 11-33 16m2-154l-8 8s-31-12-48-10c-16.167 1.902-78 33-78 33 14-18 87-62 134-31zm-38 50.5a8 17.5 0 0 1-8 17.5 8 17.5 0 0 1-8-17.5 8 17.5 0 0 1 8-17.5 8 17.5 0 0 1 8 17.5"/></symbol><symbol id="G" preserveAspectRatio="none" viewBox="0 0 1300 2000"><path d="M280 545l35-16.52v229.553l-34.825-34.92zm150.213 375L415 895h376.46l8.588 25zM480 595h324.058l-28.447 40H480zm744.878 820.024c8.587-37.55 13.006-75.77 13.006-115.024 0-98.303-27.456-193.56-77.682-273.82 16.515 12.177 33.745 23.163 50.965 32.635 35.295 73.487 54.602 156.264 54.602 241.184 0 43.186-4.993 85.818-15.428 126.604l-25.462-11.58zM955.31 846.655L985 800c5.534 23.766 11.843 47.2 18.27 70.58M480.485 166.004C487.466 177.24 494 188.5 500 200c143.73-30.414 291.688-46.68 435-30 7.48-10.1 15.302-19.99 23.62-30.093-119.52-50.74-358.528-22.626-478.135 26.097z"/></symbol><symbol id="H" preserveAspectRatio="none" viewBox="0 0 1300 2000"><path stroke="#44f" stroke-linecap="round" stroke-linejoin="round" stroke-width="6" fill="none" d="M1299.894 708.358C1165.225 619.98 1044.8 546.406 913.66 481.8M778.787 854.444c90.113 301.87 247.363 490.955 521.13 591.898M791.46 895H415.846m384.236 25h-369.87m378.08 25H443.35m461.445-457.358L701.696 785.807m279.016-269.513L749.87 855.346m-332.676-374.08c-94.15 42.49-187.727 87.113-279.98 136.686M335 520.115v260.673m115-288.905V758.21M280 545.22v178.096m35-194.787V758.2m165-277.793v275.18M480 515h380L660.087 802.68M480 570h340.894M480 595h324.058M480 635h295.61m-375.005-70.607a15 15 0 0 1-21.213 21.213 15 15 0 0 1 21.213-21.213m0 0c8.32-8.32 14.628-9.542 18.948-7.033 13.854 8.047 7.27 54.464-18.948 28.246C435 620 345 620 379.393 585.607 345 620 345 530 379.393 564.393 345 530 435 530 400.607 564.393M400 678.787A15 15 0 0 1 378.787 700 15 15 0 0 1 400 678.787m0 0c8.32-8.32 14.628-9.542 18.948-7.033C432.802 679.8 426.217 726.217 400 700c34.393 34.393-55.607 34.393-21.213 0-34.393 34.393-34.393-55.607 0-21.213-34.393-34.393 55.607-34.393 21.213 0M335 620h115m-115 20h115m-43.18 20H450m-115 0h36.84m52.83 20H450m-115 0h19.415m69.965 20H450m-115 0h19.86m51.233 20H450m-115 0h37.857m50.072-160H450m-115 0h22.327m69.085 20H450m-115 0h18.844m54.717 20H450m-115 0h36.26m4.935-100H450m-117.077 20H450m-50.003 20H450m-115 0h44.968M335 740h115m-115 20h22.617M335 780h10.86m182.43 209.697a15 15 0 0 1-21.213 21.213 15 15 0 0 1 21.213-21.213m88.13 0a15 15 0 0 1-21.213 21.213 15 15 0 0 1 21.213-21.213m-88.13 0c8.32-8.32 14.628-9.542 18.948-7.033 13.854 8.047 7.27 54.464-18.948 28.246 34.393 34.393-55.607 34.393-21.213 0-34.393 34.393-34.393-55.607 0-21.213-34.393-34.393 55.607-34.393 21.213 0m88.13 0c8.32-8.32 14.628-9.542 18.948-7.033 13.854 8.047 7.27 54.464-18.948 28.246 34.393 34.393-55.607 34.393-21.213 0-34.393 34.393-34.393-55.607 0-21.213-34.393-34.393 55.607-34.393 21.213 0M750 895v-74.245h-.15c.083-.726.133-1.455.15-2.184 0-18.1-20.147-32.755-45-32.755-20.62 1.313-32.663 9.57-45 22.886v-9.31h-.158c.088-.936.14-1.873.158-2.812 0-23.296-21.266-42.18-47.5-42.18-24 0-43.842 15.805-47.304 34.866-1.57-25.298-24.1-44.265-51.678-44.265-28.433 0-51.482 20.147-51.482 44.8-.332-.77-.017-2.522 0-3.3 0-25.68-25.536-46.5-57.036-46.5s-57.036 20.82-57.036 46.5a37.37 37.37 0 0 0 .134 3.1h-.134v7.61m652.668-270.786L750 895m168.036-411.038l57.683 39.657m-198.346 151.45l64.654 44.45m-54.413-59.284l64.782 44.537M842.112 579.89l64.43 44.295m-54.18-59.124l63.99 43.994m-15.758-115.21l64.502 44.345M713.05 770.533l64.08 44.054m-54.163-59.112l64.74 44.51m168.357-206.48c125.646 72.812 241.832 150.244 344.012 227.75m-331.42-248.34c120.717 70.348 232.564 144.902 331.47 219.592M988.787 543.8c112.823 65.736 217.732 131.707 311.364 201.277m-.233 257.835C1170.517 952.17 1080 835.642 1080 700a302.39 302.39 0 0 1 1.527-30.393m218.43 426.817c-65.948-20.39-126.565-54.605-176.69-100.68C1037.937 917.307 990 810.925 990 700c0-27.63 2.975-54.98 8.76-81.686m301.166 360.378C1187.557 928.803 1110 822.758 1110 700a290.62 290.62 0 0 1 .247-11.977m189.686 272.348C1198.03 911.71 1128.365 813.38 1128.365 700m171.59 358.208c-57.894-18.85-111.09-48.937-155.476-88.738C1064.777 898.002 1020 801.07 1020 700a342.73 342.73 0 0 1 6.202-64.877m5.16 95.16A337.65 337.65 0 0 1 1030 700c0-19.933 1.765-39.703 5.216-59.138m25.96 201.404c-15.198-33.322-25.06-68.626-29.097-104.85m90.14 197.73c-23.37-26.07-42.628-54.722-57.39-85.124m139.076 154.49c-18.526-11.92-36.048-25.27-52.353-39.97a393.01 393.01 0 0 1-20.26-19.621m152.656 99.877c-20.096-7.628-39.527-16.685-58.102-27.098M1040.41 716.5A333.11 333.11 0 0 1 1040 700c0-15.856 1.11-31.476 3.26-46.802m20.697 171.206c-9.888-24.9-16.822-50.778-20.6-77.23m70.834 164.638c-13.523-17.358-25.32-35.7-35.287-54.8m108.73 126.476c-10.046-7.496-19.73-15.46-29-23.87l-2.923-2.677m120.107 76.64a423.46 423.46 0 0 1-20.863-9.364M972.1 887.733c41.326 22.005 79.45 51.257 112.67 86.998C1164.954 1060.998 1210 1178 1210 1300c0 34.756-3.656 69.106-10.738 102.455m-233.64-518.1l6.478 3.377m-184.346-47.697c62.115.83 122.72 16.19 177.868 44.32m228.865 494.922l-1.463 8.41m4.954-34.358l-1.084 9.354m3.785-67.73l.026 5.046c0 12.67-.43 25.198-1.33 37.618m.537-65.327l.544 12.183m-3.185-42.03c.63 5.246 1.172 10.51 1.63 15.79m-12.27-73.995c4.015 16.224 7.193 32.72 9.505 49.41m-15.187-70.322l3.366 11.928m-11.897-37.935l4.09 11.843m-28.202-67.245c7.178 13.94 13.658 28.272 19.415 42.93m-30.407-63.03l3.31 5.804m-18.37-29.997l6.392 9.858m-48.858-63.962c12.64 13.746 24.375 28.278 35.163 43.488m-50.706-59.543l4.695 4.677m-23.156-21.756l5.516 4.895m-60.29-45.345c14.272 8.833 28.084 18.588 41.358 29.23m-60.374-40.305l4.308 2.4m-25.475-13.176l4.208 2.02m-73.854-27.38c17.617 4.605 34.914 10.432 51.783 17.432m-73.577-22.47l8.305 1.766m-33.768-6.024l8.863 1.286M782.442 850a389.11 389.11 0 0 1 35.284 1.603m373.678 446.018l.01 2.38a473.38 473.38 0 0 1-1.404 36.437m-.888-82.928l.176 1.815m-11.052-66.07a469.21 469.21 0 0 1 8.297 43.048m-46.144-145.107c6.654 12.956 12.69 26.256 18.09 39.847m-85.28-136.456c11.953 13.002 23.078 26.723 33.34 41.067M985.99 918.367c13.86 8.556 27.277 18 40.176 28.3m-146.233-73.984A388.32 388.32 0 0 1 929.5 889.43m-149.04-29.425l1.984-.005a380.46 380.46 0 0 1 33.905 1.514m365.76 435.512l.01 2.974a462.6 462.6 0 0 1-1.516 37.435m-11.656-146.923c3.57 14.583 6.43 29.393 8.564 44.37m-45.975-144.265c6.91 13.338 13.15 27.052 18.698 41.082m-85.208-135.79c.01.01.02.022.03.034 12.593 13.55 24.26 27.91 34.955 42.966M978.964 925.57a397.86 397.86 0 0 1 42.671 29.934m-145.717-73.58c17.62 4.56 34.906 10.4 51.74 17.463M785.303 870.01a371.82 371.82 0 0 1 32.018 1.628m352.64 422.41l.04 5.952c0 13.69-.626 27.312-1.86 40.82m-11.912-150.994a444.57 444.57 0 0 1 9.832 50.85m-47.036-147.39c7.972 15.025 15.06 30.557 21.226 46.5m-87.587-138.684l3.824 4.058c13.185 14.186 25.323 29.29 36.358 45.17M967.72 933.77c17.312 10.137 33.938 21.714 49.717 34.66m-149.186-75.046a367.96 367.96 0 0 1 59.014 19.859m-138.693-30.154c10.837.184 21.623.856 32.33 2.005m338.98 404.817L1160 1300c0 15.302-.802 30.514-2.382 45.572m-12.38-158.048a433.09 433.09 0 0 1 11.564 59.71m-48.927-153.185c9.51 17.397 17.793 35.514 24.786 54.194m-91.65-144.24a392.41 392.41 0 0 1 8.405 8.767c14.192 15.27 27.138 31.628 38.766 48.895M956.33 939.438c20.77 11.594 40.578 25.286 59.14 40.95m-155.622-77.97c23.806 5.365 47.027 13.183 69.345 23.312M791.056 893.9c11.69.287 23.317 1.156 34.844 2.593m323.798 387.47c.2 5.333.302 10.68.302 16.038 0 17.96-1.136 35.793-3.364 53.4m-13.024-170.155c6.82 23.74 11.575 48.223 14.145 73.135m-52.47-163.956c12.134 21.168 22.367 43.5 30.58 66.66m-40.348-82.803l.447.703m-59.328-72.53a380.47 380.47 0 0 1 15.706 15.934c16.07 17.288 30.496 36.013 43.174 55.892M939.713 942.58c27.18 13.844 52.823 31.295 76.285 52.07m-81.85-54.842l5.565 2.774m-92.382-31.818c30.025 5.794 59.182 15.573 86.816 29.045m-139.354-35.03a342.22 342.22 0 0 1 39.822 3.779M812.94 955c202.06 5 319.667 193.1 297.06 395m-276.834-345.048c129.782 25.66 228.118 148 228.118 295.048 0 4.295-.084 8.568-.25 12.82M850.28 1039.98c102.383 30.854 178.31 129.82 182.9 248.61m126.906-262.495c50.343 80.345 77.8 175.602 77.8 273.905 0 39.253-4.42 77.474-12.884 115M807.783 810.758c85.668 5.133 167.9 36.182 237.42 89.013m165.26 158.688c35.998 73.843 55.305 156.62 55.305 241.54 0 43.186-4.993 85.818-14.636 127.002M1185 1155c1.593 6.717-11.273 15.52-28.738 19.663s-32.914 2.055-34.507-4.663 11.273-15.52 28.738-19.663 32.914-2.055 34.507 4.663m-60.902 8.634c1.6-6.554 7.38-15.46 15.902-23.634 12.952-12.426 27.327-18.462 32.106-13.48 3.594 3.746 1.32 12.074-5.825 21.547m7.172 20.74c9.837 3.822 14.627 9.135 13.808 13.872-1.175 6.803-16.466 9.84-34.154 6.784-14.64-2.53-26.335-8.44-29.26-14.262M1205 1265c.388 6.893-13.825 13.298-31.746 14.307s-32.763-3.76-33.15-10.654 13.825-13.298 31.746-14.307 32.763 3.76 33.15 10.654m-61.472-2.202c2.725-6.17 9.983-13.92 19.808-20.472 14.934-9.957 30.145-13.373 33.975-7.63 2.88 4.32-.823 12.118-9.52 20.188m3.416 21.677c9.012 5.49 12.794 11.563 11.156 16.082-2.352 6.5-17.94 6.794-34.814.677-13.97-5.063-24.442-12.938-26.3-19.18m62.595 98.78c-1.396 6.76-16.778 9.3-34.356 5.67s-30.697-12.052-29.3-18.813 16.777-9.3 34.356-5.67 30.697 12.052 29.302 18.813M1145 1355c4.22-5.264 13.224-10.9 24.402-14.696 16.99-5.786 32.57-5.18 34.795 1.356 1.673 4.914-3.908 11.5-14.387 17.064m-48.786 11.226c-.708-1.658-1.1-3.2-1.14-4.574m47.66 15.175c7.3 7.622 9.394 14.462 6.65 18.41M1140 1050c3.732 5.808-5.484 18.382-20.585 28.085s-30.367 12.86-34.1 7.053 5.484-18.382 20.585-28.085 30.367-12.86 34.1-7.053m-54.586 28.355c-.667-6.714 1.833-17.033 7.158-27.572 8.095-16.02 19.652-26.484 25.813-23.37 4.633 2.34 5.25 10.952 1.655 22.26m13.648 17.184c10.548.34 16.83 3.764 17.63 8.504 1.15 6.807-12.268 14.747-29.967 17.734-14.65 2.472-27.644.776-32.336-3.743M1065 955c4.7 5.058-2.153 19.062-15.303 31.278s-27.62 18.02-32.318 12.962 2.153-19.06 15.303-31.278S1060.3 949.942 1065 955m-48.723 37.547c-1.842-6.5-1.203-17.09 2.178-28.403 5.14-17.198 14.667-29.537 21.282-27.56 4.974 1.486 7.102 9.853 5.56 21.617m16.467 14.504c10.442-1.526 17.23.734 18.853 5.258 2.332 6.498-9.472 16.68-26.366 22.746-13.984 5.02-27.072 5.644-32.49 2.024M970 885c5.8 3.743 2.615 19.004-7.117 34.086s-22.323 24.275-28.124 20.532-2.615-19.004 7.117-34.086S964.2 881.257 970 885m-37.958 48.403c-3.386-5.836-5.38-16.264-4.894-28.063.74-17.934 6.93-32.242 13.828-31.958 5.187.214 9.313 7.797 10.718 19.578m19.536 9.995c9.743-4.055 16.878-3.538 19.568.446 3.863 5.722-5.065 18.502-19.942 28.545-12.314 8.314-24.844 12.146-30.986 9.974m-86.497-93.96c6.702 1.657 8.642 17.126 4.335 34.55s-13.233 30.207-19.935 28.55-8.642-17.125-4.335-34.55 13.233-30.207 19.935-28.55m-20.188 58.104c-5.097-4.42-10.37-13.637-13.74-24.954-5.123-17.203-3.913-32.745 2.704-34.716 4.975-1.482 11.34 4.35 16.494 15.038m21.723 3.112c7.9-6.998 14.815-8.826 18.653-5.93 5.51 4.158 1.216 19.144-9.595 33.473-8.948 11.86-19.555 19.554-26.07 19.493m18.844 100.725l14.13-49.456m38.9 73.018l27.277-47.734m15.37 78.286l38.57-42.075m.232 82.58l46.158-31.956m-12.778 85.727l49.922-21.395m-28.928 78.493l51.747-10.35M1060.66 1270h51.088M829.096 994.024l47.183-31 38.94 72.845 81.216-11.523.232 82.58 83.302 32.376-28.928 78.493 60.63 52.208-42.68 49.562M812.94 955l49.257 57.306 80.297-24.172 15.37 78.286 84.96 8.548-12.778 85.727 72.358 46.824-41.744 62.48 51.462 54.437-16.398 15.71m-23.41-18.552l40.06 2.86M1265 1432.805V1190m15 248.834V1200m15 244.992V1210m-240.23-358.926c36.785-10.586 25.203 47.882 76.035 16.617m-40.827-90.436c-56.952 26.845-5.25 49.72-35.892 72.302M1121.4 947.2c29.345-13.893 35.536 40.248 74.977-4.423m-65.228-74.5c-45.772 40.184 4.026 48.74-12.084 76.043m94.257 75.307c22.994-12.038 42.632 30.836 67.862-23.852m-83.347-52.623c-32.86 48.928 10.495 47.177 8.64 72.54m74.702-19.918c-18.662 48.534 6.53 48.678 18.994 60.84M1021.9 735.665c40.802.465 9.283 53.476 67.827 40.606m-9.637-98.793c-62.25 7.22-19.164 46.432-58.298 57.084m20.036-89c3.424 15.26 1.5 33.1 38.262 31.71m2.225 59.85c-8.363 2.374-16.843 4.527-27.325 2.867m10-25c.585 17.408 8.793 17.8 16.88 18.462m.506 6.547c-7.606 5.03-16.194 11.522-17.386 19.99m41.53 63.177c-7.902 5.113-15.732 10.298-27.114 11.892m2.268-26.83c6.126 17.898 14.995 13.974 23.58 12.304m1.46 5.206c-6.074 7.244-13.324 16.54-11.906 25.53m67.74 58.067c-2.597 8.3-5.446 16.557-12.574 24.41m-15.428-22.067c15.79 9.606 20.26 1.53 25.614-5.167m4.855 6.357c.153 8.638 1.21 18.25 7.17 23.476m68.812 37.555c-2.294 6.665-5.26 13.264-11.007 19.595m-15.428-22.067c12.148 7.4 17.596 4.315 21.9-.546m8.69 5.31c.41 7.603 1.9 15.387 7.046 19.9m24.975-191.566c-11.672 22.62 9.234 47.843 22.858 59.26m-50.456-80.093C1204.952 775.15 1132.3 766.754 1140 740c2.978-8.935 11.278-16.095 17.504-20.425m8.9 46.626c-40.416 31.35-11.98 47.824 107.397 53.163m-93.66-9.982c-27.583 58.676 44.248 32.392 96.167 23.126m-76.708 14.09c-13.217 54.272 30.455 34.16 84.75.154m-63.832 32.548c7.836 58.415 38.304 28.026 73.49-20.867M1249.26 907.9c27.9 70.964 38.938 3.9 50.734-37.555m-17.677 57.736c8.165 16.942 13.815 24.745 17.71 26.2m-406.25-154.4l-1.473 2.175M961.18 700.4l-2.546 3.76M905.4 802.52l-6.753 9.97m74.564-110.07l-8.423 12.433m-44.738 85.804l-17.512 25.85m87.075-128.54l-21.526 31.776m-26.26 58.525l-28.606 42.228m77.166-113.912l-26.448 39.043M950 695c47.07 37.657-7.78 124.057-56.084 104.85-3.006-1.195-5.987-2.8-8.916-4.85m104.667-95.776C976.948 704.4 962.97 704.08 950 695m-65 100c10.822 8.658 16.257 19.893 17.622 31.828M1220.03 359.26c17.95 0 32.5 26.863 32.5 60s-14.55 60-32.5 60-32.5-26.863-32.5-60 14.55-60 32.5-60m0-109.29l29.29 29.29-29.29 29.29-29.29-29.29 29.29-29.29m0-170.71c17.95 0 32.5 26.863 32.5 60s-14.55 60-32.5 60-32.5-26.863-32.5-60 14.55-60 32.5-60m16.126 440.72c23.557-12.835 40.75-53.07 40.75-100.72-.016-40.087-12.395-76.66-31.904-94.26l45.74-45.74-45.775-45.775c19.517-17.576 31.91-54.135 31.94-94.225 0-58-25.464-105-56.875-105s-56.875 47-56.875 105c.016 40.087 12.395 76.66 31.904 94.26l-45.74 45.74 45.775 45.775c-19.517 17.576-31.91 54.135-31.94 94.225 0 33.822 8.662 63.91 22.114 83.113m-89.752 77.55c2.218-13.415 11.2-39.855 19.484-44.924 9.53-5.832 45-35 60-35s30 20 60 20c25 0 20 20 0 20s-35-5-35-5c-15.017 16.853-25.13 15.34-35 20-10.11 4.772 15-5 20 5 4.415 8.83-14.557 52.737-19.06 62.898m83.353-87.313C1267.028 537.39 1280 543.16 1280 550c0 8.284-19.028 15-42.5 15s-42.5-6.716-42.5-15c0-4.92 6.713-9.288 17.083-12.023M1247.8 564.3c17.824-.296 31.385 3.908 32.2 10.7.975 8.227-17.13 17.135-40.44 19.898s-42.995-1.667-43.97-9.894C1195.012 580.118 1205 570 1230 565m18.25 29.4c17.824-.296 31.385 3.908 32.2 10.7.975 8.227-17.13 17.135-40.44 19.898s-42.995-1.667-43.97-9.894c-.558-4.7 8.702-14.28 31.76-19.443m19.522 29.435c15.64 1.67 32.737 8.906 32.688 15.61-.06 8.12-16.9 14.81-37.62 14.943s-37.465-6.345-37.407-14.466c.034-4.65 9.204-12.955 29.968-15.453M930.064 169.335c.05 25.776-10.023 49.912-9.064 55.665 1.644 9.864 49.733 90.172 52 105 4.14 27.07-37.097 27.445-39 31-1.335 2.494 1 19 1 19 0 5-10 20-10 20s0 10 5 15-25 20-25 20 15 20 15 30-5 25-30 25-55-5-75-5-75-25-85-25m-58.418 10.766c7.608 3.62 40.785 18.642 58.418 14.234 12.85-3.212 29.827-8.49 40.324-11.85M925 395s-15-3-20-3-10 13-20 13-10 5-10 5c-.62.316 22.903 3.625 30-5 3.177-3.86 20.184-2.235 20.184-2.235M850 395c15 0 35.006-26.643 45-27l25-1-4 8s-13 2-18 2-23 23-33 23-15-5-15-5m62-74c-15.12.102-26.392 34.914 0 31 26.02-3.86 44.26-17.774 28-17-21 1-29 11-33 16m2-154l-8 8s-31-12-48-10c-16.167 1.902-78 33-78 33 14-18 87-62 134-31m-114 59c32 5 47-31 103-31m-68 22c-32 29 66 20 66 20m-393.083-67.562C520.498 262.59 450.95 302.61 460 375c5 40 70 35 70 0 0-25-30-20-30-5s10 20 10 20m13.082-194.768c19.867 64.44-51.42 104.55-42.266 177.782 2.366 18.925 15.74 22.625 29.178 17.564m29.675-198.735C564.97 258.15 493.65 297.295 500 370m58.388-181.325c26.985 64.1-37.166 103.385-39.893 168.97M576.71 184.96C607.464 251.85 532.78 303.15 530 370m62.928-187.396c32.856 69.93-46.198 118.31-47.052 184.48C545 435 620 420 620 385s-51.825-36.65-50-5 38.517 12.693 30 5m13.388-205.94c28.95 66.232-46.492 117.82-47.34 183.62-.2 15.59 3.85 25.987 10.21 32.334M634.233 176.1c25.537 63.44-43.112 119.56-48.86 181.856m34.673 27.205C650.46 441.037 735 412.87 735 370c0-55.227-55-45-55-10 0 34.65 45 15 25-5m-49.78-181.637C678.04 237.945 610 312.17 610 350c0 5.093 1.283 9.8 2.3 14.215m62.044-193.27C699.588 234.957 628.81 298.092 635 360c5 50 80 42.13 80 15 0-10-10-20-10-20m-11.077-186.137c32.244 85.257-86.126 177.23-5.655 208.706m-202.84 98.306C454.342 503.044 405 487.86 405 455c0-55.227 50.046-40 50-15-.038 20.557-30 20-30-5m84.928-34.4c.924 17.774-1.03 32.522-4.98 44.565m-9.56-42.23c10.286 59.622-69.542 90.387-75.4 52.074-.754-4.943 0-10 5-20m58.387-33.37C480.063 428.243 462.64 460.556 440 455m133.47 29.54C542.263 518.868 485 516.458 485 470c0-30.414 50-35 50-10 0 30-30 20-30 10m86.762-56.23c1.294 7.935 1.676 15.4 1.285 22.382m-16.81-21.91c.742 13.434-.264 38.13-11.238 50.76-29.332 33.76-58.51 14.89-60 5-.76-5.044 1.667-7.214 5-10m53.844-50.537c-5.943 44.407-17.43 71.915-38.678 69.66m27.832-80.49C547.657 421.343 541.957 442.82 535 460m11.472-83.3c-7.368 23.266-17.816 49.94-27.696 67.154m170.6-29.462C678.846 529.45 564.058 518.475 570 465c5-45 48.843-29.973 50-5 1.184 25.56-30 25-30 5m84.25-48.742c-6.682 41.86-47.137 95.08-75.457 62.598m59.84-63.75c-4.815 30.364-15.69 53.83-42.588 59.055m27.323-65.18c-4.08 23.445-14 38.516-23.646 50.383m9.72-61.272c-1.905 17.578-8.152 33.697-15.08 48.143m-8.514-37.785c2.15 9.99 1.73 20.3.14 30.755M339.39-.607C395.396 55.572 459.428 122.37 500 200c143.73-30.414 291.688-46.68 435-30 46.784-63.186 107.047-118.153 172.36-170.04M480.44 165.793c119.65-48.512 358.657-76.625 478.363-26.286"/></symbol><symbol id="I" preserveAspectRatio="none" viewBox="0 0 1300 2000"><path stroke="#44f" stroke-linecap="round" stroke-linejoin="round" stroke-width="3" fill="none" d="M1225 520c0 10 25 10 25 10m-37.917 7.977c6.055 8.8 1.09 22.643 0 22.023m-.033 14.307c6.055 8.8 1.09 22.643 0 22.023m1.51 5.514c6.055 8.8 1.09 22.643 0 22.023m8.49 5.44c6.055 8.8 1.09 22.643 0 22.023M1240 545c2.816 4.4 1.47 7.218 0 10m3.355 20.118c2.816 4.4 1.47 7.218 0 10m0 20c2.816 4.4 1.47 7.218 0 10m0 20c2.816 4.4 1.47 7.218 0 10M934 385c-10.823 1.06-23.08-1.38-33 8m-21-125c-7 1-19 18-19 18m10.437-57.705C873.66 232.393 875 237.7 875 243.5c0 12.98-6.716 23.5-15 23.5s-15-10.52-15-23.5c0-1.89.142-3.726.41-5.485M786 243c28 0 58-31 77-31 11.5 0 12 13 12 13"/><use xlink:href="#C" height="75" width="75" transform="matrix(.819152 .557516 -.573576 .796216 900.913703 495.911913)"/><use xlink:href="#C" height="75" width="75" transform="matrix(.838671 .529389 -.544639 .815188 834.120833 591.250653)"/><use xlink:href="#C" height="75" width="75" transform="matrix(.838671 .529389 -.544639 .815188 769.120833 689.250653)"/></symbol><rect width="239" height="335" x="-119.5" y="-167.5" rx="12" fill="#fff" stroke="#000"/><use width="164.8" height="260.8" x="-82.4" y="-130.4" xlink:href="#D"/><use transform="rotate(180)" width="164.8" height="260.8" x="-82.4" y="-130.4" xlink:href="#D"/><use width="164.8" height="260.8" x="-82.4" y="-130.4" xlink:href="#E"/><use transform="rotate(180)" width="164.8" height="260.8" x="-82.4" y="-130.4" xlink:href="#E"/><use width="164.8" height="260.8" x="-82.4" y="-130.4" xlink:href="#F"/><use transform="rotate(180)" width="164.8" height="260.8" x="-82.4" y="-130.4" xlink:href="#F"/><use width="164.8" height="260.8" x="-82.4" y="-130.4" xlink:href="#G"/><use transform="rotate(180)" width="164.8" height="260.8" x="-82.4" y="-130.4" xlink:href="#G"/><use width="164.8" height="260.8" x="-82.4" y="-130.4" xlink:href="#H"/><use transform="rotate(180)" width="164.8" height="260.8" x="-82.4" y="-130.4" xlink:href="#H"/><use width="164.8" height="260.8" x="-82.4" y="-130.4" xlink:href="#I"/><use transform="rotate(180)" width="164.8" height="260.8" x="-82.4" y="-130.4" xlink:href="#I"/><use xlink:href="#B" height="32" width="32" x="-114.4" y="-156"/><use xlink:href="#C" height="26.769" width="26.769" x="-111.784" y="-119"/><use xlink:href="#C" height="55.68" width="55.68" x="-91.768" y="-132.16"/><g transform="rotate(180)"><use xlink:href="#B" height="32" width="32" x="-114.4" y="-156"/><use xlink:href="#C" height="26.769" width="26.769" x="-111.784" y="-119"/><use xlink:href="#C" height="55.68" width="55.68" x="-91.768" y="-132.16"/></g><use xlink:href="#A" stroke="#44f" fill="none"/></svg>