<svg xmlns="http://www.w3.org/2000/svg" xmlns:xlink="http://www.w3.org/1999/xlink" width="240" height="336" viewBox="-120 -168 240 336" preserveAspectRatio="none"><defs><path id="A" d="M-82.4-130.4H82.4v260.8H-82.4z"/></defs><symbol id="B" viewBox="-500 -500 1000 1000" preserveAspectRatio="xMinYMid"><path d="M-285-460h200m-100 0v920m-100 0h200M85-460h200m-100 20l-355 595M85 460h200m-100-20L-10-70" stroke="#000" stroke-width="80" stroke-linecap="square" stroke-miterlimit="1.5" fill="none"/></symbol><symbol id="C" viewBox="-600 -600 1200 1200" preserveAspectRatio="xMinYMid"><path d="M0-500c100 250 355 400 355 685a150 150 0 0 1-300 0 10 10 0 0 0-20 0c0 200 50 215 95 315h-260c45-100 95-115 95-315a10 10 0 0 0-20 0 150 150 0 0 1-300 0c0-285 255-435 355-685z"/></symbol><symbol id="D" preserveAspectRatio="none" viewBox="0 0 1300 2000"><path fill="#fc4" d="M332.37 0c88.22 119.616 128.095 183.372 160.656 258.63 185.6-26.833 338.984-27.21 490.813-11.95 18.004-61.954 36.983-113.765 129.2-246.678zM599.64 515.95l-80.883 8.145c28.994 102.605 53.965 208.515 65.23 318.31 45.727 12.11 90.838 10.2 145.258-2.66 18.212-90.03 50.36-181.392 99.775-273.04L825 555l-5 10c-6.315 3.15-12.962 3.442-20.098 5.69-9.127 2.877-18.92 7.52-28.443 10.033-12.15 3.206-24.488 9.02-34.227 5.266-2.956-1.14-6.435 5.1-9.56 5.686-30.626 66.53-53.395 133.098-69.197 198.908C645.8 695 624.1 603.592 599.64 515.95zm464.432 16.25C937.675 700.998 894.134 856.195 889.97 1012.398c-4.02 150.704 31.81 303.814 77.965 460.89l29.756-5.18c-46.286-157.24-81.64-308.365-77.732-454.9 4.08-152.978 46.234-303.127 173.45-470.092zm40.96 22.576c-6.33 12.11-12.94 24.242-2.12 34.828l-.606.928c-7.81-2.064-16.084-3.577-24.594-4.805 4.907 6.63 9.91 13.033 15.14 18.908l.148.162-.133.2c-13.847-2.91-25.317-1.308-31.523 16.498 36.516-9.692 77.408 41.578 93.658 13.662 19.1-26.057-44.254-43.038-49.97-80.383zM922.676 582.87c-52.25 89.74-85.238 178.048-103.754 265.162l.625-3.574c-72.77 24.696-130.935 38.697-187.996 35.686-46.96-2.478-91.36-17.02-139-43.937l6.045 70.266c42.383 19.49 85.216 31.237 129.793 33.6 59.632 3.147 116.435-8.74 179.432-28.578l.365-2.086c-25.803 186.76 10.545 368.226 61.088 546.793l29.7-5.303C857.56 1304.856 826.05 1158.592 830 1010.8c3.66-137.267 37.13-276.21 122.848-420.254zm135.973 48.19c-5.84 12.354-11.954 24.743-.717 34.885l.746 1.244c-8.273-1.914-17.053-3.17-26.08-4.104 5.143 6.395 10.372 12.56 15.678 18.426-14.076-2.122-25.1-.068-30.596 17.973 36.096-11.153 79.018 38.43 94.133 9.885 18.026-26.803-45.95-41.223-53.164-78.31zm-45.416 78.002c-3.708 13.152-7.683 26.384 5.08 34.52l-1.494.975c-7.733-.342-15.77-.114-23.963.408 6.232 5.542 12.514 10.832 18.846 15.682-14.213.13-25.103 3.985-27.52 22.686 33.746-16.986 84.3 24.793 94.47-5.865 13.33-29.422-52.152-33.03-65.418-68.406zm-33.44 80.64c-3.12 13.304-6.5 26.7 6.613 34.262L984.81 825c-7.696.01-15.665.594-23.775 1.475 6.797 5.523 13.637 10.767 20.576 15.354l-.756.486c-14.136.625-25.196 4.087-26.777 22.877 32.957-18.472 85.318 21.014 94.113-10.066 12.007-29.987-53.57-30.677-68.398-65.426zM1150 873.262c-25 0-40 28.656-40 50 0 45 60.558 39.404 63.46 16.922 1.54-11.92-18.46-36.922-18.46-36.922 29.5-1.394 55.467 25.08 85 25 17.4-.047 45-15 45-15-.21-10.804 7.894-19.65 0-35-25 10-92.95-5-135-5zm-74.178 62.332c-14.874 145.4 90.63 322.342 169.904 450.613 20.904-10.57 39.29-21.058 54.273-31.178v-100.633c-20.325-34.638-47.214-80.736-61.924-111.625 2.523-.845 5-1.943 7.39-3.318 7.7-4.327 10.44-14.29 6.02-21.945-4.428-7.67-14.458-10.277-22.06-5.736l.076-.045c-5.123 2.958-6.953.96-7.63-.215s-1.492-3.757 3.63-6.715l-.074.043c6.723-3.756 9.28-11.437 7.744-17.752s-7.336-11.962-15.033-12.21c-3.045-.098-6.054.68-8.674 2.232-10.106 5.85-16.822 15.5-19.033 25.885 1.286-7.914 5.43-14.987 11.6-20.397-64.96-8.966-89.068-50.868-70.643-126.3-20.21-6.354-38.717-13.672-55.564-20.707zm-426.514 5.658c-23.724.182-47.176 9.732-42.457 28.648L605 970c-75-75-75 135 0 60l1.926-.187c-10.12 38.447 95.556 38.582 86.252.406L695 1030c75 75 75-135 0-60l-1.61-1.19c3.636-18.553-20.358-27.738-44.082-27.557zm315.713 107.746a33.54 33.54 0 0 0-12.443 2.363c-18.628 7.36-27 29.555-19.348 48.988 3.147 8.257 12.605 12.435 20.828 9.186 8.235-3.254 12.29-12.794 8.914-20.98l.033.082c-2.173-5.5.068-7.016 1.33-7.516s3.935-.926 6.11 4.576l-.03-.078c2.73 7.202 9.952 10.857 16.424 10.264s12.91-5.5 14.283-13.078c.544-3.002.215-6.097-.94-8.92-5.775-14.552-19.18-24.082-33.377-24.838-.592-.032-1.187-.048-1.78-.05zm.113 12.004c.393 0 .787.015 1.18.037 9.43.54 18.63 6.935 22.73 17.31a6.001 6.001 0 0 0 .033.078c.29.708.373 1.483.236 2.236-.435 2.396-1.798 3.11-3.572 3.27s-3.242-.29-4.105-2.566a6.001 6.001 0 0 0-.031-.08c-4-10.12-14.04-14.344-21.678-11.326s-12.08 12.964-8.082 23.086a6.001 6.001 0 0 0 .033.082c.88 2.133-.083 4.398-2.23 5.246s-4.397-.147-5.213-2.305a6.001 6.001 0 0 0-.033-.084c-5.465-13.83.527-28.7 12.582-33.465 2.637-1.042 5.394-1.534 8.148-1.52zm252.615 25.87c2.434.078 3.34 1.324 3.76 3.055s.19 3.25-1.936 4.438a6.001 6.001 0 0 0-.074.043c-9.425 5.44-12.128 15.992-8.022 23.105s14.596 10.047 24.022 4.605a6.001 6.001 0 0 0 .076-.045c1.98-1.183 4.364-.563 5.518 1.436s.497 4.37-1.518 5.494a6.001 6.001 0 0 0-.076.045c-12.88 7.436-28.47 3.69-34.95-7.535s-1.928-26.6 10.95-34.035a6.001 6.001 0 0 0 .072-.043 4 4 0 0 1 2.178-.562zm-186.35 21.32a33.75 33.75 0 0 0-12.445 2.363c-18.63 7.36-26.998 29.56-19.344 48.994 3.15 8.254 12.605 12.43 20.826 9.182 8.236-3.254 12.288-12.796 8.912-20.982l.033.084c-2.174-5.502.07-7.02 1.332-7.518s3.934-.926 6.108 4.576l-.03-.078c2.73 7.202 9.95 10.857 16.422 10.264s12.91-5.5 14.285-13.078a16 16 0 0 0-.939-8.912c-5.773-14.556-19.178-24.1-33.38-24.846a34.09 34.09 0 0 0-1.781-.049zm.11 12.004c.393 0 .787.015 1.18.037 9.43.54 18.634 6.935 22.732 17.31a6.001 6.001 0 0 0 .031.078c.29.708.373 1.485.236 2.238-.435 2.396-1.797 3.107-3.57 3.27s-3.244-.29-4.107-2.566a6.001 6.001 0 0 0-.029-.078c-4-10.12-14.04-14.346-21.68-11.328s-12.08 12.964-8.082 23.086a6.001 6.001 0 0 0 .033.084c.88 2.133-.083 4.398-2.23 5.246s-4.397-.15-5.213-2.307a6.001 6.001 0 0 0-.031-.082c-5.465-13.83.527-28.703 12.582-33.467 2.637-1.042 5.393-1.534 8.146-1.52zm39.018 63.867c-4.162-.01-8.367.752-12.445 2.363-18.63 7.362-27.002 29.562-19.344 48.998 3.15 8.252 12.606 12.426 20.826 9.178 8.236-3.254 12.288-12.796 8.912-20.983l.033.082c-2.174-5.502.07-7.017 1.332-7.516s3.935-.926 6.11 4.576l-.03-.078c2.73 7.2 9.952 10.857 16.424 10.264s12.91-5.5 14.283-13.078c.544-3 .214-6.09-.94-8.912-5.773-14.556-19.178-24.1-33.38-24.846a34.09 34.09 0 0 0-1.781-.049zm.11 12.004c.393 0 .787.015 1.18.037 9.43.54 18.633 6.935 22.732 17.31a6.001 6.001 0 0 0 .031.078c.29.708.375 1.485.238 2.238-.435 2.395-1.8 3.107-3.572 3.27s-3.244-.29-4.107-2.566a6.001 6.001 0 0 0-.029-.08c-4-10.12-14.04-14.344-21.68-11.326s-12.08 12.964-8.082 23.086a6.001 6.001 0 0 0 .033.082c.88 2.133-.083 4.4-2.23 5.248s-4.397-.15-5.213-2.307a6.001 6.001 0 0 0-.031-.082c-5.465-13.83.527-28.703 12.582-33.467 2.637-1.042 5.393-1.534 8.146-1.52zm16.986 75.674c-4.162 0-8.367.752-12.445 2.363-18.63 7.362-27.002 29.563-19.344 48.998 3.15 8.252 12.606 12.426 20.826 9.178 8.236-3.254 12.288-12.796 8.912-20.982l.033.082c-2.174-5.502.07-7.017 1.332-7.516s3.933-.926 6.107 4.576l-.03-.078c2.73 7.202 9.95 10.857 16.422 10.264s12.91-5.5 14.285-13.078a16 16 0 0 0-.939-8.912c-5.773-14.556-19.178-24.1-33.38-24.846a34.09 34.09 0 0 0-1.781-.049zm.11 12.004a21.11 21.11 0 0 1 1.18.037c9.43.54 18.633 6.935 22.732 17.31a6.001 6.001 0 0 0 .031.078c.29.708.373 1.485.236 2.238-.435 2.395-1.797 3.107-3.57 3.27s-3.244-.29-4.108-2.566a6.001 6.001 0 0 0-.029-.08c-4-10.12-14.04-14.344-21.68-11.326s-12.08 12.964-8.082 23.086a6.001 6.001 0 0 0 .033.084c.88 2.133-.083 4.398-2.228 5.246s-4.397-.148-5.213-2.307a6.001 6.001 0 0 0-.031-.082c-5.465-13.83.527-28.703 12.582-33.467 2.637-1.042 5.393-1.534 8.147-1.52zm-11.05 70.318a33.54 33.54 0 0 0-12.443 2.363c-18.628 7.36-27 29.555-19.348 48.988 3.146 8.258 12.607 12.437 20.83 9.188 8.236-3.254 12.288-12.796 8.912-20.983l.033.082c-2.173-5.5.068-7.017 1.33-7.516s3.935-.926 6.11 4.576l-.03-.078c2.73 7.2 9.952 10.857 16.424 10.264s12.91-5.5 14.283-13.078c.544-3.002.215-6.097-.94-8.92-5.775-14.552-19.18-24.082-33.377-24.838-.592-.032-1.187-.048-1.78-.05zm.113 12.004c.394 0 .787.015 1.18.037 9.43.54 18.63 6.935 22.73 17.31a6.001 6.001 0 0 0 .033.078c.29.708.373 1.485.236 2.238-.435 2.395-1.8 3.107-3.572 3.27s-3.243-.29-4.106-2.566a6.001 6.001 0 0 0-.031-.08c-4-10.12-14.04-14.344-21.678-11.326s-12.08 12.964-8.082 23.086a6.001 6.001 0 0 0 .033.082c.88 2.133-.083 4.4-2.23 5.248s-4.397-.15-5.213-2.307a6.001 6.001 0 0 0-.033-.082c-5.465-13.83.527-28.703 12.582-33.467 2.637-1.042 5.394-1.534 8.148-1.52zm-35.863 63.29a33.64 33.64 0 0 0-12.564 2.359c-13.538 5.35-21.707 18.63-22.17 32.836a5.97 5.97 0 0 0 .236 2.023l11.756-1.635c.323-9.91 5.833-18.605 14.588-22.064 10.645-4.206 23.183.562 29.78 11.27l11.137-3.486a5.97 5.97 0 0 0-.92-2.809c-7.025-11.403-19.233-18.434-31.842-18.494z"/></symbol><symbol id="E" preserveAspectRatio="none" viewBox="0 0 1300 2000"><path fill="red" d="M1063.856 74.14c-16.796 9.186-38.81 18.127-68.316 25.137-1.408 26.324-9.214 49.148-23.893 66.652-1.203 1.434-2.44 2.822-2.596 4.094-66.403-6.155-134.794-9.185-205.836-8.234-10.058-15.437-17.63-33.803-21.107-54.693-10.572-5.097-19.75-12.047-27.107-20.062-7.357 8.016-16.536 14.965-27.107 20.062-3.765 22.616-12.33 42.275-23.98 58.43-57.34 3.455-117.217 9.573-180.354 18.69-7.01-6.522-12.766-13.635-17.17-20.955-8.886-14.768-13.377-28.274-17.387-39.79-15.14-2.96-28.947-9.74-41.596-17.832 39.72 59.1 64.243 103.532 85.62 153 185.6-26.833 338.984-27.21 490.813-11.95 14.163-48.743 28.92-91.213 80.016-172.537zM631.25 517.678c12.857 46.61 24.927 94.43 35.215 143.566a1102.15 1102.15 0 0 1 30.486-74.451c-4.697 5.12-10.28 8.207-16.95 8.207-35 0-35-55-5-55 1.104 0 2.153.047 3.15.14l.03-4.166c-3.097 0-6.747-1.444-10.775-4.926-7.033 2.308-16.95-.168-29.98-10.996l-6.176-2.373zm-112.303 7.236c-3.4 1.443-7.108 1.325-10.445.607-5.154 2.776-11.14 3.815-17.307 3.133-7.1 3.303-14.76 4.814-21.385 4.977-6.126 3.943-13.685 5.475-20.648 5.197-4.962 2.125-10.335 3.3-15.55 3.576l-3.076.727c23.862 84.24 44.58 169.124 57.107 255.08 34.358 21.767 65.384 36.156 96.232 44.166C572.72 732.61 547.75 626.7 518.947 524.914zM882.594 540l.984 4.705c-.114-1.6-.433-3.164-.984-4.705zm.984 4.705c1.647 22.867-39.548 48.846-54.555 21.898-49.42 91.75-81.568 183.112-99.94 273.18 29.6-6.868 61.992-17.033 98.813-29.877 19.534-74.7 50.124-150.34 94.78-227.037L920 580c-4.4-.46-7.9-1.827-10.854-3.994-16.64 13.08-21.02-9.376-25.568-31.3zm54.355 318.344c-9.752 43.517-15.15 87.12-17.2 131.314 61.286 16.614 114.556 51.92 154.988 99.57-16.406-53.788-24.858-108.223-19.383-160.262l1.14-5.83c-51.718-22.576-91.088-43.98-119.543-64.793zm-437.947 77.11c.972 38.663-.275 77.162-4.332 115.916 21.83-6.643 43.462-12.363 64.52-17.143-15.434-18.336-15.07-62.02.71-78.734-20.598-5.083-40.925-11.952-60.9-20.04zm619.355 12.727c.468 11.838 1.4 23.773 2.79 35.78-20.374 17.422-34.992 41.35-17.133 93.002 15.15-13.305 22.607-27.593 25.412-42.473a622.43 622.43 0 0 0 6.209 26.527c-17.928 21.263-29.692 47.628-1.62 96.873 12.074-15.4 16.85-30.374 17.14-45.084 3.595 10.54 7.442 21.066 11.53 31.566-15.027 21.492-22.596 48.026 6.33 93.004 10.628-15.157 14.75-29.585 14.746-43.55 4.395 9.507 8.965 18.97 13.697 28.375-12.856 23.328-17.945 50.77 16.557 92.707 8.57-15.887 11.078-30.367 9.684-43.936l14.256 24.147c-10.218 21.53-13.17 46.4 14.21 81.26l12.668-6.5c3.03-10.33 3.6-19.996 2.38-29.178l13.81 19.95 10.822-5.488c-10.757-15.152-21.22-30.694-31.312-46.545 13.61 10.764 26.353 14.905 38.484 15.367v-31.22c-15.23-9.97-32.81-15.198-55.04-10.998-8.452-14.166-16.582-28.538-24.34-43.066 25.41 24.092 48.688 22.655 70.676 16.6-21.216-25.494-44.8-46.76-83.27-40.992-8.01-16.057-15.535-32.266-22.5-48.56 27.23 29.25 52.073 28.1 75.478 21.73-21.208-25.642-44.814-47.033-83.525-41.187-8.885-22.267-16.694-44.643-23.25-66.96 12.1 13.393 23.73 20.737 34.97 24.225l4.908-15.29 8.195-10.566c-19.783-2.658-35.776-8.373-47.943-17.17a86 86 0 0 0-5.223.516l-1.564-6.11c-22.16-20.87-27.654-55.176-16.04-103.27l-12.182-3.48zM650 980a25 20 0 0 0-25 20 25 20 0 0 0 25 20 25 20 0 0 0 25-20 25 20 0 0 0-25-20zm315.078 75c-3.458-.01-6.94.615-10.297 1.94-15.35 6.065-22.53 24.612-15.957 41.25a10.001 10.001 0 1 0 18.602-7.35c-3.087-7.812.257-13.542 4.707-15.3s10.806.14 13.893 7.95a10.001 10.001 0 1 0 18.602-7.35c-5.136-12.998-17.2-21.108-29.55-21.143zm252.865 25.875a10.001 10.001 0 0 0-5.443 1.406c-15.493 8.945-21.398 27.938-13.147 42.23s27.654 18.675 43.147 9.73a10.001 10.001 0 1 0-10-17.32c-7.274 4.2-13.434 1.734-15.826-2.4s-1.448-10.7 5.826-14.9a10.001 10.001 0 0 0-4.557-18.727zm-186.486 33.318c-3.458-.01-6.94.615-10.297 1.94-15.35 6.065-22.53 24.614-15.957 41.252a10.001 10.001 0 1 0 18.6-7.351c-3.087-7.812.257-13.542 4.707-15.3s10.806.14 13.892 7.95a10.001 10.001 0 1 0 18.602-7.35c-5.136-12.998-17.197-21.108-29.547-21.142zm-105.71 26.9c9.927 91.34 31.686 184.916 59.03 281.69 22.275-30.76 35.223-70.135 35.223-112.793 0-73.27-38.2-136.853-94.254-168.897zm144.84 48.96c-3.458-.01-6.94.615-10.297 1.94-15.35 6.065-22.53 24.612-15.957 41.25a10.001 10.001 0 1 0 18.6-7.35c-3.087-7.81.257-13.542 4.707-15.3s10.808.14 13.895 7.95a10.001 10.001 0 1 0 18.6-7.35c-5.136-12.998-17.197-21.108-29.547-21.143zm81.713 77.766c1.79 13.842 2.7 27.935 2.7 42.17a332.46 332.46 0 0 1-23.326 122.363c34.332-11.638 67.212-24.66 96.61-36.662-23.816-37.787-50.7-81.53-75.984-127.87zm-64.615 9.912c-3.458-.01-6.94.615-10.297 1.94-15.35 6.065-22.53 24.614-15.957 41.252a10.001 10.001 0 1 0 18.6-7.351c-3.087-7.812.257-13.542 4.707-15.3s10.806.14 13.893 7.95a10.001 10.001 0 1 0 18.602-7.35c-5.136-12.998-17.197-21.108-29.547-21.143zm-10.937 82.322c-3.458-.01-6.937.615-10.295 1.94-15.35 6.065-22.533 24.612-15.96 41.25a10.001 10.001 0 1 0 18.602-7.35c-3.087-7.81.257-13.542 4.707-15.3s10.806.14 13.893 7.95a10.001 10.001 0 1 0 18.601-7.35c-5.136-12.998-17.2-21.108-29.55-21.143zm-35.775 75.29c-3.49-.02-7.002.6-10.39 1.94-11.146 4.404-17.986 15.393-18.38 27.45l55.47-13.748c-5.986-9.717-16.234-15.58-26.7-15.643z"/></symbol><symbol id="F" preserveAspectRatio="none" viewBox="0 0 1300 2000"><path fill="#44f" d="M799.328 293.695a11.451 19.017 0 0 0-11.453 19.016 11.451 19.017 0 0 0 11.453 19.018 11.451 19.017 0 0 0 11.451-19.018 11.451 19.017 0 0 0-11.451-19.016zm141.42 3.898a11.451 19.017 0 0 0-11.451 19.018 11.451 19.017 0 0 0 11.451 19.016 11.451 19.017 0 0 0 11.451-19.016 11.451 19.017 0 0 0-11.451-19.018zm15.084 125.63c-.403-.01-.817-.01-1.242.002C944.593 423.492 940 435 940 435s7.228-7.706 15.05-7.947c15.886-.49-1.4 32.753-15.05 32.947-9.9.14-30-25-50-25v10c20 0 35.734 19.84 50 20 23.033.257 41.22-41.17 15.832-41.775zm-205.832.06c-24.988.77-25.073 52.424 6.025 51.307C783.412 473.606 815 445 860 445v-10c-55 2.54-60.544 24.922-100 32.16-25.56 4.69-26.812-35.184-10-37.16 9.932-1.167 10 17.332 10 17.332.288.046 10-24.665-10-24.05zM578.645 515.22l-39.818 6.3 5.227 18.742 19.27-5.22a15 15 0 0 1 3.996-.578c7.586-.066 14.026 5.542 15.006 13.064s-3.8 14.592-11.16 16.47l-19.287 5.223.963 3.662 19.318-4.977a15 15 0 0 1 4.002-.527c7.586.028 13.955 5.714 14.842 13.248s-4 14.544-11.36 16.332l-19.33 4.98.95 3.79 19.488-4.725a15 15 0 0 1 18.662 12.986c.78 7.546-4.196 14.487-11.594 16.17l-19.494 4.725.793 3.418 19.43-4.387a15 15 0 0 1 4.016-.408c7.582.255 13.78 6.132 14.44 13.69s-4.426 14.417-11.85 15.982l-19.437 4.39.768 3.545 19.69-4.08a15 15 0 0 1 2.521-.34c7.865-.385 14.7 5.377 15.63 13.195s-4.328 15.032-12.06 16.52l-19.69 4.082.73 3.63 19.738-3.697a15 15 0 0 1 2.529-.289c7.87-.23 14.578 5.66 15.365 13.494s-4.614 14.942-12.37 16.283l-19.74 3.697 1.018 5.85 19.824-3.256a15 15 0 0 1 2.535-.234c7.875-.058 14.454 5.983 15.066 13.834s-4.95 14.84-12.738 16.004l-19.822 3.256.78 5.02 19.9-2.79a15 15 0 0 1 2.539-.174c7.875.126 14.313 6.32 14.74 14.186s-5.3 14.72-13.115 15.7l-19.887 2.787.494 3.967 20.002-2.31a15 15 0 0 1 2.543-.113c7.866.323 14.143 6.67 14.38 14.54s-5.65 14.582-13.482 15.375l-19.996 2.31.945 9.166 40.555 3.547c-10.704-117.115-36.56-228.626-66.455-335.055zm228.225 50.76c-2.608 1.17-6.12.49-9.408 2.45-5.49 3.276-10.728 8.783-12.81 4.95-5.704 10.46-13.446 8.3-17.004 5.836-6.34 5.023-7.062 5.092-13.25 2.418-43.388 89.803-71.92 179.66-88.082 268.023l27.844-3.664-6.57-1.365c-7.645-1.475-12.9-8.555-12.076-16.3s7.416-13.576 15.2-13.43c1 .02 1.996.138 2.973.355l19.428 4.033.367-1.64-19.287-4.656a15 15 0 0 1-11.633-15.934c.652-7.473 6.722-13.317 14.215-13.682 1.5-.073 3.005.08 4.46.453l19.256 4.65.86-3.338-19.098-5.303c-7.254-1.904-11.988-8.873-11.084-16.318s7.17-13.08 14.668-13.19a15 15 0 0 1 4.443.604l19.074 5.297 1.04-3.525-18.9-5.943c-7.185-2.15-11.68-9.274-10.523-16.684s7.606-12.828 15.104-12.687c1.503.03 2.993.283 4.42.754l18.88 5.936 1.012-3.02-18.69-6.56c-6.84-2.294-11.08-9.134-10.1-16.28s6.928-12.577 14.135-12.926a15 15 0 0 1 5.893.9l18.68 6.557 1.377-3.713-18.465-7.18c-6.762-2.52-10.77-9.498-9.543-16.61a15 15 0 0 1 20.416-11.352l18.467 7.182 1.406-3.45-18.223-7.78c-6.675-2.74-10.454-9.844-8.996-16.9s7.74-12.093 14.955-11.967a15 15 0 0 1 5.82 1.287l18.234 7.783 1.188-2.666-17.97-8.344c-6.588-2.946-10.144-10.165-8.465-17.184s8.116-11.847 15.324-11.494a15 15 0 0 1 5.775 1.469l17.986 8.354c5.498-11.396 11.253-22.797 17.264-34.2zM1280 635l-.414 244.9c1.722-.367 3.673-.942 5.414-1.64 7.894 15.35-.21 24.196 0 35 0 0-16.38 8.87-31.86 12.967-4.612 1.22-9.146 2.022-13.14 2.033-29.533.08-55.5-26.394-85-25 0 0 5.674 7.092 10.84 15.613 26.604 3.64 36.977 19.387 59.16 19.387 2.37 0 4.672.493 6.818 1.36l19.924-7.48-.115.643c52.27-12.886 60.404 14.8 13.373 30.477-2.98.994-5.825 1.85-8.04 2.5 45.31.323 44.386 24.242-5.64 32.682-4.86.82-9.39 1.418-13.594 1.818l.105 3.15c60.358-2.457 63.623 25.99 7.922 32.506l-2.727 2.348c48.493-.363 49.54 26.362 1.643 32.652l-3.355 4.795c13.875 5.134 23.688 17.772 23.688 32.55 0 15.64-11 28.884-26.633 33.285 13.983 31.05 41.112 77.807 61.633 112.83l-.012-606.563A782.32 782.32 0 0 0 1280 635zm-100.04 43.84c-63.68 93.4-92.263 173.702-104.22 256.684 16.804 7.056 35.37 14.397 53.775 20.05-11.66-6.462-19.514-16.106-19.514-32.312 0-21.344 15-50 40-50 8.72 0 18.553.645 29.443 1.658zM503.82 855.87l-9.64 19.037 13.62 6.1-3.668 8.012-5-2.62c-3.58-1.977-6.447 3.498-2.783 5.314l10.605 5.557 8.82-19.268-13.4-6 4.11-8.12 10.24 4.94c4.102 1.883 8.194 3.62 12.285 5.326l-11.252 27.61 2.768 1.137a369.21 369.21 0 0 0 18.063 6.871c6.287 2.206 12.6 4.23 18.922 6.014l2.867.807 5.842-20.162-2.908-.82c-4.977-1.403-9.954-3.058-14.932-4.777l2.918-8.326c4.84 1.682 9.678 3.287 14.512 4.672 4.613 1.32 9.253 2.44 13.902 3.496l-2.63 11.664-3.94 17.568 2.89.68c6.453 1.52 12.926 2.794 19.42 3.86 6.846 1.123 13.73 2.018 20.66 2.646l2.973.27 2-20.902-3.004-.27c-5.463-.495-10.9-1.262-16.31-2.105l1.43-8.883c5.234.83 10.475 1.572 15.744 2.066 3.87.364 7.757.65 11.658.855.917.048 1.873.05 2.81.084l-.998 29.95 2.96.137c6.123.28 12.202.324 18.26.22 6.506.22 14.433-.85 20.162-.95l3.17-.055-1.53-21.098-3 .23c-5.258.398-10.5.58-15.744.7v-9.002c5.017-.145 10.037-.34 15.084-.715 5.647-.42 11.353-1.067 17.088-1.807l1.563 12.098 2.262 17.863 2.967-.365c6.582-.8 13.183-1.807 19.81-2.95a466.4 466.4 0 0 0 18.807-3.645l2.924-.63-4.352-20.543-2.943.635c-5.07 1.092-10.075 2.023-15.07 2.916l-1.6-9.047c4.877-.833 9.773-1.726 14.725-2.773 4.77-1.01 9.608-2.148 14.47-3.322l2.887 11.758 4.238 17.518 2.906-.69c6.12-1.455 12.3-3.066 18.53-4.773l17.506-5.04 2.857-.867-5.994-20.125-2.885.875c-4.803 1.455-9.48 2.764-14.13 4.033l-2.416-8.78 13.898-3.908 14.87-4.553 9.6 30.246L810 900l-1.83-5.883-9.555-30.13-2.857.904-17.625 5.398-16.645 4.682-2.936.77 5.605 20.37 2.873-.764c4.68-1.245 9.47-2.645 14.29-4.078l2.572 8.63-14.484 4.172c-5.207 1.427-10.334 2.725-15.437 3.975l-2.822-11.662-4.31-17.557-2.92.723a511.39 511.39 0 0 1-17.199 3.949c-5.892 1.246-11.71 2.37-17.424 3.283l-3.008.48 3.676 20.914 2.945-.506c5.06-.87 10.168-1.893 15.297-2.96l1.863 8.803-15.63 3.03c-5.55.96-11.06 1.744-16.56 2.467l-1.502-11.863-2.33-18.018-3.002.42c-6.626.928-13.184 1.6-19.715 2.084-5.93.44-11.824.725-17.7.84l-2.94.057v20.975l3.035-.035c5.387-.063 10.77-.362 16.154-.72l.65 8.992c-5.696.292-11.965.934-16.732.77l-.078-.002-.078.002c-5.006.087-10.017-.015-15.033-.184l.396-11.994.61-18.062-3.123.022c-1.82.012-3.676-.068-5.572-.168-3.82-.202-7.622-.48-11.412-.836-6.144-.577-12.242-1.356-18.295-2.402l-2.992-.518-3.336 20.752 2.94.492c5.548.927 11.13 1.585 16.725 2.158l-.857 8.963c-5.776-.59-11.537-1.274-17.27-2.215-5.394-.885-10.752-2.002-16.102-3.2l2.62-11.67 3.94-17.48-2.973-.63c-5.483-1.162-10.96-2.564-16.443-4.135-5.683-1.628-11.348-3.43-17.008-5.477l-2.85-1.03-6.893 19.67 2.81 1.004c5.09 1.817 10.184 3.39 15.283 4.89l-2.504 8.643c-5.244-1.54-10.485-3.158-15.725-4.996-4.996-1.753-9.985-3.697-14.973-5.697l9.785-24.006a3 3 0 0 0 .545-2.375 3 3 0 0 0-2.742-2.607c-4.645-1.908-9.296-3.91-13.96-6.053-4.237-1.946-8.48-3.984-12.734-6.143zm310.932 4.385l-8.547 2.85 4.316 12.95zm105.05 165.312c-.4 26.81.574 53.887 2.666 80.92C997.676 1139.338 1050 1218.98 1050 1310c0 57.227-20.683 109.955-54.734 149.438l2.182 8.9c10.688-2.06 21.5-4.356 32.34-6.865l18.697-4.52c15.35-3.87 30.796-7.91 45.66-12.627 19.678-40.7 30.855-86.57 30.855-134.326 0-131.706-85.022-249.16-205.197-284.434zM965 1050a35 35 0 1 1 0 70 35 35 0 1 1 0-70zm66.53 59.353a35 35 0 1 1 0 70 35 35 0 1 1 0-70zm-82.508 66.818a22.51 22.51 0 0 0-14.787 5.795l-2.916 2.557 3.512 16.873 9.375-8.223a7.501 7.501 0 0 0 .08-.07c1.45-1.308 3.344-1.998 5.295-1.928 3.766.135 5.835 2.216 6.814 5.03s.65 5.73-2.217 8.176a7.501 7.501 0 0 0-.08.068l-15.756 13.818 6.154 29.564 28.98-12.266a7.501 7.501 0 0 0 .098-.041c.85-.374 1.76-.588 2.686-.63a7.42 7.42 0 0 1 7.662 5.891 7.42 7.42 0 0 1-4.502 8.553 7.501 7.501 0 0 0-.098.041l-31.71 13.42 4.953 23.793 35.402-3.986a7.501 7.501 0 0 0 .105-.016 7.5 7.5 0 0 1 .635-.053 6.76 6.76 0 0 1 .637 0 7.501 7.501 0 0 0 .004 0 7.4 7.4 0 0 1 7.176 7.291 7.4 7.4 0 0 1-6.77 7.67 7.501 7.501 0 0 0-.109.012l-34 3.832 5.854 28.123 26.885 4.912a7.501 7.501 0 0 0 .098.02c4.215.712 6.897 4.54 6.13 8.746s-4.632 6.836-8.826 6.012a7.501 7.501 0 0 0-.098-.019l-20.89-3.816 3.3 15.856 14.797 2.703c12.217 2.4 24.233-5.787 26.47-18.035s-6.107-24.156-18.385-26.23l-24.207-4.424 24.45-2.754c11.688-1.142 20.622-11.268 20.303-23.008s-9.8-21.36-21.52-21.867h-.004a22.74 22.74 0 0 0-3.811.158l.105-.014-16.04 1.807 14.826-6.275c10.098-4.107 15.834-15.005 13.504-25.654s-12.094-18.154-22.984-17.668c-2.778.124-5.51.76-8.057 1.88l-20.22 8.557 16.594-14.557c7.545-6.432 9.455-16.474 6.652-24.523s-10.537-14.733-20.445-15.088c-.365-.013-.73-.016-1.094-.012zm15.766 169.148l-3.3-15.854-1.287-.234 3.807 15.945zm-9.152-43.976l-3.07-14.75-2.312.26 3.348 14.72zm-8.023-38.543l-3.115-14.97-2.125.898 2.953 15.04zm-9.27-44.533l-3.512-16.87-.793.695 2.934 17.38zm133.1-33.44a35 35 0 1 1 0 70 35 35 0 1 1 0-70zm16.69 87.807a35 35 0 1 1 0 70 35 35 0 1 1 0-70zm-10.885 82.002a35 35 0 1 1 0 70 35 35 0 1 1 0-70zm-35.56 75.473a35 35 0 0 1 31.703 20.17l-66.676 16.21a35 35 0 0 1 34.973-36.381z"/></symbol><symbol id="G" preserveAspectRatio="none" viewBox="0 0 1300 2000"><path d="M781.385 206.543c-93.467.29-192.01 7.453-301.322 23.604l12.885 28.436c185.68-26.785 339.063-27.165 490.926-11.994l9.064-29.236c-69.232-7.1-138.856-11.033-211.553-10.81zm237.762 309.504c.087 1.9.494 4.26.854 6.736 6.883 47.36-5.717 66.844-22.05 67.002l-45.113.76C867.12 734.6 833.65 873.532 830 1010.8c-3.94 147.794 27.57 294.057 69.332 440.082 13.358 2.252 23.033 11.293 24.287 27.54 14.603-.937 29.377-2.69 44.418-5.066-46.25-157.14-82.077-310.25-78.06-460.955 4.165-156.204 47.705-311.4 173.904-480.353l-44.727-15.998zm160.72 111.545c-80.898 108.466-117.498 201.147-132.03 295.885l28.402 12.22c11.458-83.154 40.04-163.455 103.68-256.69zM487.635 798.387l4.916 37.818c47.64 26.92 92.04 41.46 139 43.938 57.06 3.01 115.227-11 187.996-35.686l8.322-34.613c-150.025 52.626-227.012 59.678-340.234-11.457zm569.834 129.516l-1.13 5.77c-5.476 52.04 2.977 106.473 19.615 160.695l50.69 75.81c10.366 33.17 21.55 66.615 25.633 97.69 24.43 44.717 50.35 87.05 73.817 125.207.83 1.35 19.52-6.437 19.52-6.437-39.167-63.676-84.78-139.162-119.024-216.773-34.97-79.254-58.082-160.724-50.36-234.1zM1000 992a3 3 0 1 0 0 6h46.14l-.484-6zm-5 12a6.001 6.001 0 0 0-6.008 6.916 312.16 312.16 0 0 1 9.186 5.084h49.973l-1.443-12zm11.55 17c9 5.566 17.697 11.58 26.082 18h19.234c-1.13-6.004-2.14-12.005-3.018-18zm33.68 24c5.39 4.39 10.646 8.948 15.748 13.676-1.053-4.56-2.026-9.118-2.945-13.676zm234.756 64c-.07 4.173-.742 8.195-1.932 12H1300v-12zm-8.6 25c-3.54 4.766-8.02 8.84-13.168 12H1300v-12zm-8.645 25l6.342 12H1300v-12zm13.443 25l6.688 12H1300v-12zm14.078 25l6.89 12H1300v-12z"/></symbol><symbol id="H" preserveAspectRatio="none" viewBox="0 0 1300 2000"><path stroke="#44f" stroke-linecap="round" stroke-linejoin="round" stroke-width="6" fill="none" d="M1111.812 709.367c-15.115 28.547-58.036-21.04-94.132-9.886m40.97-68.423c7.213 37.085 71.19 51.506 53.163 78.31-33.763 4.056-57.282-19.012-79.214-46.283 35.448 3.666 67.08 12.294 79.214 46.283m-53.163-78.31c-5.84 12.354-11.954 24.744-.717 34.886m-40.252 33.537c5.485-18.04 16.52-20.095 30.473-17.743M1155 635.16c-16.25 27.916-57.143-23.355-93.66-13.663m43.688-66.72c5.716 37.345 69.06 54.327 49.97 80.383-33.9 2.695-56.47-21.3-77.29-49.43 35.272 5.088 66.532 14.98 77.29 49.43m-49.97-80.383c-6.33 12.11-12.94 24.243-2.12 34.83m-41.568 31.892c6.206-17.806 17.677-19.408 31.524-16.497m-14.215 172.466c-10.17 30.658-60.722-11.12-94.468 5.867m29.05-74.272c13.266 35.375 78.747 38.983 65.417 68.405-32.622 9.6-59.642-9.246-85.794-32.5 35.565-2.266 68.19.996 85.794 32.5m-65.417-68.405c-3.71 13.152-7.684 26.384 5.08 34.522m-34.13 39.75c2.417-18.7 13.305-22.556 27.455-22.55m36.554 94.343c-8.795 31.08-61.156-8.405-94.113 10.067m25.716-75.49c14.827 34.75 80.404 35.438 68.397 65.425-32.162 11.043-59.995-6.582-87.156-28.65 35.43-3.847 68.167-2.04 87.156 28.65M979.794 789.7c-3.12 13.304-6.5 26.7 6.612 34.26m-32.328 41.23c1.582-18.8 12.642-22.25 26.778-22.876m129.502-136.307l4.304-7.39m-6.37 11.007l2.066-3.616m-6.147 10.898l4.08-7.282m-28.714 56.228c7.295-16.1 15.476-32.39 24.633-48.947m-28.076 56.68l3.443-7.735m-5.61 12.748l2.166-5.013m-5.78 13.655l3.613-8.642m-24.596 68.89c5.747-19.923 12.68-39.955 20.983-60.247m-22.877 66.967l1.895-6.72m-2.226 7.926l.33-1.207m-1.674 6.21l1.343-5.005m-13.344 61.627c3.07-18.9 7.018-37.72 12-56.623m-61.264.192a672.05 672.05 0 0 0-6.178 28.251m31.342-109.415a676.84 676.84 0 0 0-10.987 31.106m46.756-110.178a757.55 757.55 0 0 0-14.886 29.94m60.198-106.104c-6.692 10.066-13.06 20.06-19.117 29.99m65.28-93.992l-7.748 10.168-8.766 11.664M1106.08 683.97c8.25-13.73 17.15-27.632 26.743-41.732m-63.796 111.318c5.657-12.2 11.804-24.5 18.473-36.926m-48.914 115.71a618.3 618.3 0 0 1 15.465-43.896m-34.173 122.03a621.54 621.54 0 0 1 8.946-42.975m-66.4-39.867c-4.254 14.998-7.952 29.938-11.14 44.834m11.512-46.14l-.372 1.308m116.835-239.734c-57.628 82.51-94.415 161.26-116.463 238.426m117.637-240.103l-1.174 1.677m28.804-39.29l-2.737 3.592c-8.697 11.415-17 22.753-24.894 34.022m62.24 16.19l10.38-13.85 12.328-16.18m-70.786 101.666c7.48-12.385 15.472-24.895 24.01-37.547m-62.375 109.252a723.31 723.31 0 0 1 17.207-34.469m-48.1 113.623c4.15-13.127 8.793-26.314 13.97-39.587m-33.364 118.257c2.28-12.667 4.946-25.342 8.04-38.047m-44.733-4.993l-4.497 20.376m10.423-43.59l-1.545 5.735m6.902-24.262l-1.925 6.435m14.92-44.988c-2.457 6.64-4.793 13.263-7.013 19.873m17.198-45.82l-3.154 7.72m10.874-25.633l-3.55 8.07m22.053-46.523c-3.718 7.21-7.282 14.393-10.697 21.552m23.123-44.708l-3.44 6.235m13.367-23.552l-4.466 7.675m27.475-44.647l-13.1 20.543m26.812-40.898l-2.703 3.923m13.152-18.728l-2.842 3.972m25.897-34.906l-5.253 6.895-6.503 8.622m20.612 22.56l9.754-13 10.052-13.192m-68.342 98.33c6.923-11.424 14.27-22.943 22.063-34.57m-61.71 108.455c5.117-10.957 10.605-21.982 16.482-33.087m-47.798 112.754a657.22 657.22 0 0 1 12.832-36.332M992.087 896.46a654.96 654.96 0 0 1 7.252-33.705M458.36 187.9c209.623-32.235 381.9-32.295 551.274-14.05m-516.686 84.72c185.68-26.785 339.063-27.164 490.926-11.994m-503.8-16.44c194.33-28.712 354.632-29.02 512.875-12.795M332.737.468c88.066 119.423 127.758 182.968 160.37 258.21M1112.592.632c-91.864 132.477-110.776 184.185-128.786 246.134m-181.734-84.97C783.05 144.493 771.05 120.19 770 85c-40.156-7.073-49.115-41.908-55-80-5.885 38.092-14.844 72.927-55 80-1.2 40.21-16.695 66.205-40.63 83.785m44.385-3.16c11.8-16.255 20.373-35.914 24.14-58.53 10.572-5.097 19.75-12.047 27.107-20.062 7.357 8.016 16.536 14.965 27.107 20.062 3.478 20.9 11.05 39.257 21.492 54.75m-235.212 16.357C485.257 160.134 485.068 126.255 470 95c-40.577 3.367-92.268-51.557-135.233-95.174m72.27 105.35c13.018 8.554 26.824 15.335 41.965 18.294 4 11.515 8.5 25.02 17.387 39.79 4.404 7.32 10.158 14.433 17.28 20.992m438.06-18.02C952.61 152.665 969.9 125.185 965 75c97.247-16.886 106.476-48.58 146.887-75.026M967.94 170.094a94.44 94.44 0 0 0 3.706-4.164c14.678-17.504 22.485-40.33 23.893-66.652 29.506-7 51.52-15.95 68.803-25.777M875 .158c-9.716 74.536-79.277 70.206-82.727 120.026-3.11 44.892 67.025 49.32 69.86 4.41 1.916-30.353-38.03-32.46-39.92-2.52-.945 14.97 24.005 16.545 24.95 1.575M875 .158c.264 75.166 69.818 79.62 66.975 129.477-2.562 44.927-72.696 40.5-69.86-4.41 1.916-30.353 41.81-27.42 39.92 2.52-.945 14.97-25.895 13.395-24.95-1.575M559.827 13.348c3.832 75.032-57.4 81.85-52.2 131.516 4.694 44.754 66.44 37.943 61.504-6.786-3.335-30.23-38.435-25.942-35.145 3.877 1.645 14.9 23.61 12.486 21.966-2.423m3.865-126.185c12.618 74.063 73.862 67.368 79.605 116.976 5.175 44.7-56.57 51.514-61.504 6.786-3.335-30.23 31.855-33.697 35.145-3.878 1.645 14.9-20.32 17.333-21.966 2.423m236.762 674.19c-150.025 52.626-227.013 59.68-340.236-11.457m10.962 108.084c42.383 19.49 85.215 31.237 129.792 33.6 59.632 3.147 116.435-8.74 179.432-28.58m-315.27-75.277c47.64 26.92 92.04 41.46 139 43.938 57.06 3.01 115.228-10.99 187.997-35.685m-80.07 116.217c21.316-4.372 42.737-10.027 64.593-16.623m-304.17-4.26c20.064 8.452 40.39 15.32 61.072 20.403m84.13-109.923c-10.65-116.533-36.302-227.518-66-333.468m148.585 74.87c-30.626 66.53-53.395 133.1-69.236 199.028m93.77-204.52c-42.162 88.288-70 176.603-85.9 263.475M806.644 566.38C757.59 659.552 725.8 752.608 707.91 844.183m121.11-277.477c-49.415 91.647-81.565 183-99.906 273.002m-70.6-49.243C645.8 695 624.1 603.592 599.638 515.95m4.906 330.775c-10.955-112.453-36.22-220.513-65.564-324.666m45 320.23c-11.257-109.68-36.23-215.59-65.223-318.194M997.7 1468.11c-46.286-157.24-81.64-308.365-77.733-454.9 4.08-152.978 46.234-303.127 173.45-470.09m-125.473 930.18c-46.156-157.076-81.984-310.187-77.966-460.89 4.165-156.204 47.705-311.4 174.1-480.196M922.676 582.87c-177.287 304.494-132.9 592.49-53.402 873.32m29.702-5.304C857.562 1304.855 826.05 1158.592 830 1010.8c3.66-137.267 37.13-276.21 122.848-420.254M938.203 863.65c40.722 29.128 103.558 60.243 192.782 93.73m-16.323-258.765c17.446-29.584 38.036-60.075 62.264-91.872l3.074-4.035m-26.623 10.475l11.617-15.53 14.42-18.923m-103.175 356.966c11.458-83.154 40.04-163.455 103.68-256.69m-132.082 244.47c14.534-94.738 51.133-187.42 132.03-295.886m-160.358-111.2c55.302 18.827 109.273 39.16 160.545 62.545M-.31 645.182C77.863 592.386 249.656 531.08 376.9 521.334m548.944 620.11C981.8 1173.147 1020 1236.73 1020 1310c0 42.658-12.948 82.032-34.8 113.743m10.075 35.695c34.05-39.482 54.735-92.21 54.735-149.438 0-91.02-52.325-170.66-127.533-203.722m209.335 326.05C1146.8 1394.137 1155 1352.7 1155 1310c0-146.98-97.167-278.98-234.21-315.2m173.06 449.6c19.975-40.764 31.152-86.645 31.152-134.4 0-131.706-85.023-249.158-205.117-284.32m156.346-89.916c4.298 166.278 90.226 322.08 168.75 449.84m-7.1-244.144c14.72 31.904 43.294 80.848 63.976 116.104M675 1000a25 20 0 0 0-25-20 25 20 0 0 0-25 20 25 20 0 0 0 25 20 25 20 0 0 0 25-20m20 30c75 75 75-135 0-60m30 60s5-5 5-10-5-10-5-20 5-15 5-20-5-10-5-10m-120 60c-75 75-75-135 0-60m-30 60s-5-5-5-10 5-10 5-20-5-15-5-20 5-10 5-10m45 20c-65-65 125-65 60 0m-60-30s5-5 10-5 10 5 20 5 15-5 20-5 10 5 10 5m-60 50c-65 65 125 65 60 0m-60 30s5 5 10 5 10-5 20-5 15 5 20 5 10-5 10-5m-87.004-80h14.107m-14.107 80h14.107M500.26 960h60.88m-61.055 20h51.043m-51.582 20h49.203m-50.107 20h52.486m-53.96 20h63.97M1140 933.262c-5-5-12.292-28.71 15-30 29.5-1.394 55.467 25.08 85 25 17.4-.047 45-15 45-15-.21-10.804 7.894-19.65 0-35-25 10-92.95-5-135-5-25 0-40 28.656-40 50 0 45 60.557 39.404 63.46 16.92 1.54-11.92-18.46-36.92-18.46-36.92m-23.2 51.958c-18.828 76.51 5.28 118.414 70.504 127.178m8.13-109.356c-29.58-1.468-25.423-9.78-25.423-9.78 2.216 29.672-8.808 47.205-25 60m5.935-104.296c26.51 3.548 36.882 19.296 59.065 19.296 2.37 0 4.67.492 6.818 1.36m-5.625 28.98c-19.995-4.004-13.582-24.18 16.755-33.418 59.932-18.25 71.575 11.57 22.053 28.08-2.98.994-5.826 1.85-8.536 2.583m-25.922 1.874c70.612-10.245 79.337 20.846 20.776 30.725-70.95 11.97-71.376-23.384-20.776-30.725m-3.984 36.46c71.04-6.656 78.18 24.837 19.193 31.738-71.465 8.36-70.1-26.97-19.193-31.738m1.01 35c63.284-6.656 69.644 24.837 17.098 31.738-63.664 8.36-62.448-26.968-17.098-31.738m37.43 69.082a37.5 35 0 0 1-37.5 35 37.5 35 0 0 1-37.5-35 37.5 35 0 0 1 37.5-35 37.5 35 0 0 1 37.5 35M1180 875V183.262l50-50 50 50V879.8M1000 1085a35 35 0 1 1-70 0 35 35 0 1 1 70 0m66.53 59.354a35 35 0 1 1-70 0 35 35 0 1 1 70 0m39.913 75.47a35 35 0 1 1-70 0 35 35 0 1 1 70 0m16.69 87.808a35 35 0 1 1-70 0 35 35 0 1 1 70 0m-10.885 82.002a35 35 0 1 1-70 0 35 35 0 1 1 70 0m-105.53 76.854a35 35 0 0 1 34.973-36.382 35 35 0 0 1 31.703 20.171m170.998-569.648c-1.544-6.77-5.5-25.097-5.98-37.124-.6-14.987 13.6-35.597 13.2-45.588s-21.582-39.128-22.18-54.115 12.19-70.566 11.592-85.553-17.186-54.324-17.785-69.31 17.787-55.79 16.988-75.77-17.985-74.307-18.584-89.294 18.186-45.797 17.387-65.78-16.986-49.33-17.585-64.315 3.598-35.18 3.198-45.17-6.394-34.76-6.794-44.75 12.19-70.566 12.19-70.566m9.342 747.132c-1.503-6.806-5.326-25.13-5.726-37.146-.5-14.992 13.827-35.48 13.494-45.474s-21.32-39.312-21.82-54.304 12.662-70.46 12.162-85.452-16.822-54.47-17.322-69.462 18.158-55.635 17.492-75.624-17.488-74.46-17.987-89.45 18.49-45.64 17.825-65.63-16.656-49.473-17.155-64.465 3.832-35.147 3.5-45.142-6.162-34.814-6.495-44.81 12.662-70.46 12.662-70.46M1280 635l19.99 12.815m-85.956 230.276c-1.454-8.123-4.033-24.055-4.033-34.83 0-15 15-35 15-45s-20-40-20-55 15-70 15-85-15-55-15-70 20-55 20-75-15-75-15-90 20-45 20-65-15-50-15-65 5-35 5-45-5-35-5-45 15-70 15-70m4.4 747.213c-1.465-6.856-5.15-25.145-5.47-37.132-.4-14.995 14.062-35.387 13.795-45.384s-21.06-39.453-21.46-54.447 13.13-70.375 12.73-85.37-16.46-54.58-16.86-69.575 18.527-55.514 17.994-75.506-16.994-74.574-17.394-89.568 18.793-45.517 18.26-65.5-16.327-49.582-16.727-64.577 4.065-35.12 3.8-45.117-5.93-34.854-6.198-44.85 13.13-70.375 13.13-70.375m-77.722 1134.806c24.82 45.434 51.183 88.408 74.943 127.04m-151.268-300.54c-16.638-54.223-25.1-108.657-19.615-160.695l1.132-5.77m-558.142-670.01C416.747 411.142 472.825 422.943 440 500c-14.923 35.033-50 20-41.145-4.224C411.72 460.582 435 475 430 495c-2.044 8.176-14.812 12.956-20 10m105.453-249.236C430.952 410.922 485.205 421.467 455 500c-25 65-64.88 20-56.026-4.224m132.615-242.1C445.468 410.83 500.34 421.117 470 500c-25 65-111.09 67.492-90 0 25-80 72.053-58.46 67.053-23.46M547.64 251.77C460.023 410.748 515.462 420.798 485 500c-10.735 27.912-32.134 41.42-51.388 42.405M563.68 249.89C474.586 410.67 530.582 420.487 500 500c-10.64 27.662-31.882 39.534-51.152 38.845M579.614 248.2C489.196 410.603 545.688 420.21 515 500c-9.27 24.1-27.734 33.87-46.227 33.185m126.77-286.64C503.8 410.538 560.793 419.94 530 500c-8.324 21.643-23.26 29.96-38.705 28.933m120.055-283.83C518.476 410.484 575.883 419.705 545 500c-8.317 21.624-22.47 28.46-36.882 25.467m119.04-281.797C533.145 410.43 590.972 419.474 560 500c-7.433 19.326-19.946 25.75-33.306 23.46m116.137-280.98C547.87 410.39 606.045 419.282 575 500c-6.985 18.162-18.542 23.682-31.11 20.734m114.615-279.448C562.594 410.347 621.12 419.092 590 500c-6.572 17.088-17.667 21.38-30.07 17.197m114.11-276.85C577.377 410.315 636.176 418.942 605 500c-5.63 14.64-14.894 18.894-25.628 15.926m110.202-276.52C592.16 410.283 651.233 418.793 620 500c-5.647 14.68-14.965 18.195-25.765 14.06m110.656-275.2C607.032 410.265 666.267 418.705 635 500c-4.58 11.9-12.345 15.167-21.843 12.13M720 510s-5 85-40 85-35-55-5-55 20 35 0 35c-10 0-6.486-14.546 5-15m53.125-44.375c-5 45-12.347 97.507-41.13 76.148m54.256-70.523c-3.006 41.773-5.322 80.234-28.732 67.93m41.857-62.304c-5 35-1.22 70.48-22.76 58.627M772.5 532.5c-5 35 1.664 59.52-19.875 47.665m33-42.04c-3.563 26.875 3.687 51.505-17.852 39.65m30.977-34.026C795 565 800 580 783.183 573.54m28.692-24.165c-8.183 22.652-1.875 17.825-15.95 18.49M825 555c-4.59 5.854-2.68 12.498-18.678 11.523M660 467.16c1.17 18.15-5.662 54.104-38.133 46.06M672 475.727c5.984 22.537-1.263 65.428-50.133 37.492M684 484.296c4.117 23.47-6.547 69.02-46.575 35.755M696 492.864c-1 12.136-3.95 57.926-28.87 38.27M708 501.432c0 17.84-12.18 71.928-24.04 71.37M825 555c9.565 47.328 66.995 11.25 57.594-15M950 517.24c2.874 77.76 85.436 111.76 70 5.542-10.734-73.86-63.283-43.674-52.43 6.322 6.022 27.74 42.258 49.972 37.916 6.198-4.78-48.18-21.93-35.412-21.258-21.405.772 16.1 4.815 20.1 12.06 25.2m-59.77-17.296c9.5 50.45 22.752 80.22 58.48 68.207m-71.962-63.655c8.586 56.052 19.886 69.043 46.14 64.476m-59.622-59.924c5.154 36.467.418 58.26 34.077 56.104m-47.558-51.553C899.533 561.352 902.12 578.136 920 580m-37.406-40c4.97 23.216 8.717 50.023 26.38 36.026M980 245s10 30 10 40-5 23.087-5 27.808 3.576 62.232 2.685 72.192c-2.242 25.054-18.874 100.31-21.32 125.31M985 245c0 20 60.346 42.78 61.593 80 2.165 64.64-42.164 37.785-60.23 18.36m.91-73.36s41.205 35.058 42.726 55c2.536 33.26-30.643 17.892-44.29 9.31m4.29-41.413s23.36 11.376 25 27.102c2.556 24.502-18.934 14.994-29.44 8.753m1.976-25.88C995 305 1000 320 1000 320c.966 10.742-7.59 4.817-14.6 1.62m1.1 21.897C987.827 380.074 1055 405 1055 450c0 65.462-46.1 41.896-47.592 37.52m-19.58-107.447C990 392.864 1040 425 1040 455c0 39.867-32.4 35.798-35 30m-19.18-84.18c0 10 39.18 34.18 39.18 54.18 0 27.27-27.456 24.286-32.418 23.52m-9.708-58.316C985 430 1010 440 1010 457.512c0 27.608-34.927 8.694-35 7.488m5-30c4.27 6.664 12.855 10 12.816 20-.075 19.265-16.078 5.534-16.995 1.1M715 295s45-35 65-35 55 10 60 10c10 0 10-10 10-10l5 5s-7.923 10-15 10-45-10-60-10c-12.8 0-65 30-65 30m265-20s-25-15-35-15-30.015 12.765-35 12.373c-5.914-.466-10-2.373-15-12.373l-5 5s10 10 20 10 30-10 35-10 35 10 35 10m-90-10v20c0 5.27-5 10-5 15s30 100 30 105-15 20-20 20c-10 0-15.542-13.768-23.49-13.768S850 419.915 845 420c-16.496.28-15.942-24.733 0-25 5-.084 10 5 10 5m5 35c-55 2.54-60.544 24.922-100 32.16-25.56 4.69-26.812-35.184-10-37.16 9.932-1.167 10 17.332 10 17.332.288.046 10-24.663-10-24.048-24.988.77-25.072 52.422 6.026 51.305C783.413 473.606 815 445 860 445v-10m30 0v10c20 0 35.734 19.84 50 20 23.4.26 41.795-42.496 14.59-41.773C944.593 423.492 940 435 940 435s7.23-7.707 15.05-7.947c15.886-.49-1.402 32.753-15.05 32.947-9.9.14-30-25-50-25m-80 50v7.2l5-4.3-5-2.9m110-5v7.685L915 485l5-5m-105 7.9c10 2.1 22.1-13.17 34.59-13.17s9.516 5.28 19.516 5.28 10-7.915 20-7.915S905 485 915 485m-75 30c30.388 15.822 50-10 50-20M725 325c25 0 41.557-28.358 67.053-28.358C822.053 296.642 830 320 840 320c-10 0-36.87 12.035-50.41 11.716C774.594 331.362 740 325 725 325m166.437-8.227c25 0 21.8-17.23 47.293-17.518 25.646-.3 32.707 17.518 42.707 17.518-10 0-28.877 15.835-42.416 15.515-14.996-.354-32.584-15.515-47.584-15.515m-194.454 269.9a1130.48 1130.48 0 0 0-30.573 74.645m.112-.15c-10.344-49.062-22.414-96.88-35.27-143.5"/></symbol><symbol id="I" preserveAspectRatio="none" viewBox="0 0 1300 2000"><path stroke="#44f" stroke-linecap="round" stroke-linejoin="round" stroke-width="3" fill="none" d="M1212.566 936.722c.423 7.116 2.966 10.17 6.545 11.344m-4.11 25.195c3.57 8.688 9.2 17.582 0 25m-5.007 9.56c3.57 8.688 9.2 17.582 0 25m.513 12.46c3.57 8.688 9.2 17.582 0 25m34.494-92.02c2.78 6.4 1.183 10.59 0 15m7.44-50.406c2.78 6.4 1.183 10.59 0 15m-10.263 54.53c2.78 6.4 1.183 10.59 0 15m-1.54 20.92c2.78 6.4 1.183 10.59 0 15m-13.58-119.035c3.57 8.688 9.2 17.582 0 25M1240 516.594v-5.344m0 139.916V516.594m0 154.252v-19.68m0 120.354V670.846m0 186.822v-25.03m10 48.717v-75.46m-10 74.98v-23.205m10-65.662V153.262m-10 357.988V143.262m30 737.86v-707.86m-10 708.398V163.262m-29.97 160.453V133.29m0 330V393.89m0 222.81v-57.742m0 175.44V616.7m0 130.52v-12.82M1220 219.25v-33.04M725 325c6.583 1.08 35-45 60-45s35 10 40 20m-79.482 32.838c10.7 8.48 21.007 16.99 34.743 16.85 18.416-.187 36.826-7.645 45.652-18.066m65.525-14.848c10 0 30-30 45-30s30 10 35 15m0 30c-15.33 12.126-33.906 12.95-55 5m-101.854-34.826a28.44 28.44 0 0 1 .828 6.858c0 12.426-7.835 22.5-17.5 22.5s-17.5-10.074-17.5-22.5c0-4.06.836-7.866 2.298-11.154m172.028 4.437c1.1 2.933 1.7 6.218 1.7 9.685 0 12.426-7.835 22.5-17.5 22.5s-17.5-10.074-17.5-22.5c0-3.153.504-6.154 1.415-8.878"/><use xlink:href="#C" height="90" width="90" transform="matrix(.984808 -.168786 .173648 .957233 442.869483 576.51988)"/><use xlink:href="#C" height="90" width="90" transform="matrix(.996195 -.084715 .087156 .968301 479.24923 711.238636)"/><use xlink:href="#C" height="90" width="90" transform="matrix(.939693 .332444 -.34202 .913381 812.104739 583.937884)"/><use xlink:href="#C" height="90" width="90" transform="matrix(.939693 .332444 -.34202 .913381 768.104739 692.937884)"/></symbol><rect width="239" height="335" x="-119.5" y="-167.5" rx="12" fill="#fff" stroke="#000"/><use width="164.8" height="260.8" x="-82.4" y="-130.4" xlink:href="#D"/><use transform="rotate(180)" width="164.8" height="260.8" x="-82.4" y="-130.4" xlink:href="#D"/><use width="164.8" height="260.8" x="-82.4" y="-130.4" xlink:href="#E"/><use transform="rotate(180)" width="164.8" height="260.8" x="-82.4" y="-130.4" xlink:href="#E"/><use width="164.8" height="260.8" x="-82.4" y="-130.4" xlink:href="#F"/><use transform="rotate(180)" width="164.8" height="260.8" x="-82.4" y="-130.4" xlink:href="#F"/><use width="164.8" height="260.8" x="-82.4" y="-130.4" xlink:href="#G"/><use transform="rotate(180)" width="164.8" height="260.8" x="-82.4" y="-130.4" xlink:href="#G"/><use width="164.8" height="260.8" x="-82.4" y="-130.4" xlink:href="#H"/><use transform="rotate(180)" width="164.8" height="260.8" x="-82.4" y="-130.4" xlink:href="#H"/><use width="164.8" height="260.8" x="-82.4" y="-130.4" xlink:href="#I"/><use transform="rotate(180)" width="164.8" height="260.8" x="-82.4" y="-130.4" xlink:href="#I"/><use xlink:href="#B" height="32" width="32" x="-114.4" y="-156"/><use xlink:href="#C" height="26.769" width="26.769" x="-111.784" y="-119"/><use xlink:href="#C" height="55.68" width="55.68" x="-91.768" y="-132.16"/><g transform="rotate(180)"><use xlink:href="#B" height="32" width="32" x="-114.4" y="-156"/><use xlink:href="#C" height="26.769" width="26.769" x="-111.784" y="-119"/><use xlink:href="#C" height="55.68" width="55.68" x="-91.768" y="-132.16"/></g><use xlink:href="#A" stroke="#44f" fill="none"/></svg>