<svg xmlns="http://www.w3.org/2000/svg" xmlns:xlink="http://www.w3.org/1999/xlink" width="240" height="336" viewBox="-120 -168 240 336" preserveAspectRatio="none"><defs><path id="A" d="M-82.4-130.4H82.4v260.8H-82.4z"/></defs><symbol id="B" viewBox="-500 -500 1000 1000" preserveAspectRatio="xMinYMid"><path d="M-260 100c300 0 220 360 520 360M-175 0v-285a175 175 0 0 1 350 0v570a175 175 0 0 1-350 0z" stroke="#000" stroke-width="80" stroke-linecap="square" stroke-miterlimit="1.5" fill="none"/></symbol><symbol id="C" viewBox="-600 -600 1200 1200" preserveAspectRatio="xMinYMid"><path d="M0-500c100 250 355 400 355 685a150 150 0 0 1-300 0 10 10 0 0 0-20 0c0 200 50 215 95 315h-260c45-100 95-115 95-315a10 10 0 0 0-20 0 150 150 0 0 1-300 0c0-285 255-435 355-685z"/></symbol><symbol id="D" preserveAspectRatio="none" viewBox="0 0 1300 2000"><path fill="#fc4" d="M635.396 0l216.47 312.338c43.24-13.22 86.964-22 123.133-27.338-50.098-96.776-75.106-190.846-100.89-285zm-339.87 27.285c-49.25 153.695-152.77 308.255-86.273 455.8l-17.434 13.45c1.765 151.1 30.085 286.572 74.54 398.61 18.126 21.287 38.562 42.116 61.48 64.115l11.338 10.62L901.48 970l-.414-.52-.36-.412c15.277 17.283 32.65 35.126 52.316 53.543C1030.143 1094.837 1080 1150 1130 1250c52.982-70.642 98.186-110.097 170-152.787v-37.602c-68.62 39.334-116.942 76.655-164.555 131.967-44.95-77.848-93.918-130.607-160.21-192.69-76.06-71.23-114.274-131.59-129.37-180.426s-8.908-86.603 7.95-120.97c28.317-57.727 91.514-102.355 139.07-133.863l-26.78-21.5c-69.568 45.97-172.88 123.534-159.996 244.348L699.86 787.5l-131.8 152.393-138.578-.03C578.06 763.3 745.83 594.028 899.188 455.1l-9.568-11c-28.867-3.02-55.644-10.376-80.518-21.428a32.41 32.41 0 0 1-7.943 11.234c-136.042 124.48-275.688 231.25-381.37 395.516l-27.332-17.584c109.236-169.792 252.13-278.72 386.762-401.9l17.514 6.863c-17.744-8.987-34.487-19.892-50.29-32.484-124.713 29.032-208.275 36.48-267.268 31.982 0 0-19.316 14.605-29.316 14.605-15 0-25.58-5.645-30.58-5.645s-10 5-25 5-30-25-40-50l-4.232-5.793-39.22 30.256 10.5-.545c7.172 138.453-1.258 281.236 43.03 408.135l-27.418 17.666a32.67 32.67 0 0 1-3.268-6.957C288.23 692.79 295.294 552.704 289.598 421.1l-69.703 53.773L240.1 458.28c-53.015-160.42 25.44-275.424 59.996-399.318zM85 80C30 130-15 225 50 225c9.343 0 15.216-5.7 19.6-15.6l-.055 54.807C63.117 255.8 55.22 250 45 250c-35 0-40 70-5 70 24.463 0 22.958-43.082 10.813-44.932 53.482 5.086-15.81 250.164-15.303 296.22.268 24.388 6.628 48.737 31.463 56.21C48.177 632.494 35 645.17 35 660c0 14.308 12.266 26.61 30.385 32.256C41.675 699.576 35 720.74 35 740c0 36.244 13.136 96.132 20.518 126.33 27.087-19.784 50.566-40.9 73.322-66.11C132.148 778.915 135 756.9 135 740c0-19.4-6.772-40.73-30.848-48.04 13.875-5.208 25.13-15.37 30.848-31.96 0-14.833-13.182-27.51-30.787-32.898 24.057-8.658 30.018-32.217 30.277-55.812.506-46.057-68.784-291.135-15.303-296.22C107.042 276.918 105.537 320 130 320c35 0 30-70-5-70-10.834 0-19.06 6.522-25.074 15.02l.326-55.742C104.5 219 110.42 225 120 225c65 0 20-95-35-145zm641.48 287.838c-86.625 19.835-151.788 28.17-200.805 29.242-14.225 6.274-30.072 11.922-45.78 18.96 58.993 4.5 142.554-2.95 267.197-32.037-7.753-5.207-14.39-10.77-20.613-16.164zM356 456.13c29.627 11.745 64.914 21.56 110.03 25.15 51.303 4.084 115.556.486 200.564-14.404C568.012 554 468.16 644.256 384.25 765.713 359.238 670.907 359.54 564.676 356 456.13zm826.5 17.62c-24.04 0-48.056 17.347-29.86 52.023A45 42.5 0 0 1 1182.5 515a45 42.5 0 0 1 29.865 10.764c18.187-34.67-5.827-52.014-29.865-52.014zm-54.69 47.48c-45.248.775-37.642 97.738 22.793 66.217A45 42.5 0 0 1 1137.5 557.5a45 42.5 0 0 1 13.111-29.943c-8.69-4.533-16.298-6.438-22.803-6.326zm109.383 0c-6.503-.11-14.108 1.792-22.793 6.322A45 42.5 0 0 1 1227.5 557.5a45 42.5 0 0 1-13.109 29.943c60.443 31.534 68.05-65.438 22.8-66.213zm-24.83 67.994A45 42.5 0 0 1 1182.5 600a45 42.5 0 0 1-29.865-10.764c-11.987 22.852-5.63 38.17 6.973 45.96-23.682 34.464-48.94 66.026-74.95 96.207-5.493-55.707-26.207-85.944-79.658-61.402 37.225 16.128 38.57 70.317 75.95 65.697l-17.697 20.102 15.207 1.887 21.61-24.854c5.193 39.08 35.07-7.575 67.213-5.5-16.48-41.743-32.05-10.505-66.48 4.637 24.57-28.866 48.407-59.083 70.803-91.955 26.568 6.128 61.74-10.798 40.754-50.79zM1255 655c-32.963 38.744-63.867 77.98-125 110 16.82 30.213 26.654 60.208 30 90 47.23 18.324 82.887 51.837 115 90 2.342-37.044-4.297-71.387-30-100 23.35-5 40.003-20.02 50-45-14.528-24.402-35.976-32.7-60-35 44.875-32.167 30.266-71.34 20-110zM811.885 817.785c10.865 41.665 35.342 88.007 78.586 139.424l-14.22-17.254-286.463-.06 64.605-.457 75.19-86.94 93.883-.34c-4.903-11.907-8.743-23.39-11.582-34.375zM377.5 842.5c4.423 0 9.318 2.003 14.867 9.24S402.5 871.022 402.5 885s-4.584 26.022-10.133 33.26-10.444 9.24-14.867 9.24-9.318-2.003-14.867-9.24S352.5 898.978 352.5 885s4.584-26.022 10.133-33.26 10.444-9.24 14.867-9.24z"/></symbol><symbol id="E" preserveAspectRatio="none" viewBox="0 0 1300 2000"><path fill="red" d="M557.518 0l248.45 330.457 45.047-18.46L635.367 0zm78.02 0l63.766 90.75C710 65 725 65 725 65c-8.493-38.22 3.315-47.896 8.2-65zM820 265l31.867 47.338c25.64-7.84 51.452-14.113 75.787-19.072C907.758 290.72 885.52 284.657 865 270c-10 5-30 10-45-5zm99.127 216.287c-154.982 139.73-323.574 305.79-448.77 458.725L525 940l160-185h120.418l-.055-.412c6.374-102.762 97.5-170.658 160.412-212.23zm-727.42 15.563l-60.258 46.652c1.93 12.046 3.108 21.693 3.04 27.787-.26 23.595-6.22 47.154-30.277 55.813C121.818 632.49 135 645.167 135 660c-5.718 16.588-16.972 26.75-30.848 31.96C128.23 699.27 135 720.6 135 740c0 16.9-2.852 38.915-6.16 60.22l-5.873 6.395c15.6-16.646 30.96-35.183 47.033-56.613 30.25 60.502 60.45 104.592 96.857 145.715-44.955-112.6-73.273-248.08-75.15-398.865zM44.53 610.36L0 644.615v258.168c30.798-18.317 56.707-36.047 80.428-55.885-8 6.672-16.27 13.12-24.9 19.432C48.136 836.132 35 776.244 35 740c0-19.26 6.675-40.424 30.385-47.744C47.266 686.61 35 674.308 35 660c0-14.83 13.177-27.506 31.973-32.502-10.444-3.142-17.61-9.277-22.44-17.137zm1190.098 68.797l-1.12 1.047c-20.054 23.043-41.87 45.665-71.744 65.723 27.117 39.37 36.653 80.374 27.744 123.13 25.44 14.765 47.233 33.87 67.875 55.842-10.1-28.954-26.957-68.052-64.62-89.363 37.1-5.814 52.6-16.02 67.236-35.535-28.578-21.248-50.476-15.945-77.303-15.67 39.15-21.896 49.937-64.783 51.932-105.172zM110.746 819.238l-2.373 2.346 2.373-2.346zm-5.152 5.05l-2.307 2.223 2.307-2.223zm-5.262 5.006l-6.273 5.78 6.273-5.78zm-6.54 6.02l-4.43 3.94 4.43-3.94zM377.5 862.5a11 22.5 0 0 0-11 22.5 11 22.5 0 0 0 11 22.5 11 22.5 0 0 0 11-22.5 11 22.5 0 0 0-11-22.5zm225.176 127.465a10 10 0 0 0 0 20 10 10 0 0 0 0-20zM420 990a10 10 0 1 0 0 20 10 10 0 1 0 0-20zm91.133.4a10 10 0 1 0 0 20 10 10 0 1 0 0-20z"/></symbol><symbol id="F" preserveAspectRatio="none" viewBox="0 0 1300 2000"><path fill="#44f" d="M472.5 150a12.5 20 0 0 0-12.5 20 12.5 20 0 0 0 12.5 20 12.5 20 0 0 0 12.5-20 12.5 20 0 0 0-12.5-20zm-140 5a12.5 20 0 0 0-12.5 20 12.5 20 0 0 0 12.5 20 12.5 20 0 0 0 12.5-20 12.5 20 0 0 0-12.5-20zM356 456.13c3.55 108.548 3.248 214.78 28.26 309.584C468.16 644.256 568.012 554 666.584 466.875c-85.008 14.9-149.262 18.49-200.564 14.404-45.115-3.592-80.402-13.405-110.03-25.15zm42.926 22.922c22.576.103 52.528 2.344 83.498 6.246 65.746 8.284 118.153 21.66 117.055 29.873s-56.31 5.08-122.053-3.205-117.118-18.58-116.027-26.793c.534-4.02 14.072-6.23 37.527-6.12zM1117.5 492.5c2.4 8.404 4.227 18.25 5.475 28.844v.36c7.388-1.364 16.466.084 27.232 5.623l-21.268-21.268a1.5 1.5 0 1 1 2.121-2.121l21.268 21.268c-5.53-10.748-6.98-19.813-5.63-27.193-10.73-1.25-20.702-3.086-29.2-5.514zm130 0c-8.425 2.407-18.3 4.234-28.924 5.482h-.28c1.36 7.386-.087 16.46-5.623 27.223l21.266-21.266a1.5 1.5 0 1 1 2.121 2.121l-21.268 21.268c10.757-5.534 19.827-6.984 27.21-5.627v-.172c1.25-10.665 3.08-20.576 5.496-29.03zm-853.6 15.258c20.384.103 47.43 2.344 75.393 6.246 59.364 8.284 106.684 21.66 105.69 29.873s-49.917 8.157-109.277-.127-106.684-21.66-105.69-29.873c.486-4.02 12.71-6.227 33.885-6.12zm7.695 34.68c15.094-.075 32.615.814 50.48 2.563 51.5 5.04 94.008 14.752 93.676 23.004s-42.347 10.855-93.85 5.814-92.983-15.817-92.65-24.068c.203-5.087 15.52-7.18 42.346-7.312zM992.4 563.53c-26.288 17.83-58.004 39.716-85.844 65.822L1063.252 755.8l17.697-20.102c-37.378 4.62-38.724-49.57-75.95-65.697 53.45-24.542 74.165 5.695 79.658 61.402 18.288-21.222 36.202-43.132 53.46-66.25-50.496-31.9-99.368-65.632-145.71-101.62zm92.248 167.87l-3.71 4.295c1.306-.16 2.653-.388 4.05-.697l-.342-3.598zm-21.406 24.396l1.324 1.023C1092.824 758.22 1130 765 1130 765c33.235-17.408 57.528-36.95 78.082-57.385l-59.21-35.72c-15.553 20.888-31.646 40.782-48.066 60.072 34.43-15.142 49.998-46.38 66.48-4.637-32.143-2.075-62.02 44.58-67.213 5.5l-21.61 24.854zm-663.367-180.81c12.14-.075 26.23.814 40.598 2.563 41.42 5.04 74.783 15.817 74.516 24.068s-34.06 10.855-75.48 5.814-74.783-15.817-74.516-24.068c.164-5.087 13.308-8.243 34.883-8.377zm814.908 12.684l21.268 21.268a1.5 1.5 0 1 1-2.121 2.121l-21.266-21.266c5.537 10.764 6.984 19.84 5.62 27.227h.322c10.61 1.248 20.47 3.074 28.883 5.48-2.428-8.497-4.263-18.47-5.512-29.2-7.38 1.352-16.447-.1-27.195-5.63zm-64.588.002c-10.75 5.53-19.816 6.98-27.197 5.627v.072c-1.25 10.702-3.085 20.648-5.508 29.127 8.497-2.428 18.47-4.265 29.2-5.514-1.352-7.38.1-16.446 5.63-27.193l-21.268 21.268a1.5 1.5 0 1 1-2.121-2.121zM399.95 608.22c7.756-.014 16.34.596 25.05 1.78 30.5 4.147 55.198 16.746 55.244 25s-24.648 11.585-55.16 7.438-55.282-14.2-55.328-22.453c-.032-5.623 11.687-11.73 30.195-11.764zm2.94 36.283A138.68 138.68 0 0 1 415 645c25.086 2.107 44.778 7.028 45.422 14.98s-19.17 12.686-44.256 10.578-45.944-10.26-46.588-18.21c-.523-6.467 13.793-7.764 33.314-7.842zm-6.37 30.78c1.538.001 3.102.06 4.674.18 15.244 1.152 28.128 7.433 28.78 14.027s-11.178 11.008-26.422 9.855-28.128-7.433-28.78-14.027c-.573-5.812 8.608-10.048 21.748-10.035zm-2.72 30.47c.975.002 1.966.05 2.963.145 9.66.914 17.828 5.9 18.242 11.133s-7.086 8.737-16.748 7.822-17.828-5.9-18.242-11.133c-.365-4.614 5.455-7.977 13.785-7.967zm906.2.078l-34.277 2.855c.225 20.003-6.783 39.153-30.72 56.31 24.024 2.3 45.472 10.598 60 35-9.997 24.98-26.65 40-50 45 19.682 21.9 28.177 47.183 30.03 74.453l.01.008L1300 930.555zm-167.266 64.205l.705 1.34-.705-1.34zm3.04 5.883l.254.498-.254-.498zm2.676 5.484l.637 1.357-.637-1.357zm2.455 5.324l.54 1.2-.54-1.2zm2.596 5.984l.62 1.506-.62-1.506zm2.07 5.117l.594 1.508-.594-1.508zm2.342 6.188l.564 1.592-.564-1.592zm1.732 4.965l.61 1.814-.61-1.814zm2.027 6.266l.537 1.805-.537-1.805zm1.47 5l.533 1.914-.533-1.914zM377.5 842.5c-4.423 0-9.318 2.003-14.867 9.24S352.5 871.022 352.5 885s4.584 26.022 10.133 33.26 10.444 9.24 14.867 9.24 9.318-2.003 14.867-9.24S402.5 898.978 402.5 885s-4.584-26.022-10.133-33.26-10.444-9.24-14.867-9.24zm-.273 4.795c2.956.088 5.95 5.08 5.95 10.705 10.93-.11 14.677 3.31 5.676 13 13.697 3.744 10.645 8.7 2.838 14 7.808 5.3 10.86 10.256-2.838 14 9.002 9.69 5.255 13.11-5.676 13 0 10-9.46 18-11.352 0-10.93.11-14.677-3.31-5.676-13-13.697-3.744-10.645-8.7-2.838-14-7.808-5.3-10.86-10.256 2.838-14-9.002-9.69-5.255-13.11 5.676-13 .828-7.875 3.103-10.773 5.402-10.705zm352.357 5.205l-75.19 86.94 43.004-.04L744.445 885H840l-15-32.5zm29.723 65l-19.23 22.236 136.174.22L860 917.5zm-104.135 52.42l-315.76.18c2.44 2.48 4.988 4.874 7.566 7.29 15.37 14.394 29.32 28.433 41.9 42.127 1.07-4.444 6.05-11.13 16.11-19.516-30-25-15-35 15-15 30-20 45-10 15 15 30 25 15 35-15 15-11.07 7.38-20.085 10.664-25.562 10.63l3.906 4.38 256.418-.133zm-170.012 4.445c5.45-.146 14.6 3.135 25.84 10.635 30-20 45-10 15 15 30 25 15 35-15 15-30 20-45 10-15-15-18.75-15.625-19.922-25.39-10.84-25.635zm91 0c5.45-.146 14.6 3.135 25.84 10.635 30-20 45-10 15 15 30 25 15 35-15 15-30 20-45 10-15-15-18.75-15.625-19.922-25.39-10.84-25.635z"/></symbol><symbol id="G" preserveAspectRatio="none" viewBox="0 0 1300 2000"><path d="M499.674 0c99.157 212.426 198.842 423.784 391.404 444.248L557.508 0zM299.898 59.855C265.54 182.854 187.085 297.86 240.1 458.28l109.775-85.334C322.205 333.64 300 282.3 300 255c0-20 5.003-150 5-155-.001-2.004-2.41-19.274-5.102-40.145zM899.9 454.842C746.55 593.77 578.784 763.04 429.508 939.47l40.848.543c125.198-152.936 293.79-318.994 448.6-458.633zM965.7 542.3c-28.872 19.187-64.125 44.128-93.98 75.523l25.55 20.043c30.23-29.844 65.96-54.6 95.6-73.98-9.28-6.88-18.47-14.107-27.172-21.588zM685 755L525.102 939.883 570 940l129.86-152.5h106.79L805 755z"/></symbol><symbol id="H" preserveAspectRatio="none" viewBox="0 0 1300 2000"><path stroke="#44f" stroke-linecap="round" stroke-linejoin="round" stroke-width="6" fill="none" d="M435 885a57.5 75 0 0 1-57.5 75 57.5 75 0 0 1-57.5-75 57.5 75 0 0 1 57.5-75 57.5 75 0 0 1 57.5 75m-17.923 55h458.95m-567.756 0h28.757m2.463 30h561.987M131.845 543.196l219.2-168.607M0 644.615l44.832-34.486m1093.334 55.053c-60.174-38-118.04-78.63-172.87-122.725m243.284 165.45l-59.89-36.12M557.518 0l407.928 542.578m334.284 517.187c-68.477 39.278-116.733 76.573-164.284 131.813-44.95-77.848-93.918-130.607-160.21-192.69-76.06-71.23-114.274-131.59-129.37-180.426s-8.908-86.603 7.95-120.97c28.317-57.727 91.513-102.355 139.07-133.864M499.685.037c99.152 212.415 198.83 423.74 390.656 443.814m-525.977 368.46c-44.288-126.9-35.856-269.682-43.028-408.135 76.717 39.852 163.357 77.44 457.882 5.76-134.632 123.19-277.526 232.116-386.762 401.91m-36.48-355.722c29.63 11.748 64.92 21.562 110.043 25.154 51.306 4.084 115.563.486 200.578-14.406C568.02 554 468.206 644.355 384.352 765.734c-24.965-94.927-24.797-201.063-28.375-309.61m511.366-15.72c-147.713 133.67-306.904 290.168-431.25 439.03M223.892 472.87c-.823 183.17 37.986 343.482 98.116 466.27m-130.51-442.427c2.086 150.922 30.405 286.392 75.553 398.74m162.457 44.016C578.783 763.04 746.552 593.77 899.91 454.84m-429.556 485.17c125.198-152.936 293.8-318.994 448.6-458.633M525 940l160-185h120.42M567.926 940.05L699.86 787.5h106.79M611.465 939.4L714.723 820h97.264M654.392 939.44l75.192-86.94h93.897m-126.085 86.9l47.05-54.4h95.046m-99.416 54.736l19.23-22.236H860m46.392-288.077l157.394 127.254M871.924 617.813l171.32 139.198M459.62 481.348C414.87 573.513 406.452 669.627 385 765M303.656-.002c-44.562 162.79-165.042 327.08-94.233 483.475M240.1 458.28c-53.015-160.42 25.44-275.425 59.996-399.32M805.81 330.134c14.888-6.445 30.422-12.16 46.15-17.214M.097 902.74C71.866 860.067 117.037 820.617 170 750c50 100 99.857 155.164 176.98 227.39 281.56 263.684 94.15 409.61-13.084 480.47M377.5 842.5c4.423 0 9.318 2.003 14.867 9.24S402.5 871.022 402.5 885s-4.584 26.022-10.133 33.26-10.444 9.24-14.867 9.24-9.318-2.003-14.867-9.24S352.5 898.978 352.5 885s4.584-26.022 10.133-33.26 10.444-9.24 14.867-9.24M1130 765c16.82 30.213 26.654 60.208 30 90 47.23 18.324 82.887 51.837 115 90 2.342-37.044-4.297-71.387-30-100 23.35-5 40.003-20.02 50-45-14.528-24.402-35.976-32.7-60-35 44.875-32.167 30.266-71.34 20-110-32.963 38.744-63.867 77.98-125 110m170-59.167l-34.324 2.86M1300 930.555l-26.17-11.632m-81.102-82.498c37.7 20.42 54.567 59.52 65.28 89m-75.038-140.513c26.555-.87 48.454-6.172 77.03 15.077-14.637 19.516-30.136 29.72-67.2 34.643m41.83-155.485c-1.995 40.39-12.783 83.276-52.204 104.577m-20.082-38.31c26.538 39.875 36.074 80.877 26.98 123.434M1130 765s-82.168-15-95-5-32.97 31.307-40 40c-31.97 39.527 3.645 49.73 20 30m35-30c-59.312 25.45-64.226 120.615 20 25m-28.807 28.53c-14.944 32.294.758 60.3 58.5-5.248m-37.508 34.3c-21.19 38.702 41.57 35.553 97.815-27.59m-96.748-99.2c33.572-37.624 66.287-76.827 96.446-120.735m-81.24 122.622c32.493-36.683 64.095-75.006 93.255-117.826M1085 735c-4.952-58.002-25.404-90.068-80-65 38.526 16.69 38.618 74.158 80 65m-80-65c37.807-6.254 56.14 40.797 80 65m15-2.668c35-15 50.673-47.07 67.282-5-32.282-2.084-62.282 45-67.282 5m.066.514c26.326 8.267 52.462-23.905 67.216-5.514M1155 585c-75 45-75-100 0-55-45-75 100-75 55 0 75-45 75 100 0 55 45 75-100 75-55 0m87.5-27.5c-60 0-60 0-60-60 0 60 0 60-60 60 60 0 60 0 60 60 0-60 0-60 60-60m-119.526-36.157c-1.248-10.594-3.073-20.44-5.474-28.843 8.577 2.45 18.654 4.3 29.498 5.55m-.243 118.928c-10.75 1.25-20.742 3.1-29.255 5.522 2.423-8.48 4.258-18.424 5.507-29.126m118.94-.388c1.25 10.85 3.1 20.933 5.552 29.514-8.414-2.404-18.274-4.23-28.883-5.478m-.04-119.038c10.625-1.248 20.5-3.076 28.924-5.483-2.415 8.453-4.247 18.364-5.495 29.03M357.96 386.26l-14.283-7.126m404.393 4.804c-125.618 29.15-209.18 36.6-268.277 33.14M356 456.13c29.627 11.745 64.914 21.56 110.03 25.15 51.303 4.084 115.556.486 200.564-14.404C568.012 554 468.16 644.256 384.25 765.713 359.238 670.907 359.54 564.676 356 456.13M85 135c10.787 31.13 5 90 35 90 65 0 20-95-35-145-55 50-100 145-35 145 30 0 24.213-58.87 35-90M40 285s0-10 10-10c12.88 0 15 45-10 45-35 0-30-70 5-70 30 0 40 50 40 50s10-50 40-50c35 0 40 70 5 70-25 0-22.88-45-10-45 10 0 10 10 10 10m-10-10c-55 2.668 15 250 14.49 296.29C134.168 600.673 125 630 85 630s-49.168-29.327-49.49-58.71C35 525 105 277.668 50 275m20-10.016v-56.65m30 56.856v-56.445m3.206 418.65C121.818 632.488 135 645.167 135 660c0 19.33-22.386 35-50 35s-50-15.67-50-35c0-14.83 13.177-27.506 31.782-32.604m-.85 65.08C41.675 699.577 35 720.74 35 740c0 36.244 13.136 96.133 20.364 126.343m73.005-65.666C132.147 778.914 135 756.9 135 740c0-19.4-6.772-40.73-31.462-47.677M256.892 885h6.386M0 885h28.737m216.834-15h11.9M0 870h51.088m182.582-15h18.578M0 855h52.54m170.39-15h24.093M0 840h49.346m163.424-15h29.898M0 825h46.444m156.748-15h34.543M0 810h43.54m150.942-15h38.897m-103.918 0h5.225M0 795h40.638m145.427-15h42.96m-97.242 0h14.514M0 780h38.316m139.912-15h46.734m-91.146 0h24.673M10 765h26.284m98.403-15h86.502M10 750h24.543m100.435-15h83.018M15 735h20.123m97.532-15H205m-190 0h22.845M155 705h45m125-195c-11.823-17.57-24.455-31.947-45.42-47.163-21.678-15.732-32.015 9.636-23.863 22.705M325 540c-13.684-15.717-40.727-39.318-62.257-51.807-20.397-11.832-26.523 15.1-9.535 27.995m73.44 56.35c-13.684-15.717-40.423-39.856-62.257-51.807-33.042-18.086-43.84 14.16-2.743 31.807m68.033 79.606c-13.684-15.717-40.423-39.856-62.257-51.807-30.812-16.866-37.656 16.866-5.116 35.807m65.76-18.456c-13.86-13.6-33.316-27.705-50.773-39.513-22.074-14.93-34.105 4.474-22.836 17.226m77.737 83.987c-13.77-13.233-32.62-26.885-49.583-38.358-24.045-16.263-36.173 12.272-19.252 25.316m72.12 40.26c-16.237-12.964-39.967-26.862-58.055-36.27-31.27-16.26-36.887 20.48-3.298 37.12m65.315 22.485c-45.63-38.6-98.24-25.3-54.442 5.056m60.578 28.858c-49.783-42.234-140.14-42.27-51.454 5.5m65.03 48.07c-62.846-40.07-141.74-29.44-43.897 10.66m40.895 7.628c-43.416-18.163-92.79.2-43.97 13.658m23.615 4.177c-36.462-11.384-55.926 9.427-11.424 20.21m-.735-386.375c-7.192-7.586-15.5-14.892-25.86-22.4-17.52-12.715-26.72.327-25.123 12.49m49.503-29.247l-4.06-3.014c-19.412-14.087-28.607 3.442-24.227 16.36m57.628 327.772c-41.83-32.623-87.13-22.987-57.826 2.6M396.5 805.034c97.552 1.04 65.936 25.615 21.194 25.634m-7.5-44.952c31.88-11.92 60.58-9.172 74.958-1.63 16.817 8.823 14.04 24.205-26.164 30.35m-28.448-56.704c58.577-11 103.695 13.95 55.485 26.19m-34.41-54.317c67.42-18.097 125.455 10.742 49.426 33.663m-31.897-55.65c69.253-23.47 135.427 4.475 67.152 28.145m-39.27-60.03c50.502-8.008 88.675 9.666 55.55 28.022m-38.523-47.188c77.254-19.945 157.955 17.262 48.763 27.753m-11.9-66c57.176-5.002 100.01 18.027 40.226 35.034m-22.25-52.405c75.248-19.798 151.842 14.61 51.224 34.336m-23.275-61.12c55.645-7.643 102.468 11.747 64.246 28.765m-40.35-50.813c71.57-16.516 140.665 14.62 53.46 34.064m-13.463-70.602c57.115-4.525 99 18.874 36.455 35.786m-12.802-56.768c73.88-16.895 144.864 16.9 43.68 36.08m-5.273-69.844c57.765-5.504 101.75 17.66 42.025 34.797m-16.4-57.86c68.018-11.92 127.59 17.438 43.802 36.027m-146.68-199.93C640.452 285.48 635.593 297.26 610 295c-14.372 81.302-73.773 98.388-130 120 0 0-19.42 15.646-29.42 15.646-15 0-25.58-5.646-30.58-5.646s-10 5-25 5-30-25-40-50c-30-40-55-96.045-55-125 0-20 5.003-150 5-155-.002-3.09-5.728-42.446-10.104-72.074M622.933 240.32c-6.317 10.23-13.74 24.42-7.933 24.68 2.734.12 6.97-10.378 10.244-19.906m278.917 249.72L954.724 549M890 508.204l48.735 52.216m-63.377-39.332l48.02 51.45m-61.73-37.568l46.154 49.45m-60.775-36.544l45.963 49.246m-60.147-35.872l35.288 37.81m-49.458-24.42l24.026 25.742m-38.824-13.026l17.842 19.116m-31.643-5.332l8.928 9.566M482.76 925h55.42m-42.282-15h55.008M508.2 895h55.83m-42.693-15h55.42m-42.282-15h55.42m-36.946-20H585m205-25v32.5M765 820v32.5M740 820v32.5m-36.732-19.232l22.578 22.578m-41.757-1.757l23.4 23.4m-41.552-1.552l22.783 22.783m-40.525-.525l22.578 22.578m-41.552-1.552l20.73 20.73m141.345-629.195c15.63-6.297 31.834-11.835 48.115-16.7m-63.254-3.714c15.845-6.355 32.273-11.933 48.765-16.813m-64.1-3.053c16.18-6.504 32.973-12.196 49.824-17.16m-64.098-1.096c16.426-6.796 33.542-12.736 50.76-17.9m-58.186-5.144c11.718-4.608 23.734-8.797 35.842-12.6m-48.416-8.347c8.464-3.276 17.075-6.335 25.756-9.19m-40.617-10.697l16.37-5.825M900.41 94.432c-51.863 19.822-103.68-24.662-138.977-.8C715 125 755 185 789.335 165.19 821.135 146.84 790 105 775 115c-9.303 6.202-14.888 18.31-10 25 6.18 8.46 10.49 9.628 20 5m116.467-47.867c-39.705 38.323-22.12 103.88-58.726 125.388-48.317 28.39-85.238-33.553-52.57-56.007 30.256-20.796 54.606 25.324 39.12 34.554-9.604 5.724-22.937 5.55-26.87-1.743-4.972-9.22-4.172-13.613 4.102-20.203M765 180l90-60m-10 40c-10-10-45.467-11.357-55 5 22.008-11.038 34.763-24.757 25-45m-20 110c25 30 50 20 75 10 24.055 32.765 64.66 38.666 105 45M725 130c-10-20 15-45 30-55-5.85-23.05 2.707-49 11.594-74.995M700 90c10-25 25-25 25-25-8.483-38.172 3.29-47.867 8.187-64.93M427.964.018c17.1 51.73 55.35 78.382 111.355 83.976M446.67.044c15.96 38.8 45.366 61.656 86.47 70.64M461.245.016c13.98 27.43 35.684 45.703 64.338 55.732M476.996.108c10.384 16.345 24.002 28.856 40.64 37.786M371.264.044c-14.92 40.152-30.346 80.03-66.568 100.24M355.61.044c-12.266 31.76-26.47 61.802-52.938 80.255M339.57.02c-9.837 23.176-21.68 44.5-39.856 59.863m25.442-59.8c-7.692 14.638-16.88 27.88-28.89 38.46M305 120c41.102-25.066 61.56-14.287 80 0 20 55-15 110-14.42 151.676.216 15.477 11.727 13.45 19.42 13.324 5-.08 15 10 15 10M305 125c29.586-20.976 55.476-17.507 80-5m45 125c20 0 20 30 5 30-40 5-40-10-5 0m-65 40v10l5-5-5-5m90 5l5-5v10l-5-5m-85 0s5 5 10 5 5.244-4 12.322-4.485C400 320 400 325 405 325s15-10 20-10 15 5 20 5h10m-65 20c3.07 28.452 45.614 8.69 45 5-5 5-44.772 31.85-45-5m40-205c51.536-36.72 85.865-16.182 120 5-35.405-25.982-85-45-120-5m110 25c-15 0-36.47-25.385-56.386-23.55C453.8 139.2 445 175 430 180c17.935-21.408 33.794-28.22 48.07-28.065C507.274 152.25 515 185 550 175m-120 5c15-10 32.81 10.043 45.174 9.945C504.082 189.717 519.494 175 530 175m-150 0c-20 0-30.874-19.165-47.032-20.3-12.34-.86-29.195 12.612-29.195 17.612 0 7.07 11.237 20.708 22.743 23.258 16.39 3.633 36.296-20.23 53.483-20.58m-75-10c22.643-42.75 64.953-9.492 65-5m450 105c15 15 35 10 45 5 20.52 14.656 42.757 20.72 62.683 23.23m-75.816 19.108C895.106 299.118 938.83 290.348 975 285 924.9 188.223 899.9 94.153 874.117-.002m-22.25 312.34C895.106 299.118 938.83 290.348 975 285 924.9 188.223 899.9 94.153 874.117-.002m-23.104 312L635.367 0m292.286 293.265C907.757 290.72 885.52 284.657 865 270c-10 5-30 10-45-5"/></symbol><symbol id="I" preserveAspectRatio="none" viewBox="0 0 1300 2000"><path stroke="#44f" stroke-linecap="round" stroke-linejoin="round" stroke-width="3" fill="none" d="M986.603 811.202l17.525 26.837m3.576 5.477l14.288 21.88M993.5 800.868c12.595 20.813 26.365 39.794 40.672 57.94m3.68 4.637l18.38 22.414m3.58 4.268l14.837 17.57m-72.35-116.42c25.655 42.892 56.33 77.957 86.527 113.77m-77.496-122.804c26.598 44.9 58.724 81.183 90.152 118.553m-83.262-125.392c27.228 45.115 59.987 81.6 91.79 119.595M92 409.1c5.346 34.4 12.365 69.897 17.98 99.543s9.608 54.847 9.523 62.492c-.145 13.187-2.604 25.095-7.352 32.22S101.334 615 85 615s-22.393-4.53-27.14-11.654m37.37-91.922l6.813 39c1.65 10.708 2.46 19.517 2.45 20.547-.126 11.422-3.037 21.37-4.834 24.068-1.554 2.333-1.96 2.67-3.316 3.332S91.78 600 85 600m14.244 41.86C113.484 645.758 120 654.053 120 660c0 3.875-2.134 8.183-8.246 12.46S95.97 680 85 680s-20.642-3.26-26.754-7.54m41.23 34.303c8.836 2.486 12.848 6.436 15.93 11.998S120 732.046 120 740c0 15.2-2.706 36.775-6.4 58.11m-10.64-137.828C99.903 662.338 92.86 665 85 665c-7.997 0-15.198-2.76-18.152-4.828m35.438 65.86c1.238 2.234 2.715 7.915 2.715 13.97 0 13.42-2.566 34.674-6.19 55.545M726.76 368.28c-86.906 19.393-152.067 27.73-201.92 29.296m190.774-40.986c-65.672 14.2-118.5 21.873-161.445 25.042m148.87-37.37c-49.768 10.383-91.885 16.912-127.756 20.523m115.505-33.013c-38.303 7.698-71.908 13.042-101.508 16.49m90.858-29.388c-30.036 5.827-57.09 10.165-81.515 13.253m71.583-26.36c-23.347 4.37-44.834 7.816-64.642 10.458m54-23.508c-18.048 3.24-34.946 5.9-50.783 8.073M390 380c11.945-13.956 27.22-12.698 45 0m5-185c10 15 30 15 45 15m-175-5c50 25 60-30 70-30m-29.98-12.945c1.143 3.178 1.786 6.766 1.786 10.564 0 13.036-7.58 23.604-16.933 23.604s-16.933-10.568-16.933-23.604c0-5.798 1.5-11.108 3.988-15.217m166.63-3.796c1.908 3.82 3.026 8.463 3.026 13.47 0 13.036-7.58 23.604-16.934 23.604s-16.933-10.568-16.933-23.604c0-4.033.725-7.83 2.004-11.15"/><use xlink:href="#C" height="90" width="90" transform="matrix(.766044 -.62479 .642788 .744595 1124.602558 929.608746)"/><use xlink:href="#C" height="90" width="90" transform="matrix(.766044 -.62479 .642788 .744595 1130.602558 1037.608746)"/><use xlink:href="#C" height="90" width="90" transform="matrix(.766044 -.62479 .642788 .744595 1032.602558 1027.608746)"/><use xlink:href="#C" height="90" width="90" transform="matrix(.766044 -.62479 .642788 .744595 958.602558 941.608746)"/><use xlink:href="#C" height="90" width="90" transform="matrix(.766044 -.62479 .642788 .744595 854.602558 845.608746)"/><use xlink:href="#C" height="90" width="90" transform="matrix(.766044 -.62479 .642788 .744595 833.602558 720.608746)"/></symbol><rect width="239" height="335" x="-119.5" y="-167.5" rx="12" fill="#fff" stroke="#000"/><use width="164.8" height="260.8" x="-82.4" y="-130.4" xlink:href="#D"/><use transform="rotate(180)" width="164.8" height="260.8" x="-82.4" y="-130.4" xlink:href="#D"/><use width="164.8" height="260.8" x="-82.4" y="-130.4" xlink:href="#E"/><use transform="rotate(180)" width="164.8" height="260.8" x="-82.4" y="-130.4" xlink:href="#E"/><use width="164.8" height="260.8" x="-82.4" y="-130.4" xlink:href="#F"/><use transform="rotate(180)" width="164.8" height="260.8" x="-82.4" y="-130.4" xlink:href="#F"/><use width="164.8" height="260.8" x="-82.4" y="-130.4" xlink:href="#G"/><use transform="rotate(180)" width="164.8" height="260.8" x="-82.4" y="-130.4" xlink:href="#G"/><use width="164.8" height="260.8" x="-82.4" y="-130.4" xlink:href="#H"/><use transform="rotate(180)" width="164.8" height="260.8" x="-82.4" y="-130.4" xlink:href="#H"/><use width="164.8" height="260.8" x="-82.4" y="-130.4" xlink:href="#I"/><use transform="rotate(180)" width="164.8" height="260.8" x="-82.4" y="-130.4" xlink:href="#I"/><use xlink:href="#B" height="32" width="32" x="-114.4" y="-156"/><use xlink:href="#C" height="26.769" width="26.769" x="-111.784" y="-119"/><use xlink:href="#C" height="55.68" width="55.68" x="36.088" y="-132.16"/><g transform="rotate(180)"><use xlink:href="#B" height="32" width="32" x="-114.4" y="-156"/><use xlink:href="#C" height="26.769" width="26.769" x="-111.784" y="-119"/><use xlink:href="#C" height="55.68" width="55.68" x="36.088" y="-132.16"/></g><use xlink:href="#A" stroke="#44f" fill="none"/></svg>