<svg xmlns="http://www.w3.org/2000/svg" xmlns:xlink="http://www.w3.org/1999/xlink" id="Layer_1" x="0" y="0" enable-background="new 0 0 300 300" version="1.1" viewBox="0 0 300 300" xml:space="preserve"><style type="text/css">.st0{fill:#231f20}.st1{fill:#ed1c24}</style><title>poker_logo</title><g id="layer1"><path id="path807" d="M167.8,108.7v6.1h115.8v-6.1" class="st0"/><path id="path3165" d="M13.8,114.8h123.1v-6H13.8V114.8z" class="st0"/><path id="path827" d="M34.3,141.1v18.7h5.4c3.5,0,4.8-2,4.8-3.5v-12.7c0-1.4-1.9-2.5-5.2-2.5L34.3,141.1z M34.3,163.6 v10.6c0.1,2,0.8,3.8,1.9,5.4H13.8c0.7-1.5,1-3.1,1-4.7v-32.5c-0.1-1.9-0.7-3.7-1.6-5.4h34.9c11.9,0,16,1.4,16,5.4v15.1 c0,4.8-4,6.1-11.5,6.1" class="st0"/><path id="path831" d="M90.2,142.7v30.9c0,1.9,1.5,2.7,5.2,2.7s5-0.7,5-2.6v-31c0-1.6-1.8-2.2-5.2-2.2 S90.2,141,90.2,142.7z M70.7,142c0-4.9,6.5-5.6,25.1-5.6s24.3,0.8,24.3,5.8v31.6c0,5-2.5,6.4-25,6.4c-21,0-24.4-1.3-24.4-6.1" class="st0"/><path id="path839" d="M188.6,179.7c0.7-1.5,1-3.1,1-4.7v-32.6c-0.2-1.9-0.7-3.7-1.6-5.4h36.7v4c-1-0.2-2.1-0.3-3.2-0.3 h-12.4V155h6.8c2.2,0,4.4-0.1,6.6-0.4v4.5c-1.2-0.1-4-0.4-6.5-0.4h-6.9v16.8c5.1,0,8.3-0.1,13.2-0.2c1.4,0,2.6-0.1,4-0.1v4.5" class="st0"/><path id="path835" d="M148.4,159.2H148v15.5c0,1.8,0.5,3.5,1.5,5h-22.1c0.7-1.5,1-3.1,1-4.7v-33.4 c0-1.7-0.7-2.9-1.5-4.6h22.2c-0.6,1.3-1,2.7-1.1,4.1v15.7h0.3c0,0,13.2-11.9,20.3-18.6c0.4-0.4,0.7-0.8,1-1.2h11.9l-18.8,15.6 l19.7,24.1c1,1.1,2.1,2.1,3.3,3h-23.2c-0.3-1.1-0.7-2.2-1.2-3.1" class="st0"/><path id="path851" d="M251.2,141.1v14.7h3.8c5,0,6.5-2,6.5-3.5v-8.7c0-1.4-1.9-2.5-5.2-2.5L251.2,141.1z M251.2,159.7 v15.4c0,1.8,0.7,3.4,1.9,4.7h-22.5c0.7-1.5,1-3.1,1-4.7v-32.6c-0.1-1.9-0.7-3.8-1.5-5.4h34.9c11.9,0,16,1.4,16,5.4v9.6 c0,3.7-4.7,4.8-12.6,5.6c7.6,0.6,12.6,1.5,12.6,4.9v12.9c0.1,1.7,0.9,3.2,2.1,4.4h-21.7v-16.6c0-2.6-2.9-3.5-6.8-3.5" class="st0"/><path id="path805" d="M13.8,193.1h269.8v-6.1H13.8V193.1z" class="st0"/><path id="path811" d="M23.5,196.4L14.7,213l8.8,16.7l8.8-16.7L23.5,196.4z" class="st1"/><path id="path815" d="M181.9,197.5c-3.9,0-7.1,3.2-7.1,7.1c0,3.9,9.6,13,13.7,22c4.1-9,13.7-18,13.7-22 c0-3.9-3.2-7.1-7.2-7.1c-2.9,0-5.4,1.7-6.5,4.4C187.4,199.2,184.8,197.5,181.9,197.5z" class="st1"/><path id="path823" d="M271,198.1c-3.5,0-6.3,2.8-6.4,6.3c0,1.4,0.4,2.7,1.3,3.9c0.3,0.5,0.6,1.2,0.3,1.5 s-1.1,0.1-1.5-0.1l-0.2-0.1h-0.1c-3.3-1.2-6.9,0.4-8.2,3.7c-1.2,3.3,0.4,6.9,3.7,8.2c3.2,1.2,6.7-0.3,8-3.4l0.2-0.1 c0,0,0.3-0.6,1.4-0.6c0.4,0,0.7,0.3,0.8,0.7c0,4.2-2,8-9.2,8.4c-0.8,0.1-1.5,0.1-2.3,0v1h24v-1c-0.8,0.1-1.5,0.1-2.3,0 c-7.2-0.4-9.3-4.2-9.2-8.4c0.2-0.4,0.4-0.7,0.9-0.7c1.1,0,1.4,0.6,1.4,0.6l0.2,0.1c1.4,3.2,5.1,4.8,8.3,3.4 c3.2-1.4,4.8-5.1,3.4-8.3c-1.3-3.2-5-4.7-8.2-3.5h-0.1l-0.2,0.1c-0.4,0.2-1.1,0.5-1.4,0.1s0-1,0.3-1.5c2.1-2.8,1.6-6.7-1.1-8.9 C273.8,198.6,272.4,198.1,271,198.1z" class="st0"/><path id="path819-5" d="M106,197.3c-4.1,7.4-13.7,15-13.7,18.2s3.2,5.9,7.1,5.9c2.3,0.1,4.5-0.9,6-2.7 c-0.4,3.7-2.7,6.8-9.2,7.1c-0.8,0.1-1.5,0.1-2.3,0v1h24.2v-1c-0.8,0.1-1.5,0.1-2.3,0c-6.5-0.4-8.8-3.5-9.2-7.1 c1.5,1.8,3.7,2.8,6,2.7c3.9,0,7.1-2.6,7.1-5.9S110.1,204.7,106,197.3z" class="st0"/></g><path d="M12,76.8h3.9v19.6h8.2v2.2H12V76.8z" class="st1"/><path d="M34.4,76.4l7.5,22.3h-4l-2-6h-6.3l-2.1,6h-2.7l7.9-22.3H34.4z M30.4,90.7h4.8l-2.4-7.1L30.4,90.7z" class="st1"/><path d="M44.2,76.8h6c0.9,0,1.9,0.1,2.7,0.4c0.7,0.3,1.4,0.7,1.9,1.2c0.5,0.5,0.9,1.2,1.2,1.9c0.3,0.8,0.4,1.6,0.4,2.4	c0,0.6-0.1,1.2-0.3,1.8c-0.2,0.5-0.4,1.1-0.8,1.5c-0.3,0.5-0.7,0.9-1.2,1.2c-0.5,0.4-1,0.7-1.5,0.9l5.7,10.5h-4.3l-5.4-9.9h-0.7v9.9	h-4L44.2,76.8z M48.2,86.9H49c0.5,0,0.9-0.1,1.3-0.3c0.4-0.2,0.8-0.5,1.1-0.8c0.3-0.4,0.6-0.8,0.7-1.2c0.2-0.5,0.3-1.1,0.2-1.7	c0-0.5-0.1-1.1-0.2-1.6c-0.1-0.4-0.3-0.9-0.5-1.2c-0.2-0.3-0.5-0.6-0.8-0.8c-0.3-0.2-0.7-0.3-1.1-0.3h-1.6L48.2,86.9z" class="st1"/><path d="M67.8,76.4l7.6,22.3h-4l-2-6H63l-2.1,6h-2.7L66,76.4H67.8z M63.8,90.7h4.8l-2.4-7.1L63.8,90.7z" class="st1"/><path d="M78.1,76.8L83.4,92l4.9-15.1h2.5L83.7,99h-1.8L74,76.8H78.1z" class="st1"/><path d="M105.1,76.8v1.9H97v7.2h6.7v1.9H97v8.7h8.1v2.2h-12V76.8H105.1z" class="st1"/><path d="M107.6,76.8h4v19.6h8.2v2.2h-12.2V76.8z" class="st1"/><path d="M22,119v0.8h-2.8v8.4h-2v-8.4h-2.7V119H22z"/><path d="M30.3,118.8l3.7,9.4h-2l-1-2.5h-3.1l-1,2.5h-1.3l3.9-9.4H30.3z M28.3,124.8h2.4l-1.2-3L28.3,124.8z"/><path d="M39.1,119h2v9.2h-2V119z"/><path d="M47,119h2v8.2h4.1v0.9H47V119z"/><path d="M58.8,119l2,5.9l2-6l2.1,6l2-5.9h1.3l-3.1,9.3h-0.9l-1.6-4.8l-1.6,4.8H60l-3.2-9.3H58.8z"/><path d="M73.2,119h2v9.2h-2V119z"/><path d="M81.1,119h1.3l4.6,5.8V119h1.2v9.3h-0.8l-5-6.5v6.3h-1.2V119z"/><path d="M94.1,119H97c0.7,0,1.4,0.1,2,0.3c0.6,0.2,1.1,0.5,1.6,0.9c0.4,0.4,0.8,0.9,1,1.4c0.3,0.6,0.4,1.3,0.4,1.9	c0,0.6-0.1,1.2-0.3,1.8c-0.2,0.6-0.5,1.1-0.9,1.5c-0.4,0.4-0.9,0.8-1.5,1c-0.6,0.2-1.3,0.4-2,0.4h-3.2V119z M96.1,127.2h1	c0.4,0,0.7-0.1,1.1-0.2c0.3-0.2,0.6-0.4,0.9-0.7c0.3-0.3,0.5-0.7,0.6-1.2c0.2-0.5,0.2-1.1,0.2-1.6c0-0.5-0.1-1-0.2-1.4	c-0.1-0.4-0.3-0.8-0.6-1.1c-0.2-0.3-0.5-0.6-0.9-0.8c-0.3-0.2-0.7-0.3-1.1-0.3h-1V127.2z"/><path d="M206,119.3h2v8.7h-2V119.3z"/><path d="M214.7,119.3h1.3l4.8,5.5v-5.5h1.3v8.8h-0.9l-5.3-6.1v6h-1.3L214.7,119.3z"/><path d="M235.3,119.3v0.8H231v2.9h3.5v0.8H231v3.4h4.3v0.9h-6.4v-8.7L235.3,119.3z"/><path d="M241.2,119.3h3.2c0.5,0,1,0.1,1.4,0.2c0.4,0.1,0.7,0.3,1,0.5c0.3,0.2,0.5,0.5,0.6,0.8c0.1,0.3,0.2,0.6,0.2,0.9	c0,0.2,0,0.5-0.1,0.7c-0.1,0.2-0.2,0.4-0.4,0.6c-0.2,0.2-0.4,0.4-0.6,0.5c-0.2,0.1-0.5,0.3-0.8,0.3l3,4.2h-2.3l-2.9-3.9h-0.4v3.9	h-2.1L241.2,119.3z M243.3,123.3h0.4c0.2,0,0.5,0,0.7-0.1c0.2-0.1,0.4-0.2,0.6-0.3c0.2-0.1,0.3-0.3,0.4-0.5c0.1-0.2,0.1-0.4,0.1-0.7	c0-0.2,0-0.4-0.1-0.6c-0.1-0.2-0.2-0.3-0.3-0.5c-0.1-0.1-0.3-0.3-0.4-0.3c-0.2-0.1-0.4-0.1-0.6-0.1h-0.8V123.3z"/><path d="M260.8,119.3v0.8h-2.9v8h-2.1v-8h-2.9v-0.8L260.8,119.3z"/><path d="M266.7,119.3h2.1v8.7h-2.1V119.3z"/><path d="M279.6,119.2l4,8.9h-2.1l-1.1-2.4h-3.3l-1.1,2.4h-1.4l4.1-8.9L279.6,119.2z M277.5,124.9h2.5l-1.3-2.8L277.5,124.9z"/><path d="M157.4,123.6c-0.8,0-1.5-0.2-2.2-0.5c-0.8-0.4-1.5-0.9-2.2-1.5c-1.6,1.3-3.7,2-5.8,2c-0.9,0-1.7-0.1-2.5-0.4	c-0.7-0.2-1.3-0.6-1.9-1.1c-0.5-0.5-0.9-1.1-1.2-1.7c-0.3-0.7-0.4-1.4-0.4-2.2c0-0.8,0.1-1.6,0.4-2.4c0.3-0.7,0.6-1.4,1.1-2	c0.5-0.6,1-1.2,1.6-1.7c0.6-0.5,1.2-1,1.9-1.5c-0.3-0.9-0.5-1.8-0.7-2.7c-0.2-0.8-0.2-1.7-0.2-2.6c0-0.8,0.1-1.6,0.4-2.4	c0.3-0.8,0.6-1.5,1.1-2.1c0.5-0.6,1.1-1.1,1.8-1.5c0.7-0.4,1.5-0.6,2.3-0.6c0.6,0,1.2,0.1,1.7,0.3c1.2,0.4,2.2,1.3,2.7,2.4	c0.3,0.7,0.5,1.5,0.4,2.3c0,0.8-0.1,1.5-0.4,2.2c-0.3,0.7-0.7,1.3-1.2,1.9c-0.5,0.6-1.1,1.1-1.7,1.6c-0.6,0.5-1.3,1-1.9,1.5	c0.4,1.1,0.8,2.1,1.3,3.2c0.5,1,1,1.9,1.6,2.8c0.4-0.6,0.8-1.1,1.2-1.7s0.7-1.2,1-1.8s0.6-1.2,0.9-1.7s0.5-1.1,0.6-1.5l2.1,1.8	c-0.6,1.3-1.3,2.6-2,3.8c-0.6,1.2-1.3,2.3-2.1,3.3c0.4,0.4,0.9,0.8,1.4,1.1c0.4,0.2,0.9,0.4,1.4,0.4c0.4,0,0.7-0.1,1.1-0.2	c0.3-0.2,0.6-0.4,0.8-0.7c0.2-0.3,0.4-0.6,0.6-1c0.2-0.4,0.3-0.8,0.5-1.3l1.7,1c-0.3,1.5-0.9,2.8-1.9,3.9	C159.8,123.2,158.6,123.6,157.4,123.6z M148,120.7c0.5,0,1-0.1,1.5-0.3c0.5-0.2,1-0.5,1.5-0.9c-0.7-0.9-1.4-1.8-2-2.8	c-0.6-1-1.2-2.1-1.7-3.2c-0.6,0.5-1.1,1.1-1.5,1.8c-0.4,0.6-0.6,1.4-0.6,2.1c0,0.4,0.1,0.8,0.2,1.2c0.1,0.4,0.3,0.7,0.5,1	c0.2,0.3,0.5,0.6,0.8,0.7C147.1,120.6,147.6,120.7,148,120.7z M149.2,104.9c0,0.5,0,1,0.1,1.5c0.1,0.5,0.2,1.1,0.3,1.7	c0.4-0.3,0.8-0.6,1.1-1c0.3-0.3,0.6-0.7,0.9-1.1c0.2-0.4,0.4-0.8,0.6-1.2c0.1-0.4,0.2-0.9,0.2-1.3c0-0.4,0-0.7-0.1-1.1	c-0.1-0.2-0.2-0.5-0.3-0.7c-0.1-0.2-0.3-0.3-0.5-0.4c-0.2-0.1-0.4-0.1-0.6-0.1c-0.3,0-0.5,0.1-0.7,0.3c-0.2,0.2-0.4,0.5-0.6,0.8	c-0.2,0.4-0.3,0.8-0.4,1.2C149.2,103.9,149.2,104.4,149.2,104.9L149.2,104.9z" class="st0"/><path d="M185.3,76.8l7,15l6.5-15h3.3l-9.6,22h-2.4l-10.3-22H185.3z" class="st1"/><path d="M205.1,76.8h5.2v14c0,0.8,0.1,1.6,0.4,2.3c0.2,0.7,0.6,1.4,1.1,1.9c1,1.2,2.5,1.8,4,1.8c1.5,0,3-0.6,4-1.8	c0.5-0.6,0.9-1.2,1.1-1.9c0.3-0.8,0.4-1.6,0.4-2.3v-14h3.3v14c0,1.1-0.2,2.2-0.6,3.2c-0.4,1-1,1.9-1.8,2.6c-0.9,0.8-1.9,1.4-3.1,1.8	c-1.5,0.5-3,0.7-4.5,0.7c-1.4,0-2.8-0.2-4.1-0.7c-1.1-0.4-2.1-1-3-1.8c-0.8-0.7-1.4-1.6-1.8-2.6c-0.4-1-0.6-2.1-0.6-3.2V76.8z" class="st1"/><path d="M245.8,76.8v1.9h-10.7v7.2h8.9v1.9h-8.9v8.6h10.7v2.2h-15.9V76.8H245.8z" class="st1"/><path d="M255.3,76.8h5.2v16c0,0.8-0.2,1.7-0.5,2.4c-0.3,0.7-0.8,1.4-1.4,1.9c-0.7,0.6-1.5,1-2.4,1.3	c-1.1,0.3-2.2,0.5-3.4,0.5c-0.7,0-1.3-0.1-2-0.2c-0.6-0.1-1.1-0.3-1.7-0.5c-0.5-0.2-1-0.4-1.5-0.7c-0.5-0.3-0.9-0.5-1.3-0.8l1.5-1.9	c0.2,0.2,0.5,0.5,0.8,0.7c0.3,0.2,0.6,0.4,1,0.6c0.4,0.2,0.8,0.3,1.2,0.4c0.4,0.1,0.9,0.2,1.4,0.2c0.8,0,1.6-0.2,2.2-0.7	c0.5-0.5,0.8-1.2,0.8-2L255.3,76.8z" class="st1"/><path d="M273.5,98.9c-1.1,0-2.3-0.1-3.4-0.5c-0.9-0.3-1.7-0.7-2.5-1.3c-0.7-0.5-1.2-1.2-1.6-1.9	c-0.4-0.8-0.7-1.6-0.8-2.4h3.6c0.1,0.5,0.3,1,0.5,1.5c0.2,0.5,0.5,0.9,0.9,1.2c0.4,0.3,0.8,0.6,1.3,0.8c0.6,0.2,1.2,0.3,1.8,0.3	c0.4,0,0.9-0.1,1.3-0.2c0.4-0.1,0.8-0.2,1.2-0.5c0.3-0.2,0.6-0.5,0.8-0.8c0.2-0.4,0.3-0.8,0.3-1.3c0-0.6-0.2-1.2-0.5-1.7	c-0.3-0.5-0.8-1-1.3-1.4c-0.6-0.4-1.2-0.8-1.8-1.1c-0.7-0.4-1.4-0.7-2.1-1.1s-1.4-0.7-2.1-1.1c-0.7-0.4-1.3-0.8-1.8-1.3	c-0.5-0.5-1-1-1.3-1.7c-0.3-0.7-0.5-1.4-0.5-2.1c0-0.8,0.2-1.6,0.6-2.4c0.4-0.7,0.9-1.4,1.6-1.9c0.8-0.6,1.7-1,2.6-1.3	c1.1-0.3,2.3-0.5,3.5-0.5c1,0,2,0.1,2.9,0.4c0.8,0.3,1.6,0.7,2.3,1.2c0.7,0.5,1.2,1.2,1.7,1.9c0.4,0.7,0.8,1.5,1,2.3h-3.3	c-0.2-0.5-0.4-1-0.7-1.5c-0.2-0.5-0.6-0.9-0.9-1.2c-0.4-0.4-0.8-0.7-1.3-0.8c-0.6-0.2-1.2-0.3-1.9-0.3c-0.6,0-1.2,0.1-1.7,0.3	c-0.4,0.2-0.8,0.4-1.1,0.7c-0.3,0.3-0.5,0.6-0.6,1c-0.1,0.3-0.2,0.7-0.2,1c0,0.6,0.2,1.1,0.5,1.6c0.4,0.5,0.9,0.9,1.4,1.3	c0.6,0.4,1.2,0.8,1.9,1.2l2.1,1.1c0.7,0.4,1.4,0.8,2.1,1.2c0.7,0.4,1.3,0.9,1.9,1.4c0.5,0.5,1,1,1.3,1.6c0.3,0.6,0.5,1.3,0.5,2	c0,0.9-0.2,1.7-0.5,2.5c-0.4,0.8-0.9,1.5-1.6,2c-0.8,0.6-1.7,1-2.6,1.3C275.9,98.7,274.7,98.9,273.5,98.9z" class="st1"/></svg>