<svg xmlns="http://www.w3.org/2000/svg" viewBox="0 0 56 56"><ellipse cx="28" cy="28" rx="26.3" ry="27.2" fill="#fff"/><ellipse cx="28" cy="28" rx="26.3" ry="27.2" fill="none" stroke="#460fca" stroke-width="2"/><path d="M28 13.9c2.4 0 4.7.5 6.8 1.3V1C32.6.4 30.4.1 28 .1s-4.6.4-6.8.9v14.2c2.1-.8 4.4-1.3 6.8-1.3zm.1 28.1c-2.4 0-4.7-.5-6.8-1.3v14.2c2.2.6 4.4.9 6.8.9s4.6-.3 6.8-.9V40.7c-2.1.8-4.4 1.3-6.8 1.3zm13.3-14c0 2.4-.4 4.7-1.2 6.8H54c.6-2.2.8-4.4.8-6.8s-.3-4.6-.8-6.8H40.2c.7 2.1 1.2 4.4 1.2 6.8zm-26.8 0c0-2.4.4-4.7 1.2-6.8H2.1c-.6 2.2-.8 4.4-.8 6.8s.3 4.6.8 6.8h13.8c-.8-2.1-1.3-4.4-1.3-6.8zm15.6 2.8h2.7v2.6h-8.5v-2.6H27v-6.2L24.5 26v-2.8l3.8-2.2h1.9v9.8z" fill="#460fca"/></svg>