<svg xmlns="http://www.w3.org/2000/svg" viewBox="0 0 56 56"><g stroke-width="2"><ellipse cx="28" cy="28" rx="26.3" ry="27.2" fill="#bd4c25" stroke="#e68038"/><circle cx="27.8" cy="28.5" r="16.7" fill="none" stroke="#b18006"/></g><path d="M27.7 11.2c2.4 0 4.7.3 6.8.8V2.6c-2.2-.4-4.4-.9-6.8-.9s-4.6.6-6.8.9v9.5c2.1-.5 4.4-.9 6.8-.9zm.4 34.3c-2.4 0-4.7-.3-6.8-.8v8.7c2.2.4 4.4.7 6.8.7s4.6-.4 6.8-.7v-8.7c-2.1.4-4.4.8-6.8.8zM44.8 28c0 2.4-.3 4.7-.7 6.8h8.4c.4-2.2.8-4.4.8-6.8s-.6-4.6-.8-6.8h-8.4c.5 2.1.7 4.4.7 6.8zm-33.9 0c0-2.4.3-4.7.7-6.8H3.5c-.4 2.2-.7 4.3-.7 6.7s.5 4.7.7 6.9h8.2c-.5-2.1-.8-4.4-.8-6.8z" fill="#b18006"/><path d="M27.1 31.2v2.3h-7.9v-2.2l3.6-3.8c.7-.7 1-1.4 1-2 0-.7-.4-1.1-1.3-1.1-.4 0-.9.1-1.4.3s-1 .4-1.5.7l-.9-2.1c.4-.4 1-.7 1.7-.9s1.4-.3 2.2-.3 1.5.1 2.1.4 1.1.6 1.4 1.1.5 1 .5 1.7c0 .6-.1 1.2-.4 1.8-.3.5-.7 1.1-1.3 1.8l-2.2 2.3h4.4zm8-4.5c.5.3 1 .7 1.3 1.3s.5 1.2.5 1.9c0 .8-.2 1.4-.6 2s-.9 1-1.6 1.3-1.5.5-2.4.5c-.7 0-1.4-.1-2.1-.3s-1.3-.5-1.7-.9l.9-2.1c1 .7 2 1 3 1 .6 0 1-.1 1.3-.4.3-.2.4-.6.4-1.1s-.1-.8-.4-1.1-.7-.4-1.2-.4c-.3 0-.6 0-.9.1s-.7.2-.9.4h-1.6v-6.6h7.4v2.2H32v1.9c.4-.2.9-.3 1.5-.3.4.2 1 .3 1.6.6z" enable-background="new" fill="#fff"/></svg>