<svg xmlns="http://www.w3.org/2000/svg" viewBox="0 0 56 56"><ellipse cx="28" cy="28" rx="26.3" ry="27.2" fill="#fff"/><ellipse cx="28" cy="28" rx="26.3" ry="27.2" fill="#269daa" stroke="#1a819d" stroke-width="2"/><path d="M28 12.9c2.4 0 4.7.4 6.8 1V2.7C32.6 2.2 30.4 2 28 2s-4.6.3-6.8.7v11.2c2.1-.6 4.4-1 6.8-1zm.1 30.1c-2.4 0-4.7-.4-6.8-1v11.2c2.2.5 4.4.7 6.8.7s4.6-.2 6.8-.7V42c-2.1.6-4.4 1-6.8 1zm14.2-15c0 2.4-.3 4.7-.9 6.8h10.8c.5-2.2.6-4.4.6-6.8s-.2-4.6-.6-6.8H41.4c.5 2.1.9 4.4.9 6.8zm-28.7 0c0-2.4.3-4.7.9-6.8H3.8c-.5 2.2-.6 4.4-.6 6.8s.2 4.6.6 6.8h10.8c-.6-2.1-1-4.4-1-6.8z" fill="#fff"/><path d="M21.4 26.8c.5.3.9.6 1.1 1.1.3.5.4 1 .4 1.7s-.2 1.3-.5 1.8-.8.9-1.4 1.2a5.44 5.44 0 0 1-2 .4 6.28 6.28 0 0 1-1.9-.3c-.6-.2-1.1-.4-1.5-.8l.8-1.8c.8.6 1.7.9 2.6.9.5 0 .9-.1 1.1-.3s.4-.5.4-1c0-.4-.1-.7-.4-1s-.6-.3-1.1-.3c-.3 0-.5 0-.8.1l-.8.3H16V23h6.5v2h-4v1.7c.4-.2.8-.3 1.4-.3.5 0 1.1.1 1.5.4zm3.2 4.9c-.6-.9-1-2.1-1-3.8 0-1.6.3-2.9 1-3.7.6-.9 1.6-1.3 2.8-1.3s2.2.4 2.8 1.3c.7.9 1 2.1 1 3.7s-.3 2.9-1 3.8-1.6 1.3-2.8 1.3-2.1-.5-2.8-1.3zm3.8-1.4c.2-.5.3-1.3.3-2.4s-.1-1.9-.3-2.3-.5-.7-1-.7a1.04 1.04 0 0 0-1 .7c-.2.5-.3 1.3-.3 2.3 0 1.1.1 1.9.3 2.4s.5.7 1 .7.8-.2 1-.7zm4.5 1.4c-.7-.9-1-2.1-1-3.8 0-1.6.3-2.9 1-3.7.7-.9 1.6-1.3 2.8-1.3s2.2.4 2.8 1.3c.7.9 1 2.1 1 3.7s-.3 2.9-1 3.8c-.6.8-1.5 1.3-2.8 1.3s-2.1-.5-2.8-1.3zm3.8-1.4c.2-.5.3-1.3.3-2.4s-.1-1.9-.3-2.3c-.2-.5-.5-.7-1-.7a1.04 1.04 0 0 0-1 .7c-.2.5-.3 1.3-.3 2.3 0 1.1.1 1.9.3 2.4s.5.7 1 .7.8-.2 1-.7z" enable-background="new" fill="#fff"/></svg>