<svg xmlns="http://www.w3.org/2000/svg" xmlns:xlink="http://www.w3.org/1999/xlink" viewBox="0 0 128 128"><style>.B{fill:#333}.C{fill:#d5e7e5}.D{fill:#809490}.E{fill:#738380}.F{fill:#ae4355}.G{fill:#c3576f}.H{fill:#993637}.I{fill:#b9cdca}.J{fill:#5e463a}.K{fill:#735343}</style><path d="M74.1,10.78A26.14,26.14,0,0,0,40.5,26.04a23.26,23.26,0,0,0-1.54,9.1v68h52v-68A25.74,25.74,0,0,0,74.1,10.78Z" class="B"/><path fill="#dcb091" d="M121.48 108.88a14.62 14.62 0 0 0-10-11.42L81 90.28v-18H49v18l-30.2 7.18a14.58 14.58 0 0 0-10 11.42l-.7 3.62a141.059 141.059 0 0 0 56.94 12.12 140.88 140.88 0 0 0 57.06-12.12z"/><path fill="#cba082" d="M121.48 108.88a14.62 14.62 0 0 0-10-11.42L81 90.28v-18H49v20.9a3.88 3.88 0 0 1-3.1 3.88c-7.44 1.58-15.84 4-27.18 6.48a13.74 13.74 0 0 0-9.62 9.42 141.238 141.238 0 0 0 55.86 11.68 140.878 140.878 0 0 0 57.14-12.12z"/><path fill="#c4987a" d="M47.42 92.66l-10.18 2.42a24.36 24.36 0 0 0 5.44 21.2 24.34 24.34 0 0 0 4.74-23.62zm-1.64 28.62a3 3 0 0 0-6 0 3.158 3.158 0 0 0 .18.98l5.16.86a2.96 2.96 0 0 0 .66-1.84zm48.9-5a24 24 0 0 0 5.74-19.42l-10.98-2.58a24.28 24.28 0 0 0 5.24 22zm.1 2a3 3 0 0 0-3 3 2.68 2.68 0 0 0 0 .7l5.86-1.28a3.04 3.04 0 0 0-2.86-2.42z"/><path d="M45.12 18.8a20 20 0 0 0 10.3 10.9 20 20 0 0 0-10.14-26 20 20 0 0 0-.16 15.1z" class="C"/><path d="M45.12 18.8a20 20 0 0 0 10.3 10.9 20 20 0 0 0-10.14-26 20 20 0 0 0-.16 15.1z" class="E"/><path d="M55.58 14.7a20 20 0 0 0-10.3-10.92l10.14 26a20 20 0 0 0 .16-15.08z" class="D"/><path d="M43.92 13.94l6.44 2.82 2.82-6.44a20.004 20.004 0 0 0-3.62-3.84l-1.7 4-4-1.72a20.421 20.421 0 0 0 .06 5.18z" class="F"/><path d="M50.36 16.74l2.82-6.44a20.004 20.004 0 0 0-3.62-3.84l-1.7 4z" class="G"/><path d="M55.42 31.2a1.499 1.499 0 0 1-.625-.136 21.392 21.392 0 0 1-11.071-11.716 21.381 21.381 0 0 1 .173-16.229 1.499 1.499 0 0 1 2.004-.784 21.384 21.384 0 0 1 10.9 27.95 1.501 1.501 0 0 1-1.381.915zM46.102 5.796a18.38 18.38 0 0 0 .413 12.452l.002.005a18.395 18.395 0 0 0 8.088 9.347 18.375 18.375 0 0 0-8.504-21.805z" class="B"/><path d="M37.66 30.48a19.999 19.999 0 0 0 14.44 4 20 20 0 0 0-22-17.06 20 20 0 0 0 7.56 13.06z" class="C"/><path d="M37.66 30.48a19.999 19.999 0 0 0 14.44 4 20 20 0 0 0-22-17.06 20 20 0 0 0 7.56 13.06z" class="E"/><path d="M44.54,21.6a20,20,0,0,0-14.44-4l22,17.06A20,20,0,0,0,44.54,21.6Z" class="D"/><path d="M34.1 26.92l6.98-.88-.88-6.98a18.682 18.682 0 0 0-5.08-1.44l.54 4.2-4.22.54a20.437 20.437 0 0 0 2.66 4.56z" class="F"/><path d="M41.1 26.04l-.88-6.98a18.682 18.682 0 0 0-5.08-1.44l.54 4.2z" class="G"/><path d="M49.8 36.11a21.377 21.377 0 0 1-13.052-4.441l-.006-.005a21.383 21.383 0 0 1-8.127-14.039 1.5 1.5 0 0 1 1.321-1.697 21.403 21.403 0 0 1 23.65 18.339 1.5 1.5 0 0 1-1.315 1.701 21.781 21.781 0 0 1-2.471.141zm-11.224-6.82a18.402 18.402 0 0 0 11.744 3.812 18.396 18.396 0 0 0-18.444-14.303 18.383 18.383 0 0 0 6.7 10.491z" class="B"/><path d="M35.18 42.66a20 20 0 0 0 14.74-2.72 20 20 0 0 0-27.28-5.5 20 20 0 0 0 12.54 8.22z" class="C"/><path d="M35.18 42.66a20 20 0 0 0 14.74-2.72 20 20 0 0 0-27.28-5.5 20 20 0 0 0 12.54 8.22z" class="E"/><path d="M37.4 31.64a20.001 20.001 0 0 0-14.76 2.76l27.28 5.54a20.001 20.001 0 0 0-12.52-8.3z" class="D"/><path d="M30.42 41.04l5.86-3.9-3.88-5.86a19.143 19.143 0 0 0-5.18.98l2.34 3.52-3.46 2.36a20.938 20.938 0 0 0 4.32 2.9z" class="F"/><path d="M36.28 37.14l-3.88-5.86a19.143 19.143 0 0 0-5.18.98l2.34 3.52z" class="G"/><path d="M39.216 44.57a21.643 21.643 0 0 1-4.333-.44 21.395 21.395 0 0 1-13.475-8.836 1.5 1.5 0 0 1 .422-2.118 21.407 21.407 0 0 1 29.326 5.913 1.501 1.501 0 0 1-.431 2.116 21.396 21.396 0 0 1-11.509 3.364zm-14.358-9.688a18.395 18.395 0 0 0 10.614 6.307l.008.001a18.394 18.394 0 0 0 12.224-1.703 18.404 18.404 0 0 0-22.847-4.606z" class="B"/><path d="M36.36,55A20,20,0,0,0,50.2,49.22a20,20,0,0,0-27.82.34A20,20,0,0,0,36.36,55Z" class="C"/><path d="M36.36,55A20,20,0,0,0,50.2,49.22a20,20,0,0,0-27.82.34A20,20,0,0,0,36.36,55Z" class="E"/><path d="M36.22 43.76a20.001 20.001 0 0 0-13.84 5.8l27.82-.34a20.001 20.001 0 0 0-13.98-5.46z" class="D"/><path d="M31.38 54.42l4.9-5.04-5.04-4.9a20.246 20.246 0 0 0-4.86 2l3.04 2.96-2.96 3.04a19.695 19.695 0 0 0 4.92 1.94z" class="F"/><path d="M36.28,49.38l-5.04-4.9a20.246,20.246,0,0,0-4.86,2l3.04,2.96Z" class="G"/><path d="M36.087 56.502a21.386 21.386 0 0 1-14.735-5.85 1.5 1.5 0 0 1-.028-2.157 21.412 21.412 0 0 1 29.907-.366 1.5 1.5 0 0 1 .024 2.157A21.394 21.394 0 0 1 36.377 56.5l-.29.002zm-11.45-6.972A18.327 18.327 0 0 0 36.34 53.5h.003a18.395 18.395 0 0 0 11.599-4.255 18.404 18.404 0 0 0-23.304.285z" class="B"/><path d="M85.06 18.8a20 20 0 0 1-10.3 10.9 20 20 0 0 1 10.14-26 20 20 0 0 1 .16 15.1z" class="C"/><path d="M85.06 18.8a20 20 0 0 1-10.3 10.9 20 20 0 0 1 10.14-26 20 20 0 0 1 .16 15.1z" class="E"/><path d="M74.6,14.7A20,20,0,0,1,84.9,3.78l-10.14,26A20,20,0,0,1,74.6,14.7Z" class="D"/><path d="M86.28 13.94l-6.44 2.8-2.82-6.44a21.143 21.143 0 0 1 3.6-3.84l1.72 4 3.88-1.72a20.578 20.578 0 0 1 .06 5.2z" class="F"/><path d="M79.84 16.74l-2.82-6.44a21.143 21.143 0 0 1 3.6-3.84l1.72 4z" class="G"/><path d="M74.76 31.2a1.501 1.501 0 0 1-1.381-.915 21.384 21.384 0 0 1 10.9-27.95 1.499 1.499 0 0 1 2.004.784 21.381 21.381 0 0 1 .173 16.229 21.392 21.392 0 0 1-11.071 11.715 1.497 1.497 0 0 1-.625.136zm9.32-25.404a18.375 18.375 0 0 0-8.504 21.805 18.395 18.395 0 0 0 8.088-9.347l.002-.005a18.38 18.38 0 0 0 .414-12.452z" class="B"/><path d="M92.52 30.48a20 20 0 0 1-14.42 4 20 20 0 0 1 22-17.06 20 20 0 0 1-7.58 13.06z" class="C"/><path d="M92.52 30.48a20 20 0 0 1-14.42 4 20 20 0 0 1 22-17.06 20 20 0 0 1-7.58 13.06z" class="E"/><path d="M85.64,21.6a20,20,0,0,1,14.44-4L78.1,34.56A20,20,0,0,1,85.64,21.6Z" class="D"/><path d="M96.1 26.92l-6.98-.88.98-6.98a18.682 18.682 0 0 1 5.08-1.44l-.54 4.2 4.22.54a20.438 20.438 0 0 1-2.76 4.56z" class="F"/><path d="M89.08 26.04l.88-6.98a18.682 18.682 0 0 1 5.08-1.44l-.54 4.2z" class="G"/><path d="M80.382 36.11a21.657 21.657 0 0 1-2.451-.139 1.5 1.5 0 0 1-1.316-1.702 21.395 21.395 0 0 1 23.65-18.339 1.499 1.499 0 0 1 1.32 1.698 21.384 21.384 0 0 1-8.148 14.04l-.004.003a21.384 21.384 0 0 1-13.05 4.439zm-.502-3.007a18.401 18.401 0 0 0 18.443-14.301A18.375 18.375 0 0 0 79.88 33.103z" class="B"/><path d="M95.02 42.66a20 20 0 0 1-14.76-2.72 20 20 0 0 1 27.28-5.5 20 20 0 0 1-12.52 8.22z" class="C"/><path d="M95.02 42.66a20 20 0 0 1-14.76-2.72 20 20 0 0 1 27.28-5.5 20 20 0 0 1-12.52 8.22z" class="E"/><path d="M92.8 31.64a20 20 0 0 1 14.74 2.76l-27.28 5.54a20 20 0 0 1 12.54-8.3z" class="D"/><path d="M99.76 41.04l-5.86-3.9 4-5.86a20.002 20.002 0 0 1 5.18.98l-2.36 3.52 3.38 2.36a21.076 21.076 0 0 1-4.34 2.9z" class="F"/><path d="M93.9 37.14l4-5.86a20.002 20.002 0 0 1 5.18.98l-2.36 3.52z" class="G"/><path d="M90.968 44.573a21.385 21.385 0 0 1-11.513-3.368 1.5 1.5 0 0 1-.43-2.115 21.406 21.406 0 0 1 29.325-5.913 1.501 1.501 0 0 1 .423 2.117 21.395 21.395 0 0 1-13.454 8.836 21.641 21.641 0 0 1-4.351.443zm-8.492-5.085a18.409 18.409 0 0 0 12.243 1.703l.007-.001a18.399 18.399 0 0 0 10.597-6.308 18.398 18.398 0 0 0-22.847 4.607z" class="B"/><path d="M93.82 55a20 20 0 0 1-13.84-5.78 20 20 0 0 1 27.84.34 20 20 0 0 1-14 5.44z" class="C"/><path d="M93.82 55a20 20 0 0 1-13.84-5.78 20 20 0 0 1 27.84.34 20 20 0 0 1-14 5.44z" class="E"/><path d="M93.98 43.76a20.001 20.001 0 0 1 13.84 5.8l-27.84-.34a20 20 0 0 1 14-5.46z" class="D"/><path d="M98.82 54.42l-4.92-5.04 5.04-4.9a19.464 19.464 0 0 1 4.86 2l-3.04 2.96 2.96 3.04a19.555 19.555 0 0 1-4.9 1.94z" class="F"/><path d="M93.9 49.38l5.04-4.9a19.464 19.464 0 0 1 4.86 2l-3.04 2.96z" class="G"/><path d="M94.112 56.502a21.89 21.89 0 0 1-.314-.002 21.392 21.392 0 0 1-14.874-6.214 1.5 1.5 0 0 1 .024-2.156 21.403 21.403 0 0 1 29.928.366 1.499 1.499 0 0 1-.029 2.156 21.391 21.391 0 0 1-14.736 5.85zm-11.875-7.258a18.396 18.396 0 0 0 11.6 4.256h.004a18.289 18.289 0 0 0 11.721-3.971 18.397 18.397 0 0 0-23.326-.285z" class="B"/><path fill="#dcb091" d="M87 50.16v-6c0-10-6.12-20-22-20s-22 10-22 20v6c-4 0-4.92 3.66-4 8a11.1 11.1 0 0 0 6 8v4c0 4 5.5 12 11.28 16.26a8.74 8.74 0 0 0 5.26 1.74h6.96a8.74 8.74 0 0 0 5.22-1.72C79.52 82.1 85 74.18 85 70.16v-4a10.88 10.88 0 0 0 6-8c.94-4.36 0-8-4-8z"/><path fill="#cba082" d="M87 50.16v-6c0-10-6.12-20-22-20a31.504 31.504 0 0 0-5.7.5v21.78c0 4-4 4-4 6a7.1 7.1 0 0 1 6 4h3a1 1 0 0 1 1 1v3.44a2.9 2.9 0 0 0 1.18 2.34 2 2 0 0 1-1.18 3.62c-1.48 0-2-1-4-1a2 2 0 0 0-1.7.9.461.461 0 0 0 .38.68c3.28.12 2.72 1.22 5.36 1.24v8.74a1 1 0 0 0 1 1 3 3 0 0 1 0 6H63.3a4 4 0 0 0-4 3.42 8.938 8.938 0 0 0 2.18.3h7.02a8.74 8.74 0 0 0 5.22-1.72C79.52 82.06 85 74.14 85 70.12v-4a10.88 10.88 0 0 0 6-8c.94-4.32 0-7.96-4-7.96zm-48 8a11.1 11.1 0 0 0 6 8v4c0 3 3.1 8.24 7.08 12.48v-12.7a8.3 8.3 0 0 0-2.36-5.78l-2.52-2.54a4 4 0 0 1-1.1-3v-4.44c0-4-1.88-4-3-4-4.1-.02-5 3.64-4.1 7.98z"/><path fill="#c4987a" d="M84.1 54.2v4.44a4 4 0 0 1-1.24 2.9l-2.62 2.54a8 8 0 0 0-2.5 5.86v12.98c4-4.28 7.26-9.6 7.26-12.66v-4a10.88 10.88 0 0 0 6-8c.82-3.8.2-7.04-2.6-7.82l-1.4-.18c-1.16-.1-2.9 1.2-2.9 3.94z"/><use class="B" xlink:href="#B"/><path fill="#b7535f" d="M65 24.16c-15.88 0-22 10-22 20v6a4.741 4.741 0 0 0-1.86.38l22.28 12.88a3.42 3.42 0 0 0 3.34 0l22.16-12.86a4.622 4.622 0 0 0-2-.4v-6c.08-10-6.04-20-21.92-20z"/><path fill="#aa4959" d="M87 50.16v-6c0-10-6.12-20-22-20a31.504 31.504 0 0 0-5.7.5v21.78c0 4-4 4-4 6a7.1 7.1 0 0 1 6 4h3a1 1 0 0 1 1 1v3.44a2.9 2.9 0 0 0 1.18 2.34l.24.22 22.16-12.86a4.622 4.622 0 0 0-1.88-.42z"/><g class="B"><path d="M75 38.44c3.4.76 7.08 4.56 7.08 8s2 4 2 8v3.08a.5.5 0 0 0 .86.34l6-5.36v-3.6a26.48 26.48 0 0 0-24.68-26.7 26 26 0 0 0-27.229 24.71q-.03.645-.03 1.29v4.34l6.14 5.14a.5.5 0 0 0 .86-.36v-2.88c0-4 2-4.66 2-8 0-3.68 1.48-6.92 5-8a46.001 46.001 0 0 1 21.999 0z"/><use xlink:href="#B"/><path d="M65.04 126.12a141.693 141.693 0 0 1-57.549-12.249 1.5 1.5 0 0 1-.872-1.616l.6-3.62a15.887 15.887 0 0 1 10.687-12.479l.125-.035 30.62-7.3.695 2.918-30.555 7.285a12.89 12.89 0 0 0-8.613 10.104l-.41 2.467a138.693 138.693 0 0 0 55.273 11.525 138.485 138.485 0 0 0 55.387-11.525l-.4-2.47a13.07 13.07 0 0 0-8.919-10.218L80.656 91.74l.688-2.92 30.608 7.2a16.066 16.066 0 0 1 11.026 12.591l.603 3.634a1.5 1.5 0 0 1-.871 1.616 141.517 141.517 0 0 1-57.668 12.249z"/><path d="M81 91.78a1.5 1.5 0 0 1-1.5-1.5v-10a1.5 1.5 0 0 1 3 0v10a1.5 1.5 0 0 1-1.5 1.5zm-32 0a1.5 1.5 0 0 1-1.5-1.5v-10a1.5 1.5 0 0 1 3 0v10a1.5 1.5 0 0 1-1.5 1.5z"/></g><path d="M37.76 98.14l27.34 8 27.32-8A39.182 39.182 0 0 0 81 90.28l-16 4.86-16-4.86a38.744 38.744 0 0 0-11.24 7.86z" class="H"/><path fill="#eee5bc" d="M65.1 95.14l-16-4.86a52.523 52.523 0 0 0-6.74 3.88l22.74 6.62 22.82-6.62A54.631 54.631 0 0 0 81 90.28z"/><g class="B"><path d="M65.1 107.64a1.491 1.491 0 0 1-.421-.061l-27.34-8a1.5 1.5 0 0 1-.643-2.497 40.093 40.093 0 0 1 11.676-8.164 1.499 1.499 0 0 1 1.064-.073L65 93.572l15.564-4.728a1.509 1.509 0 0 1 1.055.068 40.546 40.546 0 0 1 11.857 8.162 1.5 1.5 0 0 1-.634 2.505l-27.32 8a1.491 1.491 0 0 1-.421.06zM40.7 97.437l24.4 7.14 24.36-7.133a37.527 37.527 0 0 0-8.57-5.563l-15.454 4.694a1.491 1.491 0 0 1-.872 0l-15.448-4.692a37.082 37.082 0 0 0-8.417 5.554z"/><path d="M65.1 102.08a1.495 1.495 0 0 1-.422-.061l-22.62-6.64a1.5 1.5 0 0 1-.388-2.702 59.496 59.496 0 0 1 6.792-3.755 1.496 1.496 0 0 1 1.074-.078L65.1 93.572l15.463-4.727a1.514 1.514 0 0 1 1.066.072 57.411 57.411 0 0 1 6.88 3.759 1.5 1.5 0 0 1-.385 2.703l-22.6 6.64a1.498 1.498 0 0 1-.423.061zm-18.913-8.615L65.1 99.017l18.88-5.547q-1.52-.843-3.093-1.586l-15.35 4.692a1.499 1.499 0 0 1-.874 0l-15.443-4.7q-1.537.742-3.034 1.58z"/></g><path d="M38.78 47.62c4.54-3.14 15.7-5.68 26.32-5.68s21.78 2.54 26.3 5.68c2-1.32 1.02-5.5 1.02-7.1 0-5.38-12.24-11.12-27.32-11.12s-27.32 5.74-27.32 11.12c0 1.6-.9 5.78 1 7.1z" class="D"/><path fill="#6a807c" d="M65.1,33.94c-15,0-27.32,5.74-27.32,11.12v.72a2.92,2.92,0,0,0,1.04,1.84c4.5-3.14,15.66-5.68,26.28-5.68s21.78,2.54,26.3,5.68a2.84,2.84,0,0,0,1.04-1.84v-.72C92.42,39.68,80.1,33.94,65.1,33.94Z"/><path d="M38.78 49.12a1.499 1.499 0 0 1-.856-.268c-2.218-1.54-1.92-4.93-1.723-7.172l.08-1.16c0-6.723 13.467-12.62 28.82-12.62s28.82 5.898 28.82 12.62c0 .303.043.71.088 1.173.218 2.246.547 5.642-1.782 7.18a1.499 1.499 0 0 1-1.682-.02C86.176 45.817 75 43.44 65.1 43.44c-9.89 0-21.077 2.378-25.466 5.414a1.502 1.502 0 0 1-.854.266zm26.32-8.68c9.783 0 20.48 2.178 25.9 5.18a12.443 12.443 0 0 0 .012-3.637c-.055-.563-.102-1.05-.102-1.463 0-3.874-10.842-9.62-25.82-9.62s-25.82 5.746-25.82 9.62c0 .368-.04.86-.1 1.423a13.533 13.533 0 0 0 .018 3.658c5.455-2.992 16.137-5.16 25.892-5.16z" class="B"/><path d="M57.02 21.94a28.66 28.66 0 0 0 8 20 28.82 28.82 0 0 0 0-40 28.76 28.76 0 0 0-8 20z" class="C"/><path d="M73.18 21.94a28.8 28.8 0 0 0-8-20v40a28.76 28.76 0 0 0 8-20z" class="I"/><path d="M57.94 14.78l7.16 7.16 7.14-7.16a28.562 28.562 0 0 0-2.84-7.02l-4.3 4.32-4.32-4.32a28.562 28.562 0 0 0-2.84 7.02z" class="J"/><path d="M65.1 21.94l7.14-7.16a28.562 28.562 0 0 0-2.84-7.02l-4.3 4.32z" class="K"/><path d="M65.02 43.44a1.499 1.499 0 0 1-1.081-.46 30.006 30.006 0 0 1-8.419-21.04A30.112 30.112 0 0 1 63.938.902 1.499 1.499 0 0 1 65.018.44h.002a1.5 1.5 0 0 1 1.08.459 30.219 30.219 0 0 1 0 42.082 1.5 1.5 0 0 1-1.08.459zm.003-39.268a27.114 27.114 0 0 0-6.503 17.764v.012a27.006 27.006 0 0 0 6.502 17.763 27.214 27.214 0 0 0 .001-35.539z" class="B"/><path d="M33 100.28a24 24 0 0 0 6 16 24.34 24.34 0 0 0 0-32 24 24 0 0 0-6 16z" class="C"/><path d="M45 100.28a24 24 0 0 0-6-16v32a24 24 0 0 0 6-16z" class="I"/><path d="M33.7 94.56l5.3 5.72 5.32-5.72a24.44 24.44 0 0 0-2.12-5.62L39 92.38l-3.2-3.44a23.503 23.503 0 0 0-2.1 5.62z" class="J"/><path d="M39,100.28l5.32-5.72a24.44,24.44,0,0,0-2.12-5.62L39,92.38Z" class="K"/><path d="M39 117.78a1.5 1.5 0 0 1-1.125-.508 25.833 25.833 0 0 1 0-33.984 1.453 1.453 0 0 1 1.129-.508 1.499 1.499 0 0 1 1.127.514 25.938 25.938 0 0 1 0 33.972 1.5 1.5 0 0 1-1.126.514zm-.006-31.118a22.473 22.473 0 0 0-4.494 13.61v.016a22.471 22.471 0 0 0 4.494 13.61 22.953 22.953 0 0 0 0-27.235z" class="B"/><path fill="#913124" d="M39,82a1.5,1.5,0,0,1-1.5-1.5V64.28a1.5,1.5,0,0,1,3,0V80.5A1.5,1.5,0,0,1,39,82Z"/><path d="M42.1,121.28a3,3,0,1,1-3-3,3,3,0,0,1,3,3Z" class="H"/><path d="M97 100.28a24 24 0 0 1-6 16 24.34 24.34 0 0 1 0-32 24 24 0 0 1 6 16z" class="C"/><path d="M85 100.28a24 24 0 0 1 6-16v32a24 24 0 0 1-6-16z" class="I"/><path d="M96.32 94.56L91 100.28l-5.3-5.72a24.44 24.44 0 0 1 2-5.62l3.2 3.44 3.2-3.44a23.838 23.838 0 0 1 2.22 5.62z" class="J"/><path d="M91,100.28l-5.3-5.72a24.44,24.44,0,0,1,2-5.62l3.2,3.44Z" class="K"/><path d="M91 117.78h-.004a1.499 1.499 0 0 1-1.126-.514 25.938 25.938 0 0 1 0-33.972 1.499 1.499 0 0 1 1.126-.514H91a1.5 1.5 0 0 1 1.125.508 25.833 25.833 0 0 1 0 33.984 1.501 1.501 0 0 1-1.125.508zm.006-31.118a22.953 22.953 0 0 0 0 27.235 22.469 22.469 0 0 0 4.494-13.61v-.016a22.471 22.471 0 0 0-4.494-13.61z" class="B"/><path fill="#913124" d="M91,82a1.5,1.5,0,0,1-1.5-1.5V64.28a1.5,1.5,0,0,1,3,0V80.5A1.5,1.5,0,0,1,91,82Z"/><path d="M88.1,121.28a3,3,0,1,0,3-3,3,3,0,0,0-3,3Z" class="H"/><g class="B"><path d="M50.28 52.52a12.004 12.004 0 0 1 2.9-1.1 11.162 11.162 0 0 1 3.16-.18 19.442 19.442 0 0 1 5.64 2 .46.46 0 0 1 .24.6.48.48 0 0 1-.46.28 24.528 24.528 0 0 1-2.96-.52l-2.74-.42a14.603 14.603 0 0 0-5.5.12.446.446 0 1 1-.3-.84zm29.82.84a14.582 14.582 0 0 0-5.5-.12l-2.74.42a24.528 24.528 0 0 1-2.96.52.44.44 0 0 1-.478-.398.418.418 0 0 1-.002-.042.46.46 0 0 1 .28-.46 19.442 19.442 0 0 1 5.64-2 12.867 12.867 0 0 1 3.16.18 10.361 10.361 0 0 1 2.9 1.1.462.462 0 1 1-.34.86z"/><circle cx="56.42" cy="56.7" r="1.42"/><circle cx="74.34" cy="56.7" r="1.42"/></g><path fill="#674848" d="M65.262 70.32a5.905 5.905 0 0 1-2.865-.745 4.54 4.54 0 0 0-2.14-.546.75.75 0 0 1 .003-1.5h.003a6.052 6.052 0 0 1 2.855.731 4.384 4.384 0 0 0 4.279.003 6.057 6.057 0 0 1 2.86-.734h.003a.75.75 0 0 1 .003 1.5 4.546 4.546 0 0 0-2.145.549 5.888 5.888 0 0 1-2.856.742z"/><path fill="#916953" d="M67.46 73.06a1.281 1.281 0 0 0-.86 0l-1.3.58-1.2-.52a1.281 1.281 0 0 0-.86 0 12.282 12.282 0 0 0-4.94 2.56l2 2a3.74 3.74 0 0 0 2.68 1.14h4.92a3.7 3.7 0 0 0 2.68-1.14l2-2a12.001 12.001 0 0 0-5.12-2.62z"/><path fill="#674848" d="M65.28 76.604l-.218-.073a8.238 8.238 0 0 0-4.232-.162 13.623 13.623 0 0 1-2.051.201.75.75 0 0 1 0-1.5 12.297 12.297 0 0 0 1.829-.184 9.819 9.819 0 0 1 4.709.153 10.616 10.616 0 0 1 4.668-.137 12.009 12.009 0 0 0 1.753.168.75.75 0 0 1 0 1.5 13.346 13.346 0 0 1-1.969-.184 9.088 9.088 0 0 0-4.269.156z"/><defs><path id="B" d="M61.512 89.66a10.303 10.303 0 0 1-6.13-2.039C49.168 83.042 43.5 74.716 43.5 70.16v-3.1a12.655 12.655 0 0 1-5.977-8.627c-.715-3.37-.352-6.096 1.057-7.836a5.103 5.103 0 0 1 2.919-1.77V44.16a21.399 21.399 0 0 1 5.451-14.776c4.124-4.4 10.365-6.724 18.05-6.724s13.926 2.325 18.05 6.724A21.399 21.399 0 0 1 88.5 44.16v4.657a5.114 5.114 0 0 1 2.938 1.781c1.408 1.744 1.764 4.468 1.03 7.878A12.35 12.35 0 0 1 86.5 67.06v3.1c0 4.916-6.272 13.284-11.88 17.48a10.313 10.313 0 0 1-6.106 2.019h-7zm3.488-64c-9.9 0-20.5 4.86-20.5 18.5v6a1.5 1.5 0 0 1-1.5 1.5 2.51 2.51 0 0 0-2.088.816c-.797.984-.96 2.943-.444 5.373a9.666 9.666 0 0 0 5.199 6.967 1.5 1.5 0 0 1 .834 1.344v4c0 3.236 4.924 10.817 10.67 15.052a7.296 7.296 0 0 0 4.346 1.448h6.996a7.289 7.289 0 0 0 4.316-1.425C78.572 80.936 83.5 73.35 83.5 70.16v-4a1.5 1.5 0 0 1 .848-1.351 9.393 9.393 0 0 0 5.173-6.897c.535-2.5.378-4.444-.418-5.43A2.522 2.522 0 0 0 87 51.66a1.5 1.5 0 0 1-1.5-1.5v-6c0-13.64-10.6-18.5-20.5-18.5z"/></defs></svg>