<svg xmlns="http://www.w3.org/2000/svg" viewBox="0 0 128 128"><path d="M117.38 97.52a12.12 12.12 0 0 0-8.92-9.38l-9.32-2.32a131.125 131.125 0 0 0-31.68-3.8h-.2a130.142 130.142 0 0 0-31.68 3.8l-9.32 2.32a12 12 0 0 0-8.92 9.38l-.66 4 .2.12a124.66 124.66 0 0 0 50.5 10.6 124.859 124.859 0 0 0 50.46-10.58h.1z" fill="#9e4159"/><path d="M96.34 92.46a23.04 23.04 0 0 1-5.18 10.14 18.18 18.18 0 0 1-9.66 6 25.7 25.7 0 0 0 8.92-6.58 37.26 37.26 0 0 0 5.92-9.56zm10.34 2.42a22.78 22.78 0 0 1-8 10 23.62 23.62 0 0 1-12 4.38 34.001 34.001 0 0 0 11.4-5.2 32.42 32.42 0 0 0 8.6-9.18zm6 2.8a15.12 15.12 0 0 1-5.42 7.08 15.56 15.56 0 0 1-8.4 2.98 26.539 26.539 0 0 0 7.82-3.72 24.199 24.199 0 0 0 6-6.34z" fill="#333"/><path d="M108.44 93.62l-9.32-2.32-5-1.14a11.203 11.203 0 0 0 .4-2.94c0-9.52-12.2-17.24-27.24-17.24S40.04 77.7 40.04 87.22a10.718 10.718 0 0 0 .42 2.98c-1.64.34-3.26.7-4.88 1.1l-9.32 2.32a12 12 0 0 0-8.66 8.4 124.7 124.7 0 0 0 49.76 10.28 124.98 124.98 0 0 0 49.76-10.28 12.14 12.14 0 0 0-8.68-8.4z" fill="#8e3246"/><path d="M67.28 78.02c14 0 25.42 5.46 27.04 14 .12-.68.2-4.18.2-4.88 0-9.52-12.2-17.24-27.24-17.24s-27.24 7.8-27.24 17.32a39.666 39.666 0 0 0 .2 4.88c1.62-8.56 13.1-14.08 27.04-14.08z" fill="#9e4159"/><path d="M96.02 92.02h-3v-4.8c0-8.68-11.547-15.74-25.74-15.74s-25.74 7.06-25.74 15.74v4.8h-3v-4.8c0-10.333 12.893-18.74 28.74-18.74s28.74 8.407 28.74 18.74z" fill="#333"/><path d="M101.4 107.56a110.961 110.961 0 0 0 4.12-20.14l-6.4-1.6q-2-.52-4.14-.96a55.621 55.621 0 0 1-8.6 22.88c6.7.8 9.72 1.32 15.02-.18z" fill="#f4bc62"/><path d="M85.64 110.9a125.579 125.579 0 0 0 15.6-3.32c1.52-5.64 3.12-12 3.58-14.86l-5.7-1.42a147.08 147.08 0 0 0-5.14-1.16 145.502 145.502 0 0 1-8.34 20.76z" fill="#f7a159"/><path d="M94.9 110.016a62.75 62.75 0 0 1-7.392-.63l-1.305-.157a1.5 1.5 0 0 1-1.076-2.312 54.454 54.454 0 0 0 8.368-22.263 1.499 1.499 0 0 1 1.789-1.263l4.215.977 6.386 1.598a1.5 1.5 0 0 1 1.127 1.618 112.808 112.808 0 0 1-4.175 20.412 1.501 1.501 0 0 1-1.027 1.008 24.321 24.321 0 0 1-6.91 1.013zm6.5-2.456zm-12.495-1.026c4.796.573 7.388.79 11.297-.204a109.89 109.89 0 0 0 3.676-17.773l-5.123-1.28c-.822-.214-1.67-.42-2.536-.613a57.582 57.582 0 0 1-7.315 19.872z" fill="#333"/><path d="M82.1 85.26v-7.24H52.46v7.18l-1.6.2c0 7.66 8.78 13.26 16.42 15.5 7.64-2.24 16.42-7.58 16.42-15.5-.52-.02-1.02-.08-1.6-.14z" fill="#eab8a2"/><path d="M66.42 100.68l.88.28c5.66-1.66 12-5.04 14.82-9.88V78.02H52.46v6.84l10.9 10.9a12.78 12.78 0 0 1 3.06 4.92z" fill="#e2ad9a"/><path d="M36.88 94.02l4.94 5.24a67.139 67.139 0 0 0 5.32 4.54l5.74 4.22 6 4.12a26.096 26.096 0 0 1-7.14-2 29.474 29.474 0 0 1-6.44-3.8 25.797 25.797 0 0 1-5.26-5.38 18.278 18.278 0 0 1-3.16-6.94zm-8 4a48.159 48.159 0 0 1 4 3.38l3.72 3.14c1.26.98 2.58 1.86 4 2.76l4.38 2.74a14.68 14.68 0 0 1-10.3-3.04 16.6 16.6 0 0 1-5.8-8.98z" fill="#333"/><path d="M92.2 46.02c0-2.5-.7-14.88-4.86-21.66-2.48-4-10-8-20-8s-17.52 4-20 8c-4.16 6.78-4 19.5-4 22-6 0-4 11.28-3.56 13.16.88 3.62 3 5.5 4.94 5.54a83.272 83.272 0 0 0 2.38 9.24 11.258 11.258 0 0 0 1.8 3.34 121.502 121.502 0 0 0 8.22 9.38c2.8 2.64 7.3 2.98 10.1 2.98s7.3-.34 10-2.98a110.767 110.767 0 0 0 8.22-9.38 11.26 11.26 0 0 0 1.8-3.34 76.963 76.963 0 0 0 2.38-9.24c2 0 4-2 4.94-5.54.6-1.98 3.64-13.5-2.36-13.5z" fill="#eab8a2"/><path d="M92.2 46.02c0-2.5-.7-14.88-4.86-21.66-2.48-4-10-8-20-8a34.404 34.404 0 0 0-6.92.68v28.98a8.34 8.34 0 0 1-2.7 6 .96.96 0 0 0 .42 1.64c3.2.9 4.9 1.52 6.88 1 .66-.16 1.84.58 1.84 1.26v3.34a3.58 3.58 0 0 0 1.36 2.98 2.34 2.34 0 0 1-1.36 4.24c-1.74 0-2.34-1.16-4.68-1.16-1.38 0-1.16 1.8-1.22 1.76a5.281 5.281 0 0 1 2.34.6 7.199 7.199 0 0 0 3.5.92v7.04a4 4 0 0 0 2.66 3.74 3.28 3.28 0 0 1 2 3.46c0 6.24-10.84-.18-11.5 5.8a19.659 19.659 0 0 0 7.26 1.22c2.8 0 7.3-.34 10-2.98a110.767 110.767 0 0 0 8.22-9.38 11.26 11.26 0 0 0 1.8-3.34 76.963 76.963 0 0 0 2.38-9.24c2 0 4-2 4.94-5.54.6-1.84 3.64-13.36-2.36-13.36z" fill="#e2ad9a"/><path d="M69.62 72.62a5.662 5.662 0 0 0-2.36.26 1.219 1.219 0 0 1-.84 0 5.741 5.741 0 0 0-2.36-.26c-1.18.18-1.44.86-3.34 2a.58.58 0 0 0 0 1l1.54.94a4.58 4.58 0 0 0 2.54.82h4.14a4.419 4.419 0 0 0 2.54-.82l1.56-.88a.58.58 0 0 0 .3-.5.62.62 0 0 0-.28-.52c-1.92-1.14-2.26-1.88-3.44-2.04z" fill="#d1a193"/><path d="M87.66 24.68c-2.48-4.04-10.42-8.66-20.4-8.66s-18 4.62-20.4 8.66c-3.76 6.1-4.44 16.4-4.54 20.2l5.04 3.36 1.74-10.46a3.08 3.08 0 0 1 1.58-2.22l1.44-.72a3.14 3.14 0 0 0 1.56-1.86 20.34 20.34 0 0 1 5.86-9.3 5.52 5.52 0 0 1 3.7-1.42h8.26a5.5 5.5 0 0 1 3.36 1.14 15.66 15.66 0 0 1 6.1 9.44 3.18 3.18 0 0 0 1.62 2l1.32.66a3.02 3.02 0 0 1 1.64 2.22l1.74 10.46 4.86-2.42c.06-2.6-.36-14.36-4.48-21.08z" fill="#d7a992"/><path d="M92.18 44.8c-.16-4-1.1-14.48-4.84-20.54a10.962 10.962 0 0 0-2.16-2.46c1.78 10.3 3.02 21.24 2.16 26.46zM47.34 24.26c-3.82 6.22-4 17.38-4 21.14l4 2.86c-.86-5.22.38-16.14 2.16-26.46a11.483 11.483 0 0 0-2.16 2.46z" fill="#aaa"/><path d="M67.322 91.773A16.014 16.014 0 0 1 56.29 87.39a102.909 102.909 0 0 1-8.528-8.813 12.781 12.781 0 0 1-2.084-3.838 67.986 67.986 0 0 1-1.656-7.245c-2.567-.978-4.9-4.47-5.7-7.72-.1-.386-2.104-9.192 1.02-13.132a4.826 4.826 0 0 1 2.477-1.677c-.075-4.342-.143-14.74 3.74-21.07 2.754-4.452 11.32-9.176 21.778-9.176 10.432 0 18.75 4.613 21.575 9.17 3.882 6.326 3.97 16.85 3.937 21.075a4.745 4.745 0 0 1 2.458 1.669c3.062 3.9.94 12.767.848 13.143-.817 3.36-2.998 6.824-5.526 7.746a60.752 60.752 0 0 1-1.865 7.202 12.748 12.748 0 0 1-2.045 3.799 99.99 99.99 0 0 1-8.376 8.871 16.009 16.009 0 0 1-11.024 4.378zm.018-74.053c-9.953 0-17.233 4.53-19.225 7.75-3.54 5.77-3.35 16.35-3.29 19.825l.013.966a1.5 1.5 0 0 1-1.5 1.5 1.92 1.92 0 0 0-1.646.747c-1.708 2.152-1.043 8.052-.454 10.57.798 3.283 3.168 5.65 4.146 5.683a1.499 1.499 0 0 1 1.435 1.268 64.901 64.901 0 0 0 1.72 7.819 9.684 9.684 0 0 0 1.54 2.828 100.262 100.262 0 0 0 8.252 8.518 13.073 13.073 0 0 0 17.956.015 97.269 97.269 0 0 0 8.099-8.572 9.696 9.696 0 0 0 1.53-2.856 57.675 57.675 0 0 0 1.944-7.783 1.5 1.5 0 0 1 1.476-1.238c.865 0 3.057-2.218 3.902-5.694.62-2.54 1.366-8.465-.294-10.58a1.865 1.865 0 0 0-1.609-.726 1.5 1.5 0 0 1-1.5-1.5l.005-.71c.037-3.504.148-14.166-3.484-20.085-2.326-3.75-9.785-7.744-19.022-7.744z" fill="#333"/><path d="M86.68 58.18a6.52 6.52 0 0 1-6.398 6.64H76.28a4.92 4.92 0 0 1-4-2.26l-2.22-3.5a4.398 4.398 0 0 1-.64-1.84 3.28 3.28 0 0 0-3.42 0 4.142 4.142 0 0 1-.64 1.84l-2.2 3.48a4.84 4.84 0 0 1-4 2.26h-4.48a6.54 6.54 0 0 1-6.4-6.64V56.8a5.238 5.238 0 0 1 .14-1.14 4.12 4.12 0 0 1 3.78-3.08h9.52a4.001 4.001 0 0 1 2.82 1.18 3.743 3.743 0 0 1 .82 1.22 5.58 5.58 0 0 1 4 0 3.821 3.821 0 0 1 .82-1.24 3.72 3.72 0 0 1 2.84-1.18h9.66c2.12.14 4 1.58 4 5.62z" fill="#d5a18a"/><path d="M82.52,50.76H73a2.6,2.6,0,0,0-2,.9,3.64,3.64,0,0,0-.32,4.36l2.2,3.7a3.68,3.68,0,0,0,3.1,1.84H80.1a5.62,5.62,0,0,0,5.28-5.9V54.22a3.14,3.14,0,0,0-2.78-3.36" fill="#cfa883"/><path d="M65.434 55.143l-1.988-2.246a5.807 5.807 0 0 1 7.688 0l-1.988 2.246a2.806 2.806 0 0 0-3.712 0z" fill="#333"/><path d="M54.52,61.38h4a3.72,3.72,0,0,0,3.1-1.84l2.22-3.78a3.6,3.6,0,0,0-.4-4.24,2.6,2.6,0,0,0-2-.74H52.06a3.1,3.1,0,0,0-2.92,3.24v1.46a5.62,5.62,0,0,0,5.28,5.9.12.12,0,0,1,.1,0" fill="#cfa883"/><path d="M56.68,53.42l-4,4.46a2.68,2.68,0,0,0,2,.8h1.34l4.66-5.32Z" fill="#d2ac86"/><g fill="#333"><path d="M54.52 62.94a7.155 7.155 0 0 1-6.778-7.478l-.002-1.442a4.588 4.588 0 0 1 4.207-4.754l.133-.006h9.52a4.13 4.13 0 0 1 3.135 1.418 5.125 5.125 0 0 1 .556 6.007l-2.226 3.7a5.198 5.198 0 0 1-4.349 2.566zm-2.363-10.68a1.616 1.616 0 0 0-1.419 1.687l.002 1.593a4.152 4.152 0 0 0 3.869 4.403l4.07-.003a2.18 2.18 0 0 0 1.801-1.089l2.235-3.705a2.133 2.133 0 0 0-.242-2.495 1.15 1.15 0 0 0-.855-.391zm23.823 10.8a5.222 5.222 0 0 1-4.399-2.591l-2.2-3.683a5.148 5.148 0 0 1 .479-6.112 4.09 4.09 0 0 1 3.149-1.414h9.5q.064 0 .127.006l.068.006a4.654 4.654 0 0 1 4.164 5.019v1.368a7.12 7.12 0 0 1-6.691 7.397zm-2.996-10.8a1.104 1.104 0 0 0-.85.381 2.153 2.153 0 0 0-.192 2.568l2.227 3.744a2.199 2.199 0 0 0 1.846 1.107H80.1a4.118 4.118 0 0 0 3.782-4.323l-.002-1.517a1.554 1.554 0 0 1 .008-.158 1.643 1.643 0 0 0-1.436-1.802h-9.468z"/><path d="M49.98 53.26h-2.1a1.5 1.5 0 1 1 0-3h2.1a1.5 1.5 0 1 1 0 3zm36.62 0h-2.12a1.5 1.5 0 0 1 0-3h2.12a1.5 1.5 0 0 1 0 3zm-4.5 39.18a1.5 1.5 0 0 1-1.5-1.5v-9.02a1.5 1.5 0 1 1 3 0v9.02a1.5 1.5 0 0 1-1.5 1.5z"/><path d="M67.102 102.74l-.844-2.88C73.936 97.6 82.2 92.143 82.2 85.46h3c0 8.27-9.1 14.638-18.098 17.28zM52.46 92.44a1.5 1.5 0 0 1-1.5-1.5v-9.02a1.5 1.5 0 0 1 3 0v9.02a1.5 1.5 0 0 1-1.5 1.5z"/><path d="M95.816 109.22c-15.035 0-23.35-3.198-29.53-6.43l-1.124-.588c-7.04-3.673-15.8-8.244-15.8-16.74h3c0 6.68 7.538 10.61 14.188 14.082l1.128.6c4.303 2.25 13.257 6.925 33.65 5.95l.145 2.996q-2.978.144-5.656.142z"/><path d="M67.175 113.74a125.362 125.362 0 0 1-50.9-10.728 1.38 1.38 0 0 1-.166-.086l-.2-.12a1.5 1.5 0 0 1-.708-1.53l.66-4a13.551 13.551 0 0 1 10.042-10.593l9.315-2.32 4.807-1.1.63 2.934-4.708 1.087-9.325 2.322a10.528 10.528 0 0 0-7.81 8.208l-.468 2.84a122.362 122.362 0 0 0 48.835 10.096h.362a122.562 122.562 0 0 0 48.755-10.044l-.382-2.836a10.648 10.648 0 0 0-7.801-8.126l-9.336-2.463-4.06-.94.606-2.937 4.215.977 9.325 2.462a13.679 13.679 0 0 1 10.009 10.536l.555 4.094a1.5 1.5 0 0 1-1.215 1.676 125.14 125.14 0 0 1-50.833 10.605z"/></g><ellipse cx="58" cy="54.3" rx="2" ry="1.24" fill="#605842"/><path d="M78.2,53.42l-3.66,4.26.28.5a1.32,1.32,0,0,0,1.12.68H77.4l4.76-5.32Z" fill="#d2ac86"/><ellipse cx="76.88" cy="54.3" rx="2" ry="1.24" fill="#605842"/><path d="M73.34 76H60.46a1 1 0 0 1 0-2h12.88a1 1 0 1 1 0 2zm-6.333-6.042a6.593 6.593 0 0 1-2.13-.352l-3.5-.962a1 1 0 1 1 .53-1.928l3.56.98a4.633 4.633 0 0 0 3.011.018l3.165-.988a1 1 0 0 1 .596 1.91l-3.14.98a6.48 6.48 0 0 1-2.091.343zM68 80h-2a1 1 0 0 1 0-2h2a1 1 0 0 1 0 2z" fill="#aa7e74"/></svg>