<svg xmlns="http://www.w3.org/2000/svg" xmlns:xlink="http://www.w3.org/1999/xlink" viewBox="0 0 128 128"><style>.B{fill:none}.C{stroke-linecap:round}.D{stroke-linejoin:round}.E{stroke-width:3}.F{stroke-miterlimit:10}.G{stroke-width:1.5}.H{stroke-linejoin:bevel}.I{stroke-width:1.972}</style><path fill="#f4cf16" d="M109.18 91.32c-9.86-2-12.18-3.24-25.64-5.88H52c-13.44 2.84-15.78 4-25.64 5.88a16.52 16.52 0 0 0-11.82 15.8 124.86 124.86 0 0 0 53.24 11.82 124.26 124.26 0 0 0 53.24-11.82c-.04-5.92-3.96-13.8-11.84-15.8z"/><path fill="#ddb819" d="M109.18 91.32l-27.6-6a24.64 24.64 0 0 1-13.04 8.52l26.2 22.22a119.32 119.32 0 0 0 26.28-8.96c-.04-5.9-3.96-13.78-11.84-15.78z"/><g fill="#3e7a17"><path d="M64.62 94.04h6.3v24.16h-6.3z"/><path d="M91.42 87.4l-7.88-2H52l-7.88 2 4 9.86h6.92a30.739 30.739 0 0 0 12.8 5.88 30.74 30.74 0 0 0 12.7-5.88h6.92z"/></g><path fill="#e8b992" d="M53.96,75.58v11.1a25.82,25.82,0,0,0,13.8,8.62,25.82,25.82,0,0,0,13.8-8.62V75.58Z"/><path fill="#dba983" d="M53.96 79.84l17 14.4.42-.16 1.48-.64a24.139 24.139 0 0 0 8.7-6.74V75.58h-27.6z"/><g class="B"><g stroke="#333" class="C D E"><path d="M53.96,85.68a24,24,0,0,0,13.8,9.62,25.04,25.04,0,0,0,14-9.86"/><path d="M53.96 85.68l-27.6 5.64c-9.86 1.94-9.08 6.28-11.82 15.8a124.86 124.86 0 0 0 53.24 11.82 124.26 124.26 0 0 0 53.24-11.82c-2-7.88-2-13.88-11.82-15.8s-13.9-3.24-27.36-5.88"/></g><path stroke="#3e7a17" d="M31.32 98.24h1.94v8.88m3.94-8.88h3.94v7.88H37.2z" class="H I"/></g><path fill="#f4cf16" stroke="#2e5b10" d="M100.54 107.68l-4.22 2.4-4.22-2.4a3.36 3.36 0 0 1-1.7-2.94v-6.48h11.82v6.48a3.26 3.26 0 0 1-1.68 2.94z" class="H I"/><path stroke="#333" d="M53.96 85.68v-10.1m27.6 9.8v-9.8" class="B D E"/><use fill="#e8b992" xlink:href="#B"/><path fill="#ddad8a" d="M88.54 44.68V38.5c0-10.78-4.7-20.12-20.7-20.12a33.258 33.258 0 0 0-5.74.48v23.16c0 4-4 4-4 6a5.64 5.64 0 0 1 5.72 3.4h3a1 1 0 0 1 1 1v4.22a.94.94 0 0 0 .68.9 1.8 1.8 0 0 1 1.32 1.88 2 2 0 0 1-2 2c-1.48 0-.96-.44-2.96-.44a3.12 3.12 0 0 0-2.18.66.44.44 0 0 0 .34.7c3.2.12 2.14 1.06 4.78 1.1v8a3.52 3.52 0 0 0 2 2c1.64 0 2.28 2 2.28 3.6a3 3 0 0 1-3 3h-3a4 4 0 0 0-3.7 2.56 17.22 17.22 0 0 0 6 .84 14.64 14.64 0 0 0 10-4.36c4.94-5 7.82-6.72 8.18-12.38a27.727 27.727 0 0 0-.02-4.86c4.44 2 7.64-2.12 8.46-7.02.66-4 1.08-7.46-1.3-9.36a4.92 4.92 0 0 0-5.16-.78z"/><path stroke="#d3a484" d="M67.78 63.8v1.98" class="B C F G"/><path fill="#ddad8a" d="M41.88 45.48c-2.38 2-2 5.44-1.3 9.34.82 4.9 3.82 9.1 8.24 7.02h.2a32.312 32.312 0 0 0 0 4.82c.28 4.24 2 6.24 4.9 9.08a45.883 45.883 0 0 1 0-10.34 5.82 5.82 0 0 0-1.9-6.16l-1.34-1.4a4 4 0 0 1-1.22-2.88V50.6a11.26 11.26 0 0 0-2.32-6 5.06 5.06 0 0 0-5.26.88z"/><path fill="#d3a484" d="M93.76 45.58c2.38 2 2 5.44 1.3 9.34-.82 4.9-3.82 9.1-8.24 7.02h-.28a32.312 32.312 0 0 1 0 4.82c-.28 4.24-2 6.24-4.9 9.08a45.883 45.883 0 0 0 0-10.34 5.82 5.82 0 0 1 2-6.16L85.02 58a4 4 0 0 0 1.22-2.88V50.7a11.26 11.26 0 0 1 2.32-6 5.06 5.06 0 0 1 5.2.88z"/><path fill="#333" d="M52.84 48.54a12 12 0 0 1 2.9-1.1 11.162 11.162 0 0 1 3.16-.18 19.439 19.439 0 0 1 5.64 2 .46.46 0 0 1 .24.6.48.48 0 0 1-.46.28 24.547 24.547 0 0 1-2.96-.52l-2.74-.42a14.599 14.599 0 0 0-5.5.12.48.48 0 0 1-.54-.36.52.52 0 0 1 .26-.42zm29.9.86a14.58 14.58 0 0 0-5.5-.12l-2.74.42a24.547 24.547 0 0 1-2.96.52.44.44 0 0 1-.478-.398.416.416 0 0 1-.002-.042.46.46 0 0 1 .28-.46 19.439 19.439 0 0 1 5.64-2 12.862 12.862 0 0 1 3.16.18 10.361 10.361 0 0 1 2.9 1.1.46.46 0 0 1-.32.84z"/><use stroke="#343433" class="B D E" xlink:href="#B"/><path fill="#ddab85" d="M70.66 67.16a5.66 5.66 0 0 0-2.36.26 1.22 1.22 0 0 1-.84 0 5.739 5.739 0 0 0-2.36-.26c-1.34.2-1.48 1.04-4.18 2.5l2.38 1.46a4.58 4.58 0 0 0 2.54.82h4.14a4.42 4.42 0 0 0 2.56-.82l2.46-1.4c-2.72-1.46-3-2.36-4.34-2.56z"/><path stroke="#c6916d" d="M74.98 69.84c-2 0-2.52-.78-4.48-.78a13.456 13.456 0 0 0-2.58.34 15.039 15.039 0 0 0-2.58-.34c-1.88 0-2.3.72-4.42.72m2.06-7.46a4.52 4.52 0 0 1 2.44.74 4.46 4.46 0 0 0 4.9 0 4.579 4.579 0 0 1 2.44-.74" class="B C F G"/><g fill="#343433" stroke="#343433" stroke-width="2.107" class="D"><path d="M41.1 27.6l4.4-2.26-.14 18.86s4 1.52 4 10V41.52l4.22-4.22V22.58h29.48v14.74l4.22 6.32v10.54c0-8.52 3.68-9.88 3.68-9.88V31l2.12-9.56-4.78 2-4-10.8-1.32 3.64-7.32-8.44 1.06 6.32a43.5 43.5 0 0 0-16.86-4.22l5.06 2.68A28 28 0 0 0 41.1 27.6z"/><path d="M83.04 22.58s-5.88 15.76-18.96 23.26l8.46-19.04s-8.46 16.86-16.9 21.04l10.54-18.96S57.76 41.5 49.32 45.7l4.22-12.62-4.22 4.22V20.46h33.7v2.12z"/></g><g fill="#444"><path d="M79.38 22.08a14.881 14.881 0 0 1-.6 4.62 20.203 20.203 0 0 1-1.76 4.32 15.584 15.584 0 0 1-2.92 3.64 20.603 20.603 0 0 1-3.56 2.84.46.46 0 0 1-.639-.125l-.022-.035a.52.52 0 0 1 0-.6 34.152 34.152 0 0 0 2.92-3.24 38.008 38.008 0 0 0 2.4-3.66 21.993 21.993 0 0 0 2-3.8 21.564 21.564 0 0 0 1.26-4.1.46.46 0 0 1 .523-.387l.037.007a.5.5 0 0 1 .36.52z"/><path d="M78.64 23.6a19.241 19.241 0 0 1-3.08 4.92 27.402 27.402 0 0 1-4.18 4 23.541 23.541 0 0 1-5.04 2.82 31.44 31.44 0 0 1-5.44 1.78.48.48 0 0 1-.579-.355l-.001-.005a.46.46 0 0 1 .22-.52 51.711 51.711 0 0 0 5.04-2.4c1.6-.88 3.06-2 4.56-2.98a32.802 32.802 0 0 0 4.18-3.46 24.621 24.621 0 0 0 3.48-4.16.48.48 0 0 1 .74-.2.44.44 0 0 1 .1.56zm-8.74-.68a24.004 24.004 0 0 1-4 5.24 36.798 36.798 0 0 1-5.14 4.16 31.062 31.062 0 0 1-6 2.86 41.493 41.493 0 0 1-6.28 1.8.46.46 0 0 1-.553-.343l-.007-.037a.48.48 0 0 1 .3-.54 58.835 58.835 0 0 0 5.84-2.48l5.48-3.06a41.3 41.3 0 0 0 5.1-3.62 28.722 28.722 0 0 0 4.38-4.44.48.48 0 0 1 .679-.001l.001.001a.48.48 0 0 1 .2.46z"/></g><path stroke="#d3a484" d="M65.94 73.42h4m-2.4 5.9h.5" class="B C F G"/><g fill="#343433"><circle cx="59.38" cy="53.28" r="1.48"/><circle cx="76.16" cy="53.28" r="1.48"/></g><defs><path id="B" d="M93.76 45.48a5.04 5.04 0 0 0-5.26-.8V38.5c0-10.78-4.7-20.12-20.7-20.12s-20.66 9.24-20.66 20v6.18a5.06 5.06 0 0 0-5.26.9c-2.38 2-2 5.44-1.3 9.34.82 4.9 4 9.1 8.44 7.02a32.312 32.312 0 0 0 0 4.82c.4 6 3.6 7.5 9.16 13.28a12.8 12.8 0 0 0 9.6 3.48 12.86 12.86 0 0 0 9.68-3.38c5.54-5.78 8.76-7.36 9.14-13.36a27.722 27.722 0 0 0-.06-4.82c4.44 2 7.64-2.12 8.46-7.02.72-3.9 1.14-7.44-1.24-9.34z"/></defs></svg>