<svg xmlns="http://www.w3.org/2000/svg" xmlns:xlink="http://www.w3.org/1999/xlink" viewBox="0 0 128 128"><g fill="#333"><path d="M69.74 67.432A24.893 24.893 0 1 1 94.412 42.54 24.812 24.812 0 0 1 69.74 67.432zm0-46.4A21.508 21.508 0 1 0 91.028 42.54 21.423 21.423 0 0 0 69.74 21.033z"/><use xlink:href="#B"/></g><path fill="#e6b790" d="M117 102.48a10.84 10.84 0 0 0-8.4-8.4L89 89.8l-6.64-1.18v-10.3h-25.2v10.26l-6.98 1.24-19.28 4.24a10.84 10.84 0 0 0-8.4 8.4l-1.06 4.22c.58.46 20.26 10.5 48.3 10.5s47.72-10 48.3-10.5z"/><path fill="#ddad8a" d="M69.74 102.36v14.82c28 0 47.72-10 48.3-10.5l-1.04-4.2a10.84 10.84 0 0 0-8.4-8.4L89 89.8c-2.2-.48-4.42-.86-6.64-1.18v-10.3h-25.2v7.36l10 10.34a9.5 9.5 0 0 1 2.58 6.34z"/><path fill="#d8ab8d" d="M87.44 95.18l12 2a65.674 65.674 0 0 0 7.68-3.48l-18.26-4-6.64-1.18a6.36 6.36 0 0 0 5.22 6.66z"/><path fill="#528bdd" d="M117 102.48a10.84 10.84 0 0 0-8.4-8.4l-17.88-4A55.18 55.18 0 0 1 78 105.44a12.88 12.88 0 0 1-16.42 0A55.562 55.562 0 0 1 48.8 90.08l-17.9 4a10.84 10.84 0 0 0-8.4 8.4l-1.06 4.2c.58.46 20.26 10.5 48.3 10.5s47.72-10 48.3-10.5z"/><path fill="#3f77d1" d="M118.04 106.68l-.38-1.54a11.44 11.44 0 0 0-7.8-6c-.1 0-16.38-3.08-22.34-4a54.925 54.925 0 0 1-9.54 10.3 12.88 12.88 0 0 1-16.42 0A54.358 54.358 0 0 1 52 95.12c-2.16.3-4.32.64-6.46 1.04l-16 3.02a11.44 11.44 0 0 0-7.8 6l-.4 1.52c.58.46 20.26 10.5 48.3 10.5s47.8-10.06 48.4-10.52z"/><g fill="#333"><use xlink:href="#B"/><path d="M69.74 118.68c-29.562 0-49.097-10.717-49.232-10.824a1.5 1.5 0 0 1-.523-1.543l1.06-4.2a12.311 12.311 0 0 1 9.548-9.501c8.893-1.977 26.08-5.408 26.252-5.442a1.5 1.5 0 0 1 .588 2.941l-26.21 5.434a9.344 9.344 0 0 0-7.256 7.241l-.784 3.107c4.114 1.97 22.052 9.787 46.556 9.787 24.89 0 42.555-7.82 46.563-9.777l-.76-3.062a9.358 9.358 0 0 0-7.25-7.291L82.1 90.118a1.5 1.5 0 0 1 .516-2.955c.067.012 6.897 1.215 26.303 5.452a12.333 12.333 0 0 1 9.549 9.56l1.027 4.145a1.5 1.5 0 0 1-.477 1.496c-1.066.92-21.397 10.864-49.28 10.864zm-48.3-12z"/><path d="M80.84 80.48h3v12.58h-3zm-25.2 2.06h3v10.52h-3z"/><path d="M55.54 72.64a8.52 8.52 0 0 0 .34-12 8.279 8.279 0 0 0-2.44-1.88 8.52 8.52 0 0 0-4 11.32 8.72 8.72 0 0 0 1.82 2.54 8.48 8.48 0 0 0-.331 11.988l.01.012.34.34a8.5 8.5 0 0 0-2.3 8.76 4.76 4.76 0 0 0 4.84 3.46 4.58 4.58 0 0 0 3.62-2.88 8.46 8.46 0 0 0-2-9.3 8.48 8.48 0 0 0 .331-11.988L55.76 73l-.34-.34z"/></g><path fill="#454749" d="M52.56 95.06a10.72 10.72 0 0 1 1.8-10c-2-2.88-3.74-6-1-10.14a2.72 2.72 0 0 0 0-3 8.299 8.299 0 0 1-1.4-4.68 8.54 8.54 0 0 1 3.58-6.94 8.563 8.563 0 0 0-2.22-1.56 8.52 8.52 0 0 0-4 11.34 8.761 8.761 0 0 0 1.86 2.58 8.5 8.5 0 0 0-.34 12l.34.34a8.5 8.5 0 0 0-2 9.32 4.54 4.54 0 0 0 5.14 2.82 4.38 4.38 0 0 1-1.76-2.08z"/><g fill="#333"><path d="M53.3 98.755a6.033 6.033 0 0 1-5.583-3.862 9.832 9.832 0 0 1 1.422-9.882 10.008 10.008 0 0 1 .006-12.331 10.132 10.132 0 0 1-1.188-1.915 10.015 10.015 0 0 1 4.707-13.339 1.5 1.5 0 0 1 1.293 0 10.002 10.002 0 0 1 3.558 15.261 10.006 10.006 0 0 1 .25 12.074.497.497 0 0 0 .014.558 10.089 10.089 0 0 1 1.177 9.734 6.081 6.081 0 0 1-5.146 3.682l-.508.02zm.013-38.27a7.011 7.011 0 0 0-2.651 8.984 7.134 7.134 0 0 0 1.542 2.124 1.5 1.5 0 0 1-.002 2.177 7 7 0 0 0-.266 9.897l.266.266a1.5 1.5 0 0 1-.006 2.184 6.898 6.898 0 0 0-1.734 7.566 3.133 3.133 0 0 0 3.111 2.064 3.044 3.044 0 0 0 2.652-1.937 7.083 7.083 0 0 0-.881-6.735 3.523 3.523 0 0 1-.021-4.054 7.008 7.008 0 0 0-.909-9.275 1.5 1.5 0 0 1 .33-2.437 7.041 7.041 0 0 0 .033-9.64 7.143 7.143 0 0 0-1.464-1.182z"/><path d="M53.32 97.9a13.84 13.84 0 0 0-6.54 6.58 4 4 0 0 0 1.813 5.358q.043.02.087.042a4 4 0 0 0 1.72.4h5.86a4.017 4.017 0 0 0 3.7-5.54 13.76 13.76 0 0 0-6.64-6.84z"/></g><path fill="#454749" d="M50.26 107.92a13.74 13.74 0 0 1 6.54-6.48 13.677 13.677 0 0 1 1.8 1.06 14 14 0 0 0-5.16-4.56 13.84 13.84 0 0 0-6.54 6.58 4 4 0 0 0 1.813 5.358q.043.02.087.042a4 4 0 0 0 1.24.36 4.34 4.34 0 0 1 .22-2.36z"/><g fill="#333"><path d="M50.35 111.76a5.521 5.521 0 0 1-2.436-.574 5.499 5.499 0 0 1-2.477-7.374 15.352 15.352 0 0 1 7.235-7.265 1.484 1.484 0 0 1 1.232-.028 13.923 13.923 0 0 1 7.491 7.693 5.735 5.735 0 0 1 .32 1.624 5.66 5.66 0 0 1-5.387 5.922l-5.93.002zm3.005-12.192a12.377 12.377 0 0 0-5.219 5.552 2.501 2.501 0 0 0 1.113 3.38 2.565 2.565 0 0 0 1.136.261h5.874a2.618 2.618 0 0 0 1.772-.865 2.651 2.651 0 0 0 .69-1.917 2.686 2.686 0 0 0-.141-.734 10.869 10.869 0 0 0-5.225-5.676z"/><path d="M55.92 100.34h-5.14a2.543 2.543 0 0 1-2.54-2.54v-.62a2.543 2.543 0 0 1 2.54-2.54h5.14a2.543 2.543 0 0 1 2.54 2.54v.62a2.543 2.543 0 0 1-2.54 2.54zm0-2.7z"/></g><path fill="#efc8a5" d="M69.74 23.74c16.88 0 22 9.64 22 21v4.2c3.64 0 4.8 3.58 4.2 8.4-.5 4.1-2.1 8.4-6.3 8.4v3.14c0 6.3-5.02 9.14-10.88 15.24a10 10 0 0 1-9.08 3.66 10.1 10.1 0 0 1-9.08-3.66c-5.86-6.1-10.88-8.94-10.88-15.24v-3.14c-4.2 0-5.8-4.3-6.3-8.4-.6-4.82.56-8.4 4.2-8.4v-4.2c.08-11.3 5.24-21 22.12-21z"/><path fill="#e6b790" d="M96 57.44c.6-4.82-.56-8.4-4.2-8.4v-4.2c0-11.36-5.16-21-22-21a35.195 35.195 0 0 0-5.64.42v22.22a7.8 7.8 0 0 1-2.54 5.76.9.9 0 0 0 .4 1.54c2 .52 3.3 1.2 3.76 3.04a.98.98 0 0 0 1.54.58 3.5 3.5 0 0 1 1.16-.64.98.98 0 0 1 1.22.96v3.72c0 2 2 2.22 1.88 4a2 2 0 0 1-1.82 1.5c-1.72 0-1.46-.8-2.78-.8a1.22 1.22 0 0 0-1.34 1.22c2 0 2 1.3 4 1.3v8.14a.8.8 0 0 0 .62.76 3.26 3.26 0 0 1 2.42 2.84c0 1.28-.72 2.62-3.04 3.08s-5.14-2-6.14 0v3.04a10.28 10.28 0 0 0 6.22 1.32 10.1 10.1 0 0 0 9.08-3.66c5.86-6.1 10.88-8.94 10.88-15.24v-3.2c4.22 0 5.76-4.3 6.32-8.3z"/><path fill="#ddad8a" d="M69.64 71.03a.65.65 0 0 1-.65-.65v-1.4a.65.65 0 0 1 1.301 0v1.4a.65.65 0 0 1-.651.65z"/><path fill="#333" d="M54.7 54.52a6.959 6.959 0 0 1 2.62-1.08 8.881 8.881 0 0 1 2.82 0 22.424 22.424 0 0 1 2.66.62 16.739 16.739 0 0 0 2.44.56 1.02 1.02 0 0 1-.22 2h-.14a18.239 18.239 0 0 1-2.64-1 23.797 23.797 0 0 0-2.4-.94 7.319 7.319 0 0 0-2.4-.32 3.82 3.82 0 0 0-2.3.76.36.36 0 1 1-.44-.56zm29.18.58a3.64 3.64 0 0 0-2.3-.74 8 8 0 0 0-2.44.4 23.797 23.797 0 0 0-2.4.94 15.76 15.76 0 0 1-2.66.98 1.04 1.04 0 0 1-1.22-.76 1.02 1.02 0 0 1 .76-1.22h.16a14.52 14.52 0 0 0 2.42-.54 22.419 22.419 0 0 1 2.66-.72 8.881 8.881 0 0 1 2.82 0 7.159 7.159 0 0 1 2.62 1.06.36.36 0 1 1-.42.58z"/><path fill="#ddad8a" d="M63.44 75.5a.651.651 0 0 1-.583-.937l.56-1.14a.65.65 0 0 1 1.166.574l-.56 1.14a.65.65 0 0 1-.582.363zm12.94 0a.649.649 0 0 1-.58-.356l-.58-1.14a.65.65 0 0 1 1.158-.59l.58 1.14a.651.651 0 0 1-.578.945z"/><path fill="#c6916d" d="M69.64 69.27a4.498 4.498 0 0 1-2.291-.569 3.257 3.257 0 0 0-1.709-.431.65.65 0 0 1 0-1.301 4.498 4.498 0 0 1 2.291.569 3.606 3.606 0 0 0 3.418 0 4.498 4.498 0 0 1 2.291-.569.65.65 0 1 1 0 1.301 3.257 3.257 0 0 0-1.709.431 4.498 4.498 0 0 1-2.291.569z"/><path fill="#ddab85" d="M71.44 71.94a3.68 3.68 0 0 1-1.56.4c-.4 0-.44 0-1.36-.4-1.6-.64-1.7 1.32-4.66 2.4l1.84 1.88a4.3 4.3 0 0 0 3.1 1.12h2a5 5 0 0 0 3.34-1.2l1.72-1.8c-2.78-1.02-2.8-3.04-4.42-2.4z"/><path fill="#c6916d" d="M69.896 75.025l-.204-.068a6.432 6.432 0 0 0-3.879-.201 9.334 9.334 0 0 1-1.913.235.65.65 0 1 1 0-1.301 8.213 8.213 0 0 0 1.66-.209 7.642 7.642 0 0 1 4.344.177 7.828 7.828 0 0 1 4.349-.173 8.155 8.155 0 0 0 1.648.205.65.65 0 0 1 0 1.301 9.28 9.28 0 0 1-1.899-.23 6.619 6.619 0 0 0-3.901.198z"/><g fill="#333"><ellipse cx="78.7" cy="58" rx="1.7" ry="1.2"/><ellipse cx="59.94" cy="58" rx="1.86" ry="1.2"/><path d="M68.628 89.355a11.858 11.858 0 0 1-9.192-4.359l-3.855-3.752c-4.1-3.847-7.34-6.885-7.34-12.343v-1.823c-2.423-.537-5.446-2.642-6.3-9.556-.465-3.738.1-6.623 1.604-8.337a5.036 5.036 0 0 1 2.586-1.565v-2.88c.036-10.268 4.16-22.5 23.6-22.5 19.423 0 23.5 12.235 23.5 22.5v2.88a5.036 5.036 0 0 1 2.586 1.565c1.514 1.715 2.068 4.6 1.602 8.34-.843 6.9-3.865 9.015-6.288 9.552V68.9c0 5.42-3.24 8.435-7.343 12.25-1.273 1.185-2.59 2.408-3.968 3.84a11.647 11.647 0 0 1-10.128 4.316 12.08 12.08 0 0 1-1.073.048zM69.74 25.24c-13.624 0-20.555 6.563-20.6 19.505v4.195a1.5 1.5 0 0 1-1.5 1.5 2.273 2.273 0 0 0-1.837.731c-.902 1.02-1.22 3.202-.875 5.983.395 3.234 1.55 7.085 4.813 7.085a1.5 1.5 0 0 1 1.5 1.5v3.16c0 4.16 2.543 6.545 6.393 10.155 1.216 1.142 2.596 2.435 4.01 3.906.03.03.057.063.083.095a8.867 8.867 0 0 0 7.823 3.252 1.572 1.572 0 0 1 .304 0 8.64 8.64 0 0 0 7.674-3.24c.03-.037.06-.072.093-.106 1.455-1.515 2.88-2.84 4.136-4.008 3.846-3.578 6.386-5.94 6.386-10.054v-3.16a1.5 1.5 0 0 1 1.5-1.5c3.263 0 4.417-3.85 4.81-7.08.348-2.785.03-4.967-.873-5.987a2.273 2.273 0 0 0-1.838-.732 1.5 1.5 0 0 1-1.5-1.5v-4.2c0-12.94-6.897-19.5-20.5-19.5z"/><path d="M69.74 19.44c-18 0-22.98 14.92-22.98 23.2 0 5.32 3.02 6.88 3.02 12.4 0-14.58 7.84-16.4 20-22.96 12.12 6.56 20 7.56 20 22.96 0-4.62 3.02-7.1 3.02-12.4-.08-8.36-4.98-23.2-23.06-23.2z"/><path d="M69.74 19.44c-18 0-22.98 14.92-22.98 23.18 0 7.24 3.02 9.1 3.02 14.64v-4.42c16.42-.1 21.86-4.68 26-10a1.36 1.36 0 0 1 2.16 0c2.16 2.96 5.38 5.54 11.68 7.64v6.7c0-4.62 3.02-7.4 3.02-14.64.08-8.26-4.82-23.1-22.9-23.1z"/><path d="M89.02 57.18a19.32 19.32 0 0 1 1.34-6.52 24.221 24.221 0 0 0 1.26-6 24.641 24.641 0 0 0-2.26-12 19.8 19.8 0 0 0-8-8.92 23.38 23.38 0 0 0-11.68-2.78 23.499 23.499 0 0 0-11.64 2.84 19.78 19.78 0 0 0-8 8.88 24.56 24.56 0 0 0-2.32 12 22.558 22.558 0 0 0 1.38 6 18 18 0 0 1 1.24 6.56.7.7 0 0 1-1.38 0 16.439 16.439 0 0 0-1.48-6 23.041 23.041 0 0 1-1.74-6.44 26.82 26.82 0 0 1 2-13.18 22 22 0 0 1 8.88-10.38 24.62 24.62 0 0 1 13.12-3.36 24.86 24.86 0 0 1 13.08 3.42 22.14 22.14 0 0 1 8.62 10.3 26.78 26.78 0 0 1 2.1 13.16 25.999 25.999 0 0 1-1.66 6.46 18.577 18.577 0 0 0-1.58 6 .7.7 0 0 1-.7.68.74.74 0 0 1-.58-.72z"/><path d="M49.12 57.18l-.2-4.32a.82.82 0 0 1 .778-.86h.102l7.62-.72a38.44 38.44 0 0 0 7.3-1.72 19.319 19.319 0 0 0 6.24-3.58 30.899 30.899 0 0 0 4.84-5.52 1.42 1.42 0 0 1 1.987-.29l.013.01a1.662 1.662 0 0 1 .4.44 16.62 16.62 0 0 0 4.9 5.52 29.181 29.181 0 0 0 6.86 3.5.92.92 0 0 1 .6.9l-.28 6.7a.7.7 0 0 1-1.38 0l-.3-6.7.84.9a30.859 30.859 0 0 1-7.62-3.3 18.741 18.741 0 0 1-6-6h2.44a25.841 25.841 0 0 1-5.32 6.18 22.001 22.001 0 0 1-7.3 3.82 49.282 49.282 0 0 1-15.76 1.62l.86-.88-.2 4.32a.68.68 0 0 1-1.34 0z"/></g><path fill="#528bdd" d="M46.42,47.44c16-11.38,31.7-11.12,47.7.78l.6-14.7a10.22,10.22,0,0,0-6.58-10L73.9,18.1a10.2,10.2,0,0,0-7.22,0L52.44,23.44a10.2,10.2,0,0,0-6.6,10Z"/><path fill="#3f77d1" d="M53.86,42.9c13.44-6.56,26.76-4.8,40.26,5.24l.6-14.68a10.26,10.26,0,0,0-2.76-7.36L81.68,22.22a10.2,10.2,0,0,0-7.22,0L60.24,27.56a10.2,10.2,0,0,0-6.6,10Z"/><path fill="#333" d="M94.12 49.72a1.5 1.5 0 0 1-.895-.297c-15.462-11.5-30.487-11.75-45.936-.76a1.501 1.501 0 0 1-2.368-1.16l-.58-14a11.673 11.673 0 0 1 7.57-11.467l14.242-5.34a11.695 11.695 0 0 1 8.276.001l14.244 5.42a11.701 11.701 0 0 1 7.546 11.468l-.6 14.696a1.5 1.5 0 0 1-1.499 1.438zm-24.4-12.062q11.525 0 23.004 7.74l.486-11.94a8.705 8.705 0 0 0-5.614-8.536l-14.24-5.42a8.693 8.693 0 0 0-6.156.001l-14.244 5.34a8.682 8.682 0 0 0-5.628 8.529l.47 11.315q10.92-7.03 21.923-7.03z"/><path fill="#b3bdc6" d="M92.5 53.3a4 4 0 0 1-2.44-.78c-11.2-8.6-29.4-8.6-40.6 0a4.24 4.24 0 0 1-4.9 0 2.26 2.26 0 0 1-.64-3.08 2 2 0 0 1 .64-.64c16.9-12.98 33.5-12.98 50.4 0a2.26 2.26 0 0 1 .64 3.12 2 2 0 0 1-.64.64 4 4 0 0 1-2.46.74z"/><path fill="#9aa6af" d="M69.74,44.1c-10.62,0-19.84,3.5-24.76,8.68a4.26,4.26,0,0,0,4.46-.28c11.2-8.6,29.4-8.6,40.6,0a4,4,0,0,0,2.44.78,4.22,4.22,0,0,0,2-.52C89.62,47.6,80.36,44.1,69.74,44.1Z"/><path fill="#333" d="M92.635 54.802c-.05 0-.1 0-.148-.002a5.463 5.463 0 0 1-3.317-1.073c-10.714-8.225-28.107-8.226-38.797-.018a5.765 5.765 0 0 1-6.68.035 3.738 3.738 0 0 1-1.041-5.107 3.503 3.503 0 0 1 1.044-1.065c17.3-13.26 34.843-13.258 52.142.012a3.769 3.769 0 0 1 1.017 5.159 3.474 3.474 0 0 1-1.104 1.092 5.432 5.432 0 0 1-3.116.968zM92.5 51.8l.137.002a2.519 2.519 0 0 0 1.453-.464.682.682 0 0 0 .236-.211.77.77 0 0 0-.196-1.078c-.028-.02-.057-.04-.084-.06-16.342-12.55-32.23-12.55-48.572 0a1.77 1.77 0 0 1-.121.084.495.495 0 0 0-.159.159.76.76 0 0 0 .209 1.046 2.756 2.756 0 0 0 3.191.017c11.65-8.947 30.684-8.945 42.38.035a2.465 2.465 0 0 0 1.502.47z"/><g fill="#4b9ae8"><circle cx="62.14" cy="31.5" r="1.94"/><circle cx="69.74" cy="31.5" r="1.94"/><circle cx="77.36" cy="31.5" r="1.94"/></g><defs><path id="B" d="M69.79 109.89a14.348 14.348 0 0 1-9.165-3.296 56.878 56.878 0 0 1-13.131-15.778l2.613-1.473a53.881 53.881 0 0 0 12.435 14.944 11.388 11.388 0 0 0 14.502-.004 53.508 53.508 0 0 0 12.369-14.842l2.613 1.475a56.521 56.521 0 0 1-13.065 15.675 14.363 14.363 0 0 1-9.172 3.299z"/></defs></svg>