<svg xmlns="http://www.w3.org/2000/svg" viewBox="0 0 128 128"><path d="M116.13 92.28c-1.88-5.64-4.94-8.28-9.4-9.4-15.62-3.9-16.14-3.66-39.48-3.66s-24-.1-39.48 3.76c-4.46 1.12-7.52 3.76-9.4 9.4l-1.88 5.54a140.18 140.18 0 0 0 50.76 9.5 141.102 141.102 0 0 0 50.76-9.5z" fill="#e4e9ea"/><path d="M107.55 89.22l-9.06-2.34a128.981 128.981 0 0 0-31.16-4 128.982 128.982 0 0 0-31.16 4l-9.22 2.34a11.86 11.86 0 0 0-8.46 8.12 122.48 122.48 0 0 0 48.8 10 122.48 122.48 0 0 0 48.8-10 11.86 11.86 0 0 0-8.54-8.12z" fill="#d3dbdd"/><path d="M96.1 88.14a25.199 25.199 0 0 1-5.14 10.12 18.679 18.679 0 0 1-4.46 3.7 18.34 18.34 0 0 1-5.28 2.24.431.431 0 0 1-.26-.82 21.622 21.622 0 0 0 4.66-2.7A29.338 29.338 0 0 0 89.49 97a31.999 31.999 0 0 0 5.76-9.12.42.42 0 0 1 .55-.224v.004a.44.44 0 0 1 .28.48zm10.07 2.44a24.279 24.279 0 0 1-8 10 22.838 22.838 0 0 1-5.68 2.88 25.702 25.702 0 0 1-6.22 1.4.42.42 0 0 1-.458-.378l-.002-.022a.44.44 0 0 1 .32-.46 31.785 31.785 0 0 0 5.78-2 35.455 35.455 0 0 0 5.2-3.06 28.421 28.421 0 0 0 8.28-8.76.42.42 0 0 1 .577-.142l.003.002a.42.42 0 0 1 .2.54zm5.86 2.76a16.62 16.62 0 0 1-5.42 7.12 14.281 14.281 0 0 1-4 2 17.597 17.597 0 0 1-4.4.92.426.426 0 0 1-.14-.84 22.24 22.24 0 0 0 4-1.5 26.457 26.457 0 0 0 3.52-2.18 20.481 20.481 0 0 0 5.76-6 .44.44 0 0 1 .6-.14.42.42 0 0 1 .08.62z" opacity=".15" fill="#333"/><path d="M67.22 108.83a141.034 141.034 0 0 1-51.239-9.596 1.411 1.411 0 0 1-.825-1.768l1.88-5.54c1.938-5.814 5.143-8.997 10.392-10.314 15.26-3.806 16.544-3.824 38.106-3.802l5.542-.001c19.52-.022 21.11-.014 35.997 3.703 5.25 1.318 8.456 4.502 10.395 10.322l1.88 5.64a1.41 1.41 0 0 1-.829 1.762 141.954 141.954 0 0 1-51.268 9.594zM18.26 97.088a138.223 138.223 0 0 0 48.957 8.922h.032a139.111 139.111 0 0 0 48.996-8.926l-1.452-4.357c-1.624-4.87-4.138-7.407-8.406-8.48-14.547-3.632-15.72-3.623-35.3-3.62l-5.544.002c-21.647.01-22.498-.003-37.42 3.718-4.266 1.07-6.78 3.607-8.404 8.48z" fill="#333"/><ellipse cx="67.19" cy="84.22" rx="28.84" ry="18.26" fill="#d3dbdd"/><path d="M80.5 81V67.84H54.1V81l-5.6 1.88a39.701 39.701 0 0 0 18.72 16.8c10-4.44 15.06-8.78 18.88-16.8z" fill="#ad8064"/><path d="M72.1 96.74a30.4 30.4 0 0 0 14-13.86L80.5 81V67.84H54.1V81z" fill="#a0775c"/><path d="M39.1 87.86a32.602 32.602 0 0 0 7.62 10.54 35.403 35.403 0 0 0 5.1 4 28.741 28.741 0 0 0 6 2.82.42.42 0 0 1 .262.533l-.002.007a.44.44 0 0 1-.48.28 25.179 25.179 0 0 1-6.46-2.3 23.601 23.601 0 0 1-5.64-4 27.742 27.742 0 0 1-7.1-11.62.376.376 0 1 1 .7-.26zm-10.13 2.32a28.201 28.201 0 0 0 8.28 8.76 35.467 35.467 0 0 0 5.24 3.06 29.007 29.007 0 0 0 5.78 2 .42.42 0 0 1 .325.497l-.005.023a.44.44 0 0 1-.46.32 24.802 24.802 0 0 1-6.22-1.4 22.201 22.201 0 0 1-5.72-2.96 24.421 24.421 0 0 1-8-10 .42.42 0 0 1 .21-.556v-.004a.48.48 0 0 1 .56.26zm-5.87 2.78a20.72 20.72 0 0 0 5.76 6 31.4 31.4 0 0 0 3.52 2.18 22.243 22.243 0 0 0 4 1.5.439.439 0 0 1-.14.86 16.921 16.921 0 0 1-4.4-.92 15.423 15.423 0 0 1-4-2 16.921 16.921 0 0 1-5.4-7.14.42.42 0 0 1 .228-.548l.032-.012a.4.4 0 0 1 .4.08z" opacity=".15" fill="#333"/><path d="M67.25 71.6c14.42 0 26.32 7.64 28 16.7a11.333 11.333 0 0 0 .2-2.18c0-10-12.62-18.26-28.2-18.26s-28.2 8.18-28.2 18.26a13.009 13.009 0 0 0 .2 2.18c1.68-9.08 13.56-16.7 28-16.7z" fill="#e4e9ea"/><g fill="#333"><path d="M95.45 86.17a1.41 1.41 0 0 1-1.41-1.41c0-11.436-13.84-15.5-26.8-15.5s-26.8 4.074-26.8 15.5a1.41 1.41 0 0 1-2.82 0c0-11.307 11.346-18.33 29.6-18.33s29.6 7.023 29.6 18.33a1.41 1.41 0 0 1-1.41 1.41zm-9.4-1.87a1.4 1.4 0 0 1-.476-.083l-5.567-1.855a1.41 1.41 0 0 1 .806-2.703l5.713 1.904a1.41 1.41 0 0 1-.476 2.737zm-37.277-.047l-.645-2.746a31.413 31.413 0 0 0 5.398-1.799l1.13 2.584a34.304 34.304 0 0 1-5.883 1.961z"/><path d="M49.67 82.18a41.22 41.22 0 0 0 20 17.3 50.78 50.78 0 0 0 26.46 3.74.819.819 0 0 1 .24 1.62 48.721 48.721 0 0 1-14 .2 53.561 53.561 0 0 1-13.62-3.52 47.081 47.081 0 0 1-12.26-7.16 41.442 41.442 0 0 1-9.3-10.78 1.42 1.42 0 0 1 2.42-1.46z"/></g><path d="M67.245 85.704l-.094-.01a6.937 6.937 0 0 1-4.349-2.174.94.94 0 1 1 1.376-1.281 5.064 5.064 0 0 0 3.077 1.575 4.869 4.869 0 0 0 3.059-1.567.94.94 0 0 1 1.392 1.264 6.737 6.737 0 0 1-4.368 2.184z" fill="#59402f" opacity=".24"/><path d="M66.8 98.94a49.838 49.838 0 0 0 10.52-6.92 33.618 33.618 0 0 0 7.48-9.82l2.46 1.36a36.099 36.099 0 0 1-8.5 10.16 52.676 52.676 0 0 1-11.24 6.7z" fill="#333"/><path d="M67.25 79.22c2.54 0 6.2.58 9.4-3.76 4.46-6 11.12-7.42 11.28-16.92 5.64 0 7.52-5.52 7.52-9.4 0-7.4-5.64-5.64-5.64-5.64v-7.62c.08-8.36-6.12-20.66-22.56-20.66S44.6 27.54 44.7 35.88v7.52s-5.64-1.76-5.64 5.64c0 3.88 1.88 9.4 7.52 9.4.16 9.5 6.82 10.92 11.28 16.92 3.2 4.34 6.86 3.86 9.4 3.86z" fill="#ad8064"/><path d="M89.8 43.4v-7.52c.08-8.36-6.12-20.66-22.56-20.66a27.998 27.998 0 0 0-6.32.7v23.3a4.3 4.3 0 0 1-4 4s6 0 8 4h2v6.88a3 3 0 0 0 1.26 2.28 2.005 2.005 0 0 1-1.26 3.56c-1.56 0-4.74-2.32-5.2-.26-.26 1.14 1.12 1.14 2.32 1.54a7.481 7.481 0 0 0 2.88.46v6.7a1.7 1.7 0 0 0 1.48 1.66 2.8 2.8 0 0 1 2.536 3.041q-.006.07-.016.14c0 5.34-9.32-.14-9.84 5a12.201 12.201 0 0 0 6.16.9c2.54 0 6.2.58 9.4-3.76 4.46-6 11.12-7.42 11.28-16.92 5.64 0 7.52-5.52 7.52-9.4 0-7.4-5.64-5.64-5.64-5.64z" fill="#a0775c"/><path d="M95.45 49.04c0-7.4-5.64-5.64-5.64-5.64-1.5.8-1.5 2.12-1.5 3.74v11.28c5.34-.26 7.14-5.58 7.14-9.38z" fill="#916953"/><path d="M39.05 49.04c0-7.4 5.64-5.64 5.64-5.64 1.5.8 1.5 2.12 1.5 3.74v11.28c-5.34-.26-7.14-5.58-7.14-9.38z" fill="#a0775c"/><path d="M63.37 51.22a5.6 5.6 0 1 1-5.6-5.6 5.6 5.6 0 0 1 5.6 5.6z" fill="#b29383"/><path d="M59.25 47.06a5.6 5.6 0 0 0-5.6 5.6A5.521 5.521 0 0 0 54.79 56a5.58 5.58 0 0 0 8.58-4.78 5.519 5.519 0 0 0-1.14-3.34 5.6 5.6 0 0 0-2.98-.82z" fill="#b7978a"/><path d="M63.17,49.9a5.54,5.54,0,0,0-1.44-2.58l-7.9,7.9a5.54,5.54,0,0,0,2.58,1.44Z" fill="#b79d95"/><circle cx="57.83" cy="49.66" r="1.42" fill="#6c7881"/><path d="M82.23 51.22a5.6 5.6 0 1 1-5.6-5.6 5.6 5.6 0 0 1 5.6 5.6z" fill="#b29383"/><path d="M78.13 47.06a5.6 5.6 0 0 0-5.6 5.6A5.521 5.521 0 0 0 73.67 56a5.58 5.58 0 0 0 8.58-4.78 5.519 5.519 0 0 0-1.14-3.34 5.7 5.7 0 0 0-2.98-.82z" fill="#b7978a"/><path d="M82.03,49.9a5.54,5.54,0,0,0-1.44-2.58l-7.9,7.9a5.54,5.54,0,0,0,2.58,1.44Z" fill="#b79d95"/><circle cx="76.59" cy="49.66" r="1.42" fill="#6c7881"/><g fill="#333"><path d="M57.77 57.76a6.541 6.541 0 1 1 6.54-6.541 6.548 6.548 0 0 1-6.54 6.541zm0-11.2a4.66 4.66 0 1 0 4.66 4.659 4.665 4.665 0 0 0-4.66-4.66zm18.86 11.2a6.541 6.541 0 1 1 6.54-6.541 6.548 6.548 0 0 1-6.54 6.541zm0-11.2a4.66 4.66 0 1 0 4.66 4.659 4.665 4.665 0 0 0-4.66-4.659z"/><path d="M63.25 54.56a.94.94 0 0 1-.94-.941 4.946 4.946 0 0 1 4.94-4.936h.004a4.948 4.948 0 0 1 4.935 4.936.94.94 0 0 1-.939.941.94.94 0 0 1-.941-.939 3.064 3.064 0 0 0-3.057-3.057h-.002a3.064 3.064 0 0 0-3.06 3.057.94.94 0 0 1-.94.939z"/></g><path d="M51.9 44.98a7.36 7.36 0 0 1 2.6-2 8.001 8.001 0 0 1 3.34-.72 7.639 7.639 0 0 1 3.26.82 7.718 7.718 0 0 1 2.68 2 .44.44 0 0 1-.58.62 8.18 8.18 0 0 0-2.6-1.14 14.738 14.738 0 0 0-2.78-.38 7.78 7.78 0 0 0-5.28 1.52.42.42 0 0 1-.588-.083l-.012-.017a.44.44 0 0 1-.04-.62zm30.1.6a7.78 7.78 0 0 0-5.28-1.52 14.741 14.741 0 0 0-2.78.38 8.183 8.183 0 0 0-2.6 1.14.42.42 0 0 1-.586-.099l-.014-.02a.46.46 0 0 1 0-.5 7.72 7.72 0 0 1 2.68-2 8.002 8.002 0 0 1 3.26-.82 8.359 8.359 0 0 1 3.34.72 7.02 7.02 0 0 1 2.6 2 .42.42 0 0 1 .006.594l-.006.006a.4.4 0 0 1-.52 0z" fill="#b2b2b2"/><path d="M71 68.78H63.5a.94.94 0 0 1 0-1.881H71a.94.94 0 0 1 0 1.881z" fill="#a17261"/><path d="M67.25 62.95a3.776 3.776 0 0 1-2.509-.992 6.841 6.841 0 0 0-1.547-.948.75.75 0 0 1 .593-1.379 8.364 8.364 0 0 1 1.861 1.132 2.324 2.324 0 0 0 1.603.688 2.246 2.246 0 0 0 1.554-.673 7.679 7.679 0 0 1 1.925-1.152.75.75 0 1 1 .563 1.391 6.257 6.257 0 0 0-1.575.951 3.683 3.683 0 0 1-2.467.983z" fill="#674848"/><path d="M68.2 72.35H66.3a.75.75 0 0 1 0-1.5h1.88a.75.75 0 0 1 0 1.5z" fill="#997059"/><path d="M68.986 80.655c-.336 0-.657-.007-.96-.014l-1.446-.005c-2.59.048-6.514.105-9.864-4.44a29.678 29.678 0 0 0-4.479-4.556c-3.205-2.8-6.51-5.71-7.014-11.888-5.2-.758-7.583-5.905-7.583-10.714 0-2.945.82-5.043 2.44-6.233a5.389 5.389 0 0 1 3.2-.995v-5.93a22.066 22.066 0 0 1 6.354-15.376c4.338-4.38 10.43-6.694 17.616-6.694s13.285 2.314 17.62 6.692a22.072 22.072 0 0 1 6.349 15.391v6.02a5.383 5.383 0 0 1 3.201.995c1.62 1.19 2.44 3.287 2.44 6.233 0 4.81-2.384 9.957-7.583 10.715-.502 6.177-3.81 9.076-7.013 11.887a29.669 29.669 0 0 0-4.482 4.56 9.952 9.952 0 0 1-8.796 4.354zM67.25 77.8a35.68 35.68 0 0 1 .838.013c2.342.056 4.986.1 7.427-3.2a31.949 31.949 0 0 1 4.89-5.002c3.36-2.948 6.017-5.277 6.115-11.104a1.41 1.41 0 0 1 1.409-1.387c4.823 0 6.1-5.023 6.1-8 0-1.374-.224-3.177-1.3-3.96a3.265 3.265 0 0 0-2.52-.333A1.41 1.41 0 0 1 88.4 43.5v-7.62a19.473 19.473 0 0 0-5.532-13.394c-3.795-3.83-9.195-5.856-15.618-5.856s-11.816 2.025-15.612 5.858a19.466 19.466 0 0 0-5.537 13.378V43.4a1.41 1.41 0 0 1-1.83 1.346 3.249 3.249 0 0 0-2.533.343c-1.056.8-1.277 2.585-1.277 3.952 0 2.968 1.287 7.99 6.1 7.99a1.41 1.41 0 0 1 1.41 1.387c.098 5.828 2.754 8.157 6.116 11.106a31.938 31.938 0 0 1 4.886 4.998c2.492 3.38 5.183 3.335 7.553 3.298l.715-.007z" fill="#333"/><path d="M59.57 65.64l3.58-1.84a5.04 5.04 0 0 1 2.32-.24 8.482 8.482 0 0 0 1.78.28 10.661 10.661 0 0 0 1.76-.3 4.9 4.9 0 0 1 2.34.24l3.6 1.78a.44.44 0 0 1-.32.8l-3.72-1.1a3.719 3.719 0 0 0-1.56 0 5.541 5.541 0 0 1-2 .42 6.72 6.72 0 0 1-2-.46 3.521 3.521 0 0 0-1.58 0l-3.7 1.16a.46.46 0 0 1-.54-.28.44.44 0 0 1 .04-.46z" fill="#ccc"/><path d="M54.1 82.4a1.41 1.41 0 0 1-1.42-1.4v-9.4a1.41 1.41 0 0 1 2.82 0V81a1.411 1.411 0 0 1-1.41 1.41zm26.3 0A1.41 1.41 0 0 1 79 81v-9.4a1.41 1.41 0 0 1 2.82 0V81a1.41 1.41 0 0 1-1.41 1.41z" fill="#333"/><path d="M69.5 67.34a10.942 10.942 0 0 0-2.26.3 13.285 13.285 0 0 0-2.28-.3c-1.66 0-2 .62-3.88.64l2 1.48a3.62 3.62 0 0 0 2.24.82h3.64a3.62 3.62 0 0 0 2.24-.82l2.18-1.42c-1.72-.02-2.16-.7-3.88-.7z" fill="#916953"/><path d="M73.45 68.34a5.999 5.999 0 0 1-1.68-.1 12.46 12.46 0 0 0-1.48-.32 10.002 10.002 0 0 0-2.92.36h-.26a11.3 11.3 0 0 0-2.88-.34 12.834 12.834 0 0 0-1.5.28 5.142 5.142 0 0 1-1.66 0 .32.32 0 0 1-.28-.34.34.34 0 0 1 .28-.28 8.36 8.36 0 0 0 1.44-.3 11.625 11.625 0 0 1 1.54-.5 7.999 7.999 0 0 1 3.32.12h-.28a8.981 8.981 0 0 1 3.4-.04 21.618 21.618 0 0 0 3 .84.3.3 0 0 1 .28.319v.001a.32.32 0 0 1-.32.3z" fill="#674848"/></svg>