<svg xmlns="http://www.w3.org/2000/svg" viewBox="0 0 128 128"><path d="M117.445 98.14a14.34 14.34 0 0 0-11.02-10.5c-6.6-1.56-19.14-1.32-42-1.32s-35.3-.2-42 1.36a14.34 14.34 0 0 0-11.02 10.5l-1.58 4.94s21.7 12.6 54.6 12.6 54.6-12.6 54.6-12.6z" fill="#378ca4"/><path d="M104.765 94.5h-80.74a10.32 10.32 0 0 0-6.58 2.28l-7.62 6.34a124.46 124.46 0 0 0 54.6 12.6 124.46 124.46 0 0 0 54.6-12.6l-7.6-6.24a10.52 10.52 0 0 0-6.66-2.38z" fill="#2e7a90"/><path d="M94.305 44.54c-2.18-7.56-4-11.14-6.26-17.9-2.98-9.16-7.16-14-12.74-15.02a14.68 14.68 0 0 0-13.32 4.7s-10.16-12-19.38 5.14c-3.48 7.32-10.84 24.96-10 33.32.68 7.16 7.14 12 7.14 12a5.3 5.3 0 0 1-5.06 3.08 8.6 8.6 0 0 0 8.64 4.88 12.9 12.9 0 0 0 .8 8.86h40.64a12.9 12.9 0 0 0 .78-8.86c6.18.8 8.66-2 8.66-2a11.839 11.839 0 0 1-3.78-3.54 28.78 28.78 0 0 0 3.88-24.66z" fill="#6b4932"/><path d="M84.727 85.02a1.501 1.501 0 0 1-1.439-1.929 38.428 38.428 0 0 0 1.443-7.507l.156-1.723 1.683.398c4.688 1.1 6.486-1.775 6.56-1.898a1.5 1.5 0 0 1 2.598 1.501 8.291 8.291 0 0 1-8.186 3.602 41.487 41.487 0 0 1-1.379 6.485 1.501 1.501 0 0 1-1.436 1.072z" fill="#333"/><path d="M49.825 73.76v8.4c0 12.58 5.48 13.14 14.64 23.06 9.18-10 14.66-10.48 14.66-23.06v-8.4z" fill="#edccc3"/><path d="M79.025 82.16v-8.4h-29.2v2l21.4 23.2c4.98-5.6 7.8-7.78 7.8-16.8z" fill="#e5c4bd"/><path d="M64.425 82.12c2.6 0 7.26.9 10.56-3.48 4.46-6 9.04-4.58 9.24-17.1a7.04 7.04 0 0 0 6.66-6.26c.6-3.78 1-7.16-1.1-8.96-1.58-1.48-2.28-1.58-3.58-1.1l.2-8.34c0-11.04-5.52-20-22-20s-22 9.14-22 20.18c0 2.58.2 8.34.2 8.34-1.3-.48-2-.38-3.58 1.1-2 1.8-1.6 5.18-1.1 8.96a7.04 7.04 0 0 0 6.66 6.26c.2 12.42 4.68 10.94 9.24 17.1 3.3 4.2 8 3.3 10.6 3.3z" fill="#edccc3"/><path d="M89.825 46.32c-1.58-1.48-2.28-1.58-3.58-1.1l.2-8.34c0-11.04-5.52-20-22-20a34.192 34.192 0 0 0-6.54.6v25.2c-.1 1.52-.94 1.82-2.14 2.6a.58.58 0 0 0 .22 1.04c2 .4 4.84 1.18 6 3.06a.4.4 0 0 0 .566.014l.014-.014c1.04-1.2 2-.9 2-.24v7.9s1.02.1 1.24 1.66c.18 1.2 0 2-1.24 2-1.62 0-2.48-1.14-4.68-1.14-1.3 0-.72 2-.76 2 .76 0 1.44-.62 2-.26a6.82 6.82 0 0 0 3.3.86v6.62a3.136 3.136 0 0 0 .1.6h-7.7l1.52 3.48a2.14 2.14 0 0 0 2.38 1.28 20.372 20.372 0 0 1 3.7-.32 21.734 21.734 0 0 1 4 .34h.24a4.243 4.243 0 0 1 .24 1.44c0 6-10.84-.58-10.88 6v.22a19.521 19.521 0 0 0 6.44.42c2.6 0 7.26.9 10.56-3.48 4.46-6 9.04-4.58 9.24-17.1a7.04 7.04 0 0 0 6.66-6.26c.56-3.9.9-7.28-1.1-9.08zm-31.44 13.2a5.44 5.44 0 0 0-2.76 1.2 7.06 7.06 0 0 0-2.66 4.68 13.52 13.52 0 0 0-4.94-7.28 7.28 7.28 0 0 1-3-6.5v-2a6 6 0 0 0-2.16-4.34l-.24-.12c-1.3-.48-2-.38-3.58 1.1-2 1.8-1.6 5.18-1.1 8.96a7.04 7.04 0 0 0 6.66 6.26c.2 12.42 4.68 10.94 9.24 17.1a8.68 8.68 0 0 0 1.66 1.66c-1.02-2.66-2.86-8.54-1.34-13.54a18.278 18.278 0 0 1 1.38-2.98 19.276 19.276 0 0 1 2.98-4.2h-.14z" fill="#e5c2ba"/><path d="M70.565 59.52a5.3 5.3 0 0 1 2.74 1.2 7.559 7.559 0 0 1 1.84 2.16 7.781 7.781 0 0 1 .82 2.52 13.66 13.66 0 0 1 4.92-7.28 7.28 7.28 0 0 0 2.94-6.5v-2a6 6 0 0 1 2.16-4.34 1.497 1.497 0 0 0 .26-.12c1.3-.48 2-.38 3.58 1.1 2 1.8 1.6 5.18 1.1 8.96a7.04 7.04 0 0 1-6.66 6.26c-.2 12.42-4.68 10.94-9.24 17.1a9.224 9.224 0 0 1-1.64 1.66c1.02-2.66 2.84-8.54 1.34-13.54a22.399 22.399 0 0 0-1.38-2.98 20.736 20.736 0 0 0-2.98-4.2h.2z" fill="#ddb9b3"/><path d="M64.385 65.38a1 1 0 0 1-1-1v-1.4a1 1 0 0 1 2 0v1.4a1 1 0 0 1-1 1z" fill="#d8b3ad"/><path d="M64.465 63.45a5.06 5.06 0 0 1-2.773-.909 1.94 1.94 0 0 0-2.232-.285.791.791 0 0 1-.669-1.434 3.475 3.475 0 0 1 3.716.363 3.151 3.151 0 0 0 3.918.001 3.506 3.506 0 0 1 3.733-.365.791.791 0 0 1-.664 1.437 1.969 1.969 0 0 0-2.257.287 5.066 5.066 0 0 1-2.772.906z" fill="#b58985"/><path d="M89.825 46.32c-1.58-1.48-2.28-1.58-3.58-1.1l.2-8.34c0-11.04-5.52-20-22-20s-22 9.14-22 20.18c0 2.58.2 8.34.2 8.34-1.3-.48-2-.38-3.58 1.1-1.9 1.7-1.64 4.84-1.18 8.4 11.14-5.48 14.52-6.28 16-22 .3-2.68 2.9-3.88 5.68-4a35.657 35.657 0 0 1 5.66-.1 4.34 4.34 0 0 1 3.88 3.38c1.1 5.08 2.38 11.54 9.74 15.22 9.26 4.68 8.86 8 10.74 10.54a3.198 3.198 0 0 0 .26.3 7.281 7.281 0 0 0 .98-2.84c.66-3.9 1-7.28-1-9.08z" fill="#e5c2ba"/><path d="M89.825 46.32c-1.58-1.48-2.28-1.58-3.58-1.1l.2-8.34c0-11.04-5.52-20-22-20a23.079 23.079 0 0 0-3.38.16h-.24a15.547 15.547 0 0 0-2.94.42V29.1a9.862 9.862 0 0 1 1.74-.24 35.657 35.657 0 0 1 5.66-.1 4.34 4.34 0 0 1 3.88 3.38c1.1 5.08 2.38 11.54 9.74 15.22 9.26 4.68 8.86 8 10.74 10.54a3.198 3.198 0 0 0 .26.3 6.821 6.821 0 0 0 .6-1.28v-.1a7.062 7.062 0 0 0 .34-1.46c.64-3.86.98-7.24-1.02-9.04z" fill="#ddb9b3"/><path d="M59.585 50.06l-2.8-.7a17.995 17.995 0 0 0-2.72-.46 16.319 16.319 0 0 0-2.7-.4 6.119 6.119 0 0 0-2.56.44.46.46 0 0 1-.617-.206.468.468 0 0 1-.023-.054.5.5 0 0 1 .12-.54 5.999 5.999 0 0 1 2.98-1.3 9.877 9.877 0 0 1 3.16 0 11.998 11.998 0 0 1 2.96.92 17.876 17.876 0 0 1 2.64 1.48.48.48 0 0 1 .13.666l-.01.014a.48.48 0 0 1-.56.14zm-15 2.38l-.16-5.14a20.574 20.574 0 0 1 0-2.72 14.176 14.176 0 0 1 .56-2.74 19.183 19.183 0 0 0 .84-4.76v-3.74a7.653 7.653 0 0 1 .1-1.52 9.259 9.259 0 0 1 2.8-5.4 14.938 14.938 0 0 1 4.9-3.08 29.819 29.819 0 0 1 10.74-2 28.3 28.3 0 0 1 10.76 2 15.38 15.38 0 0 1 4.9 2.98 9.62 9.62 0 0 1 2.8 5.44 9.642 9.642 0 0 1 0 1.52v3.74a19.197 19.197 0 0 0 .86 4.76 15.817 15.817 0 0 1 .74 2.74 20.574 20.574 0 0 1 0 2.72l-.22 5.14a.9.9 0 0 1-.938.86h-.002a.92.92 0 0 1-.88-.86l-.22-5.14a12.442 12.442 0 0 0-.78-4.68 21.702 21.702 0 0 1-1.26-5.26c-.12-.9-.18-1.78-.22-2.66v-1.3a4.48 4.48 0 0 0-.08-1.02 8.18 8.18 0 0 0-6-5.54 30.959 30.959 0 0 0-9.36-1.5 29.497 29.497 0 0 0-9.42 1.42 8.18 8.18 0 0 0-5.92 5.62 8.668 8.668 0 0 0-.14 1.04v1.3a12.001 12.001 0 0 1-.2 2.66 23.722 23.722 0 0 1-1.26 5.26 12 12 0 0 0-.82 4.68l-.28 5.14a.9.9 0 0 1-.938.86h-.002a.9.9 0 0 1-.9-.86zM61.65 83.7c-2.712 0-6.285-.492-9.004-3.953a21.826 21.826 0 0 0-3.78-3.863C46 73.438 43.487 71.3 43.123 63.04a8.499 8.499 0 0 1-6.689-7.415c-.5-3.854-1.04-7.873 1.6-10.24a5.446 5.446 0 0 1 3.025-1.718l-.143-6.607c0-13.98 8.346-21.68 23.5-21.68s23.5 7.636 23.5 21.5c0 1.695-.083 4.7-.143 6.607a5.511 5.511 0 0 1 3.048 1.738c2.8 2.405 2.114 6.777 1.556 10.3a8.461 8.461 0 0 1-6.679 7.344c-.365 8.374-2.904 10.5-5.823 12.965a20.976 20.976 0 0 0-3.675 3.711c-3.335 4.426-7.927 4.23-10.673 4.118a24.86 24.86 0 0 0-2.218.001c-.496.022-1.052.046-1.65.046zM41.48 46.65c-.332 0-.663.228-1.43.946-1.478 1.33-1.05 4.552-.64 7.67a5.526 5.526 0 0 0 5.245 4.959 1.499 1.499 0 0 1 1.428 1.474c.13 7.996 1.957 9.55 4.724 11.902a24.629 24.629 0 0 1 4.223 4.329c2.34 2.98 5.557 2.84 8.14 2.73a26.47 26.47 0 0 1 2.474-.002c2.57.1 5.764.242 8.144-2.918a23.783 23.783 0 0 1 4.146-4.21c2.707-2.276 4.663-3.92 4.792-12.012a1.5 1.5 0 0 1 1.429-1.474 5.514 5.514 0 0 0 5.239-4.926c.55-3.48.88-6.4-.585-7.657-1.228-1.15-1.375-1.092-2.084-.83a1.5 1.5 0 0 1-2.019-1.46l.2-8.288c0-12.276-6.897-18.5-20.5-18.5s-20.5 6.285-20.5 18.68c0 2.524.197 8.23.2 8.288a1.5 1.5 0 0 1-2.019 1.459 1.828 1.828 0 0 0-.606-.159z" fill="#333"/><path d="M94.705 63.92a35.64 35.64 0 0 0-.4-19.38c-2.18-7.56-4-11.14-6.26-17.9-2.98-9.16-7.16-14-12.74-15.02a14.68 14.68 0 0 0-13.32 4.7s-10.16-12-19.38 5.14c-3.48 7.16-10.64 24.46-10 32.92l1.48 5.94 1.74-2.76c3.38-8.36 12.92-4.78 15.3-22 1.1-8.14 5.78-9.64 12.24-9.84 0 0 8.54-.7 10 9.64 1.88 14.32 19.38 10 18.2 29.84z" fill="#6b4932"/><path d="M60.925 25.48a9.86 9.86 0 0 1 6.9.58 11.48 11.48 0 0 1 5.16 5.06 20.34 20.34 0 0 1 1.4 3.34 24.915 24.915 0 0 0 1.08 3.06 16.421 16.421 0 0 0 3.54 5.04c2.94 2.94 7.36 4.9 10.34 8.98a14.839 14.839 0 0 1 1.72 3.24 15.6 15.6 0 0 1 .76 3.54 21.059 21.059 0 0 1-.36 6.92c-.36-4.54-1.28-9.06-4-12.18s-7-4.88-10.52-8.34a16.5 16.5 0 0 1-4-6.14 28.001 28.001 0 0 1-.98-3.42 15.563 15.563 0 0 0-.94-3.02 10.8 10.8 0 0 0-3.84-4.86 10.56 10.56 0 0 0-6.26-1.8z" fill="#333"/><path d="M59.105 14.32a11.5 11.5 0 0 0-4.98-2c-3.48 0-7.64 1.78-11.62 9.24-3.48 7.06-10.68 24.36-10 32.76l1.32 5.42c1.4-13.82 8.16-31.12 10.94-36.78 5.2-9.26 10.56-9.84 14.34-8.64z" fill="#826149"/><path d="M77.565 73.76h3v14.62h-3z" fill="#333"/><path d="M62.785 16a3.8 3.8 0 0 0 4.28 0 14.42 14.42 0 0 1 11.24-2.78 7.997 7.997 0 0 1 2.12.68 12.2 12.2 0 0 0-6.36-3.38A14.7 14.7 0 0 0 60.925 15c.66.3 1.26.7 1.86 1z" fill="#826149"/><path d="M39.744 68.08a1.495 1.495 0 0 1-.898-.299c-.285-.214-7-5.327-7.733-13.06-1.01-10.7 10.03-33.877 10.14-34.1 3.353-6.23 7.24-9.587 11.585-10.04 5.845-.605 10.114 4.35 10.293 4.56a1.5 1.5 0 0 1-2.288 1.94c-.034-.04-3.44-3.965-7.713-3.514-3.29.352-6.388 3.183-9.204 8.414C39.78 30.62 33.41 47.157 34.1 54.44c.6 6.424 6.486 10.896 6.546 10.94a1.5 1.5 0 0 1-.9 2.701z" fill="#333"/><circle cx="55.205" cy="51.76" r="1.5" fill="#3a3a3a"/><path d="M68.985 49.18a17.871 17.871 0 0 1 2.64-1.48 11.999 11.999 0 0 1 2.98-.92 9.781 9.781 0 0 1 3.14 0 6 6 0 0 1 2.98 1.3.48.48 0 0 1 .001.679l-.001.001a.5.5 0 0 1-.56.12 6 6 0 0 0-2.56-.44 16.627 16.627 0 0 0-2.7.4 18.39 18.39 0 0 0-2.72.46l-2.8.7a.5.5 0 0 1-.6-.34.54.54 0 0 1 .2-.48z" fill="#333"/><circle cx="73.765" cy="51.76" r="1.5" fill="#3a3a3a"/><g fill="#333"><path d="M90.425 70.7a1.5 1.5 0 0 1-1.025-2.594c.358-.34 8.73-8.472 3.492-23.286l-2.594-7.375L86.62 26.8c-2.77-8.513-6.558-13.095-11.584-14.014a13.105 13.105 0 0 0-11.934 4.206 1.5 1.5 0 1 1-2.233-2.003A16.115 16.115 0 0 1 75.55 9.82c6.236 1.14 10.782 6.384 13.922 16.036l3.653 10.584 2.6 7.4c5.915 16.725-3.857 26.078-4.276 26.468a1.498 1.498 0 0 1-1.023.402zm-46.42 13.52a1.5 1.5 0 0 1-1.378-.906 14.159 14.159 0 0 1-1.043-7.338 10.748 10.748 0 0 1-8.462-5.371 1.5 1.5 0 0 1 2.604-1.49 7.752 7.752 0 0 0 7.522 3.854l2.17-.227-.566 2.108a11.15 11.15 0 0 0 .528 7.276 1.5 1.5 0 0 1-1.376 2.094z"/><path d="M42.065 64.32a5.78 5.78 0 0 1-2.12 4.64 11.681 11.681 0 0 1-4.92 2.34 1.533 1.533 0 0 1-.72-2.98h.46a9.26 9.26 0 0 0 4.36-.6 5 5 0 0 0 2.94-3.4zm45.76 2a5.2 5.2 0 0 0 2.58 3.8 11.161 11.161 0 0 0 4.34 1.52 1.52 1.52 0 0 1-.48 3l-.44-.32a13.659 13.659 0 0 1-4.42-3.26 6 6 0 0 1-1.58-4.74zm-23.4 50.9c-32.925 0-54.452-12.28-55.353-12.803a1.499 1.499 0 0 1-.677-1.751l1.58-4.98A17.016 17.016 0 0 1 22.06 86.185c1.803-.45 16.285-1.397 19.17-1.582l.2 2.994c-6.574.422-17.446 1.202-18.633 1.498a14.009 14.009 0 0 0-9.947 9.48l-1.2 3.813c4.698 2.427 24.72 11.832 52.794 11.832 28.12 0 48.105-9.403 52.795-11.832l-1.204-3.795a14.016 14.016 0 0 0-9.956-9.499c-.976-.242-6-.558-10.036-.812-4.88-.308-7.917-.507-8.84-.722l.682-2.922c.726.17 4.95.436 8.346.65 5.637.355 9.417.6 10.573.895a17.027 17.027 0 0 1 12.096 11.521l1.574 4.96a1.499 1.499 0 0 1-.677 1.751c-.9.523-22.428 12.803-55.354 12.803z"/><path d="M62.925 103.12h3v12.6h-3z"/></g><path d="M41.325 86.1v17.02l14.7-6.34c-6.32-6.3-6.2-8.62-6.2-17.02zm46.2 0v17.02l-14.76-6.34c6.34-6.3 6.36-8.62 6.36-17.02z" fill="#378ca4"/><g fill="#333"><path d="M64.365 106.72a1.495 1.495 0 0 1-1.031-.411l-2.45-2.307-5.5-5.336-13.576 5.83a1.5 1.5 0 0 1-2.092-1.378V86.1a1.502 1.502 0 0 1 .6-1.2l8.4-6.3a1.5 1.5 0 0 1 2.4 1.2c0 10.923 3.22 13.943 11.83 22.014q.694.65 1.432 1.344.7-.668 1.38-1.294c8.644-8.093 11.878-11.12 11.878-22.065a1.5 1.5 0 0 1 2.4-1.2l8.4 6.3a1.502 1.502 0 0 1 .6 1.2v16.98a1.5 1.5 0 0 1-2.091 1.379l-13.552-5.81c-1.586 1.66-3.444 3.4-5.585 5.404l-2.4 2.256a1.498 1.498 0 0 1-1.03.41zm-21.66-19.87v13.993l10.564-4.537c-3.047-3.728-4.694-7.502-5.076-13.57zm32.778 9.438l10.542 4.518V86.85l-5.487-4.115c-.38 6.054-2.023 9.832-5.055 13.552z"/><path d="M48.165 73.72h3v8.44h-3z"/></g><g fill="#d8b3ad"><path d="M66.485 66.32c-.68 0-1.3.42-2 .44s-.52-.22-1.74-.44c-2.16-.4-4.44 2.2-6 2.62l2.32 2a5.88 5.88 0 0 0 3.74 1.5h2.58a8.16 8.16 0 0 0 4.62-1.5l2.18-2c-3.16-1.06-3.16-2.9-5.7-2.62z"/><path d="M56.825 70.93a.75.75 0 0 1-.75-.75V68.5a.75.75 0 0 1 1.5 0v1.68a.75.75 0 0 1-.75.75zm15 0a.75.75 0 0 1-.75-.75V68.5a.75.75 0 0 1 1.5 0v1.68a.75.75 0 0 1-.75.75z"/></g><path d="M71.825 69.98a8.876 8.876 0 0 1-2.586-.415 7.63 7.63 0 0 0-2.214-.365 15.411 15.411 0 0 0-2.458.308l-.12.025-.122-.025a15.699 15.699 0 0 0-2.523-.309 8.98 8.98 0 0 0-2.186.327 11.216 11.216 0 0 1-2.83.394.6.6 0 0 1 0-1.2 10.073 10.073 0 0 0 2.552-.361A10.104 10.104 0 0 1 61.825 68a16.935 16.935 0 0 1 2.619.308A16.626 16.626 0 0 1 67 68h.004a8.742 8.742 0 0 1 2.556.409 7.78 7.78 0 0 0 2.266.371.6.6 0 0 1 0 1.2z" fill="#af8582"/><g fill="#333"><path d="M56.005 26.84a22 22 0 0 1 9.82-3.8 11.019 11.019 0 0 1 5.66.9 13.199 13.199 0 0 1 4.34 3.68c2.22 2.94 3.62 6 5.52 8.68a17.44 17.44 0 0 0 7.58 6.18 13.68 13.68 0 0 1-9.4-4.7c-2.48-2.66-4-5.82-6-8.3a10.941 10.941 0 0 0-3.32-3 9.599 9.599 0 0 0-4.38-1.1 38.897 38.897 0 0 0-9.82 1.46z"/><path d="M68.745 27.74a36.779 36.779 0 0 0-9.78-.76 9.12 9.12 0 0 0-7.14 4.6c-1.68 2.58-2.76 5.8-4.54 8.82a14.921 14.921 0 0 1-3.4 4.12 8.38 8.38 0 0 1-4.88 1.88 12 12 0 0 0 6.18-7.06 63.996 63.996 0 0 1 4.12-9.38 11.999 11.999 0 0 1 4-4 10.64 10.64 0 0 1 5.48-1.34 20.68 20.68 0 0 1 9.96 3.12z"/><path d="M35.825 57.56a10.32 10.32 0 0 1 2.8-5.1c1.42-1.4 2.98-2.5 4.26-3.72a21.781 21.781 0 0 0 5.42-8.98c.66-1.7 1.1-3.42 1.64-5.28a19.36 19.36 0 0 1 2.44-5.48 7.66 7.66 0 0 1 5.18-3.44 19.999 19.999 0 0 1 5.8.16 33.997 33.997 0 0 0-5.42 1.26 6.28 6.28 0 0 0-3.62 3.34 20.72 20.72 0 0 0-1.68 5 56.849 56.849 0 0 1-1.56 5.56 27.023 27.023 0 0 1-2.6 5.36 17 17 0 0 1-4.14 4.4c-1.6 1.22-3.32 2-4.8 3.04a12.38 12.38 0 0 0-3.72 3.88z"/></g></svg>