<svg version="1.1" id="chip-10" xmlns="http://www.w3.org/2000/svg" xmlns:xlink="http://www.w3.org/1999/xlink" x="0px" y="0px"
	 viewBox="0 0 56 56" style="enable-background:new 0 0 56 56;" xml:space="preserve">
<style type="text/css">
	.st0{fill:#FFFFFF;}
	.st1{fill:#024F11;stroke:#2B7402;stroke-width:2;stroke-miterlimit:10;}
	.st2{enable-background:new    ;}
</style>
<g>
	<g>
		<ellipse class="st0" cx="28" cy="28" rx="26.3" ry="27.2"/>
		<ellipse class="st1" cx="28" cy="28" rx="26.3" ry="27.2"/>
	</g>
	<path class="st0" d="M28,13.9c2.4,0,4.7,0.5,6.8,1.3V1c-2.2-0.6-4.4-0.9-6.8-0.9S23.4,0.5,21.2,1v14.2C23.3,14.4,25.6,13.9,28,13.9
		z"/>
	<path class="st0" d="M28.1,42c-2.4,0-4.7-0.5-6.8-1.3v14.2c2.2,0.6,4.4,0.9,6.8,0.9s4.6-0.3,6.8-0.9V40.7
		C32.8,41.5,30.5,42,28.1,42z"/>
	<path class="st0" d="M41.4,28c0,2.4-0.4,4.7-1.2,6.8H54c0.6-2.2,0.8-4.4,0.8-6.8s-0.3-4.6-0.8-6.8H40.2
		C40.9,23.3,41.4,25.6,41.4,28z"/>
	<path class="st0" d="M14.6,28c0-2.4,0.4-4.7,1.2-6.8H2.1c-0.6,2.2-0.8,4.4-0.8,6.8s0.3,4.6,0.8,6.8h13.8
		C15.1,32.7,14.6,30.4,14.6,28z"/>
	<g class="st2">
		<path class="st0" d="M25.1,31.2h2.7v2.6h-8.5v-2.6h2.6V25l-2.5,1.4v-2.8l3.8-2.2h1.9V31.2z"/>
		<path class="st0" d="M29.7,32.3c-0.8-1.1-1.2-2.6-1.2-4.7c0-2,0.4-3.6,1.2-4.6c0.8-1.1,2-1.6,3.5-1.6c1.5,0,2.7,0.5,3.5,1.6
			c0.8,1.1,1.2,2.6,1.2,4.6c0,2-0.4,3.6-1.2,4.7c-0.8,1.1-2,1.6-3.5,1.6C31.7,33.9,30.5,33.4,29.7,32.3z M34.4,30.6
			c0.2-0.6,0.4-1.6,0.4-3c0-1.3-0.1-2.3-0.4-2.9s-0.6-0.9-1.2-0.9c-0.6,0-0.9,0.3-1.2,0.9s-0.4,1.6-0.4,2.9c0,1.4,0.1,2.4,0.4,3
			c0.2,0.6,0.6,0.9,1.2,0.9C33.8,31.5,34.1,31.2,34.4,30.6z"/>
	</g>
</g>
</svg>
