<svg version="1.1" id="chip-100" xmlns="http://www.w3.org/2000/svg" xmlns:xlink="http://www.w3.org/1999/xlink" x="0px" y="0px"
	 viewBox="0 0 56 56" style="enable-background:new 0 0 56 56;" xml:space="preserve">
<style type="text/css">
	.st0{fill:#FFFFFF;}
	.st1{fill:#3D3D3E;stroke:#000000;stroke-width:2;stroke-miterlimit:10;}
	.st2{enable-background:new    ;}
</style>
<g>
	<g>
		<ellipse class="st0" cx="28" cy="28" rx="26.3" ry="27.2"/>
		<ellipse class="st1" cx="28" cy="28" rx="26.3" ry="27.2"/>
	</g>
	<path class="st0" d="M28,12.9c2.4,0,4.7,0.4,6.8,1V2.7C32.6,2.2,30.4,2,28,2s-4.6,0.3-6.8,0.7v11.2C23.3,13.3,25.6,12.9,28,12.9z"
		/>
	<path class="st0" d="M28.1,43c-2.4,0-4.7-0.4-6.8-1v11.2c2.2,0.5,4.4,0.7,6.8,0.7s4.6-0.2,6.8-0.7V42C32.8,42.6,30.5,43,28.1,43z"
		/>
	<path class="st0" d="M42.3,28c0,2.4-0.3,4.7-0.9,6.8h10.8c0.5-2.2,0.6-4.4,0.6-6.8s-0.2-4.6-0.6-6.8H41.4
		C41.9,23.3,42.3,25.6,42.3,28z"/>
	<path class="st0" d="M13.6,28c0-2.4,0.3-4.7,0.9-6.8H3.8c-0.5,2.2-0.6,4.4-0.6,6.8s0.2,4.6,0.6,6.8h10.8C14,32.7,13.6,30.4,13.6,28
		z"/>
	<g class="st2">
		<path class="st0" d="M21,30.8h2.1v2.1h-6.8v-2.1h2.1v-5l-2,1.1v-2.2l3-1.7H21V30.8z"/>
		<path class="st0" d="M24.6,31.7c-0.6-0.9-1-2.1-1-3.8c0-1.6,0.3-2.9,1-3.7s1.6-1.3,2.8-1.3c1.2,0,2.2,0.4,2.8,1.3s1,2.1,1,3.7
			c0,1.6-0.3,2.9-1,3.8c-0.7,0.9-1.6,1.3-2.8,1.3C26.2,33,25.3,32.5,24.6,31.7z M28.4,30.3c0.2-0.5,0.3-1.3,0.3-2.4
			c0-1.1-0.1-1.9-0.3-2.3c-0.2-0.5-0.5-0.7-1-0.7c-0.4,0-0.8,0.2-1,0.7c-0.2,0.5-0.3,1.3-0.3,2.3c0,1.1,0.1,1.9,0.3,2.4
			c0.2,0.5,0.5,0.7,1,0.7C27.9,31,28.2,30.8,28.4,30.3z"/>
		<path class="st0" d="M32.9,31.7c-0.7-0.9-1-2.1-1-3.8c0-1.6,0.3-2.9,1-3.7s1.6-1.3,2.8-1.3c1.2,0,2.2,0.4,2.8,1.3
			c0.7,0.9,1,2.1,1,3.7c0,1.6-0.3,2.9-1,3.8C37.9,32.5,37,33,35.7,33C34.5,33,33.6,32.5,32.9,31.7z M36.7,30.3
			c0.2-0.5,0.3-1.3,0.3-2.4c0-1.1-0.1-1.9-0.3-2.3c-0.2-0.5-0.5-0.7-1-0.7s-0.8,0.2-1,0.7c-0.2,0.5-0.3,1.3-0.3,2.3
			c0,1.1,0.1,1.9,0.3,2.4c0.2,0.5,0.5,0.7,1,0.7S36.5,30.8,36.7,30.3z"/>
	</g>
</g>
</svg>
