<svg version="1.1" id="Capa_1" xmlns="http://www.w3.org/2000/svg" xmlns:xlink="http://www.w3.org/1999/xlink" x="0px" y="0px"
	 viewBox="0 0 56 56" style="enable-background:new 0 0 56 56;" xml:space="">
<style type="text/css">
	.st0{fill:#FFFFFF;}
	.st1{fill:#E6A238;stroke:#E68038;stroke-width:2;stroke-miterlimit:10;}
	.st2{fill:none;stroke:#FFE55C;stroke-width:2;stroke-miterlimit:10;}
	.st3{fill:#FFE55C;}
	.st4{enable-background:new    ;}
</style>
<g>
	<g>
		<ellipse class="st0" cx="28" cy="28" rx="26.3" ry="27.2"/>
		<ellipse class="st1" cx="28" cy="28" rx="26.3" ry="27.2"/>
	</g>
	<circle class="st2" cx="27.8" cy="28.5" r="16.7"/>
	<path class="st3" d="M28,11.2c2.4,0,4.7,0.3,6.8,0.8V2.6C32.6,2.2,30.4,2,28,2s-4.6,0.3-6.8,0.6v9.5C23.3,11.6,25.6,11.2,28,11.2z"
		/>
	<path class="st3" d="M28.1,43.9c-2.4,0-4.7-0.4-6.8-0.9v10.3c2.2,0.5,4.4,0.6,6.8,0.6s4.6-0.2,6.8-0.6V43
		C32.8,43.5,30.5,43.9,28.1,43.9z"/>
	<path class="st3" d="M43.9,28c0,2.4-0.3,4.7-0.8,6.8h9.2c0.4-2.2,0.5-4.4,0.5-6.8s-0.2-4.6-0.5-6.8h-9.2
		C43.6,23.3,43.9,25.6,43.9,28z"/>
	<path class="st3" d="M11.3,28c0-2.4,0.3-4.7,0.8-6.8h-9c-0.4,2.2-0.5,4.4-0.5,6.8s0.2,4.6,0.5,6.8h9.1C11.7,32.7,11.3,30.4,11.3,28
		z"/>
	<g class="st4">
		<path class="st0" d="M18.5,30.8h1.8v1.8h-5.9v-1.8h1.8v-4.3l-1.7,1v-1.9l2.6-1.5h1.3V30.8z"/>
		<path class="st0" d="M21.6,31.6c-0.6-0.7-0.8-1.8-0.8-3.2c0-1.4,0.3-2.5,0.8-3.2c0.6-0.7,1.4-1.1,2.4-1.1c1.1,0,1.9,0.4,2.4,1.1
			c0.6,0.7,0.8,1.8,0.8,3.2c0,1.4-0.3,2.5-0.8,3.2c-0.6,0.7-1.4,1.1-2.4,1.1C23,32.7,22.2,32.3,21.6,31.6z M24.9,30.4
			c0.2-0.4,0.3-1.1,0.3-2.1c0-0.9-0.1-1.6-0.3-2c-0.2-0.4-0.4-0.6-0.8-0.6c-0.4,0-0.7,0.2-0.8,0.6s-0.3,1.1-0.3,2
			c0,1,0.1,1.6,0.3,2.1s0.4,0.6,0.8,0.6C24.4,31,24.7,30.8,24.9,30.4z"/>
		<path class="st0" d="M28.8,31.6c-0.6-0.7-0.8-1.8-0.8-3.2c0-1.4,0.3-2.5,0.8-3.2c0.6-0.7,1.4-1.1,2.4-1.1s1.9,0.4,2.4,1.1
			c0.6,0.7,0.8,1.8,0.8,3.2c0,1.4-0.3,2.5-0.8,3.2c-0.6,0.7-1.4,1.1-2.4,1.1S29.4,32.3,28.8,31.6z M32,30.4c0.2-0.4,0.3-1.1,0.3-2.1
			c0-0.9-0.1-1.6-0.3-2c-0.2-0.4-0.4-0.6-0.8-0.6s-0.7,0.2-0.8,0.6s-0.3,1.1-0.3,2c0,1,0.1,1.6,0.3,2.1s0.4,0.6,0.8,0.6
			S31.9,30.8,32,30.4z"/>
		<path class="st0" d="M36,31.6c-0.6-0.7-0.8-1.8-0.8-3.2c0-1.4,0.3-2.5,0.8-3.2c0.6-0.7,1.4-1.1,2.4-1.1s1.9,0.4,2.4,1.1
			c0.6,0.7,0.8,1.8,0.8,3.2c0,1.4-0.3,2.5-0.8,3.2c-0.6,0.7-1.4,1.1-2.4,1.1S36.5,32.3,36,31.6z M39.2,30.4c0.2-0.4,0.3-1.1,0.3-2.1
			c0-0.9-0.1-1.6-0.3-2c-0.2-0.4-0.4-0.6-0.8-0.6s-0.7,0.2-0.8,0.6s-0.3,1.1-0.3,2c0,1,0.1,1.6,0.3,2.1S38,31,38.4,31
			S39,30.8,39.2,30.4z"/>
	</g>
</g>
</svg>
