<svg xmlns="http://www.w3.org/2000/svg" viewBox="0 0 56 56"><ellipse cx="28" cy="28" rx="26.3" ry="27.2" fill="#fff"/><g stroke-width="2"><ellipse cx="28" cy="28" rx="26.3" ry="27.2" fill="#e6a238" stroke="#e68038"/><circle cx="27.8" cy="28.5" r="16.7" fill="none" stroke="#ffe55c"/></g><path d="M28 11.2c2.4 0 4.7.3 6.8.8V2.6C32.6 2.2 30.4 2 28 2s-4.6.3-6.8.6v9.5c2.1-.5 4.4-.9 6.8-.9zm.1 32.7c-2.4 0-4.7-.4-6.8-.9v10.3c2.2.5 4.4.6 6.8.6s4.6-.2 6.8-.6V43c-2.1.5-4.4.9-6.8.9zM43.9 28c0 2.4-.3 4.7-.8 6.8h9.2c.4-2.2.5-4.4.5-6.8s-.2-4.6-.5-6.8h-9.2c.5 2.1.8 4.4.8 6.8zm-32.6 0c0-2.4.3-4.7.8-6.8h-9c-.4 2.2-.5 4.4-.5 6.8s.2 4.6.5 6.8h9.1c-.5-2.1-.9-4.4-.9-6.8z" fill="#ffe55c"/><path d="M18.5 30.8h1.8v1.8h-5.9v-1.8h1.8v-4.3l-1.7 1v-1.9l2.6-1.5h1.3v6.7zm3.1.8c-.6-.7-.8-1.8-.8-3.2s.3-2.5.8-3.2a3.04 3.04 0 0 1 2.4-1.1c1.1 0 1.9.4 2.4 1.1.6.7.8 1.8.8 3.2s-.3 2.5-.8 3.2a3.04 3.04 0 0 1-2.4 1.1 3.04 3.04 0 0 1-2.4-1.1zm3.3-1.2c.2-.4.3-1.1.3-2.1 0-.9-.1-1.6-.3-2s-.4-.6-.8-.6-.7.2-.8.6-.3 1.1-.3 2c0 1 .1 1.6.3 2.1s.4.6.8.6c.3 0 .6-.2.8-.6zm3.9 1.2c-.6-.7-.8-1.8-.8-3.2s.3-2.5.8-3.2a3.04 3.04 0 0 1 2.4-1.1c1 0 1.9.4 2.4 1.1.6.7.8 1.8.8 3.2s-.3 2.5-.8 3.2a3.04 3.04 0 0 1-2.4 1.1 3.04 3.04 0 0 1-2.4-1.1zm3.2-1.2c.2-.4.3-1.1.3-2.1 0-.9-.1-1.6-.3-2s-.4-.6-.8-.6-.7.2-.8.6-.3 1.1-.3 2c0 1 .1 1.6.3 2.1s.4.6.8.6.7-.2.8-.6zm4 1.2c-.6-.7-.8-1.8-.8-3.2s.3-2.5.8-3.2a3.04 3.04 0 0 1 2.4-1.1c1 0 1.9.4 2.4 1.1.6.7.8 1.8.8 3.2s-.3 2.5-.8 3.2a3.04 3.04 0 0 1-2.4 1.1c-1 0-1.9-.4-2.4-1.1zm3.2-1.2c.2-.4.3-1.1.3-2.1 0-.9-.1-1.6-.3-2s-.4-.6-.8-.6-.7.2-.8.6-.3 1.1-.3 2c0 1 .1 1.6.3 2.1s.4.6.8.6.6-.2.8-.6z" enable-background="new" fill="#fff"/></svg>