<svg version="1.1" id="chip-25" xmlns="http://www.w3.org/2000/svg" xmlns:xlink="http://www.w3.org/1999/xlink" x="0px" y="0px"
	 viewBox="0 0 56 56" style="enable-background:new 0 0 56 56;" xml:space="preserve">
<style type="text/css">
	.st0{fill:#BD4C25;stroke:#E68038;stroke-width:2;stroke-miterlimit:10;}
	.st1{fill:none;stroke:#B18006;stroke-width:2;stroke-miterlimit:10;}
	.st2{fill:#B18006;}
	.st3{enable-background:new;}
	.st4{fill:#FFFFFF;}
</style>
<g>
	<g>
		<ellipse class="st0" cx="28" cy="28" rx="26.3" ry="27.2"/>
	</g>
	<circle class="st1" cx="27.8" cy="28.5" r="16.7"/>
	<path class="st2" d="M27.7,11.2c2.4,0,4.7,0.3,6.8,0.8V2.6c-2.2-0.4-4.4-0.9-6.8-0.9s-4.6,0.6-6.8,0.9v9.5
		C23,11.6,25.3,11.2,27.7,11.2z"/>
	<path class="st2" d="M28.1,45.5c-2.4,0-4.7-0.3-6.8-0.8v8.7c2.2,0.4,4.4,0.7,6.8,0.7s4.6-0.4,6.8-0.7v-8.7
		C32.8,45.1,30.5,45.5,28.1,45.5z"/>
	<path class="st2" d="M44.8,28c0,2.4-0.3,4.7-0.7,6.8h8.4c0.4-2.2,0.8-4.4,0.8-6.8s-0.6-4.6-0.8-6.8h-8.4
		C44.6,23.3,44.8,25.6,44.8,28z"/>
	<path class="st2" d="M10.9,28c0-2.4,0.3-4.7,0.7-6.8H3.5c-0.4,2.2-0.7,4.3-0.7,6.7s0.5,4.7,0.7,6.9h8.2
		C11.2,32.7,10.9,30.4,10.9,28z"/>
	<g class="st3">
		<path class="st4" d="M27.1,31.2v2.3h-7.9v-2.2l3.6-3.8c0.7-0.7,1-1.4,1-2c0-0.7-0.4-1.1-1.3-1.1c-0.4,0-0.9,0.1-1.4,0.3
			c-0.5,0.2-1,0.4-1.5,0.7l-0.9-2.1c0.4-0.4,1-0.7,1.7-0.9c0.7-0.2,1.4-0.3,2.2-0.3c0.8,0,1.5,0.1,2.1,0.4c0.6,0.3,1.1,0.6,1.4,1.1
			c0.3,0.5,0.5,1,0.5,1.7c0,0.6-0.1,1.2-0.4,1.8c-0.3,0.5-0.7,1.1-1.3,1.8l-2.2,2.3H27.1z"/>
		<path class="st4" d="M35.1,26.7c0.5,0.3,1,0.7,1.3,1.3s0.5,1.2,0.5,1.9c0,0.8-0.2,1.4-0.6,2c-0.4,0.6-0.9,1-1.6,1.3
			c-0.7,0.3-1.5,0.5-2.4,0.5c-0.7,0-1.4-0.1-2.1-0.3c-0.7-0.2-1.3-0.5-1.7-0.9l0.9-2.1c1,0.7,2,1,3,1c0.6,0,1-0.1,1.3-0.4
			c0.3-0.2,0.4-0.6,0.4-1.1c0-0.5-0.1-0.8-0.4-1.1c-0.3-0.3-0.7-0.4-1.2-0.4c-0.3,0-0.6,0-0.9,0.1c-0.3,0.1-0.7,0.2-0.9,0.4h-1.6
			v-6.6h7.4v2.2h-4.5v1.9c0.4-0.2,0.9-0.3,1.5-0.3C33.9,26.3,34.5,26.4,35.1,26.7z"/>
	</g>
</g>
</svg>
