<svg xmlns="http://www.w3.org/2000/svg" viewBox="0 0 56 56"><ellipse cx="28" cy="28" rx="26.3" ry="27.2" fill="#fff"/><ellipse cx="28" cy="28" rx="26.3" ry="27.2" fill="#ac0000" stroke="#ac0000" stroke-width="2"/><g fill="#fff"><path d="M28 13.9c2.4 0 4.7.5 6.8 1.3V1C32.6.4 30.4.1 28 .1s-4.6.4-6.8.9v14.2c2.1-.8 4.4-1.3 6.8-1.3zm.1 28.1c-2.4 0-4.7-.5-6.8-1.3v14.2c2.2.6 4.4.9 6.8.9s4.6-.3 6.8-.9V40.7c-2.1.8-4.4 1.3-6.8 1.3zm13.3-14c0 2.4-.4 4.7-1.2 6.8H54c.6-2.2.8-4.4.8-6.8s-.3-4.6-.8-6.8H40.2c.7 2.1 1.2 4.4 1.2 6.8zm-26.8 0c0-2.4.4-4.7 1.2-6.8H2.1c-.6 2.2-.8 4.4-.8 6.8s.3 4.6.8 6.8h13.8c-.8-2.1-1.3-4.4-1.3-6.8z"/><path d="M30.8 25.9a3.16 3.16 0 0 1 1.4 1.4 4.65 4.65 0 0 1 .5 2.1c0 .9-.2 1.6-.6 2.2s-1 1.1-1.7 1.5c-.8.3-1.6.5-2.6.5-.8 0-1.6-.1-2.4-.4a11.39 11.39 0 0 1-1.9-.9l1-2.3c1.1.7 2.2 1.1 3.3 1.1.6 0 1.1-.1 1.4-.4s.5-.7.5-1.2-.2-.9-.5-1.2-.8-.4-1.4-.4c-.3 0-.7.1-1 .2-.4.1-.7.2-1 .4H24v-7.3h8v2.4h-5v2.1c.5-.2 1-.3 1.7-.3.8 0 1.5.1 2.1.5z" enable-background="new"/></g></svg>