<svg id="Layer_1" data-name="Layer 1" xmlns="http://www.w3.org/2000/svg" viewBox="0 0 300 300"><defs><style>.cls-1{fill:#231f20;}.cls-2{fill:#ed1c24;}</style></defs><title>poker_logo</title><g id="layer1"><path id="path807" class="cls-1" d="M167.79,108.74v6.05h115.8v-6.05"/><path id="path3165" class="cls-1" d="M13.75,114.81H136.81v-6H13.75Z"/><path id="path827" class="cls-1" d="M34.34,141.09v18.73h5.38c3.45,0,4.83-2,4.83-3.49V143.6c0-1.35-1.93-2.51-5.24-2.51Zm0,22.52v10.65a10.56,10.56,0,0,0,1.93,5.45H13.76a10.62,10.62,0,0,0,1-4.72V142.44A14.31,14.31,0,0,0,13.21,137H48.14c11.88,0,16,1.41,16,5.45v15.05c0,4.77-4,6.12-11.46,6.12"/><path id="path831" class="cls-1" d="M90.25,142.68v30.91c0,1.89,1.52,2.69,5.25,2.69s5-.74,5-2.63v-31c0-1.65-1.79-2.2-5.24-2.2S90.25,141,90.25,142.68ZM70.65,142c0-4.9,6.49-5.57,25.13-5.57s24.3.8,24.3,5.81v31.58c0,5-2.48,6.43-25,6.43-21,0-24.44-1.29-24.44-6.12"/><path id="path839" class="cls-1" d="M188.56,179.71a10.62,10.62,0,0,0,1-4.72V142.44A14.31,14.31,0,0,0,188,137h36.73v4a13.86,13.86,0,0,0-3.18-.31H209.14V155h6.76a65.06,65.06,0,0,0,6.63-.36v4.46c-1.24-.12-4-.42-6.49-.42h-6.9v16.82c5.1,0,8.28-.06,13.25-.18,1.38,0,2.62-.12,4-.12v4.47"/><path id="path835" class="cls-1" d="M148.38,159.21H148v15.54a8.93,8.93,0,0,0,1.52,5H127.4a10.62,10.62,0,0,0,1-4.72V141.58c0-1.71-.7-2.94-1.52-4.59h22.22a11.6,11.6,0,0,0-1.1,4.1v15.73h.28s13.25-11.87,20.29-18.6a7.58,7.58,0,0,0,1-1.23h11.87L162.61,152.6l19.74,24.11a24.54,24.54,0,0,0,3.31,3H162.47a10.85,10.85,0,0,0-1.25-3.13"/><path id="path851" class="cls-1" d="M251.25,141.09v14.69H255c5,0,6.49-2,6.49-3.49V143.6c0-1.35-1.93-2.51-5.25-2.51Zm0,18.61v15.35a6.28,6.28,0,0,0,1.93,4.66H230.67a10.62,10.62,0,0,0,1-4.72V142.44a14.31,14.31,0,0,0-1.52-5.45h34.93c11.88,0,16,1.41,16,5.45V152c0,3.68-4.69,4.78-12.57,5.57,7.6.55,12.57,1.47,12.57,4.9v12.91a6.72,6.72,0,0,0,2.07,4.35H261.46V163.18c0-2.57-2.9-3.48-6.76-3.48"/><path id="path805" class="cls-1" d="M13.75,193.13H283.59v-6.06H13.75Z"/><path id="path811" class="cls-2" d="M23.45,196.35,14.68,213l8.77,16.69L32.23,213Z"/><path id="path815" class="cls-2" d="M181.88,197.49a7.12,7.12,0,0,0-7.12,7.12c0,3.94,9.62,13,13.73,22,4.11-9,13.73-18,13.73-22a7.15,7.15,0,0,0-13.73-2.76A7.18,7.18,0,0,0,181.88,197.49Z"/><path id="path823" class="cls-1" d="M271,198.12a6.32,6.32,0,0,0-5.1,10.12c.28.49.59,1.18.32,1.49s-1.09.09-1.45-.08l-.18-.09h-.06A6.33,6.33,0,1,0,268.1,218l.18-.12s.26-.57,1.4-.57c.41,0,.67.31.84.73,0,4.19-2,8-9.24,8.37a17.57,17.57,0,0,1-2.3,0v1H283v-1a17.41,17.41,0,0,1-2.29,0c-7.25-.41-9.26-4.18-9.25-8.37.17-.42.44-.73.85-.73,1.13,0,1.39.57,1.39.57l.18.12a6.36,6.36,0,1,0,3.56-8.39h-.06l-.19.09c-.35.17-1.11.46-1.44.08s0-1,.31-1.49A6.31,6.31,0,0,0,271,198.12Z"/><path id="path819-5" class="cls-1" d="M106,197.3c-4.11,7.44-13.73,15-13.73,18.22s3.19,5.9,7.13,5.9a7.63,7.63,0,0,0,6-2.71c-.38,3.67-2.65,6.77-9.18,7.13a14.66,14.66,0,0,1-2.3,0v1h24.16v-1a14.66,14.66,0,0,1-2.3,0c-6.53-.36-8.81-3.46-9.19-7.13a7.62,7.62,0,0,0,6,2.71c3.94,0,7.12-2.64,7.12-5.9S110.09,204.74,106,197.3Z"/></g><path class="cls-2" d="M12,76.85h3.95V96.47h8.22v2.25H12Z"/><path class="cls-2" d="M34.39,76.4l7.55,22.32h-4l-2-6H29.63l-2.11,6H24.83L32.68,76.4Zm-4,14.32h4.84l-2.38-7.07Z"/><path class="cls-2" d="M44.19,76.85h6.05a7.87,7.87,0,0,1,2.74.44,5.35,5.35,0,0,1,1.94,1.24,5.15,5.15,0,0,1,1.17,1.9,7,7,0,0,1,.39,2.38,6,6,0,0,1-.26,1.77,5.88,5.88,0,0,1-.75,1.53,5.68,5.68,0,0,1-1.16,1.24,6.93,6.93,0,0,1-1.51.9l5.74,10.47h-4.3l-5.4-9.89h-.7v9.89h-4Zm4,10.06H49a3.27,3.27,0,0,0,1.34-.27,3.11,3.11,0,0,0,1.07-.79,3.53,3.53,0,0,0,.71-1.25,5.1,5.1,0,0,0,.25-1.67,6.16,6.16,0,0,0-.19-1.6,4.33,4.33,0,0,0-.54-1.25,2.56,2.56,0,0,0-.83-.81A2,2,0,0,0,49.74,79h-1.6Z"/><path class="cls-2" d="M67.75,76.4,75.3,98.72h-4l-2-6H63l-2.11,6H58.19L66,76.4Zm-4,14.32h4.84l-2.39-7.07Z"/><path class="cls-2" d="M78.12,76.85,83.44,92l4.94-15.11h2.53L83.67,99H81.83L74,76.85Z"/><path class="cls-2" d="M105.1,76.85v1.87H97v7.21h6.71V87.8H97v8.67h8.08v2.25h-12V76.85Z"/><path class="cls-2" d="M107.61,76.85h4V96.47h8.21v2.25H107.61Z"/><path d="M22.05,119v.78H19.28v8.41h-2v-8.41H14.55V119Z"/><path d="M30.29,118.82,34,128.2H32l-1-2.51H27.93l-1.05,2.51H25.54l3.9-9.38Zm-2,6h2.4l-1.18-3Z"/><path d="M39.11,119h2v9.19h-2Z"/><path d="M47,119h2v8.25h4.08v.94H47Z"/><path d="M58.76,119l2,5.94,2-6,2.06,6,2-5.91h1.31L65,128.34h-.89l-1.64-4.8-1.61,4.8H60L56.78,119Z"/><path d="M73.18,119h2v9.19h-2Z"/><path d="M81.09,119h1.26l4.56,5.84V119h1.23v9.33h-.85l-5-6.46v6.32H81.09Z"/><path d="M94.09,119H97a6.68,6.68,0,0,1,2,.3,4.52,4.52,0,0,1,1.62.88,3.9,3.9,0,0,1,1,1.41,4.67,4.67,0,0,1,.38,1.92,5.16,5.16,0,0,1-.32,1.82,4.17,4.17,0,0,1-.93,1.49,4.41,4.41,0,0,1-1.5,1,5.46,5.46,0,0,1-2,.36H94.09Zm2,8.25h1a2.52,2.52,0,0,0,1.09-.24,2.67,2.67,0,0,0,.89-.72,3.6,3.6,0,0,0,.61-1.17,5.14,5.14,0,0,0,.22-1.59,4.71,4.71,0,0,0-.21-1.43,3.6,3.6,0,0,0-.58-1.14,2.7,2.7,0,0,0-.89-.76,2.39,2.39,0,0,0-1.13-.27h-1Z"/><path d="M206,119.35H208v8.7H206Z"/><path d="M214.73,119.35h1.34l4.84,5.53v-5.53h1.31v8.82h-.9l-5.27-6.1v6h-1.32Z"/><path d="M235.27,119.35v.75H231V123h3.54v.75H231v3.44h4.26v.9h-6.35v-8.7Z"/><path d="M241.17,119.35h3.2a5.15,5.15,0,0,1,1.44.18,3.08,3.08,0,0,1,1,.49,2.06,2.06,0,0,1,.62.76,2.26,2.26,0,0,1,.2.94,1.7,1.7,0,0,1-.14.71,1.94,1.94,0,0,1-.39.6,2.57,2.57,0,0,1-.62.5,3.78,3.78,0,0,1-.79.35l3,4.17h-2.27l-2.85-3.93h-.37v3.93h-2.09Zm2.09,4h.45a2.07,2.07,0,0,0,.71-.11,1.61,1.61,0,0,0,.56-.31,1.38,1.38,0,0,0,.37-.49,1.6,1.6,0,0,0,.14-.67,1.91,1.91,0,0,0-.11-.64,1.39,1.39,0,0,0-.28-.49,1.31,1.31,0,0,0-.44-.33,1.47,1.47,0,0,0-.56-.11h-.84Z"/><path d="M260.8,119.35v.75h-2.94v8h-2.08v-8h-2.95v-.75Z"/><path d="M266.73,119.35h2.09v8.7h-2.09Z"/><path d="M279.59,119.17l4,8.88h-2.13l-1.06-2.38h-3.31L276,128.05h-1.42l4.14-8.88Zm-2.12,5.7H280l-1.26-2.81Z"/><path class="cls-1" d="M157.41,123.58a5.09,5.09,0,0,1-2.17-.53,10.1,10.1,0,0,1-2.21-1.47,8.74,8.74,0,0,1-5.77,2,7.39,7.39,0,0,1-2.54-.41,5.49,5.49,0,0,1-1.89-1.14,4.67,4.67,0,0,1-1.16-1.73,5.89,5.89,0,0,1-.4-2.2,6.72,6.72,0,0,1,.41-2.38,8.09,8.09,0,0,1,1.1-2,10.86,10.86,0,0,1,1.57-1.69c.59-.51,1.2-1,1.85-1.49a23.24,23.24,0,0,1-.66-2.68,14.45,14.45,0,0,1-.24-2.56,7.43,7.43,0,0,1,.4-2.38,6.69,6.69,0,0,1,1.13-2.07,5.9,5.9,0,0,1,1.76-1.46,4.73,4.73,0,0,1,2.29-.55,5.55,5.55,0,0,1,1.74.28,4.41,4.41,0,0,1,2.69,2.45,5.49,5.49,0,0,1,.43,2.3,5.26,5.26,0,0,1-.45,2.19,8.08,8.08,0,0,1-1.2,1.86,12.39,12.39,0,0,1-1.68,1.63c-.63.5-1.27,1-1.92,1.47a28.63,28.63,0,0,0,1.33,3.17,22.82,22.82,0,0,0,1.63,2.85c.42-.55.82-1.12,1.19-1.71s.73-1.18,1-1.77.6-1.16.85-1.71.46-1.06.63-1.52l2.14,1.82c-.65,1.3-1.31,2.55-2,3.76a26.88,26.88,0,0,1-2.13,3.31,6.24,6.24,0,0,0,1.43,1.09,2.91,2.91,0,0,0,1.4.39,2.2,2.2,0,0,0,1.05-.24,2.53,2.53,0,0,0,.8-.66,4.67,4.67,0,0,0,.61-1c.17-.39.34-.82.5-1.29l1.67,1a7.59,7.59,0,0,1-1.94,3.9A4.69,4.69,0,0,1,157.41,123.58ZM148,120.73a3.75,3.75,0,0,0,1.53-.32,6.84,6.84,0,0,0,1.48-.89,24.82,24.82,0,0,1-2-2.81,28.33,28.33,0,0,1-1.7-3.17,8.72,8.72,0,0,0-1.47,1.81,4,4,0,0,0-.57,2.11,4.63,4.63,0,0,0,.16,1.24,3,3,0,0,0,.48,1,2.37,2.37,0,0,0,.84.73A2.73,2.73,0,0,0,148,120.73Zm1.18-15.85a13.17,13.17,0,0,0,.1,1.5c.07.53.16,1.08.29,1.65a14,14,0,0,0,1.14-1,7.62,7.62,0,0,0,.91-1.09,6.12,6.12,0,0,0,.6-1.2,4.24,4.24,0,0,0,.21-1.35,4.63,4.63,0,0,0-.1-1.07,2.17,2.17,0,0,0-.29-.7,1,1,0,0,0-.46-.37,1.48,1.48,0,0,0-.57-.11,1,1,0,0,0-.71.29,2.66,2.66,0,0,0-.59.77,5.36,5.36,0,0,0-.39,1.19A7.62,7.62,0,0,0,149.22,104.88Z"/><path class="cls-2" d="M185.33,76.84l7,15,6.54-15h3.34l-9.58,22h-2.44l-10.3-22Z"/><path class="cls-2" d="M205.11,76.84h5.23v14a7,7,0,0,0,.39,2.35,5.82,5.82,0,0,0,1.1,1.93,5.15,5.15,0,0,0,4,1.79,5.06,5.06,0,0,0,4-1.79,5.8,5.8,0,0,0,1.09-1.93,7,7,0,0,0,.39-2.35v-14h3.3v14A9.09,9.09,0,0,1,224,94a6.84,6.84,0,0,1-1.75,2.61,8.61,8.61,0,0,1-3.06,1.78,13.6,13.6,0,0,1-4.5.66,12,12,0,0,1-4.14-.66,8.83,8.83,0,0,1-3-1.78A7.65,7.65,0,0,1,205.73,94a8.37,8.37,0,0,1-.62-3.2Z"/><path class="cls-2" d="M245.83,76.84V78.7H235.15v7.16H244v1.86h-8.88v8.61h10.68v2.23H229.92V76.84Z"/><path class="cls-2" d="M255.34,76.84h5.23v16a6.11,6.11,0,0,1-.48,2.44,5.06,5.06,0,0,1-1.44,1.91,6.7,6.7,0,0,1-2.39,1.26,11,11,0,0,1-3.36.46,10.24,10.24,0,0,1-2-.19,10.43,10.43,0,0,1-1.69-.51,11.9,11.9,0,0,1-1.48-.7q-.69-.39-1.32-.81l1.48-1.91a5.55,5.55,0,0,0,.8.67,6.18,6.18,0,0,0,1,.61,7,7,0,0,0,1.24.45,5.13,5.13,0,0,0,1.36.18,3.12,3.12,0,0,0,2.19-.74,2.57,2.57,0,0,0,.8-2Z"/><path class="cls-2" d="M273.5,98.88a10.85,10.85,0,0,1-3.35-.46,7.36,7.36,0,0,1-2.45-1.26,6.12,6.12,0,0,1-1.6-1.91,7.89,7.89,0,0,1-.82-2.44h3.63a6.87,6.87,0,0,0,.55,1.52,4.5,4.5,0,0,0,.92,1.23,4.19,4.19,0,0,0,1.32.81,4.83,4.83,0,0,0,1.77.3,5.79,5.79,0,0,0,1.31-.15,3.38,3.38,0,0,0,1.17-.47,2.5,2.5,0,0,0,.83-.85,2.42,2.42,0,0,0,.32-1.29,3,3,0,0,0-.49-1.71,5.36,5.36,0,0,0-1.29-1.37,11.79,11.79,0,0,0-1.82-1.14c-.68-.36-1.38-.71-2.09-1.07s-1.41-.73-2.09-1.13a10,10,0,0,1-1.82-1.32,6.15,6.15,0,0,1-1.29-1.65,4.5,4.5,0,0,1-.49-2.11,5.22,5.22,0,0,1,.56-2.39,5.62,5.62,0,0,1,1.61-1.91,8,8,0,0,1,2.58-1.26,11.86,11.86,0,0,1,3.47-.46,8.89,8.89,0,0,1,2.91.45,7.71,7.71,0,0,1,2.3,1.24,7.58,7.58,0,0,1,1.67,1.86,9,9,0,0,1,1,2.28h-3.28a12.18,12.18,0,0,0-.66-1.47,5.24,5.24,0,0,0-.93-1.23,4,4,0,0,0-1.34-.85,5.19,5.19,0,0,0-1.87-.31,4.81,4.81,0,0,0-1.72.27,3.41,3.41,0,0,0-1.12.7,2.5,2.5,0,0,0-.61,1,2.82,2.82,0,0,0-.19,1,2.67,2.67,0,0,0,.5,1.57A6.17,6.17,0,0,0,272,84.18a14.84,14.84,0,0,0,1.88,1.16L276,86.45c.73.37,1.44.77,2.15,1.18A11.64,11.64,0,0,1,280,89a6.57,6.57,0,0,1,1.33,1.63,4,4,0,0,1,.5,2,5.83,5.83,0,0,1-.53,2.47,5.58,5.58,0,0,1-1.59,2,7.81,7.81,0,0,1-2.61,1.32A12.38,12.38,0,0,1,273.5,98.88Z"/></svg>