<svg xmlns="http://www.w3.org/2000/svg" id="Layer_1" data-name="Layer 1" viewBox="0 0 300 125.78"><defs><style>.cls-1{fill:#231f20}.cls-2{fill:#ed1c24}</style></defs><title>poker_logo_main</title><g id="layer1"><path id="path3165" d="M13.75,18.17H283.59v-6H13.75Z" class="cls-1"/><path id="path827" d="M34.34,31V49.69h5.38c3.45,0,4.83-2,4.83-3.49V33.47c0-1.34-1.93-2.5-5.24-2.5Zm0,22.52V64.13a10.48,10.48,0,0,0,1.93,5.45H13.76a10.6,10.6,0,0,0,1-4.71V32.31a14.26,14.26,0,0,0-1.52-5.44H48.14c11.88,0,16,1.4,16,5.44V47.37c0,4.77-4,6.12-11.46,6.12" class="cls-1"/><path id="path831" d="M90.25,32.56v30.9c0,1.9,1.52,2.69,5.25,2.69s5-.73,5-2.63v-31c0-1.66-1.79-2.21-5.24-2.21S90.25,30.84,90.25,32.56Zm-19.6-.68c0-4.89,6.49-5.56,25.13-5.56s24.3.79,24.3,5.81V63.71c0,5-2.48,6.42-25,6.42-21,0-24.44-1.29-24.44-6.12" class="cls-1"/><path id="path839" d="M188.56,69.58a10.6,10.6,0,0,0,1-4.71V32.31A14.26,14.26,0,0,0,188,26.87h36.73v4a14.55,14.55,0,0,0-3.18-.3H209.14V44.92h6.76a64.28,64.28,0,0,0,6.63-.37V49c-1.24-.12-4-.43-6.49-.43h-6.9V65.42c5.1,0,8.28-.06,13.25-.19,1.38,0,2.62-.12,4-.12v4.47" class="cls-1"/><path id="path835" d="M148.38,49.08H148V64.62a8.87,8.87,0,0,0,1.52,5H127.4a10.6,10.6,0,0,0,1-4.71V31.46c0-1.72-.7-2.94-1.52-4.59h22.22A11.48,11.48,0,0,0,148,31V46.69h.28s13.25-11.87,20.29-18.6a7.67,7.67,0,0,0,1-1.22h11.87l-18.77,15.6,19.74,24.11a24.54,24.54,0,0,0,3.31,3H162.47a10.68,10.68,0,0,0-1.25-3.12" class="cls-1"/><path id="path851" d="M251.25,31V45.65H255c5,0,6.49-2,6.49-3.49V33.48c0-1.35-1.93-2.51-5.25-2.51Zm0,18.6V64.93a6.27,6.27,0,0,0,1.93,4.65H230.67a10.6,10.6,0,0,0,1-4.71V32.31a14.26,14.26,0,0,0-1.52-5.44h34.93c11.88,0,16,1.4,16,5.44v9.55c0,3.67-4.69,4.77-12.57,5.57,7.6.55,12.57,1.47,12.57,4.89V65.23a6.69,6.69,0,0,0,2.07,4.35H261.46V53.06c0-2.57-2.9-3.49-6.76-3.49" class="cls-1"/><path id="path805" d="M13.75,83H283.59V76.94H13.75Z" class="cls-1"/><path id="path811" d="M23.45,86.23,14.68,102.9l8.77,16.69,8.78-16.69Z" class="cls-2"/><path id="path815" d="M181.88,87.36a7.13,7.13,0,0,0-7.12,7.13c0,3.93,9.62,13,13.73,22,4.11-9,13.73-18,13.73-22a7.15,7.15,0,0,0-13.73-2.77A7.18,7.18,0,0,0,181.88,87.36Z" class="cls-2"/><path id="path823" d="M271,88a6.37,6.37,0,0,0-6.37,6.34,6.3,6.3,0,0,0,1.27,3.78c.28.5.59,1.19.32,1.5s-1.09.08-1.45-.09l-.18-.09h-.06a6.33,6.33,0,1,0,3.55,8.4l.18-.12s.26-.58,1.4-.58c.41,0,.67.31.84.74,0,4.18-2,8-9.24,8.36a16,16,0,0,1-2.3,0v1H283v-1a15.84,15.84,0,0,1-2.29,0c-7.25-.4-9.26-4.18-9.25-8.36.17-.43.44-.74.85-.74,1.13,0,1.39.58,1.39.58l.18.12a6.36,6.36,0,1,0,3.56-8.4h-.06a1.63,1.63,0,0,1-.19.09c-.35.17-1.11.46-1.44.09s0-1,.31-1.5A6.31,6.31,0,0,0,271,88Z" class="cls-1"/><path id="path819-5" d="M106,87.18c-4.11,7.43-13.73,15-13.73,18.22s3.19,5.9,7.13,5.9a7.66,7.66,0,0,0,6-2.71c-.38,3.66-2.65,6.77-9.18,7.13a17.57,17.57,0,0,1-2.3,0v1h24.16v-1a17.57,17.57,0,0,1-2.3,0c-6.53-.36-8.81-3.47-9.19-7.13a7.65,7.65,0,0,0,6,2.71c3.94,0,7.12-2.64,7.12-5.9S110.09,94.61,106,87.18Z" class="cls-1"/></g></svg>